<svg width="568" height="478" viewBox="0 0 568 478" fill="none" xmlns="http://www.w3.org/2000/svg">
<g clip-path="url(#clip0_7458_56)">
<g filter="url(#filter0_d_7458_56)">
<rect width="568" height="478" rx="14.8873" fill="#007EF2" fill-opacity="0.1" shape-rendering="crispEdges"/>
</g>
<g filter="url(#filter1_d_7458_56)">
<rect x="25" y="50" width="518" height="456" rx="14.8873" fill="white"/>
</g>
<path d="M411.382 99.9379H409.43V101.934H407.613V99.9379H405.662V98.2218H407.613V96.2141H409.43V98.2218H411.382V99.9379ZM420.017 101.609H417.078L416.607 103H414.599L417.448 95.1261H419.669L422.518 103H420.488L420.017 101.609ZM419.523 100.129L418.548 97.246L417.583 100.129H419.523ZM423.004 99.8594C423.004 99.2164 423.124 98.6518 423.363 98.1658C423.61 97.6797 423.942 97.3058 424.361 97.0441C424.78 96.7824 425.247 96.6515 425.763 96.6515C426.174 96.6515 426.548 96.7375 426.885 96.9095C427.229 97.0815 427.498 97.3133 427.692 97.6049V94.6999H429.61V103H427.692V102.103C427.513 102.402 427.255 102.641 426.918 102.821C426.589 103 426.204 103.09 425.763 103.09C425.247 103.09 424.78 102.959 424.361 102.697C423.942 102.428 423.61 102.05 423.363 101.564C423.124 101.071 423.004 100.502 423.004 99.8594ZM427.692 99.8706C427.692 99.3921 427.558 99.0145 427.289 98.7378C427.027 98.4611 426.705 98.3228 426.324 98.3228C425.943 98.3228 425.617 98.4611 425.348 98.7378C425.086 99.007 424.956 99.3809 424.956 99.8594C424.956 100.338 425.086 100.719 425.348 101.003C425.617 101.28 425.943 101.418 426.324 101.418C426.705 101.418 427.027 101.28 427.289 101.003C427.558 100.727 427.692 100.349 427.692 99.8706ZM430.617 99.8594C430.617 99.2164 430.736 98.6518 430.975 98.1658C431.222 97.6797 431.555 97.3058 431.974 97.0441C432.392 96.7824 432.86 96.6515 433.376 96.6515C433.787 96.6515 434.161 96.7375 434.497 96.9095C434.841 97.0815 435.111 97.3133 435.305 97.6049V94.6999H437.223V103H435.305V102.103C435.126 102.402 434.868 102.641 434.531 102.821C434.202 103 433.817 103.09 433.376 103.09C432.86 103.09 432.392 102.959 431.974 102.697C431.555 102.428 431.222 102.05 430.975 101.564C430.736 101.071 430.617 100.502 430.617 99.8594ZM435.305 99.8706C435.305 99.3921 435.17 99.0145 434.901 98.7378C434.639 98.4611 434.318 98.3228 433.937 98.3228C433.555 98.3228 433.23 98.4611 432.961 98.7378C432.699 99.007 432.568 99.3809 432.568 99.8594C432.568 100.338 432.699 100.719 432.961 101.003C433.23 101.28 433.555 101.418 433.937 101.418C434.318 101.418 434.639 101.28 434.901 101.003C435.17 100.727 435.305 100.349 435.305 99.8706ZM444.801 96.674C445.534 96.674 446.117 96.9133 446.551 97.3918C446.992 97.8629 447.213 98.5135 447.213 99.3435V103H445.306V99.6014C445.306 99.1827 445.197 98.8574 444.981 98.6256C444.764 98.3938 444.472 98.2779 444.106 98.2779C443.739 98.2779 443.448 98.3938 443.231 98.6256C443.014 98.8574 442.905 99.1827 442.905 99.6014V103H440.987V96.7413H442.905V97.5713C443.1 97.2946 443.362 97.0778 443.691 96.9207C444.02 96.7562 444.39 96.674 444.801 96.674ZM454.445 99.7697C454.445 99.9492 454.434 100.136 454.412 100.331H450.071C450.101 100.719 450.224 101.018 450.441 101.228C450.665 101.43 450.938 101.531 451.26 101.531C451.738 101.531 452.071 101.329 452.258 100.925H454.299C454.195 101.336 454.004 101.706 453.727 102.035C453.458 102.364 453.118 102.622 452.707 102.809C452.295 102.996 451.836 103.09 451.327 103.09C450.714 103.09 450.168 102.959 449.689 102.697C449.211 102.435 448.837 102.062 448.568 101.576C448.299 101.089 448.164 100.521 448.164 99.8706C448.164 99.2201 448.295 98.6518 448.557 98.1658C448.826 97.6797 449.2 97.3058 449.678 97.0441C450.157 96.7824 450.706 96.6515 451.327 96.6515C451.933 96.6515 452.471 96.7787 452.942 97.0329C453.413 97.2871 453.78 97.6498 454.041 98.1209C454.311 98.592 454.445 99.1416 454.445 99.7697ZM452.482 99.265C452.482 98.9359 452.37 98.6742 452.146 98.4798C451.921 98.2854 451.641 98.1882 451.305 98.1882C450.983 98.1882 450.71 98.2817 450.486 98.4686C450.269 98.6555 450.134 98.921 450.082 99.265H452.482ZM464.441 96.7413L462.748 103H460.628L459.641 98.9397L458.62 103H456.511L454.806 96.7413H456.724L457.611 101.217L458.665 96.7413H460.695L461.761 101.194L462.635 96.7413H464.441ZM467.168 99.8706C467.168 99.2201 467.299 98.6518 467.561 98.1658C467.83 97.6797 468.2 97.3058 468.671 97.0441C469.15 96.7824 469.696 96.6515 470.309 96.6515C471.094 96.6515 471.748 96.8572 472.272 97.2684C472.803 97.6797 473.15 98.2592 473.315 99.007H471.273C471.101 98.5284 470.769 98.2891 470.275 98.2891C469.924 98.2891 469.643 98.4275 469.434 98.7041C469.225 98.9733 469.12 99.3622 469.12 99.8706C469.12 100.379 469.225 100.772 469.434 101.048C469.643 101.318 469.924 101.452 470.275 101.452C470.769 101.452 471.101 101.213 471.273 100.734H473.315C473.15 101.467 472.803 102.043 472.272 102.462C471.741 102.88 471.087 103.09 470.309 103.09C469.696 103.09 469.15 102.959 468.671 102.697C468.2 102.435 467.83 102.062 467.561 101.576C467.299 101.089 467.168 100.521 467.168 99.8706ZM477.19 103.09C476.577 103.09 476.023 102.959 475.53 102.697C475.044 102.435 474.659 102.062 474.374 101.576C474.098 101.089 473.959 100.521 473.959 99.8706C473.959 99.2276 474.102 98.663 474.386 98.177C474.67 97.6835 475.059 97.3058 475.552 97.0441C476.046 96.7824 476.599 96.6515 477.212 96.6515C477.825 96.6515 478.379 96.7824 478.872 97.0441C479.366 97.3058 479.755 97.6835 480.039 98.177C480.323 98.663 480.465 99.2276 480.465 99.8706C480.465 100.514 480.319 101.082 480.027 101.576C479.743 102.062 479.351 102.435 478.85 102.697C478.356 102.959 477.803 103.09 477.19 103.09ZM477.19 101.43C477.556 101.43 477.866 101.295 478.121 101.026C478.382 100.757 478.513 100.372 478.513 99.8706C478.513 99.3696 478.386 98.9845 478.132 98.7154C477.885 98.4462 477.579 98.3116 477.212 98.3116C476.838 98.3116 476.528 98.4462 476.281 98.7154C476.034 98.9771 475.911 99.3622 475.911 99.8706C475.911 100.372 476.031 100.757 476.27 101.026C476.517 101.295 476.823 101.43 477.19 101.43ZM487.663 96.7413V103H485.745V102.148C485.55 102.424 485.285 102.649 484.948 102.821C484.619 102.985 484.253 103.067 483.849 103.067C483.371 103.067 482.948 102.963 482.582 102.753C482.215 102.536 481.931 102.226 481.729 101.822C481.527 101.418 481.426 100.944 481.426 100.398V96.7413H483.333V100.14C483.333 100.559 483.442 100.884 483.658 101.116C483.875 101.347 484.167 101.463 484.533 101.463C484.907 101.463 485.203 101.347 485.419 101.116C485.636 100.884 485.745 100.559 485.745 100.14V96.7413H487.663ZM490.958 97.7844C491.183 97.4404 491.463 97.1712 491.8 96.9768C492.136 96.7749 492.51 96.674 492.921 96.674V98.7041H492.394C491.915 98.7041 491.557 98.8088 491.317 99.0182C491.078 99.2201 490.958 99.579 490.958 100.095V103H489.04V96.7413H490.958V97.7844ZM496.384 103.09C495.838 103.09 495.352 102.996 494.926 102.809C494.5 102.622 494.163 102.368 493.916 102.047C493.67 101.718 493.531 101.351 493.501 100.947H495.397C495.419 101.164 495.52 101.34 495.7 101.475C495.879 101.609 496.1 101.676 496.362 101.676C496.601 101.676 496.784 101.632 496.911 101.542C497.046 101.445 497.113 101.321 497.113 101.172C497.113 100.992 497.02 100.861 496.833 100.779C496.646 100.689 496.343 100.592 495.924 100.488C495.476 100.383 495.102 100.274 494.803 100.162C494.503 100.043 494.245 99.8594 494.029 99.6127C493.812 99.3584 493.703 99.0182 493.703 98.592C493.703 98.2331 493.801 97.9078 493.995 97.6162C494.197 97.317 494.489 97.0815 494.87 96.9095C495.259 96.7375 495.719 96.6515 496.249 96.6515C497.035 96.6515 497.652 96.846 498.1 97.2348C498.556 97.6236 498.818 98.1396 498.885 98.7827H497.113C497.083 98.5658 496.986 98.3938 496.822 98.2667C496.664 98.1396 496.455 98.076 496.193 98.076C495.969 98.076 495.797 98.1209 495.677 98.2106C495.558 98.2929 495.498 98.4088 495.498 98.5583C495.498 98.7378 495.591 98.8724 495.778 98.9621C495.973 99.0518 496.272 99.1416 496.676 99.2313C497.139 99.3509 497.517 99.4706 497.809 99.5902C498.1 99.7024 498.354 99.8893 498.571 100.151C498.796 100.405 498.911 100.749 498.919 101.183C498.919 101.549 498.814 101.878 498.605 102.17C498.403 102.454 498.108 102.678 497.719 102.843C497.337 103.007 496.893 103.09 496.384 103.09ZM505.992 99.7697C505.992 99.9492 505.981 100.136 505.959 100.331H501.618C501.648 100.719 501.771 101.018 501.988 101.228C502.212 101.43 502.485 101.531 502.807 101.531C503.285 101.531 503.618 101.329 503.805 100.925H505.846C505.742 101.336 505.551 101.706 505.274 102.035C505.005 102.364 504.665 102.622 504.254 102.809C503.842 102.996 503.383 103.09 502.874 103.09C502.261 103.09 501.715 102.959 501.236 102.697C500.758 102.435 500.384 102.062 500.115 101.576C499.846 101.089 499.711 100.521 499.711 99.8706C499.711 99.2201 499.842 98.6518 500.104 98.1658C500.373 97.6797 500.747 97.3058 501.225 97.0441C501.704 96.7824 502.253 96.6515 502.874 96.6515C503.48 96.6515 504.018 96.7787 504.489 97.0329C504.96 97.2871 505.327 97.6498 505.588 98.1209C505.858 98.592 505.992 99.1416 505.992 99.7697ZM504.029 99.265C504.029 98.9359 503.917 98.6742 503.693 98.4798C503.469 98.2854 503.188 98.1882 502.852 98.1882C502.53 98.1882 502.257 98.2817 502.033 98.4686C501.816 98.6555 501.681 98.921 501.629 99.265H504.029Z" fill="#007EF2"/>
<g opacity="0.5">
<rect x="53" y="152" width="220.253" height="126.099" rx="15.1319" fill="#D9D9D9"/>
<rect x="66" y="197" width="181" height="16" rx="6.48" fill="#B7B7B7"/>
<rect x="66" y="222" width="142" height="16" rx="6.48" fill="#B7B7B7"/>
<rect x="66" y="247" width="84" height="16" rx="6.48" fill="#B7B7B7"/>
<rect x="295.253" y="152" width="220.253" height="126.099" rx="15.1319" fill="#D9D9D9"/>
<rect x="308.253" y="197" width="181" height="16" rx="6.48" fill="#B7B7B7"/>
<rect x="308.253" y="222" width="142" height="16" rx="6.48" fill="#B7B7B7"/>
<rect x="308.253" y="247" width="84" height="16" rx="6.48" fill="#B7B7B7"/>
<rect x="53" y="304.099" width="220.253" height="126.099" rx="15.1319" fill="#D9D9D9"/>
<rect x="66" y="349.099" width="181" height="16" rx="6.48" fill="#B7B7B7"/>
<rect x="66" y="374.099" width="142" height="16" rx="6.48" fill="#B7B7B7"/>
<rect x="66" y="399.099" width="84" height="16" rx="6.48" fill="#B7B7B7"/>
<rect x="295.253" y="304.099" width="220.253" height="126.099" rx="15.1319" fill="#D9D9D9"/>
<rect x="308.253" y="349.099" width="181" height="16" rx="6.48" fill="#B7B7B7"/>
<rect x="308.253" y="374.099" width="142" height="16" rx="6.48" fill="#B7B7B7"/>
<rect x="308.253" y="399.099" width="84" height="16" rx="6.48" fill="#B7B7B7"/>
<rect x="53" y="456.198" width="220.253" height="126.099" rx="15.1319" fill="#D9D9D9"/>
<rect x="295.253" y="456.198" width="220.253" height="126.099" rx="15.1319" fill="#D9D9D9"/>
</g>
<circle cx="78.5" cy="99.5" r="25.5" fill="#E5E5E5"/>
</g>
<defs>
<filter id="filter0_d_7458_56" x="-19.4311" y="-7.06587" width="603.329" height="513.329" filterUnits="userSpaceOnUse" color-interpolation-filters="sRGB">
<feFlood flood-opacity="0" result="BackgroundImageFix"/>
<feColorMatrix in="SourceAlpha" type="matrix" values="0 0 0 0 0 0 0 0 0 0 0 0 0 0 0 0 0 0 127 0" result="hardAlpha"/>
<feOffset dx="-1.76647" dy="10.5988"/>
<feGaussianBlur stdDeviation="8.83234"/>
<feComposite in2="hardAlpha" operator="out"/>
<feColorMatrix type="matrix" values="0 0 0 0 0 0 0 0 0 0 0 0 0 0 0 0 0 0 0.06 0"/>
<feBlend mode="normal" in2="BackgroundImageFix" result="effect1_dropShadow_7458_56"/>
<feBlend mode="normal" in="SourceGraphic" in2="effect1_dropShadow_7458_56" result="shape"/>
</filter>
<filter id="filter1_d_7458_56" x="14.3353" y="17.3353" width="557.329" height="495.329" filterUnits="userSpaceOnUse" color-interpolation-filters="sRGB">
<feFlood flood-opacity="0" result="BackgroundImageFix"/>
<feColorMatrix in="SourceAlpha" type="matrix" values="0 0 0 0 0 0 0 0 0 0 0 0 0 0 0 0 0 0 127 0" result="hardAlpha"/>
<feMorphology radius="2" operator="dilate" in="SourceAlpha" result="effect1_dropShadow_7458_56"/>
<feOffset dx="9" dy="-13"/>
<feGaussianBlur stdDeviation="8.83234"/>
<feComposite in2="hardAlpha" operator="out"/>
<feColorMatrix type="matrix" values="0 0 0 0 0 0 0 0 0 0 0 0 0 0 0 0 0 0 0.04 0"/>
<feBlend mode="normal" in2="BackgroundImageFix" result="effect1_dropShadow_7458_56"/>
<feBlend mode="normal" in="SourceGraphic" in2="effect1_dropShadow_7458_56" result="shape"/>
</filter>
<clipPath id="clip0_7458_56">
<rect width="568" height="478" fill="white"/>
</clipPath>
</defs>
</svg>
