<svg width="568" height="478" viewBox="0 0 568 478" fill="none" xmlns="http://www.w3.org/2000/svg">
<g clip-path="url(#clip0_7465_118)">
<g filter="url(#filter0_d_7465_118)">
<rect width="568" height="478" rx="14.8873" fill="#FF635F" fill-opacity="0.1" shape-rendering="crispEdges"/>
</g>
<g filter="url(#filter1_d_7465_118)">
<rect x="25" y="50" width="518" height="456" rx="14.8873" fill="white"/>
</g>
<path d="M157.3 83.204V94.628C157.3 95.9347 157.589 96.9333 158.168 97.624C158.765 98.3147 159.624 98.66 160.744 98.66C161.864 98.66 162.713 98.3147 163.292 97.624C163.889 96.9333 164.188 95.9347 164.188 94.628V83.204H168.976V94.628C168.976 96.4947 168.612 98.072 167.884 99.36C167.156 100.629 166.157 101.591 164.888 102.244C163.637 102.879 162.219 103.196 160.632 103.196C159.045 103.196 157.645 102.879 156.432 102.244C155.219 101.609 154.267 100.648 153.576 99.36C152.885 98.072 152.54 96.4947 152.54 94.628V83.204H157.3ZM177.859 87.18C179.838 87.18 181.415 87.6747 182.591 88.664C183.786 89.6533 184.533 90.96 184.831 92.584H180.351C180.221 91.9493 179.922 91.4547 179.455 91.1C179.007 90.7267 178.438 90.54 177.747 90.54C177.206 90.54 176.795 90.6613 176.515 90.904C176.235 91.128 176.095 91.4547 176.095 91.884C176.095 92.3693 176.347 92.7333 176.851 92.976C177.374 93.2187 178.186 93.4613 179.287 93.704C180.482 93.984 181.462 94.2733 182.227 94.572C182.993 94.852 183.655 95.3187 184.215 95.972C184.775 96.6253 185.055 97.5027 185.055 98.604C185.055 99.5 184.813 100.293 184.327 100.984C183.842 101.675 183.142 102.216 182.227 102.608C181.313 103 180.23 103.196 178.979 103.196C176.87 103.196 175.181 102.729 173.911 101.796C172.642 100.863 171.867 99.528 171.587 97.792H176.207C176.282 98.464 176.562 98.9773 177.047 99.332C177.551 99.6867 178.195 99.864 178.979 99.864C179.521 99.864 179.931 99.7427 180.211 99.5C180.491 99.2387 180.631 98.9027 180.631 98.492C180.631 97.9507 180.37 97.568 179.847 97.344C179.343 97.1013 178.513 96.8493 177.355 96.588C176.198 96.3453 175.246 96.084 174.499 95.804C173.753 95.524 173.109 95.076 172.567 94.46C172.026 93.8253 171.755 92.9667 171.755 91.884C171.755 90.484 172.287 89.3547 173.351 88.496C174.415 87.6187 175.918 87.18 177.859 87.18ZM202.547 94.768C202.547 95.16 202.5 95.5893 202.407 96.056H191.571C191.627 97.232 191.925 98.0813 192.467 98.604C193.008 99.108 193.699 99.36 194.539 99.36C195.248 99.36 195.836 99.1827 196.303 98.828C196.769 98.4733 197.077 98.016 197.227 97.456H202.295C202.089 98.5573 201.641 99.5467 200.951 100.424C200.26 101.283 199.383 101.964 198.319 102.468C197.255 102.953 196.069 103.196 194.763 103.196C193.232 103.196 191.869 102.879 190.675 102.244C189.499 101.591 188.575 100.657 187.903 99.444C187.231 98.2307 186.895 96.812 186.895 95.188C186.895 93.5453 187.221 92.1267 187.875 90.932C188.547 89.7187 189.48 88.7947 190.675 88.16C191.869 87.5067 193.232 87.18 194.763 87.18C196.312 87.18 197.675 87.4973 198.851 88.132C200.027 88.7667 200.932 89.6627 201.567 90.82C202.22 91.9587 202.547 93.2747 202.547 94.768ZM197.703 94.04C197.721 93.0133 197.441 92.248 196.863 91.744C196.303 91.2213 195.603 90.96 194.763 90.96C193.885 90.96 193.157 91.2213 192.579 91.744C192 92.2667 191.673 93.032 191.599 94.04H197.703ZM209.831 90.316C210.428 89.364 211.193 88.608 212.127 88.048C213.079 87.488 214.105 87.208 215.207 87.208V92.332H213.835C212.565 92.332 211.576 92.6027 210.867 93.144C210.176 93.6853 209.831 94.6 209.831 95.888V103H205.043V87.376H209.831V90.316ZM245.076 83.344V103H240.288V90.708L236.032 103H231.888L227.604 90.68V103H222.816V83.344H228.668L234.016 97.036L239.252 83.344H245.076ZM254.318 87.18C255.513 87.18 256.54 87.4507 257.398 87.992C258.257 88.5333 258.892 89.2707 259.302 90.204V87.376H264.062V103H259.302V100.172C258.892 101.105 258.257 101.843 257.398 102.384C256.54 102.925 255.513 103.196 254.318 103.196C253.03 103.196 251.873 102.879 250.846 102.244C249.838 101.591 249.036 100.657 248.438 99.444C247.86 98.2307 247.57 96.812 247.57 95.188C247.57 93.5453 247.86 92.1267 248.438 90.932C249.036 89.7187 249.838 88.7947 250.846 88.16C251.873 87.5067 253.03 87.18 254.318 87.18ZM255.858 91.38C254.832 91.38 254.001 91.716 253.366 92.388C252.75 93.06 252.442 93.9933 252.442 95.188C252.442 96.3827 252.75 97.316 253.366 97.988C254.001 98.66 254.832 98.996 255.858 98.996C256.866 98.996 257.688 98.6507 258.322 97.96C258.976 97.2693 259.302 96.3453 259.302 95.188C259.302 94.012 258.976 93.088 258.322 92.416C257.688 91.7253 256.866 91.38 255.858 91.38ZM277.271 87.208C279.063 87.208 280.482 87.8053 281.527 89C282.591 90.1947 283.123 91.8373 283.123 93.928V103H278.335V94.488C278.335 93.4427 278.055 92.6307 277.495 92.052C276.954 91.4547 276.226 91.156 275.311 91.156C274.34 91.156 273.566 91.464 272.987 92.08C272.427 92.696 272.147 93.5733 272.147 94.712V103H267.359V87.376H272.147V90.232C272.595 89.2987 273.258 88.5613 274.135 88.02C275.031 87.4787 276.076 87.208 277.271 87.208ZM292.217 87.18C293.412 87.18 294.438 87.4507 295.297 87.992C296.156 88.5333 296.79 89.2707 297.201 90.204V87.376H301.961V103H297.201V100.172C296.79 101.105 296.156 101.843 295.297 102.384C294.438 102.925 293.412 103.196 292.217 103.196C290.929 103.196 289.772 102.879 288.745 102.244C287.737 101.591 286.934 100.657 286.337 99.444C285.758 98.2307 285.469 96.812 285.469 95.188C285.469 93.5453 285.758 92.1267 286.337 90.932C286.934 89.7187 287.737 88.7947 288.745 88.16C289.772 87.5067 290.929 87.18 292.217 87.18ZM293.757 91.38C292.73 91.38 291.9 91.716 291.265 92.388C290.649 93.06 290.341 93.9933 290.341 95.188C290.341 96.3827 290.649 97.316 291.265 97.988C291.9 98.66 292.73 98.996 293.757 98.996C294.765 98.996 295.586 98.6507 296.221 97.96C296.874 97.2693 297.201 96.3453 297.201 95.188C297.201 94.012 296.874 93.088 296.221 92.416C295.586 91.7253 294.765 91.38 293.757 91.38ZM311.193 87.18C312.388 87.18 313.415 87.4507 314.273 87.992C315.132 88.5333 315.767 89.2707 316.177 90.204V87.376H320.937V102.916C320.937 104.372 320.657 105.679 320.097 106.836C319.537 108.012 318.679 108.945 317.521 109.636C316.364 110.327 314.927 110.672 313.209 110.672C310.857 110.672 308.972 110.112 307.553 108.992C306.153 107.891 305.313 106.388 305.033 104.484H309.765C309.915 105.119 310.251 105.613 310.773 105.968C311.315 106.323 312.015 106.5 312.873 106.5C313.863 106.5 314.656 106.211 315.253 105.632C315.869 105.072 316.177 104.167 316.177 102.916V100.172C315.767 101.105 315.132 101.843 314.273 102.384C313.415 102.925 312.388 103.196 311.193 103.196C309.905 103.196 308.748 102.879 307.721 102.244C306.713 101.591 305.911 100.657 305.313 99.444C304.735 98.2307 304.445 96.812 304.445 95.188C304.445 93.5453 304.735 92.1267 305.313 90.932C305.911 89.7187 306.713 88.7947 307.721 88.16C308.748 87.5067 309.905 87.18 311.193 87.18ZM312.733 91.38C311.707 91.38 310.876 91.716 310.241 92.388C309.625 93.06 309.317 93.9933 309.317 95.188C309.317 96.3827 309.625 97.316 310.241 97.988C310.876 98.66 311.707 98.996 312.733 98.996C313.741 98.996 314.563 98.6507 315.197 97.96C315.851 97.2693 316.177 96.3453 316.177 95.188C316.177 94.012 315.851 93.088 315.197 92.416C314.563 91.7253 313.741 91.38 312.733 91.38ZM339.074 94.768C339.074 95.16 339.027 95.5893 338.934 96.056H328.098C328.154 97.232 328.453 98.0813 328.994 98.604C329.535 99.108 330.226 99.36 331.066 99.36C331.775 99.36 332.363 99.1827 332.83 98.828C333.297 98.4733 333.605 98.016 333.754 97.456H338.822C338.617 98.5573 338.169 99.5467 337.478 100.424C336.787 101.283 335.91 101.964 334.846 102.468C333.782 102.953 332.597 103.196 331.29 103.196C329.759 103.196 328.397 102.879 327.202 102.244C326.026 101.591 325.102 100.657 324.43 99.444C323.758 98.2307 323.422 96.812 323.422 95.188C323.422 93.5453 323.749 92.1267 324.402 90.932C325.074 89.7187 326.007 88.7947 327.202 88.16C328.397 87.5067 329.759 87.18 331.29 87.18C332.839 87.18 334.202 87.4973 335.378 88.132C336.554 88.7667 337.459 89.6627 338.094 90.82C338.747 91.9587 339.074 93.2747 339.074 94.768ZM334.23 94.04C334.249 93.0133 333.969 92.248 333.39 91.744C332.83 91.2213 332.13 90.96 331.29 90.96C330.413 90.96 329.685 91.2213 329.106 91.744C328.527 92.2667 328.201 93.032 328.126 94.04H334.23ZM361.814 87.208C363.737 87.208 365.249 87.8053 366.35 89C367.451 90.176 368.002 91.8187 368.002 93.928V103H363.242V94.488C363.242 93.4987 362.971 92.7333 362.43 92.192C361.907 91.632 361.189 91.352 360.274 91.352C359.322 91.352 358.566 91.6507 358.006 92.248C357.465 92.8267 357.194 93.648 357.194 94.712V103H352.406V94.488C352.406 93.4987 352.145 92.7333 351.622 92.192C351.099 91.632 350.381 91.352 349.466 91.352C348.514 91.352 347.758 91.6413 347.198 92.22C346.638 92.7987 346.358 93.6293 346.358 94.712V103H341.57V87.376H346.358V90.036C346.769 89.1587 347.394 88.468 348.234 87.964C349.093 87.46 350.091 87.208 351.23 87.208C352.425 87.208 353.479 87.488 354.394 88.048C355.309 88.5893 355.999 89.3733 356.466 90.4C357.007 89.4293 357.745 88.6547 358.678 88.076C359.63 87.4973 360.675 87.208 361.814 87.208ZM386.023 94.768C386.023 95.16 385.977 95.5893 385.883 96.056H375.047C375.103 97.232 375.402 98.0813 375.943 98.604C376.485 99.108 377.175 99.36 378.015 99.36C378.725 99.36 379.313 99.1827 379.779 98.828C380.246 98.4733 380.554 98.016 380.703 97.456H385.771C385.566 98.5573 385.118 99.5467 384.427 100.424C383.737 101.283 382.859 101.964 381.795 102.468C380.731 102.953 379.546 103.196 378.239 103.196C376.709 103.196 375.346 102.879 374.151 102.244C372.975 101.591 372.051 100.657 371.379 99.444C370.707 98.2307 370.371 96.812 370.371 95.188C370.371 93.5453 370.698 92.1267 371.351 90.932C372.023 89.7187 372.957 88.7947 374.151 88.16C375.346 87.5067 376.709 87.18 378.239 87.18C379.789 87.18 381.151 87.4973 382.327 88.132C383.503 88.7667 384.409 89.6627 385.043 90.82C385.697 91.9587 386.023 93.2747 386.023 94.768ZM381.179 94.04C381.198 93.0133 380.918 92.248 380.339 91.744C379.779 91.2213 379.079 90.96 378.239 90.96C377.362 90.96 376.634 91.2213 376.055 91.744C375.477 92.2667 375.15 93.032 375.075 94.04H381.179ZM398.431 87.208C400.223 87.208 401.642 87.8053 402.687 89C403.751 90.1947 404.283 91.8373 404.283 93.928V103H399.495V94.488C399.495 93.4427 399.215 92.6307 398.655 92.052C398.114 91.4547 397.386 91.156 396.471 91.156C395.501 91.156 394.726 91.464 394.147 92.08C393.587 92.696 393.307 93.5733 393.307 94.712V103H388.519V87.376H393.307V90.232C393.755 89.2987 394.418 88.5613 395.295 88.02C396.191 87.4787 397.237 87.208 398.431 87.208ZM416.289 98.884V103H414.133C412.304 103 410.876 102.552 409.849 101.656C408.841 100.741 408.337 99.2387 408.337 97.148V91.408H406.237V87.376H408.337V83.54H413.125V87.376H416.261V91.408H413.125V97.232C413.125 97.848 413.246 98.2773 413.489 98.52C413.75 98.7627 414.18 98.884 414.777 98.884H416.289Z" fill="#FF635F"/>
<g opacity="0.5">
<rect opacity="0.4" x="90" y="133" width="389" height="145.757" rx="14.2525" fill="#D9D9D9"/>
<circle cx="160.641" cy="192.339" r="44.2688" fill="#B7B7B7"/>
<rect x="235.993" y="163.141" width="229.821" height="11.3027" rx="5.65133" fill="#B7B7B7"/>
<rect x="235.993" y="186.688" width="179.901" height="11.3027" rx="5.65133" fill="#B7B7B7"/>
<rect x="235.993" y="210.235" width="106.433" height="11.3027" rx="5.65133" fill="#B7B7B7"/>
<rect x="393.817" y="253.202" width="30.2871" height="12.3041" rx="6.10344" fill="#B7B7B7"/>
<rect x="129.752" y="253.202" width="61.5207" height="12.3041" rx="6.10344" fill="#B7B7B7"/>
<rect x="435.462" y="253.202" width="30.2871" height="12.3041" rx="6.10344" fill="#B7B7B7"/>
<rect opacity="0.4" x="90" y="292.007" width="389" height="145.757" rx="14.2525" fill="#D9D9D9"/>
<circle cx="160.641" cy="351.346" r="44.2688" fill="#B7B7B7"/>
<rect x="235.993" y="322.148" width="229.821" height="11.3027" rx="5.65133" fill="#B7B7B7"/>
<rect x="235.993" y="345.695" width="179.901" height="11.3027" rx="5.65133" fill="#B7B7B7"/>
<rect x="235.993" y="369.242" width="106.433" height="11.3027" rx="5.65133" fill="#B7B7B7"/>
<rect x="393.817" y="412.209" width="30.2871" height="12.3041" rx="6.10344" fill="#B7B7B7"/>
<rect x="129.752" y="412.209" width="61.5207" height="12.3041" rx="6.10344" fill="#B7B7B7"/>
<rect x="435.462" y="412.209" width="30.2871" height="12.3041" rx="6.10344" fill="#B7B7B7"/>
<rect opacity="0.4" x="90" y="451.015" width="389" height="145.757" rx="14.2525" fill="#D9D9D9"/>
<circle cx="160.641" cy="510.354" r="44.2688" fill="#B7B7B7"/>
</g>
</g>
<defs>
<filter id="filter0_d_7465_118" x="-19.4311" y="-7.06587" width="603.329" height="513.329" filterUnits="userSpaceOnUse" color-interpolation-filters="sRGB">
<feFlood flood-opacity="0" result="BackgroundImageFix"/>
<feColorMatrix in="SourceAlpha" type="matrix" values="0 0 0 0 0 0 0 0 0 0 0 0 0 0 0 0 0 0 127 0" result="hardAlpha"/>
<feOffset dx="-1.76647" dy="10.5988"/>
<feGaussianBlur stdDeviation="8.83234"/>
<feComposite in2="hardAlpha" operator="out"/>
<feColorMatrix type="matrix" values="0 0 0 0 0 0 0 0 0 0 0 0 0 0 0 0 0 0 0.06 0"/>
<feBlend mode="normal" in2="BackgroundImageFix" result="effect1_dropShadow_7465_118"/>
<feBlend mode="normal" in="SourceGraphic" in2="effect1_dropShadow_7465_118" result="shape"/>
</filter>
<filter id="filter1_d_7465_118" x="14.3353" y="17.3353" width="557.329" height="495.329" filterUnits="userSpaceOnUse" color-interpolation-filters="sRGB">
<feFlood flood-opacity="0" result="BackgroundImageFix"/>
<feColorMatrix in="SourceAlpha" type="matrix" values="0 0 0 0 0 0 0 0 0 0 0 0 0 0 0 0 0 0 127 0" result="hardAlpha"/>
<feMorphology radius="2" operator="dilate" in="SourceAlpha" result="effect1_dropShadow_7465_118"/>
<feOffset dx="9" dy="-13"/>
<feGaussianBlur stdDeviation="8.83234"/>
<feComposite in2="hardAlpha" operator="out"/>
<feColorMatrix type="matrix" values="0 0 0 0 0 0 0 0 0 0 0 0 0 0 0 0 0 0 0.04 0"/>
<feBlend mode="normal" in2="BackgroundImageFix" result="effect1_dropShadow_7465_118"/>
<feBlend mode="normal" in="SourceGraphic" in2="effect1_dropShadow_7465_118" result="shape"/>
</filter>
<clipPath id="clip0_7465_118">
<rect width="568" height="478" fill="white"/>
</clipPath>
</defs>
</svg>
