<svg width="568" height="478" viewBox="0 0 568 478" fill="none" xmlns="http://www.w3.org/2000/svg">
<g clip-path="url(#clip0_7465_154)">
<g filter="url(#filter0_d_7465_154)">
<rect width="568" height="478" rx="14.8873" fill="#00B19B" fill-opacity="0.1" shape-rendering="crispEdges"/>
</g>
<g filter="url(#filter1_d_7465_154)">
<rect x="25" y="50" width="518" height="456" rx="14.8873" fill="white"/>
</g>
<path d="M391.382 99.9379H389.43V101.934H387.613V99.9379H385.662V98.2218H387.613V96.2141H389.43V98.2218H391.382V99.9379ZM397.964 103.079C397.389 103.079 396.873 102.985 396.416 102.798C395.96 102.611 395.594 102.334 395.317 101.968C395.048 101.602 394.906 101.161 394.891 100.645H396.932C396.962 100.936 397.063 101.161 397.235 101.318C397.407 101.467 397.632 101.542 397.908 101.542C398.192 101.542 398.417 101.478 398.581 101.351C398.746 101.217 398.828 101.033 398.828 100.802C398.828 100.607 398.761 100.446 398.626 100.319C398.499 100.192 398.338 100.087 398.144 100.005C397.957 99.923 397.688 99.8295 397.336 99.7248C396.828 99.5678 396.413 99.4108 396.091 99.2537C395.77 99.0967 395.493 98.8649 395.261 98.5583C395.029 98.2517 394.914 97.8517 394.914 97.3582C394.914 96.6254 395.179 96.0533 395.71 95.6421C396.241 95.2233 396.932 95.014 397.785 95.014C398.652 95.014 399.351 95.2233 399.882 95.6421C400.413 96.0533 400.697 96.6291 400.735 97.3694H398.66C398.645 97.1152 398.551 96.917 398.379 96.7749C398.207 96.6254 397.987 96.5506 397.718 96.5506C397.486 96.5506 397.299 96.6142 397.157 96.7413C397.015 96.8609 396.944 97.0366 396.944 97.2684C396.944 97.5227 397.063 97.7208 397.303 97.8629C397.542 98.005 397.916 98.1583 398.424 98.3228C398.933 98.4948 399.344 98.6593 399.658 98.8163C399.98 98.9733 400.256 99.2014 400.488 99.5005C400.72 99.7996 400.836 100.185 400.836 100.656C400.836 101.104 400.72 101.512 400.488 101.878C400.264 102.245 399.935 102.536 399.501 102.753C399.067 102.97 398.555 103.079 397.964 103.079ZM401.635 99.8706C401.635 99.2201 401.766 98.6518 402.027 98.1658C402.296 97.6797 402.667 97.3058 403.138 97.0441C403.616 96.7824 404.162 96.6515 404.775 96.6515C405.56 96.6515 406.215 96.8572 406.738 97.2684C407.269 97.6797 407.617 98.2592 407.781 99.007H405.74C405.568 98.5284 405.235 98.2891 404.742 98.2891C404.39 98.2891 404.11 98.4275 403.9 98.7041C403.691 98.9733 403.586 99.3622 403.586 99.8706C403.586 100.379 403.691 100.772 403.9 101.048C404.11 101.318 404.39 101.452 404.742 101.452C405.235 101.452 405.568 101.213 405.74 100.734H407.781C407.617 101.467 407.269 102.043 406.738 102.462C406.207 102.88 405.553 103.09 404.775 103.09C404.162 103.09 403.616 102.959 403.138 102.697C402.667 102.435 402.296 102.062 402.027 101.576C401.766 101.089 401.635 100.521 401.635 99.8706ZM412.654 96.674C413.372 96.674 413.948 96.9133 414.382 97.3918C414.815 97.8629 415.032 98.5135 415.032 99.3435V103H413.126V99.6014C413.126 99.1827 413.017 98.8574 412.8 98.6256C412.583 98.3938 412.292 98.2779 411.925 98.2779C411.559 98.2779 411.267 98.3938 411.05 98.6256C410.834 98.8574 410.725 99.1827 410.725 99.6014V103H408.807V94.6999H410.725V97.5825C410.92 97.3058 411.185 97.0852 411.522 96.9207C411.858 96.7562 412.236 96.674 412.654 96.674ZM422.265 99.7697C422.265 99.9492 422.254 100.136 422.231 100.331H417.891C417.92 100.719 418.044 101.018 418.261 101.228C418.485 101.43 418.758 101.531 419.079 101.531C419.558 101.531 419.891 101.329 420.078 100.925H422.119C422.014 101.336 421.824 101.706 421.547 102.035C421.278 102.364 420.938 102.622 420.526 102.809C420.115 102.996 419.655 103.09 419.147 103.09C418.534 103.09 417.988 102.959 417.509 102.697C417.031 102.435 416.657 102.062 416.388 101.576C416.118 101.089 415.984 100.521 415.984 99.8706C415.984 99.2201 416.115 98.6518 416.376 98.1658C416.646 97.6797 417.019 97.3058 417.498 97.0441C417.977 96.7824 418.526 96.6515 419.147 96.6515C419.752 96.6515 420.291 96.7787 420.762 97.0329C421.233 97.2871 421.599 97.6498 421.861 98.1209C422.13 98.592 422.265 99.1416 422.265 99.7697ZM420.302 99.265C420.302 98.9359 420.19 98.6742 419.966 98.4798C419.741 98.2854 419.461 98.1882 419.124 98.1882C418.803 98.1882 418.53 98.2817 418.306 98.4686C418.089 98.6555 417.954 98.921 417.902 99.265H420.302ZM422.895 99.8594C422.895 99.2164 423.015 98.6518 423.254 98.1658C423.501 97.6797 423.834 97.3058 424.253 97.0441C424.671 96.7824 425.139 96.6515 425.655 96.6515C426.066 96.6515 426.44 96.7375 426.776 96.9095C427.12 97.0815 427.389 97.3133 427.584 97.6049V94.6999H429.502V103H427.584V102.103C427.404 102.402 427.146 102.641 426.81 102.821C426.481 103 426.096 103.09 425.655 103.09C425.139 103.09 424.671 102.959 424.253 102.697C423.834 102.428 423.501 102.05 423.254 101.564C423.015 101.071 422.895 100.502 422.895 99.8594ZM427.584 99.8706C427.584 99.3921 427.449 99.0145 427.18 98.7378C426.918 98.4611 426.597 98.3228 426.215 98.3228C425.834 98.3228 425.509 98.4611 425.24 98.7378C424.978 99.007 424.847 99.3809 424.847 99.8594C424.847 100.338 424.978 100.719 425.24 101.003C425.509 101.28 425.834 101.418 426.215 101.418C426.597 101.418 426.918 101.28 427.18 101.003C427.449 100.727 427.584 100.349 427.584 99.8706ZM437.07 96.7413V103H435.152V102.148C434.957 102.424 434.692 102.649 434.355 102.821C434.026 102.985 433.66 103.067 433.256 103.067C432.777 103.067 432.355 102.963 431.989 102.753C431.622 102.536 431.338 102.226 431.136 101.822C430.934 101.418 430.833 100.944 430.833 100.398V96.7413H432.74V100.14C432.74 100.559 432.849 100.884 433.065 101.116C433.282 101.347 433.574 101.463 433.94 101.463C434.314 101.463 434.61 101.347 434.826 101.116C435.043 100.884 435.152 100.559 435.152 100.14V96.7413H437.07ZM440.365 94.6999V103H438.447V94.6999H440.365ZM447.655 99.7697C447.655 99.9492 447.644 100.136 447.621 100.331H443.281C443.311 100.719 443.434 101.018 443.651 101.228C443.875 101.43 444.148 101.531 444.47 101.531C444.948 101.531 445.281 101.329 445.468 100.925H447.509C447.405 101.336 447.214 101.706 446.937 102.035C446.668 102.364 446.328 102.622 445.917 102.809C445.505 102.996 445.045 103.09 444.537 103.09C443.924 103.09 443.378 102.959 442.899 102.697C442.421 102.435 442.047 102.062 441.778 101.576C441.508 101.089 441.374 100.521 441.374 99.8706C441.374 99.2201 441.505 98.6518 441.766 98.1658C442.036 97.6797 442.41 97.3058 442.888 97.0441C443.367 96.7824 443.916 96.6515 444.537 96.6515C445.143 96.6515 445.681 96.7787 446.152 97.0329C446.623 97.2871 446.99 97.6498 447.251 98.1209C447.52 98.592 447.655 99.1416 447.655 99.7697ZM445.692 99.265C445.692 98.9359 445.58 98.6742 445.356 98.4798C445.131 98.2854 444.851 98.1882 444.514 98.1882C444.193 98.1882 443.92 98.2817 443.696 98.4686C443.479 98.6555 443.344 98.921 443.292 99.265H445.692ZM458.088 103H456.17L452.962 98.1433V103H451.044V95.1261H452.962L456.17 100.005V95.1261H458.088V103ZM465.378 99.7697C465.378 99.9492 465.367 100.136 465.344 100.331H461.003C461.033 100.719 461.157 101.018 461.374 101.228C461.598 101.43 461.871 101.531 462.192 101.531C462.671 101.531 463.004 101.329 463.191 100.925H465.232C465.127 101.336 464.937 101.706 464.66 102.035C464.391 102.364 464.05 102.622 463.639 102.809C463.228 102.996 462.768 103.09 462.26 103.09C461.646 103.09 461.101 102.959 460.622 102.697C460.143 102.435 459.77 102.062 459.5 101.576C459.231 101.089 459.097 100.521 459.097 99.8706C459.097 99.2201 459.227 98.6518 459.489 98.1658C459.758 97.6797 460.132 97.3058 460.611 97.0441C461.089 96.7824 461.639 96.6515 462.26 96.6515C462.865 96.6515 463.404 96.7787 463.875 97.0329C464.346 97.2871 464.712 97.6498 464.974 98.1209C465.243 98.592 465.378 99.1416 465.378 99.7697ZM463.415 99.265C463.415 98.9359 463.303 98.6742 463.078 98.4798C462.854 98.2854 462.574 98.1882 462.237 98.1882C461.916 98.1882 461.643 98.2817 461.418 98.4686C461.202 98.6555 461.067 98.921 461.015 99.265H463.415ZM475.374 96.7413L473.68 103H471.56L470.573 98.9397L469.553 103H467.444L465.739 96.7413H467.657L468.543 101.217L469.597 96.7413H471.628L472.693 101.194L473.568 96.7413H475.374ZM478.157 99.0518C478.157 98.2742 478.325 97.5825 478.662 96.9768C478.998 96.3637 479.466 95.8888 480.064 95.5523C480.669 95.2084 481.354 95.0364 482.116 95.0364C483.051 95.0364 483.851 95.2832 484.517 95.7767C485.182 96.2702 485.627 96.9432 485.851 97.7956H483.743C483.586 97.4666 483.361 97.2161 483.07 97.0441C482.786 96.8721 482.46 96.7861 482.094 96.7861C481.503 96.7861 481.025 96.9918 480.658 97.403C480.292 97.8143 480.109 98.3639 480.109 99.0518C480.109 99.7398 480.292 100.289 480.658 100.701C481.025 101.112 481.503 101.318 482.094 101.318C482.46 101.318 482.786 101.232 483.07 101.06C483.361 100.888 483.586 100.637 483.743 100.308H485.851C485.627 101.161 485.182 101.833 484.517 102.327C483.851 102.813 483.051 103.056 482.116 103.056C481.354 103.056 480.669 102.888 480.064 102.551C479.466 102.207 478.998 101.733 478.662 101.127C478.325 100.521 478.157 99.8295 478.157 99.0518ZM488.944 94.6999V103H487.026V94.6999H488.944ZM489.953 99.8594C489.953 99.2164 490.072 98.6518 490.311 98.1658C490.558 97.6797 490.891 97.3058 491.31 97.0441C491.728 96.7824 492.196 96.6515 492.712 96.6515C493.153 96.6515 493.538 96.7413 493.867 96.9207C494.204 97.1002 494.461 97.3357 494.641 97.6274V96.7413H496.559V103H494.641V102.114C494.454 102.406 494.192 102.641 493.856 102.821C493.527 103 493.142 103.09 492.701 103.09C492.192 103.09 491.728 102.959 491.31 102.697C490.891 102.428 490.558 102.05 490.311 101.564C490.072 101.071 489.953 100.502 489.953 99.8594ZM494.641 99.8706C494.641 99.3921 494.506 99.0145 494.237 98.7378C493.975 98.4611 493.654 98.3228 493.273 98.3228C492.891 98.3228 492.566 98.4611 492.297 98.7378C492.035 99.007 491.904 99.3809 491.904 99.8594C491.904 100.338 492.035 100.719 492.297 101.003C492.566 101.28 492.891 101.418 493.273 101.418C493.654 101.418 493.975 101.28 494.237 101.003C494.506 100.727 494.641 100.349 494.641 99.8706ZM500.493 103.09C499.947 103.09 499.461 102.996 499.035 102.809C498.608 102.622 498.272 102.368 498.025 102.047C497.778 101.718 497.64 101.351 497.61 100.947H499.506C499.528 101.164 499.629 101.34 499.808 101.475C499.988 101.609 500.208 101.676 500.47 101.676C500.709 101.676 500.893 101.632 501.02 101.542C501.154 101.445 501.222 101.321 501.222 101.172C501.222 100.992 501.128 100.861 500.941 100.779C500.754 100.689 500.452 100.592 500.033 100.488C499.584 100.383 499.21 100.274 498.911 100.162C498.612 100.043 498.354 99.8594 498.137 99.6127C497.92 99.3584 497.812 99.0182 497.812 98.592C497.812 98.2331 497.909 97.9078 498.104 97.6162C498.305 97.317 498.597 97.0815 498.978 96.9095C499.367 96.7375 499.827 96.6515 500.358 96.6515C501.143 96.6515 501.76 96.846 502.209 97.2348C502.665 97.6236 502.927 98.1396 502.994 98.7827H501.222C501.192 98.5658 501.095 98.3938 500.93 98.2667C500.773 98.1396 500.564 98.076 500.302 98.076C500.078 98.076 499.906 98.1209 499.786 98.2106C499.666 98.2929 499.607 98.4088 499.607 98.5583C499.607 98.7378 499.7 98.8724 499.887 98.9621C500.081 99.0518 500.38 99.1416 500.784 99.2313C501.248 99.3509 501.625 99.4706 501.917 99.5902C502.209 99.7024 502.463 99.8893 502.68 100.151C502.904 100.405 503.02 100.749 503.028 101.183C503.028 101.549 502.923 101.878 502.713 102.17C502.512 102.454 502.216 102.678 501.827 102.843C501.446 103.007 501.001 103.09 500.493 103.09ZM506.747 103.09C506.201 103.09 505.715 102.996 505.289 102.809C504.863 102.622 504.526 102.368 504.279 102.047C504.033 101.718 503.894 101.351 503.864 100.947H505.76C505.782 101.164 505.883 101.34 506.063 101.475C506.242 101.609 506.463 101.676 506.725 101.676C506.964 101.676 507.147 101.632 507.274 101.542C507.409 101.445 507.476 101.321 507.476 101.172C507.476 100.992 507.383 100.861 507.196 100.779C507.009 100.689 506.706 100.592 506.287 100.488C505.839 100.383 505.465 100.274 505.166 100.162C504.866 100.043 504.608 99.8594 504.392 99.6127C504.175 99.3584 504.066 99.0182 504.066 98.592C504.066 98.2331 504.164 97.9078 504.358 97.6162C504.56 97.317 504.852 97.0815 505.233 96.9095C505.622 96.7375 506.082 96.6515 506.612 96.6515C507.398 96.6515 508.015 96.846 508.463 97.2348C508.919 97.6236 509.181 98.1396 509.248 98.7827H507.476C507.446 98.5658 507.349 98.3938 507.185 98.2667C507.027 98.1396 506.818 98.076 506.556 98.076C506.332 98.076 506.16 98.1209 506.04 98.2106C505.921 98.2929 505.861 98.4088 505.861 98.5583C505.861 98.7378 505.954 98.8724 506.141 98.9621C506.336 99.0518 506.635 99.1416 507.039 99.2313C507.502 99.3509 507.88 99.4706 508.172 99.5902C508.463 99.7024 508.717 99.8893 508.934 100.151C509.159 100.405 509.274 100.749 509.282 101.183C509.282 101.549 509.177 101.878 508.968 102.17C508.766 102.454 508.471 102.678 508.082 102.843C507.7 103.007 507.256 103.09 506.747 103.09ZM516.355 99.7697C516.355 99.9492 516.344 100.136 516.322 100.331H511.981C512.011 100.719 512.134 101.018 512.351 101.228C512.575 101.43 512.848 101.531 513.17 101.531C513.648 101.531 513.981 101.329 514.168 100.925H516.209C516.105 101.336 515.914 101.706 515.637 102.035C515.368 102.364 515.028 102.622 514.617 102.809C514.205 102.996 513.746 103.09 513.237 103.09C512.624 103.09 512.078 102.959 511.599 102.697C511.121 102.435 510.747 102.062 510.478 101.576C510.209 101.089 510.074 100.521 510.074 99.8706C510.074 99.2201 510.205 98.6518 510.467 98.1658C510.736 97.6797 511.11 97.3058 511.588 97.0441C512.067 96.7824 512.616 96.6515 513.237 96.6515C513.843 96.6515 514.381 96.7787 514.852 97.0329C515.323 97.2871 515.69 97.6498 515.951 98.1209C516.221 98.592 516.355 99.1416 516.355 99.7697ZM514.392 99.265C514.392 98.9359 514.28 98.6742 514.056 98.4798C513.832 98.2854 513.551 98.1882 513.215 98.1882C512.893 98.1882 512.62 98.2817 512.396 98.4686C512.179 98.6555 512.044 98.921 511.992 99.265H514.392ZM519.913 103.09C519.367 103.09 518.881 102.996 518.455 102.809C518.029 102.622 517.692 102.368 517.446 102.047C517.199 101.718 517.06 101.351 517.031 100.947H518.926C518.949 101.164 519.049 101.34 519.229 101.475C519.408 101.609 519.629 101.676 519.891 101.676C520.13 101.676 520.313 101.632 520.44 101.542C520.575 101.445 520.642 101.321 520.642 101.172C520.642 100.992 520.549 100.861 520.362 100.779C520.175 100.689 519.872 100.592 519.453 100.488C519.005 100.383 518.631 100.274 518.332 100.162C518.033 100.043 517.775 99.8594 517.558 99.6127C517.341 99.3584 517.232 99.0182 517.232 98.592C517.232 98.2331 517.33 97.9078 517.524 97.6162C517.726 97.317 518.018 97.0815 518.399 96.9095C518.788 96.7375 519.248 96.6515 519.779 96.6515C520.564 96.6515 521.181 96.846 521.629 97.2348C522.085 97.6236 522.347 98.1396 522.414 98.7827H520.642C520.612 98.5658 520.515 98.3938 520.351 98.2667C520.194 98.1396 519.984 98.076 519.722 98.076C519.498 98.076 519.326 98.1209 519.207 98.2106C519.087 98.2929 519.027 98.4088 519.027 98.5583C519.027 98.7378 519.121 98.8724 519.307 98.9621C519.502 99.0518 519.801 99.1416 520.205 99.2313C520.668 99.3509 521.046 99.4706 521.338 99.5902C521.629 99.7024 521.883 99.8893 522.1 100.151C522.325 100.405 522.441 100.749 522.448 101.183C522.448 101.549 522.343 101.878 522.134 102.17C521.932 102.454 521.637 102.678 521.248 102.843C520.867 103.007 520.422 103.09 519.913 103.09Z" fill="#00ACA5"/>
<g opacity="0.5">
<rect x="53" y="168" width="220.253" height="126.099" rx="15.1319" fill="#D9D9D9"/>
<rect x="66" y="213" width="181" height="16" rx="6.48" fill="#B7B7B7"/>
<rect x="66" y="238" width="142" height="16" rx="6.48" fill="#B7B7B7"/>
<rect x="66" y="263" width="84" height="16" rx="6.48" fill="#B7B7B7"/>
</g>
<rect x="323.877" y="187.114" width="170.305" height="15.0545" rx="6.09709" fill="#B7B7B7"/>
<rect x="338.932" y="220.045" width="16.9364" height="16.9364" rx="0.940909" fill="#B7B7B7"/>
<rect x="380.332" y="220.045" width="16.9364" height="16.9364" rx="0.940909" fill="#B7B7B7"/>
<rect x="421.732" y="220.045" width="16.9364" height="16.9364" rx="0.940909" fill="#B7B7B7"/>
<rect x="463.132" y="220.045" width="16.9364" height="16.9364" rx="0.940909" fill="#B7B7B7"/>
<rect x="338.932" y="246.391" width="16.9364" height="16.9364" rx="0.940909" fill="#B7B7B7"/>
<rect x="380.332" y="246.391" width="16.9364" height="16.9364" rx="0.940909" fill="#B7B7B7"/>
<rect x="421.732" y="246.391" width="16.9364" height="16.9364" rx="0.940909" fill="#B7B7B7"/>
<rect x="463.132" y="246.391" width="16.9364" height="16.9364" rx="0.940909" fill="#B7B7B7"/>
<rect x="338.932" y="272.736" width="16.9364" height="16.9364" rx="0.940909" fill="#B7B7B7"/>
<rect x="380.332" y="272.736" width="16.9364" height="16.9364" rx="0.940909" fill="#B7B7B7"/>
<rect x="421.732" y="272.736" width="16.9364" height="16.9364" rx="0.940909" fill="#B7B7B7"/>
<rect x="463.132" y="272.736" width="16.9364" height="16.9364" rx="0.940909" fill="#B7B7B7"/>
<rect opacity="0.5" x="306" y="173" width="207" height="145.841" rx="14.2377" fill="#D9D9D9"/>
<rect opacity="0.5" x="58" y="337" width="195" height="16" rx="8" fill="#B7B7B7"/>
<rect opacity="0.5" x="58" y="368" width="437" height="10" fill="#B7B7B7"/>
<rect opacity="0.5" x="58" y="393" width="396" height="10" fill="#B7B7B7"/>
<rect opacity="0.5" x="58" y="418" width="363" height="10" fill="#B7B7B7"/>
<rect opacity="0.5" x="58" y="443" width="332" height="10" fill="#B7B7B7"/>
<rect opacity="0.5" x="58" y="468" width="248" height="10" fill="#B7B7B7"/>
<circle cx="78.5" cy="99.5" r="25.5" fill="#E5E5E5"/>
</g>
<defs>
<filter id="filter0_d_7465_154" x="-19.4311" y="-7.06587" width="603.329" height="513.329" filterUnits="userSpaceOnUse" color-interpolation-filters="sRGB">
<feFlood flood-opacity="0" result="BackgroundImageFix"/>
<feColorMatrix in="SourceAlpha" type="matrix" values="0 0 0 0 0 0 0 0 0 0 0 0 0 0 0 0 0 0 127 0" result="hardAlpha"/>
<feOffset dx="-1.76647" dy="10.5988"/>
<feGaussianBlur stdDeviation="8.83234"/>
<feComposite in2="hardAlpha" operator="out"/>
<feColorMatrix type="matrix" values="0 0 0 0 0 0 0 0 0 0 0 0 0 0 0 0 0 0 0.06 0"/>
<feBlend mode="normal" in2="BackgroundImageFix" result="effect1_dropShadow_7465_154"/>
<feBlend mode="normal" in="SourceGraphic" in2="effect1_dropShadow_7465_154" result="shape"/>
</filter>
<filter id="filter1_d_7465_154" x="14.3353" y="17.3353" width="557.329" height="495.329" filterUnits="userSpaceOnUse" color-interpolation-filters="sRGB">
<feFlood flood-opacity="0" result="BackgroundImageFix"/>
<feColorMatrix in="SourceAlpha" type="matrix" values="0 0 0 0 0 0 0 0 0 0 0 0 0 0 0 0 0 0 127 0" result="hardAlpha"/>
<feMorphology radius="2" operator="dilate" in="SourceAlpha" result="effect1_dropShadow_7465_154"/>
<feOffset dx="9" dy="-13"/>
<feGaussianBlur stdDeviation="8.83234"/>
<feComposite in2="hardAlpha" operator="out"/>
<feColorMatrix type="matrix" values="0 0 0 0 0 0 0 0 0 0 0 0 0 0 0 0 0 0 0.04 0"/>
<feBlend mode="normal" in2="BackgroundImageFix" result="effect1_dropShadow_7465_154"/>
<feBlend mode="normal" in="SourceGraphic" in2="effect1_dropShadow_7465_154" result="shape"/>
</filter>
<clipPath id="clip0_7465_154">
<rect width="568" height="478" fill="white"/>
</clipPath>
</defs>
</svg>
