<svg width="568" height="478" viewBox="0 0 568 478" fill="none" xmlns="http://www.w3.org/2000/svg">
<g clip-path="url(#clip0_7468_14)">
<g filter="url(#filter0_d_7468_14)">
<rect width="568" height="478" rx="14.8873" fill="#FFA217" fill-opacity="0.1" shape-rendering="crispEdges"/>
</g>
<g filter="url(#filter1_d_7468_14)">
<rect x="25" y="56" width="518" height="456" rx="14.8873" fill="white"/>
</g>
<rect opacity="0.5" x="52" y="165" width="464" height="347" rx="15.1319" fill="#D9D9D9"/>
<g opacity="0.6">
<rect x="224" y="228" width="181" height="16" rx="6.48" fill="#B7B7B7"/>
<rect x="224" y="253" width="142" height="16" rx="6.48" fill="#B7B7B7"/>
<rect x="224" y="278" width="84" height="16" rx="6.48" fill="#B7B7B7"/>
<circle cx="132.5" cy="260.5" r="45.5" fill="#AEAEAE"/>
</g>
<rect opacity="0.5" x="76" y="349" width="393" height="10" fill="#B7B7B7"/>
<rect opacity="0.5" x="76" y="374" width="356" height="10" fill="#B7B7B7"/>
<rect opacity="0.5" x="76" y="399" width="326" height="10" fill="#B7B7B7"/>
<rect opacity="0.5" x="76" y="424" width="299" height="10" fill="#B7B7B7"/>
<path d="M81.916 122.388H74.496L73.264 126H68.224L75.476 106.344H80.992L88.244 126H83.148L81.916 122.388ZM80.684 118.748L78.22 111.468L75.728 118.748H80.684ZM95.7891 110.18C97.7678 110.18 99.3451 110.675 100.521 111.664C101.716 112.653 102.462 113.96 102.761 115.584H98.2811C98.1505 114.949 97.8518 114.455 97.3851 114.1C96.9371 113.727 96.3678 113.54 95.6771 113.54C95.1358 113.54 94.7251 113.661 94.4451 113.904C94.1651 114.128 94.0251 114.455 94.0251 114.884C94.0251 115.369 94.2771 115.733 94.7811 115.976C95.3038 116.219 96.1158 116.461 97.2171 116.704C98.4118 116.984 99.3918 117.273 100.157 117.572C100.922 117.852 101.585 118.319 102.145 118.972C102.705 119.625 102.985 120.503 102.985 121.604C102.985 122.5 102.742 123.293 102.257 123.984C101.772 124.675 101.072 125.216 100.157 125.608C99.2425 126 98.1598 126.196 96.9091 126.196C94.7998 126.196 93.1105 125.729 91.8411 124.796C90.5718 123.863 89.7971 122.528 89.5171 120.792H94.1371C94.2118 121.464 94.4918 121.977 94.9771 122.332C95.4811 122.687 96.1251 122.864 96.9091 122.864C97.4505 122.864 97.8611 122.743 98.1411 122.5C98.4211 122.239 98.5611 121.903 98.5611 121.492C98.5611 120.951 98.2998 120.568 97.7771 120.344C97.2731 120.101 96.4425 119.849 95.2851 119.588C94.1278 119.345 93.1758 119.084 92.4291 118.804C91.6825 118.524 91.0385 118.076 90.4971 117.46C89.9558 116.825 89.6851 115.967 89.6851 114.884C89.6851 113.484 90.2171 112.355 91.2811 111.496C92.3451 110.619 93.8478 110.18 95.7891 110.18ZM111.32 110.18C113.299 110.18 114.876 110.675 116.052 111.664C117.247 112.653 117.994 113.96 118.292 115.584H113.812C113.682 114.949 113.383 114.455 112.916 114.1C112.468 113.727 111.899 113.54 111.208 113.54C110.667 113.54 110.256 113.661 109.976 113.904C109.696 114.128 109.556 114.455 109.556 114.884C109.556 115.369 109.808 115.733 110.312 115.976C110.835 116.219 111.647 116.461 112.748 116.704C113.943 116.984 114.923 117.273 115.688 117.572C116.454 117.852 117.116 118.319 117.676 118.972C118.236 119.625 118.516 120.503 118.516 121.604C118.516 122.5 118.274 123.293 117.788 123.984C117.303 124.675 116.603 125.216 115.688 125.608C114.774 126 113.691 126.196 112.44 126.196C110.331 126.196 108.642 125.729 107.372 124.796C106.103 123.863 105.328 122.528 105.048 120.792H109.668C109.743 121.464 110.023 121.977 110.508 122.332C111.012 122.687 111.656 122.864 112.44 122.864C112.982 122.864 113.392 122.743 113.672 122.5C113.952 122.239 114.092 121.903 114.092 121.492C114.092 120.951 113.831 120.568 113.308 120.344C112.804 120.101 111.974 119.849 110.816 119.588C109.659 119.345 108.707 119.084 107.96 118.804C107.214 118.524 106.57 118.076 106.028 117.46C105.487 116.825 105.216 115.967 105.216 114.884C105.216 113.484 105.748 112.355 106.812 111.496C107.876 110.619 109.379 110.18 111.32 110.18ZM120.72 105.98C120.72 105.252 120.981 104.655 121.504 104.188C122.026 103.703 122.717 103.46 123.576 103.46C124.434 103.46 125.125 103.703 125.648 104.188C126.17 104.655 126.432 105.252 126.432 105.98C126.432 106.689 126.17 107.287 125.648 107.772C125.125 108.239 124.434 108.472 123.576 108.472C122.717 108.472 122.026 108.239 121.504 107.772C120.981 107.287 120.72 106.689 120.72 105.98ZM125.956 110.376V126H121.168V110.376H125.956ZM135.197 110.18C136.392 110.18 137.419 110.451 138.277 110.992C139.136 111.533 139.771 112.271 140.181 113.204V110.376H144.941V125.916C144.941 127.372 144.661 128.679 144.101 129.836C143.541 131.012 142.683 131.945 141.525 132.636C140.368 133.327 138.931 133.672 137.213 133.672C134.861 133.672 132.976 133.112 131.557 131.992C130.157 130.891 129.317 129.388 129.037 127.484H133.769C133.919 128.119 134.255 128.613 134.777 128.968C135.319 129.323 136.019 129.5 136.877 129.5C137.867 129.5 138.66 129.211 139.257 128.632C139.873 128.072 140.181 127.167 140.181 125.916V123.172C139.771 124.105 139.136 124.843 138.277 125.384C137.419 125.925 136.392 126.196 135.197 126.196C133.909 126.196 132.752 125.879 131.725 125.244C130.717 124.591 129.915 123.657 129.317 122.444C128.739 121.231 128.449 119.812 128.449 118.188C128.449 116.545 128.739 115.127 129.317 113.932C129.915 112.719 130.717 111.795 131.725 111.16C132.752 110.507 133.909 110.18 135.197 110.18ZM136.737 114.38C135.711 114.38 134.88 114.716 134.245 115.388C133.629 116.06 133.321 116.993 133.321 118.188C133.321 119.383 133.629 120.316 134.245 120.988C134.88 121.66 135.711 121.996 136.737 121.996C137.745 121.996 138.567 121.651 139.201 120.96C139.855 120.269 140.181 119.345 140.181 118.188C140.181 117.012 139.855 116.088 139.201 115.416C138.567 114.725 137.745 114.38 136.737 114.38ZM158.15 110.208C159.942 110.208 161.361 110.805 162.406 112C163.47 113.195 164.002 114.837 164.002 116.928V126H159.214V117.488C159.214 116.443 158.934 115.631 158.374 115.052C157.833 114.455 157.105 114.156 156.19 114.156C155.219 114.156 154.445 114.464 153.866 115.08C153.306 115.696 153.026 116.573 153.026 117.712V126H148.238V110.376H153.026V113.232C153.474 112.299 154.137 111.561 155.014 111.02C155.91 110.479 156.955 110.208 158.15 110.208ZM187.404 110.208C189.326 110.208 190.838 110.805 191.94 112C193.041 113.176 193.592 114.819 193.592 116.928V126H188.832V117.488C188.832 116.499 188.561 115.733 188.02 115.192C187.497 114.632 186.778 114.352 185.864 114.352C184.912 114.352 184.156 114.651 183.596 115.248C183.054 115.827 182.784 116.648 182.784 117.712V126H177.996V117.488C177.996 116.499 177.734 115.733 177.212 115.192C176.689 114.632 175.97 114.352 175.056 114.352C174.104 114.352 173.348 114.641 172.788 115.22C172.228 115.799 171.948 116.629 171.948 117.712V126H167.16V110.376H171.948V113.036C172.358 112.159 172.984 111.468 173.824 110.964C174.682 110.46 175.681 110.208 176.82 110.208C178.014 110.208 179.069 110.488 179.984 111.048C180.898 111.589 181.589 112.373 182.056 113.4C182.597 112.429 183.334 111.655 184.268 111.076C185.22 110.497 186.265 110.208 187.404 110.208ZM211.613 117.768C211.613 118.16 211.566 118.589 211.473 119.056H200.637C200.693 120.232 200.992 121.081 201.533 121.604C202.074 122.108 202.765 122.36 203.605 122.36C204.314 122.36 204.902 122.183 205.369 121.828C205.836 121.473 206.144 121.016 206.293 120.456H211.361C211.156 121.557 210.708 122.547 210.017 123.424C209.326 124.283 208.449 124.964 207.385 125.468C206.321 125.953 205.136 126.196 203.829 126.196C202.298 126.196 200.936 125.879 199.741 125.244C198.565 124.591 197.641 123.657 196.969 122.444C196.297 121.231 195.961 119.812 195.961 118.188C195.961 116.545 196.288 115.127 196.941 113.932C197.613 112.719 198.546 111.795 199.741 111.16C200.936 110.507 202.298 110.18 203.829 110.18C205.378 110.18 206.741 110.497 207.917 111.132C209.093 111.767 209.998 112.663 210.633 113.82C211.286 114.959 211.613 116.275 211.613 117.768ZM206.769 117.04C206.788 116.013 206.508 115.248 205.929 114.744C205.369 114.221 204.669 113.96 203.829 113.96C202.952 113.96 202.224 114.221 201.645 114.744C201.066 115.267 200.74 116.032 200.665 117.04H206.769ZM224.021 110.208C225.813 110.208 227.232 110.805 228.277 112C229.341 113.195 229.873 114.837 229.873 116.928V126H225.085V117.488C225.085 116.443 224.805 115.631 224.245 115.052C223.704 114.455 222.976 114.156 222.061 114.156C221.09 114.156 220.316 114.464 219.737 115.08C219.177 115.696 218.897 116.573 218.897 117.712V126H214.109V110.376H218.897V113.232C219.345 112.299 220.008 111.561 220.885 111.02C221.781 110.479 222.826 110.208 224.021 110.208ZM241.879 121.884V126H239.723C237.894 126 236.466 125.552 235.439 124.656C234.431 123.741 233.927 122.239 233.927 120.148V114.408H231.827V110.376H233.927V106.54H238.715V110.376H241.851V114.408H238.715V120.232C238.715 120.848 238.836 121.277 239.079 121.52C239.34 121.763 239.77 121.884 240.367 121.884H241.879Z" fill="#FFA92C"/>
<path d="M418.2 101.033C409.858 101.033 403.033 107.858 403.033 116.2C403.033 124.542 409.858 131.367 418.2 131.367C426.542 131.367 433.367 124.542 433.367 116.2C433.367 107.858 426.542 101.033 418.2 101.033ZM418.2 128.333C411.511 128.333 406.067 122.888 406.067 116.2C406.067 109.511 411.511 104.067 418.2 104.067C424.888 104.067 430.333 109.511 430.333 116.2C430.333 122.888 424.888 128.333 418.2 128.333ZM425.161 109.496L415.167 119.491L411.238 115.578L409.1 117.717L415.167 123.783L427.3 111.65L425.161 109.496Z" fill="#0DB70A"/>
<path d="M477.919 111.081L467.681 121.319M467.681 111.081L477.919 121.319" stroke="#EC2626" stroke-width="3.4125" stroke-linecap="round" stroke-linejoin="round"/>
<path d="M472.8 130.419C480.653 130.419 487.019 124.053 487.019 116.2C487.019 108.347 480.653 101.981 472.8 101.981C464.947 101.981 458.581 108.347 458.581 116.2C458.581 124.053 464.947 130.419 472.8 130.419Z" stroke="#EC2626" stroke-width="3.4125" stroke-linecap="round" stroke-linejoin="round"/>
</g>
<defs>
<filter id="filter0_d_7468_14" x="-19.4311" y="-7.06587" width="603.329" height="513.329" filterUnits="userSpaceOnUse" color-interpolation-filters="sRGB">
<feFlood flood-opacity="0" result="BackgroundImageFix"/>
<feColorMatrix in="SourceAlpha" type="matrix" values="0 0 0 0 0 0 0 0 0 0 0 0 0 0 0 0 0 0 127 0" result="hardAlpha"/>
<feOffset dx="-1.76647" dy="10.5988"/>
<feGaussianBlur stdDeviation="8.83234"/>
<feComposite in2="hardAlpha" operator="out"/>
<feColorMatrix type="matrix" values="0 0 0 0 0 0 0 0 0 0 0 0 0 0 0 0 0 0 0.06 0"/>
<feBlend mode="normal" in2="BackgroundImageFix" result="effect1_dropShadow_7468_14"/>
<feBlend mode="normal" in="SourceGraphic" in2="effect1_dropShadow_7468_14" result="shape"/>
</filter>
<filter id="filter1_d_7468_14" x="14.3353" y="23.3353" width="557.329" height="495.329" filterUnits="userSpaceOnUse" color-interpolation-filters="sRGB">
<feFlood flood-opacity="0" result="BackgroundImageFix"/>
<feColorMatrix in="SourceAlpha" type="matrix" values="0 0 0 0 0 0 0 0 0 0 0 0 0 0 0 0 0 0 127 0" result="hardAlpha"/>
<feMorphology radius="2" operator="dilate" in="SourceAlpha" result="effect1_dropShadow_7468_14"/>
<feOffset dx="9" dy="-13"/>
<feGaussianBlur stdDeviation="8.83234"/>
<feComposite in2="hardAlpha" operator="out"/>
<feColorMatrix type="matrix" values="0 0 0 0 0 0 0 0 0 0 0 0 0 0 0 0 0 0 0.04 0"/>
<feBlend mode="normal" in2="BackgroundImageFix" result="effect1_dropShadow_7468_14"/>
<feBlend mode="normal" in="SourceGraphic" in2="effect1_dropShadow_7468_14" result="shape"/>
</filter>
<clipPath id="clip0_7468_14">
<rect width="568" height="478" fill="white"/>
</clipPath>
</defs>
</svg>
