<svg width="554" height="461" viewBox="0 0 554 461" fill="none" xmlns="http://www.w3.org/2000/svg">
<g filter="url(#filter0_d_7465_153)">
<rect x="11" y="33" width="518" height="456" rx="14.8873" fill="white"/>
</g>
<path d="M397.382 82.9379H395.43V84.9344H393.613V82.9379H391.662V81.2218H393.613V79.2141H395.43V81.2218H397.382V82.9379ZM406.017 84.6092H403.078L402.607 86H400.599L403.448 78.1261H405.669L408.518 86H406.488L406.017 84.6092ZM405.523 83.1286L404.548 80.246L403.583 83.1286H405.523ZM409.004 82.8594C409.004 82.2164 409.124 81.6518 409.363 81.1658C409.61 80.6797 409.942 80.3058 410.361 80.0441C410.78 79.7824 411.247 79.6515 411.763 79.6515C412.174 79.6515 412.548 79.7375 412.885 79.9095C413.229 80.0815 413.498 80.3133 413.692 80.6049V77.6999H415.61V86H413.692V85.1027C413.513 85.4018 413.255 85.6411 412.918 85.8205C412.589 86 412.204 86.0897 411.763 86.0897C411.247 86.0897 410.78 85.9589 410.361 85.6972C409.942 85.428 409.61 85.0503 409.363 84.5643C409.124 84.0708 409.004 83.5025 409.004 82.8594ZM413.692 82.8706C413.692 82.3921 413.558 82.0145 413.289 81.7378C413.027 81.4611 412.705 81.3228 412.324 81.3228C411.943 81.3228 411.617 81.4611 411.348 81.7378C411.086 82.007 410.956 82.3809 410.956 82.8594C410.956 83.338 411.086 83.7193 411.348 84.0035C411.617 84.2802 411.943 84.4185 412.324 84.4185C412.705 84.4185 413.027 84.2802 413.289 84.0035C413.558 83.7268 413.692 83.3492 413.692 82.8706ZM416.617 82.8594C416.617 82.2164 416.736 81.6518 416.975 81.1658C417.222 80.6797 417.555 80.3058 417.974 80.0441C418.392 79.7824 418.86 79.6515 419.376 79.6515C419.787 79.6515 420.161 79.7375 420.497 79.9095C420.841 80.0815 421.111 80.3133 421.305 80.6049V77.6999H423.223V86H421.305V85.1027C421.126 85.4018 420.868 85.6411 420.531 85.8205C420.202 86 419.817 86.0897 419.376 86.0897C418.86 86.0897 418.392 85.9589 417.974 85.6972C417.555 85.428 417.222 85.0503 416.975 84.5643C416.736 84.0708 416.617 83.5025 416.617 82.8594ZM421.305 82.8706C421.305 82.3921 421.17 82.0145 420.901 81.7378C420.639 81.4611 420.318 81.3228 419.937 81.3228C419.555 81.3228 419.23 81.4611 418.961 81.7378C418.699 82.007 418.568 82.3809 418.568 82.8594C418.568 83.338 418.699 83.7193 418.961 84.0035C419.23 84.2802 419.555 84.4185 419.937 84.4185C420.318 84.4185 420.639 84.2802 420.901 84.0035C421.17 83.7268 421.305 83.3492 421.305 82.8706ZM430.801 79.674C431.534 79.674 432.117 79.9133 432.551 80.3918C432.992 80.8629 433.213 81.5135 433.213 82.3435V86H431.306V82.6014C431.306 82.1827 431.197 81.8574 430.981 81.6256C430.764 81.3938 430.472 81.2779 430.106 81.2779C429.739 81.2779 429.448 81.3938 429.231 81.6256C429.014 81.8574 428.905 82.1827 428.905 82.6014V86H426.987V79.7413H428.905V80.5713C429.1 80.2946 429.362 80.0778 429.691 79.9207C430.02 79.7562 430.39 79.674 430.801 79.674ZM440.445 82.7697C440.445 82.9492 440.434 83.1361 440.412 83.3305H436.071C436.101 83.7193 436.224 84.0184 436.441 84.2278C436.665 84.4297 436.938 84.5307 437.26 84.5307C437.738 84.5307 438.071 84.3288 438.258 83.925H440.299C440.195 84.3362 440.004 84.7064 439.727 85.0354C439.458 85.3644 439.118 85.6224 438.707 85.8093C438.295 85.9963 437.836 86.0897 437.327 86.0897C436.714 86.0897 436.168 85.9589 435.689 85.6972C435.211 85.4354 434.837 85.0616 434.568 84.5755C434.299 84.0895 434.164 83.5212 434.164 82.8706C434.164 82.2201 434.295 81.6518 434.557 81.1658C434.826 80.6797 435.2 80.3058 435.678 80.0441C436.157 79.7824 436.706 79.6515 437.327 79.6515C437.933 79.6515 438.471 79.7787 438.942 80.0329C439.413 80.2871 439.78 80.6498 440.041 81.1209C440.311 81.592 440.445 82.1416 440.445 82.7697ZM438.482 82.265C438.482 81.9359 438.37 81.6742 438.146 81.4798C437.921 81.2854 437.641 81.1882 437.305 81.1882C436.983 81.1882 436.71 81.2817 436.486 81.4686C436.269 81.6555 436.134 81.921 436.082 82.265H438.482ZM450.441 79.7413L448.748 86H446.628L445.641 81.9397L444.62 86H442.511L440.806 79.7413H442.724L443.611 84.2166L444.665 79.7413H446.695L447.761 84.1942L448.635 79.7413H450.441ZM453.168 82.8706C453.168 82.2201 453.299 81.6518 453.561 81.1658C453.83 80.6797 454.2 80.3058 454.671 80.0441C455.15 79.7824 455.696 79.6515 456.309 79.6515C457.094 79.6515 457.748 79.8572 458.272 80.2684C458.803 80.6797 459.15 81.2592 459.315 82.007H457.273C457.101 81.5284 456.769 81.2891 456.275 81.2891C455.924 81.2891 455.643 81.4275 455.434 81.7041C455.225 81.9733 455.12 82.3622 455.12 82.8706C455.12 83.3791 455.225 83.7717 455.434 84.0484C455.643 84.3175 455.924 84.4521 456.275 84.4521C456.769 84.4521 457.101 84.2129 457.273 83.7343H459.315C459.15 84.4671 458.803 85.0429 458.272 85.4616C457.741 85.8804 457.087 86.0897 456.309 86.0897C455.696 86.0897 455.15 85.9589 454.671 85.6972C454.2 85.4354 453.83 85.0616 453.561 84.5755C453.299 84.0895 453.168 83.5212 453.168 82.8706ZM463.19 86.0897C462.577 86.0897 462.023 85.9589 461.53 85.6972C461.044 85.4354 460.659 85.0616 460.374 84.5755C460.098 84.0895 459.959 83.5212 459.959 82.8706C459.959 82.2276 460.102 81.663 460.386 81.177C460.67 80.6835 461.059 80.3058 461.552 80.0441C462.046 79.7824 462.599 79.6515 463.212 79.6515C463.825 79.6515 464.379 79.7824 464.872 80.0441C465.366 80.3058 465.755 80.6835 466.039 81.177C466.323 81.663 466.465 82.2276 466.465 82.8706C466.465 83.5137 466.319 84.082 466.027 84.5755C465.743 85.0616 465.351 85.4354 464.85 85.6972C464.356 85.9589 463.803 86.0897 463.19 86.0897ZM463.19 84.4297C463.556 84.4297 463.866 84.2951 464.121 84.0259C464.382 83.7567 464.513 83.3716 464.513 82.8706C464.513 82.3696 464.386 81.9845 464.132 81.7154C463.885 81.4462 463.579 81.3116 463.212 81.3116C462.838 81.3116 462.528 81.4462 462.281 81.7154C462.034 81.9771 461.911 82.3622 461.911 82.8706C461.911 83.3716 462.031 83.7567 462.27 84.0259C462.517 84.2951 462.823 84.4297 463.19 84.4297ZM473.663 79.7413V86H471.745V85.1476C471.55 85.4242 471.285 85.6486 470.948 85.8205C470.619 85.985 470.253 86.0673 469.849 86.0673C469.371 86.0673 468.948 85.9626 468.582 85.7532C468.215 85.5364 467.931 85.2261 467.729 84.8223C467.527 84.4185 467.426 83.9437 467.426 83.3978V79.7413H469.333V83.1398C469.333 83.5586 469.442 83.8838 469.658 84.1157C469.875 84.3475 470.167 84.4634 470.533 84.4634C470.907 84.4634 471.203 84.3475 471.419 84.1157C471.636 83.8838 471.745 83.5586 471.745 83.1398V79.7413H473.663ZM476.958 80.7844C477.183 80.4404 477.463 80.1712 477.8 79.9768C478.136 79.7749 478.51 79.674 478.921 79.674V81.7041H478.394C477.915 81.7041 477.557 81.8088 477.317 82.0182C477.078 82.2201 476.958 82.579 476.958 83.095V86H475.04V79.7413H476.958V80.7844ZM482.384 86.0897C481.838 86.0897 481.352 85.9963 480.926 85.8093C480.5 85.6224 480.163 85.3681 479.916 85.0466C479.67 84.7176 479.531 84.3512 479.501 83.9474H481.397C481.419 84.1643 481.52 84.34 481.7 84.4746C481.879 84.6092 482.1 84.6765 482.362 84.6765C482.601 84.6765 482.784 84.6316 482.911 84.5419C483.046 84.4447 483.113 84.3213 483.113 84.1717C483.113 83.9923 483.02 83.8614 482.833 83.7792C482.646 83.6894 482.343 83.5922 481.924 83.4875C481.476 83.3829 481.102 83.2744 480.803 83.1623C480.503 83.0426 480.245 82.8594 480.029 82.6127C479.812 82.3584 479.703 82.0182 479.703 81.592C479.703 81.2331 479.801 80.9078 479.995 80.6162C480.197 80.317 480.489 80.0815 480.87 79.9095C481.259 79.7375 481.719 79.6515 482.249 79.6515C483.035 79.6515 483.652 79.846 484.1 80.2348C484.556 80.6236 484.818 81.1396 484.885 81.7827H483.113C483.083 81.5658 482.986 81.3938 482.822 81.2667C482.664 81.1396 482.455 81.076 482.193 81.076C481.969 81.076 481.797 81.1209 481.677 81.2106C481.558 81.2929 481.498 81.4088 481.498 81.5583C481.498 81.7378 481.591 81.8724 481.778 81.9621C481.973 82.0518 482.272 82.1416 482.676 82.2313C483.139 82.3509 483.517 82.4706 483.809 82.5902C484.1 82.7024 484.354 82.8893 484.571 83.151C484.796 83.4053 484.911 83.7493 484.919 84.183C484.919 84.5494 484.814 84.8784 484.605 85.17C484.403 85.4541 484.108 85.6785 483.719 85.843C483.337 86.0075 482.893 86.0897 482.384 86.0897ZM491.992 82.7697C491.992 82.9492 491.981 83.1361 491.959 83.3305H487.618C487.648 83.7193 487.771 84.0184 487.988 84.2278C488.212 84.4297 488.485 84.5307 488.807 84.5307C489.285 84.5307 489.618 84.3288 489.805 83.925H491.846C491.742 84.3362 491.551 84.7064 491.274 85.0354C491.005 85.3644 490.665 85.6224 490.254 85.8093C489.842 85.9963 489.383 86.0897 488.874 86.0897C488.261 86.0897 487.715 85.9589 487.236 85.6972C486.758 85.4354 486.384 85.0616 486.115 84.5755C485.846 84.0895 485.711 83.5212 485.711 82.8706C485.711 82.2201 485.842 81.6518 486.104 81.1658C486.373 80.6797 486.747 80.3058 487.225 80.0441C487.704 79.7824 488.253 79.6515 488.874 79.6515C489.48 79.6515 490.018 79.7787 490.489 80.0329C490.96 80.2871 491.327 80.6498 491.588 81.1209C491.858 81.592 491.992 82.1416 491.992 82.7697ZM490.029 82.265C490.029 81.9359 489.917 81.6742 489.693 81.4798C489.469 81.2854 489.188 81.1882 488.852 81.1882C488.53 81.1882 488.257 81.2817 488.033 81.4686C487.816 81.6555 487.681 81.921 487.629 82.265H490.029Z" fill="#007EF2"/>
<g opacity="0.5">
<rect x="39" y="135" width="220.253" height="126.099" rx="15.1319" fill="#D9D9D9"/>
<rect x="52" y="180" width="181" height="16" rx="6.48" fill="#B7B7B7"/>
<rect x="52" y="205" width="142" height="16" rx="6.48" fill="#B7B7B7"/>
<rect x="52" y="230" width="84" height="16" rx="6.48" fill="#B7B7B7"/>
<rect x="281.253" y="135" width="220.253" height="126.099" rx="15.1319" fill="#D9D9D9"/>
<rect x="294.253" y="180" width="181" height="16" rx="6.48" fill="#B7B7B7"/>
<rect x="294.253" y="205" width="142" height="16" rx="6.48" fill="#B7B7B7"/>
<rect x="294.253" y="230" width="84" height="16" rx="6.48" fill="#B7B7B7"/>
<rect x="39" y="287.099" width="220.253" height="126.099" rx="15.1319" fill="#D9D9D9"/>
<rect x="52" y="332.099" width="181" height="16" rx="6.48" fill="#B7B7B7"/>
<rect x="52" y="357.099" width="142" height="16" rx="6.48" fill="#B7B7B7"/>
<rect x="52" y="382.099" width="84" height="16" rx="6.48" fill="#B7B7B7"/>
<rect x="281.253" y="287.099" width="220.253" height="126.099" rx="15.1319" fill="#D9D9D9"/>
<rect x="294.253" y="332.099" width="181" height="16" rx="6.48" fill="#B7B7B7"/>
<rect x="294.253" y="357.099" width="142" height="16" rx="6.48" fill="#B7B7B7"/>
<rect x="294.253" y="382.099" width="84" height="16" rx="6.48" fill="#B7B7B7"/>
<rect x="39" y="439.198" width="220.253" height="126.099" rx="15.1319" fill="#D9D9D9"/>
<rect x="281.253" y="439.198" width="220.253" height="126.099" rx="15.1319" fill="#D9D9D9"/>
</g>
<circle cx="64.5" cy="82.5" r="25.5" fill="#E5E5E5"/>
<defs>
<filter id="filter0_d_7465_153" x="0.335327" y="0.335327" width="557.329" height="495.329" filterUnits="userSpaceOnUse" color-interpolation-filters="sRGB">
<feFlood flood-opacity="0" result="BackgroundImageFix"/>
<feColorMatrix in="SourceAlpha" type="matrix" values="0 0 0 0 0 0 0 0 0 0 0 0 0 0 0 0 0 0 127 0" result="hardAlpha"/>
<feMorphology radius="2" operator="dilate" in="SourceAlpha" result="effect1_dropShadow_7465_153"/>
<feOffset dx="9" dy="-13"/>
<feGaussianBlur stdDeviation="8.83234"/>
<feComposite in2="hardAlpha" operator="out"/>
<feColorMatrix type="matrix" values="0 0 0 0 0 0 0 0 0 0 0 0 0 0 0 0 0 0 0.04 0"/>
<feBlend mode="normal" in2="BackgroundImageFix" result="effect1_dropShadow_7465_153"/>
<feBlend mode="normal" in="SourceGraphic" in2="effect1_dropShadow_7465_153" result="shape"/>
</filter>
</defs>
</svg>
