<svg width="389" height="345" viewBox="0 0 389 345" fill="none" xmlns="http://www.w3.org/2000/svg">
<g opacity="0.5">
<rect opacity="0.4" width="389" height="145.757" rx="14.2525" fill="#D9D9D9"/>
<circle cx="70.6413" cy="59.339" r="44.2688" fill="#B7B7B7"/>
<rect x="145.993" y="30.1405" width="229.821" height="11.3027" rx="5.65133" fill="#B7B7B7"/>
<rect x="145.993" y="53.6877" width="179.901" height="11.3027" rx="5.65133" fill="#B7B7B7"/>
<rect x="145.993" y="77.2349" width="106.433" height="11.3027" rx="5.65133" fill="#B7B7B7"/>
<rect x="303.817" y="120.202" width="30.2871" height="12.3041" rx="6.10344" fill="#B7B7B7"/>
<rect x="39.752" y="120.202" width="61.5207" height="12.3041" rx="6.10344" fill="#B7B7B7"/>
<rect x="345.462" y="120.202" width="30.2871" height="12.3041" rx="6.10344" fill="#B7B7B7"/>
<rect opacity="0.4" y="159.007" width="389" height="145.757" rx="14.2525" fill="#D9D9D9"/>
<circle cx="70.6413" cy="218.346" r="44.2688" fill="#B7B7B7"/>
<rect x="145.993" y="189.148" width="229.821" height="11.3027" rx="5.65133" fill="#B7B7B7"/>
<rect x="145.993" y="212.695" width="179.901" height="11.3027" rx="5.65133" fill="#B7B7B7"/>
<rect x="145.993" y="236.242" width="106.433" height="11.3027" rx="5.65133" fill="#B7B7B7"/>
<rect x="303.817" y="279.209" width="30.2871" height="12.3041" rx="6.10344" fill="#B7B7B7"/>
<rect x="39.752" y="279.209" width="61.5207" height="12.3041" rx="6.10344" fill="#B7B7B7"/>
<rect x="345.462" y="279.209" width="30.2871" height="12.3041" rx="6.10344" fill="#B7B7B7"/>
<rect opacity="0.4" y="318.015" width="389" height="145.757" rx="14.2525" fill="#D9D9D9"/>
<circle cx="70.6413" cy="377.354" r="44.2688" fill="#B7B7B7"/>
</g>
</svg>
