<svg width="463" height="326" viewBox="0 0 463 326" fill="none" xmlns="http://www.w3.org/2000/svg">
<g opacity="0.5">
<rect width="220.253" height="126.099" rx="15.1319" fill="#D9D9D9"/>
<rect x="13" y="45" width="181" height="16" rx="6.48" fill="#B7B7B7"/>
<rect x="13" y="70" width="142" height="16" rx="6.48" fill="#B7B7B7"/>
<rect x="13" y="95" width="84" height="16" rx="6.48" fill="#B7B7B7"/>
<rect x="242.253" width="220.253" height="126.099" rx="15.1319" fill="#D9D9D9"/>
<rect x="255.253" y="45" width="181" height="16" rx="6.48" fill="#B7B7B7"/>
<rect x="255.253" y="70" width="142" height="16" rx="6.48" fill="#B7B7B7"/>
<rect x="255.253" y="95" width="84" height="16" rx="6.48" fill="#B7B7B7"/>
<rect y="152.099" width="220.253" height="126.099" rx="15.1319" fill="#D9D9D9"/>
<rect x="13" y="197.099" width="181" height="16" rx="6.48" fill="#B7B7B7"/>
<rect x="13" y="222.099" width="142" height="16" rx="6.48" fill="#B7B7B7"/>
<rect x="13" y="247.099" width="84" height="16" rx="6.48" fill="#B7B7B7"/>
<rect x="242.253" y="152.099" width="220.253" height="126.099" rx="15.1319" fill="#D9D9D9"/>
<rect x="255.253" y="197.099" width="181" height="16" rx="6.48" fill="#B7B7B7"/>
<rect x="255.253" y="222.099" width="142" height="16" rx="6.48" fill="#B7B7B7"/>
<rect x="255.253" y="247.099" width="84" height="16" rx="6.48" fill="#B7B7B7"/>
<rect y="304.198" width="220.253" height="126.099" rx="15.1319" fill="#D9D9D9"/>
<rect x="242.253" y="304.198" width="220.253" height="126.099" rx="15.1319" fill="#D9D9D9"/>
</g>
</svg>
