<svg width="554" height="461" viewBox="0 0 554 461" fill="none" xmlns="http://www.w3.org/2000/svg">
<g filter="url(#filter0_d_7465_155)">
<rect x="11" y="33" width="518" height="456" rx="14.8873" fill="white"/>
</g>
<path d="M377.382 82.9379H375.43V84.9344H373.613V82.9379H371.662V81.2218H373.613V79.2141H375.43V81.2218H377.382V82.9379ZM383.964 86.0785C383.389 86.0785 382.873 85.985 382.416 85.7981C381.96 85.6112 381.594 85.3345 381.317 84.9681C381.048 84.6017 380.906 84.1605 380.891 83.6446H382.932C382.962 83.9362 383.063 84.1605 383.235 84.3175C383.407 84.4671 383.632 84.5419 383.908 84.5419C384.192 84.5419 384.417 84.4783 384.581 84.3512C384.746 84.2166 384.828 84.0334 384.828 83.8016C384.828 83.6072 384.761 83.4464 384.626 83.3193C384.499 83.1922 384.338 83.0875 384.144 83.0052C383.957 82.923 383.688 82.8295 383.336 82.7248C382.828 82.5678 382.413 82.4108 382.091 82.2537C381.77 82.0967 381.493 81.8649 381.261 81.5583C381.029 81.2517 380.914 80.8517 380.914 80.3582C380.914 79.6254 381.179 79.0533 381.71 78.6421C382.241 78.2233 382.932 78.014 383.785 78.014C384.652 78.014 385.351 78.2233 385.882 78.6421C386.413 79.0533 386.697 79.6291 386.735 80.3694H384.66C384.645 80.1152 384.551 79.917 384.379 79.7749C384.207 79.6254 383.987 79.5506 383.718 79.5506C383.486 79.5506 383.299 79.6142 383.157 79.7413C383.015 79.8609 382.944 80.0366 382.944 80.2684C382.944 80.5227 383.063 80.7208 383.303 80.8629C383.542 81.005 383.916 81.1583 384.424 81.3228C384.933 81.4948 385.344 81.6593 385.658 81.8163C385.98 81.9733 386.256 82.2014 386.488 82.5005C386.72 82.7996 386.836 83.1847 386.836 83.6558C386.836 84.1044 386.72 84.512 386.488 84.8784C386.264 85.2448 385.935 85.5364 385.501 85.7532C385.067 85.9701 384.555 86.0785 383.964 86.0785ZM387.635 82.8706C387.635 82.2201 387.766 81.6518 388.027 81.1658C388.296 80.6797 388.667 80.3058 389.138 80.0441C389.616 79.7824 390.162 79.6515 390.775 79.6515C391.56 79.6515 392.215 79.8572 392.738 80.2684C393.269 80.6797 393.617 81.2592 393.781 82.007H391.74C391.568 81.5284 391.235 81.2891 390.742 81.2891C390.39 81.2891 390.11 81.4275 389.9 81.7041C389.691 81.9733 389.586 82.3622 389.586 82.8706C389.586 83.3791 389.691 83.7717 389.9 84.0484C390.11 84.3175 390.39 84.4521 390.742 84.4521C391.235 84.4521 391.568 84.2129 391.74 83.7343H393.781C393.617 84.4671 393.269 85.0429 392.738 85.4616C392.207 85.8804 391.553 86.0897 390.775 86.0897C390.162 86.0897 389.616 85.9589 389.138 85.6972C388.667 85.4354 388.296 85.0616 388.027 84.5755C387.766 84.0895 387.635 83.5212 387.635 82.8706ZM398.654 79.674C399.372 79.674 399.948 79.9133 400.382 80.3918C400.815 80.8629 401.032 81.5135 401.032 82.3435V86H399.126V82.6014C399.126 82.1827 399.017 81.8574 398.8 81.6256C398.583 81.3938 398.292 81.2779 397.925 81.2779C397.559 81.2779 397.267 81.3938 397.05 81.6256C396.834 81.8574 396.725 82.1827 396.725 82.6014V86H394.807V77.6999H396.725V80.5825C396.92 80.3058 397.185 80.0852 397.522 79.9207C397.858 79.7562 398.236 79.674 398.654 79.674ZM408.265 82.7697C408.265 82.9492 408.254 83.1361 408.231 83.3305H403.891C403.92 83.7193 404.044 84.0184 404.261 84.2278C404.485 84.4297 404.758 84.5307 405.079 84.5307C405.558 84.5307 405.891 84.3288 406.078 83.925H408.119C408.014 84.3362 407.824 84.7064 407.547 85.0354C407.278 85.3644 406.938 85.6224 406.526 85.8093C406.115 85.9963 405.655 86.0897 405.147 86.0897C404.534 86.0897 403.988 85.9589 403.509 85.6972C403.031 85.4354 402.657 85.0616 402.388 84.5755C402.118 84.0895 401.984 83.5212 401.984 82.8706C401.984 82.2201 402.115 81.6518 402.376 81.1658C402.646 80.6797 403.019 80.3058 403.498 80.0441C403.977 79.7824 404.526 79.6515 405.147 79.6515C405.752 79.6515 406.291 79.7787 406.762 80.0329C407.233 80.2871 407.599 80.6498 407.861 81.1209C408.13 81.592 408.265 82.1416 408.265 82.7697ZM406.302 82.265C406.302 81.9359 406.19 81.6742 405.966 81.4798C405.741 81.2854 405.461 81.1882 405.124 81.1882C404.803 81.1882 404.53 81.2817 404.306 81.4686C404.089 81.6555 403.954 81.921 403.902 82.265H406.302ZM408.895 82.8594C408.895 82.2164 409.015 81.6518 409.254 81.1658C409.501 80.6797 409.834 80.3058 410.253 80.0441C410.671 79.7824 411.139 79.6515 411.655 79.6515C412.066 79.6515 412.44 79.7375 412.776 79.9095C413.12 80.0815 413.389 80.3133 413.584 80.6049V77.6999H415.502V86H413.584V85.1027C413.404 85.4018 413.146 85.6411 412.81 85.8205C412.481 86 412.096 86.0897 411.655 86.0897C411.139 86.0897 410.671 85.9589 410.253 85.6972C409.834 85.428 409.501 85.0503 409.254 84.5643C409.015 84.0708 408.895 83.5025 408.895 82.8594ZM413.584 82.8706C413.584 82.3921 413.449 82.0145 413.18 81.7378C412.918 81.4611 412.597 81.3228 412.215 81.3228C411.834 81.3228 411.509 81.4611 411.24 81.7378C410.978 82.007 410.847 82.3809 410.847 82.8594C410.847 83.338 410.978 83.7193 411.24 84.0035C411.509 84.2802 411.834 84.4185 412.215 84.4185C412.597 84.4185 412.918 84.2802 413.18 84.0035C413.449 83.7268 413.584 83.3492 413.584 82.8706ZM423.07 79.7413V86H421.152V85.1476C420.957 85.4242 420.692 85.6486 420.355 85.8205C420.026 85.985 419.66 86.0673 419.256 86.0673C418.777 86.0673 418.355 85.9626 417.989 85.7532C417.622 85.5364 417.338 85.2261 417.136 84.8223C416.934 84.4185 416.833 83.9437 416.833 83.3978V79.7413H418.74V83.1398C418.74 83.5586 418.849 83.8838 419.065 84.1157C419.282 84.3475 419.574 84.4634 419.94 84.4634C420.314 84.4634 420.61 84.3475 420.826 84.1157C421.043 83.8838 421.152 83.5586 421.152 83.1398V79.7413H423.07ZM426.365 77.6999V86H424.447V77.6999H426.365ZM433.655 82.7697C433.655 82.9492 433.644 83.1361 433.621 83.3305H429.281C429.311 83.7193 429.434 84.0184 429.651 84.2278C429.875 84.4297 430.148 84.5307 430.47 84.5307C430.948 84.5307 431.281 84.3288 431.468 83.925H433.509C433.405 84.3362 433.214 84.7064 432.937 85.0354C432.668 85.3644 432.328 85.6224 431.917 85.8093C431.505 85.9963 431.045 86.0897 430.537 86.0897C429.924 86.0897 429.378 85.9589 428.899 85.6972C428.421 85.4354 428.047 85.0616 427.778 84.5755C427.508 84.0895 427.374 83.5212 427.374 82.8706C427.374 82.2201 427.505 81.6518 427.766 81.1658C428.036 80.6797 428.41 80.3058 428.888 80.0441C429.367 79.7824 429.916 79.6515 430.537 79.6515C431.143 79.6515 431.681 79.7787 432.152 80.0329C432.623 80.2871 432.99 80.6498 433.251 81.1209C433.52 81.592 433.655 82.1416 433.655 82.7697ZM431.692 82.265C431.692 81.9359 431.58 81.6742 431.356 81.4798C431.131 81.2854 430.851 81.1882 430.514 81.1882C430.193 81.1882 429.92 81.2817 429.696 81.4686C429.479 81.6555 429.344 81.921 429.292 82.265H431.692ZM444.088 86H442.17L438.962 81.1433V86H437.044V78.1261H438.962L442.17 83.0052V78.1261H444.088V86ZM451.378 82.7697C451.378 82.9492 451.367 83.1361 451.344 83.3305H447.003C447.033 83.7193 447.157 84.0184 447.374 84.2278C447.598 84.4297 447.871 84.5307 448.192 84.5307C448.671 84.5307 449.004 84.3288 449.191 83.925H451.232C451.127 84.3362 450.937 84.7064 450.66 85.0354C450.391 85.3644 450.05 85.6224 449.639 85.8093C449.228 85.9963 448.768 86.0897 448.26 86.0897C447.646 86.0897 447.101 85.9589 446.622 85.6972C446.143 85.4354 445.77 85.0616 445.5 84.5755C445.231 84.0895 445.097 83.5212 445.097 82.8706C445.097 82.2201 445.227 81.6518 445.489 81.1658C445.758 80.6797 446.132 80.3058 446.611 80.0441C447.089 79.7824 447.639 79.6515 448.26 79.6515C448.865 79.6515 449.404 79.7787 449.875 80.0329C450.346 80.2871 450.712 80.6498 450.974 81.1209C451.243 81.592 451.378 82.1416 451.378 82.7697ZM449.415 82.265C449.415 81.9359 449.303 81.6742 449.078 81.4798C448.854 81.2854 448.574 81.1882 448.237 81.1882C447.916 81.1882 447.643 81.2817 447.418 81.4686C447.202 81.6555 447.067 81.921 447.015 82.265H449.415ZM461.374 79.7413L459.68 86H457.56L456.573 81.9397L455.553 86H453.444L451.739 79.7413H453.657L454.543 84.2166L455.597 79.7413H457.628L458.693 84.1942L459.568 79.7413H461.374ZM464.157 82.0518C464.157 81.2742 464.325 80.5825 464.662 79.9768C464.998 79.3637 465.466 78.8888 466.064 78.5523C466.669 78.2084 467.354 78.0364 468.116 78.0364C469.051 78.0364 469.851 78.2832 470.517 78.7767C471.182 79.2702 471.627 79.9432 471.851 80.7956H469.743C469.586 80.4666 469.361 80.2161 469.07 80.0441C468.786 79.8721 468.46 79.7861 468.094 79.7861C467.503 79.7861 467.025 79.9918 466.658 80.403C466.292 80.8143 466.109 81.3639 466.109 82.0518C466.109 82.7398 466.292 83.2894 466.658 83.7006C467.025 84.1119 467.503 84.3175 468.094 84.3175C468.46 84.3175 468.786 84.2316 469.07 84.0596C469.361 83.8876 469.586 83.6371 469.743 83.3081H471.851C471.627 84.1605 471.182 84.8335 470.517 85.327C469.851 85.8131 469.051 86.0561 468.116 86.0561C467.354 86.0561 466.669 85.8878 466.064 85.5513C465.466 85.2074 464.998 84.7326 464.662 84.1269C464.325 83.5212 464.157 82.8295 464.157 82.0518ZM474.944 77.6999V86H473.026V77.6999H474.944ZM475.953 82.8594C475.953 82.2164 476.072 81.6518 476.311 81.1658C476.558 80.6797 476.891 80.3058 477.31 80.0441C477.728 79.7824 478.196 79.6515 478.712 79.6515C479.153 79.6515 479.538 79.7413 479.867 79.9207C480.204 80.1002 480.461 80.3357 480.641 80.6274V79.7413H482.559V86H480.641V85.1139C480.454 85.4055 480.192 85.6411 479.856 85.8205C479.527 86 479.142 86.0897 478.701 86.0897C478.192 86.0897 477.728 85.9589 477.31 85.6972C476.891 85.428 476.558 85.0503 476.311 84.5643C476.072 84.0708 475.953 83.5025 475.953 82.8594ZM480.641 82.8706C480.641 82.3921 480.506 82.0145 480.237 81.7378C479.975 81.4611 479.654 81.3228 479.273 81.3228C478.891 81.3228 478.566 81.4611 478.297 81.7378C478.035 82.007 477.904 82.3809 477.904 82.8594C477.904 83.338 478.035 83.7193 478.297 84.0035C478.566 84.2802 478.891 84.4185 479.273 84.4185C479.654 84.4185 479.975 84.2802 480.237 84.0035C480.506 83.7268 480.641 83.3492 480.641 82.8706ZM486.493 86.0897C485.947 86.0897 485.461 85.9963 485.035 85.8093C484.608 85.6224 484.272 85.3681 484.025 85.0466C483.778 84.7176 483.64 84.3512 483.61 83.9474H485.506C485.528 84.1643 485.629 84.34 485.808 84.4746C485.988 84.6092 486.208 84.6765 486.47 84.6765C486.709 84.6765 486.893 84.6316 487.02 84.5419C487.154 84.4447 487.222 84.3213 487.222 84.1717C487.222 83.9923 487.128 83.8614 486.941 83.7792C486.754 83.6894 486.452 83.5922 486.033 83.4875C485.584 83.3829 485.21 83.2744 484.911 83.1623C484.612 83.0426 484.354 82.8594 484.137 82.6127C483.92 82.3584 483.812 82.0182 483.812 81.592C483.812 81.2331 483.909 80.9078 484.104 80.6162C484.305 80.317 484.597 80.0815 484.978 79.9095C485.367 79.7375 485.827 79.6515 486.358 79.6515C487.143 79.6515 487.76 79.846 488.209 80.2348C488.665 80.6236 488.927 81.1396 488.994 81.7827H487.222C487.192 81.5658 487.095 81.3938 486.93 81.2667C486.773 81.1396 486.564 81.076 486.302 81.076C486.078 81.076 485.906 81.1209 485.786 81.2106C485.666 81.2929 485.607 81.4088 485.607 81.5583C485.607 81.7378 485.7 81.8724 485.887 81.9621C486.081 82.0518 486.38 82.1416 486.784 82.2313C487.248 82.3509 487.625 82.4706 487.917 82.5902C488.209 82.7024 488.463 82.8893 488.68 83.151C488.904 83.4053 489.02 83.7493 489.028 84.183C489.028 84.5494 488.923 84.8784 488.713 85.17C488.512 85.4541 488.216 85.6785 487.827 85.843C487.446 86.0075 487.001 86.0897 486.493 86.0897ZM492.747 86.0897C492.201 86.0897 491.715 85.9963 491.289 85.8093C490.863 85.6224 490.526 85.3681 490.279 85.0466C490.033 84.7176 489.894 84.3512 489.864 83.9474H491.76C491.782 84.1643 491.883 84.34 492.063 84.4746C492.242 84.6092 492.463 84.6765 492.725 84.6765C492.964 84.6765 493.147 84.6316 493.274 84.5419C493.409 84.4447 493.476 84.3213 493.476 84.1717C493.476 83.9923 493.383 83.8614 493.196 83.7792C493.009 83.6894 492.706 83.5922 492.287 83.4875C491.839 83.3829 491.465 83.2744 491.166 83.1623C490.866 83.0426 490.608 82.8594 490.392 82.6127C490.175 82.3584 490.066 82.0182 490.066 81.592C490.066 81.2331 490.164 80.9078 490.358 80.6162C490.56 80.317 490.852 80.0815 491.233 79.9095C491.622 79.7375 492.082 79.6515 492.612 79.6515C493.398 79.6515 494.015 79.846 494.463 80.2348C494.919 80.6236 495.181 81.1396 495.248 81.7827H493.476C493.446 81.5658 493.349 81.3938 493.185 81.2667C493.027 81.1396 492.818 81.076 492.556 81.076C492.332 81.076 492.16 81.1209 492.04 81.2106C491.921 81.2929 491.861 81.4088 491.861 81.5583C491.861 81.7378 491.954 81.8724 492.141 81.9621C492.336 82.0518 492.635 82.1416 493.039 82.2313C493.502 82.3509 493.88 82.4706 494.172 82.5902C494.463 82.7024 494.717 82.8893 494.934 83.151C495.159 83.4053 495.274 83.7493 495.282 84.183C495.282 84.5494 495.177 84.8784 494.968 85.17C494.766 85.4541 494.471 85.6785 494.082 85.843C493.7 86.0075 493.256 86.0897 492.747 86.0897ZM502.355 82.7697C502.355 82.9492 502.344 83.1361 502.322 83.3305H497.981C498.011 83.7193 498.134 84.0184 498.351 84.2278C498.575 84.4297 498.848 84.5307 499.17 84.5307C499.648 84.5307 499.981 84.3288 500.168 83.925H502.209C502.105 84.3362 501.914 84.7064 501.637 85.0354C501.368 85.3644 501.028 85.6224 500.617 85.8093C500.205 85.9963 499.746 86.0897 499.237 86.0897C498.624 86.0897 498.078 85.9589 497.599 85.6972C497.121 85.4354 496.747 85.0616 496.478 84.5755C496.209 84.0895 496.074 83.5212 496.074 82.8706C496.074 82.2201 496.205 81.6518 496.467 81.1658C496.736 80.6797 497.11 80.3058 497.588 80.0441C498.067 79.7824 498.616 79.6515 499.237 79.6515C499.843 79.6515 500.381 79.7787 500.852 80.0329C501.323 80.2871 501.69 80.6498 501.951 81.1209C502.221 81.592 502.355 82.1416 502.355 82.7697ZM500.392 82.265C500.392 81.9359 500.28 81.6742 500.056 81.4798C499.832 81.2854 499.551 81.1882 499.215 81.1882C498.893 81.1882 498.62 81.2817 498.396 81.4686C498.179 81.6555 498.044 81.921 497.992 82.265H500.392ZM505.913 86.0897C505.367 86.0897 504.881 85.9963 504.455 85.8093C504.029 85.6224 503.692 85.3681 503.446 85.0466C503.199 84.7176 503.06 84.3512 503.031 83.9474H504.926C504.949 84.1643 505.049 84.34 505.229 84.4746C505.408 84.6092 505.629 84.6765 505.891 84.6765C506.13 84.6765 506.313 84.6316 506.44 84.5419C506.575 84.4447 506.642 84.3213 506.642 84.1717C506.642 83.9923 506.549 83.8614 506.362 83.7792C506.175 83.6894 505.872 83.5922 505.453 83.4875C505.005 83.3829 504.631 83.2744 504.332 83.1623C504.033 83.0426 503.775 82.8594 503.558 82.6127C503.341 82.3584 503.232 82.0182 503.232 81.592C503.232 81.2331 503.33 80.9078 503.524 80.6162C503.726 80.317 504.018 80.0815 504.399 79.9095C504.788 79.7375 505.248 79.6515 505.779 79.6515C506.564 79.6515 507.181 79.846 507.629 80.2348C508.085 80.6236 508.347 81.1396 508.414 81.7827H506.642C506.612 81.5658 506.515 81.3938 506.351 81.2667C506.194 81.1396 505.984 81.076 505.722 81.076C505.498 81.076 505.326 81.1209 505.207 81.2106C505.087 81.2929 505.027 81.4088 505.027 81.5583C505.027 81.7378 505.121 81.8724 505.307 81.9621C505.502 82.0518 505.801 82.1416 506.205 82.2313C506.668 82.3509 507.046 82.4706 507.338 82.5902C507.629 82.7024 507.883 82.8893 508.1 83.151C508.325 83.4053 508.441 83.7493 508.448 84.183C508.448 84.5494 508.343 84.8784 508.134 85.17C507.932 85.4541 507.637 85.6785 507.248 85.843C506.867 86.0075 506.422 86.0897 505.913 86.0897Z" fill="#00ACA5"/>
<g opacity="0.5">
<rect x="39" y="151" width="220.253" height="126.099" rx="15.1319" fill="#D9D9D9"/>
<rect x="52" y="196" width="181" height="16" rx="6.48" fill="#B7B7B7"/>
<rect x="52" y="221" width="142" height="16" rx="6.48" fill="#B7B7B7"/>
<rect x="52" y="246" width="84" height="16" rx="6.48" fill="#B7B7B7"/>
</g>
<rect x="309.877" y="170.114" width="170.305" height="15.0545" rx="6.09709" fill="#B7B7B7"/>
<rect x="324.932" y="203.045" width="16.9364" height="16.9364" rx="0.940909" fill="#B7B7B7"/>
<rect x="366.332" y="203.045" width="16.9364" height="16.9364" rx="0.940909" fill="#B7B7B7"/>
<rect x="407.732" y="203.045" width="16.9364" height="16.9364" rx="0.940909" fill="#B7B7B7"/>
<rect x="449.132" y="203.045" width="16.9364" height="16.9364" rx="0.940909" fill="#B7B7B7"/>
<rect x="324.932" y="229.391" width="16.9364" height="16.9364" rx="0.940909" fill="#B7B7B7"/>
<rect x="366.332" y="229.391" width="16.9364" height="16.9364" rx="0.940909" fill="#B7B7B7"/>
<rect x="407.732" y="229.391" width="16.9364" height="16.9364" rx="0.940909" fill="#B7B7B7"/>
<rect x="449.132" y="229.391" width="16.9364" height="16.9364" rx="0.940909" fill="#B7B7B7"/>
<rect x="324.932" y="255.736" width="16.9364" height="16.9364" rx="0.940909" fill="#B7B7B7"/>
<rect x="366.332" y="255.736" width="16.9364" height="16.9364" rx="0.940909" fill="#B7B7B7"/>
<rect x="407.732" y="255.736" width="16.9364" height="16.9364" rx="0.940909" fill="#B7B7B7"/>
<rect x="449.132" y="255.736" width="16.9364" height="16.9364" rx="0.940909" fill="#B7B7B7"/>
<rect opacity="0.5" x="292" y="156" width="207" height="145.841" rx="14.2377" fill="#D9D9D9"/>
<rect opacity="0.5" x="44" y="320" width="195" height="16" rx="8" fill="#B7B7B7"/>
<rect opacity="0.5" x="44" y="351" width="437" height="10" fill="#B7B7B7"/>
<rect opacity="0.5" x="44" y="376" width="396" height="10" fill="#B7B7B7"/>
<rect opacity="0.5" x="44" y="401" width="363" height="10" fill="#B7B7B7"/>
<rect opacity="0.5" x="44" y="426" width="332" height="10" fill="#B7B7B7"/>
<rect opacity="0.5" x="44" y="451" width="248" height="10" fill="#B7B7B7"/>
<circle cx="64.5" cy="82.5" r="25.5" fill="#E5E5E5"/>
<defs>
<filter id="filter0_d_7465_155" x="0.335327" y="0.335327" width="557.329" height="495.329" filterUnits="userSpaceOnUse" color-interpolation-filters="sRGB">
<feFlood flood-opacity="0" result="BackgroundImageFix"/>
<feColorMatrix in="SourceAlpha" type="matrix" values="0 0 0 0 0 0 0 0 0 0 0 0 0 0 0 0 0 0 127 0" result="hardAlpha"/>
<feMorphology radius="2" operator="dilate" in="SourceAlpha" result="effect1_dropShadow_7465_155"/>
<feOffset dx="9" dy="-13"/>
<feGaussianBlur stdDeviation="8.83234"/>
<feComposite in2="hardAlpha" operator="out"/>
<feColorMatrix type="matrix" values="0 0 0 0 0 0 0 0 0 0 0 0 0 0 0 0 0 0 0.04 0"/>
<feBlend mode="normal" in2="BackgroundImageFix" result="effect1_dropShadow_7465_155"/>
<feBlend mode="normal" in="SourceGraphic" in2="effect1_dropShadow_7465_155" result="shape"/>
</filter>
</defs>
</svg>
