<svg width="67" height="67" viewBox="0 0 67 67" fill="none" xmlns="http://www.w3.org/2000/svg">
<circle opacity="0.2" cx="33.1173" cy="33.1173" r="33.1173" fill="#FF635F"/>
<path d="M45.3428 17.9238H21.6028C19.9706 17.9238 18.6501 19.2592 18.6501 20.8913L18.6353 47.5988L24.5703 41.6638H45.3428C46.9749 41.6638 48.3103 40.3284 48.3103 38.6963V20.8913C48.3103 19.2592 46.9749 17.9238 45.3428 17.9238ZM26.054 28.31H40.8915C41.7076 28.31 42.3753 28.9777 42.3753 29.7938C42.3753 30.6099 41.7076 31.2775 40.8915 31.2775H26.054C25.2379 31.2775 24.5703 30.6099 24.5703 29.7938C24.5703 28.9777 25.2379 28.31 26.054 28.31ZM34.9565 35.7288H26.054C25.2379 35.7288 24.5703 35.0611 24.5703 34.245C24.5703 33.429 25.2379 32.7613 26.054 32.7613H34.9565C35.7726 32.7613 36.4403 33.429 36.4403 34.245C36.4403 35.0611 35.7726 35.7288 34.9565 35.7288ZM40.8915 26.8263H26.054C25.2379 26.8263 24.5703 26.1586 24.5703 25.3425C24.5703 24.5265 25.2379 23.8588 26.054 23.8588H40.8915C41.7076 23.8588 42.3753 24.5265 42.3753 25.3425C42.3753 26.1586 41.7076 26.8263 40.8915 26.8263Z" fill="#FF635F"/>
</svg>
