<svg width="67" height="67" viewBox="0 0 67 67" fill="none" xmlns="http://www.w3.org/2000/svg">
<circle opacity="0.2" r="33.1173" transform="matrix(-1 0 0 1 33.8827 33.1173)" fill="#00ACA5"/>
<path d="M32.043 35.7288H29.0755C29.0755 28.3546 35.055 22.375 42.4292 22.375V25.3425C36.6871 25.3425 32.043 29.9867 32.043 35.7288ZM42.4292 31.2775V28.31C38.3341 28.31 35.0105 31.6336 35.0105 35.7288H37.978C37.978 33.2658 39.9662 31.2775 42.4292 31.2775ZM26.108 20.8913C26.108 19.2443 24.7874 17.9238 23.1405 17.9238C21.4935 17.9238 20.173 19.2443 20.173 20.8913C20.173 22.5383 21.4935 23.8588 23.1405 23.8588C24.7874 23.8588 26.108 22.5383 26.108 20.8913ZM32.7107 21.6332H29.7432C29.3871 23.7401 27.5769 25.3425 25.3661 25.3425H20.9148C19.6833 25.3425 18.6892 26.3367 18.6892 27.5682V31.2775H27.5917V27.9243C30.3515 27.0489 32.4139 24.6155 32.7107 21.6332ZM43.913 40.18C45.5599 40.18 46.8805 38.8595 46.8805 37.2125C46.8805 35.5656 45.5599 34.245 43.913 34.245C42.266 34.245 40.9455 35.5656 40.9455 37.2125C40.9455 38.8595 42.266 40.18 43.913 40.18ZM46.1386 41.6638H41.6873C39.4766 41.6638 37.6664 40.0613 37.3103 37.9544H34.3428C34.6395 40.9368 36.7019 43.3701 39.4617 44.2455V47.5988H48.3642V43.8894C48.3642 42.6579 47.3701 41.6638 46.1386 41.6638Z" fill="#00ACA5"/>
</svg>
