<svg width="67" height="67" viewBox="0 0 67 67" fill="none" xmlns="http://www.w3.org/2000/svg">
<circle opacity="0.2" cx="33.1173" cy="33.1173" r="33.1173" fill="#FFA92C"/>
<g clip-path="url(#clip0_137_4081)">
<path d="M32.7618 33.873C35.1803 33.873 37.3169 34.4517 39.0529 35.2084C40.6554 35.9206 41.6643 37.5231 41.6643 39.2591V40.179C41.6643 40.995 40.9966 41.6627 40.1806 41.6627H25.343C24.527 41.6627 23.8593 40.995 23.8593 40.179V39.2739C23.8593 37.5231 24.8682 35.9206 26.4707 35.2233C28.2067 34.4517 30.3433 33.873 32.7618 33.873ZM20.8918 34.244C22.5239 34.244 23.8593 32.9086 23.8593 31.2765C23.8593 29.6444 22.5239 28.309 20.8918 28.309C19.2597 28.309 17.9243 29.6444 17.9243 31.2765C17.9243 32.9086 19.2597 34.244 20.8918 34.244ZM22.5684 35.8761C22.0194 35.7871 21.4705 35.7277 20.8918 35.7277C19.4229 35.7277 18.0282 36.0393 16.767 36.5883C15.669 37.0631 14.9568 38.1314 14.9568 39.3332V40.179C14.9568 40.995 15.6245 41.6627 16.4405 41.6627H21.6337V39.2739C21.6337 38.0424 21.9749 36.8851 22.5684 35.8761ZM44.6318 34.244C46.2639 34.244 47.5993 32.9086 47.5993 31.2765C47.5993 29.6444 46.2639 28.309 44.6318 28.309C42.9997 28.309 41.6643 29.6444 41.6643 31.2765C41.6643 32.9086 42.9997 34.244 44.6318 34.244ZM50.5668 39.3332C50.5668 38.1314 49.8546 37.0631 48.7566 36.5883C47.4954 36.0393 46.1007 35.7277 44.6318 35.7277C44.0531 35.7277 43.5042 35.7871 42.9552 35.8761C43.5487 36.8851 43.8899 38.0424 43.8899 39.2739V41.6627H49.0831C49.8991 41.6627 50.5668 40.995 50.5668 40.179V39.3332ZM32.7618 23.8577C35.2248 23.8577 37.213 25.846 37.213 28.309C37.213 30.772 35.2248 32.7602 32.7618 32.7602C30.2988 32.7602 28.3105 30.772 28.3105 28.309C28.3105 25.846 30.2988 23.8577 32.7618 23.8577Z" fill="#FFA92C"/>
</g>
<defs>
<clipPath id="clip0_137_4081">
<rect width="35.61" height="35.61" fill="white" transform="translate(14.9568 14.9552)"/>
</clipPath>
</defs>
</svg>
