<svg width="226" height="237" viewBox="0 0 226 237" fill="none" xmlns="http://www.w3.org/2000/svg">
<g clip-path="url(#clip0_149_3342)">
<path d="M0 42.2111C0 22.3126 0 12.3633 6.18167 6.18167C12.3633 0 22.3126 0 42.2111 0H183.789C203.687 0 213.637 0 219.818 6.18167C226 12.3633 226 22.3126 226 42.2111V237H0V42.2111Z" fill="#F3F5F8"/>
<path d="M26.5737 118.4C26.1576 118.4 25.7837 118.327 25.4521 118.183C25.1264 118.032 24.8702 117.827 24.6832 117.568C24.4963 117.302 24.3998 116.998 24.3938 116.654H25.2712C25.3013 116.949 25.4219 117.2 25.633 117.405C25.8501 117.604 26.1636 117.703 26.5737 117.703C26.9656 117.703 27.2732 117.607 27.4963 117.414C27.7254 117.215 27.84 116.962 27.84 116.654C27.84 116.413 27.7737 116.217 27.641 116.066C27.5084 115.915 27.3425 115.801 27.1435 115.722C26.9445 115.644 26.6762 115.56 26.3385 115.469C25.9224 115.361 25.5878 115.252 25.3345 115.143C25.0873 115.035 24.8732 114.866 24.6923 114.637C24.5174 114.402 24.43 114.088 24.43 113.696C24.43 113.353 24.5174 113.048 24.6923 112.783C24.8672 112.517 25.1114 112.312 25.4249 112.168C25.7445 112.023 26.1094 111.95 26.5194 111.95C27.1104 111.95 27.5928 112.098 27.9667 112.394C28.3465 112.689 28.5606 113.081 28.6089 113.57H27.7043C27.6742 113.328 27.5476 113.117 27.3244 112.936C27.1013 112.749 26.8058 112.656 26.438 112.656C26.0943 112.656 25.8139 112.746 25.5968 112.927C25.3797 113.102 25.2712 113.349 25.2712 113.669C25.2712 113.898 25.3345 114.085 25.4611 114.23C25.5938 114.375 25.7536 114.486 25.9405 114.565C26.1335 114.637 26.4018 114.721 26.7455 114.818C27.1616 114.932 27.4963 115.047 27.7496 115.162C28.0028 115.27 28.2199 115.442 28.4008 115.677C28.5817 115.906 28.6722 116.22 28.6722 116.618C28.6722 116.925 28.5908 117.215 28.428 117.486C28.2651 117.758 28.0239 117.978 27.7043 118.146C27.3847 118.315 27.0079 118.4 26.5737 118.4Z" fill="#0F172A"/>
<path d="M25.4277 139.683V138.932H27.1282V145.472H26.296V139.683H25.4277Z" fill="#0F172A"/>
<path d="M25.4342 169.207C25.0965 169.074 24.8372 168.881 24.6563 168.628C24.4754 168.375 24.385 168.067 24.385 167.705C24.385 167.38 24.4664 167.087 24.6292 166.828C24.792 166.563 25.0332 166.355 25.3528 166.204C25.6785 166.047 26.0704 165.969 26.5287 165.969C26.987 165.969 27.3759 166.047 27.6955 166.204C28.0212 166.355 28.2654 166.563 28.4282 166.828C28.597 167.087 28.6815 167.38 28.6815 167.705C28.6815 168.055 28.588 168.363 28.4011 168.628C28.2141 168.887 27.9579 169.08 27.6322 169.207C28.0061 169.321 28.3016 169.523 28.5187 169.813C28.7418 170.096 28.8533 170.44 28.8533 170.844C28.8533 171.236 28.7568 171.58 28.5639 171.875C28.3709 172.165 28.0965 172.391 27.7408 172.554C27.391 172.71 26.987 172.789 26.5287 172.789C26.0704 172.789 25.6664 172.71 25.3166 172.554C24.9729 172.391 24.7046 172.165 24.5116 171.875C24.3187 171.58 24.2222 171.236 24.2222 170.844C24.2222 170.44 24.3307 170.093 24.5478 169.804C24.7649 169.514 25.0604 169.315 25.4342 169.207ZM27.8855 167.805C27.8855 167.437 27.7649 167.154 27.5237 166.955C27.2825 166.756 26.9508 166.656 26.5287 166.656C26.1126 166.656 25.784 166.756 25.5428 166.955C25.3016 167.154 25.181 167.44 25.181 167.814C25.181 168.152 25.3046 168.423 25.5518 168.628C25.8051 168.833 26.1307 168.936 26.5287 168.936C26.9327 168.936 27.2584 168.833 27.5056 168.628C27.7589 168.417 27.8855 168.143 27.8855 167.805ZM26.5287 169.569C26.0825 169.569 25.7177 169.674 25.4342 169.885C25.1508 170.09 25.0091 170.401 25.0091 170.817C25.0091 171.203 25.1448 171.513 25.4161 171.749C25.6935 171.984 26.0644 172.101 26.5287 172.101C26.993 172.101 27.3609 171.984 27.6322 171.749C27.9036 171.513 28.0393 171.203 28.0393 170.817C28.0393 170.413 27.9006 170.105 27.6232 169.894C27.3458 169.677 26.981 169.569 26.5287 169.569Z" fill="#0F172A"/>
<path d="M22.5275 193.955V193.204H24.228V199.744H23.3958V193.955H22.5275ZM29.9323 193.919H26.7574V195.981C26.8961 195.788 27.1012 195.631 27.3725 195.51C27.6439 195.384 27.9363 195.321 28.2499 195.321C28.7504 195.321 29.1574 195.426 29.471 195.637C29.7846 195.842 30.0077 196.11 30.1404 196.442C30.279 196.768 30.3484 197.115 30.3484 197.482C30.3484 197.917 30.267 198.305 30.1042 198.649C29.9414 198.993 29.6911 199.264 29.3534 199.463C29.0218 199.662 28.6087 199.762 28.1142 199.762C27.4811 199.762 26.9685 199.599 26.5765 199.273C26.1846 198.948 25.9464 198.514 25.862 197.971H26.667C26.7454 198.315 26.9112 198.583 27.1645 198.776C27.4177 198.969 27.7373 199.065 28.1233 199.065C28.5997 199.065 28.9584 198.924 29.1997 198.64C29.4409 198.351 29.5615 197.971 29.5615 197.5C29.5615 197.03 29.4409 196.668 29.1997 196.415C28.9584 196.156 28.6027 196.026 28.1323 196.026C27.8127 196.026 27.5323 196.104 27.2911 196.261C27.0559 196.412 26.8841 196.62 26.7755 196.885H25.9976V193.195H29.9323V193.919Z" fill="#0F172A"/>
<path d="M21.7308 226.219C22.4967 225.604 23.0967 225.1 23.5308 224.709C23.965 224.311 24.3298 223.897 24.6253 223.469C24.9268 223.035 25.0776 222.61 25.0776 222.194C25.0776 221.802 24.9811 221.494 24.7881 221.271C24.6012 221.042 24.2967 220.928 23.8745 220.928C23.4645 220.928 23.1449 221.057 22.9158 221.317C22.6926 221.57 22.572 221.911 22.5539 222.339H21.758C21.7821 221.663 21.9871 221.142 22.373 220.774C22.759 220.406 23.2565 220.222 23.8655 220.222C24.4866 220.222 24.9781 220.394 25.3399 220.738C25.7077 221.081 25.8916 221.555 25.8916 222.158C25.8916 222.658 25.7409 223.147 25.4394 223.623C25.1439 224.093 24.8062 224.51 24.4263 224.871C24.0464 225.227 23.561 225.643 22.97 226.12H26.0816V226.807H21.7308V226.219ZM27.0542 226.219C27.82 225.604 28.42 225.1 28.8542 224.709C29.2884 224.311 29.6532 223.897 29.9487 223.469C30.2502 223.035 30.4009 222.61 30.4009 222.194C30.4009 221.802 30.3045 221.494 30.1115 221.271C29.9246 221.042 29.62 220.928 29.1979 220.928C28.7879 220.928 28.4683 221.057 28.2391 221.317C28.016 221.57 27.8954 221.911 27.8773 222.339H27.0813C27.1055 221.663 27.3105 221.142 27.6964 220.774C28.0823 220.406 28.5798 220.222 29.1889 220.222C29.81 220.222 30.3014 220.394 30.6632 220.738C31.0311 221.081 31.215 221.555 31.215 222.158C31.215 222.658 31.0643 223.147 30.7627 223.623C30.4673 224.093 30.1296 224.51 29.7497 224.871C29.3698 225.227 28.8844 225.643 28.2934 226.12H31.405V226.807H27.0542V226.219Z" fill="#0F172A"/>
<path d="M58.6737 112.077V118.336H57.8505V113.669L55.7701 118.336H55.1913L53.1018 113.66V118.336H52.2787V112.077H53.1651L55.4807 117.251L57.7963 112.077H58.6737Z" fill="#0F172A"/>
<path d="M53.3376 144.811C54.1034 144.196 54.7034 143.693 55.1376 143.301C55.5718 142.903 55.9366 142.49 56.2321 142.062C56.5336 141.627 56.6843 141.202 56.6843 140.786C56.6843 140.394 56.5878 140.087 56.3949 139.864C56.2079 139.634 55.9034 139.52 55.4813 139.52C55.0713 139.52 54.7517 139.65 54.5225 139.909C54.2994 140.162 54.1788 140.503 54.1607 140.931H53.3647C53.3888 140.256 53.5939 139.734 53.9798 139.366C54.3657 138.998 54.8632 138.814 55.4723 138.814C56.0934 138.814 56.5848 138.986 56.9466 139.33C57.3145 139.674 57.4984 140.147 57.4984 140.75C57.4984 141.251 57.3476 141.739 57.0461 142.215C56.7506 142.686 56.413 143.102 56.0331 143.464C55.6532 143.819 55.1677 144.235 54.5768 144.712H57.6883V145.399H53.3376V144.811Z" fill="#0F172A"/>
<path d="M54.248 170.853C54.3083 171.196 54.447 171.462 54.6641 171.649C54.8872 171.836 55.1857 171.929 55.5596 171.929C56.0601 171.929 56.4279 171.733 56.6631 171.341C56.9043 170.949 57.0189 170.289 57.0068 169.36C56.8802 169.632 56.6691 169.846 56.3737 170.002C56.0782 170.153 55.7495 170.229 55.3877 170.229C54.9837 170.229 54.6219 170.147 54.3023 169.984C53.9887 169.815 53.7415 169.571 53.5606 169.252C53.3797 168.932 53.2892 168.546 53.2892 168.094C53.2892 167.449 53.4762 166.93 53.8501 166.538C54.2239 166.14 54.7546 165.941 55.442 165.941C56.2862 165.941 56.8772 166.215 57.2149 166.764C57.5586 167.313 57.7305 168.13 57.7305 169.215C57.7305 169.975 57.6611 170.602 57.5224 171.097C57.3897 171.591 57.1606 171.968 56.835 172.228C56.5154 172.487 56.0752 172.616 55.5144 172.616C54.8993 172.616 54.4199 172.451 54.0762 172.119C53.7325 171.787 53.5365 171.365 53.4882 170.853H54.248ZM55.5234 169.532C55.9274 169.532 56.2591 169.408 56.5184 169.161C56.7777 168.908 56.9073 168.567 56.9073 168.139C56.9073 167.687 56.7807 167.322 56.5274 167.045C56.2742 166.767 55.9184 166.629 55.4601 166.629C55.038 166.629 54.7003 166.761 54.447 167.027C54.1998 167.292 54.0762 167.642 54.0762 168.076C54.0762 168.516 54.1998 168.869 54.447 169.134C54.6943 169.399 55.0531 169.532 55.5234 169.532Z" fill="#0F172A"/>
<path d="M51.4416 193.954V193.203H53.1421V199.743H52.31V193.954H51.4416ZM58.3218 194.759C58.1892 194.09 57.7761 193.755 57.0826 193.755C56.546 193.755 56.145 193.963 55.8796 194.379C55.6143 194.789 55.4847 195.468 55.4907 196.415C55.6294 196.101 55.8585 195.857 56.1781 195.682C56.5038 195.501 56.8656 195.411 57.2636 195.411C57.8847 195.411 58.3791 195.603 58.747 195.989C59.1208 196.375 59.3078 196.909 59.3078 197.59C59.3078 198 59.2264 198.368 59.0636 198.694C58.9068 199.02 58.6656 199.279 58.3399 199.472C58.0203 199.665 57.6314 199.761 57.1731 199.761C56.552 199.761 56.0666 199.623 55.7168 199.345C55.3671 199.068 55.1228 198.685 54.9842 198.196C54.8455 197.708 54.7761 197.105 54.7761 196.387C54.7761 194.174 55.548 193.068 57.0917 193.068C57.6826 193.068 58.147 193.228 58.4847 193.547C58.8223 193.867 59.0213 194.271 59.0816 194.759H58.3218ZM57.0917 196.107C56.8324 196.107 56.5882 196.161 56.359 196.27C56.1299 196.372 55.9429 196.532 55.7982 196.749C55.6595 196.96 55.5902 197.22 55.5902 197.527C55.5902 197.985 55.7228 198.359 55.9882 198.649C56.2535 198.932 56.6334 199.074 57.1279 199.074C57.55 199.074 57.8847 198.944 58.1319 198.685C58.3852 198.42 58.5118 198.064 58.5118 197.618C58.5118 197.147 58.3912 196.779 58.15 196.514C57.9088 196.243 57.556 196.107 57.0917 196.107Z" fill="#0F172A"/>
<path d="M49.9911 226.218C50.757 225.603 51.357 225.1 51.7911 224.708C52.2253 224.31 52.5901 223.897 52.8856 223.468C53.1871 223.034 53.3379 222.609 53.3379 222.193C53.3379 221.801 53.2414 221.493 53.0484 221.27C52.8615 221.041 52.557 220.927 52.1349 220.927C51.7248 220.927 51.4052 221.056 51.1761 221.316C50.9529 221.569 50.8323 221.91 50.8143 222.338H50.0183C50.0424 221.662 50.2474 221.141 50.6333 220.773C51.0193 220.405 51.5168 220.221 52.1258 220.221C52.7469 220.221 53.2384 220.393 53.6002 220.737C53.968 221.08 54.1519 221.554 54.1519 222.157C54.1519 222.657 54.0012 223.146 53.6997 223.622C53.4042 224.092 53.0665 224.509 52.6866 224.87C52.3067 225.226 51.8213 225.642 51.2303 226.119H54.3419V226.806H49.9911V226.218ZM55.3959 221.985C55.4381 221.43 55.6522 220.996 56.0381 220.682C56.4241 220.369 56.9246 220.212 57.5396 220.212C57.9497 220.212 58.3025 220.287 58.5979 220.438C58.8994 220.583 59.1256 220.782 59.2763 221.035C59.4331 221.288 59.5115 221.575 59.5115 221.894C59.5115 222.268 59.403 222.591 59.1859 222.862C58.9748 223.134 58.6974 223.309 58.3537 223.387V223.432C58.7457 223.529 59.0562 223.719 59.2854 224.002C59.5145 224.285 59.6291 224.656 59.6291 225.115C59.6291 225.458 59.5507 225.769 59.3939 226.046C59.2371 226.318 59.0019 226.532 58.6884 226.688C58.3748 226.845 57.9979 226.924 57.5577 226.924C56.9185 226.924 56.3939 226.758 55.9839 226.426C55.5738 226.088 55.3447 225.612 55.2964 224.997H56.0924C56.1346 225.359 56.2824 225.654 56.5356 225.883C56.7889 226.113 57.1266 226.227 57.5487 226.227C57.9708 226.227 58.2904 226.119 58.5075 225.902C58.7306 225.678 58.8422 225.392 58.8422 225.042C58.8422 224.59 58.6914 224.264 58.3899 224.065C58.0884 223.866 57.6331 223.767 57.0241 223.767H56.816V223.079H57.0331C57.5879 223.073 58.007 222.983 58.2904 222.808C58.5738 222.627 58.7155 222.35 58.7155 221.976C58.7155 221.656 58.61 221.4 58.3989 221.207C58.1939 221.014 57.8984 220.918 57.5125 220.918C57.1386 220.918 56.8371 221.014 56.608 221.207C56.3788 221.4 56.2432 221.659 56.2009 221.985H55.3959Z" fill="#0F172A"/>
<path d="M86.5523 112.032V112.701H84.8337V118.336H84.0106V112.701H82.283V112.032H86.5523Z" fill="#0F172A"/>
<path d="M82.3017 140.579C82.3439 140.024 82.558 139.59 82.9439 139.276C83.3299 138.963 83.8304 138.806 84.4455 138.806C84.8555 138.806 85.2083 138.881 85.5037 139.032C85.8053 139.177 86.0314 139.376 86.1821 139.629C86.3389 139.882 86.4173 140.169 86.4173 140.488C86.4173 140.862 86.3088 141.185 86.0917 141.456C85.8806 141.727 85.6032 141.902 85.2595 141.981V142.026C85.6515 142.122 85.962 142.312 86.1912 142.596C86.4203 142.879 86.5349 143.25 86.5349 143.708C86.5349 144.052 86.4565 144.363 86.2997 144.64C86.1429 144.911 85.9078 145.125 85.5942 145.282C85.2806 145.439 84.9037 145.517 84.4635 145.517C83.8243 145.517 83.2997 145.352 82.8897 145.02C82.4796 144.682 82.2505 144.206 82.2022 143.591H82.9982C83.0404 143.953 83.1882 144.248 83.4414 144.477C83.6947 144.706 84.0324 144.821 84.4545 144.821C84.8766 144.821 85.1962 144.712 85.4133 144.495C85.6364 144.272 85.748 143.986 85.748 143.636C85.748 143.184 85.5972 142.858 85.2957 142.659C84.9942 142.46 84.5389 142.361 83.9299 142.361H83.7218V141.673H83.9389C84.4937 141.667 84.9128 141.577 85.1962 141.402C85.4796 141.221 85.6213 140.944 85.6213 140.57C85.6213 140.25 85.5158 139.994 85.3048 139.801C85.0997 139.608 84.8042 139.511 84.4183 139.511C84.0444 139.511 83.7429 139.608 83.5138 139.801C83.2847 139.994 83.149 140.253 83.1068 140.579H82.3017Z" fill="#0F172A"/>
<path d="M80.4171 166.819V166.068H82.1176V172.608H81.2855V166.819H80.4171ZM83.6521 169.27C83.6521 168.233 83.821 167.425 84.1586 166.846C84.4963 166.261 85.0873 165.969 85.9315 165.969C86.7697 165.969 87.3576 166.261 87.6953 166.846C88.033 167.425 88.2019 168.233 88.2019 169.27C88.2019 170.325 88.033 171.146 87.6953 171.731C87.3576 172.315 86.7697 172.608 85.9315 172.608C85.0873 172.608 84.4963 172.315 84.1586 171.731C83.821 171.146 83.6521 170.325 83.6521 169.27ZM87.3878 169.27C87.3878 168.746 87.3516 168.302 87.2792 167.941C87.2129 167.573 87.0712 167.277 86.8541 167.054C86.6431 166.831 86.3355 166.719 85.9315 166.719C85.5215 166.719 85.2079 166.831 84.9908 167.054C84.7798 167.277 84.638 167.573 84.5657 167.941C84.4993 168.302 84.4662 168.746 84.4662 169.27C84.4662 169.813 84.4993 170.268 84.5657 170.636C84.638 171.004 84.7798 171.299 84.9908 171.522C85.2079 171.746 85.5215 171.857 85.9315 171.857C86.3355 171.857 86.6431 171.746 86.8541 171.522C87.0712 171.299 87.2129 171.004 87.2792 170.636C87.3516 170.268 87.3878 169.813 87.3878 169.27Z" fill="#0F172A"/>
<path d="M80.7881 193.955V193.204H82.4886V199.744H81.6565V193.955H80.7881ZM88.0482 193.846L85.5337 199.744H84.7015L87.2523 193.928H83.7608V193.222H88.0482V193.846Z" fill="#0F172A"/>
<path d="M79.3776 226.219C80.1434 225.604 80.7434 225.1 81.1776 224.709C81.6117 224.311 81.9766 223.897 82.272 223.469C82.5735 223.035 82.7243 222.61 82.7243 222.194C82.7243 221.802 82.6278 221.494 82.4348 221.271C82.2479 221.042 81.9434 220.928 81.5213 220.928C81.1112 220.928 80.7916 221.057 80.5625 221.317C80.3394 221.57 80.2188 221.911 80.2007 222.339H79.4047C79.4288 221.663 79.6338 221.142 80.0198 220.774C80.4057 220.406 80.9032 220.222 81.5122 220.222C82.1333 220.222 82.6248 220.394 82.9866 220.738C83.3544 221.081 83.5384 221.555 83.5384 222.158C83.5384 222.658 83.3876 223.147 83.0861 223.623C82.7906 224.093 82.4529 224.51 82.073 224.871C81.6931 225.227 81.2077 225.643 80.6168 226.12H83.7283V226.807H79.3776V226.219ZM84.6014 225.423V224.799L87.7763 220.403H88.7622V224.709H89.6668V225.423H88.7622V226.879H87.9482V225.423H84.6014ZM87.9844 221.262L85.5512 224.709H87.9844V221.262Z" fill="#0F172A"/>
<path d="M117.251 112.032L115.424 118.337H114.501L113.036 113.263L111.516 118.337L110.603 118.346L108.839 112.032H109.716L111.091 117.378L112.611 112.032H113.533L114.981 117.36L116.364 112.032H117.251Z" fill="#0F172A"/>
<path d="M110.267 144.016V143.392L113.441 138.996H114.427V143.302H115.332V144.016H114.427V145.473H113.613V144.016H110.267ZM113.649 139.856L111.216 143.302H113.649V139.856Z" fill="#0F172A"/>
<path d="M110.135 166.819V166.069H111.836V172.608H111.003V166.819H110.135ZM113.153 166.819V166.069H114.854V172.608H114.021V166.819H113.153Z" fill="#0F172A"/>
<path d="M109.025 193.955V193.204H110.725V199.744H109.893V193.955H109.025ZM113.454 196.343C113.116 196.21 112.857 196.018 112.676 195.764C112.495 195.511 112.404 195.203 112.404 194.842C112.404 194.516 112.486 194.224 112.649 193.964C112.811 193.699 113.053 193.491 113.372 193.34C113.698 193.183 114.09 193.105 114.548 193.105C115.006 193.105 115.395 193.183 115.715 193.34C116.04 193.491 116.285 193.699 116.448 193.964C116.616 194.224 116.701 194.516 116.701 194.842C116.701 195.191 116.607 195.499 116.42 195.764C116.233 196.024 115.977 196.217 115.652 196.343C116.025 196.458 116.321 196.66 116.538 196.949C116.761 197.233 116.873 197.576 116.873 197.98C116.873 198.372 116.776 198.716 116.583 199.011C116.39 199.301 116.116 199.527 115.76 199.69C115.41 199.847 115.006 199.925 114.548 199.925C114.09 199.925 113.686 199.847 113.336 199.69C112.992 199.527 112.724 199.301 112.531 199.011C112.338 198.716 112.242 198.372 112.242 197.98C112.242 197.576 112.35 197.23 112.567 196.94C112.784 196.651 113.08 196.452 113.454 196.343ZM115.905 194.941C115.905 194.573 115.784 194.29 115.543 194.091C115.302 193.892 114.97 193.792 114.548 193.792C114.132 193.792 113.803 193.892 113.562 194.091C113.321 194.29 113.2 194.576 113.2 194.95C113.2 195.288 113.324 195.559 113.571 195.764C113.824 195.969 114.15 196.072 114.548 196.072C114.952 196.072 115.278 195.969 115.525 195.764C115.778 195.553 115.905 195.279 115.905 194.941ZM114.548 196.705C114.102 196.705 113.737 196.81 113.454 197.022C113.17 197.227 113.028 197.537 113.028 197.953C113.028 198.339 113.164 198.65 113.435 198.885C113.713 199.12 114.084 199.238 114.548 199.238C115.012 199.238 115.38 199.12 115.652 198.885C115.923 198.65 116.059 198.339 116.059 197.953C116.059 197.549 115.92 197.242 115.643 197.031C115.365 196.813 115 196.705 114.548 196.705Z" fill="#0F172A"/>
<path d="M107.297 226.22C108.062 225.605 108.662 225.101 109.097 224.709C109.531 224.311 109.896 223.898 110.191 223.47C110.493 223.036 110.643 222.611 110.643 222.194C110.643 221.802 110.547 221.495 110.354 221.272C110.167 221.043 109.862 220.928 109.44 220.928C109.03 220.928 108.711 221.058 108.482 221.317C108.258 221.57 108.138 221.911 108.12 222.339H107.324C107.348 221.664 107.553 221.142 107.939 220.774C108.325 220.407 108.822 220.223 109.431 220.223C110.052 220.223 110.544 220.394 110.906 220.738C111.274 221.082 111.457 221.555 111.457 222.158C111.457 222.659 111.307 223.147 111.005 223.624C110.71 224.094 110.372 224.51 109.992 224.872C109.612 225.228 109.127 225.644 108.536 226.12H111.647V226.808H107.297V226.22ZM116.889 221.055H113.714V223.117C113.853 222.924 114.058 222.767 114.33 222.647C114.601 222.52 114.893 222.457 115.207 222.457C115.707 222.457 116.114 222.562 116.428 222.773C116.742 222.978 116.965 223.247 117.097 223.578C117.236 223.904 117.305 224.251 117.305 224.619C117.305 225.053 117.224 225.442 117.061 225.785C116.898 226.129 116.648 226.4 116.31 226.599C115.979 226.798 115.566 226.898 115.071 226.898C114.438 226.898 113.926 226.735 113.534 226.41C113.142 226.084 112.903 225.65 112.819 225.107H113.624C113.702 225.451 113.868 225.719 114.122 225.912C114.375 226.105 114.694 226.201 115.08 226.201C115.557 226.201 115.916 226.06 116.157 225.776C116.398 225.487 116.519 225.107 116.519 224.637C116.519 224.166 116.398 223.805 116.157 223.551C115.916 223.292 115.56 223.162 115.089 223.162C114.77 223.162 114.489 223.241 114.248 223.397C114.013 223.548 113.841 223.756 113.733 224.022H112.955V220.331H116.889V221.055Z" fill="#0F172A"/>
<path d="M142.628 112.032V112.702H140.909V118.337H140.086V112.702H138.359V112.032H142.628Z" fill="#0F172A"/>
<path d="M142.981 139.648H139.806V141.71C139.945 141.517 140.15 141.36 140.421 141.239C140.693 141.113 140.985 141.05 141.299 141.05C141.799 141.05 142.206 141.155 142.52 141.366C142.833 141.571 143.056 141.839 143.189 142.171C143.328 142.497 143.397 142.844 143.397 143.211C143.397 143.646 143.316 144.034 143.153 144.378C142.99 144.722 142.74 144.993 142.402 145.192C142.071 145.391 141.657 145.491 141.163 145.491C140.53 145.491 140.017 145.328 139.625 145.002C139.233 144.677 138.995 144.243 138.911 143.7H139.716C139.794 144.044 139.96 144.312 140.213 144.505C140.467 144.698 140.786 144.794 141.172 144.794C141.648 144.794 142.007 144.653 142.248 144.369C142.49 144.08 142.61 143.7 142.61 143.229C142.61 142.759 142.49 142.397 142.248 142.144C142.007 141.885 141.651 141.755 141.181 141.755C140.862 141.755 140.581 141.833 140.34 141.99C140.105 142.141 139.933 142.349 139.824 142.614H139.046V138.924H142.981V139.648Z" fill="#0F172A"/>
<path d="M137.618 166.819V166.069H139.318V172.608H138.486V166.819H137.618ZM140.753 171.948C141.519 171.333 142.119 170.83 142.553 170.438C142.988 170.04 143.352 169.626 143.648 169.198C143.949 168.764 144.1 168.339 144.1 167.923C144.1 167.531 144.004 167.223 143.811 167C143.624 166.771 143.319 166.657 142.897 166.657C142.487 166.657 142.167 166.786 141.938 167.046C141.715 167.299 141.595 167.64 141.577 168.068H140.781C140.805 167.392 141.01 166.871 141.396 166.503C141.782 166.135 142.279 165.951 142.888 165.951C143.509 165.951 144.001 166.123 144.362 166.467C144.73 166.81 144.914 167.284 144.914 167.887C144.914 168.387 144.763 168.876 144.462 169.352C144.166 169.822 143.829 170.239 143.449 170.6C143.069 170.956 142.584 171.372 141.993 171.849H145.104V172.536H140.753V171.948Z" fill="#0F172A"/>
<path d="M137.371 193.955V193.204H139.071V199.744H138.239V193.955H137.371ZM141.664 197.989C141.724 198.333 141.863 198.598 142.08 198.785C142.303 198.972 142.602 199.066 142.975 199.066C143.476 199.066 143.844 198.87 144.079 198.478C144.32 198.086 144.435 197.426 144.423 196.497C144.296 196.768 144.085 196.982 143.789 197.139C143.494 197.29 143.165 197.365 142.804 197.365C142.4 197.365 142.038 197.284 141.718 197.121C141.405 196.952 141.157 196.708 140.976 196.388C140.796 196.069 140.705 195.683 140.705 195.231C140.705 194.585 140.892 194.067 141.266 193.675C141.64 193.277 142.17 193.078 142.858 193.078C143.702 193.078 144.293 193.352 144.631 193.901C144.974 194.45 145.146 195.267 145.146 196.352C145.146 197.112 145.077 197.739 144.938 198.234C144.806 198.728 144.576 199.105 144.251 199.364C143.931 199.624 143.491 199.753 142.93 199.753C142.315 199.753 141.836 199.587 141.492 199.256C141.148 198.924 140.952 198.502 140.904 197.989H141.664ZM142.939 196.669C143.343 196.669 143.675 196.545 143.934 196.298C144.194 196.045 144.323 195.704 144.323 195.276C144.323 194.824 144.197 194.459 143.943 194.181C143.69 193.904 143.334 193.765 142.876 193.765C142.454 193.765 142.116 193.898 141.863 194.163C141.616 194.429 141.492 194.778 141.492 195.212C141.492 195.653 141.616 196.005 141.863 196.271C142.11 196.536 142.469 196.669 142.939 196.669Z" fill="#0F172A"/>
<path d="M135.607 226.22C136.373 225.605 136.973 225.101 137.407 224.709C137.841 224.311 138.206 223.898 138.502 223.47C138.803 223.036 138.954 222.611 138.954 222.194C138.954 221.802 138.858 221.495 138.665 221.272C138.478 221.043 138.173 220.928 137.751 220.928C137.341 220.928 137.021 221.058 136.792 221.317C136.569 221.57 136.448 221.911 136.43 222.339H135.634C135.659 221.664 135.864 221.142 136.249 220.774C136.635 220.407 137.133 220.223 137.742 220.223C138.363 220.223 138.855 220.394 139.216 220.738C139.584 221.082 139.768 221.555 139.768 222.158C139.768 222.659 139.617 223.147 139.316 223.624C139.02 224.094 138.683 224.51 138.303 224.872C137.923 225.228 137.437 225.644 136.846 226.12H139.958V226.808H135.607V226.22ZM144.675 221.896C144.543 221.227 144.13 220.892 143.436 220.892C142.9 220.892 142.499 221.1 142.233 221.516C141.968 221.926 141.838 222.605 141.844 223.551C141.983 223.238 142.212 222.993 142.532 222.819C142.857 222.638 143.219 222.547 143.617 222.547C144.238 222.547 144.733 222.74 145.101 223.126C145.474 223.512 145.661 224.046 145.661 224.727C145.661 225.137 145.58 225.505 145.417 225.831C145.26 226.156 145.019 226.416 144.693 226.609C144.374 226.801 143.985 226.898 143.527 226.898C142.906 226.898 142.42 226.759 142.07 226.482C141.721 226.205 141.476 225.822 141.338 225.333C141.199 224.845 141.13 224.242 141.13 223.524C141.13 221.311 141.902 220.205 143.445 220.205C144.036 220.205 144.501 220.364 144.838 220.684C145.176 221.004 145.375 221.408 145.435 221.896H144.675ZM143.445 223.244C143.186 223.244 142.942 223.298 142.713 223.407C142.483 223.509 142.296 223.669 142.152 223.886C142.013 224.097 141.944 224.356 141.944 224.664C141.944 225.122 142.076 225.496 142.342 225.785C142.607 226.069 142.987 226.211 143.481 226.211C143.904 226.211 144.238 226.081 144.485 225.822C144.739 225.556 144.865 225.2 144.865 224.754C144.865 224.284 144.745 223.916 144.504 223.651C144.262 223.379 143.91 223.244 143.445 223.244Z" fill="#0F172A"/>
<circle cx="198.995" cy="142.312" r="12.0603" fill="#008CE4"/>
<path d="M172.12 112.032V112.702H169.379V114.827H171.604V115.497H169.379V118.337H168.556V112.032H172.12Z" fill="#0F172A"/>
<path d="M171.37 140.489C171.238 139.819 170.825 139.485 170.131 139.485C169.595 139.485 169.194 139.693 168.928 140.109C168.663 140.519 168.533 141.197 168.539 142.144C168.678 141.83 168.907 141.586 169.227 141.411C169.552 141.23 169.914 141.14 170.312 141.14C170.933 141.14 171.428 141.333 171.796 141.719C172.169 142.105 172.356 142.638 172.356 143.32C172.356 143.73 172.275 144.098 172.112 144.423C171.955 144.749 171.714 145.008 171.388 145.201C171.069 145.394 170.68 145.491 170.222 145.491C169.601 145.491 169.115 145.352 168.765 145.075C168.416 144.797 168.171 144.414 168.033 143.926C167.894 143.437 167.825 142.834 167.825 142.117C167.825 139.904 168.597 138.797 170.14 138.797C170.731 138.797 171.196 138.957 171.533 139.277C171.871 139.596 172.07 140 172.13 140.489H171.37ZM170.14 141.836C169.881 141.836 169.637 141.891 169.408 141.999C169.178 142.102 168.991 142.262 168.847 142.479C168.708 142.69 168.639 142.949 168.639 143.257C168.639 143.715 168.771 144.089 169.037 144.378C169.302 144.662 169.682 144.803 170.176 144.803C170.599 144.803 170.933 144.674 171.18 144.414C171.434 144.149 171.56 143.793 171.56 143.347C171.56 142.877 171.44 142.509 171.199 142.244C170.957 141.972 170.605 141.836 170.14 141.836Z" fill="#0F172A"/>
<path d="M165.898 166.819V166.069H167.598V172.608H166.766V166.819H165.898ZM169.115 167.715C169.157 167.16 169.371 166.726 169.757 166.412C170.143 166.099 170.643 165.942 171.258 165.942C171.668 165.942 172.021 166.017 172.317 166.168C172.618 166.313 172.844 166.512 172.995 166.765C173.152 167.018 173.23 167.305 173.23 167.624C173.23 167.998 173.122 168.321 172.904 168.592C172.693 168.864 172.416 169.039 172.072 169.117V169.162C172.464 169.259 172.775 169.449 173.004 169.732C173.233 170.015 173.348 170.386 173.348 170.845C173.348 171.188 173.269 171.499 173.113 171.776C172.956 172.048 172.721 172.262 172.407 172.418C172.093 172.575 171.717 172.654 171.276 172.654C170.637 172.654 170.113 172.488 169.702 172.156C169.292 171.818 169.063 171.342 169.015 170.727H169.811C169.853 171.089 170.001 171.384 170.254 171.613C170.507 171.843 170.845 171.957 171.267 171.957C171.689 171.957 172.009 171.849 172.226 171.632C172.449 171.408 172.561 171.122 172.561 170.772C172.561 170.32 172.41 169.994 172.108 169.795C171.807 169.596 171.352 169.497 170.743 169.497H170.535V168.809H170.752C171.306 168.803 171.726 168.713 172.009 168.538C172.292 168.357 172.434 168.08 172.434 167.706C172.434 167.386 172.329 167.13 172.118 166.937C171.913 166.744 171.617 166.648 171.231 166.648C170.857 166.648 170.556 166.744 170.327 166.937C170.097 167.13 169.962 167.389 169.92 167.715H169.115Z" fill="#0F172A"/>
<path d="M164.583 199.084C165.349 198.469 165.949 197.965 166.383 197.573C166.817 197.175 167.182 196.762 167.477 196.334C167.779 195.9 167.93 195.475 167.93 195.059C167.93 194.667 167.833 194.359 167.64 194.136C167.453 193.907 167.149 193.792 166.727 193.792C166.317 193.792 165.997 193.922 165.768 194.181C165.545 194.435 165.424 194.775 165.406 195.203H164.61C164.634 194.528 164.839 194.006 165.225 193.639C165.611 193.271 166.109 193.087 166.718 193.087C167.339 193.087 167.83 193.259 168.192 193.602C168.56 193.946 168.744 194.42 168.744 195.023C168.744 195.523 168.593 196.011 168.292 196.488C167.996 196.958 167.658 197.374 167.279 197.736C166.899 198.092 166.413 198.508 165.822 198.984H168.934V199.672H164.583V199.084ZM170.006 196.406C170.006 195.369 170.175 194.561 170.512 193.982C170.85 193.397 171.441 193.105 172.285 193.105C173.123 193.105 173.711 193.397 174.049 193.982C174.387 194.561 174.556 195.369 174.556 196.406C174.556 197.462 174.387 198.282 174.049 198.867C173.711 199.452 173.123 199.744 172.285 199.744C171.441 199.744 170.85 199.452 170.512 198.867C170.175 198.282 170.006 197.462 170.006 196.406ZM173.742 196.406C173.742 195.882 173.705 195.439 173.633 195.077C173.567 194.709 173.425 194.413 173.208 194.19C172.997 193.967 172.689 193.856 172.285 193.856C171.875 193.856 171.562 193.967 171.345 194.19C171.134 194.413 170.992 194.709 170.919 195.077C170.853 195.439 170.82 195.882 170.82 196.406C170.82 196.949 170.853 197.404 170.919 197.772C170.992 198.14 171.134 198.436 171.345 198.659C171.562 198.882 171.875 198.993 172.285 198.993C172.689 198.993 172.997 198.882 173.208 198.659C173.425 198.436 173.567 198.14 173.633 197.772C173.705 197.404 173.742 196.949 173.742 196.406Z" fill="#0F172A"/>
<path d="M164.851 226.22C165.617 225.605 166.217 225.101 166.651 224.709C167.085 224.311 167.45 223.898 167.745 223.47C168.047 223.036 168.198 222.611 168.198 222.194C168.198 221.802 168.101 221.495 167.908 221.272C167.721 221.043 167.417 220.928 166.995 220.928C166.585 220.928 166.265 221.058 166.036 221.317C165.813 221.57 165.692 221.911 165.674 222.339H164.878C164.902 221.664 165.107 221.142 165.493 220.774C165.879 220.407 166.377 220.223 166.986 220.223C167.607 220.223 168.098 220.394 168.46 220.738C168.828 221.082 169.012 221.555 169.012 222.158C169.012 222.659 168.861 223.147 168.56 223.624C168.264 224.094 167.926 224.51 167.546 224.872C167.167 225.228 166.681 225.644 166.09 226.12H169.202V226.808H164.851V226.22ZM174.299 220.982L171.784 226.88H170.952L173.503 221.064H170.012V220.358H174.299V220.982Z" fill="#0F172A"/>
<path d="M197.325 118.4C196.909 118.4 196.535 118.328 196.204 118.183C195.878 118.032 195.622 117.827 195.435 117.568C195.248 117.303 195.151 116.998 195.145 116.655H196.023C196.053 116.95 196.174 117.2 196.385 117.405C196.602 117.604 196.915 117.704 197.325 117.704C197.717 117.704 198.025 117.607 198.248 117.414C198.477 117.215 198.592 116.962 198.592 116.655C198.592 116.413 198.525 116.217 198.393 116.067C198.26 115.916 198.094 115.801 197.895 115.723C197.696 115.644 197.428 115.56 197.09 115.47C196.674 115.361 196.339 115.252 196.086 115.144C195.839 115.035 195.625 114.867 195.444 114.637C195.269 114.402 195.182 114.089 195.182 113.697C195.182 113.353 195.269 113.048 195.444 112.783C195.619 112.518 195.863 112.313 196.177 112.168C196.496 112.023 196.861 111.951 197.271 111.951C197.862 111.951 198.344 112.099 198.718 112.394C199.098 112.69 199.312 113.082 199.36 113.57H198.456C198.426 113.329 198.299 113.118 198.076 112.937C197.853 112.75 197.557 112.657 197.19 112.657C196.846 112.657 196.565 112.747 196.348 112.928C196.131 113.103 196.023 113.35 196.023 113.67C196.023 113.899 196.086 114.086 196.213 114.23C196.345 114.375 196.505 114.487 196.692 114.565C196.885 114.637 197.153 114.722 197.497 114.818C197.913 114.933 198.248 115.047 198.501 115.162C198.754 115.271 198.972 115.442 199.152 115.678C199.333 115.907 199.424 116.22 199.424 116.618C199.424 116.926 199.342 117.215 199.18 117.487C199.017 117.758 198.776 117.978 198.456 118.147C198.136 118.316 197.759 118.4 197.325 118.4Z" fill="#0F172A"/>
<path d="M199.901 139.575L197.387 145.473H196.554L199.105 139.657H195.614V138.951H199.901V139.575Z" fill="#F7FCFF"/>
<path d="M194.661 166.819V166.069H196.362V172.608H195.53V166.819H194.661ZM197.697 171.152V170.528L200.872 166.132H201.858V170.438H202.763V171.152H201.858V172.608H201.044V171.152H197.697ZM201.08 166.991L198.647 170.438H201.08V166.991Z" fill="#0F172A"/>
<path d="M195.022 199.084C195.788 198.469 196.388 197.965 196.822 197.573C197.256 197.175 197.621 196.762 197.916 196.334C198.218 195.9 198.369 195.475 198.369 195.059C198.369 194.667 198.272 194.359 198.079 194.136C197.892 193.907 197.588 193.792 197.166 193.792C196.756 193.792 196.436 193.922 196.207 194.181C195.984 194.435 195.863 194.775 195.845 195.203H195.049C195.073 194.528 195.278 194.006 195.664 193.639C196.05 193.271 196.547 193.087 197.157 193.087C197.778 193.087 198.269 193.259 198.631 193.602C198.999 193.946 199.183 194.42 199.183 195.023C199.183 195.523 199.032 196.011 198.73 196.488C198.435 196.958 198.097 197.374 197.717 197.736C197.337 198.092 196.852 198.508 196.261 198.984H199.373V199.672H195.022V199.084ZM200.228 193.955V193.204H201.928V199.744H201.096V193.955H200.228Z" fill="#0F172A"/>
<path d="M192.911 226.22C193.677 225.605 194.277 225.101 194.711 224.709C195.146 224.311 195.51 223.898 195.806 223.47C196.107 223.036 196.258 222.611 196.258 222.194C196.258 221.802 196.162 221.495 195.969 221.272C195.782 221.043 195.477 220.928 195.055 220.928C194.645 220.928 194.325 221.058 194.096 221.317C193.873 221.57 193.753 221.911 193.734 222.339H192.938C192.963 221.664 193.168 221.142 193.554 220.774C193.939 220.407 194.437 220.223 195.046 220.223C195.667 220.223 196.159 220.394 196.52 220.738C196.888 221.082 197.072 221.555 197.072 222.158C197.072 222.659 196.921 223.147 196.62 223.624C196.324 224.094 195.987 224.51 195.607 224.872C195.227 225.228 194.741 225.644 194.151 226.12H197.262V226.808H192.911V226.22ZM199.528 223.479C199.19 223.346 198.931 223.153 198.75 222.9C198.569 222.647 198.479 222.339 198.479 221.977C198.479 221.652 198.56 221.359 198.723 221.1C198.886 220.835 199.127 220.627 199.447 220.476C199.772 220.319 200.164 220.241 200.623 220.241C201.081 220.241 201.47 220.319 201.789 220.476C202.115 220.627 202.359 220.835 202.522 221.1C202.691 221.359 202.775 221.652 202.775 221.977C202.775 222.327 202.682 222.635 202.495 222.9C202.308 223.159 202.052 223.352 201.726 223.479C202.1 223.593 202.396 223.795 202.613 224.085C202.836 224.368 202.947 224.712 202.947 225.116C202.947 225.508 202.851 225.852 202.658 226.147C202.465 226.437 202.19 226.663 201.835 226.826C201.485 226.982 201.081 227.061 200.623 227.061C200.164 227.061 199.76 226.982 199.411 226.826C199.067 226.663 198.799 226.437 198.606 226.147C198.413 225.852 198.316 225.508 198.316 225.116C198.316 224.712 198.425 224.365 198.642 224.076C198.859 223.786 199.154 223.587 199.528 223.479ZM201.979 222.077C201.979 221.709 201.859 221.426 201.618 221.227C201.376 221.028 201.045 220.928 200.623 220.928C200.207 220.928 199.878 221.028 199.637 221.227C199.396 221.426 199.275 221.712 199.275 222.086C199.275 222.424 199.399 222.695 199.646 222.9C199.899 223.105 200.225 223.208 200.623 223.208C201.027 223.208 201.352 223.105 201.6 222.9C201.853 222.689 201.979 222.415 201.979 222.077ZM200.623 223.841C200.176 223.841 199.812 223.946 199.528 224.157C199.245 224.362 199.103 224.673 199.103 225.089C199.103 225.475 199.239 225.785 199.51 226.021C199.787 226.256 200.158 226.373 200.623 226.373C201.087 226.373 201.455 226.256 201.726 226.021C201.998 225.785 202.133 225.475 202.133 225.089C202.133 224.685 201.995 224.377 201.717 224.166C201.44 223.949 201.075 223.841 200.623 223.841Z" fill="#0F172A"/>
<path d="M19.6864 83.7147H16.7033L16.1907 85.1704H14.9708L17.5234 78.0355H18.8765L21.4291 85.1704H20.1989L19.6864 83.7147ZM19.3583 82.7614L18.1999 79.4502L17.0313 82.7614H19.3583ZM27.6543 79.522V85.1704H26.4857V84.5041C26.3012 84.7364 26.0586 84.921 25.7578 85.0576C25.464 85.1875 25.1496 85.2524 24.8147 85.2524C24.3705 85.2524 23.9707 85.1602 23.6153 84.9756C23.2668 84.7911 22.99 84.5177 22.785 84.1555C22.5868 83.7933 22.4877 83.3559 22.4877 82.8434V79.522H23.6461V82.6691C23.6461 83.1748 23.7725 83.5644 24.0254 83.8377C24.2783 84.1043 24.6234 84.2375 25.0608 84.2375C25.4982 84.2375 25.8433 84.1043 26.0961 83.8377C26.3558 83.5644 26.4857 83.1748 26.4857 82.6691V79.522H27.6543ZM31.472 79.4297C31.9094 79.4297 32.2956 79.5186 32.6304 79.6962C32.9721 79.8671 33.2387 80.0824 33.43 80.3421V79.522H34.6089V85.2627C34.6089 85.7821 34.4996 86.2434 34.2809 86.6466C34.0622 87.0566 33.7444 87.3778 33.3275 87.6102C32.9175 87.8426 32.4254 87.9588 31.8513 87.9588C31.0859 87.9588 30.4503 87.7776 29.9446 87.4154C29.4389 87.0601 29.1518 86.5748 29.0835 85.9598H30.2419C30.3307 86.2536 30.5187 86.4894 30.8057 86.6671C31.0996 86.8516 31.4481 86.9439 31.8513 86.9439C32.3229 86.9439 32.7022 86.8004 32.9892 86.5133C33.2831 86.2263 33.43 85.8094 33.43 85.2627V84.3196C33.2318 84.5861 32.9619 84.8116 32.6202 84.9961C32.2853 85.1738 31.9026 85.2627 31.472 85.2627C30.98 85.2627 30.5289 85.1397 30.1189 84.8936C29.7157 84.6408 29.3945 84.2922 29.1553 83.848C28.9229 83.3969 28.8067 82.8878 28.8067 82.3206C28.8067 81.7533 28.9229 81.251 29.1553 80.8136C29.3945 80.3762 29.7157 80.0379 30.1189 79.7988C30.5289 79.5527 30.98 79.4297 31.472 79.4297ZM33.43 82.3411C33.43 81.9515 33.348 81.6132 33.184 81.3262C33.0268 81.0392 32.8184 80.8205 32.5587 80.6701C32.299 80.5198 32.0188 80.4446 31.7181 80.4446C31.4174 80.4446 31.1372 80.5198 30.8775 80.6701C30.6178 80.8136 30.4059 81.0289 30.2419 81.3159C30.0847 81.5961 30.0061 81.931 30.0061 82.3206C30.0061 82.7101 30.0847 83.0518 30.2419 83.3457C30.4059 83.6396 30.6178 83.8651 30.8775 84.0223C31.144 84.1726 31.4242 84.2478 31.7181 84.2478C32.0188 84.2478 32.299 84.1726 32.5587 84.0223C32.8184 83.8719 33.0268 83.6532 33.184 83.3662C33.348 83.0723 33.43 82.7306 33.43 82.3411ZM41.2593 79.522V85.1704H40.0906V84.5041C39.9061 84.7364 39.6635 84.921 39.3628 85.0576C39.0689 85.1875 38.7545 85.2524 38.4197 85.2524C37.9755 85.2524 37.5757 85.1602 37.2203 84.9756C36.8717 84.7911 36.5949 84.5177 36.3899 84.1555C36.1917 83.7933 36.0926 83.3559 36.0926 82.8434V79.522H37.251V82.6691C37.251 83.1748 37.3775 83.5644 37.6303 83.8377C37.8832 84.1043 38.2283 84.2375 38.6657 84.2375C39.1031 84.2375 39.4482 84.1043 39.7011 83.8377C39.9608 83.5644 40.0906 83.1748 40.0906 82.6691V79.522H41.2593ZM44.8515 85.2627C44.4072 85.2627 44.0074 85.1841 43.6521 85.0269C43.3035 84.8629 43.0267 84.6442 42.8217 84.3708C42.6167 84.0906 42.5073 83.7797 42.4937 83.4379H43.7033C43.7238 83.6771 43.8366 83.8788 44.0416 84.0428C44.2535 84.2 44.5166 84.2786 44.831 84.2786C45.159 84.2786 45.4119 84.217 45.5895 84.094C45.7741 83.9642 45.8663 83.8002 45.8663 83.602C45.8663 83.3901 45.7638 83.2329 45.5588 83.1304C45.3606 83.0279 45.0428 82.9151 44.6054 82.7921C44.1817 82.6759 43.8366 82.5632 43.57 82.4538C43.3035 82.3445 43.0712 82.177 42.873 81.9515C42.6816 81.726 42.5859 81.4287 42.5859 81.0597C42.5859 80.759 42.6748 80.4856 42.8525 80.2396C43.0301 79.9867 43.283 79.7885 43.6111 79.645C43.9459 79.5015 44.3286 79.4297 44.7592 79.4297C45.4016 79.4297 45.9176 79.5937 46.3071 79.9218C46.7035 80.243 46.9154 80.6838 46.9427 81.2442H45.7741C45.7536 80.9913 45.6511 80.7897 45.4665 80.6394C45.282 80.489 45.0326 80.4138 44.7182 80.4138C44.4107 80.4138 44.1749 80.4719 44.0109 80.5881C43.8468 80.7043 43.7648 80.858 43.7648 81.0494C43.7648 81.1998 43.8195 81.3262 43.9288 81.4287C44.0382 81.5312 44.1715 81.6132 44.3286 81.6747C44.4858 81.7294 44.7182 81.8012 45.0257 81.89C45.4358 81.9994 45.7707 82.1121 46.0304 82.2283C46.2969 82.3376 46.5258 82.5017 46.7172 82.7204C46.9085 82.9391 47.0076 83.2295 47.0145 83.5917C47.0145 83.9129 46.9256 84.2 46.7479 84.4528C46.5702 84.7057 46.3174 84.9039 45.9893 85.0474C45.6681 85.1909 45.2888 85.2627 44.8515 85.2627ZM49.6406 80.4753V83.602C49.6406 83.8138 49.6885 83.9676 49.7842 84.0633C49.8867 84.1521 50.0575 84.1965 50.2967 84.1965H51.0143V85.1704H50.0917C49.5655 85.1704 49.1622 85.0474 48.882 84.8014C48.6018 84.5553 48.4617 84.1555 48.4617 83.602V80.4753H47.7954V79.522H48.4617V78.1175H49.6406V79.522H51.0143V80.4753H49.6406Z" fill="#0F172A"/>
<path d="M190.452 81.7622C190.358 81.668 190.305 81.5402 190.305 81.4069C190.305 81.2737 190.358 81.1459 190.452 81.0516L192.756 78.7471C192.848 78.6523 192.899 78.5254 192.897 78.3937C192.896 78.2619 192.844 78.1359 192.75 78.0427C192.657 77.9495 192.531 77.8967 192.399 77.8955C192.268 77.8944 192.141 77.945 192.046 78.0366L189.743 80.3411C189.461 80.6238 189.302 81.0072 189.302 81.4069C189.302 81.8067 189.461 82.19 189.743 82.4727L192.048 84.7773C192.143 84.8688 192.27 84.9195 192.401 84.9183C192.533 84.9172 192.659 84.8643 192.752 84.7712C192.846 84.678 192.898 84.5519 192.9 84.4202C192.901 84.2884 192.85 84.1615 192.758 84.0667L190.452 81.7622Z" fill="#64748B"/>
<path d="M207.337 80.341L205.031 78.0365C204.935 77.95 204.81 77.9036 204.681 77.9069C204.552 77.9102 204.429 77.963 204.338 78.0543C204.247 78.1456 204.194 78.2685 204.191 78.3974C204.188 78.5264 204.235 78.6516 204.322 78.7471L206.626 81.0516C206.72 81.1458 206.773 81.2736 206.773 81.4069C206.773 81.5401 206.72 81.6679 206.626 81.7621L204.322 84.0667C204.227 84.161 204.175 84.2888 204.175 84.4221C204.175 84.5554 204.228 84.6832 204.322 84.7775C204.416 84.8717 204.544 84.9246 204.677 84.9246C204.811 84.9245 204.938 84.8715 205.033 84.7772L207.337 82.4727C207.619 82.19 207.778 81.8066 207.778 81.4069C207.778 81.0071 207.619 80.6237 207.337 80.341Z" fill="#64748B"/>
<path d="M18.1387 53.8984C17.5759 53.8984 17.0694 53.8019 16.6191 53.6089C16.1689 53.4079 15.8151 53.1265 15.5578 52.7647C15.3006 52.4029 15.1719 51.9808 15.1719 51.4984H16.6433C16.6754 51.8602 16.8161 52.1577 17.0654 52.3908C17.3227 52.624 17.6805 52.7406 18.1387 52.7406C18.6131 52.7406 18.983 52.628 19.2483 52.4029C19.5136 52.1697 19.6463 51.8723 19.6463 51.5104C19.6463 51.229 19.5619 50.9999 19.393 50.823C19.2322 50.6461 19.0272 50.5094 18.7779 50.413C18.5367 50.3165 18.199 50.212 17.7649 50.0994C17.2181 49.9547 16.7719 49.8099 16.4262 49.6652C16.0885 49.5125 15.799 49.2793 15.5578 48.9657C15.3166 48.6522 15.196 48.2341 15.196 47.7115C15.196 47.229 15.3166 46.8069 15.5578 46.4451C15.799 46.0833 16.1367 45.8059 16.5709 45.613C17.0051 45.42 17.5076 45.3235 18.0784 45.3235C18.8905 45.3235 19.5538 45.5285 20.0684 45.9386C20.591 46.3406 20.8805 46.8954 20.9367 47.6029H19.4171C19.393 47.2974 19.2483 47.0361 18.983 46.819C18.7176 46.6019 18.3679 46.4934 17.9337 46.4934C17.5397 46.4934 17.2181 46.5939 16.9689 46.7949C16.7196 46.9959 16.595 47.2853 16.595 47.6632C16.595 47.9205 16.6714 48.1336 16.8242 48.3024C16.985 48.4632 17.186 48.5919 17.4272 48.6883C17.6684 48.7848 17.998 48.8893 18.4161 49.0019C18.9709 49.1547 19.4212 49.3074 19.7669 49.4602C20.1207 49.613 20.4181 49.8501 20.6593 50.1718C20.9086 50.4853 21.0332 50.9074 21.0332 51.4381C21.0332 51.8642 20.9166 52.2662 20.6835 52.6441C20.4583 53.022 20.1247 53.3275 19.6825 53.5607C19.2483 53.7858 18.7337 53.8984 18.1387 53.8984ZM22.1972 50.4853C22.1972 49.8019 22.3339 49.2029 22.6073 48.6883C22.8887 48.1657 23.2746 47.7637 23.7651 47.4823C24.2555 47.2009 24.8183 47.0602 25.4535 47.0602C26.2575 47.0602 26.9208 47.2532 27.4435 47.6391C27.9741 48.017 28.3319 48.5597 28.5168 49.2672H27.0334C26.9128 48.9376 26.7198 48.6803 26.4545 48.4954C26.1892 48.3104 25.8555 48.218 25.4535 48.218C24.8907 48.218 24.4404 48.419 24.1028 48.821C23.7731 49.215 23.6083 49.7697 23.6083 50.4853C23.6083 51.2009 23.7731 51.7597 24.1028 52.1617C24.4404 52.5637 24.8907 52.7647 25.4535 52.7647C26.2495 52.7647 26.7761 52.415 27.0334 51.7155H28.5168C28.3239 52.3908 27.962 52.9295 27.4314 53.3316C26.9007 53.7255 26.2414 53.9225 25.4535 53.9225C24.8183 53.9225 24.2555 53.7818 23.7651 53.5004C23.2746 53.2109 22.8887 52.8089 22.6073 52.2944C22.3339 51.7718 22.1972 51.1687 22.1972 50.4853ZM33.3242 47.0602C33.8307 47.0602 34.281 47.1687 34.6749 47.3858C35.0769 47.6029 35.3905 47.9245 35.6156 48.3506C35.8488 48.7768 35.9654 49.2914 35.9654 49.8944V53.814H34.6026V50.0994C34.6026 49.5044 34.4538 49.0501 34.1563 48.7366C33.8588 48.415 33.4528 48.2542 32.9382 48.2542C32.4237 48.2542 32.0136 48.415 31.7081 48.7366C31.4106 49.0501 31.2619 49.5044 31.2619 50.0994V53.814H29.887V44.8893H31.2619V47.9406C31.495 47.6592 31.7885 47.4421 32.1423 47.2893C32.5041 47.1366 32.898 47.0602 33.3242 47.0602ZM43.8096 50.3285C43.8096 50.5778 43.7935 50.8029 43.7613 51.0039H38.6839C38.7241 51.5346 38.9211 51.9607 39.2749 52.2823C39.6287 52.6039 40.0628 52.7647 40.5774 52.7647C41.3171 52.7647 41.8397 52.4552 42.1452 51.8361H43.6287C43.4277 52.4471 43.0618 52.9496 42.5312 53.3436C42.0086 53.7295 41.3573 53.9225 40.5774 53.9225C39.9422 53.9225 39.3714 53.7818 38.8648 53.5004C38.3664 53.2109 37.9724 52.8089 37.6829 52.2944C37.4015 51.7718 37.2608 51.1687 37.2608 50.4853C37.2608 49.8019 37.3975 49.2029 37.6709 48.6883C37.9523 48.1657 38.3422 47.7637 38.8407 47.4823C39.3473 47.2009 39.9262 47.0602 40.5774 47.0602C41.2045 47.0602 41.7633 47.1969 42.2538 47.4702C42.7442 47.7436 43.1262 48.1295 43.3995 48.628C43.6729 49.1185 43.8096 49.6853 43.8096 50.3285ZM42.3744 49.8944C42.3664 49.3878 42.1854 48.9818 41.8317 48.6763C41.4779 48.3707 41.0397 48.218 40.5171 48.218C40.0427 48.218 39.6367 48.3707 39.299 48.6763C38.9613 48.9738 38.7603 49.3798 38.696 49.8944H42.3744ZM44.7043 50.4612C44.7043 49.7939 44.841 49.2029 45.1143 48.6883C45.3958 48.1738 45.7736 47.7758 46.248 47.4944C46.7304 47.2049 47.2651 47.0602 47.852 47.0602C48.2862 47.0602 48.7123 47.1567 49.1304 47.3496C49.5566 47.5346 49.8942 47.7838 50.1435 48.0974V44.8893H51.5304V53.814H50.1435V52.813C49.9184 53.1346 49.6048 53.3999 49.2028 53.6089C48.8088 53.818 48.3545 53.9225 47.84 53.9225C47.2611 53.9225 46.7304 53.7778 46.248 53.4883C45.7736 53.1908 45.3958 52.7808 45.1143 52.2582C44.841 51.7275 44.7043 51.1285 44.7043 50.4612ZM50.1435 50.4853C50.1435 50.027 50.047 49.629 49.854 49.2914C49.6691 48.9537 49.4239 48.6964 49.1184 48.5195C48.8128 48.3426 48.4832 48.2542 48.1294 48.2542C47.7757 48.2542 47.446 48.3426 47.1405 48.5195C46.8349 48.6883 46.5857 48.9416 46.3927 49.2793C46.2078 49.6089 46.1153 50.0029 46.1153 50.4612C46.1153 50.9195 46.2078 51.3215 46.3927 51.6672C46.5857 52.013 46.8349 52.2783 47.1405 52.4632C47.454 52.6401 47.7837 52.7285 48.1294 52.7285C48.4832 52.7285 48.8128 52.6401 49.1184 52.4632C49.4239 52.2863 49.6691 52.029 49.854 51.6914C50.047 51.3456 50.1435 50.9436 50.1435 50.4853ZM59.3544 47.1687V53.814H57.9795V53.03C57.7624 53.3034 57.477 53.5205 57.1232 53.6813C56.7775 53.8341 56.4076 53.9104 56.0137 53.9104C55.491 53.9104 55.0207 53.8019 54.6026 53.5848C54.1925 53.3677 53.8669 53.0461 53.6257 52.62C53.3925 52.1939 53.276 51.6793 53.276 51.0763V47.1687H54.6388V50.8713C54.6388 51.4662 54.7875 51.9245 55.085 52.2461C55.3825 52.5597 55.7885 52.7165 56.3031 52.7165C56.8177 52.7165 57.2237 52.5597 57.5212 52.2461C57.8267 51.9245 57.9795 51.4662 57.9795 50.8713V47.1687H59.3544ZM62.5433 44.8893V53.814H61.1684V44.8893H62.5433ZM70.4388 50.3285C70.4388 50.5778 70.4227 50.8029 70.3906 51.0039H65.3132C65.3534 51.5346 65.5504 51.9607 65.9041 52.2823C66.2579 52.6039 66.6921 52.7647 67.2067 52.7647C67.9463 52.7647 68.469 52.4552 68.7745 51.8361H70.2579C70.0569 52.4471 69.6911 52.9496 69.1604 53.3436C68.6378 53.7295 67.9866 53.9225 67.2067 53.9225C66.5715 53.9225 66.0006 53.7818 65.4941 53.5004C64.9956 53.2109 64.6016 52.8089 64.3122 52.2944C64.0308 51.7718 63.8901 51.1687 63.8901 50.4853C63.8901 49.8019 64.0268 49.2029 64.3001 48.6883C64.5815 48.1657 64.9715 47.7637 65.47 47.4823C65.9765 47.2009 66.5554 47.0602 67.2067 47.0602C67.8338 47.0602 68.3926 47.1969 68.883 47.4702C69.3735 47.7436 69.7554 48.1295 70.0288 48.628C70.3021 49.1185 70.4388 49.6853 70.4388 50.3285ZM69.0036 49.8944C68.9956 49.3878 68.8147 48.9818 68.4609 48.6763C68.1072 48.3707 67.669 48.218 67.1463 48.218C66.672 48.218 66.2659 48.3707 65.9283 48.6763C65.5906 48.9738 65.3896 49.3798 65.3252 49.8944H69.0036ZM71.3335 50.4612C71.3335 49.7939 71.4702 49.2029 71.7436 48.6883C72.025 48.1738 72.4029 47.7758 72.8773 47.4944C73.3597 47.2049 73.8943 47.0602 74.4813 47.0602C74.9154 47.0602 75.3416 47.1567 75.7597 47.3496C76.1858 47.5346 76.5235 47.7838 76.7727 48.0974V44.8893H78.1597V53.814H76.7727V52.813C76.5476 53.1346 76.234 53.3999 75.832 53.6089C75.4381 53.818 74.9838 53.9225 74.4692 53.9225C73.8903 53.9225 73.3597 53.7778 72.8773 53.4883C72.4029 53.1908 72.025 52.7808 71.7436 52.2582C71.4702 51.7275 71.3335 51.1285 71.3335 50.4612ZM76.7727 50.4853C76.7727 50.027 76.6763 49.629 76.4833 49.2914C76.2984 48.9537 76.0531 48.6964 75.7476 48.5195C75.4421 48.3426 75.1124 48.2542 74.7587 48.2542C74.4049 48.2542 74.0752 48.3426 73.7697 48.5195C73.4642 48.6883 73.2149 48.9416 73.022 49.2793C72.8371 49.6089 72.7446 50.0029 72.7446 50.4612C72.7446 50.9195 72.8371 51.3215 73.022 51.6672C73.2149 52.013 73.4642 52.2783 73.7697 52.4632C74.0833 52.6401 74.4129 52.7285 74.7587 52.7285C75.1124 52.7285 75.4421 52.6401 75.7476 52.4632C76.0531 52.2863 76.2984 52.029 76.4833 51.6914C76.6763 51.3456 76.7727 50.9436 76.7727 50.4853ZM82.6401 49.6049C82.6401 48.7848 82.829 48.0491 83.2069 47.3979C83.5928 46.7466 84.1114 46.2401 84.7627 45.8783C85.422 45.5084 86.1416 45.3235 86.9215 45.3235C87.8139 45.3235 88.6059 45.5446 89.2974 45.9868C89.9969 46.421 90.5034 47.0401 90.817 47.8441H89.1647C88.9476 47.4019 88.6461 47.0723 88.2602 46.8552C87.8742 46.6381 87.428 46.5295 86.9215 46.5295C86.3667 46.5295 85.8722 46.6542 85.4381 46.9034C85.0039 47.1527 84.6622 47.5104 84.4129 47.9768C84.1717 48.4431 84.0511 48.9858 84.0511 49.6049C84.0511 50.224 84.1717 50.7667 84.4129 51.2331C84.6622 51.6994 85.0039 52.0612 85.4381 52.3185C85.8722 52.5677 86.3667 52.6924 86.9215 52.6924C87.428 52.6924 87.8742 52.5838 88.2602 52.3667C88.6461 52.1496 88.9476 51.82 89.1647 51.3778H90.817C90.5034 52.1818 89.9969 52.8009 89.2974 53.2351C88.6059 53.6692 87.8139 53.8863 86.9215 53.8863C86.1335 53.8863 85.4139 53.7054 84.7627 53.3436C84.1114 52.9738 83.5928 52.4632 83.2069 51.812C82.829 51.1607 82.6401 50.425 82.6401 49.6049ZM93.8011 44.8893V53.814H92.4263V44.8893H93.8011ZM95.1479 50.4612C95.1479 49.7939 95.2846 49.2029 95.558 48.6883C95.8394 48.1738 96.2173 47.7758 96.6916 47.4944C97.1741 47.2049 97.7047 47.0602 98.2836 47.0602C98.8062 47.0602 99.2605 47.1647 99.6464 47.3738C100.04 47.5748 100.354 47.828 100.587 48.1336V47.1687H101.974V53.814H100.587V52.825C100.354 53.1386 100.036 53.3999 99.6344 53.6089C99.2323 53.818 98.7741 53.9225 98.2595 53.9225C97.6886 53.9225 97.166 53.7778 96.6916 53.4883C96.2173 53.1908 95.8394 52.7808 95.558 52.2582C95.2846 51.7275 95.1479 51.1285 95.1479 50.4612ZM100.587 50.4853C100.587 50.027 100.491 49.629 100.298 49.2914C100.113 48.9537 99.8675 48.6964 99.562 48.5195C99.2565 48.3426 98.9268 48.2542 98.573 48.2542C98.2193 48.2542 97.8896 48.3426 97.5841 48.5195C97.2786 48.6883 97.0293 48.9416 96.8364 49.2793C96.6514 49.6089 96.559 50.0029 96.559 50.4612C96.559 50.9195 96.6514 51.3215 96.8364 51.6672C97.0293 52.013 97.2786 52.2783 97.5841 52.4632C97.8977 52.6401 98.2273 52.7285 98.573 52.7285C98.9268 52.7285 99.2565 52.6401 99.562 52.4632C99.8675 52.2863 100.113 52.029 100.298 51.6914C100.491 51.3456 100.587 50.9436 100.587 50.4853ZM106.192 53.9225C105.669 53.9225 105.199 53.83 104.781 53.6451C104.371 53.4522 104.045 53.1949 103.804 52.8733C103.563 52.5436 103.434 52.1778 103.418 51.7758H104.841C104.865 52.0572 104.998 52.2944 105.239 52.4873C105.488 52.6723 105.798 52.7647 106.168 52.7647C106.554 52.7647 106.851 52.6924 107.06 52.5476C107.277 52.3949 107.386 52.2019 107.386 51.9687C107.386 51.7195 107.265 51.5346 107.024 51.414C106.791 51.2934 106.417 51.1607 105.903 51.016C105.404 50.8793 104.998 50.7466 104.684 50.618C104.371 50.4893 104.097 50.2924 103.864 50.027C103.639 49.7617 103.527 49.412 103.527 48.9778C103.527 48.624 103.631 48.3024 103.84 48.013C104.049 47.7155 104.347 47.4823 104.733 47.3135C105.127 47.1446 105.577 47.0602 106.083 47.0602C106.839 47.0602 107.446 47.2532 107.905 47.6391C108.371 48.017 108.62 48.5356 108.652 49.1949H107.277C107.253 48.8974 107.133 48.6602 106.916 48.4833C106.698 48.3064 106.405 48.218 106.035 48.218C105.673 48.218 105.396 48.2863 105.203 48.423C105.01 48.5597 104.914 48.7406 104.914 48.9657C104.914 49.1426 104.978 49.2914 105.107 49.412C105.235 49.5326 105.392 49.629 105.577 49.7014C105.762 49.7657 106.035 49.8501 106.397 49.9547C106.879 50.0833 107.273 50.216 107.579 50.3527C107.892 50.4813 108.162 50.6743 108.387 50.9316C108.612 51.1888 108.729 51.5305 108.737 51.9567C108.737 52.3346 108.632 52.6723 108.423 52.9697C108.214 53.2672 107.917 53.5004 107.531 53.6692C107.153 53.8381 106.707 53.9225 106.192 53.9225ZM112.634 53.9225C112.112 53.9225 111.641 53.83 111.223 53.6451C110.813 53.4522 110.488 53.1949 110.246 52.8733C110.005 52.5436 109.877 52.1778 109.86 51.7758H111.284C111.308 52.0572 111.44 52.2944 111.682 52.4873C111.931 52.6723 112.24 52.7647 112.61 52.7647C112.996 52.7647 113.294 52.6924 113.503 52.5476C113.72 52.3949 113.828 52.2019 113.828 51.9687C113.828 51.7195 113.708 51.5346 113.466 51.414C113.233 51.2934 112.859 51.1607 112.345 51.016C111.846 50.8793 111.44 50.7466 111.127 50.618C110.813 50.4893 110.54 50.2924 110.307 50.027C110.082 49.7617 109.969 49.412 109.969 48.9778C109.969 48.624 110.074 48.3024 110.283 48.013C110.492 47.7155 110.789 47.4823 111.175 47.3135C111.569 47.1446 112.019 47.0602 112.526 47.0602C113.282 47.0602 113.889 47.2532 114.347 47.6391C114.813 48.017 115.062 48.5356 115.095 49.1949H113.72C113.696 48.8974 113.575 48.6602 113.358 48.4833C113.141 48.3064 112.847 48.218 112.478 48.218C112.116 48.218 111.838 48.2863 111.645 48.423C111.452 48.5597 111.356 48.7406 111.356 48.9657C111.356 49.1426 111.42 49.2914 111.549 49.412C111.678 49.5326 111.834 49.629 112.019 49.7014C112.204 49.7657 112.478 49.8501 112.839 49.9547C113.322 50.0833 113.716 50.216 114.021 50.3527C114.335 50.4813 114.604 50.6743 114.829 50.9316C115.054 51.1888 115.171 51.5305 115.179 51.9567C115.179 52.3346 115.075 52.6723 114.865 52.9697C114.656 53.2672 114.359 53.5004 113.973 53.6692C113.595 53.8381 113.149 53.9225 112.634 53.9225ZM122.755 50.3285C122.755 50.5778 122.739 50.8029 122.707 51.0039H117.629C117.67 51.5346 117.867 51.9607 118.22 52.2823C118.574 52.6039 119.008 52.7647 119.523 52.7647C120.263 52.7647 120.785 52.4552 121.091 51.8361H122.574C122.373 52.4471 122.007 52.9496 121.477 53.3436C120.954 53.7295 120.303 53.9225 119.523 53.9225C118.888 53.9225 118.317 53.7818 117.81 53.5004C117.312 53.2109 116.918 52.8089 116.628 52.2944C116.347 51.7718 116.206 51.1687 116.206 50.4853C116.206 49.8019 116.343 49.2029 116.616 48.6883C116.898 48.1657 117.288 47.7637 117.786 47.4823C118.293 47.2009 118.872 47.0602 119.523 47.0602C120.15 47.0602 120.709 47.1969 121.199 47.4702C121.69 47.7436 122.072 48.1295 122.345 48.628C122.618 49.1185 122.755 49.6853 122.755 50.3285ZM121.32 49.8944C121.312 49.3878 121.131 48.9818 120.777 48.6763C120.423 48.3707 119.985 48.218 119.463 48.218C118.988 48.218 118.582 48.3707 118.245 48.6763C117.907 48.9738 117.706 49.3798 117.642 49.8944H121.32ZM126.52 53.9225C125.998 53.9225 125.527 53.83 125.109 53.6451C124.699 53.4522 124.373 53.1949 124.132 52.8733C123.891 52.5436 123.762 52.1778 123.746 51.7758H125.169C125.194 52.0572 125.326 52.2944 125.567 52.4873C125.817 52.6723 126.126 52.7647 126.496 52.7647C126.882 52.7647 127.179 52.6924 127.389 52.5476C127.606 52.3949 127.714 52.2019 127.714 51.9687C127.714 51.7195 127.594 51.5346 127.352 51.414C127.119 51.2934 126.745 51.1607 126.231 51.016C125.732 50.8793 125.326 50.7466 125.013 50.618C124.699 50.4893 124.426 50.2924 124.193 50.027C123.967 49.7617 123.855 49.412 123.855 48.9778C123.855 48.624 123.959 48.3024 124.168 48.013C124.377 47.7155 124.675 47.4823 125.061 47.3135C125.455 47.1446 125.905 47.0602 126.412 47.0602C127.167 47.0602 127.774 47.2532 128.233 47.6391C128.699 48.017 128.948 48.5356 128.98 49.1949H127.606C127.581 48.8974 127.461 48.6602 127.244 48.4833C127.027 48.3064 126.733 48.218 126.363 48.218C126.002 48.218 125.724 48.2863 125.531 48.423C125.338 48.5597 125.242 48.7406 125.242 48.9657C125.242 49.1426 125.306 49.2914 125.435 49.412C125.563 49.5326 125.72 49.629 125.905 49.7014C126.09 49.7657 126.363 49.8501 126.725 49.9547C127.208 50.0833 127.602 50.216 127.907 50.3527C128.221 50.4813 128.49 50.6743 128.715 50.9316C128.94 51.1888 129.057 51.5305 129.065 51.9567C129.065 52.3346 128.96 52.6723 128.751 52.9697C128.542 53.2672 128.245 53.5004 127.859 53.6692C127.481 53.8381 127.035 53.9225 126.52 53.9225Z" fill="#0F172A"/>
<rect x="157.387" y="41.0049" width="54.2714" height="18.6935" rx="9.34673" fill="#F1F5F9"/>
<rect x="184.523" y="41.0049" width="27.1357" height="18.6935" rx="9.34673" fill="#00AF9E"/>
<g clip-path="url(#clip1_149_3342)">
<path d="M201.206 46.6326H200.804V46.2306C200.804 46.124 200.762 46.0218 200.686 45.9464C200.611 45.871 200.509 45.8286 200.402 45.8286C200.295 45.8286 200.193 45.871 200.118 45.9464C200.042 46.0218 200 46.124 200 46.2306V46.6326H196.784V46.2306C196.784 46.124 196.742 46.0218 196.666 45.9464C196.591 45.871 196.489 45.8286 196.382 45.8286C196.275 45.8286 196.173 45.871 196.098 45.9464C196.022 46.0218 195.98 46.124 195.98 46.2306V46.6326H195.578C195.045 46.6333 194.534 46.8452 194.157 47.2221C193.78 47.5989 193.569 48.1098 193.568 48.6427V53.4668C193.569 53.9997 193.78 54.5106 194.157 54.8874C194.534 55.2642 195.045 55.4762 195.578 55.4769H201.206C201.739 55.4762 202.25 55.2642 202.627 54.8874C203.003 54.5106 203.215 53.9997 203.216 53.4668V48.6427C203.215 48.1098 203.003 47.5989 202.627 47.2221C202.25 46.8452 201.739 46.6333 201.206 46.6326ZM194.372 48.6427C194.372 48.3228 194.499 48.0161 194.725 47.7899C194.951 47.5637 195.258 47.4367 195.578 47.4367H201.206C201.526 47.4367 201.833 47.5637 202.059 47.7899C202.285 48.0161 202.412 48.3228 202.412 48.6427V49.0447H194.372V48.6427ZM201.206 54.6728H195.578C195.258 54.6728 194.951 54.5458 194.725 54.3196C194.499 54.0934 194.372 53.7867 194.372 53.4668V49.8487H202.412V53.4668C202.412 53.7867 202.285 54.0934 202.059 54.3196C201.833 54.5458 201.526 54.6728 201.206 54.6728Z" fill="white"/>
<path d="M198.392 52.4624C198.725 52.4624 198.995 52.1924 198.995 51.8594C198.995 51.5263 198.725 51.2563 198.392 51.2563C198.059 51.2563 197.789 51.5263 197.789 51.8594C197.789 52.1924 198.059 52.4624 198.392 52.4624Z" fill="white"/>
<path d="M196.382 52.4624C196.715 52.4624 196.985 52.1924 196.985 51.8594C196.985 51.5263 196.715 51.2563 196.382 51.2563C196.049 51.2563 195.779 51.5263 195.779 51.8594C195.779 52.1924 196.049 52.4624 196.382 52.4624Z" fill="white"/>
<path d="M200.402 52.4624C200.735 52.4624 201.005 52.1924 201.005 51.8594C201.005 51.5263 200.735 51.2563 200.402 51.2563C200.069 51.2563 199.799 51.5263 199.799 51.8594C199.799 52.1924 200.069 52.4624 200.402 52.4624Z" fill="white"/>
</g>
<path d="M21.0988 8.83931C21.4117 8.84159 21.7201 8.8987 22.0239 9.01062C22.3277 9.12255 22.6018 9.30528 22.8462 9.55882C23.0929 9.81236 23.2893 10.155 23.4355 10.5867C23.584 11.0161 23.6593 11.5506 23.6616 12.1902C23.6616 12.8046 23.5999 13.3516 23.4766 13.8313C23.3533 14.3087 23.1762 14.7119 22.9455 15.0408C22.7171 15.3697 22.4396 15.6198 22.113 15.7911C21.7863 15.9624 21.4186 16.0481 21.0097 16.0481C20.5917 16.0481 20.2205 15.9659 19.8962 15.8014C19.5718 15.6369 19.308 15.4097 19.1047 15.1196C18.9014 14.8272 18.7747 14.4914 18.7244 14.1123H19.7694C19.8379 14.4138 19.9773 14.6582 20.1874 14.8455C20.3999 15.0305 20.6739 15.123 21.0097 15.123C21.5237 15.123 21.9245 14.8992 22.2123 14.4515C22.5001 14.0015 22.6452 13.3733 22.6475 12.567H22.5926C22.4739 12.7635 22.3254 12.9325 22.1472 13.0741C21.9713 13.2157 21.7738 13.3254 21.5545 13.403C21.3352 13.4807 21.1011 13.5195 20.8521 13.5195C20.4478 13.5195 20.0801 13.4202 19.7489 13.2214C19.4177 13.0227 19.1538 12.7498 18.9574 12.4026C18.761 12.0554 18.6628 11.6591 18.6628 11.2137C18.6628 10.7706 18.7633 10.3685 18.9643 10.0077C19.1676 9.64676 19.4508 9.36124 19.814 9.1511C20.1794 8.93867 20.6077 8.83474 21.0988 8.83931ZM21.1022 9.73013C20.835 9.73013 20.594 9.79637 20.3793 9.92885C20.1669 10.059 19.999 10.2361 19.8756 10.4599C19.7523 10.6815 19.6906 10.9282 19.6906 11.2C19.6906 11.4718 19.75 11.7185 19.8688 11.94C19.9898 12.1593 20.1543 12.3341 20.3622 12.4643C20.5723 12.5922 20.8121 12.6561 21.0817 12.6561C21.2827 12.6561 21.47 12.6173 21.6436 12.5396C21.8172 12.462 21.9691 12.3546 22.0993 12.2176C22.2295 12.0782 22.3311 11.9206 22.4042 11.7447C22.4773 11.5689 22.5138 11.3839 22.5138 11.1897C22.5138 10.9316 22.4522 10.6918 22.3288 10.4702C22.2078 10.2486 22.041 10.0705 21.8286 9.9357C21.6162 9.79865 21.374 9.73013 21.1022 9.73013ZM25.588 15.0819C25.4007 15.0819 25.2397 15.0156 25.1049 14.8832C24.9701 14.7484 24.9028 14.5862 24.9028 14.3966C24.9028 14.2093 24.9701 14.0495 25.1049 13.917C25.2397 13.7822 25.4007 13.7148 25.588 13.7148C25.7753 13.7148 25.9363 13.7822 26.0711 13.917C26.2059 14.0495 26.2733 14.2093 26.2733 14.3966C26.2733 14.5223 26.2413 14.6376 26.1773 14.7427C26.1156 14.8455 26.0334 14.9277 25.9306 14.9894C25.8278 15.0511 25.7136 15.0819 25.588 15.0819ZM25.588 11.5666C25.4007 11.5666 25.2397 11.5003 25.1049 11.3679C24.9701 11.2331 24.9028 11.0709 24.9028 10.8813C24.9028 10.694 24.9701 10.5341 25.1049 10.4017C25.2397 10.2669 25.4007 10.1995 25.588 10.1995C25.7753 10.1995 25.9363 10.2669 26.0711 10.4017C26.2059 10.5341 26.2733 10.694 26.2733 10.8813C26.2733 11.007 26.2413 11.1223 26.1773 11.2274C26.1156 11.3302 26.0334 11.4124 25.9306 11.4741C25.8278 11.5357 25.7136 11.5666 25.588 11.5666ZM27.4844 14.5817V13.7251L30.5166 8.93524H31.1916V10.1961H30.7633L28.5945 13.6292V13.684H32.7505V14.5817H27.4844ZM30.8113 15.9521V14.3213L30.8181 13.9307V8.93524H31.822V15.9521H30.8113ZM36.5125 8.93524V15.9521H35.4504V9.99737H35.4093L33.7304 11.0938V10.0796L35.4812 8.93524H36.5125Z" fill="black"/>
<path fill-rule="evenodd" clip-rule="evenodd" d="M183.92 12.3618H183.317C182.984 12.3618 182.714 12.6149 182.714 12.9271V17.8266C182.714 18.1389 182.984 18.392 183.317 18.392H183.92C184.253 18.392 184.523 18.1389 184.523 17.8266V12.9271C184.523 12.6149 184.253 12.3618 183.92 12.3618ZM180.302 13.5679H180.905C181.238 13.5679 181.508 13.8271 181.508 14.1468V17.8131C181.508 18.1328 181.238 18.392 180.905 18.392H180.302C179.968 18.392 179.698 18.1328 179.698 17.8131V14.1468C179.698 13.8271 179.968 13.5679 180.302 13.5679ZM177.89 14.7736H177.286C176.953 14.7736 176.683 15.0436 176.683 15.3766V17.7887C176.683 18.1217 176.953 18.3917 177.286 18.3917H177.89C178.223 18.3917 178.493 18.1217 178.493 17.7887V15.3766C178.493 15.0436 178.223 14.7736 177.89 14.7736ZM174.874 15.9797H174.271C173.938 15.9797 173.668 16.2497 173.668 16.5827V17.7887C173.668 18.1218 173.938 18.3918 174.271 18.3918H174.874C175.208 18.3918 175.478 18.1218 175.478 17.7887V16.5827C175.478 16.2497 175.208 15.9797 174.874 15.9797Z" fill="black"/>
<path fill-rule="evenodd" clip-rule="evenodd" d="M192.143 12.8303C193.479 12.8304 194.764 13.3438 195.732 14.2645C195.805 14.3355 195.922 14.3346 195.994 14.2625L196.691 13.5589C196.727 13.5223 196.747 13.4727 196.747 13.4211C196.747 13.3695 196.726 13.3202 196.689 13.284C194.147 10.8481 190.137 10.8481 187.596 13.284C187.559 13.3201 187.538 13.3695 187.538 13.4211C187.537 13.4727 187.558 13.5223 187.594 13.5589L188.291 14.2625C188.363 14.3348 188.48 14.3357 188.552 14.2645C189.521 13.3437 190.806 12.8303 192.143 12.8303ZM192.143 15.1191C192.877 15.119 193.585 15.3919 194.129 15.8847C194.203 15.9547 194.319 15.9531 194.39 15.8813L195.087 15.1778C195.123 15.1409 195.144 15.0908 195.143 15.0388C195.143 14.9868 195.121 14.9371 195.084 14.901C193.427 13.3595 190.86 13.3595 189.203 14.901C189.166 14.9371 189.144 14.9868 189.144 15.0388C189.143 15.0909 189.164 15.1409 189.2 15.1778L189.896 15.8813C189.968 15.9531 190.084 15.9547 190.158 15.8847C190.702 15.3923 191.409 15.1194 192.143 15.1191ZM193.537 16.6589C193.538 16.711 193.518 16.7613 193.481 16.7979L192.276 18.0133C192.241 18.0491 192.193 18.0692 192.143 18.0692C192.092 18.0692 192.044 18.0491 192.009 18.0133L190.804 16.7979C190.767 16.7613 190.747 16.711 190.748 16.6588C190.749 16.6067 190.771 16.5573 190.81 16.5223C191.579 15.8717 192.706 15.8717 193.475 16.5223C193.514 16.5573 193.536 16.6067 193.537 16.6589Z" fill="black"/>
<path opacity="0.35" d="M200.503 12.462C200.503 11.7405 201.088 11.1555 201.809 11.1555H213.669C214.39 11.1555 214.975 11.7405 214.975 12.462V17.0852C214.975 17.8067 214.39 18.3917 213.669 18.3917H201.809C201.088 18.3917 200.503 17.8067 200.503 17.0852V12.462Z" stroke="black" stroke-width="0.603015"/>
<path opacity="0.4" d="M215.668 13.8691V16.2812C216.153 16.0769 216.469 15.6017 216.469 15.0752C216.469 14.5487 216.153 14.0734 215.668 13.8691Z" fill="black"/>
<path d="M201.588 13.0648C201.588 12.6207 201.948 12.2607 202.392 12.2607H212.965C213.409 12.2607 213.769 12.6207 213.769 13.0648V16.4798C213.769 16.9239 213.409 17.2839 212.965 17.2839H202.392C201.948 17.2839 201.588 16.9239 201.588 16.4798V13.0648Z" fill="black"/>
</g>
<defs>
<clipPath id="clip0_149_3342">
<path d="M0 42.2111C0 22.3126 0 12.3633 6.18167 6.18167C12.3633 0 22.3126 0 42.2111 0H183.789C203.687 0 213.637 0 219.818 6.18167C226 12.3633 226 22.3126 226 42.2111V237H0V42.2111Z" fill="white"/>
</clipPath>
<clipPath id="clip1_149_3342">
<rect width="9.64824" height="9.64824" fill="white" transform="translate(193.568 45.8286)"/>
</clipPath>
</defs>
</svg>
