<svg width="265" height="28" viewBox="0 0 265 28" fill="none" xmlns="http://www.w3.org/2000/svg">
<path d="M5.3 0.204V11.628C5.3 12.9347 5.58933 13.9333 6.168 14.624C6.76533 15.3147 7.624 15.66 8.744 15.66C9.864 15.66 10.7133 15.3147 11.292 14.624C11.8893 13.9333 12.188 12.9347 12.188 11.628V0.204H16.976V11.628C16.976 13.4947 16.612 15.072 15.884 16.36C15.156 17.6293 14.1573 18.5907 12.888 19.244C11.6373 19.8787 10.2187 20.196 8.632 20.196C7.04533 20.196 5.64533 19.8787 4.432 19.244C3.21867 18.6093 2.26667 17.648 1.576 16.36C0.885333 15.072 0.54 13.4947 0.54 11.628V0.204H5.3ZM25.8594 4.18C27.8381 4.18 29.4154 4.67467 30.5914 5.664C31.7861 6.65333 32.5328 7.96 32.8314 9.584H28.3514C28.2208 8.94933 27.9221 8.45467 27.4554 8.1C27.0074 7.72667 26.4381 7.54 25.7474 7.54C25.2061 7.54 24.7954 7.66133 24.5154 7.904C24.2354 8.128 24.0954 8.45467 24.0954 8.884C24.0954 9.36933 24.3474 9.73333 24.8514 9.976C25.3741 10.2187 26.1861 10.4613 27.2874 10.704C28.4821 10.984 29.4621 11.2733 30.2274 11.572C30.9928 11.852 31.6554 12.3187 32.2154 12.972C32.7754 13.6253 33.0554 14.5027 33.0554 15.604C33.0554 16.5 32.8128 17.2933 32.3274 17.984C31.8421 18.6747 31.1421 19.216 30.2274 19.608C29.3128 20 28.2301 20.196 26.9794 20.196C24.8701 20.196 23.1808 19.7293 21.9114 18.796C20.6421 17.8627 19.8674 16.528 19.5874 14.792H24.2074C24.2821 15.464 24.5621 15.9773 25.0474 16.332C25.5514 16.6867 26.1954 16.864 26.9794 16.864C27.5208 16.864 27.9314 16.7427 28.2114 16.5C28.4914 16.2387 28.6314 15.9027 28.6314 15.492C28.6314 14.9507 28.3701 14.568 27.8474 14.344C27.3434 14.1013 26.5128 13.8493 25.3554 13.588C24.1981 13.3453 23.2461 13.084 22.4994 12.804C21.7528 12.524 21.1088 12.076 20.5674 11.46C20.0261 10.8253 19.7554 9.96667 19.7554 8.884C19.7554 7.484 20.2874 6.35467 21.3514 5.496C22.4154 4.61867 23.9181 4.18 25.8594 4.18ZM50.5467 11.768C50.5467 12.16 50.5 12.5893 50.4067 13.056H39.5707C39.6267 14.232 39.9254 15.0813 40.4667 15.604C41.008 16.108 41.6987 16.36 42.5387 16.36C43.248 16.36 43.836 16.1827 44.3027 15.828C44.7694 15.4733 45.0774 15.016 45.2267 14.456H50.2947C50.0894 15.5573 49.6414 16.5467 48.9507 17.424C48.26 18.2827 47.3827 18.964 46.3187 19.468C45.2547 19.9533 44.0694 20.196 42.7627 20.196C41.232 20.196 39.8694 19.8787 38.6747 19.244C37.4987 18.5907 36.5747 17.6573 35.9027 16.444C35.2307 15.2307 34.8947 13.812 34.8947 12.188C34.8947 10.5453 35.2214 9.12667 35.8747 7.932C36.5467 6.71867 37.48 5.79467 38.6747 5.16C39.8694 4.50667 41.232 4.18 42.7627 4.18C44.312 4.18 45.6747 4.49733 46.8507 5.132C48.0267 5.76667 48.932 6.66267 49.5667 7.82C50.22 8.95867 50.5467 10.2747 50.5467 11.768ZM45.7027 11.04C45.7214 10.0133 45.4414 9.248 44.8627 8.744C44.3027 8.22133 43.6027 7.96 42.7627 7.96C41.8854 7.96 41.1574 8.22133 40.5787 8.744C40 9.26667 39.6734 10.032 39.5987 11.04H45.7027ZM57.8306 7.316C58.428 6.364 59.1933 5.608 60.1266 5.048C61.0786 4.488 62.1053 4.208 63.2066 4.208V9.332H61.8346C60.5653 9.332 59.576 9.60267 58.8666 10.144C58.176 10.6853 57.8306 11.6 57.8306 12.888V20H53.0426V4.376H57.8306V7.316ZM93.0761 0.343999V20H88.2881V7.708L84.0321 20H79.8881L75.6041 7.68V20H70.8161V0.343999H76.6681L82.0161 14.036L87.2521 0.343999H93.0761ZM102.318 4.18C103.513 4.18 104.54 4.45067 105.398 4.992C106.257 5.53333 106.892 6.27067 107.302 7.204V4.376H112.062V20H107.302V17.172C106.892 18.1053 106.257 18.8427 105.398 19.384C104.54 19.9253 103.513 20.196 102.318 20.196C101.03 20.196 99.8731 19.8787 98.8465 19.244C97.8385 18.5907 97.0358 17.6573 96.4385 16.444C95.8598 15.2307 95.5705 13.812 95.5705 12.188C95.5705 10.5453 95.8598 9.12667 96.4385 7.932C97.0358 6.71867 97.8385 5.79467 98.8465 5.16C99.8731 4.50667 101.03 4.18 102.318 4.18ZM103.858 8.38C102.832 8.38 102.001 8.716 101.366 9.388C100.75 10.06 100.442 10.9933 100.442 12.188C100.442 13.3827 100.75 14.316 101.366 14.988C102.001 15.66 102.832 15.996 103.858 15.996C104.866 15.996 105.688 15.6507 106.322 14.96C106.976 14.2693 107.302 13.3453 107.302 12.188C107.302 11.012 106.976 10.088 106.322 9.416C105.688 8.72533 104.866 8.38 103.858 8.38ZM125.271 4.208C127.063 4.208 128.482 4.80533 129.527 6C130.591 7.19467 131.123 8.83733 131.123 10.928V20H126.335V11.488C126.335 10.4427 126.055 9.63067 125.495 9.052C124.954 8.45467 124.226 8.156 123.311 8.156C122.34 8.156 121.566 8.464 120.987 9.08C120.427 9.696 120.147 10.5733 120.147 11.712V20H115.359V4.376H120.147V7.232C120.595 6.29867 121.258 5.56133 122.135 5.02C123.031 4.47867 124.076 4.208 125.271 4.208ZM140.217 4.18C141.412 4.18 142.438 4.45067 143.297 4.992C144.156 5.53333 144.79 6.27067 145.201 7.204V4.376H149.961V20H145.201V17.172C144.79 18.1053 144.156 18.8427 143.297 19.384C142.438 19.9253 141.412 20.196 140.217 20.196C138.929 20.196 137.772 19.8787 136.745 19.244C135.737 18.5907 134.934 17.6573 134.337 16.444C133.758 15.2307 133.469 13.812 133.469 12.188C133.469 10.5453 133.758 9.12667 134.337 7.932C134.934 6.71867 135.737 5.79467 136.745 5.16C137.772 4.50667 138.929 4.18 140.217 4.18ZM141.757 8.38C140.73 8.38 139.9 8.716 139.265 9.388C138.649 10.06 138.341 10.9933 138.341 12.188C138.341 13.3827 138.649 14.316 139.265 14.988C139.9 15.66 140.73 15.996 141.757 15.996C142.765 15.996 143.586 15.6507 144.221 14.96C144.874 14.2693 145.201 13.3453 145.201 12.188C145.201 11.012 144.874 10.088 144.221 9.416C143.586 8.72533 142.765 8.38 141.757 8.38ZM159.193 4.18C160.388 4.18 161.415 4.45067 162.273 4.992C163.132 5.53333 163.767 6.27067 164.177 7.204V4.376H168.937V19.916C168.937 21.372 168.657 22.6787 168.097 23.836C167.537 25.012 166.679 25.9453 165.521 26.636C164.364 27.3267 162.927 27.672 161.209 27.672C158.857 27.672 156.972 27.112 155.553 25.992C154.153 24.8907 153.313 23.388 153.033 21.484H157.765C157.915 22.1187 158.251 22.6133 158.773 22.968C159.315 23.3227 160.015 23.5 160.873 23.5C161.863 23.5 162.656 23.2107 163.253 22.632C163.869 22.072 164.177 21.1667 164.177 19.916V17.172C163.767 18.1053 163.132 18.8427 162.273 19.384C161.415 19.9253 160.388 20.196 159.193 20.196C157.905 20.196 156.748 19.8787 155.721 19.244C154.713 18.5907 153.911 17.6573 153.313 16.444C152.735 15.2307 152.445 13.812 152.445 12.188C152.445 10.5453 152.735 9.12667 153.313 7.932C153.911 6.71867 154.713 5.79467 155.721 5.16C156.748 4.50667 157.905 4.18 159.193 4.18ZM160.733 8.38C159.707 8.38 158.876 8.716 158.241 9.388C157.625 10.06 157.317 10.9933 157.317 12.188C157.317 13.3827 157.625 14.316 158.241 14.988C158.876 15.66 159.707 15.996 160.733 15.996C161.741 15.996 162.563 15.6507 163.197 14.96C163.851 14.2693 164.177 13.3453 164.177 12.188C164.177 11.012 163.851 10.088 163.197 9.416C162.563 8.72533 161.741 8.38 160.733 8.38ZM187.074 11.768C187.074 12.16 187.027 12.5893 186.934 13.056H176.098C176.154 14.232 176.453 15.0813 176.994 15.604C177.535 16.108 178.226 16.36 179.066 16.36C179.775 16.36 180.363 16.1827 180.83 15.828C181.297 15.4733 181.605 15.016 181.754 14.456H186.822C186.617 15.5573 186.169 16.5467 185.478 17.424C184.787 18.2827 183.91 18.964 182.846 19.468C181.782 19.9533 180.597 20.196 179.29 20.196C177.759 20.196 176.397 19.8787 175.202 19.244C174.026 18.5907 173.102 17.6573 172.43 16.444C171.758 15.2307 171.422 13.812 171.422 12.188C171.422 10.5453 171.749 9.12667 172.402 7.932C173.074 6.71867 174.007 5.79467 175.202 5.16C176.397 4.50667 177.759 4.18 179.29 4.18C180.839 4.18 182.202 4.49733 183.378 5.132C184.554 5.76667 185.459 6.66267 186.094 7.82C186.747 8.95867 187.074 10.2747 187.074 11.768ZM182.23 11.04C182.249 10.0133 181.969 9.248 181.39 8.744C180.83 8.22133 180.13 7.96 179.29 7.96C178.413 7.96 177.685 8.22133 177.106 8.744C176.527 9.26667 176.201 10.032 176.126 11.04H182.23ZM209.814 4.208C211.737 4.208 213.249 4.80533 214.35 6C215.451 7.176 216.002 8.81867 216.002 10.928V20H211.242V11.488C211.242 10.4987 210.971 9.73333 210.43 9.192C209.907 8.632 209.189 8.352 208.274 8.352C207.322 8.352 206.566 8.65067 206.006 9.248C205.465 9.82667 205.194 10.648 205.194 11.712V20H200.406V11.488C200.406 10.4987 200.145 9.73333 199.622 9.192C199.099 8.632 198.381 8.352 197.466 8.352C196.514 8.352 195.758 8.64133 195.198 9.22C194.638 9.79867 194.358 10.6293 194.358 11.712V20H189.57V4.376H194.358V7.036C194.769 6.15867 195.394 5.468 196.234 4.964C197.093 4.46 198.091 4.208 199.23 4.208C200.425 4.208 201.479 4.488 202.394 5.048C203.309 5.58933 203.999 6.37333 204.466 7.4C205.007 6.42933 205.745 5.65467 206.678 5.076C207.63 4.49733 208.675 4.208 209.814 4.208ZM234.023 11.768C234.023 12.16 233.977 12.5893 233.883 13.056H223.047C223.103 14.232 223.402 15.0813 223.943 15.604C224.485 16.108 225.175 16.36 226.015 16.36C226.725 16.36 227.313 16.1827 227.779 15.828C228.246 15.4733 228.554 15.016 228.703 14.456H233.771C233.566 15.5573 233.118 16.5467 232.427 17.424C231.737 18.2827 230.859 18.964 229.795 19.468C228.731 19.9533 227.546 20.196 226.239 20.196C224.709 20.196 223.346 19.8787 222.151 19.244C220.975 18.5907 220.051 17.6573 219.379 16.444C218.707 15.2307 218.371 13.812 218.371 12.188C218.371 10.5453 218.698 9.12667 219.351 7.932C220.023 6.71867 220.957 5.79467 222.151 5.16C223.346 4.50667 224.709 4.18 226.239 4.18C227.789 4.18 229.151 4.49733 230.327 5.132C231.503 5.76667 232.409 6.66267 233.043 7.82C233.697 8.95867 234.023 10.2747 234.023 11.768ZM229.179 11.04C229.198 10.0133 228.918 9.248 228.339 8.744C227.779 8.22133 227.079 7.96 226.239 7.96C225.362 7.96 224.634 8.22133 224.055 8.744C223.477 9.26667 223.15 10.032 223.075 11.04H229.179ZM246.431 4.208C248.223 4.208 249.642 4.80533 250.687 6C251.751 7.19467 252.283 8.83733 252.283 10.928V20H247.495V11.488C247.495 10.4427 247.215 9.63067 246.655 9.052C246.114 8.45467 245.386 8.156 244.471 8.156C243.501 8.156 242.726 8.464 242.147 9.08C241.587 9.696 241.307 10.5733 241.307 11.712V20H236.519V4.376H241.307V7.232C241.755 6.29867 242.418 5.56133 243.295 5.02C244.191 4.47867 245.237 4.208 246.431 4.208ZM264.289 15.884V20H262.133C260.304 20 258.876 19.552 257.849 18.656C256.841 17.7413 256.337 16.2387 256.337 14.148V8.408H254.237V4.376H256.337V0.539999H261.125V4.376H264.261V8.408H261.125V14.232C261.125 14.848 261.246 15.2773 261.489 15.52C261.75 15.7627 262.18 15.884 262.777 15.884H264.289Z" fill="#FF635F"/>
</svg>
