<svg width="55" height="45" viewBox="0 0 55 45" fill="none" xmlns="http://www.w3.org/2000/svg">
<path d="M49.6249 0.375H5.37492C2.67075 0.375 0.458252 2.5875 0.458252 5.29167V12.6667H5.37492V5.29167H49.6249V39.7083H32.4166V44.625H49.6249C52.3291 44.625 54.5416 42.4125 54.5416 39.7083V5.29167C54.5416 2.5875 52.3291 0.375 49.6249 0.375ZM0.458252 37.25V44.625H7.83325C7.83325 40.5442 4.53908 37.25 0.458252 37.25ZM0.458252 27.4167V32.3333C7.24325 32.3333 12.7499 37.84 12.7499 44.625H17.6666C17.6666 35.1112 9.972 27.4167 0.458252 27.4167ZM0.458252 17.5833V22.5C12.6762 22.5 22.5833 32.4071 22.5833 44.625H27.4999C27.4999 29.6783 15.3803 17.5833 0.458252 17.5833ZM25.0416 20.2629V25.1796L33.6458 29.875L42.2499 25.1796V20.2629L33.6458 24.9583L25.0416 20.2629ZM33.6458 7.75L20.1249 15.125L33.6458 22.5L47.1666 15.125L33.6458 7.75Z" fill="#007EF2"/>
</svg>
