<svg width="59" height="41" viewBox="0 0 59 41" fill="none" xmlns="http://www.w3.org/2000/svg">
<path d="M47.5687 15.6816C45.8971 7.20034 38.4483 0.833252 29.5 0.833252C22.3954 0.833252 16.225 4.86492 13.1521 10.7649C5.7525 11.5516 0 17.8203 0 25.4166C0 33.5537 6.61292 40.1666 14.75 40.1666H46.7083C53.4933 40.1666 59 34.6599 59 27.8749C59 21.3849 53.9604 16.1241 47.5687 15.6816ZM46.7083 35.2499H14.75C9.31708 35.2499 4.91667 30.8495 4.91667 25.4166C4.91667 20.377 8.67792 16.1733 13.6683 15.657L16.2987 15.3866L17.5279 13.0512C19.8633 8.55242 24.4358 5.74992 29.5 5.74992C35.9408 5.74992 41.4967 10.3224 42.7504 16.6403L43.4879 20.3278L47.2492 20.5983C51.0842 20.8441 54.0833 24.0645 54.0833 27.8749C54.0833 31.9312 50.7646 35.2499 46.7083 35.2499ZM24.5833 25.8591L19.4454 20.7212L15.9792 24.1874L24.5833 32.7916L39.3579 18.017L35.8917 14.5508L24.5833 25.8591Z" fill="#007EF2"/>
</svg>
