<svg width="45" height="45" viewBox="0 0 45 45" fill="none" xmlns="http://www.w3.org/2000/svg">
<path d="M39.7083 0.375H5.29167C2.5875 0.375 0.375 2.5875 0.375 5.29167V39.7083C0.375 42.4125 2.5875 44.625 5.29167 44.625H39.7083C42.4125 44.625 44.625 42.4125 44.625 39.7083V5.29167C44.625 2.5875 42.4125 0.375 39.7083 0.375ZM39.7083 39.7083H5.29167V5.29167H39.7083V39.7083Z" fill="#007EF2"/>
<path d="M15.1249 22.5H10.2083V34.7917H15.1249V22.5Z" fill="#007EF2"/>
<path d="M34.7917 10.2083H29.875V34.7916H34.7917V10.2083Z" fill="#007EF2"/>
<path d="M24.9584 27.4167H20.0417V34.7917H24.9584V27.4167Z" fill="#007EF2"/>
<path d="M24.9584 17.5833H20.0417V22.4999H24.9584V17.5833Z" fill="#007EF2"/>
</svg>
