<svg width="40" height="41" viewBox="0 0 40 41" fill="none" xmlns="http://www.w3.org/2000/svg">
<path d="M40 20C40 8.954 31.046 0 20 0C8.954 0 0 8.954 0 20C0 23.286 0.794 26.46 2.29 29.3L0.0580001 37.88C-0.0162346 38.1666 -0.014358 38.4675 0.0634446 38.7531C0.141247 39.0387 0.292279 39.2991 0.501594 39.5084C0.710909 39.7177 0.971252 39.8688 1.25686 39.9466C1.54247 40.0244 1.84344 40.0262 2.13 39.952L10.71 37.718C13.5753 39.222 16.7639 40.0052 20 40C31.046 40 40 31.046 40 20ZM20 12C21.0609 12 22.0783 12.4214 22.8284 13.1716C23.5786 13.9217 24 14.9391 24 16V24C24 25.0609 23.5786 26.0783 22.8284 26.8284C22.0783 27.5786 21.0609 28 20 28H14C12.9391 28 11.9217 27.5786 11.1716 26.8284C10.4214 26.0783 10 25.0609 10 24V16C10 14.9391 10.4214 13.9217 11.1716 13.1716C11.9217 12.4214 12.9391 12 14 12H20ZM26 22.324V17.676L29.468 14.392C29.6809 14.1901 29.9484 14.0552 30.2372 14.0038C30.5261 13.9524 30.8236 13.9868 31.0931 14.1028C31.3626 14.2188 31.5921 14.4113 31.7533 14.6564C31.9145 14.9016 32.0003 15.1886 32 15.482V24.518C32.0003 24.8114 31.9145 25.0984 31.7533 25.3436C31.5921 25.5887 31.3626 25.7812 31.0931 25.8972C30.8236 26.0132 30.5261 26.0476 30.2372 25.9962C29.9484 25.9448 29.6809 25.8099 29.468 25.608L26 22.324Z" fill="url(#paint0_linear_187_1405)"/>
<defs>
<linearGradient id="paint0_linear_187_1405" x1="9.56619e-07" y1="-6.10098" x2="41.9403" y2="-2.8905" gradientUnits="userSpaceOnUse">
<stop stop-color="#008CE4"/>
<stop offset="1" stop-color="#00AF9E"/>
</linearGradient>
</defs>
</svg>
