<svg width="36" height="42" viewBox="0 0 36 42" fill="none" xmlns="http://www.w3.org/2000/svg">
<path d="M15.7 41.05C13.9 39.75 11.9753 38.7 9.926 37.9C7.87533 37.1 5.73333 36.55 3.5 36.25C2.5 36.1167 1.66667 35.6913 1 34.974C0.333333 34.258 0 33.4333 0 32.5V18.4C0 17.1333 0.433334 16.0913 1.3 15.274C2.16667 14.458 3.18333 14.15 4.35 14.35C6.91667 14.7833 9.35867 15.5667 11.676 16.7C13.992 17.8333 16.1 19.3 18 21.1C19.9 19.3 22.0087 17.8333 24.326 16.7C26.642 15.5667 29.0833 14.7833 31.65 14.35C32.8167 14.15 33.8333 14.458 34.7 15.274C35.5667 16.0913 36 17.1333 36 18.4V32.5C36 33.4333 35.6667 34.258 35 34.974C34.3333 35.6913 33.5 36.1167 32.5 36.25C30.2667 36.55 28.1253 37.1 26.076 37.9C24.0253 38.7 22.1 39.75 20.3 41.05C19.6333 41.55 18.8667 41.8 18 41.8C17.1333 41.8 16.3667 41.55 15.7 41.05ZM18 16C15.8 16 13.9167 15.2167 12.35 13.65C10.7833 12.0833 10 10.2 10 8C10 5.8 10.7833 3.91667 12.35 2.35C13.9167 0.783333 15.8 0 18 0C20.2 0 22.0833 0.783333 23.65 2.35C25.2167 3.91667 26 5.8 26 8C26 10.2 25.2167 12.0833 23.65 13.65C22.0833 15.2167 20.2 16 18 16Z" fill="url(#paint0_linear_187_1403)"/>
<defs>
<linearGradient id="paint0_linear_187_1403" x1="8.60957e-07" y1="-6.37451" x2="37.8031" y2="-3.88187" gradientUnits="userSpaceOnUse">
<stop stop-color="#008CE4"/>
<stop offset="1" stop-color="#00AF9E"/>
</linearGradient>
</defs>
</svg>
