<svg width="33" height="32" viewBox="0 0 33 32" fill="none" xmlns="http://www.w3.org/2000/svg">
<path d="M24.8292 21C24.3223 21 23.8154 20.8 23.4099 20.4L20.3684 17.4C19.9629 17 19.7601 16.5 19.7601 16C19.7601 15.5 19.9629 15 20.3684 14.6L23.4099 11.6C23.8154 11.2 24.3223 11 24.8292 11C25.3361 11 25.843 11.2 26.2486 11.6L29.29 14.6C29.6955 15 29.8983 15.5 29.8983 16C29.8983 16.5 29.6955 17 29.29 17.4L26.2486 20.4C25.843 20.8 25.3361 21 24.8292 21ZM24.8292 13L21.7878 16L24.8292 19L27.8707 16L24.8292 13ZM16.7187 13C16.2118 13 15.7049 12.8 15.2993 12.4L12.2579 9.4C11.8524 9 11.6496 8.5 11.6496 8C11.6496 7.5 11.8524 7 12.2579 6.6L15.2993 3.6C15.7049 3.2 16.2118 3 16.7187 3C17.2256 3 17.7325 3.2 18.138 3.6L21.1795 6.6C21.585 7 21.7878 7.5 21.7878 8C21.7878 8.5 21.585 9 21.1795 9.4L18.138 12.4C17.7325 12.8 17.2256 13 16.7187 13ZM16.7187 5L13.6772 8L16.7187 11L19.7601 8L16.7187 5ZM16.7187 29C16.2118 29 15.7049 28.8 15.2993 28.4L12.2579 25.4C11.8524 25 11.6496 24.5 11.6496 24C11.6496 23.5 11.8524 23 12.2579 22.6L15.2993 19.6C15.7049 19.2 16.2118 19 16.7187 19C17.2256 19 17.7325 19.2 18.138 19.6L21.1795 22.6C21.585 23 21.7878 23.5 21.7878 24C21.7878 24.5 21.585 25 21.1795 25.4L18.138 28.4C17.7325 28.8 17.2256 29 16.7187 29ZM16.7187 21L13.6772 24L16.7187 27L19.7601 24L16.7187 21ZM8.60815 21C8.10124 21 7.59433 20.8 7.1888 20.4L4.14735 17.4C3.74183 17 3.53906 16.5 3.53906 16C3.53906 15.5 3.74183 15 4.14735 14.6L7.1888 11.6C7.59433 11.2 8.10124 11 8.60815 11C9.11506 11 9.62196 11.2 10.0275 11.6L13.0689 14.6C13.4745 15 13.6772 15.5 13.6772 16C13.6772 16.5 13.4745 17 13.0689 17.4L10.0275 20.4C9.62196 20.8 9.11506 21 8.60815 21ZM8.60815 13L5.5667 16L8.60815 19L11.6496 16L8.60815 13Z" fill="#007EF2"/>
</svg>
