<svg width="20" height="20" viewBox="0 0 20 20" fill="none" xmlns="http://www.w3.org/2000/svg">
<path d="M12.3334 6.66683L13.3334 7.66683L7.66675 13.3335L6.66675 12.3335L12.3334 6.66683ZM3.33341 3.3335H16.6667C17.5917 3.3335 18.3334 4.07516 18.3334 5.00016V8.3335C17.8914 8.3335 17.4675 8.50909 17.1549 8.82165C16.8423 9.13421 16.6667 9.55814 16.6667 10.0002C16.6667 10.4422 16.8423 10.8661 17.1549 11.1787C17.4675 11.4912 17.8914 11.6668 18.3334 11.6668V15.0002C18.3334 15.9252 17.5917 16.6668 16.6667 16.6668H3.33341C2.89139 16.6668 2.46746 16.4912 2.1549 16.1787C1.84234 15.8661 1.66675 15.4422 1.66675 15.0002V11.6668C2.59175 11.6668 3.33341 10.9252 3.33341 10.0002C3.33341 9.55814 3.15782 9.13421 2.84526 8.82165C2.5327 8.50909 2.10878 8.3335 1.66675 8.3335V5.00016C1.66675 4.55814 1.84234 4.13421 2.1549 3.82165C2.46746 3.50909 2.89139 3.3335 3.33341 3.3335ZM3.33341 5.00016V7.11683C3.83981 7.40883 4.26038 7.82905 4.55279 8.33521C4.84521 8.84136 4.99916 9.41561 4.99916 10.0002C4.99916 10.5847 4.84521 11.159 4.55279 11.6651C4.26038 12.1713 3.83981 12.5915 3.33341 12.8835V15.0002H16.6667V12.8835C16.1603 12.5915 15.7398 12.1713 15.4474 11.6651C15.155 11.159 15.001 10.5847 15.001 10.0002C15.001 9.41561 15.155 8.84136 15.4474 8.33521C15.7398 7.82905 16.1603 7.40883 16.6667 7.11683V5.00016H3.33341ZM7.91675 6.66683C8.60841 6.66683 9.16675 7.22516 9.16675 7.91683C9.16675 8.6085 8.60841 9.16683 7.91675 9.16683C7.22508 9.16683 6.66675 8.6085 6.66675 7.91683C6.66675 7.22516 7.22508 6.66683 7.91675 6.66683ZM12.0834 10.8335C12.7751 10.8335 13.3334 11.3918 13.3334 12.0835C13.3334 12.7752 12.7751 13.3335 12.0834 13.3335C11.3917 13.3335 10.8334 12.7752 10.8334 12.0835C10.8334 11.3918 11.3917 10.8335 12.0834 10.8335Z" fill="#007EF2"/>
</svg>
