<?xml version="1.0" encoding="UTF-8" standalone="no"?>
<!DOCTYPE svg PUBLIC "-//W3C//DTD SVG 1.1//EN" "http://www.w3.org/Graphics/SVG/1.1/DTD/svg11.dtd">
<svg width="100%" height="100%" viewBox="0 0 1232 561" version="1.1" xmlns="http://www.w3.org/2000/svg" xmlns:xlink="http://www.w3.org/1999/xlink" xml:space="preserve" xmlns:serif="http://www.serif.com/" style="fill-rule:evenodd;clip-rule:evenodd;stroke-linejoin:round;stroke-miterlimit:2;">
    <g transform="matrix(1,0,0,1,-345.552,-259.951)">
        <g transform="matrix(1,0,0,1,1.17097,0)">
            <g>
                <g transform="matrix(3.24662,0,0,3.24662,-1431.58,-8185.47)">
                    <path d="M606.1,2603.25L624.557,2603.25L624.557,2680.89L606.1,2680.89L565.475,2629.72L565.475,2680.89L547.018,2680.89L547.018,2606.28L565.475,2601.3L606.1,2652.47L606.1,2603.25Z" style="fill:url(#_Linear1);fill-rule:nonzero;"/>
                    <path d="M639.498,2631.18L657.956,2626.2L657.956,2639.88L691.061,2639.88C694.707,2639.88 697.246,2638.05 698.678,2634.41C699.264,2632.91 699.557,2631.35 699.557,2629.72C699.557,2625.75 698.222,2622.85 695.553,2621.03C694.186,2620.18 692.689,2619.76 691.061,2619.76L639.498,2619.76L644.479,2603.25L691.256,2603.25C700.827,2603.25 708.248,2606.74 713.522,2613.7C717.233,2618.65 719.088,2624.28 719.088,2630.6C719.088,2638.15 716.549,2644.37 711.471,2649.25C708.802,2651.79 705.677,2653.64 702.096,2654.82L721.334,2680.89L699.557,2680.89L682.663,2656.38L657.956,2656.38L657.956,2680.89L639.498,2680.89L639.498,2631.18Z" style="fill:url(#_Linear2);fill-rule:nonzero;"/>
                    <rect x="729.538" y="2603.25" width="18.457" height="77.637" style="fill:url(#_Linear3);fill-rule:nonzero;"/>
                    <path d="M790.084,2603.25L839.889,2603.25L834.909,2619.76L792.331,2619.76C786.732,2619.76 782.467,2622.88 779.538,2629.13C777.715,2633.17 776.803,2637.66 776.803,2642.61C776.803,2650.29 778.756,2656.18 782.663,2660.28C785.332,2663.02 788.554,2664.39 792.331,2664.39L839.889,2664.39L834.909,2680.89L790.084,2680.89C779.472,2680.89 771.107,2676.46 764.987,2667.61C759.844,2660.25 757.272,2651.53 757.272,2641.44C757.272,2630.76 760.104,2621.84 765.768,2614.68C771.823,2607.13 779.928,2603.32 790.084,2603.25Z" style="fill:url(#_Linear4);fill-rule:nonzero;"/>
                    <path d="M847.995,2606.28L866.452,2601.3L866.452,2635.87L907.077,2635.87L907.077,2603.25L925.534,2603.25L925.534,2680.89L907.077,2680.89L907.077,2652.38L866.452,2652.38L866.452,2680.89L847.995,2680.89L847.995,2606.28Z" style="fill:url(#_Linear5);fill-rule:nonzero;"/>
                </g>
                <g transform="matrix(20.1069,0,0,17.8774,-11125,-3102.12)">
                    <g transform="matrix(12,0,0,12,569.757,215.53)">
                        <rect x="0.055" y="-0.701" width="0.049" height="0.701" style="fill-rule:nonzero;"/>
                    </g>
                    <g transform="matrix(12,0,0,12,574.629,215.53)">
                        <path d="M0.278,0.007C0.357,0.007 0.443,-0.025 0.491,-0.088L0.456,-0.116C0.419,-0.067 0.343,-0.041 0.278,-0.041C0.176,-0.041 0.087,-0.108 0.077,-0.224L0.522,-0.224C0.541,-0.417 0.417,-0.502 0.278,-0.502C0.139,-0.502 0.027,-0.395 0.027,-0.247C0.027,-0.09 0.139,0.007 0.278,0.007ZM0.077,-0.267C0.088,-0.388 0.176,-0.457 0.278,-0.457C0.397,-0.457 0.477,-0.389 0.478,-0.267L0.077,-0.267Z" style="fill-rule:nonzero;"/>
                    </g>
                    <g transform="matrix(12,0,0,12,584.397,215.53)">
                        <path d="M0.481,-0.494L0.481,-0.386C0.44,-0.463 0.359,-0.5 0.279,-0.5C0.141,-0.5 0.028,-0.398 0.028,-0.247C0.028,-0.096 0.141,0.008 0.279,0.008C0.359,0.008 0.433,-0.028 0.481,-0.105L0.481,-0L0.53,-0L0.53,-0.494L0.481,-0.494ZM0.279,-0.453C0.554,-0.453 0.554,-0.04 0.279,-0.04C0.167,-0.04 0.077,-0.123 0.077,-0.247C0.077,-0.371 0.167,-0.453 0.279,-0.453Z" style="fill-rule:nonzero;"/>
                    </g>
                    <g transform="matrix(12,0,0,12,594.333,215.53)">
                        <path d="M0.055,-0.494L0.055,-0L0.104,-0L0.104,-0.288C0.104,-0.378 0.175,-0.452 0.267,-0.453C0.296,-0.453 0.325,-0.446 0.351,-0.43L0.373,-0.47C0.34,-0.49 0.304,-0.5 0.267,-0.499C0.204,-0.499 0.134,-0.473 0.103,-0.406L0.101,-0.494L0.055,-0.494Z" style="fill-rule:nonzero;"/>
                    </g>
                    <g transform="matrix(12,0,0,12,601.677,215.53)">
                        <path d="M0.055,-0.494L0.055,-0L0.104,-0L0.104,-0.275C0.104,-0.377 0.175,-0.454 0.277,-0.455C0.384,-0.456 0.453,-0.396 0.453,-0.284L0.453,-0L0.502,-0L0.502,-0.285C0.502,-0.422 0.411,-0.503 0.279,-0.503C0.21,-0.502 0.141,-0.474 0.103,-0.406L0.103,-0.494L0.055,-0.494Z" style="fill-rule:nonzero;"/>
                    </g>
                    <path d="M612.465,209.579L612.465,215.529L611.878,215.529L611.878,209.579L612.465,209.579ZM611.71,207.671C611.71,208.295 612.656,208.295 612.656,207.671C612.656,207.047 611.71,207.047 611.71,207.671Z" style="fill:url(#_Linear6);fill-rule:nonzero;"/>
                    <g transform="matrix(12,0,0,12,616.125,215.53)">
                        <path d="M0.055,-0.494L0.055,-0L0.104,-0L0.104,-0.275C0.104,-0.377 0.175,-0.454 0.277,-0.455C0.384,-0.456 0.453,-0.396 0.453,-0.284L0.453,-0L0.502,-0L0.502,-0.285C0.502,-0.422 0.411,-0.503 0.279,-0.503C0.21,-0.502 0.141,-0.474 0.103,-0.406L0.103,-0.494L0.055,-0.494Z" style="fill-rule:nonzero;"/>
                    </g>
                    <g transform="matrix(12,0,0,12,625.665,215.53)">
                        <path d="M0.404,-0.458C0.366,-0.485 0.314,-0.503 0.264,-0.503C0.136,-0.503 0.032,-0.416 0.032,-0.262C0.032,-0.13 0.121,-0.023 0.264,-0.023C0.356,-0.023 0.451,0.019 0.451,0.125C0.451,0.23 0.363,0.274 0.264,0.274C0.165,0.274 0.079,0.226 0.079,0.125L0.03,0.125C0.03,0.25 0.133,0.322 0.264,0.322C0.395,0.322 0.499,0.258 0.499,0.125C0.499,0.04 0.451,-0.021 0.364,-0.052C0.446,-0.089 0.497,-0.176 0.497,-0.262C0.497,-0.342 0.471,-0.392 0.436,-0.43L0.484,-0.486L0.452,-0.514L0.404,-0.458ZM0.264,-0.454C0.366,-0.454 0.449,-0.387 0.449,-0.262C0.449,-0.16 0.366,-0.072 0.264,-0.072C0.151,-0.072 0.081,-0.16 0.081,-0.262C0.081,-0.391 0.163,-0.454 0.264,-0.454Z" style="fill-rule:nonzero;"/>
                    </g>
                </g>
            </g>
            <g transform="matrix(-2.45704,-1.69834,1.69834,-2.45704,1154.71,692.206)">
                <g>
                    <path d="M0,-36.157C-0.072,-36.514 -0.223,-36.794 -0.89,-37.086C-2.266,-37.692 -5.296,-37.054 -5.512,-37.035C-7.823,-36.583 -10.093,-35.934 -12.319,-35.137C-15.62,-33.955 -18.812,-32.448 -21.904,-30.868C-25.179,-29.155 -28.325,-27.252 -31.228,-25.053C-34.166,-22.826 -36.877,-20.335 -39.336,-17.621C-40.812,-15.99 -42.202,-14.283 -43.458,-12.475C-46.34,-8.326 -48.6,-3.772 -50.345,1.107C-50.406,1.248 -50.341,1.411 -50.2,1.473C-50.059,1.535 -49.894,1.471 -49.832,1.329C-47.495,-3.142 -44.598,-7.136 -41.374,-10.855C-39.994,-12.443 -38.568,-13.979 -37.075,-15.454C-34.596,-17.899 -31.929,-20.145 -29.114,-22.235C-26.329,-24.303 -23.421,-26.244 -20.333,-27.931C-17.897,-29.297 -15.389,-30.601 -12.813,-31.744C-10.259,-32.875 -7.648,-33.853 -4.955,-34.524L-0.283,-35.896C-0.089,-36.003 0.021,-36.055 0,-36.157"/>
                </g>
            </g>
        </g>
    </g>
    <defs>
        <linearGradient id="_Linear1" x1="0" y1="0" x2="1" y2="0" gradientUnits="userSpaceOnUse" gradientTransform="matrix(501.137,161.399,-161.399,501.137,509.939,2568.05)"><stop offset="0" style="stop-color:rgb(0,116,255);stop-opacity:1"/><stop offset="0.43" style="stop-color:rgb(0,158,198);stop-opacity:1"/><stop offset="1" style="stop-color:rgb(0,255,69);stop-opacity:1"/></linearGradient>
        <linearGradient id="_Linear2" x1="0" y1="0" x2="1" y2="0" gradientUnits="userSpaceOnUse" gradientTransform="matrix(501.137,161.399,-161.399,501.137,509.939,2568.05)"><stop offset="0" style="stop-color:rgb(0,116,255);stop-opacity:1"/><stop offset="0.43" style="stop-color:rgb(0,158,198);stop-opacity:1"/><stop offset="1" style="stop-color:rgb(0,255,69);stop-opacity:1"/></linearGradient>
        <linearGradient id="_Linear3" x1="0" y1="0" x2="1" y2="0" gradientUnits="userSpaceOnUse" gradientTransform="matrix(501.137,161.399,-161.399,501.137,509.939,2568.05)"><stop offset="0" style="stop-color:rgb(0,116,255);stop-opacity:1"/><stop offset="0.43" style="stop-color:rgb(0,158,198);stop-opacity:1"/><stop offset="1" style="stop-color:rgb(0,255,69);stop-opacity:1"/></linearGradient>
        <linearGradient id="_Linear4" x1="0" y1="0" x2="1" y2="0" gradientUnits="userSpaceOnUse" gradientTransform="matrix(501.137,161.399,-161.399,501.137,509.939,2568.05)"><stop offset="0" style="stop-color:rgb(0,116,255);stop-opacity:1"/><stop offset="0.43" style="stop-color:rgb(0,158,198);stop-opacity:1"/><stop offset="1" style="stop-color:rgb(0,255,69);stop-opacity:1"/></linearGradient>
        <linearGradient id="_Linear5" x1="0" y1="0" x2="1" y2="0" gradientUnits="userSpaceOnUse" gradientTransform="matrix(501.137,161.399,-161.399,501.137,509.939,2568.05)"><stop offset="0" style="stop-color:rgb(0,116,255);stop-opacity:1"/><stop offset="0.43" style="stop-color:rgb(0,158,198);stop-opacity:1"/><stop offset="1" style="stop-color:rgb(0,255,69);stop-opacity:1"/></linearGradient>
        <linearGradient id="_Linear6" x1="0" y1="0" x2="1" y2="0" gradientUnits="userSpaceOnUse" gradientTransform="matrix(5.71942,6.82428,-13.1901,13.9839,610.286,209.825)"><stop offset="0" style="stop-color:rgb(0,116,255);stop-opacity:1"/><stop offset="1" style="stop-color:rgb(0,255,69);stop-opacity:1"/></linearGradient>
    </defs>
</svg>
