<svg width="66" height="66" viewBox="0 0 66 66" fill="none" xmlns="http://www.w3.org/2000/svg">
<circle opacity="0.2" cx="33" cy="33" r="33" fill="#FFA92C"/>
<g clip-path="url(#clip0_1_23870)">
<path d="M40.5 27H25.5C23.85 27 22.5 28.35 22.5 30V45C22.5 46.65 23.85 48 25.5 48H40.5C42.15 48 43.5 46.65 43.5 45V30C43.5 28.35 42.15 27 40.5 27ZM34.5 45.75H31.5V43.5H34.5V45.75ZM34.5 42H31.5C31.5 39.75 27.75 37.5 27.75 34.5C27.75 31.605 30.105 29.25 33 29.25C35.895 29.25 38.25 31.605 38.25 34.5C38.25 37.5 34.5 39.75 34.5 42ZM42 24.75H24C24 23.505 25.005 22.5 26.25 22.5H39.75C40.995 22.5 42 23.505 42 24.75ZM40.5 20.25H25.5C25.5 19.005 26.505 18 27.75 18H38.25C39.495 18 40.5 19.005 40.5 20.25Z" fill="#FFA92C"/>
</g>
<defs>
<clipPath id="clip0_1_23870">
<rect width="36" height="36" fill="white" transform="translate(15 15)"/>
</clipPath>
</defs>
</svg>
