<svg width="66" height="66" viewBox="0 0 66 66" fill="none" xmlns="http://www.w3.org/2000/svg">
<circle opacity="0.2" cx="33" cy="33" r="33" fill="#FF635F"/>
<g clip-path="url(#clip0_1_23876)">
<path d="M46.6627 19.6583H19.6627C18.0127 19.6583 16.6627 21.0083 16.6627 22.6583V40.6583C16.6627 42.3083 18.0127 43.6583 19.6627 43.6583H27.1627V45.1583C27.1627 45.9833 27.8377 46.6583 28.6627 46.6583H37.6627C38.4877 46.6583 39.1627 45.9833 39.1627 45.1583V43.6583H46.6627C48.3127 43.6583 49.6477 42.3083 49.6477 40.6583L49.6627 22.6583C49.6627 20.9933 48.3127 19.6583 46.6627 19.6583ZM45.1627 40.6583H21.1627C20.3377 40.6583 19.6627 39.9833 19.6627 39.1583V24.1583C19.6627 23.3333 20.3377 22.6583 21.1627 22.6583H45.1627C45.9877 22.6583 46.6627 23.3333 46.6627 24.1583V39.1583C46.6627 39.9833 45.9877 40.6583 45.1627 40.6583ZM36.8827 32.9633L30.9127 36.3833C29.9077 36.9533 28.6627 36.2183 28.6627 35.0783V28.2383C28.6627 27.0833 29.9077 26.3633 30.9127 26.9333L36.8827 30.3533C37.8877 30.9383 37.8877 32.3783 36.8827 32.9633Z" fill="#FF635F"/>
</g>
<defs>
<clipPath id="clip0_1_23876">
<rect width="36" height="36" fill="white" transform="translate(15.1621 15.1602)"/>
</clipPath>
</defs>
</svg>
