<svg width="66" height="66" viewBox="0 0 66 66" fill="none" xmlns="http://www.w3.org/2000/svg">
<circle opacity="0.2" cx="33" cy="33" r="33" fill="#007EF2"/>
<g clip-path="url(#clip0_1_23892)">
<path d="M21 34.5H30C30.825 34.5 31.5 33.825 31.5 33V21C31.5 20.175 30.825 19.5 30 19.5H21C20.175 19.5 19.5 20.175 19.5 21V33C19.5 33.825 20.175 34.5 21 34.5ZM21 46.5H30C30.825 46.5 31.5 45.825 31.5 45V39C31.5 38.175 30.825 37.5 30 37.5H21C20.175 37.5 19.5 38.175 19.5 39V45C19.5 45.825 20.175 46.5 21 46.5ZM36 46.5H45C45.825 46.5 46.5 45.825 46.5 45V33C46.5 32.175 45.825 31.5 45 31.5H36C35.175 31.5 34.5 32.175 34.5 33V45C34.5 45.825 35.175 46.5 36 46.5ZM34.5 21V27C34.5 27.825 35.175 28.5 36 28.5H45C45.825 28.5 46.5 27.825 46.5 27V21C46.5 20.175 45.825 19.5 45 19.5H36C35.175 19.5 34.5 20.175 34.5 21Z" fill="#007EF2"/>
</g>
<defs>
<clipPath id="clip0_1_23892">
<rect width="36" height="36" fill="white" transform="translate(15 15)"/>
</clipPath>
</defs>
</svg>
