<svg width="66" height="66" viewBox="0 0 66 66" fill="none" xmlns="http://www.w3.org/2000/svg">
<circle opacity="0.2" cx="33" cy="33" r="33" fill="#FFA92C"/>
<g clip-path="url(#clip0_1_23903)">
<path opacity="0.3" d="M43.5 22.5H22.5V43.5H43.5V22.5ZM33 24C35.475 24 37.5 26.025 37.5 28.5C37.5 30.975 35.475 33 33 33C30.525 33 28.5 30.975 28.5 28.5C28.5 26.025 30.525 24 33 24ZM42 42H24V39.705C24 35.955 29.955 34.335 33 34.335C36.045 34.335 42 35.955 42 39.705V42Z" fill="#FFA92C"/>
<path d="M45.99 20.82C45.78 20.505 45.495 20.22 45.18 20.01C45.015 19.905 44.85 19.815 44.67 19.74C44.31 19.59 43.92 19.5 43.5 19.5H37.23C36.6 17.76 34.95 16.5 33 16.5C31.05 16.5 29.4 17.76 28.77 19.5H22.5C20.85 19.5 19.5 20.85 19.5 22.5V43.5C19.5 45.15 20.85 46.5 22.5 46.5H43.5C43.92 46.5 44.31 46.41 44.67 46.26C44.85 46.185 45.015 46.095 45.18 45.99C45.495 45.78 45.78 45.495 45.99 45.18C46.305 44.7 46.5 44.115 46.5 43.5V22.5C46.5 21.885 46.305 21.3 45.99 20.82ZM33 19.125C33.33 19.125 33.615 19.275 33.825 19.5C34.005 19.695 34.125 19.965 34.125 20.25C34.125 20.865 33.615 21.375 33 21.375C32.385 21.375 31.875 20.865 31.875 20.25C31.875 19.965 31.995 19.695 32.175 19.5C32.385 19.275 32.67 19.125 33 19.125ZM43.5 43.5H22.5V22.5H43.5V43.5ZM33 33C35.475 33 37.5 30.975 37.5 28.5C37.5 26.025 35.475 24 33 24C30.525 24 28.5 26.025 28.5 28.5C28.5 30.975 30.525 33 33 33ZM33 30C32.175 30 31.5 29.325 31.5 28.5C31.5 27.675 32.175 27 33 27C33.825 27 34.5 27.675 34.5 28.5C34.5 29.325 33.825 30 33 30ZM33 34.32C29.955 34.32 24 35.94 24 39.69V42H42V39.705C42 35.94 36.045 34.32 33 34.32ZM27.465 39C28.5 38.16 31.035 37.32 33 37.32C34.965 37.32 37.515 38.16 38.535 39H27.465Z" fill="#FFA92C"/>
</g>
<defs>
<clipPath id="clip0_1_23903">
<rect width="36" height="36" fill="white" transform="translate(15 15)"/>
</clipPath>
</defs>
</svg>
