<svg width="66" height="66" viewBox="0 0 66 66" fill="none" xmlns="http://www.w3.org/2000/svg">
<circle opacity="0.2" cx="33" cy="33" r="33" fill="#FF635F"/>
<g clip-path="url(#clip0_1_23909)">
<path d="M31.5 36H28.5C28.5 28.545 34.545 22.5 42 22.5V25.5C36.195 25.5 31.5 30.195 31.5 36ZM42 31.5V28.5C37.86 28.5 34.5 31.86 34.5 36H37.5C37.5 33.51 39.51 31.5 42 31.5ZM25.5 21C25.5 19.335 24.165 18 22.5 18C20.835 18 19.5 19.335 19.5 21C19.5 22.665 20.835 24 22.5 24C24.165 24 25.5 22.665 25.5 21ZM32.175 21.75H29.175C28.815 23.88 26.985 25.5 24.75 25.5H20.25C19.005 25.5 18 26.505 18 27.75V31.5H27V28.11C29.79 27.225 31.875 24.765 32.175 21.75ZM43.5 40.5C45.165 40.5 46.5 39.165 46.5 37.5C46.5 35.835 45.165 34.5 43.5 34.5C41.835 34.5 40.5 35.835 40.5 37.5C40.5 39.165 41.835 40.5 43.5 40.5ZM45.75 42H41.25C39.015 42 37.185 40.38 36.825 38.25H33.825C34.125 41.265 36.21 43.725 39 44.61V48H48V44.25C48 43.005 46.995 42 45.75 42Z" fill="#FF635F"/>
</g>
<defs>
<clipPath id="clip0_1_23909">
<rect width="36" height="36" fill="white" transform="translate(15 15)"/>
</clipPath>
</defs>
</svg>
