<svg width="42" height="42" viewBox="0 0 42 42" fill="none" xmlns="http://www.w3.org/2000/svg">
<rect width="42" height="42" rx="8" fill="white"/>
<path d="M29.1308 25.8125L26.6467 21.5225C27.155 20.5889 27.4198 19.5422 27.4167 18.4792C27.4167 16.7774 26.7406 15.1453 25.5373 13.9419C24.3339 12.7385 22.7018 12.0625 21 12.0625C19.2982 12.0625 17.6661 12.7385 16.4627 13.9419C15.2594 15.1453 14.5833 16.7774 14.5833 18.4792C14.5802 19.5422 14.845 20.5889 15.3533 21.5225L12.8692 25.8125C12.7885 25.9521 12.7462 26.1105 12.7463 26.2717C12.7465 26.433 12.7892 26.5913 12.8701 26.7307C12.9509 26.8702 13.0672 26.9859 13.207 27.0661C13.3469 27.1463 13.5054 27.1881 13.6667 27.1875H16.2975L17.6358 29.4425C17.6809 29.5172 17.7365 29.5851 17.8008 29.6442C17.9707 29.808 18.1973 29.8999 18.4333 29.9008H18.5617C18.7 29.8819 18.8323 29.8316 18.9482 29.7537C19.0642 29.6759 19.1609 29.5726 19.2308 29.4517L21 26.4083L22.7692 29.4792C22.8401 29.5984 22.9372 29.6999 23.0531 29.7761C23.1691 29.8523 23.3008 29.9012 23.4383 29.9192H23.5667C23.8058 29.9206 24.0361 29.8285 24.2083 29.6625C24.27 29.6068 24.3225 29.5419 24.3642 29.47L25.7025 27.215H28.3333C28.4948 27.2156 28.6537 27.1736 28.7937 27.0931C28.9338 27.0126 29.0501 26.8966 29.1308 26.7567C29.2165 26.6141 29.2617 26.4509 29.2617 26.2846C29.2617 26.1183 29.2165 25.9551 29.1308 25.8125ZM18.4242 27.215L17.6083 25.8492C17.528 25.7137 17.4141 25.6011 17.2776 25.5225C17.1411 25.4438 16.9867 25.4016 16.8292 25.4H15.2433L16.5542 23.1267C17.4568 23.9965 18.5945 24.5828 19.8267 24.8133L18.4242 27.215ZM21 23.0625C20.0935 23.0625 19.2073 22.7937 18.4536 22.2901C17.6999 21.7864 17.1124 21.0706 16.7655 20.2331C16.4186 19.3956 16.3279 18.4741 16.5047 17.585C16.6816 16.6959 17.1181 15.8793 17.7591 15.2383C18.4001 14.5973 19.2167 14.1607 20.1058 13.9839C20.9949 13.8071 21.9165 13.8978 22.754 14.2447C23.5914 14.5916 24.3073 15.1791 24.8109 15.9328C25.3145 16.6865 25.5833 17.5727 25.5833 18.4792C25.5833 19.6947 25.1004 20.8605 24.2409 21.7201C23.3813 22.5796 22.2156 23.0625 21 23.0625ZM25.1708 25.4C25.0133 25.4016 24.8588 25.4438 24.7224 25.5225C24.5859 25.6011 24.472 25.7137 24.3917 25.8492L23.5758 27.215L22.1825 24.7858C23.4103 24.5506 24.5438 23.9648 25.4458 23.0992L26.7567 25.3725L25.1708 25.4Z" fill="#8491A5"/>
</svg>
