<svg width="40" height="40" viewBox="0 0 40 40" fill="none" xmlns="http://www.w3.org/2000/svg">
<rect width="40" height="40" rx="8" fill="white"/>
<path d="M14.1667 27.5C13.7083 27.5 13.3158 27.3369 12.9892 27.0108C12.6631 26.6842 12.5 26.2917 12.5 25.8333V14.1667C12.5 13.7083 12.6631 13.3158 12.9892 12.9892C13.3158 12.6631 13.7083 12.5 14.1667 12.5H21.6667V14.1667H14.1667V25.8333H25.8333V18.3333H27.5V25.8333C27.5 26.2917 27.3369 26.6842 27.0108 27.0108C26.6842 27.3369 26.2917 27.5 25.8333 27.5H14.1667ZM16.6667 24.1667V22.5H23.3333V24.1667H16.6667ZM16.6667 21.6667V20H23.3333V21.6667H16.6667ZM16.6667 19.1667V17.5H23.3333V19.1667H16.6667ZM24.1667 17.5V15.8333H22.5V14.1667H24.1667V12.5H25.8333V14.1667H27.5V15.8333H25.8333V17.5H24.1667Z" fill="#8491A5"/>
</svg>
