<svg width="42" height="42" viewBox="0 0 42 42" fill="none" xmlns="http://www.w3.org/2000/svg">
<rect width="42" height="42" rx="8" fill="white"/>
<path d="M27.4166 21.9166C27.1735 21.9166 26.9404 22.0131 26.7685 22.1851C26.5966 22.357 26.5 22.5901 26.5 22.8332V23.1816L25.1433 21.8249C24.6643 21.3497 24.0168 21.083 23.3421 21.083C22.6673 21.083 22.0198 21.3497 21.5408 21.8249L20.8991 22.4666L18.6258 20.1932C18.1401 19.7309 17.4952 19.473 16.8246 19.473C16.154 19.473 15.509 19.7309 15.0233 20.1932L13.6666 21.5499V16.4166C13.6666 16.1735 13.7632 15.9403 13.9351 15.7684C14.107 15.5965 14.3402 15.4999 14.5833 15.4999H21C21.2431 15.4999 21.4763 15.4033 21.6482 15.2314C21.8201 15.0595 21.9166 14.8264 21.9166 14.5832C21.9166 14.3401 21.8201 14.107 21.6482 13.9351C21.4763 13.7631 21.2431 13.6666 21 13.6666H14.5833C13.854 13.6666 13.1545 13.9563 12.6388 14.472C12.123 14.9878 11.8333 15.6872 11.8333 16.4166V27.4166C11.8333 28.1459 12.123 28.8454 12.6388 29.3611C13.1545 29.8768 13.854 30.1666 14.5833 30.1666H25.5833C26.3127 30.1666 27.0121 29.8768 27.5279 29.3611C28.0436 28.8454 28.3333 28.1459 28.3333 27.4166V22.8332C28.3333 22.5901 28.2367 22.357 28.0648 22.1851C27.8929 22.0131 27.6598 21.9166 27.4166 21.9166ZM14.5833 28.3332C14.3402 28.3332 14.107 28.2367 13.9351 28.0648C13.7632 27.8928 13.6666 27.6597 13.6666 27.4166V24.1441L16.325 21.4857C16.4596 21.3574 16.6385 21.2858 16.8246 21.2858C17.0106 21.2858 17.1895 21.3574 17.3241 21.4857L20.23 24.3916L24.1716 28.3332H14.5833ZM26.5 27.4166C26.4987 27.592 26.4408 27.7624 26.335 27.9024L22.2008 23.7499L22.8425 23.1082C22.9082 23.0412 22.9866 22.9879 23.0732 22.9515C23.1598 22.9151 23.2527 22.8964 23.3466 22.8964C23.4406 22.8964 23.5335 22.9151 23.6201 22.9515C23.7067 22.9879 23.7851 23.0412 23.8508 23.1082L26.5 25.7757V27.4166ZM30.8175 13.9324L28.0675 11.1824C27.9803 11.099 27.8775 11.0335 27.765 10.9899C27.5418 10.8982 27.2915 10.8982 27.0683 10.9899C26.9558 11.0335 26.853 11.099 26.7658 11.1824L24.0158 13.9324C23.8432 14.105 23.7462 14.3391 23.7462 14.5832C23.7462 14.8273 23.8432 15.0615 24.0158 15.2341C24.1884 15.4067 24.4225 15.5037 24.6666 15.5037C24.9108 15.5037 25.1449 15.4067 25.3175 15.2341L26.5 14.0424V19.1666C26.5 19.4097 26.5966 19.6428 26.7685 19.8148C26.9404 19.9867 27.1735 20.0832 27.4166 20.0832C27.6598 20.0832 27.8929 19.9867 28.0648 19.8148C28.2367 19.6428 28.3333 19.4097 28.3333 19.1666V14.0424L29.5158 15.2341C29.601 15.32 29.7024 15.3882 29.8141 15.4347C29.9258 15.4813 30.0456 15.5052 30.1666 15.5052C30.2877 15.5052 30.4075 15.4813 30.5192 15.4347C30.6309 15.3882 30.7323 15.32 30.8175 15.2341C30.9034 15.1489 30.9716 15.0475 31.0181 14.9358C31.0647 14.8241 31.0886 14.7042 31.0886 14.5832C31.0886 14.4622 31.0647 14.3424 31.0181 14.2307C30.9716 14.119 30.9034 14.0176 30.8175 13.9324Z" fill="#8491A5"/>
</svg>
