<svg width="40" height="40" viewBox="0 0 40 40" fill="none" xmlns="http://www.w3.org/2000/svg">
<rect width="40" height="40" rx="8" fill="white"/>
<g clip-path="url(#clip0_2867_2232)">
<path d="M25.8333 14.1667V25.8333H14.1667V14.1667H25.8333ZM25.8333 12.5H14.1667C13.25 12.5 12.5 13.25 12.5 14.1667V25.8333C12.5 26.75 13.25 27.5 14.1667 27.5H25.8333C26.75 27.5 27.5 26.75 27.5 25.8333V14.1667C27.5 13.25 26.75 12.5 25.8333 12.5Z" fill="#8491A5"/>
<path d="M21.6666 24.1666H15.8333V22.4999H21.6666V24.1666ZM24.1666 20.8333H15.8333V19.1666H24.1666V20.8333ZM24.1666 17.4999H15.8333V15.8333H24.1666V17.4999Z" fill="#8491A5"/>
</g>
<defs>
<clipPath id="clip0_2867_2232">
<rect width="20" height="20" fill="white" transform="translate(10 10)"/>
</clipPath>
</defs>
</svg>
