<svg width="40" height="40" viewBox="0 0 40 40" fill="none" xmlns="http://www.w3.org/2000/svg">
<rect width="40" height="40" rx="8" fill="white"/>
<path d="M25.8334 12.5C27.2141 12.5 28.3334 13.6193 28.3334 15V23.3333C28.3334 24.7141 27.2141 25.8333 25.8334 25.8333H16.1111L13.3334 27.9167C12.6467 28.4317 11.6667 27.9418 11.6667 27.0833V15C11.6667 13.6193 12.786 12.5 14.1667 12.5H25.8334ZM25.8334 14.1667H14.1667C13.7065 14.1667 13.3334 14.5398 13.3334 15V25.8333L15.1111 24.5C15.3996 24.2837 15.7505 24.1667 16.1111 24.1667H25.8334C26.2936 24.1667 26.6667 23.7936 26.6667 23.3333V15C26.6667 14.5398 26.2936 14.1667 25.8334 14.1667ZM19.1667 20C19.6269 20 20 20.3731 20 20.8333C20 21.2607 19.6783 21.6129 19.2639 21.6611L19.1667 21.6667H16.6667C16.2065 21.6667 15.8334 21.2936 15.8334 20.8333C15.8334 20.406 16.1551 20.0537 16.5695 20.0056L16.6667 20H19.1667ZM23.3334 16.6667C23.7936 16.6667 24.1667 17.0398 24.1667 17.5C24.1667 17.9602 23.7936 18.3333 23.3334 18.3333H16.6667C16.2065 18.3333 15.8334 17.9602 15.8334 17.5C15.8334 17.0398 16.2065 16.6667 16.6667 16.6667H23.3334Z" fill="#8491A5"/>
</svg>
