<svg width="40" height="40" viewBox="0 0 40 40" fill="none" xmlns="http://www.w3.org/2000/svg">
<rect width="40" height="40" rx="8" fill="white"/>
<g clip-path="url(#clip0_2461_2078)">
<path d="M27.8417 19.65L20.3417 12.15C20.0417 11.85 19.625 11.6666 19.1667 11.6666H13.3334C12.4167 11.6666 11.6667 12.4166 11.6667 13.3333V19.1666C11.6667 19.625 11.85 20.0416 12.1584 20.35L19.6584 27.85C19.9584 28.15 20.375 28.3333 20.8334 28.3333C21.2917 28.3333 21.7084 28.15 22.0084 27.8416L27.8417 22.0083C28.15 21.7083 28.3334 21.2916 28.3334 20.8333C28.3334 20.375 28.1417 19.95 27.8417 19.65ZM20.8334 26.675L13.3334 19.1666V13.3333H19.1667V13.325L26.6667 20.825L20.8334 26.675Z" fill="#8491A5"/>
<path d="M15.4167 16.6666C16.107 16.6666 16.6667 16.107 16.6667 15.4166C16.6667 14.7263 16.107 14.1666 15.4167 14.1666C14.7263 14.1666 14.1667 14.7263 14.1667 15.4166C14.1667 16.107 14.7263 16.6666 15.4167 16.6666Z" fill="#8491A5"/>
</g>
<defs>
<clipPath id="clip0_2461_2078">
<rect width="20" height="20" fill="white" transform="translate(10 10)"/>
</clipPath>
</defs>
</svg>
