<svg width="40" height="40" viewBox="0 0 40 40" fill="none" xmlns="http://www.w3.org/2000/svg">
<rect width="40" height="40" rx="8" fill="white"/>
<path d="M15 26.6666H20.8333V28.3333H15C14.075 28.3333 13.3333 27.5916 13.3333 26.6666V13.3333C13.3333 12.8913 13.5089 12.4673 13.8215 12.1548C14.134 11.8422 14.558 11.6666 15 11.6666H25C25.442 11.6666 25.8659 11.8422 26.1785 12.1548C26.4911 12.4673 26.6666 12.8913 26.6666 13.3333V20.45L25.4166 19.7666L25 20V13.3333H20.8333V20L18.75 18.125L16.6666 20V13.3333H15V26.6666ZM30 24.1666L25.4166 21.6666L20.8333 24.1666L25.4166 26.6666L30 24.1666ZM22.5 25.9083V27.575L25.4166 29.1666L28.3333 27.575V25.9083L25.4166 27.5L22.5 25.9083Z" fill="#8491A5"/>
</svg>
