<svg width="44" height="44" viewBox="0 0 44 44" fill="none" xmlns="http://www.w3.org/2000/svg">
<rect width="44" height="44" rx="8" fill="white"/>
<path d="M19 15H25L22 18L19 15ZM20.5 24.66C20.2 25 20 25.5 20 26C20 26.5304 20.2107 27.0391 20.5858 27.4142C20.9609 27.7893 21.4696 28 22 28C22.5304 28 23.0391 27.7893 23.4142 27.4142C23.7893 27.0391 24 26.5304 24 26C24 25.45 23.78 24.95 23.41 24.59L24.83 23.17C25.55 23.9 26 24.9 26 26C26 27.0609 25.5786 28.0783 24.8284 28.8284C24.0783 29.5786 23.0609 30 22 30C20.9391 30 19.9217 29.5786 19.1716 28.8284C18.4214 28.0783 18 27.0609 18 26C18 24.93 18.42 23.96 19.1 23.25L19.09 23.24L26.17 16.17C26.5414 15.7982 26.9826 15.5035 27.4683 15.3027C27.9539 15.1019 28.4745 14.999 29 15C30.0609 15 31.0783 15.4214 31.8284 16.1716C32.5786 16.9217 33 17.9391 33 19C33 20.0609 32.5786 21.0783 31.8284 21.8284C31.0783 22.5786 30.0609 23 29 23C27.9 23 26.9 22.55 26.17 21.83L27.59 20.41C27.95 20.78 28.45 21 29 21C29.5304 21 30.0391 20.7893 30.4142 20.4142C30.7893 20.0391 31 19.5304 31 19C31 18.4696 30.7893 17.9609 30.4142 17.5858C30.0391 17.2107 29.5304 17 29 17C28.45 17 27.95 17.22 27.59 17.59L20.5 24.66ZM16.41 17.59C16.05 17.22 15.55 17 15 17C14.4696 17 13.9609 17.2107 13.5858 17.5858C13.2107 17.9609 13 18.4696 13 19C13 19.5304 13.2107 20.0391 13.5858 20.4142C13.9609 20.7893 14.4696 21 15 21C15.55 21 16.05 20.78 16.41 20.41L17.83 21.83C17.1 22.55 16.1 23 15 23C13.9391 23 12.9217 22.5786 12.1716 21.8284C11.4214 21.0783 11 20.0609 11 19C11 17.9391 11.4214 16.9217 12.1716 16.1716C12.9217 15.4214 13.9391 15 15 15C16.11 15 17.11 15.45 17.83 16.17L20.59 18.93L19.17 20.35L16.41 17.59Z" fill="#8491A5"/>
</svg>
