<svg width="42" height="42" viewBox="0 0 42 42" fill="none" xmlns="http://www.w3.org/2000/svg">
<rect width="42" height="42" rx="8" fill="white"/>
<path d="M19.1666 11.8333C18.1491 11.8333 17.3333 12.6491 17.3333 13.6666V16.4166C17.3333 17.4341 18.1491 18.2499 19.1666 18.2499H20.0833V20.0833H11.8333V21.9166H15.5V23.7499H14.5833C13.5658 23.7499 12.75 24.5658 12.75 25.5833V28.3333C12.75 29.3508 13.5658 30.1666 14.5833 30.1666H18.25C19.2675 30.1666 20.0833 29.3508 20.0833 28.3333V25.5833C20.0833 24.5658 19.2675 23.7499 18.25 23.7499H17.3333V21.9166H24.6666V23.7499H23.75C22.7325 23.7499 21.9166 24.5658 21.9166 25.5833V28.3333C21.9166 29.3508 22.7325 30.1666 23.75 30.1666H27.4166C28.4341 30.1666 29.25 29.3508 29.25 28.3333V25.5833C29.25 24.5658 28.4341 23.7499 27.4166 23.7499H26.5V21.9166H30.1666V20.0833H21.9166V18.2499H22.8333C23.8508 18.2499 24.6666 17.4341 24.6666 16.4166V13.6666C24.6666 12.6491 23.8508 11.8333 22.8333 11.8333H19.1666ZM19.1666 13.6666H22.8333V16.4166H19.1666V13.6666ZM14.5833 25.5833H18.25V28.3333H14.5833V25.5833ZM23.75 25.5833H27.4166V28.3333H23.75V25.5833Z" fill="#8491A5"/>
</svg>
