<svg width="42" height="42" viewBox="0 0 42 42" fill="none" xmlns="http://www.w3.org/2000/svg">
<rect width="42" height="42" rx="8" fill="white"/>
<path d="M30.1796 12H11.8205C11.5829 12.0003 11.3551 12.0948 11.1872 12.2628C11.0193 12.4308 10.9248 12.6586 10.9247 12.8962V24.6778C10.9248 24.9154 11.0193 25.1432 11.1872 25.3112C11.3551 25.4792 11.5829 25.5737 11.8205 25.574H19.3208V28.0928H17.0611C16.9497 28.0928 16.843 28.1371 16.7642 28.2158C16.6855 28.2945 16.6413 28.4013 16.6413 28.5126C16.6413 28.624 16.6855 28.7308 16.7642 28.8095C16.843 28.8882 16.9497 28.9325 17.0611 28.9325H25.1075C25.2188 28.9325 25.3256 28.8882 25.4043 28.8095C25.4831 28.7308 25.5273 28.624 25.5273 28.5126C25.5273 28.4013 25.4831 28.2945 25.4043 28.2158C25.3256 28.1371 25.2188 28.0928 25.1075 28.0928H22.6792V25.574H30.1796C30.4172 25.5737 30.6449 25.4792 30.8129 25.3112C30.9808 25.1432 31.0752 24.9154 31.0754 24.6778V12.8962C31.0752 12.6586 30.9808 12.4308 30.8129 12.2628C30.6449 12.0948 30.4172 12.0003 30.1796 12ZM30.2358 12.8962V22.4951H21.4198V12.8396H30.1796C30.187 12.8396 30.1943 12.8411 30.2012 12.844C30.208 12.8468 30.2142 12.851 30.2194 12.8563C30.2246 12.8615 30.2288 12.8678 30.2316 12.8746C30.2344 12.8815 30.2358 12.8888 30.2358 12.8962ZM11.8205 12.8396H20.5802V22.4951H11.7667L11.8205 12.8396ZM21.8396 28.0928H20.1604V25.574H21.8396V28.0928ZM30.2227 24.7344L11.7643 24.6778V23.3344H30.2227V24.7344Z" fill="#8491A5"/>
<path d="M18.0483 18.2272C18.3434 17.9126 18.5401 17.5186 18.6141 17.0936C18.6881 16.6687 18.6362 16.2314 18.4648 15.8355C18.2933 15.4397 18.0099 15.1026 17.6493 14.8659C17.2888 14.6291 16.8668 14.5029 16.4355 14.5029C16.0041 14.5029 15.5822 14.6291 15.2216 14.8659C14.8611 15.1026 14.5776 15.4397 14.4062 15.8355C14.2348 16.2314 14.1829 16.6687 14.2569 17.0936C14.3309 17.5186 14.5276 17.9126 14.8227 18.2272C14.3928 18.5097 14.0385 18.893 13.7907 19.3437C13.5429 19.7945 13.4091 20.299 13.4009 20.8132C13.4009 20.9246 13.4451 21.0314 13.5238 21.1101C13.6026 21.1888 13.7093 21.2331 13.8207 21.2331H19.0502C19.1615 21.2331 19.2683 21.1888 19.3471 21.1101C19.4258 21.0314 19.47 20.9246 19.47 20.8132C19.4617 20.299 19.3279 19.7945 19.0801 19.3438C18.8323 18.8931 18.4781 18.5098 18.0483 18.2272ZM14.2893 20.3934C14.3512 20.0104 14.5232 19.6537 14.7843 19.3668C15.0454 19.0798 15.3844 18.875 15.7599 18.7774C15.8524 18.7685 15.9393 18.7292 16.0072 18.6656C16.075 18.602 16.1198 18.5178 16.1346 18.426C16.1494 18.3342 16.1334 18.2402 16.089 18.1585C16.0446 18.0768 15.9744 18.0121 15.8894 17.9746C15.6 17.849 15.3626 17.6276 15.2174 17.3475C15.0721 17.0674 15.0278 16.7458 15.0919 16.4369C15.1561 16.128 15.3247 15.8506 15.5694 15.6515C15.8141 15.4523 16.12 15.3436 16.4355 15.3436C16.751 15.3436 17.0569 15.4523 17.3016 15.6515C17.5463 15.8506 17.7149 16.128 17.779 16.4369C17.8432 16.7458 17.7989 17.0674 17.6536 17.3475C17.5083 17.6276 17.271 17.849 16.9816 17.9746C16.8965 18.0121 16.8263 18.0768 16.782 18.1585C16.7376 18.2402 16.7216 18.3342 16.7364 18.426C16.7512 18.5178 16.796 18.602 16.8638 18.6656C16.9316 18.7292 17.0186 18.7685 17.1111 18.7774C17.4867 18.875 17.8257 19.0797 18.0869 19.3667C18.348 19.6537 18.5201 20.0105 18.582 20.3935L14.2893 20.3934Z" fill="#8491A5"/>
<path d="M22.9756 20.8132C22.9756 20.9246 23.0198 21.0314 23.0985 21.1101C23.1773 21.1888 23.2841 21.2331 23.3954 21.2331H28.6249C28.7363 21.2331 28.843 21.1888 28.9218 21.1101C29.0005 21.0314 29.0447 20.9246 29.0447 20.8132C29.0365 20.299 28.9027 19.7945 28.6549 19.3437C28.4071 18.893 28.0529 18.5097 27.623 18.2272C27.9181 17.9126 28.1148 17.5186 28.1888 17.0936C28.2628 16.6687 28.2109 16.2314 28.0395 15.8355C27.868 15.4397 27.5846 15.1026 27.224 14.8659C26.8635 14.6291 26.4415 14.5029 26.0102 14.5029C25.5788 14.5029 25.1569 14.6291 24.7963 14.8659C24.4358 15.1026 24.1523 15.4397 23.9809 15.8355C23.8095 16.2314 23.7576 16.6687 23.8316 17.0936C23.9056 17.5186 24.1023 17.9126 24.3974 18.2272C23.9675 18.5097 23.6132 18.893 23.3654 19.3437C23.1176 19.7945 22.9838 20.299 22.9756 20.8132ZM25.3349 18.7774C25.4274 18.7685 25.5144 18.7292 25.5822 18.6656C25.65 18.602 25.6948 18.5178 25.7096 18.426C25.7244 18.3342 25.7084 18.2402 25.664 18.1585C25.6197 18.0768 25.5495 18.0121 25.4644 17.9746C25.1751 17.849 24.9379 17.6276 24.7927 17.3476C24.6476 17.0676 24.6033 16.7462 24.6674 16.4374C24.7315 16.1286 24.9001 15.8513 25.1447 15.6522C25.3894 15.4532 25.6951 15.3445 26.0105 15.3445C26.3259 15.3445 26.6317 15.4532 26.8763 15.6522C27.121 15.8513 27.2895 16.1286 27.3536 16.4374C27.4178 16.7462 27.3735 17.0676 27.2283 17.3476C27.0832 17.6276 26.8459 17.849 26.5566 17.9746C26.4716 18.0121 26.4014 18.0768 26.357 18.1585C26.3127 18.2402 26.2966 18.3342 26.3114 18.426C26.3262 18.5178 26.3711 18.602 26.4389 18.6656C26.5067 18.7292 26.5936 18.7685 26.6862 18.7774C27.0616 18.875 27.4006 19.0798 27.6617 19.3668C27.9228 19.6537 28.0948 20.0104 28.1567 20.3934H23.864C23.9259 20.0104 24.0979 19.6537 24.359 19.3668C24.6201 19.0798 24.9594 18.875 25.3349 18.7774Z" fill="#8491A5"/>
</svg>
