<svg width="40" height="40" viewBox="0 0 40 40" fill="none" xmlns="http://www.w3.org/2000/svg">
<rect width="40" height="40" rx="8" fill="white"/>
<g clip-path="url(#clip0_1727_6646)">
<path d="M27.5 16.0667V14.1667C27.5 13.25 26.75 12.5 25.8333 12.5H14.1667C13.2417 12.5 12.5 13.25 12.5 14.1667V25.8333C12.5 26.75 13.2417 27.5 14.1667 27.5H25.8333C26.75 27.5 27.5 26.75 27.5 25.8333V23.9333C27.9917 23.6417 28.3333 23.1167 28.3333 22.5V17.5C28.3333 16.8833 27.9917 16.3583 27.5 16.0667ZM26.6667 17.5V22.5H20.8333V17.5H26.6667ZM14.1667 25.8333V14.1667H25.8333V15.8333H20.8333C19.9167 15.8333 19.1667 16.5833 19.1667 17.5V22.5C19.1667 23.4167 19.9167 24.1667 20.8333 24.1667H25.8333V25.8333H14.1667Z" fill="#8491A5"/>
<path d="M23.3333 21.25C24.0237 21.25 24.5833 20.6904 24.5833 20C24.5833 19.3096 24.0237 18.75 23.3333 18.75C22.643 18.75 22.0833 19.3096 22.0833 20C22.0833 20.6904 22.643 21.25 23.3333 21.25Z" fill="#8491A5"/>
</g>
<defs>
<clipPath id="clip0_1727_6646">
<rect width="20" height="20" fill="white" transform="translate(10 10)"/>
</clipPath>
</defs>
</svg>
