<svg width="42" height="42" viewBox="0 0 42 42" fill="none" xmlns="http://www.w3.org/2000/svg">
<rect width="42" height="42" rx="8" fill="white"/>
<path d="M19.1666 13.6667C18.1942 13.6667 17.2616 14.0531 16.5739 14.7407C15.8863 15.4283 15.5 16.361 15.5 17.3334C15.5 18.3059 15.8863 19.2385 16.5739 19.9261C17.2616 20.6138 18.1942 21.0001 19.1666 21.0001C20.1391 21.0001 21.0717 20.6138 21.7594 19.9261C22.447 19.2385 22.8333 18.3059 22.8333 17.3334C22.8333 16.361 22.447 15.4283 21.7594 14.7407C21.0717 14.0531 20.1391 13.6667 19.1666 13.6667ZM19.1666 15.5001C19.6529 15.5001 20.1192 15.6932 20.463 16.0371C20.8068 16.3809 21 16.8472 21 17.3334C21 17.8196 20.8068 18.286 20.463 18.6298C20.1192 18.9736 19.6529 19.1667 19.1666 19.1667C18.6804 19.1667 18.2141 18.9736 17.8703 18.6298C17.5265 18.286 17.3333 17.8196 17.3333 17.3334C17.3333 16.8472 17.5265 16.3809 17.8703 16.0371C18.2141 15.6932 18.6804 15.5001 19.1666 15.5001ZM19.1666 21.9167C16.7191 21.9167 11.8333 23.1359 11.8333 25.5834V28.3334H20.5416C20.3109 27.7779 20.1657 27.1907 20.1108 26.5917H13.575V25.5834C13.575 24.9967 16.4441 23.6584 19.1666 23.6584C19.625 23.6584 20.0833 23.7042 20.5416 23.7776C20.7769 23.1987 21.1017 22.6605 21.5041 22.1826C20.6425 22.0084 19.8175 21.9167 19.1666 21.9167ZM26.0416 21.9167C23.75 21.9167 21.9166 23.7501 21.9166 26.0417C21.9166 28.3334 23.75 30.1667 26.0416 30.1667C28.3333 30.1667 30.1666 28.3334 30.1666 26.0417C30.1666 23.7501 28.3333 21.9167 26.0416 21.9167ZM26.0416 23.2917C27.5633 23.2917 28.7916 24.5201 28.7916 26.0417C28.7916 26.5551 28.6541 27.0317 28.4066 27.4167L24.6666 23.6767C25.0516 23.4292 25.5283 23.2917 26.0416 23.2917ZM23.6766 24.6667L27.4166 28.4067C27.0316 28.6542 26.555 28.7917 26.0416 28.7917C24.52 28.7917 23.2916 27.5634 23.2916 26.0417C23.2916 25.5284 23.4291 25.0517 23.6766 24.6667Z" fill="#8491A5"/>
</svg>
