<svg width="42" height="42" viewBox="0 0 42 42" fill="none" xmlns="http://www.w3.org/2000/svg">
<rect width="42" height="42" rx="8" fill="white"/>
<path d="M20.0833 21.0001C19.075 21.0001 18.2118 20.6411 17.4938 19.923C16.7757 19.2049 16.4167 18.3417 16.4167 17.3334C16.4167 16.3251 16.7757 15.4619 17.4938 14.7438C18.2118 14.0258 19.075 13.6667 20.0833 13.6667C21.0917 13.6667 21.9549 14.0258 22.6729 14.7438C23.391 15.4619 23.75 16.3251 23.75 17.3334C23.75 18.3417 23.391 19.2049 22.6729 19.923C21.9549 20.6411 21.0917 21.0001 20.0833 21.0001ZM20.0833 19.1667C20.5875 19.1667 21.0193 18.9871 21.3786 18.6277C21.7379 18.2684 21.9173 17.837 21.9167 17.3334C21.9167 16.8292 21.737 16.3975 21.3777 16.0382C21.0183 15.6788 20.5869 15.4995 20.0833 15.5001C19.5792 15.5001 19.1474 15.6797 18.7881 16.0391C18.4288 16.3984 18.2494 16.8299 18.25 17.3334C18.25 17.8376 18.4297 18.2693 18.789 18.6287C19.1483 18.988 19.5798 19.1674 20.0833 19.1667ZM29.6167 30.9001L27.325 28.6084C27.0042 28.7917 26.6604 28.9445 26.2938 29.0667C25.9271 29.189 25.5375 29.2501 25.125 29.2501C23.9792 29.2501 23.0054 28.8489 22.2036 28.0465C21.4018 27.2441 21.0006 26.2703 21 25.1251C21 23.9792 21.4012 23.0051 22.2036 22.2027C23.006 21.4004 23.9798 20.9995 25.125 21.0001C26.2708 21.0001 27.2449 21.4013 28.0473 22.2037C28.8497 23.0061 29.2506 23.9799 29.25 25.1251C29.25 25.5376 29.1889 25.9272 29.0667 26.2938C28.9444 26.6605 28.7917 27.0042 28.6083 27.3251L30.9 29.6167C31.0681 29.7848 31.1521 29.9987 31.1521 30.2584C31.1521 30.5181 31.0681 30.732 30.9 30.9001C30.7319 31.0681 30.5181 31.1522 30.2583 31.1522C29.9986 31.1522 29.7847 31.0681 29.6167 30.9001ZM25.125 27.4167C25.7667 27.4167 26.309 27.1952 26.7521 26.7522C27.1951 26.3091 27.4167 25.7667 27.4167 25.1251C27.4167 24.4834 27.1951 23.9411 26.7521 23.498C26.309 23.0549 25.7667 22.8334 25.125 22.8334C24.4833 22.8334 23.941 23.0549 23.4979 23.498C23.0549 23.9411 22.8333 24.4834 22.8333 25.1251C22.8333 25.7667 23.0549 26.3091 23.4979 26.7522C23.941 27.1952 24.4833 27.4167 25.125 27.4167ZM20.1063 28.3334H14.5833C14.0792 28.3334 13.6474 28.1537 13.2881 27.7944C12.9288 27.4351 12.7494 27.0036 12.75 26.5001V25.7897C12.75 25.2702 12.8799 24.789 13.1396 24.3459C13.3993 23.9029 13.7583 23.5667 14.2167 23.3376C14.9958 22.9404 15.8743 22.6042 16.8521 22.3292C17.8299 22.0542 18.9146 21.9167 20.1063 21.9167C19.9229 22.1917 19.7662 22.486 19.636 22.7995C19.5058 23.113 19.4029 23.4375 19.3271 23.773C18.4104 23.8494 17.5931 24.0061 16.875 24.2432C16.1569 24.4804 15.5535 24.7285 15.0646 24.9876C14.9118 25.064 14.7933 25.1749 14.7089 25.3203C14.6246 25.4658 14.5827 25.6222 14.5833 25.7897V26.5001H19.3271C19.4035 26.8362 19.5068 27.157 19.6369 27.4626C19.7671 27.7681 19.9235 28.0584 20.1063 28.3334Z" fill="#8491A5"/>
</svg>
