<svg width="40" height="40" viewBox="0 0 40 40" fill="none" xmlns="http://www.w3.org/2000/svg">
<rect width="40" height="40" rx="8" fill="white"/>
<g clip-path="url(#clip0_7529_2944)">
<path d="M26.6665 13.3333H13.3332C12.4165 13.3333 11.6665 14.0833 11.6665 15V25C11.6665 25.9167 12.4165 26.6667 13.3332 26.6667H26.6665C27.5832 26.6667 28.3332 25.9167 28.3332 25V15C28.3332 14.0833 27.5832 13.3333 26.6665 13.3333ZM26.6665 25H13.3332V15H26.6665V25ZM13.3332 10H26.6665V11.6667H13.3332V10ZM13.3332 28.3333H26.6665V30H13.3332V28.3333ZM19.9998 20C21.1498 20 22.0832 19.0667 22.0832 17.9167C22.0832 16.7667 21.1498 15.8333 19.9998 15.8333C18.8498 15.8333 17.9165 16.7667 17.9165 17.9167C17.9165 19.0667 18.8498 20 19.9998 20ZM19.9998 17.0833C20.4582 17.0833 20.8332 17.4583 20.8332 17.9167C20.8332 18.375 20.4582 18.75 19.9998 18.75C19.5415 18.75 19.1665 18.375 19.1665 17.9167C19.1665 17.4583 19.5415 17.0833 19.9998 17.0833ZM24.1665 23.325C24.1665 21.5833 21.4082 20.8333 19.9998 20.8333C18.5915 20.8333 15.8332 21.5833 15.8332 23.325V24.1667H24.1665V23.325ZM17.3415 22.9167C17.8498 22.4833 19.0332 22.0833 19.9998 22.0833C20.9748 22.0833 22.1582 22.4833 22.6665 22.9167H17.3415Z" fill="#8491A5"/>
</g>
<defs>
<clipPath id="clip0_7529_2944">
<rect width="20" height="20" fill="white" transform="translate(10 10)"/>
</clipPath>
</defs>
</svg>
