<svg width="40" height="40" viewBox="0 0 40 40" fill="none" xmlns="http://www.w3.org/2000/svg">
<rect width="40" height="40" rx="8" fill="white"/>
<path d="M18.9769 12.2401C19.5411 11.8013 20.317 11.7738 20.9077 12.1578L21.0233 12.2401L28.0098 17.674C28.6112 18.1419 28.3182 19.0839 27.5944 19.1615L27.4976 19.1667H26.6668V25.8333C26.6668 26.712 25.9868 27.4318 25.1245 27.4954L25.0001 27.5H15.0001C14.1214 27.5 13.4016 26.8201 13.338 25.9577L13.3334 25.8333V19.1667H12.5025C11.7414 19.1667 11.3929 18.2437 11.917 17.7376L11.9904 17.674L18.9769 12.2401ZM20.0001 13.5557L14.6879 17.6874C14.8783 17.8417 15.0001 18.0775 15.0001 18.3417V25.8333H17.5001V21.6667C17.5001 20.2859 18.6194 19.1667 20.0001 19.1667C21.3808 19.1667 22.5001 20.2859 22.5001 21.6667V25.8333H25.0001V18.3417C25.0001 18.0775 25.1218 17.8417 25.3122 17.6874L20.0001 13.5557ZM20.0001 20.8333C19.5399 20.8333 19.1668 21.2064 19.1668 21.6667V25.8333H20.8334V21.6667C20.8334 21.2064 20.4603 20.8333 20.0001 20.8333Z" fill="#8491A5"/>
</svg>
