<svg width="42" height="42" viewBox="0 0 42 42" fill="none" xmlns="http://www.w3.org/2000/svg">
<rect width="42" height="42" rx="8" fill="white"/>
<path d="M28.7917 23.2917V24.6667H27.4167V23.2917H28.7917ZM26.9584 18.7084H25.5834V18.2501C25.5834 17.5207 25.8731 16.8213 26.3888 16.3055C26.9045 15.7898 27.604 15.5001 28.3334 15.5001C29.0627 15.5001 29.7622 15.7898 30.2779 16.3055C30.7936 16.8213 31.0834 17.5207 31.0834 18.2501C31.0834 19.1392 30.625 19.9734 29.9009 20.4592L29.6259 20.6334C29.1034 21.0001 28.7917 21.5592 28.7917 22.1917V22.3751H27.4167V22.1917C27.4167 21.1009 27.9667 20.0834 28.8742 19.4876L29.14 19.3134C29.4975 19.0751 29.7084 18.6809 29.7084 18.2501C29.7084 17.8854 29.5635 17.5357 29.3056 17.2778C29.0478 17.0199 28.698 16.8751 28.3334 16.8751C27.9687 16.8751 27.6189 17.0199 27.3611 17.2778C27.1032 17.5357 26.9584 17.8854 26.9584 18.2501V18.7084ZM18.25 21.9167C20.6975 21.9167 25.5834 23.1451 25.5834 25.5834V28.3334H10.9167V25.5834C10.9167 23.1451 15.8025 21.9167 18.25 21.9167ZM18.25 13.6667C19.2225 13.6667 20.1551 14.0531 20.8427 14.7407C21.5304 15.4283 21.9167 16.361 21.9167 17.3334C21.9167 18.3059 21.5304 19.2385 20.8427 19.9261C20.1551 20.6138 19.2225 21.0001 18.25 21.0001C17.2776 21.0001 16.3449 20.6138 15.6573 19.9261C14.9697 19.2385 14.5834 18.3059 14.5834 17.3334C14.5834 16.361 14.9697 15.4283 15.6573 14.7407C16.3449 14.0531 17.2776 13.6667 18.25 13.6667ZM18.25 23.6584C15.5275 23.6584 12.6584 24.9967 12.6584 25.5834V26.5917H23.8417V25.5834C23.8417 24.9967 20.9725 23.6584 18.25 23.6584ZM18.25 15.4084C17.7395 15.4084 17.2498 15.6112 16.8888 15.9722C16.5278 16.3332 16.325 16.8229 16.325 17.3334C16.325 17.844 16.5278 18.3336 16.8888 18.6946C17.2498 19.0556 17.7395 19.2584 18.25 19.2584C18.7606 19.2584 19.2502 19.0556 19.6112 18.6946C19.9722 18.3336 20.175 17.844 20.175 17.3334C20.175 16.8229 19.9722 16.3332 19.6112 15.9722C19.2502 15.6112 18.7606 15.4084 18.25 15.4084Z" fill="#8491A5"/>
</svg>
