<svg width="40" height="40" viewBox="0 0 40 40" fill="none" xmlns="http://www.w3.org/2000/svg">
<rect width="40" height="40" rx="8" fill="white"/>
<path d="M20 28.3333C18.0694 27.8472 16.4758 26.7394 15.2191 25.01C13.9619 23.2811 13.3333 21.3611 13.3333 19.25V14.1666L20 11.6666L26.6666 14.1666V18.8958C26.4028 18.7847 26.1319 18.6838 25.8541 18.5933C25.5764 18.5033 25.2916 18.4375 25 18.3958V15.3333L20 13.4583L15 15.3333V19.25C15 19.9027 15.0866 20.5555 15.26 21.2083C15.4339 21.8611 15.6772 22.4827 15.99 23.0733C16.3022 23.6633 16.6805 24.2083 17.125 24.7083C17.5694 25.2083 18.0625 25.625 18.6041 25.9583C18.7569 26.4027 18.9583 26.8263 19.2083 27.2291C19.4583 27.6319 19.743 27.993 20.0625 28.3125C20.0486 28.3125 20.0383 28.3161 20.0316 28.3233C20.0244 28.33 20.0139 28.3333 20 28.3333ZM24.1666 28.3333C23.0139 28.3333 22.0314 27.9272 21.2191 27.115C20.4064 26.3022 20 25.3194 20 24.1666C20 23.0138 20.4064 22.0311 21.2191 21.2183C22.0314 20.4061 23.0139 20 24.1666 20C25.3194 20 26.3022 20.4061 27.115 21.2183C27.9272 22.0311 28.3333 23.0138 28.3333 24.1666C28.3333 25.3194 27.9272 26.3022 27.115 27.115C26.3022 27.9272 25.3194 28.3333 24.1666 28.3333ZM23.75 26.6666H24.5833V24.5833H26.6666V23.75H24.5833V21.6666H23.75V23.75H21.6666V24.5833H23.75V26.6666Z" fill="#8491A5"/>
</svg>
