<svg width="40" height="40" viewBox="0 0 40 40" fill="none" xmlns="http://www.w3.org/2000/svg">
<rect width="40" height="40" rx="8" fill="white"/>
<g clip-path="url(#clip0_1627_1968)">
<path d="M25.8333 12.5H22.35C22 11.5333 21.0833 10.8333 20 10.8333C18.9167 10.8333 18 11.5333 17.65 12.5H14.1667C13.25 12.5 12.5 13.25 12.5 14.1667V25.8333C12.5 26.75 13.25 27.5 14.1667 27.5H25.8333C26.75 27.5 27.5 26.75 27.5 25.8333V14.1667C27.5 13.25 26.75 12.5 25.8333 12.5ZM20 12.2917C20.1833 12.2917 20.3417 12.375 20.4583 12.5C20.5583 12.6083 20.625 12.7583 20.625 12.9167C20.625 13.2583 20.3417 13.5417 20 13.5417C19.6583 13.5417 19.375 13.2583 19.375 12.9167C19.375 12.7583 19.4417 12.6083 19.5417 12.5C19.6583 12.375 19.8167 12.2917 20 12.2917ZM25.8333 25.8333H14.1667V14.1667H25.8333V25.8333ZM20 15C18.625 15 17.5 16.125 17.5 17.5C17.5 18.875 18.625 20 20 20C21.375 20 22.5 18.875 22.5 17.5C22.5 16.125 21.375 15 20 15ZM20 18.3333C19.5417 18.3333 19.1667 17.9583 19.1667 17.5C19.1667 17.0417 19.5417 16.6667 20 16.6667C20.4583 16.6667 20.8333 17.0417 20.8333 17.5C20.8333 17.9583 20.4583 18.3333 20 18.3333ZM15 23.725V25H25V23.725C25 21.6417 21.6917 20.7417 20 20.7417C18.3083 20.7417 15 21.6333 15 23.725ZM16.925 23.3333C17.5 22.8667 18.9083 22.4 20 22.4C21.0917 22.4 22.5083 22.8667 23.075 23.3333H16.925Z" fill="#8491A5"/>
</g>
<defs>
<clipPath id="clip0_1627_1968">
<rect width="20" height="20" fill="white" transform="translate(10 10)"/>
</clipPath>
</defs>
</svg>
