<svg width="42" height="42" viewBox="0 0 42 42" fill="none" xmlns="http://www.w3.org/2000/svg">
<rect width="42" height="42" rx="8" fill="white"/>
<path d="M25.5833 26.5001H29.25V24.6667H25.5833V22.8334L22.8333 25.5834L25.5833 28.3334V26.5001ZM20.0833 13.6667C18.0667 13.6667 16.4167 15.3167 16.4167 17.3334C16.4167 19.3501 18.0667 21.0001 20.0833 21.0001C22.1 21.0001 23.75 19.3501 23.75 17.3334C23.75 15.3167 22.1 13.6667 20.0833 13.6667ZM20.0833 15.5001C21.0917 15.5001 21.9167 16.3251 21.9167 17.3334C21.9167 18.3417 21.0917 19.1667 20.0833 19.1667C19.075 19.1667 18.25 18.3417 18.25 17.3334C18.25 16.3251 19.075 15.5001 20.0833 15.5001ZM20.0833 21.9167C17.6083 21.9167 12.75 23.1084 12.75 25.5834V28.3334H21.4583C21.1833 27.7834 21.0917 27.2334 21 26.5917H14.4917V25.5834C14.4917 25.0334 17.3333 23.6584 20.0833 23.6584C20.5417 23.6584 21 23.7501 21.4583 23.7501C21.7333 23.2001 22.0083 22.6501 22.4667 22.1917C21.55 22.0084 20.725 21.9167 20.0833 21.9167Z" fill="#8491A5"/>
</svg>
