<svg width="40" height="40" viewBox="0 0 40 40" fill="none" xmlns="http://www.w3.org/2000/svg">
<rect width="40" height="40" rx="8" fill="white"/>
<g clip-path="url(#clip0_1627_1873)">
<path d="M27.5 12.5H12.5C11.5833 12.5 10.8333 13.25 10.8333 14.1667V16.6667H12.5V14.1667H27.5V25.8333H21.6666V27.5H27.5C28.4166 27.5 29.1666 26.75 29.1666 25.8333V14.1667C29.1666 13.25 28.4166 12.5 27.5 12.5ZM10.8333 25V27.5H13.3333C13.3333 26.1167 12.2166 25 10.8333 25ZM10.8333 21.6667V23.3333C13.1333 23.3333 15 25.2 15 27.5H16.6666C16.6666 24.275 14.0583 21.6667 10.8333 21.6667ZM10.8333 18.3333V20C14.975 20 18.3333 23.3583 18.3333 27.5H20C20 22.4333 15.8916 18.3333 10.8333 18.3333ZM19.1666 19.2417V20.9083L22.0833 22.5L25 20.9083V19.2417L22.0833 20.8333L19.1666 19.2417ZM22.0833 15L17.5 17.5L22.0833 20L26.6666 17.5L22.0833 15Z" fill="#8491A5"/>
</g>
<defs>
<clipPath id="clip0_1627_1873">
<rect width="20" height="20" fill="white" transform="translate(10 10)"/>
</clipPath>
</defs>
</svg>
