<svg width="40" height="40" viewBox="0 0 40 40" fill="none" xmlns="http://www.w3.org/2000/svg">
<rect width="40" height="40" rx="8" fill="white"/>
<path d="M23.3333 12.5C24.212 12.5 24.9318 13.1799 24.9954 14.0423L25 14.1667V18.3333H26.25C26.8997 18.3333 27.4337 18.8291 27.4943 19.463L27.5 19.5833V25.8333C27.5 27.1648 26.4593 28.2531 25.1469 28.3291L25 28.3333H14.1667C13.288 28.3333 12.5682 27.6535 12.5046 26.7911L12.5 26.6667V14.1667C12.5 13.288 13.1799 12.5682 14.0423 12.5046L14.1667 12.5H23.3333ZM25.8333 20H25V26.6667C25.4602 26.6667 25.8333 26.2936 25.8333 25.8333V20ZM23.3333 14.1667H14.1667V26.6667H23.3333V14.1667ZM19.1667 20.8333C19.6269 20.8333 20 21.2064 20 21.6667C20 22.094 19.6783 22.4463 19.2639 22.4944L19.1667 22.5H16.6667C16.2064 22.5 15.8333 22.1269 15.8333 21.6667C15.8333 21.2393 16.155 20.8871 16.5695 20.8389L16.6667 20.8333H19.1667ZM20.8333 16.6667C21.2936 16.6667 21.6667 17.0398 21.6667 17.5C21.6667 17.9602 21.2936 18.3333 20.8333 18.3333H16.6667C16.2064 18.3333 15.8333 17.9602 15.8333 17.5C15.8333 17.0398 16.2064 16.6667 16.6667 16.6667H20.8333Z" fill="#8491A5"/>
</svg>
