<svg width="40" height="40" viewBox="0 0 40 40" fill="none" xmlns="http://www.w3.org/2000/svg">
<rect width="40" height="40" rx="8" fill="white"/>
<g clip-path="url(#clip0_1627_1992)">
<path d="M26.6667 13.3333H13.3334C12.4167 13.3333 11.6667 14.0833 11.6667 15V25C11.6667 25.9167 12.4167 26.6667 13.3334 26.6667H26.6667C27.5834 26.6667 28.3334 25.9167 28.3334 25V15C28.3334 14.0833 27.5834 13.3333 26.6667 13.3333ZM26.6667 25H13.3334V15H26.6667V25ZM13.3334 10H26.6667V11.6667H13.3334V10ZM13.3334 28.3333H26.6667V30H13.3334V28.3333ZM20 20C21.15 20 22.0834 19.0667 22.0834 17.9167C22.0834 16.7667 21.15 15.8333 20 15.8333C18.85 15.8333 17.9167 16.7667 17.9167 17.9167C17.9167 19.0667 18.85 20 20 20ZM20 17.0833C20.4584 17.0833 20.8334 17.4583 20.8334 17.9167C20.8334 18.375 20.4584 18.75 20 18.75C19.5417 18.75 19.1667 18.375 19.1667 17.9167C19.1667 17.4583 19.5417 17.0833 20 17.0833ZM24.1667 23.325C24.1667 21.5833 21.4084 20.8333 20 20.8333C18.5917 20.8333 15.8334 21.5833 15.8334 23.325V24.1667H24.1667V23.325ZM17.3417 22.9167C17.85 22.4833 19.0334 22.0833 20 22.0833C20.975 22.0833 22.1584 22.4833 22.6667 22.9167H17.3417Z" fill="#8491A5"/>
</g>
<defs>
<clipPath id="clip0_1627_1992">
<rect width="20" height="20" fill="white" transform="translate(10 10)"/>
</clipPath>
</defs>
</svg>
