<svg width="40" height="40" viewBox="0 0 40 40" fill="none" xmlns="http://www.w3.org/2000/svg">
<rect width="40" height="40" rx="8" fill="white"/>
<g clip-path="url(#clip0_1627_1981)">
<path d="M27.3667 13.5166C27.325 13.4166 27.275 13.325 27.2167 13.2333C27.1 13.0583 26.9417 12.9 26.7667 12.7833C26.675 12.725 26.5833 12.675 26.4833 12.6333C26.2833 12.55 26.0667 12.5 25.8333 12.5H25V10.8333H23.3333V12.5H16.6667V10.8333H15V12.5H14.1667C13.8167 12.5 13.5 12.6083 13.2333 12.7833C13.0583 12.9 12.9 13.0583 12.7833 13.2333C12.725 13.325 12.675 13.4166 12.6333 13.5166C12.55 13.7166 12.5 13.9333 12.5 14.1666V25.8333C12.5 26.75 13.2417 27.5 14.1667 27.5H25.8333C26.0667 27.5 26.2833 27.45 26.4833 27.3666C26.5833 27.325 26.675 27.275 26.7667 27.2166C26.9417 27.1 27.1 26.9416 27.2167 26.7666C27.3917 26.5 27.5 26.175 27.5 25.8333V14.1666C27.5 13.9333 27.45 13.7166 27.3667 13.5166ZM14.1667 25.8333V14.1666H25.8333V25.8333H14.1667ZM20 20.7333C18.3083 20.7333 15 21.6333 15 23.7166V25H25V23.725C25 21.6333 21.6917 20.7333 20 20.7333ZM16.925 23.3333C17.5 22.8666 18.9083 22.4 20 22.4C21.0917 22.4 22.5083 22.8666 23.075 23.3333H16.925ZM20 20C21.375 20 22.5 18.875 22.5 17.5C22.5 16.125 21.375 15 20 15C18.625 15 17.5 16.125 17.5 17.5C17.5 18.875 18.625 20 20 20ZM20 16.6666C20.4583 16.6666 20.8333 17.0416 20.8333 17.5C20.8333 17.9583 20.4583 18.3333 20 18.3333C19.5417 18.3333 19.1667 17.9583 19.1667 17.5C19.1667 17.0416 19.5417 16.6666 20 16.6666Z" fill="#8491A5"/>
</g>
<defs>
<clipPath id="clip0_1627_1981">
<rect width="20" height="20" fill="white" transform="translate(10 10)"/>
</clipPath>
</defs>
</svg>
