<svg width="40" height="40" viewBox="0 0 40 40" fill="none" xmlns="http://www.w3.org/2000/svg">
<rect width="40" height="40" rx="8" fill="white"/>
<g clip-path="url(#clip0_1627_1896)">
<path d="M28.3333 14.1667V15.8333H25.8333V18.3333H24.1667V15.8333H21.6667V14.1667H24.1667V11.6667H25.8333V14.1667H28.3333ZM25.8333 25.8333H14.1667V14.1667H19.1667V12.5H14.1667C13.25 12.5 12.5 13.25 12.5 14.1667V25.8333C12.5 26.75 13.25 27.5 14.1667 27.5H25.8333C26.75 27.5 27.5 26.75 27.5 25.8333V20.8333H25.8333V25.8333ZM22.5 20.8333V24.1667H24.1667V20.8333H22.5ZM19.1667 24.1667H20.8333V17.5H19.1667V24.1667ZM17.5 24.1667V19.1667H15.8333V24.1667H17.5Z" fill="#8491A5"/>
</g>
<defs>
<clipPath id="clip0_1627_1896">
<rect width="20" height="20" fill="white" transform="translate(10 10)"/>
</clipPath>
</defs>
</svg>
