<svg width="40" height="40" viewBox="0 0 40 40" fill="none" xmlns="http://www.w3.org/2000/svg">
<rect width="40" height="40" rx="8" fill="white"/>
<g clip-path="url(#clip0_1627_1976)">
<path d="M17.5 20C19.1084 20 20.4167 18.6917 20.4167 17.0833C20.4167 15.475 19.1084 14.1667 17.5 14.1667C15.8917 14.1667 14.5834 15.475 14.5834 17.0833C14.5834 18.6917 15.8917 20 17.5 20ZM17.5 15.8333C18.1917 15.8333 18.75 16.3917 18.75 17.0833C18.75 17.775 18.1917 18.3333 17.5 18.3333C16.8084 18.3333 16.25 17.775 16.25 17.0833C16.25 16.3917 16.8084 15.8333 17.5 15.8333ZM17.5417 24.1667H13.975C14.8 23.75 16.225 23.3333 17.5 23.3333C17.5917 23.3333 17.6917 23.3417 17.7834 23.3417C18.0667 22.7333 18.5584 22.2333 19.15 21.8333C18.5417 21.725 17.9667 21.6667 17.5 21.6667C15.55 21.6667 11.6667 22.6417 11.6667 24.5833V25.8333H17.5V24.5833C17.5 24.4417 17.5167 24.3 17.5417 24.1667ZM23.75 22.0833C22.2167 22.0833 19.1667 22.925 19.1667 24.5833V25.8333H28.3334V24.5833C28.3334 22.925 25.2834 22.0833 23.75 22.0833ZM24.7584 20.5667C25.3917 20.2083 25.8334 19.5333 25.8334 18.75C25.8334 17.6 24.9 16.6667 23.75 16.6667C22.6 16.6667 21.6667 17.6 21.6667 18.75C21.6667 19.5333 22.1084 20.2083 22.7417 20.5667C23.0417 20.7333 23.3834 20.8333 23.75 20.8333C24.1167 20.8333 24.4584 20.7333 24.7584 20.5667Z" fill="#8491A5"/>
</g>
<defs>
<clipPath id="clip0_1627_1976">
<rect width="20" height="20" fill="white" transform="translate(10 10)"/>
</clipPath>
</defs>
</svg>
