<svg width="40" height="40" viewBox="0 0 40 40" fill="none" xmlns="http://www.w3.org/2000/svg">
<rect width="40" height="40" rx="8" fill="white"/>
<g clip-path="url(#clip0_1627_1782)">
<path d="M25 11.6667H15C14.0833 11.6667 13.3333 12.4167 13.3333 13.3334V26.6667C13.3333 27.5834 14.0833 28.3334 15 28.3334H25C25.9166 28.3334 26.6666 27.5834 26.6666 26.6667V13.3334C26.6666 12.4167 25.9166 11.6667 25 11.6667ZM17.5 13.3334H19.1666V17.5L18.3333 16.875L17.5 17.5V13.3334ZM25 26.6667H15V13.3334H15.8333V20.8334L18.3333 18.9584L20.8333 20.8334V13.3334H25V26.6667Z" fill="#8491A5"/>
</g>
<defs>
<clipPath id="clip0_1627_1782">
<rect width="20" height="20" fill="white" transform="translate(10 10)"/>
</clipPath>
</defs>
</svg>
