<svg width="40" height="40" viewBox="0 0 40 40" fill="none" xmlns="http://www.w3.org/2000/svg">
<rect width="40" height="40" rx="8" fill="white"/>
<g clip-path="url(#clip0_7529_2914)">
<path d="M19.9998 11.6666C15.3998 11.6666 11.6665 15.4 11.6665 20C11.6665 24.6 15.3998 28.3333 19.9998 28.3333C24.5998 28.3333 28.3332 24.6 28.3332 20C28.3332 15.4 24.5998 11.6666 19.9998 11.6666ZM15.8915 25.2333C16.2498 24.4833 18.4332 23.75 19.9998 23.75C21.5665 23.75 23.7582 24.4833 24.1082 25.2333C22.9748 26.1333 21.5498 26.6666 19.9998 26.6666C18.4498 26.6666 17.0248 26.1333 15.8915 25.2333ZM25.2998 24.025C24.1082 22.575 21.2165 22.0833 19.9998 22.0833C18.7832 22.0833 15.8915 22.575 14.6998 24.025C13.8498 22.9083 13.3332 21.5166 13.3332 20C13.3332 16.325 16.3248 13.3333 19.9998 13.3333C23.6748 13.3333 26.6665 16.325 26.6665 20C26.6665 21.5166 26.1498 22.9083 25.2998 24.025ZM19.9998 15C18.3832 15 17.0832 16.3 17.0832 17.9166C17.0832 19.5333 18.3832 20.8333 19.9998 20.8333C21.6165 20.8333 22.9165 19.5333 22.9165 17.9166C22.9165 16.3 21.6165 15 19.9998 15ZM19.9998 19.1666C19.3082 19.1666 18.7498 18.6083 18.7498 17.9166C18.7498 17.225 19.3082 16.6666 19.9998 16.6666C20.6915 16.6666 21.2498 17.225 21.2498 17.9166C21.2498 18.6083 20.6915 19.1666 19.9998 19.1666Z" fill="#8491A5"/>
</g>
<defs>
<clipPath id="clip0_7529_2914">
<rect width="20" height="20" fill="white" transform="translate(10 10)"/>
</clipPath>
</defs>
</svg>
