<svg width="42" height="42" viewBox="0 0 42 42" fill="none" xmlns="http://www.w3.org/2000/svg">
<rect width="42" height="42" rx="8" fill="white"/>
<path d="M30.8267 27.8749C30.8632 27.5705 30.8632 27.2627 30.8267 26.9583L31.7892 26.2066C31.8808 26.1424 31.8992 26.0416 31.8442 25.9133L30.9275 24.3366C30.8725 24.2358 30.7533 24.2083 30.6525 24.2358L29.5067 24.6666C29.25 24.5108 29.0208 24.3549 28.7367 24.2449L28.5625 23.0258C28.5539 22.9714 28.526 22.9221 28.4839 22.8867C28.4418 22.8513 28.3883 22.8324 28.3333 22.8333H26.5C26.39 22.8333 26.2892 22.9158 26.2708 23.0258L26.1058 24.2449C25.8125 24.3549 25.5833 24.5108 25.3267 24.6666L24.2083 24.2358C24.0892 24.2083 23.9608 24.2358 23.9058 24.3366L22.9892 25.9133C22.9342 26.0416 22.9617 26.1424 23.0442 26.2066L24.0158 26.9583C23.9975 27.1141 23.9792 27.2699 23.9792 27.4166C23.9792 27.5633 23.9975 27.7191 24.0158 27.8749L23.0442 28.6266C22.9617 28.6908 22.9342 28.8191 22.9892 28.9199L23.9058 30.5058C23.9608 30.6249 24.0892 30.6249 24.2083 30.6249L25.3267 30.1391C25.5833 30.3224 25.8125 30.4783 26.1058 30.5974L26.2708 31.8074C26.2892 31.9174 26.39 31.9999 26.5 31.9999H28.3333C28.4525 31.9999 28.5442 31.9174 28.5625 31.8074L28.7367 30.5974C29.0208 30.4783 29.25 30.3224 29.5067 30.1391L30.6525 30.6249C30.7533 30.6249 30.8725 30.6249 30.9275 30.5058L31.8442 28.9199C31.8992 28.8191 31.8808 28.6908 31.7892 28.6266L30.8267 27.8749ZM27.4167 29.0208C26.5367 29.0208 25.8125 28.3058 25.8125 27.4166C25.8125 26.5274 26.5367 25.8124 27.4167 25.8124C28.2967 25.8124 29.0208 26.5274 29.0208 27.4166C29.0208 28.3058 28.3058 29.0208 27.4167 29.0208ZM21.0733 28.3333H12.75V27.4166L14.5833 25.5833V20.0833C14.5833 17.2416 16.4167 14.7666 19.1667 13.9416V13.6666C19.1667 12.6583 19.9917 11.8333 21 11.8333C22.0083 11.8333 22.8333 12.6583 22.8333 13.6666V13.9416C25.5833 14.7666 27.4167 17.2416 27.4167 20.0833V20.9999C26.7842 20.9999 26.1608 21.1008 25.5833 21.2658V20.0833C25.5833 17.5166 23.5667 15.4999 21 15.4999C18.4333 15.4999 16.4167 17.5166 16.4167 20.0833V26.4999H21.0733C21.0275 26.8024 21 27.1049 21 27.4166C21 27.7283 21.0275 28.0308 21.0733 28.3333ZM21.275 29.2499C21.4583 29.7999 21.6783 30.3224 21.9717 30.7991C21.6875 30.9733 21.3575 31.0833 21 31.0833C19.9917 31.0833 19.1667 30.2583 19.1667 29.2499H21.275Z" fill="#8491A5"/>
</svg>
