<svg width="42" height="42" viewBox="0 0 42 42" fill="none" xmlns="http://www.w3.org/2000/svg">
<rect width="42" height="42" rx="8" fill="white"/>
<path fill-rule="evenodd" clip-rule="evenodd" d="M19.1575 20.0008C19.376 19.8549 19.632 19.7754 19.8947 19.7719C20.1574 19.7683 20.4155 19.8408 20.6379 19.9806L23.728 21.8965C24.2211 22.2026 24.4375 22.7306 24.4375 23.2091C24.4375 23.6886 24.2211 24.2166 23.728 24.5218L20.6379 26.4376C20.1429 26.7438 19.5773 26.6943 19.1575 26.4175C18.9459 26.2754 18.7731 26.0828 18.6547 25.8571C18.5362 25.6314 18.4759 25.3798 18.4791 25.125V21.2933C18.4791 20.7497 18.744 20.2721 19.1575 20.0008ZM19.9119 21.1503C19.8945 21.1613 19.8541 21.2016 19.8541 21.2933V25.125C19.8541 25.2166 19.8945 25.257 19.9119 25.268L19.9128 25.2689L23.0038 23.3531C23.023 23.3411 23.0625 23.299 23.0625 23.2091C23.0625 23.1193 23.023 23.0781 23.0038 23.0652L19.9137 21.1494L19.9119 21.1503Z" fill="#8491A5"/>
<path fill-rule="evenodd" clip-rule="evenodd" d="M17.975 11.1458C17.7733 11.1458 17.6175 11.1458 17.4836 11.1604C16.8856 11.2245 16.3301 11.5003 15.9176 11.938C15.5051 12.3758 15.2627 12.9466 15.2341 13.5474C14.6961 13.7094 14.2235 14.0385 13.8849 14.4869C13.5462 14.9353 13.359 15.4798 13.3504 16.0417C12.8004 16.2067 12.3247 16.4679 11.936 16.8878C11.3383 17.534 11.1532 18.3288 11.1458 19.2583C11.1394 20.152 11.2989 21.2813 11.496 22.6829L11.8993 25.5374C12.0533 26.6338 12.1789 27.5248 12.3742 28.2223C12.5786 28.9529 12.8802 29.5533 13.4375 30.0153C13.9912 30.4737 14.6475 30.6708 15.423 30.7643C16.1737 30.8541 17.1179 30.8541 18.2921 30.8541H23.7069C24.8821 30.8541 25.8262 30.8541 26.5761 30.7643C27.3525 30.6708 28.0088 30.4737 28.5625 30.0153C29.1198 29.5533 29.4214 28.952 29.6258 28.2223C29.8211 27.5248 29.9466 26.6338 30.1016 25.5365L30.504 22.6829C30.702 21.2804 30.8615 20.152 30.8541 19.2583C30.8468 18.3288 30.6616 17.534 30.064 16.8878C29.6753 16.4679 29.1996 16.2076 28.6486 16.0417C28.6399 15.4801 28.4527 14.9358 28.1143 14.4876C27.7758 14.0394 27.3036 13.7105 26.7658 13.5483C26.7375 12.9474 26.4952 12.3763 26.0827 11.9384C25.6701 11.5005 25.1145 11.2245 24.5163 11.1604C24.3816 11.1458 24.2267 11.1458 24.025 11.1458H17.975ZM27.2425 15.8006C27.1791 15.5202 27.0223 15.2696 26.7977 15.0901C26.5732 14.9105 26.2943 14.8126 26.0068 14.8124H15.9932C15.3799 14.8124 14.8822 15.2433 14.7566 15.8006C15.6054 15.7291 16.6449 15.7291 17.898 15.7291H24.102C25.3541 15.7291 26.3937 15.7291 27.2434 15.8006H27.2425ZM25.3716 13.4374C25.3229 13.1991 25.1997 12.9824 25.0198 12.8188C24.8398 12.6551 24.6124 12.553 24.3706 12.5272C24.2433 12.5196 24.1158 12.5175 23.9883 12.5208H18.0116C17.755 12.5208 17.6807 12.5217 17.6294 12.5272C17.3875 12.553 17.1602 12.6551 16.9802 12.8188C16.8002 12.9824 16.677 13.1991 16.6284 13.4374H25.3697H25.3716ZM12.9452 17.8218C13.223 17.5221 13.6401 17.3232 14.4513 17.215C15.2772 17.105 16.3836 17.1041 17.9493 17.1041H24.0506C25.6163 17.1041 26.7227 17.1059 27.5486 17.215C28.3599 17.3232 28.777 17.5221 29.0547 17.8218C29.3261 18.1152 29.4736 18.5139 29.4791 19.2693C29.4846 20.0484 29.3417 21.0751 29.1345 22.5473L28.7467 25.2973C28.5836 26.4532 28.4699 27.2525 28.3021 27.852C28.1399 28.4295 27.9501 28.7366 27.6852 28.9557C27.4166 29.1793 27.0555 29.3223 26.4129 29.3993C25.7538 29.4782 24.8921 29.4791 23.6629 29.4791H18.3371C17.1069 29.4791 16.2462 29.4782 15.5871 29.3993C14.9454 29.3214 14.5833 29.1793 14.3147 28.9566C14.0498 28.7366 13.8601 28.4286 13.6978 27.852C13.5301 27.2525 13.4164 26.4532 13.2532 25.2973L12.8655 22.5473C12.6583 21.076 12.5153 20.0484 12.5208 19.2693C12.5263 18.5139 12.6739 18.1143 12.9452 17.8218Z" fill="#8491A5"/>
</svg>
