<svg width="40" height="40" viewBox="0 0 40 40" fill="none" xmlns="http://www.w3.org/2000/svg">
<rect width="40" height="40" rx="8" fill="white"/>
<g clip-path="url(#clip0_1627_1929)">
<path d="M23.7834 19.1667L20.8334 16.2167L22.0084 15.0417L23.775 16.8083L27.3084 13.275L28.4834 14.45L23.7834 19.1667ZM19.1667 15.8333H11.6667V17.5H19.1667V15.8333ZM27.5 21.175L26.325 20L24.1667 22.1583L22.0084 20L20.8334 21.175L22.9917 23.3333L20.8334 25.4917L22.0084 26.6667L24.1667 24.5083L26.325 26.6667L27.5 25.4917L25.3417 23.3333L27.5 21.175ZM19.1667 22.5H11.6667V24.1667H19.1667V22.5Z" fill="#8491A5"/>
</g>
<defs>
<clipPath id="clip0_1627_1929">
<rect width="20" height="20" fill="white" transform="translate(10 10)"/>
</clipPath>
</defs>
</svg>
