<svg width="40" height="40" viewBox="0 0 40 40" fill="none" xmlns="http://www.w3.org/2000/svg">
<rect width="40" height="40" rx="8" fill="white"/>
<path d="M20 24.1667C20.2361 24.1667 20.4342 24.0867 20.5942 23.9267C20.7542 23.7667 20.8339 23.5689 20.8333 23.3333C20.8333 23.0972 20.7533 22.8992 20.5933 22.7392C20.4333 22.5792 20.2356 22.4994 20 22.5C19.7639 22.5 19.5658 22.58 19.4058 22.74C19.2458 22.9 19.1661 23.0978 19.1667 23.3333C19.1667 23.5694 19.2467 23.7675 19.4067 23.9275C19.5667 24.0875 19.7644 24.1672 20 24.1667ZM19.1667 20.8333H20.8333V15.8333H19.1667V20.8333ZM16.875 27.5L12.5 23.125V16.875L16.875 12.5H23.125L27.5 16.875V23.125L23.125 27.5H16.875ZM17.5833 25.8333H22.4167L25.8333 22.4167V17.5833L22.4167 14.1667H17.5833L14.1667 17.5833V22.4167L17.5833 25.8333Z" fill="#8491A5"/>
</svg>
