<svg width="40" height="40" viewBox="0 0 40 40" fill="none" xmlns="http://www.w3.org/2000/svg">
<rect width="40" height="40" rx="8" fill="white"/>
<path d="M23.3333 12.5C23.7936 12.5 24.1667 12.8731 24.1667 13.3333V14.1667H25.8333C26.7538 14.1667 27.5 14.9129 27.5 15.8333V25.8333C27.5 26.7538 26.7538 27.5 25.8333 27.5H14.1667C13.2462 27.5 12.5 26.7538 12.5 25.8333V15.8333C12.5 14.9129 13.2462 14.1667 14.1667 14.1667H15.8333V13.3333C15.8333 12.8731 16.2064 12.5 16.6667 12.5C17.1269 12.5 17.5 12.8731 17.5 13.3333V14.1667H22.5V13.3333C22.5 12.8731 22.8731 12.5 23.3333 12.5ZM25.8333 15.8333H14.1667V25.8333H25.8333V15.8333ZM22.3534 17.8156C22.6788 17.4902 23.2065 17.4902 23.5319 17.8156C23.8574 18.141 23.8574 18.6687 23.5319 18.9941L19.4131 23.113C19.0843 23.4417 18.5514 23.4417 18.2228 23.113L16.4609 21.3512C16.1354 21.0257 16.1354 20.4981 16.4609 20.1726C16.7863 19.8472 17.314 19.8472 17.6394 20.1726L18.8179 21.3512L22.3534 17.8156Z" fill="#8491A5"/>
</svg>
