<svg width="40" height="40" viewBox="0 0 40 40" fill="none" xmlns="http://www.w3.org/2000/svg">
<rect width="40" height="40" rx="8" fill="white"/>
<path d="M25.8332 12.5C27.2139 12.5 28.3332 13.6193 28.3332 15V23.3333C28.3332 24.7141 27.2139 25.8333 25.8332 25.8333H16.1109L13.3332 27.9167C12.6465 28.4317 11.6665 27.9418 11.6665 27.0833V15C11.6665 13.6193 12.7858 12.5 14.1665 12.5H25.8332ZM25.8332 14.1667H14.1665C13.7063 14.1667 13.3332 14.5398 13.3332 15V25.8333L15.1109 24.5C15.3994 24.2837 15.7503 24.1667 16.1109 24.1667H25.8332C26.2934 24.1667 26.6665 23.7936 26.6665 23.3333V15C26.6665 14.5398 26.2934 14.1667 25.8332 14.1667ZM19.1665 20C19.6268 20 19.9998 20.3731 19.9998 20.8333C19.9998 21.2607 19.6781 21.6129 19.2637 21.6611L19.1665 21.6667H16.6665C16.2063 21.6667 15.8332 21.2936 15.8332 20.8333C15.8332 20.406 16.1549 20.0537 16.5693 20.0056L16.6665 20H19.1665ZM23.3332 16.6667C23.7934 16.6667 24.1665 17.0398 24.1665 17.5C24.1665 17.9602 23.7934 18.3333 23.3332 18.3333H16.6665C16.2063 18.3333 15.8332 17.9602 15.8332 17.5C15.8332 17.0398 16.2063 16.6667 16.6665 16.6667H23.3332Z" fill="#8491A5"/>
</svg>
