<svg width="40" height="40" viewBox="0 0 40 40" fill="none" xmlns="http://www.w3.org/2000/svg">
<rect width="40" height="40" rx="8" fill="white"/>
<path d="M24.7917 12.5C25.51 12.5 26.1988 12.7853 26.7067 13.2933C27.2147 13.8012 27.5 14.49 27.5 15.2083V20.9408C27.4998 21.4378 27.3023 21.9144 26.9508 22.2658L22.2667 26.9508C22.0926 27.1249 21.8859 27.2631 21.6584 27.3573C21.4309 27.4515 21.1871 27.5 20.9408 27.5H15.2083C14.49 27.5 13.8012 27.2147 13.2933 26.7067C12.7853 26.1988 12.5 25.51 12.5 24.7917V15.2083C12.5 14.49 12.7853 13.8012 13.2933 13.2933C13.8012 12.7853 14.49 12.5 15.2083 12.5H24.7917ZM24.7917 13.75H15.2083C14.8216 13.75 14.4506 13.9036 14.1771 14.1771C13.9036 14.4506 13.75 14.8216 13.75 15.2083V24.7917C13.75 25.5967 14.4033 26.25 15.2083 26.25H20.8333V23.5417C20.8333 22.8499 21.098 22.1843 21.5731 21.6815C22.0482 21.1786 22.6977 20.8767 23.3883 20.8375L23.5417 20.8333H26.25V15.2083C26.25 14.8216 26.0964 14.4506 25.8229 14.1771C25.5494 13.9036 25.1784 13.75 24.7917 13.75ZM25.3658 22.0833H23.5417C23.1755 22.0834 22.8228 22.2211 22.5536 22.4692C22.2843 22.7173 22.1182 23.0576 22.0883 23.4225L22.0833 23.5417V25.3658L25.3658 22.0833Z" fill="#8491A5"/>
</svg>
