<svg width="40" height="40" viewBox="0 0 40 40" fill="none" xmlns="http://www.w3.org/2000/svg">
<rect width="40" height="40" rx="8" fill="white"/>
<g clip-path="url(#clip0_2461_2112)">
<path d="M28.3334 14.3166L18.825 23.8333L15.2917 20.3L16.4667 19.125L18.825 21.4833L27.1584 13.15L28.3334 14.3166ZM20 26.6666C16.325 26.6666 13.3334 23.675 13.3334 20C13.3334 16.325 16.325 13.3333 20 13.3333C21.3084 13.3333 22.5334 13.7166 23.5667 14.375L24.775 13.1666C23.4167 12.225 21.775 11.6666 20 11.6666C15.4 11.6666 11.6667 15.4 11.6667 20C11.6667 24.6 15.4 28.3333 20 28.3333C21.4417 28.3333 22.8 27.9666 23.9834 27.3166L22.7334 26.0666C21.9 26.45 20.975 26.6666 20 26.6666ZM25.8334 22.5H23.3334V24.1666H25.8334V26.6666H27.5V24.1666H30V22.5H27.5V20H25.8334V22.5Z" fill="#8491A5"/>
</g>
<defs>
<clipPath id="clip0_2461_2112">
<rect width="20" height="20" fill="white" transform="translate(10 10)"/>
</clipPath>
</defs>
</svg>
