<svg width="40" height="40" viewBox="0 0 40 40" fill="none" xmlns="http://www.w3.org/2000/svg">
<rect width="40" height="40" rx="8" fill="white"/>
<path d="M20 14.1666C19.2265 14.1666 18.4846 14.4739 17.9376 15.0209C17.3906 15.5679 17.0833 16.3097 17.0833 17.0833C17.0833 17.8568 17.3906 18.5987 17.9376 19.1457C18.4846 19.6927 19.2265 20 20 20C20.7735 20 21.5154 19.6927 22.0624 19.1457C22.6094 18.5987 22.9167 17.8568 22.9167 17.0833C22.9167 16.3097 22.6094 15.5679 22.0624 15.0209C21.5154 14.4739 20.7735 14.1666 20 14.1666ZM20 15.8333C20.3315 15.8333 20.6495 15.965 20.8839 16.1994C21.1183 16.4338 21.25 16.7518 21.25 17.0833C21.25 17.4148 21.1183 17.7328 20.8839 17.9672C20.6495 18.2016 20.3315 18.3333 20 18.3333C19.6685 18.3333 19.3505 18.2016 19.1161 17.9672C18.8817 17.7328 18.75 17.4148 18.75 17.0833C18.75 16.7518 18.8817 16.4338 19.1161 16.1994C19.3505 15.965 19.6685 15.8333 20 15.8333ZM14.5833 16.6666C14.0308 16.6666 13.5009 16.8861 13.1102 17.2768C12.7195 17.6675 12.5 18.1974 12.5 18.75C12.5 19.5333 12.9417 20.2083 13.575 20.5666C13.875 20.7333 14.2167 20.8333 14.5833 20.8333C14.95 20.8333 15.2917 20.7333 15.5917 20.5666C15.9 20.3916 16.1583 20.1416 16.35 19.8416C15.7429 19.0504 15.4147 18.0806 15.4167 17.0833V16.85C15.1667 16.7333 14.8833 16.6666 14.5833 16.6666ZM25.4167 16.6666C25.1167 16.6666 24.8333 16.7333 24.5833 16.85V17.0833C24.5833 18.0833 24.2583 19.05 23.65 19.8416C23.75 20 23.8583 20.125 23.9833 20.25C24.3676 20.6225 24.8814 20.8316 25.4167 20.8333C25.7833 20.8333 26.125 20.7333 26.425 20.5666C27.0583 20.2083 27.5 19.5333 27.5 18.75C27.5 18.1974 27.2805 17.6675 26.8898 17.2768C26.4991 16.8861 25.9692 16.6666 25.4167 16.6666ZM20 21.6666C18.05 21.6666 14.1667 22.6416 14.1667 24.5833V25.8333H25.8333V24.5833C25.8333 22.6416 21.95 21.6666 20 21.6666ZM13.925 22.125C12.3167 22.3166 10 23.1333 10 24.5833V25.8333H12.5V24.225C12.5 23.3833 13.075 22.6833 13.925 22.125ZM26.075 22.125C26.925 22.6833 27.5 23.3833 27.5 24.225V25.8333H30V24.5833C30 23.1333 27.6833 22.3166 26.075 22.125ZM20 23.3333C21.275 23.3333 22.7 23.75 23.525 24.1666H16.475C17.3 23.75 18.725 23.3333 20 23.3333Z" fill="#8491A5"/>
</svg>
