<svg width="40" height="40" viewBox="0 0 40 40" fill="none" xmlns="http://www.w3.org/2000/svg">
<rect width="40" height="40" rx="8" fill="white"/>
<g clip-path="url(#clip0_1627_1959)">
<path d="M19.1667 29.6583V26.6583C14.9917 26.4417 11.6667 22.975 11.6667 18.75C11.6667 14.3833 15.2167 10.8333 19.5834 10.8333C23.95 10.8333 27.5 14.3833 27.5 18.75C27.5 22.875 24.6334 27.025 20.3584 29.0833L19.1667 29.6583ZM19.5834 12.5C16.1334 12.5 13.3334 15.3 13.3334 18.75C13.3334 22.2 16.1334 25 19.5834 25H20.8334V26.9167C23.8667 25 25.8334 21.85 25.8334 18.75C25.8334 15.3 23.0334 12.5 19.5834 12.5ZM18.75 22.0833H20.4167V23.75H18.75V22.0833ZM20.4167 20.8333H18.75C18.75 18.125 21.25 18.3333 21.25 16.6667C21.25 15.75 20.5 15 19.5834 15C18.6667 15 17.9167 15.75 17.9167 16.6667H16.25C16.25 14.825 17.7417 13.3333 19.5834 13.3333C21.425 13.3333 22.9167 14.825 22.9167 16.6667C22.9167 18.75 20.4167 18.9583 20.4167 20.8333Z" fill="#8491A5"/>
</g>
<defs>
<clipPath id="clip0_1627_1959">
<rect width="20" height="20" fill="white" transform="translate(10 10)"/>
</clipPath>
</defs>
</svg>
