<svg width="40" height="36" viewBox="0 0 40 36" fill="none" xmlns="http://www.w3.org/2000/svg">
<rect width="40" height="36" rx="8" fill="white"/>
<g clip-path="url(#clip0_2461_2128)">
<path d="M16.5 21C16.4253 21 16.3506 21.0109 16.2794 21.0341C15.8744 21.1656 15.4484 21.25 15 21.25C14.5516 21.25 14.1256 21.1656 13.7203 21.0341C13.6491 21.0109 13.5747 21 13.5 21C11.5606 21 9.98968 22.5775 9.99999 24.5194C10.0044 25.34 10.6791 26 11.5 26H18.5C19.3209 26 19.9956 25.34 20 24.5194C20.0103 22.5775 18.4394 21 16.5 21ZM15 20C16.6569 20 18 18.6569 18 17C18 15.3431 16.6569 14 15 14C13.3431 14 12 15.3431 12 17C12 18.6569 13.3431 20 15 20ZM28.5 10H16.5C15.6728 10 15 10.6953 15 11.5497V13C15.7319 13 16.4094 13.2119 17 13.5563V12H28V21H26V19H22V21H19.6175C20.2144 21.5216 20.6525 22.2103 20.8578 23H28.5C29.3272 23 30 22.3047 30 21.4503V11.5497C30 10.6953 29.3272 10 28.5 10Z" fill="#8491A5"/>
</g>
<defs>
<clipPath id="clip0_2461_2128">
<rect width="20" height="16" fill="white" transform="translate(10 10)"/>
</clipPath>
</defs>
</svg>
