<svg width="40" height="40" viewBox="0 0 40 40" fill="none" xmlns="http://www.w3.org/2000/svg">
<rect width="40" height="40" rx="8" fill="white"/>
<g clip-path="url(#clip0_2461_2119)">
<path d="M14.1667 22.5V20H16.6667V18.3333H14.1667V15.8333H12.5V18.3333H10V20H12.5V22.5H14.1667ZM20 21.4583C18.05 21.4583 14.1667 22.4333 14.1667 24.375V25.8333H25.8333V24.375C25.8333 22.4333 21.95 21.4583 20 21.4583ZM16.1167 24.1666C16.8167 23.6833 18.5083 23.125 20 23.125C21.4917 23.125 23.1833 23.6833 23.8833 24.1666H16.1167ZM20 20C21.6083 20 22.9167 18.6916 22.9167 17.0833C22.9167 15.475 21.6083 14.1666 20 14.1666C18.3917 14.1666 17.0833 15.475 17.0833 17.0833C17.0833 18.6916 18.3917 20 20 20ZM20 15.8333C20.6917 15.8333 21.25 16.3916 21.25 17.0833C21.25 17.775 20.6917 18.3333 20 18.3333C19.3083 18.3333 18.75 17.775 18.75 17.0833C18.75 16.3916 19.3083 15.8333 20 15.8333ZM24.1667 20C25.775 20 27.0833 18.6916 27.0833 17.0833C27.0833 15.475 25.775 14.1666 24.1667 14.1666C23.9667 14.1666 23.7667 14.1833 23.575 14.225C24.2083 15.0083 24.5833 16 24.5833 17.0833C24.5833 18.1666 24.1917 19.15 23.5583 19.9333C23.7583 19.975 23.9583 20 24.1667 20ZM26.1 21.6833C26.9333 22.3583 27.5 23.2416 27.5 24.375V25.8333H30V24.375C30 22.9666 27.9667 22.075 26.1 21.6833Z" fill="#8491A5"/>
</g>
<defs>
<clipPath id="clip0_2461_2119">
<rect width="20" height="20" fill="white" transform="translate(10 10)"/>
</clipPath>
</defs>
</svg>
