<svg width="18" height="17" viewBox="0 0 18 17" fill="none" xmlns="http://www.w3.org/2000/svg">
<path d="M14.1249 7.60572L8.42713 13.3035V15.2525H5.03158C4.27776 15.2525 3.67336 14.6481 3.67336 13.8943V3.02851C3.67336 2.66829 3.81645 2.32282 4.07117 2.0681C4.32589 1.81339 4.67135 1.67029 5.03158 1.67029H5.71069V6.42407L7.40847 5.4054L9.10625 6.42407V1.67029H13.1809C13.5411 1.67029 13.8866 1.81339 14.1413 2.0681C14.396 2.32282 14.5391 2.66829 14.5391 3.02851V7.30691C14.3897 7.3884 14.2471 7.48348 14.1249 7.60572ZM9.78536 13.8671V15.2525H11.1707L15.3337 11.0964L13.9483 9.70417L9.78536 13.8671ZM16.4746 9.45969L15.5782 8.56327C15.4424 8.42744 15.2182 8.42744 15.0892 8.56327L14.4237 9.2288L15.8091 10.6142L16.4746 9.94865C16.6104 9.81962 16.6104 9.59552 16.4746 9.45969Z" fill="#F0F3FA"/>
</svg>
