<svg width="66" height="66" viewBox="0 0 66 66" fill="none" xmlns="http://www.w3.org/2000/svg">
<circle opacity="0.2" cx="33" cy="33" r="33" fill="#FF635F"/>
<path d="M33 25.125C33 26.6168 32.4074 28.0476 31.3525 29.1025C30.2976 30.1574 28.8668 30.75 27.375 30.75C25.8832 30.75 24.4524 30.1574 23.3975 29.1025C22.3426 28.0476 21.75 26.6168 21.75 25.125C21.75 23.6332 22.3426 22.2024 23.3975 21.1475C24.4524 20.0926 25.8832 19.5 27.375 19.5C28.8668 19.5 30.2976 20.0926 31.3525 21.1475C32.4074 22.2024 33 23.6332 33 25.125ZM40.875 28.5C39.6726 28.4991 38.4766 28.6734 37.3245 29.0175C36.8064 28.3528 36.4854 27.5559 36.3981 26.7176C36.3108 25.8794 36.4606 25.0335 36.8305 24.2762C37.2004 23.5189 37.7755 22.8807 38.4904 22.4344C39.2052 21.988 40.0311 21.7513 40.8739 21.7513C41.7167 21.7513 42.5425 21.988 43.2574 22.4344C43.9722 22.8807 44.5474 23.5189 44.9173 24.2762C45.2872 25.0335 45.437 25.8794 45.3496 26.7176C45.2623 27.5559 44.9413 28.3528 44.4232 29.0175C43.2719 28.6736 42.0766 28.4993 40.875 28.5ZM21.75 33H31.3282C29.4961 35.2149 28.4956 38.0005 28.5 40.875C28.5 41.6265 28.5675 42.36 28.6957 43.0732C28.2564 43.1082 27.8158 43.1255 27.375 43.125C18.375 43.125 18.375 36.5437 18.375 36.5437V36.375C18.375 35.4799 18.7306 34.6214 19.3635 33.9885C19.9964 33.3556 20.8549 33 21.75 33ZM51 40.875C51 43.5603 49.9333 46.1356 48.0345 48.0345C46.1356 49.9333 43.5603 51 40.875 51C38.1897 51 35.6144 49.9333 33.7155 48.0345C31.8167 46.1356 30.75 43.5603 30.75 40.875C30.75 38.1897 31.8167 35.6144 33.7155 33.7155C35.6144 31.8167 38.1897 30.75 40.875 30.75C43.5603 30.75 46.1356 31.8167 48.0345 33.7155C49.9333 35.6144 51 38.1897 51 40.875ZM46.1715 36.7035C46.067 36.5987 45.9429 36.5156 45.8062 36.4589C45.6695 36.4022 45.523 36.373 45.375 36.373C45.227 36.373 45.0805 36.4022 44.9438 36.4589C44.8071 36.5156 44.683 36.5987 44.5785 36.7035L38.625 42.6593L37.1715 41.2035C36.9603 40.9923 36.6737 40.8736 36.375 40.8736C36.0763 40.8736 35.7897 40.9923 35.5785 41.2035C35.3673 41.4147 35.2486 41.7013 35.2486 42C35.2486 42.2987 35.3673 42.5853 35.5785 42.7965L37.8285 45.0465C37.933 45.1513 38.0571 45.2344 38.1938 45.2911C38.3305 45.3478 38.477 45.377 38.625 45.377C38.773 45.377 38.9195 45.3478 39.0562 45.2911C39.1929 45.2344 39.317 45.1513 39.4215 45.0465L46.1715 38.2965C46.2763 38.192 46.3594 38.0679 46.4161 37.9312C46.4728 37.7945 46.502 37.648 46.502 37.5C46.502 37.352 46.4728 37.2055 46.4161 37.0688C46.3594 36.9321 46.2763 36.808 46.1715 36.7035Z" fill="#FF635F"/>
</svg>
