<svg width="66" height="66" viewBox="0 0 66 66" fill="none" xmlns="http://www.w3.org/2000/svg">
<circle cx="33" cy="33" r="33" fill="#007EF2" fill-opacity="0.2"/>
<path d="M42.3333 39.666V42.3327H26.3333V39.666C26.3333 39.666 26.3333 34.3327 34.3333 34.3327C42.3333 34.3327 42.3333 39.666 42.3333 39.666ZM38.3333 27.666C38.3333 26.8749 38.0987 26.1015 37.6592 25.4437C37.2197 24.7859 36.595 24.2732 35.8641 23.9705C35.1332 23.6677 34.3289 23.5885 33.553 23.7429C32.777 23.8972 32.0643 24.2782 31.5049 24.8376C30.9455 25.397 30.5645 26.1097 30.4102 26.8857C30.2559 27.6616 30.3351 28.4658 30.6378 29.1968C30.9406 29.9277 31.4533 30.5524 32.1111 30.9919C32.7688 31.4314 33.5422 31.666 34.3333 31.666C35.3942 31.666 36.4116 31.2446 37.1618 30.4944C37.9119 29.7443 38.3333 28.7269 38.3333 27.666ZM42.6 34.4127C43.3288 35.0851 43.9164 35.8959 44.3285 36.7979C44.7406 37.6999 44.9688 38.6749 45 39.666V42.3327H49V39.666C49 39.666 49 35.066 42.6 34.4127ZM41 23.666C40.5972 23.6663 40.1968 23.7292 39.8133 23.8527C40.5934 24.9713 41.0116 26.3023 41.0116 27.666C41.0116 29.0298 40.5934 30.3607 39.8133 31.4794C40.1968 31.6028 40.5972 31.6658 41 31.666C42.0609 31.666 43.0783 31.2446 43.8284 30.4944C44.5786 29.7443 45 28.7269 45 27.666C45 26.6052 44.5786 25.5877 43.8284 24.8376C43.0783 24.0874 42.0609 23.666 41 23.666ZM27.6667 30.3327H23.6667V26.3327H21V30.3327H17V32.9994H21V36.9994H23.6667V32.9994H27.6667V30.3327Z" fill="#007EF2"/>
</svg>
