<svg width="30" height="29" viewBox="0 0 30 29" fill="none" xmlns="http://www.w3.org/2000/svg">
<g clip-path="url(#clip0_4303_3441)">
<path d="M14.9996 2.59312C18.8471 2.59312 19.3027 2.61 20.8159 2.6775C22.2221 2.73937 22.9815 2.97563 23.4877 3.1725C24.1571 3.43125 24.6409 3.74625 25.1415 4.24688C25.6477 4.75313 25.9571 5.23125 26.2159 5.90063C26.4127 6.40688 26.649 7.17188 26.7109 8.5725C26.7784 10.0913 26.7952 10.5469 26.7952 14.3888C26.7952 18.2363 26.7784 18.6919 26.7109 20.205C26.649 21.6113 26.4127 22.3706 26.2159 22.8769C25.9571 23.5463 25.6421 24.03 25.1415 24.5306C24.6352 25.0369 24.1571 25.3463 23.4877 25.605C22.9815 25.8019 22.2165 26.0381 20.8159 26.1C19.2971 26.1675 18.8415 26.1844 14.9996 26.1844C11.1521 26.1844 10.6965 26.1675 9.18336 26.1C7.77711 26.0381 7.01774 25.8019 6.51149 25.605C5.84211 25.3463 5.35836 25.0313 4.85773 24.5306C4.35148 24.0244 4.04211 23.5463 3.78336 22.8769C3.58648 22.3706 3.35023 21.6056 3.28836 20.205C3.22086 18.6863 3.20398 18.2306 3.20398 14.3888C3.20398 10.5413 3.22086 10.0856 3.28836 8.5725C3.35023 7.16625 3.58648 6.40688 3.78336 5.90063C4.04211 5.23125 4.35711 4.7475 4.85773 4.24688C5.36398 3.74063 5.84211 3.43125 6.51149 3.1725C7.01774 2.97563 7.78274 2.73937 9.18336 2.6775C10.6965 2.61 11.1521 2.59312 14.9996 2.59312ZM14.9996 0C11.0902 0 10.6009 0.016875 9.06524 0.084375C7.53523 0.151875 6.48336 0.399375 5.57211 0.75375C4.62148 1.125 3.81711 1.61437 3.01836 2.41875C2.21398 3.2175 1.72461 4.02188 1.35336 4.96688C0.998984 5.88375 0.751484 6.93 0.683984 8.46C0.616484 10.0013 0.599609 10.4906 0.599609 14.4C0.599609 18.3094 0.616484 18.7987 0.683984 20.3344C0.751484 21.8644 0.998984 22.9163 1.35336 23.8275C1.72461 24.7781 2.21398 25.5825 3.01836 26.3813C3.81711 27.18 4.62148 27.675 5.56648 28.0406C6.48336 28.395 7.52961 28.6425 9.05961 28.71C10.5952 28.7775 11.0846 28.7944 14.994 28.7944C18.9034 28.7944 19.3927 28.7775 20.9284 28.71C22.4584 28.6425 23.5102 28.395 24.4215 28.0406C25.3665 27.675 26.1709 27.18 26.9696 26.3813C27.7684 25.5825 28.2634 24.7781 28.629 23.8331C28.9834 22.9163 29.2309 21.87 29.2984 20.34C29.3659 18.8044 29.3827 18.315 29.3827 14.4056C29.3827 10.4963 29.3659 10.0069 29.2984 8.47125C29.2309 6.94125 28.9834 5.88938 28.629 4.97813C28.2746 4.02188 27.7852 3.2175 26.9809 2.41875C26.1821 1.62 25.3777 1.125 24.4327 0.759375C23.5159 0.405 22.4696 0.1575 20.9396 0.09C19.3984 0.016875 18.909 0 14.9996 0Z" fill="#007EF2"/>
<path d="M15.0004 7.00391C10.9166 7.00391 7.60352 10.317 7.60352 14.4008C7.60352 18.4845 10.9166 21.7977 15.0004 21.7977C19.0841 21.7977 22.3973 18.4845 22.3973 14.4008C22.3973 10.317 19.0841 7.00391 15.0004 7.00391ZM15.0004 19.1989C12.351 19.1989 10.2023 17.0502 10.2023 14.4008C10.2023 11.7514 12.351 9.60266 15.0004 9.60266C17.6498 9.60266 19.7985 11.7514 19.7985 14.4008C19.7985 17.0502 17.6498 19.1989 15.0004 19.1989Z" fill="#007EF2"/>
<path d="M24.4166 6.71125C24.4166 7.6675 23.6404 8.43813 22.6898 8.43813C21.7335 8.43813 20.9629 7.66188 20.9629 6.71125C20.9629 5.755 21.7391 4.98438 22.6898 4.98438C23.6404 4.98438 24.4166 5.76063 24.4166 6.71125Z" fill="#007EF2"/>
</g>
<defs>
<clipPath id="clip0_4303_3441">
<rect width="28.8" height="28.8" fill="white" transform="translate(0.599609)"/>
</clipPath>
</defs>
</svg>
