<svg width="35" height="36" viewBox="0 0 35 36" fill="none" xmlns="http://www.w3.org/2000/svg">
<path fill-rule="evenodd" clip-rule="evenodd" d="M0.0341797 17.8974C0.0341797 8.27911 7.83087 0.482422 17.4492 0.482422C27.0675 0.482422 34.8641 8.27911 34.8641 17.8974C34.8641 27.5157 27.0675 35.3124 17.4492 35.3124C7.83087 35.3124 0.0341797 27.5157 0.0341797 17.8974ZM13.9662 10.9314C12.8168 10.9314 11.131 11.2623 9.68208 12.3037C8.14782 13.4113 7.00017 15.2399 7.00017 17.8974C7.00017 20.5549 8.14608 22.3835 9.68208 23.4894C10.938 24.3706 12.4319 24.8498 13.9662 24.8634C14.428 24.8634 14.871 24.6799 15.1976 24.3533C15.5242 24.0267 15.7077 23.5838 15.7077 23.1219C15.7077 22.66 15.5242 22.2171 15.1976 21.8905C14.871 21.5639 14.428 21.3804 13.9662 21.3804C13.3741 21.3804 12.4476 21.1888 11.7196 20.6629C11.077 20.2049 10.4832 19.4195 10.4832 17.8974C10.4832 16.3753 11.0788 15.5917 11.7196 15.1319C12.4458 14.606 13.3741 14.4144 13.9662 14.4144C14.428 14.4144 14.871 14.2309 15.1976 13.9043C15.5242 13.5777 15.7077 13.1348 15.7077 12.6729C15.7077 12.211 15.5242 11.7681 15.1976 11.4415C14.871 11.1149 14.428 10.9314 13.9662 10.9314ZM20.9322 10.9314C20.4703 10.9314 20.0273 11.1149 19.7007 11.4415C19.3741 11.7681 19.1907 12.211 19.1907 12.6729C19.1907 13.1348 19.3741 13.5777 19.7007 13.9043C20.0273 14.2309 20.4703 14.4144 20.9322 14.4144C21.5243 14.4144 22.4507 14.606 23.1787 15.1319C23.8196 15.5917 24.4152 16.3753 24.4152 17.8974C24.4152 19.4195 23.8196 20.2031 23.1787 20.6629C22.4507 21.1888 21.5243 21.3804 20.9322 21.3804C20.7035 21.3804 20.477 21.4254 20.2657 21.513C20.0544 21.6005 19.8624 21.7288 19.7007 21.8905C19.539 22.0522 19.4107 22.2442 19.3232 22.4555C19.2357 22.6667 19.1907 22.8932 19.1907 23.1219C19.1907 23.3506 19.2357 23.5771 19.3232 23.7883C19.4107 23.9996 19.539 24.1916 19.7007 24.3533C19.8624 24.515 20.0544 24.6433 20.2657 24.7308C20.477 24.8184 20.7035 24.8634 20.9322 24.8634C22.0815 24.8634 23.7673 24.5325 25.2162 23.4894C26.7505 22.3835 27.8982 20.5549 27.8982 17.8974C27.8982 15.2399 26.7522 13.4113 25.2162 12.3037C23.9601 11.4231 22.4662 10.9445 20.9322 10.9314ZM13.9662 16.1559C13.5043 16.1559 13.0613 16.3394 12.7347 16.666C12.4081 16.9926 12.2247 17.4355 12.2247 17.8974C12.2247 18.3593 12.4081 18.8022 12.7347 19.1288C13.0613 19.4554 13.5043 19.6389 13.9662 19.6389H20.9322C21.394 19.6389 21.837 19.4554 22.1636 19.1288C22.4902 18.8022 22.6737 18.3593 22.6737 17.8974C22.6737 17.4355 22.4902 16.9926 22.1636 16.666C21.837 16.3394 21.394 16.1559 20.9322 16.1559H13.9662Z" fill="#007EF2"/>
</svg>
