<svg width="18" height="13" viewBox="0 0 18 13" fill="none" xmlns="http://www.w3.org/2000/svg">
<path d="M2.8181 1.82144V8.0256C2.8181 9.00331 3.61301 9.79822 4.59072 9.79822H16.1127C17.0904 9.79822 17.8853 9.00331 17.8853 8.0256V1.82144C17.8853 0.843736 17.0904 0.0488281 16.1127 0.0488281H4.59072C3.61301 0.0488281 2.8181 0.843736 2.8181 1.82144ZM4.59072 6.25299C5.56843 6.25299 6.36334 7.04789 6.36334 8.0256H4.59072V6.25299ZM6.36334 1.82144C6.36334 2.79915 5.56843 3.59406 4.59072 3.59406V1.82144H6.36334ZM16.1127 6.25299V8.0256H14.3401C14.3401 7.04789 15.135 6.25299 16.1127 6.25299ZM14.3401 1.82144H16.1127V3.59406C15.135 3.59406 14.3401 2.79915 14.3401 1.82144ZM8.13595 4.92352C8.13595 4.33586 8.3694 3.77227 8.78494 3.35674C9.20047 2.9412 9.76406 2.70775 10.3517 2.70775C10.9394 2.70775 11.503 2.9412 11.9185 3.35674C12.334 3.77227 12.5675 4.33586 12.5675 4.92352C12.5675 5.51118 12.334 6.07477 11.9185 6.49031C11.503 6.90585 10.9394 7.13929 10.3517 7.13929C9.76406 7.13929 9.20047 6.90585 8.78494 6.49031C8.3694 6.07477 8.13595 5.51118 8.13595 4.92352ZM1.48864 2.48618C1.48864 2.1178 1.19228 1.82144 0.823911 1.82144C0.455539 1.82144 0.15918 2.1178 0.15918 2.48618V9.13349C0.15918 10.9698 1.64652 12.4571 3.48284 12.4571H14.5617C14.9301 12.4571 15.2264 12.1608 15.2264 11.7924C15.2264 11.424 14.9301 11.1277 14.5617 11.1277H3.48284C2.38049 11.1277 1.48864 10.2358 1.48864 9.13349V2.48618Z" fill="#FF635F"/>
</svg>
