<svg width="29" height="33" viewBox="0 0 29 33" fill="none" xmlns="http://www.w3.org/2000/svg">
<path d="M24.1808 23.0604C22.96 23.0604 21.8677 23.5423 21.0324 24.2973L9.57932 17.631C9.65964 17.2616 9.72389 16.8921 9.72389 16.5066C9.72389 16.1211 9.65964 15.7516 9.57932 15.3822L20.9039 8.78019C21.7713 9.58335 22.9118 10.0813 24.1808 10.0813C26.8473 10.0813 28.9998 7.92883 28.9998 5.26234C28.9998 2.59584 26.8473 0.443359 24.1808 0.443359C21.5143 0.443359 19.3618 2.59584 19.3618 5.26234C19.3618 5.64785 19.4261 6.01731 19.5064 6.38676L8.18182 12.9888C7.3144 12.1856 6.17391 11.6876 4.90491 11.6876C2.23841 11.6876 0.0859375 13.8401 0.0859375 16.5066C0.0859375 19.1731 2.23841 21.3256 4.90491 21.3256C6.17391 21.3256 7.3144 20.8276 8.18182 20.0245L19.6189 26.7068C19.5385 27.0441 19.4903 27.3975 19.4903 27.7509C19.4903 30.3371 21.5946 32.4414 24.1808 32.4414C26.767 32.4414 28.8713 30.3371 28.8713 27.7509C28.8713 25.1647 26.767 23.0604 24.1808 23.0604Z" fill="#007EF2"/>
</svg>
