<svg width="28" height="21" viewBox="0 0 28 21" fill="none" xmlns="http://www.w3.org/2000/svg">
<path d="M27.5432 6.89675L24.887 1.81111C24.6221 1.31121 24.1734 0.933792 23.6355 0.75852C23.0976 0.583248 22.5126 0.623838 22.0041 0.871723L19.5854 2.09184H18.4409L14.9641 0.515405C14.4924 0.302516 13.9605 0.264245 13.4632 0.407429H13.4416L8.78788 1.88669L6.542 0.763748C6.03523 0.512231 5.45027 0.468546 4.91177 0.641998C4.37326 0.81545 3.92377 1.19233 3.65906 1.69234L1.00287 6.77797C0.870912 7.03217 0.790572 7.30996 0.766481 7.59535C0.74239 7.88074 0.775023 8.16807 0.8625 8.44079C0.950833 8.71346 1.09282 8.96569 1.28011 9.18265C1.4674 9.39961 1.6962 9.57691 1.95305 9.7041L4.49047 10.9782L9.83525 15.4916L9.87844 15.524C10.1156 15.7065 10.3875 15.8387 10.6775 15.9127L16.94 17.4783C17.1095 17.5211 17.2835 17.5429 17.4583 17.5431C18.0336 17.5424 18.5851 17.3132 18.9915 16.9061L22.965 12.9326H22.9758L23.019 12.8894L23.073 12.8138L23.0946 12.7922L23.1162 12.7598L23.1378 12.7274L24.2391 11.0106L26.593 9.83367C26.85 9.70668 27.0791 9.52952 27.2666 9.31265C27.4541 9.09578 27.5963 8.84357 27.6849 8.57089C27.7734 8.29821 27.8065 8.01056 27.7822 7.72489C27.7578 7.43923 27.6766 7.16132 27.5432 6.90754V6.89675ZM21.7017 10.1684L18.063 7.523C17.8385 7.35889 17.5672 7.27133 17.2892 7.27328C17.0111 7.27522 16.7411 7.36656 16.5189 7.5338L15.1368 8.57036C14.7623 8.84906 14.308 8.99958 13.8411 8.99958C13.3743 8.99958 12.9199 8.84906 12.5454 8.57036L12.3619 8.42999L16.1086 4.68325H19.0995L21.8421 9.93085L21.7017 10.1684ZM5.76458 3.26877L6.89832 3.84104L4.64163 8.16006L3.50789 7.58779L5.76458 3.26877ZM17.3287 14.9085L11.4117 13.4292L6.83353 9.56374L9.54371 4.37012L14.0463 2.94485L14.1327 2.98804L10.17 6.95073C9.95066 7.16902 9.78108 7.43209 9.67283 7.72197C9.56459 8.01184 9.52023 8.32168 9.54278 8.63028C9.56534 8.93889 9.65428 9.23898 9.80352 9.51003C9.95277 9.78109 10.1588 10.0167 10.4075 10.2008L10.9906 10.6435C11.8157 11.2537 12.8149 11.583 13.8411 11.583C14.8674 11.583 15.8665 11.2537 16.6917 10.6435L17.3071 10.1792L20.0605 12.1767L17.3287 14.9085ZM23.9044 8.26803L21.6477 3.94902L22.7815 3.38755L25.0382 7.70656L23.9044 8.26803ZM13.366 19.681C13.2964 19.9608 13.1353 20.2094 12.9085 20.3873C12.6816 20.5653 12.4019 20.6625 12.1135 20.6636C12.008 20.6598 11.903 20.6453 11.8004 20.6204L8.55034 19.8106C8.21998 19.7265 7.91335 19.5677 7.65414 19.3463L5.2139 17.23C4.98792 16.9949 4.85803 16.6837 4.84977 16.3577C4.84151 16.0317 4.95547 15.7144 5.16926 15.4681C5.38305 15.2219 5.68121 15.0645 6.00515 15.0268C6.32908 14.9892 6.65538 15.0741 6.91991 15.2648L9.27377 17.3164L12.4267 18.1046C12.592 18.1462 12.7475 18.22 12.8842 18.3218C13.0209 18.4236 13.1363 18.5514 13.2235 18.6978C13.3108 18.8443 13.3683 19.0065 13.3927 19.1752C13.4172 19.3439 13.4081 19.5158 13.366 19.681Z" fill="#007EF2"/>
</svg>
