<svg width="20" height="16" viewBox="0 0 20 16" fill="none" xmlns="http://www.w3.org/2000/svg">
<path d="M19.6021 5.5303L17.7283 1.94283C17.5415 1.59019 17.2249 1.32396 16.8455 1.20032C16.4661 1.07668 16.0534 1.10531 15.6947 1.28017L13.9885 2.14086H13.1812L10.7286 1.02882C10.3959 0.878646 10.0206 0.85165 9.66987 0.952654H9.65464L6.37183 1.99614L4.78756 1.20401C4.43007 1.02658 4.01744 0.995766 3.63757 1.11812C3.2577 1.24048 2.94062 1.50633 2.7539 1.85904L0.880184 5.44651C0.7871 5.62583 0.730428 5.82179 0.713434 6.0231C0.696439 6.22442 0.71946 6.42711 0.781167 6.61949C0.843478 6.81183 0.94364 6.98976 1.07576 7.1428C1.20787 7.29585 1.36927 7.42092 1.55045 7.51064L3.34038 8.40941L7.11065 11.5932L7.14112 11.6161C7.30842 11.7448 7.5002 11.8381 7.70476 11.8903L12.1224 12.9947C12.242 13.0249 12.3648 13.0402 12.4881 13.0404C12.8939 13.0399 13.2829 12.8782 13.5696 12.591L16.3726 9.78804H16.3802L16.4107 9.75757L16.4487 9.70426L16.464 9.68902L16.4792 9.66617L16.4944 9.64332L17.2713 8.43226L18.9318 7.60204C19.1131 7.51246 19.2747 7.38749 19.4069 7.23451C19.5392 7.08152 19.6395 6.90361 19.702 6.71126C19.7645 6.51891 19.7878 6.316 19.7706 6.11448C19.7535 5.91297 19.6962 5.71693 19.6021 5.53791V5.5303ZM15.4814 7.83816L12.9146 5.97207C12.7563 5.8563 12.5649 5.79454 12.3687 5.79591C12.1726 5.79728 11.9821 5.86171 11.8254 5.97968L10.8505 6.71089C10.5863 6.90749 10.2658 7.01367 9.93645 7.01367C9.60715 7.01367 9.28662 6.90749 9.02245 6.71089L8.89296 6.61187L11.536 3.96887H13.6458L15.5804 7.67059L15.4814 7.83816ZM4.23915 2.97108L5.03891 3.37477L3.44702 6.42145L2.64726 6.01777L4.23915 2.97108ZM12.3967 11.1819L8.22269 10.1384L4.99321 7.41163L6.905 3.74799L10.0812 2.74258L10.1421 2.77305L7.34677 5.56838C7.19207 5.72236 7.07245 5.90794 6.99609 6.11242C6.91973 6.3169 6.88844 6.53546 6.90435 6.75316C6.92026 6.97085 6.983 7.18254 7.08828 7.37374C7.19356 7.56495 7.33889 7.73116 7.51434 7.86101L7.92564 8.1733C8.5077 8.60374 9.21252 8.83605 9.93645 8.83605C10.6604 8.83605 11.3652 8.60374 11.9473 8.1733L12.3814 7.84578L14.3237 9.25487L12.3967 11.1819ZM17.0352 6.49762L15.4433 3.45094L16.2431 3.05487L17.835 6.10155L17.0352 6.49762ZM9.60132 14.5485C9.55217 14.7459 9.43858 14.9212 9.27855 15.0467C9.11852 15.1723 8.92118 15.2409 8.71778 15.2416C8.64331 15.2389 8.56931 15.2287 8.4969 15.2111L6.20427 14.6399C5.97122 14.5806 5.75493 14.4685 5.57208 14.3124L3.8507 12.8195C3.69129 12.6536 3.59967 12.4342 3.59384 12.2042C3.58801 11.9742 3.6684 11.7504 3.81921 11.5767C3.97002 11.4029 4.18034 11.2919 4.40885 11.2654C4.63736 11.2388 4.86754 11.2987 5.05414 11.4332L6.71458 12.8804L8.93866 13.4364C9.05528 13.4658 9.16497 13.5179 9.26143 13.5897C9.35789 13.6615 9.43923 13.7516 9.50078 13.8549C9.56234 13.9582 9.60291 14.0727 9.62016 14.1917C9.63741 14.3107 9.63101 14.432 9.60132 14.5485Z" fill="#FFA92C"/>
</svg>
