<svg width="36" height="36" viewBox="0 0 36 36" fill="none" xmlns="http://www.w3.org/2000/svg">
<path d="M0.25406 35.3124L2.60856 26.6606C1.05713 24.0011 0.242036 20.9764 0.247094 17.8974C0.247094 8.27911 8.04378 0.482422 17.6621 0.482422C27.2804 0.482422 35.0771 8.27911 35.0771 17.8974C35.0771 27.5157 27.2804 35.3124 17.6621 35.3124C14.5845 35.3173 11.561 34.5029 8.90234 32.9527L0.25406 35.3124ZM11.377 9.72629C11.1521 9.74026 10.9324 9.79949 10.7309 9.90044C10.542 10.0074 10.3695 10.1412 10.2189 10.2975C10.0099 10.4943 9.89151 10.665 9.76438 10.8304C9.12074 11.6681 8.77453 12.6963 8.78043 13.7526C8.78392 14.606 9.00683 15.4367 9.35513 16.2134C10.0674 17.7842 11.2394 19.4473 12.7876 20.9886C13.1603 21.3595 13.5243 21.7322 13.9161 22.0787C15.8377 23.7705 18.1275 24.9906 20.6035 25.6418L21.5944 25.7934C21.9166 25.8108 22.2387 25.7864 22.5626 25.7707C23.0698 25.7445 23.5651 25.6072 24.0133 25.3684C24.2414 25.251 24.4639 25.1231 24.6803 24.9853C24.6803 24.9853 24.7552 24.9365 24.898 24.8286C25.1331 24.6544 25.2776 24.5308 25.4727 24.327C25.6172 24.1772 25.7426 24.0014 25.8384 23.8011C25.9742 23.5172 26.1101 22.9756 26.1658 22.5246C26.2076 22.1797 26.1954 21.9917 26.1902 21.875C26.1832 21.6886 26.0282 21.4953 25.8593 21.4135L24.8458 20.959C24.8458 20.959 23.3306 20.2989 22.4059 19.8775C22.3084 19.835 22.2039 19.8108 22.0977 19.8061C21.9785 19.7938 21.8581 19.8073 21.7446 19.8454C21.631 19.8835 21.527 19.9456 21.4394 20.0273V20.0238C21.4307 20.0238 21.314 20.123 20.0549 21.6486C19.9826 21.7457 19.8831 21.8191 19.7689 21.8594C19.6548 21.8997 19.5312 21.9051 19.414 21.875C19.3005 21.8446 19.1894 21.8062 19.0814 21.76C18.8654 21.6695 18.7906 21.6347 18.6425 21.5702L18.6338 21.5667C17.6375 21.1318 16.7151 20.5442 15.8997 19.8252C15.6802 19.6337 15.4765 19.4247 15.2675 19.2227C14.5824 18.5666 13.9853 17.8243 13.4912 17.0145L13.3884 16.849C13.3146 16.7379 13.255 16.6179 13.2108 16.492C13.1446 16.236 13.317 16.0305 13.317 16.0305C13.317 16.0305 13.7402 15.5673 13.937 15.3165C14.1009 15.1081 14.2537 14.8913 14.395 14.6669C14.6005 14.336 14.665 13.9964 14.557 13.7335C14.0694 12.5423 13.5643 11.3563 13.0454 10.1791C12.9426 9.94572 12.6379 9.77854 12.361 9.74545C12.2669 9.735 12.1729 9.72455 12.0788 9.71759C11.845 9.70597 11.6106 9.71003 11.377 9.72629Z" fill="#007EF2"/>
</svg>
