<svg width="70" height="70" viewBox="0 0 70 70" fill="none" xmlns="http://www.w3.org/2000/svg">
<g clip-path="url(#clip0_1_24570)">
<path opacity="0.3" d="M44.3009 25.9568H10.4981L8.76758 34.6094H46.0314L44.3009 25.9568Z" fill="#00ACA5"/>
<path d="M49.0306 11.5359H5.76758V17.3043H49.0306V11.5359Z" fill="#007EF2"/>
<path d="M43.2626 49.0301H49.031V40.3775H51.9152V34.6091L49.031 20.1881H5.76799L2.88379 34.6091V40.3775H5.76799V57.6827H31.7258V40.3775H43.2626V49.0301ZM25.9574 51.9143H11.5364V40.3775H25.9574V51.9143ZM8.76756 34.6091L10.4981 25.9565H44.3009L46.0314 34.6091H8.76756Z" fill="#007EF2"/>
<path d="M57.6836 51.9149V43.2623H51.9152V51.9149H43.2626V57.6833H51.9152V66.3359H57.6836V57.6833H66.3362V51.9149H57.6836Z" fill="#007EF2"/>
</g>
<defs>
<clipPath id="clip0_1_24570">
<rect width="69.2208" height="69.2208" fill="white" transform="translate(0 -0.000244141)"/>
</clipPath>
</defs>
</svg>
