<svg width="424" height="424" viewBox="0 0 424 424" fill="none" xmlns="http://www.w3.org/2000/svg">
<g filter="url(#filter0_d_1_24641)">
<rect x="16" y="16" width="384" height="384" rx="10.8936" fill="white"/>
<rect x="43" y="43" width="329.532" height="329.532" rx="10.8936" fill="#007EF2" fill-opacity="0.1"/>
<path d="M185.392 205.501C185.34 204.976 185.116 204.568 184.721 204.277C184.326 203.987 183.79 203.841 183.113 203.841C182.653 203.841 182.265 203.906 181.948 204.036C181.631 204.162 181.388 204.338 181.219 204.564C181.054 204.789 180.971 205.046 180.971 205.332C180.963 205.571 181.013 205.779 181.121 205.957C181.234 206.135 181.388 206.289 181.583 206.419C181.779 206.545 182.004 206.656 182.26 206.751C182.516 206.842 182.79 206.921 183.081 206.986L184.279 207.272C184.86 207.402 185.394 207.576 185.88 207.793C186.366 208.01 186.787 208.277 187.143 208.594C187.499 208.911 187.775 209.284 187.97 209.714C188.17 210.143 188.272 210.636 188.276 211.191C188.272 212.007 188.063 212.715 187.651 213.314C187.243 213.908 186.653 214.371 185.88 214.701C185.112 215.026 184.185 215.189 183.1 215.189C182.024 215.189 181.086 215.024 180.288 214.694C179.493 214.364 178.873 213.876 178.426 213.229C177.983 212.578 177.751 211.773 177.729 210.814H180.457C180.487 211.261 180.615 211.634 180.841 211.934C181.071 212.229 181.377 212.452 181.759 212.604C182.145 212.752 182.582 212.826 183.068 212.826C183.545 212.826 183.96 212.756 184.311 212.617C184.667 212.478 184.943 212.285 185.138 212.038C185.333 211.79 185.431 211.506 185.431 211.185C185.431 210.885 185.342 210.634 185.164 210.43C184.99 210.226 184.734 210.052 184.396 209.909C184.062 209.766 183.651 209.635 183.165 209.518L181.714 209.154C180.589 208.88 179.702 208.453 179.051 207.871C178.4 207.289 178.076 206.506 178.081 205.521C178.076 204.714 178.291 204.008 178.725 203.405C179.164 202.802 179.765 202.331 180.529 201.992C181.293 201.654 182.161 201.484 183.133 201.484C184.122 201.484 184.986 201.654 185.724 201.992C186.466 202.331 187.043 202.802 187.456 203.405C187.868 204.008 188.081 204.707 188.094 205.501H185.392ZM189.848 203.991V201.667H200.798V203.991H196.716V215H193.93V203.991H189.848ZM202.785 215V201.667H211.769V203.991H205.604V207.168H211.307V209.492H205.604V212.676H211.795V215H202.785ZM214.194 215V201.667H219.454C220.466 201.667 221.327 201.86 222.039 202.246C222.751 202.628 223.293 203.16 223.667 203.841C224.044 204.518 224.233 205.299 224.233 206.185C224.233 207.07 224.042 207.852 223.66 208.529C223.278 209.206 222.725 209.733 222 210.111C221.279 210.488 220.407 210.677 219.383 210.677H216.03V208.418H218.927C219.469 208.418 219.917 208.325 220.268 208.138C220.624 207.947 220.889 207.684 221.062 207.35C221.24 207.012 221.329 206.623 221.329 206.185C221.329 205.742 221.24 205.356 221.062 205.026C220.889 204.692 220.624 204.434 220.268 204.251C219.912 204.065 219.461 203.971 218.914 203.971H217.013V215H214.194ZM236.396 201.667V215H233.577V204.342H233.499L230.446 206.257V203.757L233.747 201.667H236.396Z" fill="#8491A5"/>
</g>
<defs>
<filter id="filter0_d_1_24641" x="0" y="0" width="424" height="424" filterUnits="userSpaceOnUse" color-interpolation-filters="sRGB">
<feFlood flood-opacity="0" result="BackgroundImageFix"/>
<feColorMatrix in="SourceAlpha" type="matrix" values="0 0 0 0 0 0 0 0 0 0 0 0 0 0 0 0 0 0 127 0" result="hardAlpha"/>
<feOffset dx="4" dy="4"/>
<feGaussianBlur stdDeviation="10"/>
<feComposite in2="hardAlpha" operator="out"/>
<feColorMatrix type="matrix" values="0 0 0 0 0 0 0 0 0 0 0 0 0 0 0 0 0 0 0.06 0"/>
<feBlend mode="normal" in2="BackgroundImageFix" result="effect1_dropShadow_1_24641"/>
<feBlend mode="normal" in="SourceGraphic" in2="effect1_dropShadow_1_24641" result="shape"/>
</filter>
</defs>
</svg>
