<svg width="49" height="142" viewBox="0 0 49 142" fill="none" xmlns="http://www.w3.org/2000/svg">
<path opacity="0.6" d="M45.8838 41.2C47.3089 62.4342 47.8077 88.3712 47.3801 119.011C47.3801 120.009 47.0238 120.65 46.3113 120.935C46.3113 121.077 46.0975 121.22 45.67 121.363C45.385 122.075 44.8149 123.286 43.9598 124.997C43.1048 126.564 42.5347 127.847 42.2497 128.844C42.1072 129.557 41.8222 130.554 41.3946 131.837C41.1096 133.12 40.8959 134.046 40.7533 134.616C40.6108 134.901 40.3258 135.471 39.8983 136.326C39.4707 137.181 39.257 137.823 39.257 138.25C39.257 138.25 39.1857 138.321 39.0432 138.464C39.1857 140.174 38.4732 141.029 36.9055 141.029C34.6254 141.029 31.2764 140.958 26.8585 140.815C22.4407 140.53 19.0917 140.388 16.8115 140.388C16.8115 140.388 16.669 140.388 16.3839 140.388C15.3864 140.388 14.6738 139.96 14.2463 139.105C13.8187 138.678 13.605 138.108 13.605 137.395C13.605 137.395 13.605 137.324 13.605 137.181C13.605 136.896 13.605 136.682 13.605 136.54C13.605 136.112 13.6762 135.756 13.8187 135.471C14.2463 133.904 14.3888 130.697 14.2463 125.852C14.1038 121.006 14.0325 117.8 14.0325 116.232C14.175 114.379 14.3175 112.384 14.46 110.247C14.7451 108.109 15.0301 105.829 15.3151 103.406C15.7426 100.841 16.0277 98.8458 16.1702 97.4206C17.5953 84.7372 18.3791 71.9824 18.5216 59.1564C18.3791 59.2989 17.3815 59.869 15.5289 60.8665C15.2439 61.009 14.8163 61.2228 14.2463 61.5078C13.8187 61.6503 13.3912 61.8641 12.9637 62.1491C12.5361 62.2916 12.1086 62.5054 11.6811 62.7904C10.826 63.6455 9.82843 63.6455 8.68834 62.7904C7.26323 62.9329 6.47941 62.2204 6.3369 60.6528C6.19439 59.0851 5.12556 56.5912 3.1304 53.1709C1.27776 49.6082 0.636457 46.6867 1.2065 44.4065C1.63403 43.1239 2.41785 41.4138 3.55794 39.2761C4.69802 36.9959 5.41058 35.4283 5.6956 34.5732C5.83811 33.8607 6.12314 32.7918 6.55067 31.3667C6.9782 29.7991 7.33448 28.659 7.6195 27.9464C7.47699 26.6638 8.04704 25.88 9.32964 25.595C9.47215 25.595 9.61466 25.595 9.75717 25.595C10.1847 25.4525 10.6122 25.4525 11.0398 25.595C12.0374 24.5974 12.8924 23.4573 13.605 22.1747C14.46 20.8921 15.3151 19.3958 16.1702 17.6857C17.1678 15.833 17.8803 14.5504 18.3078 13.8378C18.5929 13.2678 19.6617 11.7002 21.5143 9.13498C23.5095 6.42727 24.7921 4.21834 25.3621 2.5082C25.6472 1.36812 26.3597 0.869334 27.4998 1.01184C28.2124 1.01184 29.6375 1.0831 31.7751 1.22561C33.9128 1.36812 35.4804 1.51063 36.478 1.65315C37.6181 1.79566 38.8294 2.22319 40.1121 2.93574C41.5372 3.6483 42.5347 4.64588 43.1048 5.92848C43.6748 7.21108 44.0311 9.06372 44.1736 11.4864C44.4586 13.7666 44.5299 15.9043 44.3874 17.8994C44.2449 19.7521 44.2449 21.6047 44.3874 23.4574C44.5299 25.025 44.7437 27.8752 45.0287 32.008C45.4562 35.9983 45.7412 39.0623 45.8838 41.2ZM5.90937 46.1166C6.19439 45.8316 6.55067 45.2616 6.9782 44.4065C7.54825 43.5514 7.90453 42.9101 8.04704 42.4826C8.33206 42.0551 8.83085 41.0575 9.5434 39.4899C10.256 37.9222 10.8973 36.7821 11.4673 36.0696C11.0398 35.2145 10.6835 34.502 10.3985 33.9319C9.97094 35.6421 9.61466 36.8534 9.32964 37.566C9.04462 38.2785 8.54583 39.2048 7.83327 40.3449C7.26323 41.485 6.76444 42.5538 6.3369 43.5514C6.05188 44.549 5.90937 45.4753 5.90937 46.3304C5.90937 46.1879 5.90937 46.1166 5.90937 46.1166ZM7.6195 51.0333C7.76202 50.7482 7.97578 50.3207 8.2608 49.7507C8.68834 49.1806 8.9021 48.8243 8.9021 48.6818C11.4673 44.1215 13.1062 41.2712 13.8187 40.1312C13.3912 39.4186 13.1062 38.9911 12.9637 38.8486C12.3936 39.9886 12.0373 40.7012 11.8948 40.9862C10.7547 43.2664 9.97094 44.6203 9.5434 45.0478C9.40089 45.3328 9.04462 46.0454 8.47457 47.1855C7.90453 48.3255 7.40574 49.1806 6.9782 49.7507C7.40574 50.4632 7.6195 50.8908 7.6195 51.0333ZM10.1847 55.3086C10.3272 54.8811 11.2535 53.1709 12.9637 50.1782C13.3912 49.4656 13.9613 48.3255 14.6738 46.7579C15.3864 45.1903 15.9564 44.1215 16.3839 43.5514C16.2414 43.5514 15.8852 43.1951 15.3151 42.4826C15.3151 42.6251 14.8876 43.4802 14.0325 45.0478C13.3199 46.4729 12.7499 47.5417 12.3224 48.2543C10.1847 51.8171 9.11587 53.6697 9.11587 53.8122V54.026C9.11587 54.1685 9.32964 54.8098 9.75717 55.9499C9.75717 55.9499 9.75717 55.8786 9.75717 55.7361C9.89968 55.4511 10.0422 55.3086 10.1847 55.3086ZM17.8803 54.6673C18.5929 53.5272 19.3054 51.7458 20.018 49.3231C20.873 46.9004 21.5143 45.3328 21.9419 44.6203C22.0844 44.3352 22.2982 43.9077 22.5832 43.3377C22.8682 42.6251 23.0107 42.1976 23.0107 42.0551C22.5832 42.4826 22.0844 42.9814 21.5143 43.5514C21.2293 43.8364 20.9443 44.264 20.6593 44.834C20.5168 45.2616 20.3743 45.6891 20.2317 46.1166C20.0892 46.4016 19.8755 46.8292 19.5904 47.3992C19.4479 47.8268 19.3054 48.183 19.1629 48.4681C18.1653 50.3207 17.3103 51.8171 16.5977 52.9572C15.8852 53.9547 15.2439 55.0236 14.6738 56.1637C15.9564 55.3086 17.0252 54.8098 17.8803 54.6673ZM23.0107 97.6344C23.0107 97.4919 23.082 97.2781 23.2245 96.9931C23.5095 96.7081 23.652 96.4943 23.652 96.3518C23.652 94.9267 23.652 93.5728 23.652 92.2902C23.367 92.7178 23.1532 93.0741 23.0107 93.3591C22.7257 93.6441 22.2982 94.1429 21.7281 94.8554C21.3006 95.568 20.9443 96.138 20.6593 96.5656C20.6593 96.7081 20.588 96.9219 20.4455 97.2069C20.4455 97.4919 20.4455 97.7769 20.4455 98.0619C20.4455 98.347 20.4455 98.632 20.4455 98.917C20.4455 99.202 20.4455 99.4871 20.4455 99.7721C20.4455 99.9146 20.3743 100.128 20.2317 100.413C20.2317 100.698 20.2317 100.841 20.2317 100.841L20.4455 100.627C20.588 100.485 20.9443 100.057 21.5143 99.3445C22.2269 98.632 22.7257 98.0619 23.0107 97.6344ZM23.4382 101.055L23.2245 101.268L23.0107 101.696C22.5832 101.981 22.0844 102.551 21.5143 103.406C21.0868 104.119 20.8018 104.546 20.6593 104.689C20.6593 104.831 20.5168 105.116 20.2317 105.544C19.9467 105.829 19.733 106.043 19.5904 106.185C19.4479 108.18 19.2342 110.175 18.9491 112.171C20.3743 109.463 21.7994 107.04 23.2245 104.902C23.367 103.905 23.4382 102.622 23.4382 101.055ZM21.3006 91.4352C21.5856 91.1502 21.9419 90.5801 22.3694 89.725C22.9395 88.87 23.367 88.2999 23.652 88.0149C23.652 86.5898 23.652 85.2359 23.652 83.9533C23.367 84.3809 23.1532 84.6659 23.0107 84.8084C22.8682 85.2359 22.3694 85.7347 21.5143 86.3048C21.3718 87.8724 21.2293 89.6538 21.0868 91.6489C21.0868 91.6489 21.1581 91.5777 21.3006 91.4352ZM23.652 75.1889C22.7969 76.044 22.3694 76.5428 22.3694 76.6853C22.2269 77.2553 22.0844 79.108 21.9419 82.2432C22.0844 82.1007 22.1556 81.9582 22.1556 81.8157C22.2982 81.6732 22.4407 81.4594 22.5832 81.1744C22.7257 80.8893 22.7969 80.7468 22.7969 80.7468C23.082 80.3193 23.367 79.963 23.652 79.678C23.652 78.6804 23.652 77.1841 23.652 75.1889ZM22.5832 72.8375C22.5832 72.695 22.5832 72.6237 22.5832 72.6237C22.7257 72.4812 23.082 71.9111 23.652 70.9136C23.652 70.201 23.652 69.0609 23.652 67.4933C23.367 67.9208 23.0107 68.4196 22.5832 68.9897C22.5832 69.8447 22.5832 71.1273 22.5832 72.8375ZM23.0107 63.8593C23.1532 63.7168 23.2245 63.6455 23.2245 63.6455C23.2245 63.503 23.4382 63.2892 23.8658 63.0042C23.8658 62.8617 23.8658 62.7192 23.8658 62.5767V61.7216C23.7233 61.8641 23.367 62.3629 22.7969 63.218C22.7969 63.3605 22.7969 63.5742 22.7969 63.8593C22.7969 64.0018 22.7969 64.073 22.7969 64.073C22.7969 64.073 22.8682 64.0018 23.0107 63.8593ZM23.0107 58.3013C23.4382 57.7313 23.7945 57.2325 24.0795 56.805C24.2221 54.8098 24.2933 52.8147 24.2933 50.8195C23.8658 52.5296 23.4382 53.8835 23.0107 54.8811C23.0107 55.0236 23.0107 55.0948 23.0107 55.0948C23.0107 55.5224 23.0107 56.0924 23.0107 56.805C23.0107 57.5175 23.0107 58.0163 23.0107 58.3013ZM18.3078 119.225C18.3078 120.65 18.3791 123.5 18.5216 127.776C20.6593 122.075 21.8706 118.94 22.1556 118.37C22.0131 117.087 22.2269 114.522 22.7969 110.674C21.3718 112.954 19.9467 115.733 18.5216 119.011C18.3791 119.154 18.3078 119.225 18.3078 119.225ZM19.5904 136.112C19.5904 136.112 20.4455 136.112 22.1556 136.112C23.4382 131.695 24.3646 128.631 24.9346 126.92C25.2196 126.35 25.5047 125.567 25.7897 124.569C26.0747 123.571 26.2885 122.859 26.431 122.431C26.0034 122.289 25.6472 122.218 25.3621 122.218C24.9346 123.073 24.3646 124.427 23.652 126.279C23.082 127.989 22.6544 129.201 22.3694 129.913C22.0844 130.626 21.6569 131.623 21.0868 132.906C20.5168 134.046 20.1605 134.901 20.018 135.471C19.8755 135.614 19.733 135.827 19.5904 136.112ZM25.7897 136.326C26.0747 135.471 26.5022 134.26 27.0723 132.692C27.6423 131.125 27.9273 130.127 27.9273 129.699C28.2124 129.129 28.6399 128.061 29.2099 126.493C29.78 124.783 30.1363 123.429 30.2788 122.431C29.8512 122.431 29.4237 122.503 28.9962 122.645C28.7112 123.358 28.3549 124.427 27.9273 125.852C27.4998 127.277 27.2148 128.132 27.0723 128.417C26.5022 129.984 25.7184 132.55 24.7208 136.112C24.8634 136.112 25.0771 136.112 25.3621 136.112C25.6472 136.112 25.7897 136.184 25.7897 136.326ZM30.7063 136.326C30.9913 135.186 31.7751 132.835 33.0577 129.272C33.3428 128.702 33.699 127.562 34.1266 125.852C34.5541 124.141 34.9816 122.859 35.4092 122.004C34.8391 122.004 34.1266 122.075 33.2715 122.218C33.2715 122.503 33.129 122.645 32.844 122.645C32.7015 123.5 32.3452 124.712 31.7751 126.279C31.3476 127.704 30.9913 128.773 30.7063 129.486C30.5638 129.913 30.2075 130.982 29.6375 132.692C29.0674 134.26 28.6399 135.471 28.3549 136.326C28.6399 136.326 28.9249 136.326 29.2099 136.326C29.495 136.326 29.78 136.326 30.065 136.326C30.35 136.326 30.5638 136.326 30.7063 136.326ZM37.7606 128.203C38.0456 127.491 38.972 125.495 40.5396 122.218C40.1121 122.218 39.3282 122.146 38.1881 122.004C38.0456 122.289 37.5468 123.856 36.6918 126.707C36.5493 127.134 36.2642 127.847 35.8367 128.844C35.5517 129.699 35.3379 130.412 35.1954 130.982C35.0529 131.552 34.7679 132.478 34.3403 133.761C33.9128 134.901 33.6278 135.756 33.4853 136.326C33.6278 136.326 33.8416 136.397 34.1266 136.54C34.5541 136.54 34.9104 136.54 35.1954 136.54C35.1954 136.255 35.3379 135.899 35.6229 135.471C35.908 134.901 36.0505 134.545 36.0505 134.402C36.3355 133.975 36.5493 133.476 36.6918 132.906C36.8343 132.336 36.9055 131.837 36.9055 131.41C37.0481 130.982 37.1906 130.483 37.3331 129.913C37.4756 129.201 37.6181 128.631 37.7606 128.203ZM42.891 116.232C43.3186 115.662 43.6748 114.878 43.9598 113.881C44.2449 112.741 44.3874 111.601 44.3874 110.46C44.3874 109.32 44.3874 108.038 44.3874 106.613C44.3874 105.045 44.3161 103.762 44.1736 102.765C44.1736 101.625 44.1024 100.413 43.9598 99.1308C43.8173 97.7057 43.7461 96.7793 43.7461 96.3518C43.6036 94.3567 43.4611 91.2927 43.3186 87.1598C43.3186 83.027 43.176 79.8918 42.891 77.7541C42.606 73.0512 42.1785 63.218 41.6084 48.2543C41.0384 33.1481 40.1833 21.5334 39.0432 13.4103L38.6157 8.70745C38.6157 8.27991 38.6157 8.06614 38.6157 8.06614C38.4732 7.92363 38.3307 7.78113 38.1881 7.63862C37.9031 7.06857 37.6181 6.8548 37.3331 6.99731C36.763 6.99731 35.9792 6.8548 34.9816 6.56977C32.1314 6.14224 30.4925 5.99973 30.065 6.14224C29.78 6.28475 28.8537 7.35358 27.286 9.34874C25.7184 11.2014 23.5095 14.5504 20.6593 19.3958C17.9516 24.0987 15.5289 27.5189 13.3912 29.6566C13.3912 29.6566 13.3912 29.7278 13.3912 29.8704C13.3912 29.8704 13.32 29.8704 13.1774 29.8704C15.4576 34.4307 17.3815 37.7797 18.9491 39.9174C20.9443 37.7797 23.367 35.8558 26.2172 34.1457C26.9298 33.7182 27.6423 33.7182 28.3549 34.1457C29.0674 34.5732 29.4237 35.2145 29.4237 36.0696C29.4237 39.3473 29.2812 43.2664 28.9962 47.8268C28.8537 52.3871 28.6399 56.8762 28.3549 61.2941C28.2124 65.7119 28.1411 69.7022 28.1411 73.265C28.1411 85.9485 27.8561 98.7745 27.286 111.743C26.8585 113.026 26.7873 114.094 27.0723 114.95C27.3573 115.805 27.4286 116.446 27.286 116.873C27.1435 117.301 27.3573 117.586 27.9273 117.728C28.4974 117.728 28.9249 117.728 29.2099 117.728C29.495 117.728 30.2075 117.728 31.3476 117.728C32.4877 117.586 33.4853 117.515 34.3403 117.515C34.7679 117.515 35.3379 117.586 36.0505 117.728C36.9055 117.728 37.6894 117.8 38.4019 117.942C39.1145 117.942 39.827 117.942 40.5396 117.942C41.3947 117.942 41.9647 117.871 42.2497 117.728C42.2497 117.443 42.3922 117.23 42.6772 117.087C42.6772 116.802 42.7485 116.517 42.891 116.232Z" fill="#8491A5"/>
</svg>
