<svg width="66" height="146" viewBox="0 0 66 146" fill="none" xmlns="http://www.w3.org/2000/svg">
<path opacity="0.6" d="M64.1228 93.8554C64.8353 94.283 65.2628 94.9243 65.4054 95.7793V118.011C65.4054 118.011 65.3341 118.225 65.1916 118.652C65.3341 120.22 64.6215 121.004 63.0539 121.004C62.9114 121.004 62.6977 121.146 62.4126 121.431C62.2701 121.716 62.1276 121.93 61.9851 122.073C61.5576 122.785 60.6312 124.567 59.2061 127.417C58.9211 127.844 58.2798 128.913 57.2822 130.623C56.4272 132.191 55.7146 133.616 55.1446 134.899C54.5745 136.181 54.3607 137.321 54.5033 138.319C54.5033 139.459 53.9332 140.172 52.7931 140.457C52.5081 140.457 52.2943 140.457 52.1518 140.457C49.3016 140.742 45.0975 141.027 39.5396 141.312C34.1242 141.597 30.2051 141.81 27.7824 141.953C25.9298 142.095 22.8658 142.523 18.5904 143.236C14.4576 143.948 11.3224 144.304 9.1847 144.304C8.47215 144.874 7.68834 145.017 6.83327 144.732C5.9782 144.447 5.47941 143.877 5.3369 143.022C4.90937 142.737 4.55309 142.309 4.26807 141.739C3.69802 139.174 3.34175 136.538 3.19924 133.83C3.19924 130.98 3.413 128.272 3.84054 125.707C4.26807 123.141 4.83811 120.434 5.55067 117.584C6.40574 114.733 7.33206 112.026 8.32964 109.46C9.46973 106.895 10.6098 104.188 11.7499 101.337C13.0325 98.4871 14.1726 95.8506 15.1702 93.4279C16.3103 90.8627 17.3791 88.2263 18.3767 85.5185C19.5168 82.8108 20.4431 80.3169 21.1556 78.0367C21.0131 77.4667 21.0844 76.9679 21.3694 76.5403C21.6544 75.8278 21.9395 75.044 22.2245 74.1889C22.652 73.3338 23.0083 72.6213 23.2933 72.0512C23.5783 71.3387 23.9346 70.6261 24.3621 69.9136C24.7897 69.0585 25.146 68.3459 25.431 67.7759C25.8585 67.0633 26.4998 65.7095 27.3549 63.7143C28.2099 61.5767 28.9938 60.0803 29.7063 59.2252V59.0115C29.8488 58.0139 29.9201 57.0876 29.9201 56.2325C29.9201 54.9499 29.8488 53.9523 29.7063 53.2398C29.7063 52.5272 29.4213 51.7434 28.8512 50.8883C28.2812 50.0333 27.4261 49.677 26.286 49.8195C25.0034 49.962 23.1508 51.8859 20.7281 55.5912C19.303 57.5864 18.1629 58.869 17.3078 59.439C17.1653 59.8665 17.0941 60.3653 17.0941 60.9354C17.0941 61.9329 16.5953 62.5742 15.5977 62.8593C14.6001 63.1443 13.8163 63.0018 13.2463 62.4317C12.8187 62.2892 12.4625 62.0755 12.1774 61.7904C8.32964 58.0851 6.19197 55.9475 5.76444 55.3774C5.62193 55.2349 5.05188 54.7361 4.0543 53.8811C3.05672 52.8835 2.34417 52.0997 1.91664 51.5296C0.919057 50.9596 0.634035 50.1758 1.06157 49.1782C1.63161 47.6106 2.41542 45.4016 3.413 42.5514C4.55309 39.5587 5.40816 37.3498 5.9782 35.9247C6.26323 35.0696 6.6195 33.8582 7.04704 32.2906C7.47457 30.723 7.9021 29.2979 8.32964 28.0153C8.89968 26.7327 9.46973 25.5926 10.0398 24.595C10.1823 24.595 10.3248 24.4525 10.4673 24.1675C11.8924 21.1747 13.6738 18.3245 15.8115 15.6168C17.9491 12.9091 20.4431 10.4864 23.2933 8.34874C26.1435 6.06857 29.065 4.35843 32.0577 3.21834C37.1881 1.08068 42.7461 0.938167 48.7316 2.79081C54.717 4.50094 58.8498 7.99246 61.13 13.2654C62.1276 15.2605 62.7689 17.4695 63.0539 19.8921C63.3389 22.1723 63.4102 24.3812 63.2677 26.5189C63.1252 28.5141 62.7689 30.8655 62.1989 33.5732C61.6288 36.1384 61.0588 38.3473 60.4887 40.2C59.9187 41.9101 59.1349 44.119 58.1373 46.8268C57.2822 49.5345 56.6409 51.6009 56.2134 53.026C55.0733 57.0163 52.0806 63.5006 47.2352 72.4788C42.5323 81.3145 39.6821 88.2975 38.6845 93.4279C45.3825 93.4279 49.4441 93.4992 50.8692 93.6417C52.0093 93.6417 53.2207 93.5704 54.5033 93.4279C55.9284 93.2854 57.2822 93.1429 58.5648 93.0004C59.9899 92.8579 61.2725 92.7866 62.4126 92.7866C63.2677 92.7866 63.8377 93.1429 64.1228 93.8554ZM5.9782 49.6057C5.9782 49.6057 6.04946 49.677 6.19197 49.8195C6.47699 49.962 6.69076 50.1758 6.83327 50.4608C7.2608 49.4632 7.68834 48.3231 8.11587 47.0405C8.5434 45.7579 8.97094 44.4753 9.39847 43.1927C9.82601 41.9101 10.1823 40.77 10.4673 39.7725C10.7523 39.0599 11.3936 37.7773 12.3912 35.9247C13.3888 33.9295 14.0301 32.4331 14.3151 31.4356C13.7451 30.723 13.175 30.0104 12.605 29.2979C12.1774 30.438 11.6074 32.2194 10.8948 34.6421C10.1823 36.9222 9.75475 38.2048 9.61224 38.4899C8.61466 41.6251 7.2608 45.2591 5.55067 49.392C5.69318 49.392 5.76444 49.4632 5.76444 49.6057C5.90695 49.6057 5.9782 49.6057 5.9782 49.6057ZM10.8948 54.0948C10.7523 54.0948 10.8948 53.3823 11.3224 51.9572C11.8924 50.5321 12.32 49.4632 12.605 48.7507C12.7475 48.0381 13.0325 47.1118 13.46 45.9717C14.0301 44.8316 14.3864 43.9765 14.5289 43.4065C14.8139 42.8364 15.2414 41.9101 15.8115 40.6275C16.3815 39.3449 16.8091 38.2048 17.0941 37.2073C17.5216 36.2097 17.8779 35.2121 18.1629 34.2145C17.1653 33.6445 16.5953 33.2882 16.4528 33.1457C16.0252 34.1433 15.3839 35.4971 14.5289 37.2073C13.6738 38.9174 13.1038 40.2 12.8187 41.0551C12.2487 42.1951 11.5361 44.0478 10.6811 46.613C9.96852 49.1782 9.39847 51.0308 8.97094 52.1709C9.11345 52.4559 9.39847 52.8122 9.826 53.2398C9.96852 53.3823 10.1823 53.596 10.4673 53.8811C10.6098 54.0236 10.6811 54.0948 10.6811 54.0948C10.6811 54.0948 10.7523 54.0948 10.8948 54.0948ZM17.3078 50.0333C17.5929 49.0357 18.3054 47.2543 19.4455 44.6891C20.7281 41.9814 21.5832 39.915 22.0107 38.4899C21.8682 38.2048 21.7257 37.9198 21.5832 37.6348C21.2982 37.0647 20.8706 36.4947 20.3006 35.9247C19.7305 38.0623 18.4479 41.3401 16.4528 45.7579C14.6001 50.0333 13.3888 53.311 12.8187 55.5912C12.8187 55.5912 12.7475 55.7337 12.605 56.0187C12.7475 56.0187 12.89 56.1612 13.0325 56.4463C13.175 56.5888 13.3175 56.7313 13.46 56.8738C13.6026 56.7313 13.7451 56.5888 13.8876 56.4463C14.1726 55.8762 14.7426 54.8786 15.5977 53.4535C16.4528 51.8859 17.0228 50.7458 17.3078 50.0333ZM28.8512 40.4138C28.9938 39.9862 29.2075 39.2024 29.4925 38.0623C29.9201 36.9222 30.2051 36.0672 30.3476 35.4971C30.6326 34.357 30.8464 33.502 30.9889 32.9319C29.9913 33.787 29.065 35.1408 28.2099 36.9935C28.0674 37.9911 27.4974 38.7036 26.4998 39.1312C26.0723 40.4138 25.0747 42.6939 23.5071 45.9717C24.7897 45.5442 26.0723 45.3304 27.3549 45.3304C27.6399 44.9029 27.8537 44.4041 27.9962 43.834C28.1387 43.264 28.2812 42.6939 28.4237 42.1239C28.5662 41.4113 28.7087 40.8413 28.8512 40.4138ZM34.1954 51.1021C34.4804 50.8171 34.7655 50.532 35.0505 50.247C35.3355 49.8195 35.6205 49.392 35.9055 48.9644C36.3331 48.3944 36.6181 48.0381 36.7606 47.8956C37.0456 47.6106 37.4019 47.2543 37.8295 46.8268C38.257 46.2567 38.6133 45.8292 38.8983 45.5442C39.1833 45.1166 39.4683 44.6891 39.7533 44.2616C39.7533 44.2616 39.8246 44.1903 39.9671 44.0478C40.6797 41.9101 41.1785 40.0575 41.4635 38.4899C41.036 37.4923 40.5372 36.566 39.9671 35.7109C39.8246 35.9959 39.6108 36.4234 39.3258 36.9935L38.8983 38.0623C38.7558 38.3473 38.542 38.7749 38.257 39.3449C37.972 39.7725 37.6869 40.2712 37.4019 40.8413C37.2594 41.2688 37.0456 41.6251 36.7606 41.9101C36.4756 42.7652 35.8343 43.9765 34.8367 45.5442C33.9816 47.1118 33.3403 48.3231 32.9128 49.1782C33.3403 49.8908 33.6966 50.6746 33.9816 51.5296C33.9816 51.3871 34.0529 51.2446 34.1954 51.1021ZM36.3331 52.5985C35.478 53.311 35.0505 53.8098 35.0505 54.0948C34.908 54.5224 34.6942 54.8074 34.4092 54.9499C34.4092 55.0924 34.4092 55.2349 34.4092 55.3774C34.4092 55.5199 34.4092 55.6625 34.4092 55.805C35.1217 54.8074 35.763 53.7386 36.3331 52.5985ZM37.6157 34.8558C37.7582 34.2858 37.972 33.8582 38.257 33.5732C37.1169 32.4331 35.9768 31.7206 34.8367 31.4356C34.6942 31.7206 34.5517 31.9343 34.4092 32.0768C34.2667 32.0768 33.8391 32.9319 33.1266 34.6421C32.9841 35.2121 32.7703 35.9959 32.4853 36.9935C32.3428 37.9911 32.2003 38.7036 32.0577 39.1312C31.9152 39.4162 31.6302 40.485 31.2027 42.3377C30.7751 44.0478 30.3476 45.3304 29.9201 46.1855C29.9201 46.1855 29.9913 46.1855 30.1338 46.1855C30.5614 46.4705 30.9177 46.6842 31.2027 46.8268C31.4877 46.2567 32.0577 45.2591 32.9128 43.834C33.7679 42.2664 34.4092 41.0551 34.8367 40.2C35.1217 39.6299 35.5493 38.7749 36.1193 37.6348C36.8319 36.3522 37.3307 35.4259 37.6157 34.8558ZM14.7426 107.75C13.3175 111.171 12.1774 114.163 11.3224 116.728C12.1774 115.446 12.7475 114.591 13.0325 114.163C13.7451 112.881 14.3151 112.097 14.7426 111.812C14.7426 111.812 14.8139 111.812 14.9564 111.812C15.0989 109.674 15.2414 107.822 15.3839 106.254C15.2414 106.396 15.0989 106.61 14.9564 106.895C14.9564 107.18 14.8852 107.465 14.7426 107.75ZM8.5434 127.203C8.40089 128.343 8.25838 129.412 8.11587 130.41C8.82843 129.269 9.32722 128.414 9.61224 127.844C9.89726 127.559 10.3248 126.989 10.8948 126.134C11.6074 125.137 12.1774 124.353 12.605 123.783C13.0325 123.213 13.3888 122.5 13.6738 121.645C14.1013 120.79 14.3864 120.077 14.5289 119.507C14.5289 119.222 14.6001 119.009 14.7426 118.866C14.7426 118.866 14.7426 117.94 14.7426 116.087C14.7426 116.23 14.6714 116.372 14.5289 116.515C13.6738 117.655 13.0325 118.652 12.605 119.507C10.3248 123.355 8.97094 125.92 8.5434 127.203ZM8.11587 137.25C9.96852 134.685 11.3936 132.191 12.3912 129.768C12.6762 129.341 13.0325 128.486 13.46 127.203C12.4625 128.628 11.8924 129.341 11.7499 129.341C11.4649 129.911 10.8948 130.98 10.0398 132.547C9.1847 134.115 8.5434 135.255 8.11587 135.967C8.11587 136.11 8.11587 136.253 8.11587 136.395V137.25ZM11.9637 139.815C13.1038 139.673 14.6001 139.459 16.4528 139.174C16.4528 139.031 17.3791 135.682 19.2317 129.127C19.3743 128.557 19.588 127.631 19.873 126.348C20.1581 125.065 20.3718 124.068 20.5143 123.355C20.2293 123.783 19.873 124.068 19.4455 124.21C19.303 124.353 19.0892 124.78 18.8042 125.493C18.6617 126.063 18.4479 126.776 18.1629 127.631C18.0204 128.343 17.8779 128.699 17.7354 128.699C17.0228 130.695 16.1678 132.618 15.1702 134.471C14.7426 135.611 13.7451 137.321 12.1774 139.602C12.0349 139.602 11.9637 139.602 11.9637 139.602C11.9637 139.602 11.9637 139.673 11.9637 139.815ZM20.3006 138.319C20.5856 136.894 21.4407 134.4 22.8658 130.837C23.0083 130.267 23.2221 129.483 23.5071 128.486C23.9346 127.346 24.2909 126.348 24.5759 125.493C24.8609 124.638 25.2172 123.854 25.6447 123.141C25.2172 123.141 24.4334 123.141 23.2933 123.141C23.0083 123.997 22.652 125.208 22.2245 126.776C21.9395 128.343 21.7969 129.341 21.7969 129.768C21.6544 129.911 21.2269 131.122 20.5143 133.402C19.8018 135.682 19.303 137.393 19.018 138.533C19.303 138.533 19.588 138.533 19.873 138.533C20.1581 138.533 20.3006 138.461 20.3006 138.319ZM23.0795 137.891C23.3646 137.891 23.8634 137.82 24.5759 137.678C25.0034 135.967 26.1435 133.117 27.9962 129.127C28.2812 128.272 28.6375 127.132 29.065 125.707C29.4925 124.282 29.8488 123.213 30.1338 122.5C29.8488 122.5 29.35 122.571 28.6375 122.714C28.6375 122.856 28.5662 123.07 28.4237 123.355C28.1387 123.64 27.0699 126.348 25.2172 131.478C23.9346 134.899 23.2221 137.036 23.0795 137.891ZM29.2788 137.464C29.2788 137.179 29.2788 137.036 29.2788 137.036C30.1338 135.896 31.1314 133.26 32.2715 129.127C32.414 128.699 32.5565 128.272 32.699 127.844C32.8416 127.274 32.9841 126.776 33.1266 126.348C33.2691 125.778 33.4116 125.279 33.5541 124.852C33.8391 124.424 34.0529 123.925 34.1954 123.355C34.3379 122.785 34.4804 122.286 34.6229 121.859C34.4804 121.859 34.1954 121.93 33.7679 122.073H33.1266C32.699 122.928 32.2003 124.282 31.6302 126.134C31.2027 127.844 30.8464 128.913 30.5614 129.341C28.5662 134.329 27.4974 137.036 27.3549 137.464C27.3549 137.464 27.4261 137.464 27.5686 137.464C27.7112 137.464 27.7824 137.464 27.7824 137.464C28.495 137.464 28.9938 137.464 29.2788 137.464ZM32.2715 137.25C32.5565 137.25 32.9128 137.25 33.3403 137.25C33.7679 137.108 34.1954 137.036 34.6229 137.036C35.0505 137.036 35.4068 137.036 35.6918 137.036C35.9768 135.469 36.6181 132.975 37.6157 129.554C38.7558 125.992 39.4683 123.284 39.7533 121.431C39.6108 121.431 39.2546 121.431 38.6845 121.431C38.257 121.431 37.9007 121.503 37.6157 121.645C37.6157 121.645 37.5444 121.645 37.4019 121.645C37.1169 122.5 36.7606 123.498 36.3331 124.638C36.0481 125.635 35.6918 126.776 35.2642 128.058C34.9792 129.198 34.6942 130.125 34.4092 130.837C33.4116 134.115 32.699 136.253 32.2715 137.25ZM38.4707 136.823C38.7558 136.823 39.0408 136.823 39.3258 136.823C39.7533 136.823 40.1096 136.823 40.3946 136.823C40.8222 136.823 41.1785 136.751 41.4635 136.609C42.0335 134.614 43.2449 129.412 45.0975 121.004C43.6724 121.146 42.7461 121.218 42.3186 121.218C42.0335 123.213 41.3922 125.992 40.3946 129.554C39.3971 132.975 38.7558 135.397 38.4707 136.823ZM44.2425 136.609C44.385 136.609 44.67 136.609 45.0975 136.609C45.6676 136.466 46.0238 136.395 46.1664 136.395C46.4514 134.827 47.1639 132.333 48.304 128.913C49.5866 125.493 50.3704 122.856 50.6555 121.004C49.3729 121.004 48.5178 121.004 48.0903 121.004C47.9477 121.289 47.6627 121.503 47.2352 121.645C47.3777 121.645 47.3777 122.144 47.2352 123.141C47.0927 124.139 46.8789 125.208 46.5939 126.348C46.4514 127.346 46.3089 127.987 46.1664 128.272C45.8813 129.269 45.5251 130.766 45.0975 132.761C44.67 134.614 44.385 135.896 44.2425 136.609ZM57.0685 121.645C57.0685 121.503 57.211 121.289 57.496 121.004C55.5008 121.004 54.0757 121.004 53.2207 121.004C53.2207 121.146 53.2207 121.289 53.2207 121.431C53.0781 122.571 52.7931 123.854 52.3656 125.279C51.9381 126.562 51.5105 127.773 51.083 128.913C50.6555 129.911 50.2279 131.122 49.8004 132.547C49.3729 133.972 49.0166 135.184 48.7316 136.181C48.8741 136.181 49.0878 136.181 49.3729 136.181C49.8004 136.181 50.0854 136.181 50.2279 136.181C50.5129 135.326 51.7243 132.69 53.862 128.272C54.0045 127.844 54.432 126.847 55.1446 125.279C55.9996 123.569 56.6409 122.358 57.0685 121.645ZM60.9163 116.515V97.2757C60.3462 97.2757 58.8498 97.4182 56.4272 97.7032C54.0045 97.9883 52.1518 98.0595 50.8692 97.917C50.1567 97.917 45.8101 97.917 37.8295 97.917C36.6894 97.917 35.9768 97.347 35.6918 96.2069C34.5517 95.7793 34.0529 94.9243 34.1954 93.6417C34.4804 91.789 34.9792 89.7939 35.6918 87.6562C36.5468 85.5185 37.3307 83.7372 38.0432 82.312C38.7558 80.7444 39.6821 78.7493 40.8222 76.3266C42.1048 73.9039 43.0311 72.1225 43.6012 70.9824C46.3089 65.282 50.2992 55.0212 55.5721 40.2C56.2846 38.2048 56.8547 36.1384 57.2822 34.0008C57.7098 31.8631 57.9948 29.7254 58.1373 27.5878C58.2798 25.3076 58.2085 23.1699 57.9235 21.1747C57.6385 19.0371 57.0685 17.0419 56.2134 15.1893C55.5008 13.3366 54.432 11.769 53.0069 10.4864C51.7243 9.0613 50.0142 7.92121 47.8765 7.06614C45.8813 6.21108 43.6012 5.78355 41.036 5.78355C36.0481 5.78355 31.0602 7.7787 26.0723 11.769C21.2269 15.6168 17.5216 20.1059 14.9564 25.2363C15.0989 25.2363 15.1702 25.2363 15.1702 25.2363C15.1702 25.3788 15.2414 25.5213 15.3839 25.6639C15.5265 25.6639 15.5977 25.7351 15.5977 25.8776C15.5977 25.8776 15.669 26.0201 15.8115 26.3052C16.6665 27.3027 18.0917 28.6566 20.0868 30.3667C22.2245 31.9343 23.6496 33.2169 24.3621 34.2145C25.3597 31.7918 26.9273 29.9392 29.065 28.6566C31.3452 27.2315 33.8391 26.5902 36.5468 26.7327C40.2521 26.7327 42.8173 28.0153 44.2425 30.5805C45.6676 33.1457 46.1664 36.3522 45.7388 40.2C45.3113 44.0478 44.0999 47.9668 42.1048 51.9572C40.1096 55.805 37.6869 59.8665 34.8367 64.1419C31.9865 68.4172 29.9201 72.0512 28.6375 75.044C22.367 89.7226 19.2317 104.188 19.2317 118.439C19.5168 118.439 19.8018 118.581 20.0868 118.866C22.7945 119.009 26.7136 118.652 31.844 117.797C36.9744 116.942 40.2521 116.515 41.6772 116.515C43.5299 116.372 49.9429 116.372 60.9163 116.515Z" fill="#8491A5"/>
</svg>
