<svg width="89" height="89" viewBox="0 0 89 89" fill="none" xmlns="http://www.w3.org/2000/svg">
<circle opacity="0.2" cx="44.5" cy="44.5" r="44.5" fill="#313131" fill-opacity="0.4"/>
<g clip-path="url(#clip0_1_23160)">
<path d="M54.6136 36.4098H34.3863C32.1613 36.4098 30.3409 38.2302 30.3409 40.4552V60.6825C30.3409 62.9075 32.1613 64.728 34.3863 64.728H54.6136C56.8386 64.728 58.6591 62.9075 58.6591 60.6825V40.4552C58.6591 38.2302 56.8386 36.4098 54.6136 36.4098ZM46.5227 61.6939H42.4772V58.6598H46.5227V61.6939ZM46.5227 56.6371H42.4772C42.4772 53.603 37.4204 50.5689 37.4204 46.5234C37.4204 42.6196 40.5961 39.4439 44.5 39.4439C48.4038 39.4439 51.5795 42.6196 51.5795 46.5234C51.5795 50.5689 46.5227 53.603 46.5227 56.6371ZM56.6363 33.3757H32.3636C32.3636 31.6968 33.7188 30.3416 35.3977 30.3416H53.6022C55.2811 30.3416 56.6363 31.6968 56.6363 33.3757ZM54.6136 27.3075H34.3863C34.3863 25.6286 35.7416 24.2734 37.4204 24.2734H51.5795C53.2584 24.2734 54.6136 25.6286 54.6136 27.3075Z" fill="#313131" fill-opacity="0.4"/>
</g>
<defs>
<clipPath id="clip0_1_23160">
<rect width="48.5455" height="48.5455" fill="white" transform="translate(20.2275 20.2266)"/>
</clipPath>
</defs>
</svg>
