<svg width="79" height="149" viewBox="0 0 79 149" fill="none" xmlns="http://www.w3.org/2000/svg">
<path opacity="0.6" d="M57.9924 48.5442C62.6952 50.5393 66.543 53.6746 69.5358 57.9499C72.671 62.2252 74.8799 66.9994 76.1625 72.2723C77.4451 77.4027 78.0152 82.6756 77.8727 88.091C77.7302 93.5064 76.9463 98.5656 75.5212 103.268C74.2386 106.974 72.5285 110.608 70.3908 114.171C69.5358 119.871 67.3268 125.571 63.7641 131.272C60.2013 136.972 56.0685 141.034 51.3656 143.457C47.3753 145.737 43.0287 147.162 38.3258 147.732C33.6229 148.159 27.495 148.159 19.9419 147.732C12.5313 147.162 7.89968 146.877 6.04704 146.877C5.90453 146.877 5.69076 146.806 5.40574 146.663C4.69318 146.948 3.98063 146.806 3.26807 146.236C2.55551 145.523 2.27049 144.739 2.413 143.884C2.98305 141.746 3.41058 138.611 3.6956 134.478C4.12314 130.346 4.40816 127.78 4.55067 126.783C4.69318 126.355 5.04946 125.928 5.6195 125.5C5.6195 124.788 5.97578 124.218 6.68834 123.79C6.83085 123.648 7.75717 122.151 9.4673 119.301C10.4649 117.733 11.4625 116.379 12.46 115.239C16.3078 110.822 19.0156 107.615 20.5832 105.62C21.5808 104.622 22.5783 104.622 23.5759 105.62C24.8585 105.192 25.7136 105.549 26.1411 106.689C33.9792 108.969 39.5372 109.824 42.8149 109.254C42.9574 108.969 43.1712 108.755 43.4562 108.613C45.1664 107.473 45.2376 103.34 43.67 96.2141C42.5299 91.3688 39.3234 87.521 34.0505 84.6707C32.0553 83.5307 29.9177 82.9606 27.6375 82.9606C25.4998 82.9606 23.5759 83.2456 21.8658 83.8157C20.2982 84.3857 18.303 85.0983 15.8803 85.9533C13.6001 86.6659 11.605 87.0934 9.89484 87.2359C9.03977 87.3785 8.39847 87.0222 7.97094 86.1671C7.40089 85.7396 7.11587 85.1695 7.11587 84.457C7.11587 74.6237 7.32964 68.0682 7.75717 64.7904C7.47215 63.7929 7.82843 63.009 8.826 62.439C9.82358 61.869 10.8212 61.0851 11.8187 60.0876C12.8163 59.09 13.8852 57.9499 15.0252 56.6673C16.1653 55.2422 17.0204 54.1733 17.5904 53.4608C18.018 53.0333 18.5168 52.5345 19.0868 51.9644C19.6569 51.3944 20.2269 50.7531 20.7969 50.0405C21.367 49.328 21.8658 48.7579 22.2933 48.3304C18.7305 48.4729 12.7451 49.1855 4.3369 50.4681C3.76686 50.4681 3.26807 50.3255 2.84054 50.0405C2.413 49.7555 2.05672 49.3992 1.7717 48.9717C1.62919 48.4017 1.62919 47.9029 1.7717 47.4753C1.7717 47.4753 1.70045 47.4753 1.55794 47.4753C1.55794 47.3328 1.55794 47.1903 1.55794 47.0478C1.70045 45.1952 1.55794 42.4874 1.1304 38.9247C0.702868 35.3619 0.489102 32.7254 0.489102 31.0153C0.489102 29.7327 1.1304 29.0201 2.413 28.8776C3.12556 27.31 4.40816 25.3148 6.2608 22.8921C8.25596 20.3269 9.46731 18.6881 9.89484 17.9755C10.7499 16.6929 11.7475 15.054 12.8876 13.0589C14.1702 11.0637 15.3815 9.21108 16.5216 7.50094C17.6617 5.6483 18.7305 4.00942 19.7281 2.5843C20.7257 1.15919 21.937 1.01668 23.3621 2.15677C23.5047 2.15677 23.5759 2.15677 23.5759 2.15677H24.0034H24.2172C30.3452 2.29928 35.4043 2.37054 39.3946 2.37054C43.385 2.22803 48.5154 2.08552 54.7859 1.94301C61.0563 1.65798 66.1867 1.51547 70.1771 1.51547C70.1771 1.51547 70.3196 1.51547 70.6046 1.51547C72.3147 1.37296 73.1698 2.08552 73.1698 3.65315C73.1698 4.22319 73.0985 4.86448 72.956 5.57704C72.956 6.2896 72.956 6.9309 72.956 7.50094C72.956 8.07098 72.956 8.71228 72.956 9.42484C72.956 10.1374 72.956 10.7787 72.956 11.3487C72.8135 13.6289 72.8135 15.4103 72.956 16.6929C72.956 16.9779 72.956 17.263 72.956 17.548C73.6686 18.118 73.9536 18.8306 73.8111 19.6857C73.9536 20.1132 73.9536 20.5407 73.8111 20.9682C73.6686 21.3958 73.3836 21.8233 72.956 22.2508C72.671 22.5359 72.3147 22.7496 71.8872 22.8921C71.8872 22.8921 71.4597 24.0322 70.6046 26.3124C69.607 28.5926 68.8945 30.374 68.4669 31.6566C68.1819 32.2266 67.7544 33.0817 67.1843 34.2218C66.6143 35.2194 66.1155 36.0744 65.688 36.787C65.4029 37.4995 65.0467 38.3546 64.6191 39.3522C64.3341 40.3498 64.1203 41.2761 63.9778 42.1312V42.3449V42.5587C63.9778 43.1287 63.7641 43.6988 63.3365 44.2688C62.4815 45.4089 60.9138 46.6915 58.6337 48.1166C58.4911 48.2591 58.2774 48.4016 57.9924 48.5442ZM59.7025 41.7036C59.845 39.4234 61.1276 35.8607 63.5503 31.0153C63.2653 31.5853 62.6952 32.3691 61.8402 33.3667C61.1276 34.3643 60.5576 35.1481 60.13 35.7182C59.7025 36.2882 59.1324 36.9295 58.4199 37.6421C58.2774 38.0696 58.1349 38.3546 57.9924 38.4971C57.8498 39.7797 57.7073 40.4923 57.5648 40.6348C57.2798 41.6324 57.066 42.7725 56.9235 44.0551C56.9235 43.9125 56.9235 43.8413 56.9235 43.8413C58.0636 43.1287 58.9899 42.4162 59.7025 41.7036ZM4.9782 33.1529C4.9782 33.438 5.04946 34.293 5.19197 35.7182C5.6195 35.1481 6.33206 34.0793 7.32964 32.5117C8.46973 30.8015 9.32479 29.5902 9.89484 28.8776C10.6074 28.0226 11.6762 26.8825 13.1013 25.4574C14.5265 23.8897 15.5953 22.6784 16.3078 21.8233C17.733 20.1132 18.7305 18.9731 19.3006 18.403V18.1893C19.5856 16.9067 19.6569 15.1253 19.5143 12.8451C19.5143 12.4176 19.4431 11.8475 19.3006 11.135C16.0228 16.5504 14.1702 19.5431 13.7426 20.1132C13.1726 20.9683 12.0325 22.6071 10.3224 25.0298C8.61224 27.31 7.32964 29.1626 6.47457 30.5878C6.75959 31.5853 6.40332 32.3691 5.40574 32.9392L4.9782 33.1529ZM5.83327 42.3449C6.97336 41.0623 7.82843 39.9935 8.39847 39.1384C8.82601 38.5684 9.25354 37.9983 9.68107 37.4283C10.1086 36.7157 10.5361 36.0744 10.9637 35.5044C11.3912 34.9343 11.8187 34.3643 12.2463 33.7943C12.8163 33.0817 13.3151 32.4404 13.7426 31.8704C13.7426 31.7278 14.2414 30.8728 15.239 29.3052C16.3791 27.595 17.2342 26.3837 17.8042 25.6711C17.8042 24.8161 17.9467 24.1748 18.2317 23.7472C18.3743 23.6047 18.5168 23.3909 18.6593 23.1059C18.2317 23.676 17.9467 24.0322 17.8042 24.1747C17.0917 25.0298 15.9516 26.2412 14.3839 27.8088C12.9588 29.2339 11.89 30.4452 11.1774 31.4428C10.7499 32.0129 9.89484 33.2955 8.61224 35.2906C7.47215 37.1433 6.47457 38.4971 5.6195 39.3522C5.76202 40.9198 5.83327 41.9174 5.83327 42.3449ZM9.4673 45.1239C10.8924 44.9814 12.46 44.7676 14.1702 44.4826C14.7402 43.3425 15.6665 41.7036 16.9491 39.566C18.2317 37.4283 19.0868 36.0032 19.5143 35.2906C19.6569 35.0056 20.2269 34.008 21.2245 32.2979C22.2221 30.4452 23.0059 29.0201 23.5759 28.0225C22.7208 28.1651 22.0083 28.3076 21.4382 28.4501C21.2957 28.4501 21.2245 28.4501 21.2245 28.4501C20.9395 28.8776 20.5832 29.4477 20.1556 30.1602C19.7281 30.7303 19.5143 31.0153 19.5143 31.0153C19.0868 31.5853 18.4455 32.5117 17.5904 33.7943C16.8779 34.9343 16.3078 35.7894 15.8803 36.3595C15.5953 36.6445 14.0277 38.8534 11.1774 42.9862C10.8924 43.5563 10.3224 44.2688 9.4673 45.1239ZM20.5832 43.8413C21.2957 42.9862 21.937 41.9886 22.5071 40.8486C23.0771 39.7085 23.6472 38.6396 24.2172 37.6421C24.7873 36.502 25.286 35.4331 25.7136 34.4356C26.2836 33.2955 26.8537 32.1554 27.4237 31.0153C27.9938 29.7327 28.5638 28.6638 29.1338 27.8088C27.8512 27.8088 26.9249 27.8088 26.3549 27.8088C25.9273 28.6638 24.2885 31.7278 21.4382 37.0008C21.0107 37.9983 20.2982 39.2809 19.3006 40.8486C18.303 42.4162 17.5904 43.5563 17.1629 44.2688C18.1605 44.1263 19.3006 43.9838 20.5832 43.8413ZM31.2715 35.7182C33.5517 30.7303 34.9055 27.88 35.3331 27.1675C34.478 27.31 33.6942 27.3813 32.9816 27.3813C32.9816 27.5238 32.7679 27.595 32.3403 27.595C31.0577 29.4477 29.4901 32.2266 27.6375 35.9319C25.9273 39.6372 24.6447 42.2737 23.7897 43.8413C23.7897 43.8413 24.0034 43.8413 24.431 43.8413C25.001 43.8413 25.3573 43.8413 25.4998 43.8413C25.9273 43.8413 26.3549 43.9125 26.7824 44.0551C26.7824 44.0551 27.1387 43.6988 27.8512 42.9862C27.9938 42.4162 28.2788 41.7749 28.7063 41.0623C29.1338 40.3498 29.3476 39.9222 29.3476 39.7797C29.6326 39.3522 29.9177 38.7109 30.2027 37.8558C30.6302 36.8582 30.9865 36.1457 31.2715 35.7182ZM38.1121 27.595C37.257 28.8776 35.8319 31.7278 33.8367 36.1457C33.8367 36.2882 33.7655 36.3595 33.6229 36.3595C35.1906 35.0769 36.1881 34.2218 36.6157 33.7943C37.1857 33.2242 38.0408 32.1554 39.1809 30.5878C40.4635 29.0201 41.4611 27.88 42.1736 27.1675C40.7485 27.1675 39.4659 27.1675 38.3258 27.1675C38.3258 27.31 38.2546 27.4525 38.1121 27.595ZM12.0325 66.5006C12.0325 67.2131 11.9613 68.0682 11.8187 69.0658C14.2414 66.5006 16.1653 64.3629 17.5904 62.6528C20.8682 58.6625 23.0059 56.311 24.0034 55.5985C24.0034 55.1709 24.0034 54.4584 24.0034 53.4608C23.7184 53.7458 23.5047 53.9596 23.3621 54.1021C23.2196 54.2446 21.7945 55.6697 19.0868 58.3774C18.8018 58.805 17.8755 59.8738 16.3078 61.5839C14.8827 63.2941 13.6714 64.5054 12.6738 65.218C12.6738 65.788 12.46 66.2155 12.0325 66.5006ZM11.605 72.9136C11.605 74.4812 11.605 76.3338 11.605 78.4715C16.0228 72.6285 18.4455 69.4933 18.873 69.0658C19.1581 68.7807 19.8706 67.8544 21.0107 66.2868C22.1508 64.5767 23.1484 63.4366 24.0034 62.8665C23.8609 62.0115 23.7897 60.7289 23.7897 59.0187C23.2196 59.5888 22.6496 60.3013 22.0795 61.1564C21.5095 61.869 20.8682 62.6528 20.1556 63.5078C19.5856 64.2204 19.0868 64.8617 18.6593 65.4317C16.9491 67.2844 14.5977 69.7783 11.605 72.9136ZM14.8115 81.678C15.524 81.393 16.4504 81.0367 17.5904 80.6092C18.873 80.1816 19.6569 79.8966 19.9419 79.7541C20.3694 79.0415 21.082 77.9015 22.0795 76.3338C23.0771 74.6237 23.7897 73.2698 24.2172 72.2723C25.6423 69.422 26.5686 67.7119 26.9962 67.1419C26.9962 67.1419 26.8537 67.1419 26.5686 67.1419C26.4261 66.9994 26.2836 66.8568 26.1411 66.7143C25.8561 66.9994 25.3573 67.6407 24.6447 68.6382C24.0747 69.6358 23.7897 70.2059 23.7897 70.3484C23.3621 70.7759 22.7208 71.4885 21.8658 72.486C21.0107 73.3411 20.4407 74.0537 20.1556 74.6237C19.4431 75.3363 18.4455 76.5476 17.1629 78.2577C16.0228 79.9679 15.239 81.108 14.8115 81.678ZM27.2099 77.6164C27.2099 77.6164 28.7776 75.1937 31.9128 70.3484C32.3403 69.9208 32.8391 69.137 33.4092 67.9969C33.9792 66.8568 34.3355 66.1443 34.478 65.8593C34.3355 65.8593 34.1217 65.8593 33.8367 65.8593C33.6942 65.8593 33.5517 65.8593 33.4092 65.8593C33.4092 65.8593 33.1242 65.8593 32.5541 65.8593C31.9841 65.8593 31.5565 65.8593 31.2715 65.8593C31.414 66.4293 31.2003 66.8568 30.6302 67.1419C30.0602 67.2844 29.4901 67.7832 28.9201 68.6382C28.4925 69.3508 28.1363 69.9921 27.8512 70.5621C27.5662 70.9897 27.2099 71.7735 26.7824 72.9136C26.3549 74.0537 26.0699 74.695 25.9273 74.8375C25.6423 75.55 24.8585 76.8326 23.5759 78.6853C24.716 78.4002 25.7848 78.2577 26.7824 78.2577C26.9249 77.9727 27.0674 77.7589 27.2099 77.6164ZM31.9128 78.2577C32.4829 77.5452 33.1954 76.4763 34.0505 75.0512C35.0481 73.4836 35.8319 72.3435 36.4019 71.631C37.542 70.2059 38.3258 69.0658 38.7533 68.2107C39.1809 67.3556 39.6797 66.7856 40.2497 66.5006C39.3946 66.2155 38.4683 66.0018 37.4707 65.8593C37.1857 66.2868 36.8294 66.9281 36.4019 67.7832C35.9744 68.6382 35.7606 69.137 35.7606 69.2795C34.9055 70.5621 33.9792 71.916 32.9816 73.3411C32.5541 73.9111 31.9841 74.7662 31.2715 75.9063C30.559 77.0464 30.0602 77.8302 29.7751 78.2577C30.4877 78.4002 31.0577 78.5428 31.4853 78.6853C31.6278 78.5428 31.7703 78.4002 31.9128 78.2577ZM34.2642 79.5403C34.9768 79.8254 35.6894 80.1816 36.4019 80.6092C36.6869 80.1816 36.972 79.7541 37.257 79.3266C37.6845 78.899 38.0408 78.4715 38.3258 78.044C38.7533 77.4739 39.1096 77.0464 39.3946 76.7614C39.3946 76.6189 40.321 75.4075 42.1736 73.1273C42.4586 72.6998 42.7437 72.2723 43.0287 71.8447C43.3137 71.2747 43.5987 70.7759 43.8838 70.3484C44.3113 69.7783 44.6676 69.2795 44.9526 68.852C44.24 68.1394 43.385 67.5694 42.3874 67.1419C42.5299 67.7119 42.3161 68.1394 41.7461 68.4245C41.4611 68.567 41.0335 69.137 40.4635 70.1346C40.036 70.9897 39.8222 71.4172 39.8222 71.4172C39.6797 71.7022 39.3946 72.0585 38.9671 72.486C38.6821 72.9136 38.3971 73.3411 38.1121 73.7686C37.827 74.0537 37.6133 74.3387 37.4707 74.6237C36.3307 76.4763 35.2618 78.1152 34.2642 79.5403ZM38.5396 82.1055C38.6821 82.1055 38.9671 82.3193 39.3946 82.7468C40.2497 81.4642 41.3898 79.9679 42.8149 78.2577C44.6676 76.2626 45.8789 74.98 46.449 74.4099C46.5915 74.1249 46.734 73.9111 46.8765 73.7686C47.1615 73.4836 47.3753 73.1986 47.5178 72.9136C47.8028 72.6285 48.0878 72.4148 48.3729 72.2723C47.8028 71.7022 47.304 71.1322 46.8765 70.5621C46.5915 70.9897 46.1639 71.631 45.5939 72.486C45.1664 73.3411 44.7388 73.9824 44.3113 74.4099C42.4586 76.9751 41.4611 78.329 41.3186 78.4715C41.176 78.7565 40.7485 79.3266 40.036 80.1816C39.3234 80.8942 38.8246 81.5355 38.5396 82.1055ZM44.0975 85.9533C44.3825 85.6683 44.5963 85.3833 44.7388 85.0983C45.0238 84.6707 45.3089 84.3145 45.5939 84.0294C45.8789 83.7444 46.1639 83.4594 46.449 83.1744C46.8765 82.7468 47.7316 81.6067 49.0142 79.7541C49.1567 79.6116 49.3704 79.3978 49.6555 79.1128C49.9405 78.8278 50.1542 78.5428 50.2968 78.2577C50.5818 77.9727 50.7955 77.7589 50.9381 77.6164C50.9381 77.3314 51.0806 77.1176 51.3656 76.9751C50.9381 76.2626 50.4393 75.4075 49.8692 74.4099C49.4417 74.695 48.5866 75.6213 47.304 77.1889C46.5915 77.9015 45.8077 78.7565 44.9526 79.7541C43.67 81.0367 42.7437 82.248 42.1736 83.3881C42.1736 83.5307 41.9599 83.8869 41.5323 84.457C41.5323 84.457 41.6036 84.5282 41.7461 84.6707C42.3161 85.2408 42.8862 85.9533 43.4562 86.8084C43.8838 86.2384 44.0975 85.9533 44.0975 85.9533ZM49.2279 101.131C49.5129 102.983 49.5842 104.551 49.4417 105.834C50.5818 104.694 51.5081 103.268 52.2207 101.558C53.3607 99.4206 54.1446 96.9267 54.5721 94.0765C54.4296 94.219 54.2871 94.4328 54.1446 94.7178C54.002 95.0028 53.8595 95.2166 53.717 95.3591C53.2895 96.0716 52.862 96.7129 52.4344 97.283C52.1494 97.568 51.7931 97.9955 51.3656 98.5656C51.0806 98.9931 50.7243 99.4919 50.2968 100.062C50.0117 100.489 49.6555 100.846 49.2279 101.131ZM53.5033 91.2975C53.7883 91.0125 54.2158 90.9412 54.7859 91.0837C54.7859 89.5161 54.5721 87.7347 54.1446 85.7396C53.717 86.5946 53.432 87.0934 53.2895 87.2359C53.0045 87.521 52.5769 88.0198 52.0069 88.7323C51.5794 89.3024 51.2231 89.8011 50.9381 90.2287C49.6555 91.9388 48.5154 93.3639 47.5178 94.504C47.9453 95.5016 48.3729 96.6417 48.8004 97.9243C49.9405 96.3567 50.5818 95.5016 50.7243 95.3591C50.8668 95.0741 51.0806 94.6465 51.3656 94.0765C51.7931 93.5064 52.0781 93.1502 52.2207 93.0076C52.9332 92.0101 53.3607 91.44 53.5033 91.2975ZM50.083 87.2359C50.2255 86.9509 50.653 86.2384 51.3656 85.0983C52.2207 83.9582 52.9332 83.1031 53.5033 82.5331C53.2182 81.393 52.862 80.3954 52.4344 79.5403C52.4344 79.6828 52.2919 79.9679 52.0069 80.3954C51.7219 80.6804 51.5081 80.8942 51.3656 81.0367C50.5105 82.1768 49.5129 83.3881 48.3729 84.6707C48.2303 84.9558 47.9453 85.3833 47.5178 85.9533C47.2328 86.3809 46.8765 86.8084 46.449 87.2359C46.1639 87.521 45.9502 87.806 45.8077 88.091C45.5226 88.5185 45.2376 88.8748 44.9526 89.1598C45.5226 89.8724 46.0214 90.7987 46.449 91.9388C46.8765 91.3688 47.5178 90.5137 48.3729 89.3736C49.2279 88.2335 49.798 87.521 50.083 87.2359ZM8.826 128.92C8.54098 130.488 8.32722 132.269 8.1847 134.265C9.18228 132.697 9.89484 131.343 10.3224 130.203C12.3175 125.358 14.1702 122.08 15.8803 120.37C16.0228 120.085 16.1653 119.728 16.3078 119.301C16.4504 118.873 16.5929 118.446 16.7354 118.018C16.8779 117.448 17.0204 116.95 17.1629 116.522C16.1653 117.662 15.3815 118.66 14.8115 119.515C14.5265 119.8 13.7426 121.011 12.46 123.149C11.32 125.144 10.2511 126.498 9.25354 127.21C9.39605 127.923 9.25354 128.493 8.826 128.92ZM8.1847 142.388C9.32479 142.53 10.6787 142.602 12.2463 142.602C12.8163 141.034 13.6714 139.253 14.8115 137.257C15.9516 135.262 17.0204 133.338 18.018 131.486C19.1581 129.491 20.0131 127.709 20.5832 126.141C19.3006 125.714 18.3743 125.5 17.8042 125.5C17.8042 125.5 17.733 125.429 17.5904 125.286C17.3054 125.714 16.5929 126.997 15.4528 129.134C15.1678 129.562 14.8827 130.132 14.5977 130.844C14.4552 131.557 14.2414 132.269 13.9564 132.982C13.6714 133.552 13.3864 134.122 13.1013 134.692C12.6738 135.69 11.8187 137.186 10.5361 139.181C9.25354 141.034 8.46973 142.103 8.1847 142.388ZM15.0252 142.815C17.4479 142.958 18.7305 143.029 18.873 143.029C20.1556 140.321 21.5095 137.257 22.9346 133.837C24.5022 130.132 25.4998 127.923 25.9273 127.21C25.3573 127.068 24.431 126.854 23.1484 126.569C22.4358 128.707 21.0107 131.557 18.873 135.12C16.8779 138.682 15.5953 141.248 15.0252 142.815ZM21.652 143.243C21.937 143.243 22.2221 143.243 22.5071 143.243C22.9346 143.243 23.2196 143.243 23.3621 143.243C24.3597 140.25 25.6423 137.329 27.2099 134.478C27.495 133.908 27.9225 132.911 28.4925 131.486C29.2051 130.061 29.7751 128.992 30.2027 128.279C29.4901 128.137 28.9201 127.994 28.4925 127.852C27.9225 128.564 27.4237 129.419 26.9962 130.417C26.5686 131.414 26.0699 132.626 25.4998 134.051C25.0723 135.333 24.716 136.26 24.431 136.83C24.146 137.4 23.2196 139.538 21.652 143.243ZM28.7063 143.457C29.2764 141.176 30.2739 138.825 31.699 136.402C32.2691 135.405 33.1242 133.837 34.2642 131.699C34.4068 131.414 34.5493 130.987 34.6918 130.417C34.9768 129.847 35.1906 129.419 35.3331 129.134C34.478 128.992 33.6942 128.849 32.9816 128.707C32.8391 128.849 32.7679 128.92 32.7679 128.92C32.6254 129.063 32.4116 129.419 32.1266 129.989C31.9841 130.417 31.7703 130.916 31.4853 131.486C31.3428 132.056 31.2715 132.412 31.2715 132.554C30.9865 132.982 30.2739 134.193 29.1338 136.189C27.8512 138.469 26.8537 140.891 26.1411 143.457C26.4261 143.457 27.2812 143.457 28.7063 143.457ZM31.4853 143.457C32.7679 143.457 33.9792 143.385 35.1193 143.243C35.2618 142.673 35.9744 140.749 37.257 137.471C38.6821 134.051 39.6797 131.486 40.2497 129.776C39.5372 129.633 38.8246 129.562 38.1121 129.562C37.6845 130.132 37.257 130.773 36.8295 131.486C36.5444 132.198 36.1881 133.053 35.7606 134.051C35.4756 134.906 35.1906 135.547 34.9055 135.975C32.9104 139.965 31.7703 142.459 31.4853 143.457ZM37.8983 143.029C38.8959 142.887 39.7509 142.744 40.4635 142.602C40.7485 141.319 41.2473 139.965 41.9598 138.54C42.6724 136.972 43.385 135.476 44.0975 134.051C44.8101 132.483 45.3801 131.129 45.8077 129.989C44.8101 129.989 43.8838 129.989 43.0287 129.989C42.8862 130.417 42.6012 130.631 42.1736 130.631C42.4586 130.631 42.2449 131.628 41.5323 133.623C41.3898 133.908 41.176 134.478 40.891 135.333C40.606 136.046 40.321 136.616 40.036 137.044C39.3234 138.896 38.6108 140.891 37.8983 143.029ZM47.0903 140.678C47.0903 139.823 47.3753 138.611 47.9453 137.044C48.5154 135.476 48.8716 134.478 49.0142 134.051C49.4417 132.626 49.9405 131.129 50.5105 129.562C49.798 129.562 49.1567 129.633 48.5866 129.776C48.5866 129.776 48.5154 129.776 48.3729 129.776C48.0878 130.916 47.304 132.911 46.0214 135.761C46.0214 135.904 45.5939 136.759 44.7388 138.326C44.0263 139.894 43.5275 141.105 43.2425 141.96C43.385 141.96 43.5275 141.96 43.67 141.96C43.8125 141.818 43.8838 141.746 43.8838 141.746C44.8813 141.461 45.9502 141.105 47.0903 140.678ZM53.5033 136.189C53.3607 136.046 53.2895 135.832 53.2895 135.547C53.432 134.265 54.0733 131.842 55.2134 128.279C54.6433 128.564 54.002 128.778 53.2895 128.92C52.7194 130.631 52.1494 132.554 51.5794 134.692C51.4368 135.12 51.1518 135.832 50.7243 136.83C50.2968 137.827 50.0117 138.54 49.8692 138.967C51.0093 138.255 52.2207 137.329 53.5033 136.189ZM56.2822 133.196C58.8474 130.346 60.9851 127.21 62.6952 123.79C61.2701 124.93 59.7737 125.928 58.2061 126.783C58.2061 127.353 58.0636 128.065 57.7786 128.92C57.4936 129.776 57.2798 130.417 57.1373 130.844C56.9948 131.129 56.8523 131.557 56.7098 132.127C56.5672 132.554 56.4247 132.911 56.2822 133.196ZM69.5358 107.116C74.3811 95.5728 75.5212 85.027 72.956 75.4788C71.9585 71.7735 70.3908 68.1394 68.2532 64.5767C66.258 61.0139 63.5503 57.8786 60.13 55.1709C56.7098 52.4632 53.0757 50.8956 49.2279 50.4681C48.3729 50.3256 47.7316 49.7555 47.304 48.7579C46.5915 48.6154 46.0927 48.1879 45.8077 47.4753C45.5226 46.6203 45.6651 45.8365 46.2352 45.1239C47.0903 44.2688 48.0878 42.915 49.2279 41.0623C50.5105 39.0672 51.5794 37.6421 52.4344 36.787C52.7194 36.3594 53.2182 35.9319 53.9308 35.5044C54.7859 34.9343 55.3559 34.5068 55.6409 34.2218C56.0685 33.7943 56.4247 33.3667 56.7098 32.9392C56.9948 32.3691 57.2798 31.7991 57.5648 31.229C57.9924 30.659 58.2774 30.2315 58.4199 29.9464C58.7049 29.6614 61.1989 26.9537 65.9017 21.8233C66.3293 21.3958 66.7568 20.897 67.1843 20.3269C67.7544 19.6144 68.1819 19.1156 68.4669 18.8306C68.4669 18.403 68.4669 16.9067 68.4669 14.3415C68.3244 13.3439 68.3957 10.5649 68.6807 6.00458C65.688 6.00458 58.9187 6.21835 48.3729 6.64588C37.9695 6.9309 29.9177 6.9309 24.2172 6.64588C23.7897 7.35844 23.6472 9.21108 23.7897 12.2038C23.9322 15.1965 24.0034 17.0492 24.0034 17.7617C23.7184 20.1844 23.4334 21.8946 23.1484 22.8921C23.4334 23.0347 23.7184 23.2484 24.0034 23.5335C24.8585 23.3909 26.2124 23.3197 28.065 23.3197C29.9177 23.1772 31.3428 23.0347 32.3403 22.8921C33.908 22.7496 35.4756 22.6784 37.0432 22.6784C38.7533 22.6784 40.7485 22.7496 43.0287 22.8921C45.3089 22.8921 46.9477 22.8921 47.9453 22.8921C48.9429 23.0347 49.5842 23.6047 49.8692 24.6023C50.1542 25.5999 49.9405 26.3837 49.2279 26.9537C49.0854 28.2363 48.3729 28.8776 47.0903 28.8776C46.8052 28.8776 46.3777 29.2339 45.8077 29.9464C45.2376 30.5165 44.5963 31.2291 43.8838 32.0841C43.3137 32.9392 42.9574 33.438 42.8149 33.5805C40.8198 35.7182 39.0384 37.4995 37.4707 38.9247C35.9031 40.3498 34.2642 42.2737 32.5541 44.6964C31.9841 45.6939 30.7015 46.9765 28.7063 48.5442C28.5638 48.6867 28.4925 48.8292 28.4925 48.9717C28.35 49.8268 28.2788 51.1094 28.2788 52.8195C28.4213 54.3871 28.4925 55.5272 28.4925 56.2398C28.4925 56.5248 28.4213 57.1661 28.2788 58.1637C28.1363 59.0187 28.065 59.7313 28.065 60.3013C28.065 60.8714 28.1363 61.5127 28.2788 62.2252C28.7063 62.2252 28.9913 62.154 29.1338 62.0115C29.8464 61.5839 31.8416 61.2277 35.1193 60.9426C39.3947 60.5151 43.5275 61.869 47.5178 65.0042C55.0709 70.5621 58.9187 79.4691 59.0612 91.725C59.0612 94.2902 58.7049 96.7842 57.9924 99.2069C57.4223 101.63 56.4247 104.052 54.9996 106.475C53.5745 108.755 51.7931 110.537 49.6555 111.819C47.0903 113.529 43.2425 114.598 38.1121 115.026C36.4019 115.168 34.8343 115.026 33.4092 114.598C32.1266 114.171 30.559 113.529 28.7063 112.674C26.9962 111.819 25.6423 111.249 24.6447 110.964C24.5022 111.249 24.3597 111.534 24.2172 111.819C23.3621 113.672 22.8634 114.741 22.7208 115.026C21.1532 117.591 20.3694 119.728 20.3694 121.439C29.3476 123.434 36.972 124.574 43.2425 124.859C52.7907 125.144 60.415 121.225 66.1155 113.102C66.1155 112.959 66.1867 112.817 66.3293 112.674C66.3293 112.532 66.3293 112.389 66.3293 112.247C66.4718 111.392 66.8993 110.893 67.6119 110.75C68.3244 109.61 68.9657 108.399 69.5358 107.116ZM54.5721 41.4899C54.5721 41.4899 54.5008 41.5611 54.3583 41.7036C54.2158 41.7036 54.1446 41.7749 54.1446 41.9174C52.2919 44.6251 51.2943 46.1215 51.1518 46.4065C51.1518 46.4065 51.5794 46.4777 52.4344 46.6203C52.7194 46.6203 52.862 46.6203 52.862 46.6203C53.0045 46.6203 53.3607 46.4065 53.9308 45.979C54.0733 44.1263 54.2871 42.6299 54.5721 41.4899Z" fill="#8491A5"/>
</svg>
