<svg width="119" height="119" viewBox="0 0 119 119" fill="none" xmlns="http://www.w3.org/2000/svg">
<circle opacity="0.2" cx="59.5" cy="59.5" r="57.5" fill="#FFA92C"/>
<circle cx="59.5" cy="59.5" r="58.5" stroke="#FFA92C" stroke-width="2"/>
<g clip-path="url(#clip0_1_23166)">
<path d="M72.5675 49.0451H46.4312C43.5562 49.0451 41.2039 51.3974 41.2039 54.2724V80.4087C41.2039 83.2837 43.5562 85.636 46.4312 85.636H72.5675C75.4425 85.636 77.7948 83.2837 77.7948 80.4087V54.2724C77.7948 51.3974 75.4425 49.0451 72.5675 49.0451ZM62.113 81.7155H56.8857V77.7951H62.113V81.7155ZM62.113 75.1814H56.8857C56.8857 71.261 50.3516 67.3405 50.3516 62.1133C50.3516 57.0689 54.455 52.9655 59.4994 52.9655C64.5437 52.9655 68.6471 57.0689 68.6471 62.1133C68.6471 67.3405 62.113 71.261 62.113 75.1814ZM75.1812 45.1246H43.8175C43.8175 42.9553 45.5687 41.2042 47.738 41.2042H71.2607C73.43 41.2042 75.1812 42.9553 75.1812 45.1246ZM72.5675 37.2837H46.4312C46.4312 35.1144 48.1823 33.3633 50.3516 33.3633H68.6471C70.8164 33.3633 72.5675 35.1144 72.5675 37.2837Z" fill="#FFA92C"/>
</g>
<defs>
<clipPath id="clip0_1_23166">
<rect width="62.7273" height="62.7273" fill="white" transform="translate(28.1367 28.1367)"/>
</clipPath>
</defs>
</svg>
