<svg width="82" height="148" viewBox="0 0 82 148" fill="none" xmlns="http://www.w3.org/2000/svg">
<path opacity="0.6" d="M79.283 1.70499C80.419 1.98899 81.058 2.76999 81.2 4.04799C81.342 5.18399 80.845 5.89399 79.709 6.178C80.277 6.03599 80.277 9.30199 79.709 15.976C79.141 22.508 78.644 27.62 78.218 31.312C76.798 41.536 76.088 51.405 76.088 60.919C76.088 64.469 75.946 69.723 75.662 76.681C75.52 83.497 75.449 88.609 75.449 92.017C75.449 92.159 75.378 96.348 75.236 104.584C75.094 112.678 75.094 117.861 75.236 120.133C75.236 120.133 75.307 120.133 75.449 120.133C76.443 120.133 77.082 120.63 77.366 121.624C77.65 122.618 77.437 123.399 76.727 123.967C76.585 124.819 76.159 125.458 75.449 125.884C75.023 126.594 74.384 127.872 73.532 129.718C72.822 131.564 72.112 132.984 71.402 133.978C70.976 134.688 69.982 136.25 68.42 138.664C67 141.078 65.793 142.924 64.799 144.202C64.373 144.77 63.805 145.125 63.095 145.267C62.811 145.267 62.527 145.267 62.243 145.267H50.528C44.422 145.267 40.801 145.409 39.665 145.693C38.955 146.829 37.961 146.9 36.683 145.906C35.831 145.764 35.192 145.267 34.766 144.415C34.482 143.421 34.624 142.64 35.192 142.072C35.334 141.504 35.405 140.368 35.405 138.664C35.405 136.818 35.476 135.611 35.618 135.043C35.902 133.339 35.973 130.499 35.831 126.523C35.263 126.239 34.908 125.884 34.766 125.458C31.216 125.458 26.246 126.026 19.856 127.162C13.608 128.298 9.277 129.008 6.863 129.292C6.295 129.86 5.514 130.002 4.52 129.718C3.668 129.292 3.171 128.653 3.029 127.801C2.603 127.091 2.461 126.452 2.603 125.884C2.603 125.742 2.532 125.671 2.39 125.671C2.39 125.529 2.39 125.458 2.39 125.458C2.39 124.606 2.319 123.754 2.177 122.902C2.035 122.05 1.822 121.198 1.538 120.346C1.396 119.352 1.325 118.5 1.325 117.79C1.325 117.222 1.254 115.944 1.112 113.956C0.97 111.968 0.899 110.477 0.899 109.483C0.331 108.915 0.118 108.276 0.26 107.566C0.402 106.714 0.899 106.217 1.751 106.075C1.893 106.075 2.177 106.004 2.603 105.862C4.307 103.164 5.94 100.04 7.502 96.49C9.206 92.798 10.555 89.461 11.549 86.479C12.543 83.355 13.75 79.734 15.17 75.616C16.59 71.498 17.797 68.232 18.791 65.818C20.495 61.558 25.252 47.855 33.062 24.709C32.92 23.999 33.133 23.36 33.701 22.792C34.837 21.514 36.47 19.597 38.6 17.041C40.872 14.485 42.647 12.639 43.925 11.503C44.209 11.077 44.99 10.225 46.268 8.94699C47.688 7.66899 48.824 6.53299 49.676 5.53899C50.528 4.54499 51.167 3.55099 51.593 2.55699C52.161 1.42099 53.084 1.13699 54.362 1.70499C54.362 1.70499 54.433 1.70499 54.575 1.70499C62.811 1.70499 67.497 1.70499 68.633 1.70499C69.343 1.70499 70.621 1.63399 72.467 1.492C74.455 1.20799 75.946 1.13699 76.94 1.279C77.792 0.994994 78.502 1.13699 79.07 1.70499C79.212 1.70499 79.283 1.70499 79.283 1.70499ZM37.748 24.709C37.606 25.135 37.464 25.561 37.322 25.987C37.18 26.413 37.038 26.839 36.896 27.265C36.754 27.691 36.612 28.117 36.47 28.543C38.316 26.413 39.665 24.993 40.517 24.283C40.943 23.999 42.221 23.147 44.351 21.727C46.623 20.307 48.114 19.1 48.824 18.106C48.966 17.822 49.179 17.609 49.463 17.467C50.031 14.911 50.457 12.639 50.741 10.651C48.895 12.497 47.972 13.491 47.972 13.633C46.694 14.769 44.919 16.615 42.647 19.171C40.517 21.727 38.884 23.573 37.748 24.709ZM34.766 33.868C34.056 35.856 33.63 36.921 33.488 37.063C34.482 36.211 35.76 35.075 37.322 33.655C39.026 32.093 40.162 31.028 40.73 30.46C43.854 27.62 46.055 25.916 47.333 25.348C47.617 24.354 47.901 23.289 48.185 22.153C47.617 22.579 46.694 23.218 45.416 24.07C44.138 24.922 43.215 25.49 42.647 25.774C41.653 26.626 40.304 28.046 38.6 30.034C36.896 31.88 35.618 33.158 34.766 33.868ZM32.21 40.897C31.5 43.169 31.003 44.589 30.719 45.157C32.991 43.737 35.263 41.891 37.535 39.619C40.801 36.637 43.286 34.649 44.99 33.655C45.558 32.093 46.055 30.531 46.481 28.969C46.339 29.111 45.7 29.608 44.564 30.46C44.28 30.744 43.925 31.099 43.499 31.525C43.073 31.951 42.576 32.377 42.008 32.803C41.582 33.229 41.227 33.584 40.943 33.868C38.245 36.14 35.76 38.412 33.488 40.684C33.204 41.11 32.778 41.181 32.21 40.897ZM29.441 48.991C28.731 51.121 28.234 52.754 27.95 53.89C31.642 50.908 33.63 49.346 33.914 49.204C35.334 48.21 37.109 46.719 39.239 44.731C39.381 44.589 39.736 44.376 40.304 44.092C41.014 43.666 41.44 43.311 41.582 43.027C41.866 42.743 42.221 42.601 42.647 42.601C43.073 40.897 43.499 39.264 43.925 37.702C43.215 38.412 42.718 38.909 42.434 39.193C41.582 39.761 40.02 40.968 37.748 42.814C34.34 45.796 31.713 47.784 29.867 48.778C29.725 48.92 29.654 48.991 29.654 48.991H29.441ZM26.459 57.937C26.033 59.073 25.536 60.351 24.968 61.771C27.382 59.783 29.228 58.292 30.506 57.298C31.074 56.872 31.997 56.233 33.275 55.381C34.695 54.387 35.76 53.535 36.47 52.825C38.6 51.121 39.949 50.127 40.517 49.843H40.73C41.014 48.565 41.298 47.429 41.582 46.435C40.588 47.145 39.949 47.642 39.665 47.926C38.387 49.062 37.038 50.127 35.618 51.121C34.624 51.831 33.062 52.967 30.932 54.529C28.944 56.091 27.453 57.227 26.459 57.937ZM23.264 66.67C22.696 68.09 21.986 70.078 21.134 72.634C21.276 72.492 21.986 71.853 23.264 70.717C24.684 69.439 25.749 68.516 26.459 67.948C29.015 66.244 30.79 65.037 31.784 64.327C32.21 64.043 32.991 63.404 34.127 62.41C35.405 61.416 36.399 60.777 37.109 60.493C37.393 60.209 37.677 60.138 37.961 60.28C38.529 58.434 39.168 56.162 39.878 53.464C39.594 53.606 39.097 53.961 38.387 54.529C37.819 55.097 37.393 55.523 37.109 55.807C36.683 56.091 36.115 56.446 35.405 56.872C34.837 57.298 34.269 57.724 33.701 58.15C33.133 58.576 32.565 58.931 31.997 59.215C30.861 60.209 29.299 61.558 27.311 63.262C25.323 64.966 23.974 66.102 23.264 66.67ZM19.643 76.681C19.359 77.391 18.933 78.385 18.365 79.663C17.939 80.941 17.655 81.722 17.513 82.006C17.939 81.722 18.365 81.438 18.791 81.154C19.217 80.728 19.572 80.373 19.856 80.089C20.282 79.663 20.637 79.379 20.921 79.237C23.193 77.391 25.252 75.758 27.098 74.338C27.95 73.77 29.228 72.847 30.932 71.569C32.778 70.149 34.198 69.084 35.192 68.374C35.334 68.232 35.547 68.161 35.831 68.161C36.257 66.457 36.754 64.824 37.322 63.262C36.754 63.546 36.186 63.972 35.618 64.54C35.05 64.966 34.482 65.392 33.914 65.818C33.346 66.244 32.849 66.599 32.423 66.883C32.423 66.883 30.719 68.09 27.311 70.504C26.459 71.072 25.181 72.137 23.477 73.699C21.915 75.119 20.637 76.113 19.643 76.681ZM14.531 89.887C14.389 89.887 14.176 90.384 13.892 91.378C16.732 88.822 18.862 86.905 20.282 85.627C20.85 85.059 21.489 84.491 22.199 83.923C23.051 83.213 23.832 82.574 24.542 82.006C25.394 81.296 26.104 80.728 26.672 80.302C26.814 80.018 27.524 79.379 28.802 78.385C30.222 77.391 31.145 76.681 31.571 76.255C31.997 75.687 32.494 75.474 33.062 75.616C33.488 74.906 33.985 73.77 34.553 72.208C29.867 75.758 27.524 77.533 27.524 77.533C26.814 77.959 25.678 78.882 24.116 80.302C22.554 81.58 21.063 82.716 19.643 83.71C18.365 84.704 17.158 85.414 16.022 85.84C15.88 86.124 15.738 86.479 15.596 86.905C15.454 87.189 15.312 87.544 15.17 87.97C15.17 88.254 15.028 88.609 14.744 89.035C14.602 89.319 14.531 89.603 14.531 89.887ZM11.762 96.703C11.052 98.549 10.555 99.756 10.271 100.324C10.839 99.898 11.265 99.543 11.549 99.259C12.827 98.123 14.886 96.561 17.726 94.573C18.436 94.005 19.217 93.224 20.069 92.23C21.063 91.236 21.915 90.384 22.625 89.674C23.335 88.822 24.187 88.041 25.181 87.331C26.317 86.479 27.382 85.84 28.376 85.414C29.37 83.852 30.364 81.935 31.358 79.663C30.08 80.657 29.299 81.296 29.015 81.58C28.873 81.722 26.743 83.568 22.625 87.118C21.915 87.686 20.921 88.609 19.643 89.887C18.507 91.023 17.655 91.875 17.087 92.443C16.519 93.011 15.596 93.792 14.318 94.786C13.04 95.638 12.188 96.277 11.762 96.703ZM5.372 109.483C5.372 109.767 5.443 111.116 5.585 113.53C7.999 110.69 10.2 108.418 12.188 106.714C13.182 106.004 15.454 104.158 19.004 101.176C19.572 100.75 20.424 100.182 21.56 99.472C22.838 98.762 23.903 98.123 24.755 97.555C25.749 96.845 26.53 96.135 27.098 95.425C27.24 95.141 27.453 94.928 27.737 94.786C27.737 93.792 27.737 92.443 27.737 90.739C27.169 91.307 26.388 92.23 25.394 93.508C24.4 94.644 23.69 95.354 23.264 95.638C22.554 96.49 21.276 97.555 19.43 98.833C17.726 99.969 16.803 100.608 16.661 100.75C15.951 101.318 14.815 102.312 13.253 103.732C11.833 105.152 10.413 106.359 8.993 107.353C7.715 108.347 6.508 109.057 5.372 109.483ZM5.798 117.79C5.798 118.216 5.869 118.855 6.011 119.707C6.863 118.997 7.928 117.861 9.206 116.299C10.484 114.737 11.336 113.743 11.762 113.317C13.608 111.329 15.951 108.986 18.791 106.288C20.921 104.3 22.767 102.809 24.329 101.815C24.471 101.673 25.11 101.247 26.246 100.537C27.524 99.827 28.234 99.401 28.376 99.259C28.376 99.117 28.305 98.904 28.163 98.62C28.163 98.336 28.163 98.123 28.163 97.981C27.737 98.407 26.388 99.33 24.116 100.75C22.838 101.602 19.998 103.732 15.596 107.14C12.756 109.412 9.49 112.749 5.798 117.151C5.798 117.293 5.798 117.435 5.798 117.577C5.798 117.577 5.798 117.648 5.798 117.79ZM6.65 122.902C7.076 122.476 7.573 121.979 8.141 121.411C8.709 120.701 9.277 120.062 9.845 119.494C10.413 118.784 10.839 118.287 11.123 118.003C11.833 117.293 12.614 116.583 13.466 115.873C14.318 115.163 15.241 114.382 16.235 113.53C17.371 112.536 18.223 111.826 18.791 111.4C19.643 110.69 21.773 109.27 25.181 107.14C25.607 106.856 26.246 106.43 27.098 105.862C28.092 105.152 28.802 104.655 29.228 104.371C29.228 104.087 29.157 103.661 29.015 103.093C29.015 102.525 28.944 102.17 28.802 102.028C28.66 102.17 28.447 102.312 28.163 102.454L27.524 102.88C24.4 105.01 22.128 106.714 20.708 107.992C17.3 111.258 14.531 114.027 12.401 116.299C12.259 116.441 11.478 117.364 10.058 119.068C8.638 120.772 7.502 121.908 6.65 122.476C6.65 122.618 6.65 122.689 6.65 122.689C6.65 122.689 6.65 122.76 6.65 122.902ZM18.578 122.902C18.72 122.76 18.933 122.547 19.217 122.263C19.643 121.837 19.927 121.553 20.069 121.411C22.341 118.997 24.187 116.938 25.607 115.234C26.175 114.524 26.743 113.814 27.311 113.104C28.021 112.252 28.731 111.4 29.441 110.548C30.151 109.554 30.719 108.844 31.145 108.418C30.293 108.844 29.086 109.554 27.524 110.548C26.104 111.542 25.252 112.181 24.968 112.465C24.542 112.749 22.128 114.666 17.726 118.216C17.3 118.642 16.732 119.21 16.022 119.92C15.454 120.488 14.744 121.198 13.892 122.05C13.04 122.902 12.401 123.612 11.975 124.18C13.537 123.896 15.738 123.47 18.578 122.902ZM22.625 122.263C24.471 121.837 26.104 121.553 27.524 121.411C27.95 120.417 28.802 119.068 30.08 117.364C31.358 115.518 32.21 114.24 32.636 113.53C35.05 109.412 36.683 106.785 37.535 105.649C37.393 105.649 36.967 105.649 36.257 105.649C36.257 105.933 36.186 106.075 36.044 106.075C35.334 106.927 34.553 107.85 33.701 108.844C32.991 109.838 32.352 110.761 31.784 111.613C31.216 112.323 30.506 113.246 29.654 114.382C28.802 115.376 28.092 116.228 27.524 116.938C27.098 117.506 26.388 118.358 25.394 119.494C24.4 120.488 23.832 121.056 23.69 121.198C23.406 121.482 23.051 121.837 22.625 122.263ZM34.127 120.985C34.695 119.707 35.618 118.074 36.896 116.086C38.316 113.956 39.097 112.749 39.239 112.465C39.523 112.039 40.162 110.903 41.156 109.057C42.15 107.069 43.002 105.578 43.712 104.584C43.428 104.726 42.931 104.797 42.221 104.797C41.795 104.939 41.511 105.01 41.369 105.01C41.369 105.01 41.298 105.081 41.156 105.223C39.878 106.501 37.748 109.696 34.766 114.808C34.482 115.376 34.127 115.944 33.701 116.512C33.275 117.08 32.92 117.577 32.636 118.003C32.352 118.429 31.997 118.926 31.571 119.494C31.145 120.062 30.79 120.63 30.506 121.198C31.642 121.056 32.849 120.985 34.127 120.985ZM37.322 121.198C37.464 120.914 37.677 120.559 37.961 120.133C38.245 119.707 38.458 119.352 38.6 119.068C38.742 118.642 38.884 118.287 39.026 118.003C39.31 117.719 39.594 117.435 39.878 117.151C42.718 114.027 44.422 112.11 44.99 111.4C46.978 108.844 49.25 106.146 51.806 103.306C50.67 103.448 49.321 103.661 47.759 103.945C47.617 104.087 47.475 104.229 47.333 104.371C46.481 105.081 45.7 106.004 44.99 107.14C44.28 108.276 43.57 109.625 42.86 111.187C42.15 112.607 41.582 113.601 41.156 114.169C38.742 118.145 37.322 120.417 36.896 120.985C36.896 120.985 36.967 121.056 37.109 121.198C37.251 121.198 37.322 121.198 37.322 121.198ZM54.362 111.826C54.646 111.542 55.001 111.471 55.427 111.613C55.285 110.051 55.143 108.347 55.001 106.501C54.007 107.495 52.658 109.057 50.954 111.187C49.25 113.317 47.972 114.808 47.12 115.66C46.694 116.228 46.055 117.009 45.203 118.003C44.351 118.855 43.57 119.707 42.86 120.559C42.292 121.269 41.724 121.979 41.156 122.689C41.156 122.831 41.014 123.115 40.73 123.541C40.446 123.967 40.233 124.322 40.091 124.606C40.091 124.748 40.091 124.819 40.091 124.819C40.233 124.961 40.304 125.529 40.304 126.523C40.588 126.097 40.801 125.813 40.943 125.671C41.511 125.103 42.363 124.251 43.499 123.115C44.635 121.979 45.487 121.127 46.055 120.559C46.623 119.991 47.404 119.21 48.398 118.216C49.534 117.08 50.386 116.299 50.954 115.873C51.096 115.589 51.522 114.95 52.232 113.956C53.084 112.962 53.794 112.252 54.362 111.826ZM55.427 114.169C55.143 114.453 54.646 115.092 53.936 116.086C53.368 116.938 52.942 117.435 52.658 117.577C52.232 118.003 51.522 118.642 50.528 119.494C49.676 120.346 49.037 121.056 48.611 121.624C47.475 122.76 45.984 124.18 44.138 125.884C41.866 128.156 40.659 129.718 40.517 130.57C40.517 130.712 40.446 130.854 40.304 130.996C40.304 130.996 40.304 131.067 40.304 131.209C40.446 131.067 40.588 130.925 40.73 130.783C41.014 130.499 41.511 130.073 42.221 129.505L43.286 128.653C43.996 127.943 45.061 126.878 46.481 125.458C48.043 124.038 48.895 123.257 49.037 123.115C49.463 122.689 49.96 122.263 50.528 121.837C51.096 121.269 51.664 120.772 52.232 120.346C52.8 119.92 53.297 119.494 53.723 119.068C54.007 118.784 54.22 118.571 54.362 118.429C54.646 118.145 54.859 117.861 55.001 117.577C55.285 117.293 55.498 117.08 55.64 116.938C55.64 116.228 55.569 115.305 55.427 114.169ZM39.878 137.173C40.73 136.321 41.227 135.824 41.369 135.682C43.073 134.262 45.132 132.274 47.546 129.718C47.972 129.292 48.469 128.724 49.037 128.014C49.747 127.162 50.386 126.452 50.954 125.884C51.522 125.316 52.09 124.748 52.658 124.18C52.942 124.038 53.51 123.754 54.362 123.328C55.214 122.76 55.782 122.334 56.066 122.05C56.066 121.766 56.066 121.411 56.066 120.985C56.066 120.417 56.066 120.133 56.066 120.133C55.072 121.127 54.433 121.766 54.149 122.05C52.729 123.328 51.025 124.89 49.037 126.736C48.469 127.304 47.475 128.227 46.055 129.505C44.635 130.641 43.57 131.564 42.86 132.274C42.576 132.558 42.292 132.913 42.008 133.339C41.724 133.765 41.369 134.191 40.943 134.617C40.659 134.901 40.375 135.114 40.091 135.256V135.469C39.949 135.753 39.878 136.321 39.878 137.173ZM46.694 140.794C46.978 140.368 47.404 139.729 47.972 138.877C48.682 137.883 49.108 137.244 49.25 136.96C50.386 135.114 51.735 133.339 53.297 131.635C53.581 131.209 54.291 130.357 55.427 129.079C56.705 127.659 57.628 126.594 58.196 125.884C58.054 125.884 57.912 125.955 57.77 126.097C57.628 126.239 57.486 126.381 57.344 126.523C57.202 126.665 55.285 128.511 51.593 132.061C49.321 134.191 46.339 137.102 42.647 140.794C43.499 140.794 44.848 140.794 46.694 140.794ZM53.723 141.007C54.717 139.587 55.214 138.877 55.214 138.877C56.35 136.747 57.273 135.114 57.983 133.978C58.267 133.41 58.693 132.629 59.261 131.635C59.971 130.499 60.539 129.647 60.965 129.079C61.107 128.795 61.249 128.511 61.391 128.227C61.675 127.801 61.888 127.517 62.03 127.375C62.314 127.091 62.598 126.807 62.882 126.523C63.166 126.097 63.379 125.742 63.521 125.458C62.669 125.458 62.03 125.458 61.604 125.458C61.32 125.742 60.965 126.168 60.539 126.736C60.113 127.304 59.687 127.872 59.261 128.44C58.977 129.008 58.764 129.363 58.622 129.505C58.338 129.931 57.77 130.57 56.918 131.422C56.066 132.274 55.427 132.984 55.001 133.552C53.297 135.682 52.019 137.386 51.167 138.664C51.025 138.806 50.528 139.587 49.676 141.007H53.723ZM67.568 131.635C67.994 131.067 68.349 130.428 68.633 129.718C69.059 128.866 69.414 128.014 69.698 127.162C70.124 126.168 70.479 125.458 70.763 125.032C69.201 125.174 67.852 125.316 66.716 125.458C66.29 126.026 65.651 126.807 64.799 127.801C64.089 128.795 63.592 129.505 63.308 129.931C63.024 130.357 62.101 131.848 60.539 134.404C58.977 137.102 58.054 138.735 57.77 139.303C57.628 139.587 57.273 140.155 56.705 141.007H61.817C62.527 139.871 63.521 138.238 64.799 136.108C66.077 133.978 67 132.487 67.568 131.635ZM71.615 120.559C70.621 82.077 72.112 43.808 76.088 5.75199C75.662 5.75199 74.881 5.82299 73.745 5.96499C72.751 6.107 72.041 6.178 71.615 6.178C71.047 6.178 70.195 6.178 69.059 6.178C68.065 6.178 67.426 6.178 67.142 6.178C66.148 6.178 62.456 6.178 56.066 6.178C55.64 8.73399 55.143 11.432 54.575 14.272C54.007 16.97 53.368 19.739 52.658 22.579C51.948 25.419 51.238 28.046 50.528 30.46C49.96 32.874 49.179 35.643 48.185 38.767C47.333 41.891 46.623 44.518 46.055 46.648C45.629 48.21 44.919 50.979 43.925 54.955C43.073 58.789 42.363 61.7 41.795 63.688C41.227 65.676 40.446 68.232 39.452 71.356C38.458 74.48 37.393 77.32 36.257 79.876C35.121 82.432 33.843 84.988 32.423 87.544C32.281 92.798 32.281 95.78 32.423 96.49C32.707 97.484 32.991 99.188 33.275 101.602C34.979 101.602 36.754 101.46 38.6 101.176C40.588 100.892 42.363 100.608 43.925 100.324C45.487 99.898 47.262 99.543 49.25 99.259C51.238 98.975 53.013 98.762 54.575 98.62C54.575 98.62 54.788 98.691 55.214 98.833C55.782 98.123 56.563 97.91 57.557 98.194C58.551 98.478 59.048 99.117 59.048 100.111C59.19 104.371 59.474 108.773 59.9 113.317C60.042 113.743 60.255 116.086 60.539 120.346C60.681 120.63 60.823 120.843 60.965 120.985C62.953 121.127 66.503 120.985 71.615 120.559ZM58.196 50.056C58.622 49.346 59.261 49.133 60.113 49.417C61.107 49.701 61.675 50.198 61.817 50.908C62.669 57.014 63.095 65.747 63.095 77.107C62.953 80.231 62.172 82.219 60.752 83.071C60.042 83.781 58.48 83.852 56.066 83.284C53.794 82.574 52.232 82.219 51.38 82.219C50.528 83.071 49.676 83.142 48.824 82.432C48.682 82.432 48.611 82.432 48.611 82.432C47.901 81.864 47.546 81.225 47.546 80.515C47.546 79.805 47.901 79.237 48.611 78.811C48.895 78.385 49.179 78.101 49.463 77.959C49.463 77.675 49.463 77.462 49.463 77.32C49.605 74.764 51.025 69.368 53.723 61.132C53.865 60.564 54.078 59.641 54.362 58.363C54.788 56.943 55.143 55.878 55.427 55.168C55.711 54.458 56.066 53.606 56.492 52.612C56.918 51.618 57.486 50.766 58.196 50.056ZM57.344 64.114C57.202 64.54 56.847 65.534 56.279 67.096C55.853 68.658 55.498 69.865 55.214 70.717C56.492 69.013 57.415 67.522 57.983 66.244C57.983 66.244 58.054 66.173 58.196 66.031C58.196 63.617 58.196 61.913 58.196 60.919C57.77 62.481 57.486 63.546 57.344 64.114ZM54.149 78.172C54.433 77.32 55.001 76.255 55.853 74.977C55.853 74.835 56.35 74.267 57.344 73.273C57.344 73.273 57.699 72.847 58.409 71.995C58.409 71.711 58.409 71.214 58.409 70.504C58.409 70.504 58.338 70.575 58.196 70.717C58.054 70.859 57.841 71.285 57.557 71.995C57.273 72.563 56.989 72.989 56.705 73.273C55.711 74.551 55.072 75.403 54.788 75.829C54.646 75.971 54.433 76.255 54.149 76.681C54.007 76.965 53.936 77.178 53.936 77.32C53.936 77.462 53.865 77.675 53.723 77.959C53.723 77.959 53.794 78.03 53.936 78.172C54.078 78.172 54.149 78.172 54.149 78.172ZM58.196 78.385C58.338 77.817 58.409 77.391 58.409 77.107C58.551 76.681 58.622 76.184 58.622 75.616C58.622 75.616 58.551 75.687 58.409 75.829C57.415 76.823 56.847 77.817 56.705 78.811C56.705 78.811 56.847 78.811 57.131 78.811C57.699 78.953 57.983 79.024 57.983 79.024C58.125 79.024 58.196 78.811 58.196 78.385Z" fill="#8491A5"/>
</svg>
