<?xml version="1.0" standalone="no"?>
<!DOCTYPE svg PUBLIC "-//W3C//DTD SVG 20010904//EN"
 "http://www.w3.org/TR/2001/REC-SVG-20010904/DTD/svg10.dtd">
<svg version="1.0" xmlns="http://www.w3.org/2000/svg"
 width="1248.000000pt" height="747.000000pt" viewBox="0 0 1248.000000 747.000000"
 preserveAspectRatio="xMidYMid meet">

<g transform="translate(0.000000,747.000000) scale(0.100000,-0.100000)"
fill="#000000" stroke="none">
<path d="M7890 7420 c-174 -21 -283 -70 -385 -174 -123 -124 -172 -253 -182
-478 -8 -174 10 -167 25 10 15 185 46 270 133 364 l40 43 -30 -47 c-44 -66
-68 -126 -86 -212 -13 -67 -15 -449 -15 -3491 0 -3402 0 -3415 20 -3415 20 0
20 14 23 3428 2 3207 4 3431 20 3490 19 70 54 145 86 182 17 20 16 15 -5 -23
-15 -27 -36 -81 -48 -120 l-21 -72 -3 -3441 -2 -3441 31 -7 c17 -3 42 -6 55
-6 l24 0 2 3438 c3 3325 4 3439 22 3488 37 103 130 191 236 226 22 7 153 13
347 15 305 5 312 4 332 -16 14 -14 21 -34 21 -59 0 -48 41 -132 77 -158 60
-44 59 -44 907 -44 763 0 813 2 851 19 75 34 125 113 125 198 0 63 11 65 357
61 290 -4 311 -5 364 -26 78 -31 134 -74 170 -130 63 -100 59 112 58 -2816 0
-1946 -3 -2665 -11 -2648 -11 21 -12 20 -27 -25 -20 -59 -67 -89 -119 -74 -19
6 -32 6 -32 1 0 -14 40 -82 61 -106 10 -11 19 -22 19 -25 0 -2 -23 -5 -51 -7
-53 -3 -74 5 -123 51 -52 49 -152 60 -222 26 -39 -19 -43 -23 -37 -50 l6 -29
-59 -1 c-33 -1 -188 -1 -345 -1 -157 0 -292 -4 -300 -9 -11 -6 -15 -42 -17
-152 -3 -139 -3 -145 20 -170 31 -35 74 -45 82 -20 4 11 20 33 37 49 l30 29
417 0 c388 0 419 -1 444 -18 15 -10 33 -32 40 -48 13 -29 13 -29 100 -29 l88
0 0 -465 c0 -521 -6 -483 75 -470 l45 6 -2 3437 -3 3437 -23 79 c-12 44 -34
100 -48 125 -22 40 -22 43 -4 21 32 -36 68 -111 87 -182 16 -59 18 -286 20
-3490 3 -3411 3 -3428 23 -3428 20 0 20 16 20 3403 0 2315 -3 3423 -11 3466
-14 90 -44 174 -85 240 l-35 56 41 -45 c47 -52 93 -136 111 -200 6 -25 15
-101 18 -169 5 -94 9 -126 20 -129 12 -4 13 16 8 124 -11 229 -60 360 -181
479 -120 119 -255 169 -482 181 -111 6 -124 5 -124 -9 0 -15 13 -17 93 -17
155 0 292 -31 380 -87 57 -36 34 -39 -54 -8 -162 57 -85 55 -1819 55 -1734 0
-1657 2 -1819 -55 -108 -38 -119 -26 -21 23 149 75 66 71 1718 72 1302 0 1472
2 1472 15 0 13 -167 15 -1452 14 -799 -1 -1482 -5 -1518 -9z m2690 -6177 c0
-25 -34 -143 -41 -143 -11 0 -11 16 0 60 5 19 12 47 15 63 6 24 26 39 26 20z
m-250 -63 c0 -54 27 -56 32 -2 4 46 22 45 26 -3 2 -19 7 -35 13 -35 5 0 9 -4
9 -9 0 -5 -22 -9 -50 -9 l-50 -1 0 50 c0 27 5 49 10 49 6 0 10 -18 10 -40z
m124 8 l14 -32 16 33 c21 40 36 32 36 -19 0 -39 -13 -59 -25 -40 -5 8 -11 7
-21 -1 -11 -9 -16 -6 -23 12 l-10 24 0 -22 c-2 -47 -21 -21 -21 27 0 57 15 65
34 18z m158 -5 c4 -49 28 -57 28 -9 0 38 16 57 26 31 6 -15 8 -14 24 0 24 22
52 16 66 -13 11 -22 12 -22 17 -3 7 28 54 38 75 18 20 -21 10 -32 -16 -18 -24
13 -48 -9 -38 -34 6 -17 32 -20 41 -5 4 6 11 8 16 4 14 -8 -9 -34 -30 -34 -9
0 -26 7 -38 15 -18 13 -22 13 -33 0 -16 -20 -39 -19 -63 2 -18 17 -19 17 -28
0 -12 -20 -40 -22 -57 -5 -14 14 -16 88 -3 88 6 0 11 -17 13 -37z m327 10 l20
-28 1 28 c0 15 5 27 10 27 6 0 10 -22 10 -50 0 -57 -9 -62 -39 -22 l-20 27 -1
-27 c0 -16 -4 -28 -10 -28 -5 0 -10 23 -10 50 0 57 9 62 39 23z m86 17 c17 -7
17 -9 3 -9 -22 -1 -24 -21 -3 -21 8 0 15 -4 15 -10 0 -5 -7 -10 -15 -10 -8 0
-15 -4 -15 -10 0 -5 7 -10 15 -10 8 0 15 -4 15 -10 0 -5 -11 -10 -25 -10 -23
0 -25 3 -25 50 0 52 2 54 35 40z m95 -75 c0 -6 -12 -10 -27 -11 -33 -1 -45 4
-38 15 7 12 65 8 65 -4z"/>
<path d="M10707 1193 c-11 -10 -8 -41 4 -49 6 -3 16 -1 22 5 8 8 6 11 -8 11
-19 1 -19 1 -3 14 10 7 15 16 11 19 -8 9 -18 9 -26 0z"/>
<path d="M7907 6994 c-24 -25 8 -78 41 -67 6 3 12 -3 12 -12 0 -14 -6 -16 -32
-11 -31 6 -32 5 -16 -11 14 -14 22 -15 43 -5 24 11 26 17 23 60 -3 44 -5 47
-33 50 -17 2 -34 0 -38 -4z m48 -30 c0 -10 -8 -20 -17 -22 -18 -3 -26 27 -11
42 12 11 28 0 28 -20z"/>
<path d="M8075 6963 c-31 -47 -31 -53 0 -53 13 0 28 -7 32 -15 7 -12 10 -11
21 5 7 12 8 21 2 25 -6 3 -10 22 -10 41 0 44 -13 43 -45 -3z m27 -35 c-21 -21
-32 -3 -15 22 16 22 18 23 21 6 2 -10 -1 -23 -6 -28z"/>
<path d="M8167 6993 c-12 -12 -7 -23 7 -17 12 4 16 -6 19 -48 l3 -53 2 63 c2
46 -1 62 -11 62 -8 0 -17 -3 -20 -7z"/>
<path d="M8010 6970 c0 -5 5 -10 10 -10 6 0 10 5 10 10 0 6 -4 10 -10 10 -5 0
-10 -4 -10 -10z"/>
<path d="M10804 6966 c-28 -21 -11 -30 30 -15 29 10 43 11 68 1 17 -6 34 -9
37 -6 13 12 -35 34 -74 34 -23 0 -50 -6 -61 -14z"/>
<path d="M10710 6921 c0 -39 4 -51 16 -51 12 0 14 10 12 47 -4 66 -28 70 -28
4z"/>
<path d="M11032 6928 l3 -43 100 0 100 0 0 40 0 40 -103 3 -103 3 3 -43z"/>
<path d="M10657 6944 c-4 -4 -7 -22 -7 -41 0 -27 4 -33 21 -33 17 0 20 5 17
37 -3 35 -17 51 -31 37z"/>
<path d="M10827 6934 c-14 -15 -6 -19 38 -19 26 0 44 4 42 10 -4 12 -70 19
-80 9z"/>
<path d="M10607 6923 c-13 -13 -7 -53 8 -53 10 0 15 10 15 30 0 29 -9 38 -23
23z"/>
<path d="M8010 6910 c0 -5 5 -10 10 -10 6 0 10 5 10 10 0 6 -4 10 -10 10 -5 0
-10 -4 -10 -10z"/>
<path d="M10557 6903 c-13 -12 -7 -33 8 -33 8 0 15 9 15 20 0 20 -11 26 -23
13z"/>
<path d="M10854 6899 c-11 -18 11 -32 25 -16 9 12 8 16 -3 20 -9 4 -18 1 -22
-4z"/>
<path d="M7320 6398 c0 -106 -3 -204 -7 -217 -4 -17 -3 -22 5 -17 9 5 12 -27
12 -123 0 -72 -3 -131 -7 -131 -5 0 -6 -65 -5 -145 3 -98 0 -150 -7 -159 -9
-10 -8 -15 4 -20 13 -5 15 -41 13 -288 -2 -220 -6 -282 -15 -281 -15 3 -17
-13 -3 -22 6 -3 10 -40 10 -81 0 -43 -4 -74 -10 -74 -5 0 -10 -5 -10 -10 0 -6
6 -9 13 -8 9 2 13 -59 15 -277 2 -245 0 -281 -13 -292 -11 -7 -12 -13 -6 -18
8 -4 11 -639 11 -2111 0 -1396 3 -2104 10 -2104 7 0 10 1102 10 3285 0 2183
-3 3285 -10 3285 -6 0 -10 -71 -10 -192z"/>
<path d="M11677 6583 c-4 -3 -7 -1482 -7 -3285 0 -2907 2 -3278 15 -3278 13 0
15 252 15 2210 0 1467 3 2210 10 2210 7 0 10 165 10 474 0 306 -4 477 -10 481
-6 4 -10 215 -10 601 0 327 -4 594 -8 594 -5 0 -12 -3 -15 -7z m33 -1664 c0
-304 -3 -458 -10 -454 -6 4 -10 166 -10 454 0 395 2 461 17 461 2 0 3 -207 3
-461z"/>
<path d="M11025 6530 c-3 -5 -12 -7 -20 -4 -28 11 -68 -41 -75 -98 -4 -29 -6
-56 -3 -60 2 -5 33 -8 68 -8 35 0 66 3 68 8 3 4 1 29 -3 55 -4 26 -3 50 2 53
14 9 9 52 -8 58 -20 8 -22 8 -29 -4z"/>
<path d="M8280 6510 c0 -5 5 -10 10 -10 6 0 10 5 10 10 0 6 -4 10 -10 10 -5 0
-10 -4 -10 -10z"/>
<path d="M8160 6450 c0 -33 4 -60 10 -60 6 0 10 11 10 25 0 21 5 25 30 25 25
0 30 -4 30 -25 0 -14 5 -25 10 -25 6 0 10 24 10 54 0 30 -4 58 -10 61 -6 4
-10 -5 -10 -19 0 -22 -4 -26 -30 -26 -25 0 -30 4 -30 25 0 14 -4 25 -10 25 -6
0 -10 -27 -10 -60z"/>
<path d="M8552 6450 c0 -58 1 -61 8 -26 4 22 4 51 0 65 -6 19 -8 7 -8 -39z"/>
<path d="M8863 6455 c0 -33 2 -45 4 -27 2 18 2 45 0 60 -2 15 -4 0 -4 -33z"/>
<path d="M7860 6490 c0 -6 37 -10 90 -10 53 0 90 4 90 10 0 6 -37 10 -90 10
-53 0 -90 -4 -90 -10z"/>
<path d="M8420 6481 c-14 -27 -13 -44 6 -67 15 -18 15 -18 5 3 -15 30 -14 40
9 63 15 15 16 20 5 20 -8 0 -19 -9 -25 -19z"/>
<path d="M8480 6490 c20 -13 33 -13 25 0 -3 6 -14 10 -23 10 -15 0 -15 -2 -2
-10z"/>
<path d="M8280 6435 c0 -25 5 -45 10 -45 6 0 10 20 10 45 0 25 -4 45 -10 45
-5 0 -10 -20 -10 -45z"/>
<path d="M8603 6469 c11 -6 18 -24 19 -47 l1 -37 4 33 c4 34 -10 62 -31 62 -6
0 -3 -5 7 -11z"/>
<path d="M8676 6464 c-18 -18 -20 -33 -6 -54 8 -11 9 -8 5 11 -5 21 -1 30 16
43 13 9 18 16 12 16 -6 0 -19 -7 -27 -16z"/>
<path d="M8739 6478 c-6 -15 -4 -80 3 -84 4 -3 8 15 8 40 0 37 -5 58 -11 44z"/>
<path d="M8793 6435 c0 -22 2 -30 4 -17 2 12 2 30 0 40 -3 9 -5 -1 -4 -23z"/>
<path d="M7860 6440 c0 -6 37 -10 90 -10 53 0 90 4 90 10 0 6 -37 10 -90 10
-53 0 -90 -4 -90 -10z"/>
<path d="M8326 6394 c-9 -23 -7 -36 3 -30 12 8 21 46 11 46 -4 0 -11 -7 -14
-16z"/>
<path d="M7860 6390 c0 -6 37 -10 90 -10 53 0 90 4 90 10 0 6 -37 10 -90 10
-53 0 -90 -4 -90 -10z"/>
<path d="M8458 6393 c7 -3 16 -2 19 1 4 3 -2 6 -13 5 -11 0 -14 -3 -6 -6z"/>
<path d="M10985 6340 c4 -6 11 -8 16 -5 14 9 11 15 -7 15 -8 0 -12 -5 -9 -10z"/>
<path d="M7933 6061 c-26 -12 -52 -35 -70 -62 l-28 -43 -3 -665 c-2 -477 0
-678 9 -707 13 -49 68 -106 119 -123 26 -9 193 -11 630 -9 327 2 653 4 723 6
121 3 128 4 122 23 -4 11 -2 19 4 19 6 0 11 -4 11 -10 0 -5 8 -10 18 -10 14 0
15 -2 2 -10 -12 -8 -9 -10 12 -10 31 0 39 10 43 53 2 18 8 56 14 86 6 29 11
60 11 67 0 11 -119 14 -682 14 l-683 0 -45 23 c-27 13 -57 39 -75 65 -27 39
-30 52 -30 117 0 65 3 78 30 116 17 23 50 53 74 66 l44 23 683 0 c625 0 684 1
692 17 6 10 16 14 26 10 10 -4 14 -11 11 -17 -3 -5 -1 -10 4 -10 6 0 11 7 11
15 0 8 4 15 8 15 4 0 8 9 9 20 1 11 -3 20 -10 20 -6 0 -2 7 9 16 10 8 12 12 4
8 -12 -6 -13 -5 -4 7 7 8 14 33 17 56 3 32 0 46 -13 58 -17 15 -19 15 -28 -1
-8 -15 -15 -16 -43 -8 -32 9 -34 13 -37 57 -4 63 -20 60 -24 -5 l-3 -53 -63 1
c-78 2 -91 16 -92 97 0 57 0 57 30 57 29 0 30 -1 30 -51 0 -43 3 -50 18 -47
13 2 18 15 20 51 3 46 5 48 30 47 45 -3 52 -1 52 20 0 28 43 27 63 -2 l16 -23
-2 24 c-1 13 4 26 12 29 9 3 11 0 6 -8 -4 -7 -9 -27 -10 -45 l-2 -33 21 23
c12 12 27 20 35 17 10 -3 12 1 8 17 -3 11 -1 21 5 21 5 0 8 8 6 18 -2 11 3 26
11 35 9 11 10 17 2 17 -6 0 -11 10 -10 23 0 21 1 21 8 2 6 -15 9 -8 10 25 2
49 7 95 11 95 1 0 3 12 4 26 2 14 6 31 10 37 4 7 2 12 -6 12 -11 0 -11 2 0 9
13 8 13 46 -1 68 -5 9 -3 11 6 7 18 -7 29 30 13 47 -8 9 -8 10 2 5 7 -5 12 0
13 11 3 40 6 62 12 77 4 10 1 16 -8 16 -8 0 -15 6 -15 13 0 8 -4 7 -10 -3 -8
-13 -10 -12 -10 3 0 13 5 16 24 11 18 -4 25 -1 29 16 5 19 2 21 -44 19 -32 -2
-54 -8 -60 -18 -9 -14 -10 -14 -5 2 5 16 -40 17 -842 17 -810 0 -849 -1 -889
-19z m1744 -80 c-11 -22 -12 -31 -3 -35 8 -3 8 -5 -1 -5 -18 -1 -27 20 -12 30
7 4 10 11 7 15 -4 3 -1 12 5 19 19 20 21 9 4 -24z m72 12 c0 -10 -3 -13 -5 -6
-3 7 -12 9 -21 6 -11 -4 -14 -2 -9 5 11 18 36 14 35 -5z m-32 -19 c-3 -3 -12
-4 -19 -1 -8 3 -5 6 6 6 11 1 17 -2 13 -5z m-6 -38 c5 3 9 1 9 -5 0 -5 -9 -13
-21 -16 -14 -5 -19 -13 -16 -26 3 -10 2 -17 -3 -14 -4 3 -10 14 -13 25 -3 11
-1 18 3 15 5 -3 12 5 16 17 4 13 9 18 11 10 3 -6 9 -10 14 -6z m-14 -92 c-3
-3 -12 -4 -19 -1 -8 3 -5 6 6 6 11 1 17 -2 13 -5z m-12 -24 c-3 -5 -1 -10 6
-10 7 0 10 -3 6 -6 -9 -9 -28 6 -22 17 4 5 8 9 11 9 3 0 2 -4 -1 -10z m-1325
-85 c4 -32 7 -36 12 -18 8 31 53 41 78 18 19 -17 21 -17 40 0 16 15 26 17 47
9 37 -13 49 -37 37 -71 -7 -22 -17 -29 -43 -31 -20 -2 -40 3 -51 13 -16 14
-18 14 -23 0 -4 -8 -18 -15 -34 -15 -32 0 -48 9 -56 30 -4 10 -6 8 -6 -7 -1
-36 -41 -31 -41 5 l0 27 -13 -25 c-16 -32 -65 -40 -84 -14 -20 27 -16 61 9 78
30 21 44 20 68 -4 l20 -20 0 36 c0 28 3 35 18 32 12 -2 19 -16 22 -43z m1300
25 c-5 -10 -7 -20 -4 -23 3 -3 0 -8 -6 -12 -7 -4 -10 4 -8 23 1 16 8 29 14 29
9 0 10 -6 4 -17z m-1586 -30 l10 -35 10 38 c6 24 15 37 27 37 11 0 20 -12 27
-37 l10 -38 7 33 c7 31 29 52 41 39 3 -2 -3 -32 -13 -66 -21 -71 -46 -83 -62
-28 l-9 32 -12 -33 c-22 -58 -48 -32 -74 71 -11 44 25 31 38 -13z m892 26 c16
-17 19 -36 4 -36 -5 0 -10 -11 -10 -25 0 -14 5 -25 10 -25 6 0 10 -7 10 -15 0
-9 -9 -15 -25 -15 -22 0 -25 4 -25 39 0 22 -5 41 -11 43 -8 3 -8 10 2 26 16
26 25 27 45 8z m-220 -27 c15 -17 16 -17 35 2 23 23 47 24 71 2 20 -18 24 -63
6 -81 -18 -18 -75 -15 -87 6 -10 16 -10 16 -11 0 0 -11 -8 -18 -20 -18 -17 0
-20 7 -20 41 0 52 -24 48 -28 -4 -4 -50 -30 -50 -34 1 -2 25 -8 37 -18 37 -10
0 -16 -12 -18 -37 -2 -25 -8 -38 -18 -38 -10 0 -14 14 -14 53 l0 54 70 0 c54
0 73 -4 86 -18z m325 11 c22 -12 27 -68 7 -88 -20 -20 -76 -15 -88 7 -31 59
22 112 81 81z m620 -7 c13 -16 12 -17 -3 -4 -10 7 -18 15 -18 17 0 8 8 3 21
-13z m-569 -98 c-6 -14 -16 -25 -22 -25 -13 0 -13 26 1 52 17 31 36 7 21 -27z
m568 25 c0 -13 -5 -18 -15 -14 -8 4 -15 12 -15 20 0 8 7 14 15 14 8 0 15 -9
15 -20z m-56 2 c3 -5 -1 -9 -9 -9 -8 0 -12 4 -9 9 3 4 7 8 9 8 2 0 6 -4 9 -8z
m28 -29 c-19 -7 -4 -23 16 -16 18 7 17 5 -12 -17 -17 -13 -18 -13 -11 -1 6 11
4 13 -8 8 -10 -3 -17 -3 -17 1 0 12 23 32 35 31 5 0 4 -3 -3 -6z m-52 -69 c0
-8 5 -12 10 -9 6 3 10 -1 10 -10 0 -9 -4 -14 -9 -10 -5 3 -12 1 -16 -5 -3 -5
-12 -10 -18 -10 -7 0 -4 5 6 11 10 6 14 15 10 22 -11 18 -13 38 -2 31 5 -3 9
-12 9 -20z m-385 -86 c-1 -32 20 -38 28 -8 3 12 14 20 27 20 13 0 24 -8 27
-20 3 -11 9 -20 14 -20 5 0 9 -11 9 -25 0 -14 -4 -25 -10 -25 -5 0 -10 -11
-10 -25 0 -14 5 -25 10 -25 6 0 10 -11 10 -25 0 -21 -5 -25 -28 -25 -38 0 -52
17 -52 62 0 55 -18 47 -22 -9 -3 -44 -5 -48 -31 -51 l-28 -3 2 98 c1 54 3 102
6 106 3 5 15 7 26 5 17 -2 22 -10 22 -30z m-1126 -19 l19 -31 16 31 c16 31 48
42 61 21 4 -6 -7 -36 -24 -67 -17 -31 -31 -69 -31 -85 0 -23 -4 -28 -25 -28
-21 0 -25 5 -25 30 0 17 -13 57 -30 89 -16 32 -26 61 -23 65 16 15 45 3 62
-25z m646 -64 l0 -90 -27 -3 -28 -3 0 96 0 96 28 -3 27 -3 0 -90z m382 75 c3
-11 12 -20 19 -20 8 0 14 -10 14 -25 0 -16 -6 -25 -15 -25 -9 0 -15 -9 -15
-25 0 -16 6 -25 15 -25 9 0 15 -9 15 -25 0 -21 -5 -25 -29 -25 -35 0 -50 17
-58 64 -3 20 -7 36 -8 36 -2 0 -10 -3 -19 -6 -14 -5 -14 -8 -1 -21 34 -33 4
-73 -55 -73 -28 0 -43 6 -53 20 l-14 21 -6 -21 c-3 -13 -13 -20 -31 -20 -23 0
-25 4 -28 47 -2 36 -7 49 -20 51 -15 3 -18 -4 -18 -47 0 -50 -1 -51 -30 -51
l-30 0 0 74 0 75 62 0 c74 -1 86 -9 94 -60 5 -27 10 -36 21 -32 10 4 11 9 4
16 -15 15 -14 50 1 65 21 21 85 15 102 -10 13 -18 16 -19 16 -6 0 54 55 93 67
48z m-796 -39 c17 -13 23 -29 23 -56 0 -46 -31 -75 -79 -75 -38 0 -75 37 -75
75 0 12 9 34 21 49 25 32 75 35 110 7z m89 -31 c0 -43 3 -50 20 -50 17 0 20 7
20 51 0 49 1 50 28 47 27 -3 27 -4 27 -73 l0 -70 -59 -2 c-33 -2 -65 2 -73 8
-8 7 -13 34 -13 75 0 62 1 64 25 64 23 0 25 -3 25 -50z m210 22 c0 -15 -7 -26
-20 -29 -16 -4 -20 -14 -20 -49 0 -42 -1 -44 -30 -44 l-30 0 0 68 c0 38 3 71
6 74 3 4 25 6 50 6 40 -1 44 -3 44 -26z m930 -171 c0 -5 -7 -11 -14 -14 -10
-4 -13 -1 -9 9 6 15 23 19 23 5z m35 -11 c3 -5 3 -15 -1 -21 -6 -11 -23 6 -24
24 0 10 18 9 25 -3z m12 -46 c-3 -3 -12 -4 -19 -1 -8 3 -5 6 6 6 11 1 17 -2
13 -5z m-117 -580 c0 -2 -7 -4 -15 -4 -8 0 -15 4 -15 10 0 5 7 7 15 4 8 -4 15
-8 15 -10z m-15 -56 c5 -4 0 -6 -12 -6 -13 1 -19 7 -16 15 3 8 8 10 12 6 3 -4
10 -11 16 -15z m39 -8 c-6 -6 -10 -3 -10 10 0 13 4 16 10 10 7 -7 7 -13 0 -20z
m-29 -50 c3 -5 2 -10 -4 -10 -5 0 -13 5 -16 10 -3 6 -2 10 4 10 5 0 13 -4 16
-10z"/>
<path d="M8258 5713 c7 -3 16 -2 19 1 4 3 -2 6 -13 5 -11 0 -14 -3 -6 -6z"/>
<path d="M8400 5694 c0 -22 3 -25 23 -20 12 3 28 6 35 6 6 0 12 7 12 15 0 8
-6 12 -14 9 -8 -3 -17 -1 -21 5 -13 21 -35 11 -35 -15z"/>
<path d="M8504 5705 c-7 -18 3 -35 21 -35 15 0 24 19 18 38 -6 17 -32 15 -39
-3z"/>
<path d="M8258 5673 c7 -3 16 -2 19 1 4 3 -2 6 -13 5 -11 0 -14 -3 -6 -6z"/>
<path d="M8808 5713 c7 -3 16 -2 19 1 4 3 -2 6 -13 5 -11 0 -14 -3 -6 -6z"/>
<path d="M8808 5673 c7 -3 16 -2 19 1 4 3 -2 6 -13 5 -11 0 -14 -3 -6 -6z"/>
<path d="M9027 5714 c-15 -15 -7 -45 11 -42 9 2 17 12 17 22 0 20 -16 31 -28
20z"/>
<path d="M8260 5376 c0 -20 5 -26 21 -26 15 0 20 5 17 22 -5 34 -38 37 -38 4z"/>
<path d="M7304 5300 c0 -146 2 -205 3 -132 2 72 2 192 0 265 -1 72 -3 13 -3
-133z"/>
<path d="M9582 5376 c-1 -13 4 -26 11 -29 10 -4 12 3 9 24 -5 35 -17 38 -20 5z"/>
<path d="M10282 4994 c-83 -42 -84 -177 -1 -220 42 -21 457 -21 499 1 37 19
60 63 60 115 0 32 -7 48 -34 78 l-34 37 -229 3 c-196 2 -233 0 -261 -14z m108
-85 c0 -6 -8 -8 -17 -5 -17 6 -17 5 0 -8 26 -20 22 -46 -8 -46 -28 0 -35 19
-7 21 16 1 16 2 0 6 -29 7 -23 43 7 43 14 0 25 -5 25 -11z m40 0 c-12 -9 -13
-12 -1 -16 10 -4 10 -7 1 -13 -8 -5 -8 -9 3 -13 10 -4 19 4 27 24 15 36 27 37
40 3 15 -39 14 -40 -45 -42 l-55 -2 0 35 c0 30 3 35 23 35 18 0 19 -2 7 -11z
m138 -23 c-1 -28 -5 -33 -25 -33 -20 0 -23 5 -23 33 0 29 3 34 25 34 21 0 24
-4 23 -34z m112 17 c0 -7 5 -13 10 -13 6 0 10 7 10 15 0 8 5 15 10 15 6 0 10
-16 10 -35 0 -19 -4 -35 -10 -35 -5 0 -10 7 -10 15 0 8 -4 15 -10 15 -5 0 -10
-6 -10 -13 0 -10 -14 -13 -47 -13 -49 1 -63 16 -49 51 7 19 96 17 96 -2z"/>
<path d="M10606 4902 c-15 -14 -4 -32 19 -32 30 0 34 25 6 33 -11 3 -22 2 -25
-1z"/>
<path d="M2397 4923 c-14 -13 -7 -43 12 -53 36 -19 74 17 50 46 -12 15 -51 19
-62 7z"/>
<path d="M1552 4773 c3 -136 3 -138 26 -141 13 -2 29 2 37 8 10 8 19 9 35 0
56 -30 120 22 120 97 0 57 -14 81 -56 99 -31 13 -39 13 -65 0 l-29 -14 0 44
c0 44 0 44 -35 44 l-36 0 3 -137z m143 -3 c15 -16 17 -26 9 -48 -18 -51 -84
-37 -84 17 0 50 42 67 75 31z"/>
<path d="M2510 4770 l0 -140 25 0 c14 0 28 6 31 14 5 12 10 12 34 -2 57 -33
123 20 122 99 -1 78 -62 126 -122 96 l-30 -15 0 44 c0 42 -1 44 -30 44 l-30 0
0 -140z m134 4 c32 -31 14 -84 -29 -84 -62 0 -60 98 2 100 6 0 19 -7 27 -16z"/>
<path d="M3590 4870 c0 -45 1 -44 -34 -30 -36 13 -83 -6 -101 -41 -46 -89 23
-192 107 -160 17 6 29 6 36 -1 5 -5 20 -8 33 -6 24 3 24 4 27 141 l3 137 -36
0 c-34 0 -35 -1 -35 -40z m-11 -94 c31 -37 -9 -103 -46 -80 -37 23 -24 94 17
94 10 0 23 -6 29 -14z"/>
<path d="M1113 4890 c-43 -18 -58 -84 -25 -113 9 -8 38 -25 65 -36 49 -21 56
-31 33 -50 -14 -12 -46 -5 -46 10 0 5 -16 9 -35 9 -42 0 -45 -17 -11 -49 69
-65 196 -6 165 77 -6 15 -29 32 -64 47 -55 25 -71 50 -39 62 10 4 22 -1 29
-10 15 -21 75 -23 75 -3 0 8 -8 24 -18 36 -20 25 -92 36 -129 20z"/>
<path d="M3070 4865 c0 -14 -4 -25 -10 -25 -5 0 -10 -11 -10 -25 0 -14 4 -25
9 -25 4 0 11 -28 14 -61 6 -70 17 -85 70 -94 36 -7 37 -7 37 24 0 24 -4 31
-20 31 -17 0 -20 7 -20 50 0 43 3 50 20 50 15 0 20 7 20 25 0 18 -5 25 -20 25
-15 0 -20 7 -20 25 0 22 -4 25 -35 25 -31 0 -35 -3 -35 -25z"/>
<path d="M1853 4843 c-26 -5 -53 -39 -53 -65 0 -25 26 -46 70 -58 24 -6 40
-17 40 -25 0 -17 -35 -20 -45 -5 -9 15 -65 12 -65 -3 0 -43 87 -69 138 -43 27
14 32 22 32 51 0 36 -21 54 -82 69 -16 3 -28 11 -28 17 0 18 31 22 49 5 20
-18 61 -22 61 -5 0 23 -21 47 -51 58 -18 6 -35 10 -38 10 -3 -1 -16 -4 -28 -6z"/>
<path d="M2073 4843 c-12 -2 -34 -18 -48 -34 -66 -79 5 -196 105 -174 28 6 70
46 70 66 0 13 -57 11 -79 -3 -31 -19 -51 -3 -51 42 0 45 20 61 51 42 19 -12
79 -17 79 -6 0 28 -67 78 -97 73 -4 -1 -18 -4 -30 -6z"/>
<path d="M2813 4839 c-42 -12 -66 -49 -66 -99 0 -49 22 -83 64 -100 26 -11 38
-11 72 1 22 8 47 24 55 37 14 22 14 22 -25 22 -21 0 -44 -5 -50 -11 -8 -8 -17
-8 -32 0 -38 21 -22 31 49 31 l70 0 0 30 c0 41 -25 76 -62 89 -35 12 -32 12
-75 0z m71 -64 c4 -12 -3 -15 -34 -15 -38 0 -49 8 -33 23 12 13 61 7 67 -8z"/>
<path d="M3270 4837 c-50 -17 -77 -74 -61 -128 32 -108 190 -99 207 12 14 86
-61 146 -146 116z m69 -61 c31 -37 -9 -103 -46 -80 -37 23 -24 94 17 94 10 0
23 -6 29 -14z"/>
<path d="M3760 4843 c-30 -11 -60 -47 -66 -79 -17 -91 67 -165 134 -118 20 14
22 14 22 0 0 -11 10 -16 30 -16 l30 0 0 105 0 105 -30 0 c-16 0 -30 -4 -30 -9
0 -6 -12 -3 -27 5 -30 15 -39 16 -63 7z m76 -78 c20 -31 10 -63 -22 -71 -31
-8 -54 11 -54 45 0 52 48 69 76 26z"/>
<path d="M1300 4770 c0 -38 5 -80 11 -94 16 -34 60 -51 98 -38 19 7 32 7 39 0
5 -5 20 -8 33 -6 23 3 24 6 27 106 l3 102 -35 0 -35 0 -3 -72 -3 -73 -30 0
-30 0 -3 73 -3 72 -34 0 -35 0 0 -70z"/>
<path d="M2240 4735 l0 -105 30 0 c29 0 29 0 32 68 3 66 3 67 36 77 26 7 32
14 32 37 0 30 -16 36 -51 18 -13 -7 -19 -7 -19 0 0 5 -13 10 -30 10 l-30 0 0
-105z"/>
<path d="M2400 4735 l0 -105 30 0 30 0 0 105 0 105 -30 0 -30 0 0 -105z"/>
<path d="M3940 4832 c0 -5 17 -49 38 -98 l39 -90 -23 -53 -23 -52 35 3 36 3
59 138 c32 77 59 143 59 149 0 5 -14 8 -32 6 -28 -3 -33 -9 -54 -63 -25 -66
-20 -68 -55 28 -11 33 -17 37 -46 37 -18 0 -33 -4 -33 -8z"/>
<path d="M7304 4535 c0 -148 2 -211 3 -138 2 72 2 194 0 270 -1 76 -3 17 -3
-132z"/>
<path d="M1133 4325 c-24 -17 -33 -43 -23 -70 5 -14 0 -29 -16 -48 -32 -38
-31 -80 2 -106 30 -24 88 -28 129 -9 19 9 28 9 37 0 7 -7 28 -12 48 -12 l35 1
-33 28 -33 28 22 37 21 36 -27 0 c-15 0 -34 -8 -41 -17 -12 -17 -16 -15 -53
22 -45 43 -55 85 -22 85 11 0 21 -5 23 -11 2 -6 17 -9 33 -7 l30 3 -27 28
c-30 30 -71 35 -105 12z m52 -155 c25 -26 27 -32 15 -40 -22 -14 -47 -12 -64
6 -19 18 -19 20 -6 45 14 26 21 24 55 -11z"/>
<path d="M1515 4326 c-17 -7 -39 -26 -50 -42 -24 -37 -25 -112 -1 -149 20 -30
71 -55 113 -55 34 0 88 31 103 59 10 19 8 21 -23 21 -19 0 -40 -7 -47 -15 -16
-19 -59 -19 -83 0 -10 7 -21 31 -24 53 -5 34 -1 45 20 66 29 29 54 33 83 11
22 -16 74 -20 74 -5 0 15 -38 50 -66 60 -34 13 -63 12 -99 -4z"/>
<path d="M1763 4262 c-69 -53 -27 -182 59 -182 94 0 143 106 79 171 -24 23
-38 29 -73 29 -25 0 -52 -8 -65 -18z m105 -54 c18 -39 1 -78 -36 -78 -35 0
-52 16 -52 51 0 59 63 78 88 27z"/>
<path d="M1970 4180 l0 -100 30 0 30 0 0 68 c0 70 10 92 41 92 35 0 49 -28 49
-96 0 -62 1 -64 25 -64 24 0 25 2 25 71 0 68 -11 106 -34 121 -18 12 -71 9
-85 -4 -11 -10 -14 -10 -18 0 -3 6 -18 12 -34 12 l-29 0 0 -100z"/>
<path d="M2247 4260 c-66 -52 -30 -180 51 -180 12 0 34 7 47 16 l25 16 0 -66
c0 -64 1 -66 25 -66 l25 0 0 150 0 150 -24 0 c-13 0 -26 -6 -29 -12 -4 -10 -7
-10 -18 0 -20 19 -73 14 -102 -8z m103 -40 c23 -23 24 -29 10 -64 -7 -20 -17
-26 -38 -26 -15 0 -33 5 -40 12 -17 17 -15 64 4 82 21 21 40 20 64 -4z"/>
<path d="M2470 4220 c0 -111 43 -162 108 -129 15 7 30 15 35 17 4 2 7 -3 7
-12 0 -10 9 -16 25 -16 l25 0 0 100 0 100 -25 0 c-24 0 -25 -3 -25 -58 0 -71
-15 -95 -55 -90 -30 3 -30 3 -33 76 l-3 72 -29 0 c-30 0 -30 0 -30 -60z"/>
<path d="M2753 4265 c-27 -19 -46 -75 -37 -109 9 -38 59 -76 98 -76 32 0 86
32 86 51 0 13 -54 11 -68 -3 -15 -15 -62 5 -62 27 0 12 14 15 70 15 64 0 70 2
70 20 0 29 -26 76 -45 84 -30 11 -90 6 -112 -9z m95 -37 c21 -21 13 -28 -33
-28 -25 0 -45 4 -45 8 0 15 24 32 45 32 12 0 26 -5 33 -12z"/>
<path d="M2951 4180 l-1 -100 29 0 c27 0 28 2 30 52 1 66 8 88 29 88 13 0 14
2 4 9 -10 6 -9 11 4 22 10 8 15 9 11 2 -4 -6 -3 -14 3 -18 11 -7 13 5 4 29 -5
14 -8 14 -30 -1 -22 -14 -24 -14 -24 1 0 11 -9 16 -29 16 l-29 0 -1 -100z"/>
<path d="M7840 4130 l0 -60 38 1 c32 1 33 2 12 8 -32 9 -40 41 -11 41 12 0 21
5 21 10 0 6 -9 10 -20 10 -11 0 -20 7 -20 15 0 9 9 15 25 15 14 0 25 5 25 10
0 6 -16 10 -35 10 l-35 0 0 -60z"/>
<path d="M8150 4130 c0 -33 4 -60 10 -60 6 0 10 27 10 60 0 33 -4 60 -10 60
-6 0 -10 -27 -10 -60z"/>
<path d="M7941 4139 c8 -16 8 -28 0 -45 -11 -25 -3 -32 16 -13 8 8 13 8 17 0
4 -6 14 -11 22 -11 13 0 12 3 -1 23 -13 21 -13 25 1 45 13 19 13 22 0 22 -8 0
-16 -6 -19 -12 -4 -10 -7 -10 -18 0 -20 19 -31 14 -18 -9z"/>
<path d="M8030 4088 c0 -39 4 -68 10 -68 6 0 10 13 10 28 0 26 3 28 30 24 24
-3 32 0 41 21 18 40 -2 67 -51 65 l-40 -1 0 -69z m70 28 c0 -28 -24 -41 -40
-21 -16 20 -5 45 20 45 14 0 20 -7 20 -24z"/>
<path d="M8202 4148 c-7 -7 -12 -21 -12 -33 0 -29 19 -45 52 -45 36 0 56 36
39 69 -13 23 -59 29 -79 9z m58 -32 c0 -28 -24 -41 -40 -21 -16 20 -5 45 20
45 14 0 20 -7 20 -24z"/>
<path d="M8310 4114 c0 -24 5 -44 10 -44 6 0 10 14 10 30 0 18 6 33 15 36 23
9 18 22 -10 22 -23 0 -25 -4 -25 -44z"/>
<path d="M8379 4139 c-17 -34 3 -69 40 -69 16 0 33 5 36 11 11 16 -3 23 -19
10 -15 -13 -36 -7 -36 10 0 5 16 9 35 9 38 0 40 2 25 31 -15 27 -66 26 -81 -2z
m59 -7 c2 -7 -6 -12 -17 -12 -21 0 -27 11 -14 24 9 9 26 2 31 -12z"/>
<path d="M8531 4129 c0 -15 7 -33 17 -40 15 -12 16 -12 5 1 -6 8 -13 26 -16
40 l-4 25 -2 -26z"/>
<path d="M8578 4073 c7 -3 16 -2 19 1 4 3 -2 6 -13 5 -11 0 -14 -3 -6 -6z"/>
<path d="M1360 3607 c0 -20 -4 -23 -28 -19 -35 5 -55 -17 -50 -54 4 -36 31
-53 58 -36 13 8 20 8 20 1 0 -5 5 -7 10 -4 6 3 10 33 10 65 0 32 -4 62 -10 65
-6 3 -10 -4 -10 -18z m-5 -61 c0 -36 -26 -56 -49 -37 -31 26 -11 75 29 69 15
-2 20 -11 20 -32z"/>
<path d="M1413 3560 c0 -41 2 -58 4 -37 2 20 2 54 0 75 -2 20 -4 3 -4 -38z"/>
<path d="M2302 3560 c0 -41 2 -70 5 -63 3 10 9 10 24 0 28 -18 53 2 57 46 3
32 0 37 -22 43 -14 3 -32 4 -40 1 -10 -4 -16 3 -19 21 -2 15 -4 -7 -5 -48z
m73 -14 c0 -36 -26 -56 -49 -37 -31 26 -11 75 29 69 15 -2 20 -11 20 -32z"/>
<path d="M2420 3620 c0 -5 5 -10 10 -10 6 0 10 5 10 10 0 6 -4 10 -10 10 -5 0
-10 -4 -10 -10z"/>
<path d="M2473 3560 c0 -41 2 -58 4 -37 2 20 2 54 0 75 -2 20 -4 3 -4 -38z"/>
<path d="M2510 3620 c0 -5 5 -10 10 -10 6 0 10 5 10 10 0 6 -4 10 -10 10 -5 0
-10 -4 -10 -10z"/>
<path d="M2620 3620 c0 -5 5 -10 10 -10 6 0 10 5 10 10 0 6 -4 10 -10 10 -5 0
-10 -4 -10 -10z"/>
<path d="M3600 3620 c0 -5 5 -10 10 -10 6 0 10 5 10 10 0 6 -4 10 -10 10 -5 0
-10 -4 -10 -10z"/>
<path d="M1070 3555 l0 -65 33 1 c30 2 30 2 5 6 -22 3 -28 10 -28 28 0 18 6
25 28 28 l27 4 -27 2 c-23 1 -28 6 -28 25 0 19 6 26 28 29 25 4 25 4 -5 6
l-33 1 0 -65z"/>
<path d="M2559 3603 c-3 -10 -2 -38 1 -63 4 -35 9 -45 25 -47 11 -2 14 0 8 3
-14 6 -18 80 -4 86 4 2 0 11 -9 21 -17 17 -18 17 -21 0z"/>
<path d="M2930 3557 l0 -63 38 -1 c45 -1 62 11 62 47 0 34 -22 54 -55 48 -19
-4 -25 -1 -25 13 0 11 -4 19 -10 19 -6 0 -10 -28 -10 -63z m80 8 c26 -31 -13
-82 -44 -56 -16 14 -22 52 -9 64 11 12 40 8 53 -8z"/>
<path d="M8233 3586 c-4 -8 -24 -16 -43 -18 -30 -3 -35 -7 -38 -32 -2 -19 3
-34 17 -47 26 -25 27 -45 1 -61 -25 -16 -28 -73 -4 -82 28 -11 54 -6 54 9 0 8
8 18 18 23 22 12 62 -3 62 -23 0 -8 9 -15 19 -15 38 0 51 12 51 44 0 19 8 38
20 49 25 21 25 33 1 47 -13 7 -21 23 -23 48 -3 34 -5 37 -38 40 -19 2 -39 10
-43 18 -4 8 -17 14 -27 14 -10 0 -23 -6 -27 -14z m37 -21 c0 -11 11 -15 40
-15 40 0 40 0 40 -39 0 -31 4 -40 23 -45 l22 -7 -22 -9 c-19 -8 -23 -17 -23
-50 0 -45 -16 -52 -45 -20 -10 11 -30 20 -45 20 -15 0 -35 -9 -45 -20 -40 -44
-62 -10 -25 37 11 14 20 33 20 43 0 9 -9 25 -20 35 -11 10 -20 26 -20 37 0 14
8 18 40 18 29 0 40 4 40 15 0 8 5 15 10 15 6 0 10 -7 10 -15z"/>
<path d="M1160 3539 c0 -60 18 -65 22 -6 2 35 7 43 25 45 23 3 25 -2 37 -68 2
-14 3 -2 2 25 l-1 50 -42 1 -43 2 0 -49z"/>
<path d="M1461 3576 c-7 -8 -11 -27 -9 -43 4 -34 47 -54 73 -33 21 18 12 24
-13 9 -17 -10 -23 -10 -36 0 -26 22 -19 31 24 31 26 0 40 5 40 13 0 34 -57 50
-79 23z m63 -11 c4 -12 -3 -15 -29 -15 -26 0 -33 3 -29 15 4 8 16 15 29 15 13
0 25 -7 29 -15z"/>
<path d="M1577 3583 c-14 -14 -6 -34 18 -43 14 -5 25 -16 25 -25 0 -17 -25
-21 -35 -5 -3 6 -11 10 -17 10 -7 0 -6 -6 2 -15 16 -20 44 -19 61 1 11 14 10
18 -6 30 -10 8 -25 14 -32 14 -7 0 -13 7 -13 16 0 12 7 15 25 12 14 -3 25 -1
25 3 0 10 -44 12 -53 2z"/>
<path d="M1667 3584 c-15 -16 -5 -36 23 -45 17 -6 30 -15 30 -20 0 -15 -33
-24 -38 -11 -2 7 -8 12 -14 12 -6 0 -5 -6 2 -15 19 -23 54 -15 58 12 3 17 -3
24 -22 29 -14 3 -26 12 -26 20 0 17 22 18 39 2 11 -11 13 -10 9 2 -5 16 -49
26 -61 14z"/>
<path d="M1810 3513 c0 -47 4 -72 10 -68 6 3 10 17 10 30 0 20 5 23 32 21 27
-1 34 4 42 27 15 41 -2 62 -53 63 l-41 2 0 -75z m78 55 c28 -28 1 -75 -38 -63
-14 4 -20 15 -20 34 0 15 3 31 7 34 10 11 38 8 51 -5z"/>
<path d="M1940 3570 c-25 -46 11 -90 60 -75 24 7 37 51 23 74 -16 26 -69 26
-83 1z m70 -9 c13 -25 13 -27 -6 -45 -21 -22 -41 -20 -54 4 -8 14 -8 26 0 40
14 25 46 26 60 1z"/>
<path d="M2057 3584 c-15 -16 -5 -36 23 -45 17 -6 30 -15 30 -20 0 -15 -33
-24 -38 -11 -2 7 -8 12 -14 12 -6 0 -6 -6 2 -15 16 -19 44 -19 59 -1 9 11 8
18 -4 30 -9 9 -23 16 -31 16 -8 0 -14 7 -14 15 0 17 36 21 43 5 3 -6 4 -5 3 2
-3 14 -48 23 -59 12z"/>
<path d="M2157 3584 c-15 -16 -5 -36 23 -45 17 -6 30 -15 30 -20 0 -16 -29
-22 -45 -9 -10 8 -15 9 -15 1 0 -13 45 -26 59 -16 22 13 11 41 -21 53 -26 9
-30 14 -20 24 10 10 17 10 33 -1 18 -10 20 -10 17 1 -5 14 -50 23 -61 12z"/>
<path d="M2253 3540 c0 -30 2 -43 4 -27 2 15 2 39 0 55 -2 15 -4 2 -4 -28z"/>
<path d="M2423 3540 c0 -30 2 -43 4 -27 2 15 2 39 0 55 -2 15 -4 2 -4 -28z"/>
<path d="M2510 3539 c0 -31 4 -48 10 -44 6 3 10 26 10 51 0 24 -4 44 -10 44
-5 0 -10 -23 -10 -51z"/>
<path d="M2633 3540 c0 -30 2 -43 4 -27 2 15 2 39 0 55 -2 15 -4 2 -4 -28z"/>
<path d="M2682 3578 c-7 -7 -12 -24 -12 -38 0 -14 5 -31 12 -38 17 -17 53 -15
68 3 15 18 7 19 -19 3 -15 -9 -23 -9 -35 1 -26 22 -19 31 24 31 26 0 40 5 40
13 0 19 -21 37 -45 37 -12 0 -26 -5 -33 -12z m58 -13 c11 -13 7 -15 -24 -15
-34 0 -44 8 -29 23 11 12 40 8 53 -8z"/>
<path d="M2786 3575 c-4 -11 4 -21 24 -33 16 -9 30 -20 30 -24 0 -14 -22 -20
-33 -9 -17 17 -31 13 -17 -4 16 -19 44 -19 59 -1 9 11 8 18 -4 30 -9 9 -23 16
-31 16 -8 0 -14 7 -14 15 0 17 36 21 43 5 3 -6 4 -5 3 2 -4 20 -52 22 -60 3z"/>
<path d="M3050 3586 c0 -2 9 -25 20 -51 15 -36 17 -51 9 -67 -6 -11 -8 -22 -5
-25 3 -3 9 3 12 13 4 10 18 43 31 73 13 30 21 56 18 59 -2 3 -13 -15 -23 -39
l-19 -44 -12 37 c-10 32 -31 61 -31 44z"/>
<path d="M3222 3578 c-7 -7 -12 -24 -12 -38 0 -53 57 -69 86 -25 15 23 15 27
0 50 -18 27 -54 33 -74 13z m63 -32 c0 -36 -26 -56 -49 -37 -31 26 -11 75 29
69 15 -2 20 -11 20 -32z"/>
<path d="M3320 3587 c0 -16 34 -97 40 -97 5 0 12 15 15 33 11 51 18 54 29 13
6 -21 15 -38 21 -39 9 -2 38 83 31 91 -3 2 -10 -15 -17 -38 l-13 -43 -14 42
c-17 50 -29 52 -38 6 -9 -48 -20 -52 -28 -10 -4 19 -11 37 -16 40 -6 4 -10 4
-10 2z"/>
<path d="M3480 3539 c0 -60 18 -65 22 -6 2 35 7 43 25 45 23 3 25 -2 37 -68 2
-14 3 -2 2 25 l-1 50 -42 1 -43 2 0 -49z"/>
<path d="M3600 3539 c0 -31 4 -48 10 -44 6 3 10 26 10 51 0 24 -4 44 -10 44
-5 0 -10 -23 -10 -51z"/>
<path d="M3652 3536 l1 -51 6 45 c5 40 9 45 31 45 22 0 26 -5 31 -45 4 -34 7
-41 13 -27 5 10 4 32 -1 50 -8 28 -13 32 -46 33 l-37 1 2 -51z"/>
<path d="M3770 3569 c-17 -31 -4 -68 26 -75 15 -4 30 -2 37 6 9 10 7 11 -9 6
-19 -6 -54 14 -54 30 0 18 24 44 40 44 23 0 33 -14 36 -54 5 -61 -17 -86 -59
-65 -21 10 -21 10 -3 -5 45 -36 76 -7 76 72 l0 57 -40 3 c-31 2 -41 -2 -50
-19z"/>
<path d="M3940 3564 c6 -14 15 -34 21 -45 7 -14 7 -29 0 -50 -6 -16 -6 -27 -2
-24 11 6 63 136 58 142 -3 2 -12 -15 -22 -39 l-18 -43 -14 43 c-8 23 -19 42
-24 42 -5 0 -4 -11 1 -26z"/>
<path d="M4052 3578 c-28 -28 -3 -88 37 -88 10 0 26 9 36 20 27 30 10 74 -30
78 -17 2 -36 -3 -43 -10z m68 -17 c13 -25 13 -27 -6 -45 -21 -22 -41 -20 -54
4 -8 14 -8 26 0 40 14 25 46 26 60 1z"/>
<path d="M4163 3549 c7 -50 9 -53 52 -54 l35 -2 -2 51 c-1 42 -2 45 -5 14 -8
-72 -63 -79 -63 -8 0 23 -5 40 -11 40 -8 0 -10 -14 -6 -41z"/>
<path d="M4280 3544 c0 -23 5 -46 10 -49 6 -4 10 10 10 34 0 27 5 43 17 49 13
8 11 10 -10 10 -25 0 -27 -4 -27 -44z"/>
<path d="M4412 3578 c-7 -7 -12 -24 -12 -38 0 -31 17 -50 45 -50 28 0 45 19
45 50 0 31 -17 50 -45 50 -12 0 -26 -5 -33 -12z m63 -32 c0 -36 -26 -56 -49
-37 -31 26 -11 75 29 69 15 -2 20 -11 20 -32z"/>
<path d="M4510 3587 c0 -16 34 -97 40 -97 5 0 12 15 15 33 11 51 18 54 29 13
6 -21 15 -37 20 -37 10 0 38 82 31 89 -2 2 -9 -15 -16 -38 l-13 -43 -14 42
c-17 50 -29 52 -38 6 -9 -48 -20 -52 -28 -10 -4 19 -11 37 -16 40 -6 4 -10 4
-10 2z"/>
<path d="M4670 3539 c0 -60 18 -65 22 -6 2 35 7 43 25 45 23 3 25 -2 37 -68 2
-14 3 -2 2 25 l-1 50 -42 1 -43 2 0 -49z"/>
<path d="M10421 3553 l-64 -36 26 -14 c23 -11 27 -20 27 -56 0 -41 2 -44 46
-65 l46 -23 41 23 c38 21 43 28 47 68 4 32 10 46 23 48 14 3 17 -4 17 -44 0
-34 3 -45 11 -37 5 5 9 30 7 54 -3 42 -5 44 -68 81 -36 21 -72 38 -80 38 -8 0
-44 -17 -79 -37z m127 -5 c23 -13 42 -26 42 -31 0 -4 -20 -17 -45 -29 l-45
-22 -45 22 c-25 12 -45 25 -45 29 0 9 68 50 85 52 6 1 29 -9 53 -21z m-78 -93
c27 -14 33 -14 60 0 39 20 42 19 38 -12 -2 -18 -14 -33 -35 -46 -32 -18 -34
-18 -65 0 -22 13 -34 28 -36 46 -4 31 -1 32 38 12z"/>
<path d="M9265 3570 c3 -6 48 -10 101 -10 56 0 94 4 94 10 0 6 -40 10 -101 10
-64 0 -98 -4 -94 -10z"/>
<path d="M9256 3516 c-3 -13 -3 -52 0 -85 l7 -61 58 0 59 0 0 40 c0 38 2 40
30 40 23 0 30 -4 30 -20 0 -38 19 -20 25 24 13 82 8 86 -105 86 -95 0 -98 -1
-104 -24z m194 -21 c0 -25 -1 -25 -84 -25 -85 0 -103 7 -92 35 4 12 25 15 91
15 84 0 85 0 85 -25z m-90 -75 c0 -28 -2 -30 -40 -30 -38 0 -40 2 -40 30 0 28
2 30 40 30 38 0 40 -2 40 -30z"/>
<path d="M9480 3410 c0 -13 -7 -20 -20 -20 -11 0 -20 -4 -20 -10 0 -5 9 -10
20 -10 13 0 20 -7 20 -20 0 -11 5 -20 10 -20 6 0 10 9 10 20 0 13 7 20 20 20
11 0 20 5 20 10 0 6 -9 10 -20 10 -13 0 -20 7 -20 20 0 11 -4 20 -10 20 -5 0
-10 -9 -10 -20z"/>
<path d="M1342 3215 l-2 -70 32 -2 c40 -3 58 12 58 47 0 34 -22 54 -54 48 -21
-4 -26 -1 -29 21 -2 14 -5 -5 -5 -44z m74 -11 c9 -34 -18 -64 -44 -48 -22 14
-27 41 -12 59 20 24 49 18 56 -11z"/>
<path d="M1611 3258 c0 -10 -7 -18 -13 -18 -10 0 -10 -2 -1 -8 6 -4 13 -25 15
-47 2 -31 8 -41 23 -43 18 -2 18 -2 3 8 -12 7 -18 23 -18 45 0 24 5 35 18 38
15 4 15 5 0 6 -9 0 -19 9 -21 19 -4 16 -5 16 -6 0z"/>
<path d="M1854 3256 c-3 -9 -4 -22 -1 -30 3 -8 -1 -17 -9 -20 -17 -7 -18 -38
-2 -54 15 -15 55 -16 64 -1 4 8 9 8 17 0 17 -17 31 -13 17 4 -7 8 -9 22 -6 31
5 13 4 14 -7 6 -19 -16 -77 42 -59 60 8 8 15 8 28 -3 15 -12 17 -12 12 1 -7
21 -47 25 -54 6z m42 -95 c-11 -17 -43 -13 -50 5 -4 9 -1 23 6 31 10 12 14 11
31 -5 11 -11 16 -25 13 -31z"/>
<path d="M2330 3207 l0 -63 38 -1 c45 -1 62 11 62 47 0 34 -22 54 -55 48 -19
-4 -25 -1 -25 13 0 11 -4 19 -10 19 -6 0 -10 -28 -10 -63z m78 11 c28 -28 1
-75 -38 -63 -14 4 -20 15 -20 34 0 15 3 31 7 34 10 11 38 8 51 -5z"/>
<path d="M2500 3205 c0 -37 4 -65 10 -65 6 0 10 28 10 65 0 37 -4 65 -10 65
-6 0 -10 -28 -10 -65z"/>
<path d="M1064 3218 c19 -81 38 -95 51 -38 8 36 21 31 30 -10 4 -17 11 -30 16
-30 5 0 9 1 9 3 0 1 7 24 15 52 9 27 11 45 6 40 -5 -6 -14 -26 -19 -45 l-9
-35 -13 43 c-7 23 -17 42 -21 42 -5 0 -13 -19 -20 -42 l-12 -43 -13 39 c-17
47 -29 62 -20 24z"/>
<path d="M1226 3219 c-34 -49 36 -110 74 -64 14 17 0 21 -17 4 -14 -14 -53 -2
-53 17 0 10 12 14 40 14 41 0 52 14 28 38 -19 19 -55 14 -72 -9z m64 -4 c11
-13 7 -15 -24 -15 -34 0 -44 8 -29 23 11 12 40 8 53 -8z"/>
<path d="M1467 3234 c-15 -16 -5 -36 23 -45 17 -6 30 -15 30 -20 0 -17 -30
-22 -47 -8 -14 12 -16 12 -11 -1 3 -9 17 -15 34 -15 42 0 44 29 3 50 -23 13
-28 20 -20 28 9 9 17 8 32 -2 18 -10 20 -10 17 1 -5 14 -50 23 -61 12z"/>
<path d="M1563 3190 c0 -30 2 -43 4 -27 2 15 2 39 0 55 -2 15 -4 2 -4 -28z"/>
<path d="M1682 3228 c-7 -7 -12 -24 -12 -38 0 -14 5 -31 12 -38 17 -17 53 -15
68 3 15 18 7 19 -19 3 -15 -9 -23 -9 -35 1 -26 22 -19 31 24 31 26 0 40 5 40
13 0 19 -21 37 -45 37 -12 0 -26 -5 -33 -12z m58 -13 c11 -13 7 -15 -24 -15
-34 0 -44 8 -29 23 11 12 40 8 53 -8z"/>
<path d="M2020 3188 c0 -59 18 -64 22 -6 2 33 8 44 22 46 24 5 35 -13 37 -58
2 -32 2 -31 8 10 5 40 9 45 31 45 22 0 26 -5 31 -45 l7 -45 -2 50 c-1 44 -4
50 -24 53 -13 2 -29 -2 -37 -8 -9 -7 -15 -8 -20 -1 -3 6 -21 10 -40 9 -35 -1
-35 -1 -35 -50z"/>
<path d="M2222 3228 c-7 -7 -12 -24 -12 -38 0 -32 17 -50 47 -50 43 0 65 68
29 92 -17 12 -51 9 -64 -4z m66 -35 c2 -25 -1 -33 -18 -38 -39 -12 -67 34 -38
63 23 23 53 10 56 -25z"/>
<path d="M2463 3190 c0 -30 2 -43 4 -27 2 15 2 39 0 55 -2 15 -4 2 -4 -28z"/>
<path d="M2548 3215 c-16 -35 13 -77 49 -73 15 2 28 9 31 16 3 11 0 11 -16 1
-23 -14 -52 -6 -52 16 0 11 11 15 40 15 26 0 40 5 40 13 0 42 -74 52 -92 12z
m70 -2 c2 -9 -7 -13 -27 -13 -30 0 -39 9 -24 24 11 10 46 3 51 -11z"/>
<path d="M2722 3228 c-16 -16 -15 -63 1 -77 8 -6 30 -10 50 -9 l37 1 0 47 0
47 -38 1 c-21 1 -44 -4 -50 -10z m66 -35 c2 -25 -1 -33 -18 -38 -39 -12 -67
34 -38 63 23 23 53 10 56 -25z"/>
<path d="M2842 3160 c0 -41 3 -61 5 -43 4 29 7 32 32 27 47 -10 74 32 51 77
-9 15 -20 19 -50 17 l-40 -3 2 -75z m78 51 c13 -25 13 -27 -6 -45 -22 -23 -43
-20 -56 9 -20 45 38 79 62 36z"/>
<path d="M2972 3160 c0 -41 3 -60 5 -42 4 28 7 31 29 26 31 -8 54 11 54 46 0
35 -19 51 -59 48 l-31 -2 2 -76z m68 55 c26 -31 -13 -82 -44 -56 -19 16 -21
57 -3 64 22 9 34 7 47 -8z"/>
<path d="M3094 3226 c-7 -19 3 -36 20 -36 8 0 19 -7 26 -15 17 -21 -14 -32
-37 -14 -14 12 -16 12 -11 -1 7 -22 62 -20 66 3 3 13 -6 22 -27 30 -17 6 -31
17 -31 24 0 17 32 17 49 1 11 -11 13 -10 9 2 -6 21 -56 26 -64 6z"/>
<path d="M3180 3150 c0 -5 5 -10 10 -10 6 0 10 5 10 10 0 6 -4 10 -10 10 -5 0
-10 -4 -10 -10z"/>
<path d="M2320 2920 c0 -5 5 -10 10 -10 6 0 10 5 10 10 0 6 -4 10 -10 10 -5 0
-10 -4 -10 -10z"/>
<path d="M3593 2860 c0 -41 2 -58 4 -37 2 20 2 54 0 75 -2 20 -4 3 -4 -38z"/>
<path d="M1083 2913 c-7 -2 -13 -15 -13 -29 0 -17 7 -25 25 -30 36 -9 49 -28
29 -45 -13 -10 -19 -10 -36 0 -16 10 -19 10 -16 -1 7 -19 59 -16 71 4 13 20
-6 48 -35 48 -23 0 -35 27 -19 43 9 9 16 9 31 -1 27 -16 35 -15 20 3 -12 15
-34 18 -57 8z"/>
<path d="M2960 2855 c0 -72 17 -90 22 -22 2 35 7 43 25 45 23 3 26 -3 36 -68
3 -14 5 -4 6 22 1 43 -2 48 -23 54 -14 3 -30 3 -35 -1 -7 -3 -11 2 -11 14 0
12 -4 21 -10 21 -6 0 -10 -28 -10 -65z"/>
<path d="M3710 2901 c0 -14 -6 -17 -25 -13 -33 6 -55 -14 -55 -48 0 -36 18
-50 63 -48 l37 1 0 64 c0 35 -4 63 -10 63 -5 0 -10 -8 -10 -19z m-2 -58 c2
-25 -1 -33 -18 -38 -39 -12 -67 34 -38 63 23 23 53 10 56 -25z"/>
<path d="M1179 2901 c-3 -7 -2 -34 1 -59 4 -37 9 -47 25 -50 18 -2 18 -2 3 8
-11 6 -18 23 -18 40 0 17 7 33 18 39 15 9 15 10 0 11 -9 0 -18 6 -20 13 -4 9
-6 9 -9 -2z"/>
<path d="M1439 2898 c-5 -61 8 -108 29 -107 11 0 12 3 5 6 -16 6 -17 83 -2 83
6 0 4 7 -5 15 -18 18 -26 19 -27 3z"/>
<path d="M2252 2894 c-7 -8 -8 -14 -3 -14 5 0 11 -19 13 -42 2 -34 7 -43 23
-46 18 -2 18 -2 3 8 -12 7 -18 23 -18 45 0 26 4 35 18 36 13 0 14 2 2 6 -8 3
-17 9 -20 13 -3 4 -11 2 -18 -6z"/>
<path d="M2659 2898 c-5 -61 8 -108 29 -107 11 0 12 3 5 6 -16 6 -17 83 -2 83
6 0 4 7 -5 15 -18 18 -26 19 -27 3z"/>
<path d="M2898 2900 c-2 -7 -1 -33 2 -58 4 -37 9 -47 25 -50 18 -2 18 -2 3 8
-12 7 -18 23 -18 45 0 26 4 35 18 36 13 0 14 2 2 6 -8 3 -18 10 -21 16 -4 5
-8 4 -11 -3z"/>
<path d="M1252 2878 c-16 -16 -15 -63 1 -77 8 -6 30 -10 50 -9 l37 1 0 47 0
47 -38 1 c-21 1 -44 -4 -50 -10z m66 -35 c2 -25 -1 -33 -18 -38 -39 -12 -67
34 -38 63 23 23 53 10 56 -25z"/>
<path d="M1372 2835 c1 -43 2 -45 5 -13 3 23 12 43 24 52 20 14 20 14 -5 12
-25 -1 -26 -4 -24 -51z"/>
<path d="M1560 2869 c-27 -49 31 -106 66 -65 8 9 9 11 2 6 -19 -16 -46 -11
-58 10 -22 40 26 80 58 48 8 -8 12 -8 12 -1 0 28 -65 30 -80 2z"/>
<path d="M1674 2869 c-17 -19 -17 -23 -3 -47 27 -49 89 -37 89 17 0 51 -51 69
-86 30z m70 -11 c15 -25 -4 -53 -35 -53 -25 0 -37 30 -25 61 8 20 46 14 60 -8z"/>
<path d="M1791 2835 c1 -27 3 -39 6 -25 10 65 13 71 36 68 18 -2 23 -10 25
-45 2 -24 7 -43 13 -43 12 0 12 42 -1 75 -8 22 -15 25 -45 23 l-35 -2 1 -51z"/>
<path d="M1912 2836 l1 -51 6 45 c5 40 9 45 31 45 22 0 26 -5 31 -45 l7 -45
-2 50 -1 50 -37 1 -38 1 2 -51z"/>
<path d="M2032 2878 c-7 -7 -12 -24 -12 -38 0 -14 5 -31 12 -38 17 -17 53 -15
69 5 13 15 12 15 -9 2 -15 -10 -27 -11 -38 -4 -27 17 -20 30 19 33 38 3 47 18
25 40 -7 7 -21 12 -33 12 -12 0 -26 -5 -33 -12z m66 -15 c2 -9 -8 -13 -33 -13
-33 0 -36 2 -25 15 15 18 51 16 58 -2z"/>
<path d="M2147 2869 c-26 -36 1 -84 44 -77 12 2 24 9 27 16 3 11 0 11 -16 1
-29 -18 -52 -5 -52 31 0 35 23 49 51 32 26 -16 34 -15 19 3 -18 21 -56 19 -73
-6z"/>
<path d="M2323 2840 c0 -30 2 -43 4 -27 2 15 2 39 0 55 -2 15 -4 2 -4 -28z"/>
<path d="M2372 2836 l1 -51 6 45 c5 40 9 45 31 45 22 0 26 -5 31 -45 l7 -45
-2 50 -1 50 -37 1 -38 1 2 -51z"/>
<path d="M2492 2878 c-17 -17 -15 -63 3 -78 9 -7 27 -10 45 -6 33 6 37 -1 16
-29 -12 -17 -18 -18 -40 -7 -14 6 -26 8 -26 3 0 -5 7 -12 16 -15 50 -19 74 8
74 82 l0 57 -38 3 c-21 1 -43 -3 -50 -10z m68 -18 c14 -26 -3 -60 -31 -60 -27
0 -47 44 -29 65 18 21 47 19 60 -5z"/>
<path d="M2736 2875 c-34 -34 -6 -89 43 -83 31 4 52 49 35 76 -15 23 -58 27
-78 7z m68 -17 c15 -25 -4 -53 -35 -53 -25 0 -37 30 -25 61 8 20 46 14 60 -8z"/>
<path d="M3092 2878 c-7 -7 -12 -24 -12 -38 0 -14 5 -31 12 -38 17 -17 53 -15
68 3 15 18 7 19 -19 3 -15 -9 -23 -9 -35 1 -26 22 -19 31 24 31 26 0 40 5 40
13 0 19 -21 37 -45 37 -12 0 -26 -5 -33 -12z m58 -13 c11 -13 7 -15 -25 -15
-32 0 -36 2 -25 15 7 8 18 15 25 15 7 0 18 -7 25 -15z"/>
<path d="M3241 2878 c1 -26 26 -83 35 -81 4 1 13 19 19 40 l12 38 13 -42 c7
-24 17 -43 21 -43 5 0 13 19 20 43 6 23 13 45 16 50 2 4 0 7 -6 7 -5 0 -12
-18 -16 -40 -8 -47 -20 -45 -29 5 -9 47 -21 44 -39 -7 l-14 -43 -12 43 c-11
40 -22 56 -20 30z"/>
<path d="M3404 2865 c-15 -23 -15 -27 0 -50 29 -44 86 -28 86 25 0 53 -57 69
-86 25z m70 -7 c15 -25 -4 -53 -35 -53 -25 0 -37 30 -25 61 8 20 46 14 60 -8z"/>
<path d="M3522 2835 c1 -40 2 -43 5 -15 3 19 11 43 20 52 14 15 13 17 -6 15
-19 -1 -21 -7 -19 -52z"/>
<path d="M8640 2590 c0 -17 -5 -19 -25 -14 -33 8 -55 -11 -55 -46 0 -36 18
-50 63 -48 l37 1 0 64 c0 35 -4 63 -10 63 -5 0 -10 -9 -10 -20z m-10 -45 c17
-20 5 -45 -20 -45 -11 0 -23 7 -26 15 -6 15 11 45 26 45 4 0 13 -7 20 -15z"/>
<path d="M7840 2540 c0 -33 4 -60 10 -60 6 0 10 11 10 25 0 18 5 25 20 25 26
0 26 16 -1 23 -29 8 -19 31 17 38 25 6 24 7 -13 8 l-43 1 0 -60z"/>
<path d="M8177 2586 c-3 -8 -4 -22 -2 -33 14 -69 16 -73 35 -73 11 0 20 5 20
10 0 6 -4 10 -10 10 -15 0 -12 58 2 62 9 3 8 9 -4 21 -20 21 -34 22 -41 3z"/>
<path d="M7945 2560 c-28 -31 -10 -74 31 -78 19 -2 36 3 44 13 12 15 10 16
-23 10 -25 -5 -37 -4 -37 4 0 6 16 11 35 11 27 0 35 4 35 18 0 43 -54 56 -85
22z m60 -10 c4 -6 -5 -10 -20 -10 -15 0 -24 4 -20 10 3 6 12 10 20 10 8 0 17
-4 20 -10z"/>
<path d="M8061 2567 c-15 -15 -14 -62 2 -76 8 -6 30 -10 50 -9 l37 1 0 46 0
47 -39 1 c-21 1 -43 -3 -50 -10z m59 -22 c17 -20 5 -45 -20 -45 -11 0 -23 7
-26 15 -6 15 11 45 26 45 4 0 13 -7 20 -15z"/>
<path d="M8250 2546 c0 -57 7 -66 57 -66 l44 0 -3 47 c-4 60 -28 72 -28 14 0
-34 -3 -41 -19 -41 -21 0 -31 19 -31 56 0 13 -4 24 -10 24 -5 0 -10 -15 -10
-34z"/>
<path d="M8375 2572 c-3 -3 -5 -25 -5 -49 0 -32 4 -43 15 -43 10 0 15 11 15
35 0 24 5 35 15 35 8 0 15 6 15 14 0 13 -43 20 -55 8z"/>
<path d="M8454 2555 c-24 -37 -6 -75 35 -75 16 0 34 7 41 15 10 12 10 15 -3
15 -9 0 -18 -4 -22 -10 -7 -11 -35 -2 -35 11 0 5 16 9 35 9 27 0 35 4 35 18 0
46 -60 57 -86 17z m61 -5 c4 -6 -5 -10 -20 -10 -15 0 -24 4 -20 10 3 6 12 10
20 10 8 0 17 -4 20 -10z"/>
<path d="M3963 2326 l-28 -24 -3 -316 -3 -317 30 -29 29 -30 1229 0 c949 1
1232 3 1244 13 37 28 39 50 39 361 l0 304 -26 31 -26 31 -1228 0 -1229 0 -28
-24z m392 -217 c133 -76 191 -113 193 -127 2 -15 -11 -28 -54 -52 l-57 -32
-41 41 -42 41 -114 -115 c-62 -63 -117 -115 -122 -115 -13 0 -10 454 3 467 15
15 16 15 234 -108z m458 115 c13 -13 -5 -24 -22 -15 -13 7 -24 6 -39 -5 -40
-28 -19 -79 29 -72 30 4 37 28 9 28 -12 0 -18 5 -15 10 3 6 17 10 31 10 19 0
24 -5 24 -25 0 -33 -39 -53 -78 -39 -63 22 -46 114 22 114 18 0 36 -3 39 -6z
m107 -4 c0 -5 -11 -10 -25 -10 -16 0 -25 -6 -25 -15 0 -8 9 -15 20 -15 11 0
20 -4 20 -10 0 -5 -9 -10 -20 -10 -11 0 -20 -7 -20 -15 0 -9 9 -15 25 -15 14
0 25 -4 25 -10 0 -5 -16 -10 -35 -10 l-35 0 0 60 0 60 35 0 c19 0 35 -4 35
-10z m95 0 c-3 -5 -13 -10 -21 -10 -10 0 -14 -13 -14 -51 0 -31 -4 -48 -10
-44 -5 3 -10 26 -10 51 0 32 -4 44 -15 44 -8 0 -15 5 -15 10 0 6 21 10 46 10
27 0 43 -4 39 -10z m75 -50 c0 -33 -4 -60 -10 -60 -6 0 -10 27 -10 60 0 33 4
60 10 60 6 0 10 -27 10 -60z m95 50 c-3 -5 -13 -10 -21 -10 -10 0 -14 -13 -14
-51 0 -31 -4 -48 -10 -44 -5 3 -10 26 -10 51 0 32 -4 44 -15 44 -8 0 -15 5
-15 10 0 6 21 10 46 10 27 0 43 -4 39 -10z m147 -7 c39 -35 11 -103 -43 -103
-30 0 -59 31 -59 64 0 48 64 73 102 39z m81 -20 l22 -38 3 38 c5 60 22 43 22
-23 0 -33 -4 -60 -9 -60 -5 0 -21 19 -35 43 l-25 42 -1 -37 c0 -20 -4 -40 -10
-43 -6 -4 -10 17 -10 54 0 35 4 61 10 61 6 0 21 -17 33 -37z m-527 -168 c37
-15 43 -43 8 -37 -79 15 -89 14 -117 -12 -37 -34 -38 -96 -2 -131 33 -34 87
-34 121 0 31 32 24 45 -21 38 -31 -5 -35 -3 -35 16 0 20 4 22 58 19 57 -3 57
-3 54 -33 -10 -98 -126 -136 -204 -66 -62 56 -43 172 35 206 41 18 60 18 103
0z m654 -115 c0 -96 -3 -120 -14 -120 -21 0 -26 23 -26 113 0 95 7 127 26 127
11 0 14 -24 14 -120z m384 99 c18 -14 26 -30 26 -53 0 -49 -20 -69 -76 -75
l-49 -6 -3 -42 c-2 -29 -8 -43 -18 -43 -11 0 -14 22 -14 120 l0 120 54 0 c39
0 60 -6 80 -21z m86 -99 c0 -113 -1 -120 -20 -120 -19 0 -20 7 -20 120 0 113
1 120 20 120 19 0 20 -7 20 -120z m-927 28 c42 -22 58 -67 41 -113 -18 -46
-109 -54 -139 -12 -50 72 23 165 98 125z m205 -20 c24 -24 29 -73 9 -99 -32
-42 -90 -47 -129 -12 -20 18 -24 73 -7 104 22 43 84 46 127 7z m170 22 c21 0
22 -3 22 -92 0 -80 -3 -95 -22 -115 -28 -30 -80 -31 -109 -2 -20 20 -20 23 -5
31 11 6 21 4 32 -6 25 -26 54 -18 67 17 6 16 2 17 -26 12 -62 -12 -112 55 -85
113 15 31 55 54 83 47 11 -2 30 -5 43 -5z m235 -22 c9 -11 17 -23 17 -27 0 -4
-25 -18 -55 -30 -64 -27 -63 -46 1 -37 47 6 63 -4 38 -25 -28 -23 -93 -17
-115 10 -21 26 -25 72 -8 102 22 42 89 46 122 7z m451 11 c23 -18 26 -28 26
-80 0 -57 -1 -60 -22 -58 -13 1 -32 -2 -42 -6 -28 -12 -70 15 -74 47 -4 31 29
58 71 58 17 0 26 4 22 11 -4 5 -23 9 -43 7 -44 -4 -55 12 -21 29 34 18 52 16
83 -8z m89 -40 l22 -51 19 51 c13 37 23 51 37 51 10 0 19 -3 19 -6 0 -18 -85
-201 -98 -211 -24 -20 -33 -4 -17 27 20 39 19 48 -15 124 -28 62 -28 66 -9 66
14 0 26 -14 42 -51z"/>
<path d="M5268 2209 c-22 -12 -23 -52 -4 -69 8 -6 25 -10 38 -8 30 4 38 56 12
75 -21 15 -24 15 -46 2z"/>
<path d="M5822 1953 c3 -34 6 -38 34 -41 41 -4 71 27 54 57 -8 16 -20 21 -51
21 l-40 0 3 -37z"/>
<path d="M5009 1889 c-8 -16 -8 -28 0 -46 9 -20 17 -24 44 -21 27 2 33 8 35
31 2 16 -2 35 -9 43 -17 21 -57 17 -70 -7z"/>
<path d="M5189 1889 c-16 -30 3 -69 34 -69 29 0 47 17 47 45 0 45 -60 63 -81
24z"/>
<path d="M5368 1884 c-16 -34 0 -59 37 -59 37 0 53 25 37 59 -8 18 -19 26 -37
26 -18 0 -29 -8 -37 -26z"/>
<path d="M5607 1903 c-4 -3 -7 -12 -7 -19 0 -10 7 -11 30 -3 17 6 30 15 30 20
0 10 -43 12 -53 2z"/>
<path d="M6077 1853 c-17 -17 -6 -34 20 -31 36 4 45 38 10 38 -13 0 -27 -3
-30 -7z"/>
<path d="M2368 2332 l-1217 -2 -20 -26 c-20 -26 -21 -38 -21 -341 l0 -315 29
-29 30 -29 1231 2 1232 3 24 29 25 28 -3 319 c-3 303 -4 319 -23 338 -11 10
-31 20 -45 22 -14 2 -573 3 -1242 1z m-728 -126 c0 -34 -46 -86 -76 -86 -13 0
-24 5 -24 10 0 24 32 70 58 84 37 21 42 20 42 -8z m378 -2 c15 -10 22 -25 22
-46 0 -42 -25 -68 -67 -68 l-33 0 0 65 c0 64 0 65 28 65 15 0 38 -7 50 -16z
m442 -49 c0 -37 -4 -65 -10 -65 -6 0 -10 28 -10 65 0 37 4 65 10 65 6 0 10
-28 10 -65z m330 0 l0 -65 -35 0 c-28 0 -36 4 -41 24 -9 38 4 66 32 66 17 0
24 5 24 20 0 11 5 20 10 20 6 0 10 -28 10 -65z m470 41 c0 -20 4 -23 21 -19
26 7 39 -11 39 -54 0 -43 -18 -43 -22 -1 -2 22 -9 34 -20 36 -15 3 -18 -4 -18
-32 0 -20 -4 -36 -10 -36 -6 0 -10 28 -10 65 0 37 4 65 10 65 6 0 10 -11 10
-24z m-64 -11 c9 -8 11 -15 5 -15 -15 0 -14 -53 2 -69 10 -10 8 -12 -8 -9 -14
2 -21 14 -26 43 -6 37 -3 65 8 65 2 0 11 -7 19 -15z m-1048 -38 c4 -36 -15
-59 -46 -55 -29 4 -43 33 -31 66 7 19 15 23 41 20 28 -2 34 -8 36 -31z m52 8
c0 -14 4 -25 9 -25 5 0 12 11 15 25 9 35 24 31 35 -7 l9 -33 7 33 c4 17 11 32
16 32 12 0 11 -5 -3 -51 -13 -46 -24 -49 -39 -11 l-11 27 -10 -27 c-16 -46
-32 -37 -43 25 -5 25 -4 37 4 37 6 0 11 -11 11 -25z m208 -22 c2 -26 -1 -43
-7 -43 -6 0 -11 16 -11 35 0 28 -4 35 -20 35 -16 0 -20 -7 -20 -35 0 -19 -4
-35 -10 -35 -5 0 -10 21 -10 46 l0 45 38 -3 c36 -3 37 -4 40 -45z m168 20 c9
-35 -7 -58 -41 -58 -32 0 -47 27 -34 63 6 16 16 22 38 22 25 0 32 -5 37 -27z
m102 -20 l3 -43 -35 0 c-32 0 -36 3 -36 25 0 18 7 26 25 31 14 3 22 10 19 16
-3 5 -12 7 -20 4 -7 -3 -16 -1 -20 5 -4 7 6 9 27 7 32 -3 34 -5 37 -45z m283
26 c16 -30 -3 -69 -34 -69 -29 0 -47 17 -47 45 0 45 60 63 81 24z m109 2 c15
-29 13 -71 -4 -71 -10 0 -16 13 -18 38 -2 20 -7 37 -13 37 -5 0 -11 -17 -13
-37 -4 -52 -22 -48 -22 5 0 40 2 43 30 45 20 2 32 -4 40 -17z m348 7 c21 -21
13 -38 -18 -38 -16 0 -30 -4 -30 -9 0 -12 29 -23 41 -15 5 3 9 0 9 -5 0 -12
-29 -14 -54 -5 -16 6 -21 39 -10 68 7 19 45 21 62 4z m-1873 -70 c17 0 50 3
75 7 36 5 52 2 78 -15 l33 -21 -25 -30 c-37 -44 -35 -98 4 -143 35 -40 32 -60
-20 -120 -34 -38 -58 -44 -106 -26 -20 8 -41 7 -75 -1 -60 -16 -83 -2 -121 68
-54 99 -57 196 -6 250 32 34 57 44 98 36 19 -3 49 -6 65 -5z m539 -215 c21
-65 41 -124 44 -131 3 -10 -2 -13 -19 -10 -17 2 -27 13 -35 38 -10 32 -16 35
-52 38 -40 3 -41 2 -53 -37 -9 -29 -18 -41 -31 -41 -10 0 -18 5 -18 10 0 6 17
65 37 130 35 112 39 120 63 120 24 0 28 -8 64 -117z m691 97 c0 -11 -9 -14
-33 -12 -72 7 -84 -45 -17 -77 24 -11 49 -29 55 -40 30 -57 -11 -111 -84 -111
-49 0 -69 11 -61 33 5 13 12 14 37 5 21 -8 37 -7 54 1 39 18 28 51 -26 79 -53
28 -60 37 -60 79 0 43 31 65 90 61 32 -2 45 -7 45 -18z m105 -29 c0 -12 8 -21
22 -23 30 -4 34 -26 6 -30 -21 -3 -23 -9 -26 -61 -3 -52 -1 -59 17 -64 32 -8
26 -33 -9 -33 -38 0 -50 23 -50 99 0 48 -3 61 -15 61 -8 0 -15 7 -15 15 0 8 6
15 14 15 7 0 16 9 19 20 7 26 37 26 37 1z m-677 -33 c4 -10 7 -10 18 0 22 20
68 14 94 -13 36 -35 35 -106 -1 -142 -21 -21 -32 -25 -65 -20 l-39 5 0 -39 c0
-35 -3 -39 -25 -39 l-25 0 0 130 c0 121 1 130 19 130 11 0 21 -6 24 -12z m210
0 c4 -10 7 -10 18 0 7 6 28 12 45 12 70 0 103 -112 48 -167 -21 -21 -32 -25
-65 -20 l-39 5 0 -39 c0 -32 -3 -39 -20 -39 -19 0 -20 7 -20 130 0 105 3 130
14 130 8 0 16 -6 19 -12z m678 -1 c45 -35 51 -101 13 -146 -53 -63 -154 -26
-154 56 0 38 15 71 39 90 21 16 81 16 102 0z m109 -4 c0 -15 1 -15 18 0 10 10
24 17 30 17 21 0 13 -35 -10 -45 -20 -9 -24 -20 -28 -75 -4 -50 -9 -66 -22
-68 -14 -3 -17 9 -20 85 -2 48 -2 91 0 96 6 14 32 7 32 -10z m210 7 c20 -11
45 -74 35 -90 -3 -5 -33 -10 -66 -10 -63 0 -71 -6 -39 -35 14 -13 29 -16 54
-12 24 4 36 1 40 -8 12 -31 -89 -35 -122 -5 -78 73 5 210 98 160z"/>
<path d="M1960 2150 c0 -54 4 -58 38 -34 37 26 24 84 -20 84 -15 0 -18 -9 -18
-50z"/>
<path d="M2743 2163 c-18 -6 -16 -50 1 -56 18 -7 26 1 26 29 0 25 -9 34 -27
27z"/>
<path d="M2094 2156 c-9 -23 0 -51 16 -51 10 0 15 10 15 29 0 32 -21 47 -31
22z"/>
<path d="M2521 2152 c-13 -25 11 -63 29 -46 14 14 9 56 -7 61 -6 2 -16 -4 -22
-15z"/>
<path d="M2630 2114 c0 -9 5 -14 12 -12 18 6 21 28 4 28 -9 0 -16 -7 -16 -16z"/>
<path d="M2907 2163 c-11 -11 -8 -51 5 -59 18 -11 39 25 27 47 -10 20 -21 24
-32 12z"/>
<path d="M3375 2161 c-7 -12 12 -24 25 -16 11 7 4 25 -10 25 -5 0 -11 -4 -15
-9z"/>
<path d="M2002 1901 c-16 -52 -16 -51 18 -51 17 0 30 3 30 6 0 17 -24 84 -30
84 -4 0 -12 -17 -18 -39z"/>
<path d="M2228 1889 c-21 -12 -25 -88 -6 -107 19 -19 45 -14 62 10 22 31 20
64 -4 88 -23 23 -28 24 -52 9z"/>
<path d="M2436 1884 c-19 -18 -21 -85 -4 -102 17 -17 44 -15 62 4 22 21 20 77
-2 97 -23 21 -36 21 -56 1z"/>
<path d="M3006 1878 c-9 -12 -16 -32 -16 -43 0 -29 28 -65 49 -65 27 0 45 27
45 65 0 61 -48 87 -78 43z"/>
<path d="M3330 1881 c-15 -29 -13 -31 28 -31 46 0 55 6 41 31 -13 25 -55 24
-69 0z"/>
<path d="M7990 2182 c0 -12 37 -44 100 -84 199 -128 191 -128 265 -13 30 47
55 89 55 95 0 25 -21 4 -74 -75 -31 -47 -61 -85 -67 -85 -10 0 -221 132 -250
156 -18 16 -29 18 -29 6z"/>
<path d="M8275 2170 c-20 -22 -15 -44 13 -59 17 -9 23 -5 45 28 14 21 23 42
20 45 -14 13 -61 5 -78 -14z"/>
<path d="M9668 2183 c-57 -4 -58 -4 -98 -60 -22 -31 -40 -59 -40 -63 0 -4 53
-42 118 -85 64 -43 158 -107 209 -143 l91 -65 -21 -33 c-12 -19 -29 -34 -37
-34 -12 0 -13 2 -1 9 7 5 11 13 7 19 -3 6 0 12 6 15 7 2 -1 6 -19 9 -18 2 -30
1 -27 -4 3 -4 -2 -8 -11 -8 -9 0 -14 -4 -11 -8 10 -16 -54 -54 -79 -48 -28 7
-55 -2 -55 -18 0 -6 -9 -22 -20 -36 -59 -75 -53 -71 -74 -55 -17 13 -18 17 -5
32 8 10 21 32 29 48 8 17 21 36 28 43 17 19 -5 39 -52 47 -45 9 -48 23 -3 18
31 -3 31 -3 7 7 -14 6 -30 18 -37 27 -11 14 -13 14 -28 0 -9 -9 -16 -19 -15
-22 0 -8 -10 -6 -12 3 0 4 -8 12 -17 19 -14 10 -13 11 6 6 31 -7 42 23 17 42
-18 13 -17 14 14 15 65 0 47 47 -35 91 -33 18 -50 -6 -25 -35 16 -18 16 -19
-10 -14 -18 3 -33 -1 -43 -12 -15 -16 -14 -20 15 -42 26 -20 27 -24 10 -24
-11 0 -22 8 -25 16 -3 9 -12 17 -20 17 -8 0 -12 -4 -9 -9 3 -4 0 -8 -5 -8 -6
0 -11 -7 -11 -16 0 -8 -4 -13 -9 -10 -4 3 -7 -10 -4 -28 3 -30 0 -34 -24 -39
-32 -6 -77 9 -68 23 3 5 1 18 -4 27 -6 10 -11 13 -11 7 0 -7 -7 -15 -16 -18
-12 -5 -15 -2 -11 13 4 18 3 18 -33 -1 -37 -20 -39 -20 -84 -3 -45 17 -46 19
-44 55 2 21 6 36 10 34 4 -3 12 5 19 17 l11 22 -30 -22 c-17 -12 -50 -44 -74
-72 -34 -40 -47 -49 -65 -44 -26 6 -28 3 -10 -26 10 -17 9 -22 -3 -32 -8 -7
-21 -24 -27 -40 -18 -40 -55 -54 -88 -33 -40 26 -51 58 -30 90 10 14 24 26 32
26 8 0 12 4 9 9 -13 20 6 41 30 35 26 -7 31 5 12 24 -10 10 -10 17 0 33 18 29
4 44 -18 19 -16 -18 -22 -20 -40 -10 -16 9 -25 8 -36 0 -7 -7 -23 -10 -34 -7
-13 3 -24 -1 -30 -14 -14 -26 -50 -25 -50 1 0 11 5 20 10 20 6 0 10 5 10 11 0
5 -8 9 -17 8 -24 -3 -54 11 -47 22 3 5 -1 10 -8 10 -7 1 -17 2 -23 4 -5 1 -15
3 -22 3 -15 2 -10 38 11 82 l16 35 -22 -30 c-13 -16 -37 -44 -54 -60 -17 -17
-34 -43 -38 -58 -3 -15 -13 -27 -21 -27 -17 0 -44 -38 -50 -70 -2 -13 -12 -31
-21 -41 -9 -10 -14 -25 -11 -32 3 -8 49 -43 101 -78 53 -34 96 -68 96 -74 0
-6 11 -17 24 -25 27 -14 50 -58 44 -87 -3 -16 -13 -18 -78 -17 -72 0 -78 2
-157 52 -237 149 -285 184 -280 203 7 28 -1 24 -54 -26 -72 -67 -78 -62 -46
33 10 28 8 35 -8 50 -17 15 -17 15 -6 0 16 -21 13 -26 -96 -184 l-83 -122 0
-231 0 -232 25 -24 c32 -33 72 -33 85 -1 4 13 21 33 36 45 26 21 33 21 443 21
457 0 444 2 476 -61 l16 -29 515 0 515 0 24 25 25 24 0 487 0 486 -30 28 c-37
34 -38 65 -5 114 14 21 23 42 20 47 -11 17 -31 9 -47 -18 -31 -52 -57 -73 -92
-73 -41 0 -67 27 -75 77 -7 41 -7 41 -93 36z m-672 -529 c73 -35 81 -118 16
-175 -30 -26 -41 -30 -71 -25 -20 3 -48 18 -64 35 -53 52 -33 142 38 171 30
13 43 12 81 -6z m-356 -24 c8 -5 12 -12 9 -15 -8 -8 -39 5 -39 16 0 11 11 11
30 -1z m964 -78 c7 -11 -5 -27 -30 -40 -16 -9 -21 -8 -21 4 0 7 7 14 15 14 8
0 12 6 8 15 -6 16 19 22 28 7z m-1394 -374 c-15 -64 -34 -100 -26 -49 10 57
27 113 33 108 3 -3 0 -30 -7 -59z m413 -6 c-7 -47 -11 -51 -29 -28 -18 26 -18
42 1 26 13 -11 15 -8 15 19 0 18 4 30 9 26 5 -3 7 -22 4 -43z m67 38 c0 -5 -7
-10 -15 -10 -21 0 -19 -20 3 -20 16 -1 16 -1 0 -14 -10 -7 -18 -16 -18 -19 0
-3 8 -8 18 -10 10 -3 6 -5 -10 -6 -27 -1 -28 1 -28 44 0 41 2 45 25 45 14 0
25 -4 25 -10z m-702 -73 c12 -3 11 -5 -5 -6 -21 -1 -23 3 -21 42 l1 42 4 -37
c3 -24 10 -38 21 -41z m42 39 c0 -24 5 -36 18 -39 10 -3 6 -5 -10 -6 -26 -1
-28 2 -28 39 0 22 5 40 10 40 6 0 10 -15 10 -34z m71 2 l15 -31 13 31 c19 44
31 40 30 -10 -1 -27 -3 -34 -6 -19 l-5 25 -18 -24 -18 -23 -13 24 -13 24 -7
-25 c-6 -20 -7 -17 -8 18 -1 50 10 54 30 10z m159 -3 c0 -43 27 -49 36 -7 10
46 12 48 13 10 1 -42 -21 -63 -51 -47 -19 10 -26 79 -8 79 6 0 10 -16 10 -35z
m135 26 c3 -6 -7 -9 -22 -8 -24 2 -28 -2 -28 -23 0 -18 6 -26 23 -28 26 -4 30
14 5 21 -11 3 -7 5 10 6 29 1 30 0 21 -23 -8 -21 -57 -21 -74 -1 -20 24 3 65
34 65 14 0 27 -4 31 -9z m100 -1 c4 -7 -2 -9 -17 -5 -29 7 -51 -14 -42 -40 5
-13 14 -15 36 -11 18 3 27 2 23 -4 -3 -6 -19 -10 -35 -10 -23 0 -31 5 -36 25
-4 15 -1 32 6 40 14 17 56 20 65 5z m79 -8 c-1 -7 -2 -23 -2 -37 -3 -42 -22
-28 -22 16 0 28 4 39 13 37 6 -3 12 -10 11 -16z m184 -51 c6 -1 12 -5 12 -9 0
-5 -10 -8 -22 -6 -13 1 -29 3 -36 3 -7 1 -11 5 -8 10 4 5 14 8 24 6 9 -2 23
-4 30 -4z m926 -36 c-4 -8 -10 -15 -14 -15 -4 0 -10 7 -14 15 -4 10 1 15 14
15 13 0 18 -5 14 -15z"/>
<path d="M8899 1611 c-31 -32 -35 -50 -17 -84 27 -52 83 -62 123 -22 40 40 30
96 -22 123 -34 18 -52 14 -84 -17z m91 -52 c0 -4 -13 -17 -30 -29 l-30 -21 0
51 0 51 30 -23 c17 -12 30 -25 30 -29z"/>
<path d="M9811 2183 c-42 -4 -43 -5 -37 -35 16 -79 69 -77 103 4 12 27 8 39
-11 36 -6 -1 -31 -3 -55 -5z"/>
<path d="M8198 2173 c7 -3 16 -2 19 1 4 3 -2 6 -13 5 -11 0 -14 -3 -6 -6z"/>
<path d="M8663 1913 c9 -2 23 -2 30 0 6 3 -1 5 -18 5 -16 0 -22 -2 -12 -5z"/>
<path d="M8897 1894 c-8 -8 1 -24 14 -24 5 0 9 7 9 15 0 15 -12 20 -23 9z"/>
<path d="M9831 1814 c0 -11 3 -14 6 -6 3 7 2 16 -1 19 -3 4 -6 -2 -5 -13z"/>
<path d="M9810 1800 c-2 -8 -2 -19 -1 -23 1 -5 -3 -6 -9 -2 -12 8 -23 -17 -18
-42 3 -15 7 -13 24 12 15 21 19 36 13 50 -5 14 -8 16 -9 5z"/>
<path d="M8840 1745 c0 -8 -4 -15 -10 -15 -16 0 -11 -30 6 -37 11 -4 23 2 34
17 17 22 17 25 2 37 -23 17 -32 16 -32 -2z"/>
<path d="M11241 1674 c-13 -30 -7 -44 11 -26 7 7 26 12 43 12 l30 0 -25 20
c-33 26 -45 25 -59 -6z"/>
<path d="M11246 1609 c-30 -35 -32 -49 -11 -88 15 -31 33 -41 70 -41 37 0 55
10 71 41 18 36 10 73 -23 99 -38 30 -76 26 -107 -11z m74 -29 l25 -20 -24 -20
c-34 -29 -41 -25 -41 20 0 45 5 48 40 20z"/>
<path d="M8015 985 c-17 -16 -25 -35 -25 -60 0 -38 16 -49 22 -14 2 11 15 28
30 37 34 20 77 8 94 -26 9 -19 13 -20 17 -7 9 22 -8 60 -35 79 -33 23 -75 20
-103 -9z"/>
<path d="M10365 985 c-26 -25 -34 -78 -15 -90 6 -3 10 3 10 13 0 23 40 52 71
52 11 0 34 -14 50 -31 26 -28 29 -29 29 -11 0 79 -92 121 -145 67z"/>
<path d="M8652 940 c0 -19 2 -27 5 -17 2 9 2 25 0 35 -3 9 -5 1 -5 -18z"/>
<path d="M10414 936 c-4 -10 -2 -22 4 -28 8 -8 13 -7 18 6 4 10 2 22 -4 28 -8
8 -13 7 -18 -6z"/>
<path d="M8060 926 c0 -22 17 -28 24 -10 9 22 8 24 -9 24 -8 0 -15 -6 -15 -14z"/>
<path d="M8029 889 c-13 -24 1 -39 36 -39 18 0 18 1 -2 15 -13 9 -20 22 -17
30 9 23 -4 18 -17 -6z"/>
<path d="M10383 890 c-12 -28 -2 -40 31 -40 18 0 18 1 4 13 -9 6 -18 21 -21
32 -4 18 -5 18 -14 -5z"/>
<path d="M8096 874 c-9 -23 -2 -28 13 -10 7 8 8 17 3 20 -6 3 -13 -1 -16 -10z"/>
<path d="M10446 864 c-5 -14 -4 -15 9 -4 17 14 19 20 6 20 -5 0 -12 -7 -15
-16z"/>
<path d="M7840 325 c0 -37 4 -65 10 -65 6 0 10 18 10 40 0 22 3 40 8 40 4 0
18 -18 32 -40 37 -59 50 -52 50 25 0 37 -4 65 -10 65 -5 0 -10 -18 -10 -40 0
-22 -3 -40 -8 -40 -4 0 -18 18 -32 40 -37 59 -50 52 -50 -25z"/>
<path d="M8303 354 c-15 -23 -15 -29 -2 -52 8 -14 20 -27 28 -30 7 -2 4 5 -8
17 -26 26 -27 45 -1 71 11 11 16 20 10 20 -5 0 -17 -12 -27 -26z"/>
<path d="M8360 376 c0 -2 7 -7 16 -10 8 -3 12 -2 9 4 -6 10 -25 14 -25 6z"/>
<path d="M7980 339 c-25 -45 18 -94 65 -75 28 10 16 26 -15 20 -19 -4 -30 -2
-30 5 0 6 16 11 35 11 27 0 35 4 35 18 0 43 -70 60 -90 21z m60 -9 c0 -5 -9
-10 -20 -10 -11 0 -20 5 -20 10 0 6 9 10 20 10 11 0 20 -4 20 -10z"/>
<path d="M8095 313 c8 -27 15 -49 15 -50 0 -2 6 -3 14 -3 8 0 18 15 22 33 l7
32 14 -32 c21 -52 37 -41 57 40 4 16 2 27 -4 27 -6 0 -13 -13 -16 -30 -4 -16
-10 -30 -14 -30 -4 0 -10 14 -13 30 -9 42 -33 38 -43 -7 l-8 -38 -10 38 c-5
20 -15 37 -22 37 -10 0 -10 -10 1 -47z"/>
<path d="M8445 339 c-4 -6 -5 -12 -2 -15 2 -3 7 2 10 11 7 17 1 20 -8 4z"/>
</g>
</svg>
