<svg width="213" height="26" viewBox="0 0 213 26" fill="none" xmlns="http://www.w3.org/2000/svg">
<path d="M10.264 5.424C10.2853 5.46667 10.296 5.50933 10.296 5.552C10.296 5.57333 10.3067 5.60533 10.328 5.648C10.3707 5.73333 10.36 5.81867 10.296 5.904C10.232 5.98933 10.168 6.01067 10.104 5.968C9.89067 5.92533 9.67733 5.86133 9.464 5.776C9.25067 5.66933 9.03733 5.57333 8.824 5.488C8.61067 5.40267 8.39733 5.33867 8.184 5.296C7.97067 5.25333 7.768 5.264 7.576 5.328C7.14933 5.456 6.70133 5.65867 6.232 5.936C5.784 6.21333 5.336 6.56533 4.888 6.992C4.46133 7.39733 4.056 7.87733 3.672 8.432C3.30933 8.98667 3 9.60533 2.744 10.288C2.424 11.2267 2.328 12.112 2.456 12.944C2.584 13.7547 2.872 14.4373 3.32 14.992C3.78933 15.5467 4.38667 15.952 5.112 16.208C5.85867 16.4427 6.70133 16.464 7.64 16.272C8.32267 16.1227 8.97333 15.8773 9.592 15.536C10.2107 15.1947 10.7867 14.8427 11.32 14.48C11.2133 14.6507 11.1173 14.8 11.032 14.928C10.9467 15.056 10.8187 15.2053 10.648 15.376C10.5413 15.4827 10.4347 15.632 10.328 15.824C10.2213 15.9947 10.1147 16.1333 10.008 16.24C9.26133 17.0507 8.35467 17.6373 7.288 18C7.05333 18.0853 6.85067 18.128 6.68 18.128C6.50933 18.1493 6.30667 18.1813 6.072 18.224C5.73067 18.224 5.38933 18.2347 5.048 18.256C4.70667 18.2773 4.376 18.2347 4.056 18.128C3.11733 17.808 2.31733 17.1893 1.656 16.272C1.35733 15.8667 1.10133 15.376 0.888 14.8C0.696 14.2027 0.568 13.584 0.504 12.944C0.461333 12.2827 0.482667 11.632 0.568 10.992C0.653333 10.352 0.834667 9.75467 1.112 9.2C1.688 7.96267 2.37067 6.85333 3.16 5.872C3.97067 4.89067 4.93067 4.208 6.04 3.824C6.78667 3.54667 7.68267 3.52533 8.728 3.76C8.984 3.86667 9.272 4.08 9.592 4.4C9.69867 4.50667 9.80533 4.61333 9.912 4.72C10.0187 4.82667 10.1253 4.976 10.232 5.168C10.2533 5.21067 10.2533 5.25333 10.232 5.296C10.232 5.33867 10.2427 5.38133 10.264 5.424ZM15.9955 11.824C16.4862 11.0987 17.0728 10.5227 17.7555 10.096C18.4382 9.648 19.2275 9.456 20.1235 9.52C20.2515 9.54133 20.3902 9.59467 20.5395 9.68C20.6888 9.744 20.8275 9.808 20.9555 9.872C21.2755 10.0427 21.5742 10.2987 21.8515 10.64C22.1288 10.96 22.3742 11.3333 22.5875 11.76C22.8222 12.1653 23.0142 12.592 23.1635 13.04C23.3128 13.488 23.4195 13.904 23.4835 14.288C23.5262 14.5227 23.5582 14.8213 23.5795 15.184C23.6008 15.5467 23.6115 15.8773 23.6115 16.176C23.5688 16.176 23.5475 16.1867 23.5475 16.208C23.5475 16.2293 23.5262 16.2293 23.4835 16.208C23.3128 16.1227 23.1742 16.0053 23.0675 15.856C23.0248 15.8133 22.9608 15.7707 22.8755 15.728C22.7902 15.664 22.7368 15.5893 22.7155 15.504C22.6728 15.2907 22.6195 15.0133 22.5555 14.672C22.5128 14.3093 22.4275 13.9253 22.2995 13.52C22.1715 13.1147 22.0115 12.72 21.8195 12.336C21.6275 11.9307 21.3928 11.5787 21.1155 11.28C21.0088 11.1733 20.9128 11.0987 20.8275 11.056C20.7635 10.992 20.6782 10.928 20.5715 10.864C20.4648 10.7787 20.3048 10.7253 20.0915 10.704C19.8782 10.6613 19.6968 10.6613 19.5475 10.704C19.1848 10.8107 18.8008 11.0133 18.3955 11.312C17.9902 11.6107 17.6382 11.984 17.3395 12.432C17.0408 12.8587 16.8275 13.36 16.6995 13.936C16.5715 14.512 16.6248 15.1307 16.8595 15.792C16.9235 15.984 16.9662 16.144 16.9875 16.272C17.0088 16.3787 17.0088 16.4853 16.9875 16.592C16.9875 16.6987 16.9555 16.816 16.8915 16.944C16.8275 17.072 16.7422 17.2427 16.6355 17.456C16.4648 17.712 16.2622 17.8933 16.0275 18C15.8142 18.1067 15.6222 18.224 15.4515 18.352C14.8328 16.5813 14.3528 14.8107 14.0115 13.04C13.6915 11.2693 13.4888 9.59467 13.4035 8.016C13.3395 6.43733 13.3928 4.99733 13.5635 3.696C13.7342 2.37333 14.0008 1.27467 14.3635 0.4C14.4275 0.143999 14.5662 0.0373325 14.7795 0.0799999C14.8862 0.101333 14.9715 0.143999 15.0355 0.207998C15.0995 0.271999 15.1848 0.357332 15.2915 0.463999C15.3768 0.570665 15.4515 0.666665 15.5155 0.751999C15.5795 0.815999 15.6222 0.911999 15.6435 1.04C15.6648 1.14667 15.7182 1.2 15.8035 1.2C15.8888 1.2 15.9208 1.25333 15.8995 1.36C15.7075 2.53333 15.5795 3.62133 15.5155 4.624C15.4515 5.62667 15.4302 6.55467 15.4515 7.408C15.4942 8.26133 15.5688 9.05067 15.6755 9.776C15.7822 10.5013 15.8888 11.184 15.9955 11.824ZM29.0613 8.752L28.5173 9.296C28.6879 9.27467 28.9439 9.232 29.2853 9.168C29.6479 9.08267 29.9999 9.04 30.3413 9.04C30.5973 9.08267 30.8106 9.168 30.9813 9.296C31.1519 9.424 31.2586 9.66933 31.3013 10.032C31.3866 10.544 31.5146 11.0667 31.6853 11.6C31.8773 12.112 32.0159 12.624 32.1013 13.136C32.2079 13.648 32.2079 14.1387 32.1013 14.608C31.9946 15.056 31.7066 15.4613 31.2373 15.824C30.7466 16.5707 30.2026 17.2 29.6053 17.712C29.0293 18.2027 28.4213 18.4907 27.7812 18.576C27.3546 18.64 26.8853 18.576 26.3733 18.384C25.8613 18.2133 25.4879 17.904 25.2533 17.456C25.1893 17.4987 25.1359 17.5093 25.0933 17.488C25.0506 17.4453 25.0079 17.4027 24.9653 17.36C24.9226 17.3173 24.8799 17.3067 24.8372 17.328C24.8159 17.3493 24.7946 17.3387 24.7733 17.296C24.7519 17.232 24.7413 17.1467 24.7413 17.04V16.976V16.912C24.7626 16.1653 24.8266 15.4187 24.9333 14.672C25.0613 13.904 25.2426 13.168 25.4773 12.464C25.7333 11.7387 26.0533 11.0667 26.4373 10.448C26.8426 9.808 27.3546 9.24267 27.9733 8.752C28.1866 8.624 28.4213 8.58133 28.6773 8.624C28.7199 8.624 28.7733 8.624 28.8373 8.624C28.9013 8.624 28.9759 8.66667 29.0613 8.752ZM27.9733 10.928C27.8453 10.9067 27.7706 10.864 27.7493 10.8C27.7279 10.736 27.7279 10.6613 27.7493 10.576C27.7919 10.4693 27.8346 10.352 27.8773 10.224C27.9413 10.096 27.9733 9.968 27.9733 9.84C27.5253 10.2453 27.1733 10.736 26.9173 11.312C26.6826 11.888 26.5119 12.4853 26.4053 13.104C26.2986 13.7013 26.2453 14.288 26.2453 14.864C26.2666 15.44 26.2986 15.9413 26.3413 16.368C26.3839 16.7307 26.4586 17.0293 26.5653 17.264C26.6719 17.4773 26.8319 17.6053 27.0453 17.648C27.2799 17.712 27.5893 17.648 27.9733 17.456C28.5279 17.1787 28.9759 16.7947 29.3173 16.304C29.6586 15.8133 29.9359 15.2907 30.1493 14.736C30.2346 14.4373 30.2986 14.0853 30.3413 13.68C30.4053 13.2533 30.3946 12.8587 30.3093 12.496C30.2026 12.0053 29.9253 11.6533 29.4773 11.44C29.0506 11.2053 28.5493 11.0347 27.9733 10.928ZM38.3425 8.752L37.7985 9.296C37.9692 9.27467 38.2252 9.232 38.5665 9.168C38.9292 9.08267 39.2812 9.04 39.6225 9.04C39.8785 9.08267 40.0918 9.168 40.2625 9.296C40.4332 9.424 40.5398 9.66933 40.5825 10.032C40.6678 10.544 40.7958 11.0667 40.9665 11.6C41.1585 12.112 41.2972 12.624 41.3825 13.136C41.4892 13.648 41.4892 14.1387 41.3825 14.608C41.2758 15.056 40.9878 15.4613 40.5185 15.824C40.0278 16.5707 39.4838 17.2 38.8865 17.712C38.3105 18.2027 37.7025 18.4907 37.0625 18.576C36.6358 18.64 36.1665 18.576 35.6545 18.384C35.1425 18.2133 34.7692 17.904 34.5345 17.456C34.4705 17.4987 34.4172 17.5093 34.3745 17.488C34.3318 17.4453 34.2892 17.4027 34.2465 17.36C34.2038 17.3173 34.1612 17.3067 34.1185 17.328C34.0972 17.3493 34.0758 17.3387 34.0545 17.296C34.0332 17.232 34.0225 17.1467 34.0225 17.04V16.976V16.912C34.0438 16.1653 34.1078 15.4187 34.2145 14.672C34.3425 13.904 34.5238 13.168 34.7585 12.464C35.0145 11.7387 35.3345 11.0667 35.7185 10.448C36.1238 9.808 36.6358 9.24267 37.2545 8.752C37.4678 8.624 37.7025 8.58133 37.9585 8.624C38.0012 8.624 38.0545 8.624 38.1185 8.624C38.1825 8.624 38.2572 8.66667 38.3425 8.752ZM37.2545 10.928C37.1265 10.9067 37.0518 10.864 37.0305 10.8C37.0092 10.736 37.0092 10.6613 37.0305 10.576C37.0732 10.4693 37.1158 10.352 37.1585 10.224C37.2225 10.096 37.2545 9.968 37.2545 9.84C36.8065 10.2453 36.4545 10.736 36.1985 11.312C35.9638 11.888 35.7932 12.4853 35.6865 13.104C35.5798 13.7013 35.5265 14.288 35.5265 14.864C35.5478 15.44 35.5798 15.9413 35.6225 16.368C35.6652 16.7307 35.7398 17.0293 35.8465 17.264C35.9532 17.4773 36.1132 17.6053 36.3265 17.648C36.5612 17.712 36.8705 17.648 37.2545 17.456C37.8092 17.1787 38.2572 16.7947 38.5985 16.304C38.9398 15.8133 39.2172 15.2907 39.4305 14.736C39.5158 14.4373 39.5798 14.0853 39.6225 13.68C39.6865 13.2533 39.6758 12.8587 39.5905 12.496C39.4838 12.0053 39.2065 11.6533 38.7585 11.44C38.3318 11.2053 37.8305 11.0347 37.2545 10.928ZM51.3038 9.328C51.1971 9.648 51.1118 9.89333 51.0478 10.064C50.9838 10.2347 50.8878 10.256 50.7598 10.128C50.4611 9.82933 50.0984 9.50933 49.6718 9.168C49.2451 8.82667 48.7224 8.61333 48.1038 8.528C47.6984 8.48533 47.2611 8.53867 46.7918 8.688C46.3438 8.816 46.0024 9.104 45.7678 9.552C45.5544 9.936 45.5224 10.3947 45.6718 10.928C45.7998 11.4827 46.0771 11.888 46.5038 12.144C46.9518 12.3787 47.4424 12.5707 47.9758 12.72C48.5304 12.848 49.0851 12.9653 49.6398 13.072C50.2158 13.1787 50.7064 13.3707 51.1118 13.648C51.2398 13.712 51.3358 13.8187 51.3998 13.968C51.4851 14.096 51.5704 14.2133 51.6558 14.32C51.7624 14.448 51.8584 14.5547 51.9438 14.64C52.0504 14.7253 52.1464 14.8533 52.2318 15.024C52.2958 15.152 52.3704 15.312 52.4558 15.504C52.5411 15.6747 52.5624 15.8667 52.5198 16.08C52.4558 16.3573 52.1891 16.656 51.7198 16.976C50.6958 17.6373 49.6184 18.16 48.4878 18.544C47.3571 18.9493 46.1624 19.024 44.9038 18.768C44.7544 18.7253 44.5838 18.576 44.3918 18.32C44.1998 18.0853 44.0398 17.9253 43.9118 17.84C43.5704 17.648 43.3358 17.4027 43.2078 17.104C43.0371 16.5493 42.9518 15.9413 42.9518 15.28C42.9518 15.0667 42.9838 14.9707 43.0478 14.992C43.1331 14.992 43.2078 14.992 43.2718 14.992C43.3998 14.992 43.5384 15.0773 43.6878 15.248C43.8584 15.4187 44.0291 15.6213 44.1998 15.856C44.3918 16.0693 44.5624 16.272 44.7118 16.464C44.8824 16.6347 45.0211 16.72 45.1278 16.72C45.4904 16.8907 45.9278 16.9867 46.4398 17.008C46.9518 17.0293 47.4638 16.9867 47.9758 16.88C48.5091 16.752 48.9998 16.56 49.4478 16.304C49.9171 16.0267 50.2904 15.6853 50.5677 15.28C50.5677 15.1733 50.4398 15.0453 50.1838 14.896C49.9491 14.7467 49.6398 14.5867 49.2558 14.416C48.8718 14.224 48.4451 14.032 47.9758 13.84C47.5278 13.648 47.0904 13.4453 46.6638 13.232C46.2584 13.0187 45.8958 12.7947 45.5758 12.56C45.2771 12.3253 45.0744 12.0907 44.9678 11.856C44.9038 11.6853 44.8291 11.5147 44.7438 11.344C44.6584 11.152 44.6051 11.0133 44.5838 10.928C44.4771 10.4587 44.4558 10.0107 44.5198 9.584C44.5838 9.136 44.7118 8.74133 44.9038 8.4C45.0958 8.05867 45.3518 7.78133 45.6718 7.568C45.9918 7.33333 46.3544 7.184 46.7598 7.12C47.3998 7.03467 48.0824 7.03467 48.8078 7.12C49.5544 7.184 50.2158 7.42933 50.7917 7.856C50.9624 8.00533 51.0798 8.144 51.1438 8.272C51.2291 8.4 51.2931 8.54933 51.3358 8.72C51.3571 8.82667 51.3784 8.93333 51.3998 9.04C51.4211 9.12533 51.3891 9.22133 51.3038 9.328ZM61.5388 8.144C61.6881 8.29333 61.8268 8.464 61.9548 8.656C62.0828 8.82667 62.1894 9.008 62.2748 9.2C62.4454 9.60533 62.5308 10.0107 62.5308 10.416C62.5521 10.8 62.4028 11.2693 62.0828 11.824C61.7201 12.4213 61.2508 12.9227 60.6748 13.328C60.1201 13.7333 59.5121 13.9893 58.8508 14.096C58.3814 14.1813 57.9121 14.1813 57.4427 14.096C56.9734 13.9893 56.5254 13.776 56.0988 13.456C55.9708 13.5627 55.8641 13.7227 55.7788 13.936C55.7148 14.128 55.6934 14.3093 55.7148 14.48C55.7574 14.7787 55.8641 15.1093 56.0348 15.472C56.2268 15.8133 56.4294 16.048 56.6428 16.176C57.0054 16.3253 57.5068 16.336 58.1468 16.208C58.8081 16.08 59.5014 15.888 60.2268 15.632C60.9734 15.3547 61.6988 15.056 62.4028 14.736C63.1281 14.3947 63.7468 14.1067 64.2588 13.872C64.2588 14 64.2268 14.0853 64.1628 14.128C64.1201 14.1707 64.0561 14.2453 63.9708 14.352C63.8641 14.4587 63.7468 14.5867 63.6188 14.736C63.4908 14.8853 63.3414 15.0133 63.1708 15.12C62.9574 15.248 62.7974 15.4187 62.6908 15.632C62.5841 15.824 62.3814 16.0053 62.0828 16.176C61.6774 16.3893 61.2614 16.6133 60.8348 16.848C60.4294 17.0613 60.0241 17.264 59.6188 17.456C59.2134 17.6267 58.7974 17.7653 58.3708 17.872C57.9654 17.9573 57.5601 17.9787 57.1548 17.936C56.8774 17.8933 56.6428 17.8187 56.4508 17.712C56.2801 17.6053 56.0668 17.4453 55.8108 17.232C55.6828 17.1253 55.5334 17.0187 55.3628 16.912C55.1921 16.8053 55.0641 16.6987 54.9788 16.592C54.6161 16.0587 54.3708 15.4933 54.2428 14.896C54.1148 14.2773 54.0828 13.6693 54.1468 13.072C54.2321 12.4533 54.3921 11.856 54.6268 11.28C54.8614 10.6827 55.1708 10.1387 55.5548 9.648C55.7681 9.37067 56.0241 9.09333 56.3228 8.816C56.6428 8.51733 56.9841 8.26133 57.3468 8.048C57.7308 7.81333 58.1254 7.632 58.5308 7.504C58.9574 7.376 59.3841 7.32267 59.8108 7.344C59.9814 7.36533 60.1308 7.41867 60.2588 7.504C60.4081 7.568 60.5681 7.64267 60.7388 7.728C60.8454 7.77067 60.9734 7.83467 61.1228 7.92C61.2934 7.984 61.4321 8.05867 61.5388 8.144ZM60.6108 10.032C60.5681 9.84 60.4508 9.66933 60.2588 9.52C60.0668 9.37067 59.8534 9.25333 59.6188 9.168C59.3841 9.06133 59.1494 8.99733 58.9148 8.976C58.6801 8.95467 58.5094 8.96533 58.4028 9.008C58.2321 9.072 58.0294 9.18933 57.7948 9.36C57.5814 9.50933 57.3681 9.69067 57.1548 9.904C56.9628 10.1173 56.7708 10.352 56.5788 10.608C56.4081 10.8427 56.2801 11.0667 56.1948 11.28C56.1521 11.344 56.1094 11.4507 56.0668 11.6C56.0454 11.728 56.0561 11.824 56.0988 11.888C56.3548 12.208 56.7388 12.368 57.2508 12.368C57.7414 12.368 58.2641 12.2507 58.8188 12.016C59.3948 11.7813 59.8001 11.536 60.0348 11.28C60.0561 11.2373 60.0988 11.1627 60.1628 11.056C60.2481 10.9493 60.3228 10.832 60.3868 10.704C60.4508 10.576 60.5041 10.448 60.5468 10.32C60.6108 10.192 60.6321 10.096 60.6108 10.032ZM81.006 21.904C80.942 22.16 80.878 22.3733 80.814 22.544C80.75 22.736 80.686 22.9067 80.622 23.056C80.558 23.2053 80.4833 23.344 80.398 23.472C80.3127 23.6 80.2167 23.76 80.11 23.952C80.0033 24.0373 79.886 24.1973 79.758 24.432C79.6513 24.688 79.4913 24.8587 79.278 24.944C78.702 25.1787 78.0513 25.3813 77.326 25.552C76.622 25.7227 76.0353 25.776 75.566 25.712C75.5233 25.6907 75.47 25.68 75.406 25.68C75.3633 25.7013 75.3313 25.6907 75.31 25.648C75.2033 25.4347 75.2247 25.2533 75.374 25.104C75.5447 24.976 75.6513 24.8267 75.694 24.656C75.7367 24.5493 75.7793 24.4213 75.822 24.272C75.8647 24.144 75.9393 24.0373 76.046 23.952C76.2593 23.8453 76.5687 23.7387 76.974 23.632C77.3793 23.5467 77.774 23.4187 78.158 23.248C78.5633 23.0773 78.926 22.8427 79.246 22.544C79.5873 22.2667 79.8113 21.872 79.918 21.36C80.046 20.6987 80.1527 19.9733 80.238 19.184C80.3233 18.3947 80.3873 17.5947 80.43 16.784C80.494 15.9733 80.5367 15.1733 80.558 14.384C80.6007 13.5947 80.6327 12.8587 80.654 12.176C80.526 12.432 80.3447 12.7307 80.11 13.072C79.8753 13.392 79.6193 13.712 79.342 14.032C79.0647 14.352 78.7873 14.64 78.51 14.896C78.2327 15.152 77.9767 15.344 77.742 15.472C77.4647 15.6213 77.2407 15.7707 77.07 15.92C76.8993 16.048 76.7287 16.1867 76.558 16.336C76.43 16.4427 76.2593 16.4427 76.046 16.336C75.8327 16.2293 75.6407 16.0373 75.47 15.76C75.278 15.4187 75.0967 15.0027 74.926 14.512C74.7553 14 74.5847 13.4667 74.414 12.912C74.2433 12.336 74.0727 11.7493 73.902 11.152C73.7313 10.5333 73.5607 9.94667 73.39 9.392C73.2407 8.98667 73.2513 8.69867 73.422 8.528C73.5713 8.37867 73.742 8.304 73.934 8.304C74.1047 8.304 74.2007 8.35733 74.222 8.464C74.2647 8.54933 74.3713 8.60267 74.542 8.624C74.6913 8.64533 74.798 8.69867 74.862 8.784C74.9473 8.86933 75.0433 8.944 75.15 9.008C75.278 9.09333 75.3633 9.17867 75.406 9.264C75.47 9.34933 75.534 9.49867 75.598 9.712C75.7047 10.1173 75.79 10.5013 75.854 10.864C75.9393 11.2053 76.014 11.5467 76.078 11.888C76.1633 12.2293 76.2487 12.5813 76.334 12.944C76.4407 13.2853 76.558 13.6587 76.686 14.064C77.262 13.68 77.7633 13.264 78.19 12.816C78.638 12.3467 79.0327 11.8773 79.374 11.408C79.7367 10.9173 80.0567 10.448 80.334 10C80.6113 9.53067 80.8673 9.08267 81.102 8.656C81.1873 8.528 81.294 8.34667 81.422 8.112C81.55 7.87733 81.6673 7.70667 81.774 7.6C81.838 7.536 81.8913 7.472 81.934 7.408C81.9767 7.32267 82.03 7.25867 82.094 7.216C82.1793 7.30133 82.2327 7.39733 82.254 7.504C82.2753 7.61067 82.2967 7.728 82.318 7.856C82.3607 8.21867 82.3287 8.61333 82.222 9.04C82.1367 9.44533 82.094 9.744 82.094 9.936C82.094 10.896 82.094 11.8773 82.094 12.88C82.094 13.8827 82.062 14.8853 81.998 15.888C81.934 16.8907 81.8273 17.8933 81.678 18.896C81.5287 19.92 81.3047 20.9227 81.006 21.904ZM88.5925 8.752L88.0485 9.296C88.2192 9.27467 88.4752 9.232 88.8165 9.168C89.1792 9.08267 89.5312 9.04 89.8725 9.04C90.1285 9.08267 90.3418 9.168 90.5125 9.296C90.6832 9.424 90.7898 9.66933 90.8325 10.032C90.9178 10.544 91.0458 11.0667 91.2165 11.6C91.4085 12.112 91.5472 12.624 91.6325 13.136C91.7392 13.648 91.7392 14.1387 91.6325 14.608C91.5258 15.056 91.2378 15.4613 90.7685 15.824C90.2778 16.5707 89.7338 17.2 89.1365 17.712C88.5605 18.2027 87.9525 18.4907 87.3125 18.576C86.8858 18.64 86.4165 18.576 85.9045 18.384C85.3925 18.2133 85.0192 17.904 84.7845 17.456C84.7205 17.4987 84.6672 17.5093 84.6245 17.488C84.5818 17.4453 84.5392 17.4027 84.4965 17.36C84.4538 17.3173 84.4112 17.3067 84.3685 17.328C84.3472 17.3493 84.3258 17.3387 84.3045 17.296C84.2832 17.232 84.2725 17.1467 84.2725 17.04V16.976V16.912C84.2938 16.1653 84.3578 15.4187 84.4645 14.672C84.5925 13.904 84.7738 13.168 85.0085 12.464C85.2645 11.7387 85.5845 11.0667 85.9685 10.448C86.3738 9.808 86.8858 9.24267 87.5045 8.752C87.7178 8.624 87.9525 8.58133 88.2085 8.624C88.2512 8.624 88.3045 8.624 88.3685 8.624C88.4325 8.624 88.5072 8.66667 88.5925 8.752ZM87.5045 10.928C87.3765 10.9067 87.3018 10.864 87.2805 10.8C87.2592 10.736 87.2592 10.6613 87.2805 10.576C87.3232 10.4693 87.3658 10.352 87.4085 10.224C87.4725 10.096 87.5045 9.968 87.5045 9.84C87.0565 10.2453 86.7045 10.736 86.4485 11.312C86.2138 11.888 86.0432 12.4853 85.9365 13.104C85.8298 13.7013 85.7765 14.288 85.7765 14.864C85.7978 15.44 85.8298 15.9413 85.8725 16.368C85.9152 16.7307 85.9898 17.0293 86.0965 17.264C86.2032 17.4773 86.3632 17.6053 86.5765 17.648C86.8112 17.712 87.1205 17.648 87.5045 17.456C88.0592 17.1787 88.5072 16.7947 88.8485 16.304C89.1898 15.8133 89.4672 15.2907 89.6805 14.736C89.7658 14.4373 89.8298 14.0853 89.8725 13.68C89.9365 13.2533 89.9258 12.8587 89.8405 12.496C89.7338 12.0053 89.4565 11.6533 89.0085 11.44C88.5818 11.2053 88.0805 11.0347 87.5045 10.928ZM101.97 9.392C101.97 10.8853 101.98 12.272 102.002 13.552C102.044 14.832 102.172 16.0907 102.386 17.328C102.407 17.456 102.375 17.5947 102.29 17.744C102.204 17.8933 102.119 18.0213 102.034 18.128C101.906 18.2773 101.788 18.416 101.682 18.544C101.575 18.6933 101.468 18.7893 101.362 18.832C101.148 18.9387 101.02 18.96 100.978 18.896C100.935 18.832 100.903 18.7467 100.882 18.64C100.796 18.2347 100.679 17.6907 100.53 17.008C100.402 16.304 100.316 15.6 100.274 14.896C100.018 15.3227 99.7298 15.76 99.4098 16.208C99.1111 16.6347 98.7804 17.0293 98.4178 17.392C98.0764 17.7547 97.7244 18.0747 97.3618 18.352C96.9991 18.6507 96.6471 18.864 96.3058 18.992C96.1564 19.056 96.0498 19.0667 95.9858 19.024C95.9431 18.9813 95.8578 18.9387 95.7298 18.896C95.5378 18.8107 95.3458 18.7253 95.1538 18.64C94.9831 18.576 94.8444 18.4693 94.7378 18.32C94.5031 17.9147 94.3111 17.52 94.1618 17.136C93.9271 16.5173 93.7778 15.8667 93.7138 15.184C93.6711 14.5013 93.6711 13.8187 93.7138 13.136C93.7564 12.4533 93.8311 11.792 93.9378 11.152C94.0444 10.512 94.1511 9.92533 94.2578 9.392C94.2791 9.28533 94.3324 9.22133 94.4178 9.2C94.5031 9.15733 94.5564 9.08267 94.5778 8.976C94.6204 8.80533 94.6951 8.688 94.8018 8.624C94.9298 8.56 95.0578 8.50667 95.1858 8.464C95.3564 8.42133 95.4844 8.38933 95.5698 8.368C95.6764 8.32533 95.8151 8.304 95.9858 8.304C95.7938 8.92267 95.6444 9.62667 95.5378 10.416C95.4311 11.2053 95.3778 12.016 95.3778 12.848C95.3991 13.6587 95.4738 14.448 95.6018 15.216C95.7511 15.984 95.9644 16.656 96.2418 17.232C96.6471 16.9547 97.0418 16.6133 97.4258 16.208C97.8311 15.8027 98.2044 15.3867 98.5458 14.96C98.8871 14.512 99.1858 14.0853 99.4418 13.68C99.7191 13.2747 99.9218 12.9333 100.05 12.656C100.178 12.2293 100.252 11.7493 100.274 11.216C100.316 10.6613 100.338 10.1707 100.338 9.744C100.316 9.552 100.327 9.40267 100.37 9.296C100.434 9.18933 100.498 9.072 100.562 8.944C100.604 8.88 100.626 8.816 100.626 8.752C100.647 8.688 100.69 8.63467 100.754 8.592C100.796 8.54933 100.839 8.496 100.882 8.432C100.946 8.34667 101.01 8.304 101.074 8.304C101.202 8.304 101.287 8.368 101.33 8.496C101.372 8.624 101.436 8.72 101.522 8.784C101.628 8.89067 101.724 8.976 101.81 9.04C101.916 9.08267 101.97 9.2 101.97 9.392ZM114.509 7.664C114.509 7.856 114.541 8.10133 114.605 8.4C114.669 8.67733 114.647 8.90133 114.541 9.072C114.498 9.11467 114.477 9.2 114.477 9.328C114.477 9.43467 114.445 9.50933 114.381 9.552L113.965 9.296C113.623 9.12533 113.239 9.05067 112.813 9.072C112.407 9.09333 111.991 9.18933 111.565 9.36C111.266 9.488 110.967 9.66933 110.669 9.904C110.391 10.1173 110.125 10.3627 109.869 10.64C109.613 10.9173 109.378 11.2053 109.165 11.504C108.951 11.8027 108.77 12.0907 108.621 12.368C108.279 12.9867 108.109 13.7333 108.109 14.608C108.13 15.4827 108.45 16.6133 109.069 18C109.069 18.1493 108.962 18.3307 108.749 18.544C108.706 18.5867 108.653 18.6507 108.589 18.736C108.525 18.8213 108.471 18.8853 108.429 18.928C108.258 19.0773 108.151 19.2053 108.109 19.312C108.087 19.4187 108.023 19.4933 107.917 19.536C107.746 19.6 107.586 19.4507 107.437 19.088C107.074 18.448 106.722 17.6693 106.381 16.752C106.061 15.8133 105.751 14.8533 105.453 13.872C105.175 12.8907 104.919 11.952 104.685 11.056C104.471 10.1387 104.301 9.37067 104.173 8.752C104.109 8.58133 104.098 8.42133 104.141 8.272C104.183 8.10133 104.247 7.96267 104.333 7.856C104.397 7.77067 104.471 7.74933 104.557 7.792C104.663 7.83467 104.749 7.856 104.813 7.856C105.09 7.856 105.261 7.90933 105.325 8.016C105.389 8.12267 105.495 8.26133 105.645 8.432C105.943 8.77333 106.178 9.232 106.349 9.808C106.519 10.384 106.733 11.0667 106.989 11.856C107.33 11.28 107.767 10.7253 108.301 10.192C108.855 9.65867 109.453 9.17867 110.093 8.752C110.733 8.304 111.394 7.94133 112.077 7.664C112.759 7.38667 113.421 7.216 114.061 7.152C114.189 7.13067 114.295 7.17333 114.381 7.28C114.487 7.36533 114.53 7.49333 114.509 7.664ZM138.817 12.272C138.753 12.3787 138.657 12.4533 138.529 12.496C138.422 12.5173 138.315 12.56 138.209 12.624C138.102 12.688 137.995 12.7733 137.889 12.88C137.782 12.9867 137.675 13.072 137.569 13.136C137.867 14.288 138.102 15.2907 138.273 16.144C138.443 16.9973 138.55 17.6373 138.593 18.064C138.635 18.4907 138.667 18.96 138.689 19.472C138.71 19.984 138.721 20.4533 138.721 20.88C138.721 21.2 138.699 21.456 138.657 21.648C138.635 21.8613 138.593 22.064 138.529 22.256C138.273 21.936 138.059 21.5947 137.889 21.232C137.739 20.8693 137.579 20.5067 137.409 20.144C137.046 19.056 136.694 17.9147 136.353 16.72C136.033 15.5253 135.713 14.3093 135.393 13.072C134.795 13.0507 134.155 13.04 133.473 13.04C132.79 13.04 132.107 13.04 131.425 13.04C130.742 13.04 130.091 13.0507 129.473 13.072C128.875 13.072 128.353 13.0827 127.905 13.104C127.862 13.232 127.819 13.3813 127.777 13.552C127.649 13.8293 127.542 14.1387 127.457 14.48C127.371 14.8 127.297 15.152 127.233 15.536C127.169 15.8987 127.094 16.2827 127.009 16.688C126.923 17.0933 126.817 17.4987 126.689 17.904C126.966 17.904 127.233 17.8187 127.489 17.648C127.766 17.456 128.043 17.36 128.321 17.36C128.129 17.552 127.958 17.7653 127.809 18C127.681 18.2347 127.563 18.544 127.457 18.928C127.435 19.0347 127.371 19.1413 127.265 19.248C127.158 19.376 127.083 19.472 127.041 19.536C126.998 19.6213 126.955 19.7067 126.913 19.792C126.87 19.8987 126.817 19.9733 126.753 20.016C126.603 20.1013 126.475 20.144 126.369 20.144C126.262 20.1653 126.187 20.144 126.145 20.08C125.974 19.824 125.857 19.5467 125.793 19.248C125.75 18.9707 125.707 18.672 125.665 18.352C125.665 17.776 125.739 17.0293 125.889 16.112C126.038 15.1947 126.23 14.2133 126.465 13.168C126.294 13.1253 126.123 13.0507 125.953 12.944C125.782 12.816 125.633 12.7307 125.505 12.688C125.27 12.5813 125.078 12.528 124.929 12.528C124.779 12.5067 124.619 12.4213 124.449 12.272L126.401 11.76C126.507 11.76 126.646 11.7387 126.817 11.696C127.073 10.6933 127.329 9.73333 127.585 8.816C127.841 7.89867 128.086 7.12 128.321 6.48C128.491 5.98933 128.694 5.424 128.929 4.784C129.185 4.144 129.473 3.536 129.793 2.96C130.134 2.36267 130.507 1.85067 130.913 1.424C131.339 0.997332 131.798 0.730665 132.289 0.623999C132.438 0.581333 132.587 0.549333 132.737 0.528C132.886 0.506666 133.046 0.495998 133.217 0.495998C133.387 0.495998 133.515 0.581332 133.601 0.751999C133.686 0.901333 133.814 1.09333 133.985 1.328C134.091 1.52 134.187 1.69067 134.273 1.84C134.379 1.968 134.486 2.24533 134.593 2.672C135.105 4.22933 135.585 5.79733 136.033 7.376C136.481 8.93333 136.875 10.4053 137.217 11.792L139.169 12.208L138.817 12.272ZM132.289 2C131.926 2.49067 131.585 3.03467 131.265 3.632C130.945 4.208 130.625 4.88 130.305 5.648C129.985 6.39467 129.665 7.25867 129.345 8.24C129.025 9.2 128.694 10.288 128.353 11.504C129.462 11.376 130.571 11.3013 131.681 11.28C132.79 11.2587 133.889 11.3013 134.977 11.408C134.529 9.68 134.091 8.00533 133.665 6.384C133.238 4.74133 132.779 3.28 132.289 2ZM149.345 9.392C149.345 10.8853 149.355 12.272 149.377 13.552C149.419 14.832 149.547 16.0907 149.761 17.328C149.782 17.456 149.75 17.5947 149.665 17.744C149.579 17.8933 149.494 18.0213 149.409 18.128C149.281 18.2773 149.163 18.416 149.057 18.544C148.95 18.6933 148.843 18.7893 148.737 18.832C148.523 18.9387 148.395 18.96 148.353 18.896C148.31 18.832 148.278 18.7467 148.257 18.64C148.171 18.2347 148.054 17.6907 147.905 17.008C147.777 16.304 147.691 15.6 147.649 14.896C147.393 15.3227 147.105 15.76 146.785 16.208C146.486 16.6347 146.155 17.0293 145.793 17.392C145.451 17.7547 145.099 18.0747 144.737 18.352C144.374 18.6507 144.022 18.864 143.681 18.992C143.531 19.056 143.425 19.0667 143.361 19.024C143.318 18.9813 143.233 18.9387 143.105 18.896C142.913 18.8107 142.721 18.7253 142.529 18.64C142.358 18.576 142.219 18.4693 142.113 18.32C141.878 17.9147 141.686 17.52 141.537 17.136C141.302 16.5173 141.153 15.8667 141.089 15.184C141.046 14.5013 141.046 13.8187 141.089 13.136C141.131 12.4533 141.206 11.792 141.313 11.152C141.419 10.512 141.526 9.92533 141.633 9.392C141.654 9.28533 141.707 9.22133 141.793 9.2C141.878 9.15733 141.931 9.08267 141.953 8.976C141.995 8.80533 142.07 8.688 142.177 8.624C142.305 8.56 142.433 8.50667 142.561 8.464C142.731 8.42133 142.859 8.38933 142.945 8.368C143.051 8.32533 143.19 8.304 143.361 8.304C143.169 8.92267 143.019 9.62667 142.913 10.416C142.806 11.2053 142.753 12.016 142.753 12.848C142.774 13.6587 142.849 14.448 142.977 15.216C143.126 15.984 143.339 16.656 143.617 17.232C144.022 16.9547 144.417 16.6133 144.801 16.208C145.206 15.8027 145.579 15.3867 145.921 14.96C146.262 14.512 146.561 14.0853 146.817 13.68C147.094 13.2747 147.297 12.9333 147.425 12.656C147.553 12.2293 147.627 11.7493 147.649 11.216C147.691 10.6613 147.713 10.1707 147.713 9.744C147.691 9.552 147.702 9.40267 147.745 9.296C147.809 9.18933 147.873 9.072 147.937 8.944C147.979 8.88 148.001 8.816 148.001 8.752C148.022 8.688 148.065 8.63467 148.129 8.592C148.171 8.54933 148.214 8.496 148.257 8.432C148.321 8.34667 148.385 8.304 148.449 8.304C148.577 8.304 148.662 8.368 148.705 8.496C148.747 8.624 148.811 8.72 148.897 8.784C149.003 8.89067 149.099 8.976 149.185 9.04C149.291 9.08267 149.345 9.2 149.345 9.392ZM158.3 0.4C158.3 1.76533 158.428 3.04533 158.684 4.24C158.94 5.41333 159.153 6.61867 159.324 7.856C159.494 9.11467 159.612 10.3627 159.676 11.6C159.74 12.816 159.825 13.9467 159.932 14.992C159.868 15.12 159.836 15.2693 159.836 15.44C159.857 15.6107 159.814 15.7493 159.708 15.856C159.388 16.1547 159.025 16.4427 158.62 16.72C158.214 16.9973 157.766 17.2533 157.276 17.488C157.105 17.5733 156.934 17.616 156.764 17.616C156.593 17.5947 156.422 17.6053 156.252 17.648C156.06 17.6907 155.857 17.744 155.644 17.808C155.452 17.872 155.249 17.8827 155.036 17.84C154.801 17.776 154.524 17.68 154.204 17.552C153.884 17.4027 153.564 17.232 153.244 17.04C152.924 16.848 152.625 16.6347 152.348 16.4C152.092 16.1653 151.9 15.9093 151.772 15.632C151.537 14.416 151.58 13.3173 151.9 12.336C152.241 11.3547 152.742 10.4693 153.404 9.68C153.489 9.57333 153.596 9.49867 153.724 9.456C153.852 9.392 153.969 9.31733 154.076 9.232C154.182 9.14667 154.3 9.08267 154.428 9.04C154.556 8.976 154.705 8.95467 154.876 8.976C155.302 9.01867 155.772 9.12533 156.284 9.296C156.796 9.44533 157.19 9.54133 157.468 9.584V9.104C157.468 8.54933 157.425 7.99467 157.34 7.44C157.276 6.864 157.212 6.288 157.148 5.712C157.084 5.136 157.03 4.54933 156.988 3.952C156.966 3.33333 156.998 2.704 157.084 2.064C157.105 1.89333 157.148 1.72267 157.212 1.552C157.276 1.38133 157.329 1.21067 157.372 1.04C157.414 0.933332 157.478 0.815999 157.564 0.688C157.649 0.538666 157.745 0.442666 157.852 0.4C157.958 0.357332 158.022 0.293332 158.044 0.207998C158.065 0.101332 158.118 0.0586656 158.204 0.0799999C158.289 0.101333 158.321 0.133333 158.3 0.175999C158.3 0.218666 158.3 0.293333 158.3 0.4ZM158.108 15.312C158.129 15.0773 158.129 14.7467 158.108 14.32C158.108 13.872 158.044 13.4133 157.916 12.944C157.788 12.4747 157.574 12.0267 157.276 11.6C156.998 11.1733 156.604 10.8533 156.092 10.64C155.857 10.6613 155.58 10.704 155.26 10.768C154.961 10.8107 154.662 10.896 154.364 11.024C154.065 11.152 153.788 11.3333 153.532 11.568C153.276 11.7813 153.073 12.0587 152.924 12.4C152.796 12.784 152.796 13.2853 152.924 13.904C153.052 14.5013 153.393 15.0773 153.948 15.632C154.268 15.824 154.609 15.9413 154.972 15.984C155.334 16.0053 155.697 15.9947 156.06 15.952C156.444 15.9093 156.806 15.824 157.148 15.696C157.51 15.568 157.83 15.44 158.108 15.312ZM166.151 7.472C166.321 7.64267 166.385 7.78133 166.343 7.888C166.321 7.99467 166.257 8.03733 166.151 8.016C165.873 8.016 165.564 8.048 165.223 8.112C164.903 8.15467 164.551 8.19733 164.167 8.24C163.804 8.26133 163.42 8.26133 163.015 8.24C162.609 8.21867 162.204 8.144 161.799 8.016C161.628 7.84533 161.628 7.696 161.799 7.568C161.991 7.41867 162.14 7.20533 162.247 6.928C162.311 6.736 162.396 6.608 162.503 6.544C162.631 6.45867 162.759 6.40533 162.887 6.384C163.121 6.384 163.409 6.43733 163.751 6.544C164.113 6.62933 164.412 6.68267 164.647 6.704C165.009 6.74667 165.308 6.81067 165.543 6.896C165.777 6.96 165.98 7.152 166.151 7.472ZM165.479 11.824C165.607 12.3147 165.703 12.7627 165.766 13.168C165.852 13.5733 165.905 13.968 165.927 14.352C165.969 14.7147 165.991 15.088 165.991 15.472C166.012 15.856 166.023 16.272 166.023 16.72C166.023 16.8053 165.969 16.9013 165.863 17.008C165.777 17.0933 165.713 17.1893 165.671 17.296C165.585 17.488 165.511 17.6053 165.447 17.648C165.404 17.6907 165.319 17.744 165.191 17.808C164.892 17.936 164.625 18.1173 164.391 18.352C164.113 17.9467 163.921 17.4773 163.815 16.944C163.729 16.4107 163.665 15.856 163.623 15.28C163.601 14.704 163.569 14.128 163.527 13.552C163.505 12.9547 163.431 12.3787 163.303 11.824C163.239 11.5253 163.26 11.3227 163.367 11.216C163.473 11.1093 163.591 11.0347 163.719 10.992C163.868 10.9493 164.028 10.9813 164.199 11.088C164.391 11.1947 164.572 11.3013 164.743 11.408C164.892 11.4933 165.031 11.5467 165.159 11.568C165.308 11.568 165.415 11.6533 165.479 11.824ZM176.133 8.144C176.282 8.29333 176.421 8.464 176.549 8.656C176.677 8.82667 176.783 9.008 176.869 9.2C177.039 9.60533 177.125 10.0107 177.125 10.416C177.146 10.8 176.997 11.2693 176.677 11.824C176.314 12.4213 175.845 12.9227 175.269 13.328C174.714 13.7333 174.106 13.9893 173.445 14.096C172.975 14.1813 172.506 14.1813 172.036 14.096C171.567 13.9893 171.119 13.776 170.693 13.456C170.565 13.5627 170.458 13.7227 170.373 13.936C170.309 14.128 170.287 14.3093 170.309 14.48C170.351 14.7787 170.458 15.1093 170.629 15.472C170.821 15.8133 171.023 16.048 171.237 16.176C171.599 16.3253 172.101 16.336 172.741 16.208C173.402 16.08 174.095 15.888 174.821 15.632C175.567 15.3547 176.293 15.056 176.997 14.736C177.722 14.3947 178.341 14.1067 178.853 13.872C178.853 14 178.821 14.0853 178.757 14.128C178.714 14.1707 178.65 14.2453 178.565 14.352C178.458 14.4587 178.341 14.5867 178.213 14.736C178.085 14.8853 177.935 15.0133 177.765 15.12C177.551 15.248 177.391 15.4187 177.285 15.632C177.178 15.824 176.975 16.0053 176.677 16.176C176.271 16.3893 175.855 16.6133 175.429 16.848C175.023 17.0613 174.618 17.264 174.213 17.456C173.807 17.6267 173.391 17.7653 172.965 17.872C172.559 17.9573 172.154 17.9787 171.749 17.936C171.471 17.8933 171.237 17.8187 171.045 17.712C170.874 17.6053 170.661 17.4453 170.405 17.232C170.277 17.1253 170.127 17.0187 169.957 16.912C169.786 16.8053 169.658 16.6987 169.573 16.592C169.21 16.0587 168.965 15.4933 168.837 14.896C168.709 14.2773 168.677 13.6693 168.741 13.072C168.826 12.4533 168.986 11.856 169.221 11.28C169.455 10.6827 169.765 10.1387 170.149 9.648C170.362 9.37067 170.618 9.09333 170.917 8.816C171.237 8.51733 171.578 8.26133 171.941 8.048C172.325 7.81333 172.719 7.632 173.125 7.504C173.551 7.376 173.978 7.32267 174.405 7.344C174.575 7.36533 174.725 7.41867 174.853 7.504C175.002 7.568 175.162 7.64267 175.333 7.728C175.439 7.77067 175.567 7.83467 175.717 7.92C175.887 7.984 176.026 8.05867 176.133 8.144ZM175.205 10.032C175.162 9.84 175.045 9.66933 174.853 9.52C174.661 9.37067 174.447 9.25333 174.213 9.168C173.978 9.06133 173.743 8.99733 173.509 8.976C173.274 8.95467 173.103 8.96533 172.997 9.008C172.826 9.072 172.623 9.18933 172.389 9.36C172.175 9.50933 171.962 9.69067 171.749 9.904C171.557 10.1173 171.365 10.352 171.173 10.608C171.002 10.8427 170.874 11.0667 170.789 11.28C170.746 11.344 170.703 11.4507 170.661 11.6C170.639 11.728 170.65 11.824 170.693 11.888C170.949 12.208 171.333 12.368 171.845 12.368C172.335 12.368 172.858 12.2507 173.413 12.016C173.989 11.7813 174.394 11.536 174.629 11.28C174.65 11.2373 174.693 11.1627 174.757 11.056C174.842 10.9493 174.917 10.832 174.981 10.704C175.045 10.576 175.098 10.448 175.141 10.32C175.205 10.192 175.226 10.096 175.205 10.032ZM181.767 13.648C182.13 13.2853 182.492 12.9013 182.855 12.496C183.239 12.0693 183.634 11.664 184.039 11.28C184.444 10.896 184.86 10.5547 185.287 10.256C185.714 9.936 186.162 9.68 186.631 9.488C186.738 9.44533 186.834 9.43467 186.919 9.456C187.026 9.47733 187.132 9.46667 187.239 9.424C187.41 9.424 187.559 9.424 187.687 9.424C187.815 9.424 187.932 9.46667 188.039 9.552C188.338 9.744 188.572 10.0213 188.743 10.384C188.935 10.7253 189.095 11.1093 189.223 11.536C189.308 11.7707 189.351 11.9947 189.351 12.208C189.372 12.4213 189.436 12.6667 189.543 12.944C189.671 13.3493 189.81 13.7653 189.959 14.192C190.13 14.5973 190.194 14.992 190.151 15.376C190.13 15.4827 190.098 15.5787 190.055 15.664C190.012 15.728 189.959 15.8133 189.895 15.92C189.852 16.0053 189.778 16.112 189.671 16.24C189.564 16.368 189.458 16.464 189.351 16.528C189.244 16.6133 189.17 16.688 189.127 16.752C189.106 16.7947 189.01 16.848 188.839 16.912C188.562 16.5067 188.348 16.0693 188.199 15.6C188.05 15.1307 187.922 14.64 187.815 14.128C187.708 13.616 187.612 13.0933 187.527 12.56C187.442 12.0267 187.335 11.4827 187.207 10.928C187.164 10.7787 187.026 10.6933 186.791 10.672C186.578 10.6507 186.322 10.7253 186.023 10.896C185.746 11.0453 185.447 11.2907 185.127 11.632C184.807 11.9733 184.519 12.4107 184.263 12.944C184.092 13.328 183.932 13.7333 183.783 14.16C183.634 14.5653 183.463 14.9813 183.271 15.408C183.1 15.8133 182.887 16.2187 182.631 16.624C182.396 17.008 182.108 17.36 181.767 17.68C181.66 17.7867 181.586 17.7973 181.543 17.712C181.5 17.6267 181.394 17.552 181.223 17.488C181.095 17.4453 181.02 17.4027 180.999 17.36C180.999 17.3173 180.967 17.1893 180.903 16.976C180.775 16.528 180.636 16.016 180.487 15.44C180.359 14.864 180.21 14.256 180.039 13.616C179.89 12.976 179.73 12.336 179.559 11.696C179.388 11.0347 179.218 10.416 179.047 9.84L178.855 9.264C178.898 9.17867 178.972 9.104 179.079 9.04C179.207 8.976 179.335 8.92267 179.463 8.88C179.591 8.83733 179.73 8.848 179.879 8.912C180.028 8.976 180.146 9.008 180.231 9.008C180.466 9.008 180.668 9.15733 180.839 9.456C181.031 9.75467 181.191 10.1387 181.319 10.608C181.447 11.056 181.543 11.5573 181.607 12.112C181.692 12.6453 181.746 13.1573 181.767 13.648ZM199.379 10.192C199.443 10.2987 199.464 10.4053 199.443 10.512C199.443 10.5973 199.432 10.672 199.411 10.736C199.24 10.928 199.101 11.056 198.995 11.12C198.888 11.184 198.707 11.28 198.451 11.408C198.387 11.4507 198.323 11.4933 198.259 11.536C198.216 11.5787 198.163 11.6 198.099 11.6C197.992 11.6 197.821 11.5147 197.587 11.344C197.373 11.1733 197.139 11.0027 196.883 10.832C196.627 10.6613 196.349 10.5333 196.051 10.448C195.773 10.3627 195.517 10.3947 195.283 10.544C195.048 10.864 194.824 11.28 194.611 11.792C194.397 12.2827 194.227 12.8053 194.099 13.36C193.992 13.9147 193.96 14.48 194.003 15.056C194.045 15.632 194.216 16.1653 194.515 16.656C195.752 16.784 196.851 16.5813 197.811 16.048C198.771 15.4933 199.656 14.8107 200.467 14C200.467 14.1493 200.424 14.288 200.339 14.416C200.275 14.5227 200.211 14.64 200.147 14.768C200.061 14.96 199.965 15.152 199.859 15.344C199.773 15.5147 199.645 15.6853 199.475 15.856C199.176 16.176 198.835 16.4853 198.451 16.784C198.088 17.0827 197.693 17.3493 197.267 17.584C196.861 17.7973 196.435 17.9573 195.987 18.064C195.56 18.192 195.133 18.2347 194.707 18.192C194.472 18.1707 194.301 18.1067 194.195 18C194.109 17.9147 193.949 17.8187 193.715 17.712C193.587 17.6267 193.416 17.552 193.203 17.488C193.011 17.424 192.861 17.3387 192.755 17.232C192.541 16.976 192.381 16.6667 192.275 16.304C192.125 15.8347 192.051 15.3227 192.051 14.768C192.051 14.2133 192.083 13.68 192.147 13.168C192.232 12.6347 192.339 12.1547 192.467 11.728C192.616 11.3013 192.744 10.9707 192.851 10.736C192.979 10.4587 193.171 10.224 193.427 10.032C193.683 9.81867 193.96 9.62667 194.259 9.456C194.579 9.28533 194.899 9.12533 195.219 8.976C195.539 8.82667 195.837 8.688 196.115 8.56C197.203 8.56 198.291 9.104 199.379 10.192ZM209.383 8.144C209.532 8.29333 209.671 8.464 209.799 8.656C209.927 8.82667 210.033 9.008 210.119 9.2C210.289 9.60533 210.375 10.0107 210.375 10.416C210.396 10.8 210.247 11.2693 209.927 11.824C209.564 12.4213 209.095 12.9227 208.519 13.328C207.964 13.7333 207.356 13.9893 206.695 14.096C206.225 14.1813 205.756 14.1813 205.286 14.096C204.817 13.9893 204.369 13.776 203.943 13.456C203.815 13.5627 203.708 13.7227 203.623 13.936C203.559 14.128 203.537 14.3093 203.559 14.48C203.601 14.7787 203.708 15.1093 203.879 15.472C204.071 15.8133 204.273 16.048 204.487 16.176C204.849 16.3253 205.351 16.336 205.991 16.208C206.652 16.08 207.345 15.888 208.071 15.632C208.817 15.3547 209.543 15.056 210.247 14.736C210.972 14.3947 211.591 14.1067 212.103 13.872C212.103 14 212.071 14.0853 212.007 14.128C211.964 14.1707 211.9 14.2453 211.815 14.352C211.708 14.4587 211.591 14.5867 211.463 14.736C211.335 14.8853 211.185 15.0133 211.015 15.12C210.801 15.248 210.641 15.4187 210.535 15.632C210.428 15.824 210.225 16.0053 209.927 16.176C209.521 16.3893 209.105 16.6133 208.679 16.848C208.273 17.0613 207.868 17.264 207.463 17.456C207.057 17.6267 206.641 17.7653 206.215 17.872C205.809 17.9573 205.404 17.9787 204.999 17.936C204.721 17.8933 204.487 17.8187 204.295 17.712C204.124 17.6053 203.911 17.4453 203.655 17.232C203.527 17.1253 203.377 17.0187 203.207 16.912C203.036 16.8053 202.908 16.6987 202.823 16.592C202.46 16.0587 202.215 15.4933 202.087 14.896C201.959 14.2773 201.927 13.6693 201.991 13.072C202.076 12.4533 202.236 11.856 202.471 11.28C202.705 10.6827 203.015 10.1387 203.399 9.648C203.612 9.37067 203.868 9.09333 204.167 8.816C204.487 8.51733 204.828 8.26133 205.191 8.048C205.575 7.81333 205.969 7.632 206.375 7.504C206.801 7.376 207.228 7.32267 207.655 7.344C207.825 7.36533 207.975 7.41867 208.103 7.504C208.252 7.568 208.412 7.64267 208.583 7.728C208.689 7.77067 208.817 7.83467 208.967 7.92C209.137 7.984 209.276 8.05867 209.383 8.144ZM208.455 10.032C208.412 9.84 208.295 9.66933 208.103 9.52C207.911 9.37067 207.697 9.25333 207.463 9.168C207.228 9.06133 206.993 8.99733 206.759 8.976C206.524 8.95467 206.353 8.96533 206.247 9.008C206.076 9.072 205.873 9.18933 205.639 9.36C205.425 9.50933 205.212 9.69067 204.999 9.904C204.807 10.1173 204.615 10.352 204.423 10.608C204.252 10.8427 204.124 11.0667 204.039 11.28C203.996 11.344 203.953 11.4507 203.911 11.6C203.889 11.728 203.9 11.824 203.943 11.888C204.199 12.208 204.583 12.368 205.095 12.368C205.585 12.368 206.108 12.2507 206.663 12.016C207.239 11.7813 207.644 11.536 207.879 11.28C207.9 11.2373 207.943 11.1627 208.007 11.056C208.092 10.9493 208.167 10.832 208.231 10.704C208.295 10.576 208.348 10.448 208.391 10.32C208.455 10.192 208.476 10.096 208.455 10.032Z" fill="#FF635F"/>
</svg>
