<svg width="234" height="525" viewBox="0 0 234 525" fill="none" xmlns="http://www.w3.org/2000/svg">
<path d="M46.8187 492.319L48.2645 492.911L46.8187 492.319ZM41.9625 498.75L42.8876 500.009L42.8959 500.003L42.9041 499.997L41.9625 498.75ZM34.2187 501.244L32.6562 501.244L32.6562 502.852L34.264 502.806L34.2187 501.244ZM34.2187 489.3L34.0593 487.746L32.6562 487.89L32.6562 489.3L34.2187 489.3ZM38.1562 487.528L39.3101 488.582L39.3229 488.568L39.3353 488.553L38.1562 487.528ZM38.3531 479.653L39.5895 478.698L39.5762 478.681L39.5624 478.664L38.3531 479.653ZM32.3156 479.391L33.4205 480.495L33.4363 480.48L33.4516 480.463L32.3156 479.391ZM30.4781 482.212L31.9083 482.842L31.9128 482.832L31.9171 482.821L30.4781 482.212ZM28.8375 486.937L30.3304 487.399L30.3327 487.391L30.335 487.384L28.8375 486.937ZM22.0125 499.078L21.0701 497.832L21.0701 497.832L22.0125 499.078ZM4.95 496.453L6.18528 495.496L6.17682 495.485L4.95 496.453ZM4.95 472.041L6.17687 473.008L6.18523 472.997L4.95 472.041ZM15.0562 467.053L16.6187 467.053L16.6187 465.41L14.9774 465.493L15.0562 467.053ZM15.0562 479.194L15.148 480.754L16.6187 480.667L16.6187 479.194L15.0562 479.194ZM11.5781 480.834L12.7572 481.86L12.7702 481.845L12.7828 481.829L11.5781 480.834ZM11.3812 487.987L12.5764 486.981L12.5613 486.963L12.5457 486.946L11.3812 487.987ZM17.9437 487.134L16.6002 486.337L17.9437 487.134ZM20.6344 480.572L19.1542 480.071L19.1509 480.081L19.1477 480.091L20.6344 480.572ZM23.5219 473.353L24.9194 474.052L24.9227 474.045L24.9259 474.039L23.5219 473.353ZM27.525 468.497L28.4821 469.732L28.4821 469.732L27.525 468.497ZM41.4375 468.497L40.6021 469.817L40.6118 469.823L40.6216 469.829L41.4375 468.497ZM46.5563 474.272L45.1587 474.971L46.5563 474.272ZM46.8969 483.262C46.8969 486.462 46.3778 489.274 45.373 491.726L48.2645 492.911C49.4472 490.026 50.0219 486.801 50.0219 483.262L46.8969 483.262ZM45.373 491.726C44.3774 494.155 42.9244 496.066 41.0209 497.503L42.9041 499.997C45.288 498.197 47.0726 495.82 48.2645 492.911L45.373 491.726ZM41.0374 497.491C39.183 498.853 36.9195 499.602 34.1735 499.682L34.264 502.806C37.5555 502.71 40.4545 501.797 42.8876 500.009L41.0374 497.491ZM35.7812 501.244L35.7812 489.3L32.6562 489.3L32.6562 501.244L35.7812 501.244ZM34.3782 490.854C36.3638 490.651 38.0708 489.939 39.3101 488.582L37.0024 486.475C36.4042 487.13 35.4862 487.599 34.0593 487.746L34.3782 490.854ZM39.3353 488.553C40.5077 487.205 41.0312 485.502 41.0312 483.591L37.9062 483.591C37.9062 484.917 37.5548 485.839 36.9772 486.503L39.3353 488.553ZM41.0312 483.591C41.0312 481.708 40.6103 480.019 39.5895 478.698L37.1167 480.609C37.5835 481.213 37.9062 482.149 37.9062 483.591L41.0312 483.591ZM39.5624 478.664C38.4489 477.303 36.914 476.647 35.1375 476.647L35.1375 479.772C36.0735 479.772 36.6824 480.079 37.1438 480.643L39.5624 478.664ZM35.1375 476.647C33.5943 476.647 32.2348 477.201 31.1797 478.318L33.4516 480.463C33.8839 480.006 34.4057 479.772 35.1375 479.772L35.1375 476.647ZM31.2108 478.286C30.3022 479.194 29.5853 480.313 29.0391 481.604L31.9171 482.821C32.3334 481.837 32.8415 481.074 33.4205 480.495L31.2108 478.286ZM29.0479 481.583C28.5276 482.766 27.959 484.413 27.34 486.491L30.335 487.384C30.941 485.349 31.4661 483.847 31.9083 482.842L29.0479 481.583ZM27.3446 486.476C26.4393 489.408 25.548 491.753 24.6772 493.536L27.4853 494.908C28.452 492.928 29.3982 490.417 30.3304 487.399L27.3446 486.476ZM24.6772 493.536C23.8741 495.181 22.683 496.612 21.0701 497.832L22.9549 500.324C24.9295 498.831 26.4509 497.025 27.4853 494.908L24.6772 493.536ZM21.0701 497.832C19.6162 498.931 17.6353 499.55 14.9906 499.55L14.9906 502.675C18.121 502.675 20.8212 501.938 22.9549 500.324L21.0701 497.832ZM14.9906 499.55C11.1357 499.55 8.26584 498.182 6.18523 495.496L3.71476 497.41C6.44666 500.937 10.2706 502.675 14.9906 502.675L14.9906 499.55ZM6.17682 495.485C3.99569 492.72 2.8375 489.042 2.8375 484.312L-0.287502 484.313C-0.287501 489.558 1.00431 493.974 3.72318 497.421L6.17682 495.485ZM2.8375 484.312C2.8375 479.488 3.99925 475.769 6.17682 473.008L3.72318 471.073C1.00074 474.525 -0.287502 478.987 -0.287502 484.313L2.8375 484.312ZM6.18523 472.997C8.28145 470.291 11.2057 468.812 15.1351 468.614L14.9774 465.493C10.2443 465.732 6.43105 467.577 3.71476 471.084L6.18523 472.997ZM13.4937 467.053L13.4937 479.194L16.6187 479.194L16.6187 467.053L13.4937 467.053ZM14.9645 477.634C13.1112 477.743 11.5215 478.45 10.3735 479.839L12.7828 481.829C13.2973 481.207 14.0263 480.82 15.148 480.754L14.9645 477.634ZM10.3991 479.809C9.23337 481.15 8.70312 482.826 8.70312 484.706L11.8281 484.706C11.8281 483.436 12.1729 482.532 12.7572 481.86L10.3991 479.809ZM8.70312 484.706C8.70312 486.36 9.16409 487.853 10.2168 489.029L12.5457 486.946C12.1109 486.46 11.8281 485.765 11.8281 484.706L8.70312 484.706ZM10.1861 488.994C11.2546 490.263 12.7727 490.797 14.4656 490.797L14.4656 487.672C13.446 487.672 12.9079 487.375 12.5764 486.981L10.1861 488.994ZM14.4656 490.797C16.5647 490.797 18.2067 489.752 19.2873 487.932L16.6002 486.337C16.0183 487.317 15.3415 487.672 14.4656 487.672L14.4656 490.797ZM19.2873 487.932C20.2096 486.379 21.1491 484.057 22.121 481.053L19.1477 480.091C18.1947 483.037 17.3404 485.09 16.6002 486.337L19.2873 487.932ZM22.1145 481.073C23.1084 478.134 24.0447 475.801 24.9194 474.052L22.1243 472.654C21.1615 474.58 20.1728 477.06 19.1542 480.071L22.1145 481.073ZM24.9259 474.039C25.7337 472.385 26.91 470.95 28.4821 469.732L26.5679 467.262C24.64 468.756 23.1476 470.559 22.1179 472.667L24.9259 474.039ZM28.4821 469.732C29.8969 468.635 31.7881 468.025 34.2844 468.025L34.2844 464.9C31.2682 464.9 28.6531 465.646 26.5679 467.262L28.4821 469.732ZM34.2844 468.025C36.6245 468.025 38.7173 468.625 40.6021 469.817L42.2729 467.176C39.8702 465.656 37.1943 464.9 34.2844 464.9L34.2844 468.025ZM40.6216 469.829C42.485 470.97 44.0034 472.66 45.1587 474.971L47.9538 473.573C46.5716 470.809 44.6775 468.648 42.2534 467.164L40.6216 469.829ZM45.1587 474.971C46.2978 477.249 46.8969 479.997 46.8969 483.262L50.0219 483.262C50.0219 479.616 49.3522 476.37 47.9538 473.573L45.1587 474.971ZM1.93125 448.335L1.93125 446.772L0.368746 446.772L0.368746 448.335L1.93125 448.335ZM48 448.335L49.5625 448.335L49.5625 446.772L48 446.772L48 448.335ZM48 459.556L48 461.119L49.5625 461.119L49.5625 459.556L48 459.556ZM1.93125 459.556L0.368747 459.556L0.368747 461.119L1.93125 461.119L1.93125 459.556ZM1.93125 449.897L48 449.897L48 446.772L1.93125 446.772L1.93125 449.897ZM46.4375 448.335L46.4375 459.556L49.5625 459.556L49.5625 448.335L46.4375 448.335ZM48 457.994L1.93125 457.994L1.93125 461.119L48 461.119L48 457.994ZM3.49375 459.556L3.49375 448.335L0.368746 448.335L0.368747 459.556L3.49375 459.556ZM1.93124 388.03L1.93124 386.468L0.368743 386.468L0.368743 388.03L1.93124 388.03ZM48 388.03L49.5625 388.03L49.5625 386.468L48 386.468L48 388.03ZM48 399.252L48 400.815L49.5625 400.815L49.5625 399.252L48 399.252ZM20.3719 399.252L20.3719 397.69L19.8259 400.716L20.3719 399.252ZM48 409.555L49.5625 409.555L49.5625 408.47L48.546 408.091L48 409.555ZM48 418.612L48.5479 420.075L49.5625 419.695L49.5625 418.612L48 418.612ZM20.3062 428.98L19.7584 427.517L20.3062 430.543L20.3062 428.98ZM48 428.98L49.5625 428.98L49.5625 427.418L48 427.418L48 428.98ZM48 440.202L48 441.765L49.5625 441.765L49.5625 440.202L48 440.202ZM1.93125 440.202L0.368746 440.202L0.368746 441.765L1.93125 441.765L1.93125 440.202ZM1.93125 426.946L1.34428 425.498L0.368745 425.893L0.368745 426.946L1.93125 426.946ZM33.825 414.018L34.412 415.466L38.0026 414.01L34.4068 412.568L33.825 414.018ZM1.93124 401.221L0.368744 401.221L0.368744 402.278L1.3494 402.671L1.93124 401.221ZM1.93124 389.593L48 389.593L48 386.468L1.93124 386.468L1.93124 389.593ZM46.4375 388.03L46.4375 399.252L49.5625 399.252L49.5625 388.03L46.4375 388.03ZM48 397.69L20.3719 397.69L20.3719 400.815L48 400.815L48 397.69ZM19.8259 400.716L47.454 411.019L48.546 408.091L20.9178 397.788L19.8259 400.716ZM46.4375 409.555L46.4375 418.612L49.5625 418.612L49.5625 409.555L46.4375 409.555ZM47.4521 417.148L19.7584 427.517L20.8541 430.444L48.5479 420.075L47.4521 417.148ZM20.3062 430.543L48 430.543L48 427.418L20.3062 427.418L20.3062 430.543ZM46.4375 428.98L46.4375 440.202L49.5625 440.202L49.5625 428.98L46.4375 428.98ZM48 438.64L1.93125 438.64L1.93125 441.765L48 441.765L48 438.64ZM3.49375 440.202L3.49375 426.946L0.368745 426.946L0.368746 440.202L3.49375 440.202ZM2.51822 428.394L34.412 415.466L33.238 412.57L1.34428 425.498L2.51822 428.394ZM34.4068 412.568L2.51308 399.771L1.3494 402.671L33.2432 415.468L34.4068 412.568ZM3.49374 401.221L3.49374 388.03L0.368743 388.03L0.368744 401.221L3.49374 401.221ZM24.1125 346.689L24.876 345.325L24.8645 345.319L24.1125 346.689ZM29.4281 352.332L28.0501 353.069L29.4281 352.332ZM31.4625 368.739L29.9 368.739L29.9 370.301L31.4625 370.301L31.4625 368.739ZM48 368.739L49.5625 368.739L49.5625 367.176L48 367.176L48 368.739ZM48 379.961L48 381.523L49.5625 381.523L49.5625 379.961L48 379.961ZM1.93124 379.961L0.368743 379.961L0.368743 381.523L1.93124 381.523L1.93124 379.961ZM3.83437 352.464L2.43682 351.765L3.83437 352.464ZM10.9875 368.739L9.42499 368.739L9.42499 370.301L10.9875 370.301L10.9875 368.739ZM22.5375 368.739L22.5375 370.301L24.1 370.301L24.1 368.739L22.5375 368.739ZM16.7625 346.414C19.1816 346.414 21.371 346.966 23.3605 348.058L24.8645 345.319C22.3915 343.961 19.6809 343.289 16.7625 343.289L16.7625 346.414ZM23.349 348.052C25.2392 349.11 26.8133 350.755 28.0501 353.069L30.8061 351.596C29.3304 348.835 27.3608 346.717 24.8759 345.325L23.349 348.052ZM28.0501 353.069C29.2537 355.321 29.9 358.2 29.9 361.782L33.025 361.782C33.025 357.839 32.315 354.419 30.8061 351.596L28.0501 353.069ZM29.9 361.782L29.9 368.739L33.025 368.739L33.025 361.782L29.9 361.782ZM31.4625 370.301L48 370.301L48 367.176L31.4625 367.176L31.4625 370.301ZM46.4375 368.739L46.4375 379.961L49.5625 379.961L49.5625 368.739L46.4375 368.739ZM48 378.398L1.93124 378.398L1.93124 381.523L48 381.523L48 378.398ZM3.49374 379.961L3.49374 361.782L0.368742 361.782L0.368743 379.961L3.49374 379.961ZM3.49374 361.782C3.49374 358.281 4.09884 355.429 5.23191 353.162L2.43682 351.765C1.0324 354.574 0.368742 357.934 0.368742 361.782L3.49374 361.782ZM5.23191 353.162C6.37737 350.872 7.92265 349.212 9.85671 348.113L8.31202 345.396C5.78358 346.834 3.82886 348.981 2.43682 351.765L5.23191 353.162ZM9.85671 348.113C11.8243 346.994 14.1113 346.414 16.7625 346.414L16.7625 343.289C13.6387 343.289 10.8069 343.977 8.31202 345.396L9.85671 348.113ZM24.1 362.636C24.1 360.278 23.5491 358.217 22.1562 356.764L19.9 358.926C20.5197 359.573 20.975 360.706 20.975 362.636L24.1 362.636ZM22.1562 356.764C20.782 355.33 18.907 354.707 16.7625 354.707L16.7625 357.832C18.293 357.832 19.2617 358.26 19.9 358.926L22.1562 356.764ZM16.7625 354.707C14.618 354.707 12.7429 355.33 11.3688 356.764L13.625 358.926C14.2633 358.26 15.232 357.832 16.7625 357.832L16.7625 354.707ZM11.3688 356.764C9.9759 358.217 9.42499 360.278 9.42499 362.636L12.55 362.636C12.55 360.706 13.0053 359.573 13.625 358.926L11.3688 356.764ZM9.42499 362.636L9.42499 368.739L12.55 368.739L12.55 362.636L9.42499 362.636ZM10.9875 370.301L22.5375 370.301L22.5375 367.176L10.9875 367.176L10.9875 370.301ZM24.1 368.739L24.1 362.636L20.975 362.636L20.975 368.739L24.1 368.739ZM39.3375 327.787L39.3375 329.35L40.9 329.35L40.9 327.787L39.3375 327.787ZM39.3375 313.087L39.3375 311.525L37.775 311.525L37.775 313.087L39.3375 313.087ZM48 313.087L49.5625 313.087L49.5625 311.525L48 311.525L48 313.087ZM48 339.009L48 340.572L49.5625 340.572L49.5625 339.009L48 339.009ZM1.93124 339.009L0.368741 339.009L0.368741 340.572L1.93124 340.572L1.93124 339.009ZM1.93124 327.787L1.93124 326.225L0.368741 326.225L0.368741 327.787L1.93124 327.787ZM40.9 327.787L40.9 313.087L37.775 313.087L37.775 327.787L40.9 327.787ZM39.3375 314.65L48 314.65L48 311.525L39.3375 311.525L39.3375 314.65ZM46.4375 313.087L46.4375 339.009L49.5625 339.009L49.5625 313.087L46.4375 313.087ZM48 337.447L1.93124 337.447L1.93124 340.572L48 340.572L48 337.447ZM3.49374 339.009L3.49374 327.787L0.368741 327.787L0.368741 339.009L3.49374 339.009ZM1.93124 329.35L39.3375 329.35L39.3375 326.225L1.93124 326.225L1.93124 329.35ZM10.9219 296.513L9.35937 296.513L9.35937 298.075L10.9219 298.075L10.9219 296.513ZM20.2406 296.513L20.2406 298.075L21.8031 298.075L21.8031 296.513L20.2406 296.513ZM20.2406 281.485L20.2406 279.922L18.6781 279.922L18.6781 281.485L20.2406 281.485ZM28.9031 281.485L30.4656 281.485L30.4656 279.922L28.9031 279.922L28.9031 281.485ZM28.9031 296.513L27.3406 296.513L27.3406 298.075L28.9031 298.075L28.9031 296.513ZM39.0094 296.513L39.0094 298.075L40.5719 298.075L40.5719 296.513L39.0094 296.513ZM39.0094 279.516L39.0094 277.953L37.4469 277.953L37.4469 279.516L39.0094 279.516ZM48 279.516L49.5625 279.516L49.5625 277.953L48 277.953L48 279.516ZM48 307.735L48 309.297L49.5625 309.297L49.5625 307.735L48 307.735ZM1.93124 307.735L0.36874 307.735L0.36874 309.297L1.93124 309.297L1.93124 307.735ZM1.93124 279.516L1.93124 277.953L0.368739 277.953L0.368739 279.516L1.93124 279.516ZM10.9219 279.516L12.4844 279.516L12.4844 277.953L10.9219 277.953L10.9219 279.516ZM10.9219 298.075L20.2406 298.075L20.2406 294.95L10.9219 294.95L10.9219 298.075ZM21.8031 296.513L21.8031 281.485L18.6781 281.485L18.6781 296.513L21.8031 296.513ZM20.2406 283.047L28.9031 283.047L28.9031 279.922L20.2406 279.922L20.2406 283.047ZM27.3406 281.485L27.3406 296.513L30.4656 296.513L30.4656 281.485L27.3406 281.485ZM28.9031 298.075L39.0094 298.075L39.0094 294.95L28.9031 294.95L28.9031 298.075ZM40.5719 296.513L40.5719 279.516L37.4469 279.516L37.4469 296.513L40.5719 296.513ZM39.0094 281.078L48 281.078L48 277.953L39.0094 277.953L39.0094 281.078ZM46.4375 279.516L46.4375 307.735L49.5625 307.735L49.5625 279.516L46.4375 279.516ZM48 306.172L1.93124 306.172L1.93124 309.297L48 309.297L48 306.172ZM3.49374 307.735L3.49374 279.516L0.368739 279.516L0.36874 307.735L3.49374 307.735ZM1.93124 281.078L10.9219 281.078L10.9219 277.953L1.93124 277.953L1.93124 281.078ZM9.35937 279.516L9.35937 296.513L12.4844 296.513L12.4844 279.516L9.35937 279.516Z" fill="#007EF2"/>
<path d="M133.959 33.8123C134.958 27.3458 138.354 21.4923 143.473 17.4168C148.592 13.3413 155.058 11.3425 161.584 11.8181L162.941 11.913C177.377 13.8126 183.822 27.1502 181.529 41.5326L176.495 92.5765L176.251 103.119L141.856 106.24L142.602 83.9606C142.602 83.9606 128.816 80.7857 129.658 66.8375C130.01 60.094 132.032 46.2815 133.959 33.8123Z" fill="#FFBF9D"/>
<path d="M142.48 83.9334C148.96 84.3988 155.438 82.9855 161.136 79.8629C161.136 79.8629 156.292 89.9306 142.48 87.6647V83.9334Z" fill="#FF9A6C"/>
<path d="M139.358 47.7198C139.316 48.2383 139.479 48.7527 139.811 49.1532C140.143 49.5537 140.618 49.8086 141.136 49.8635C141.387 49.8999 141.643 49.8863 141.889 49.8234C142.135 49.7605 142.366 49.6495 142.569 49.4969C142.772 49.3444 142.943 49.1532 143.072 48.9343C143.201 48.7155 143.285 48.4733 143.32 48.2218C143.366 47.701 143.205 47.1831 142.873 46.7796C142.54 46.3762 142.063 46.1193 141.543 46.0644C141.29 46.0281 141.033 46.0423 140.787 46.106C140.54 46.1698 140.308 46.2819 140.105 46.4359C139.902 46.5899 139.731 46.7826 139.603 47.003C139.475 47.2234 139.392 47.467 139.358 47.7198Z" fill="#263238"/>
<path d="M136.455 40.8543C136.685 41.1257 138.273 40.1216 140.417 40.2845C142.56 40.4473 144.053 41.6413 144.297 41.3835C144.541 41.1257 144.202 40.7865 143.564 40.2438C142.682 39.5334 141.602 39.1118 140.471 39.0362C139.358 38.9617 138.25 39.2317 137.296 39.8096C136.604 40.2709 136.346 40.7322 136.455 40.8543Z" fill="#263238"/>
<path d="M159.44 49.6329C159.394 50.1501 159.554 50.6645 159.883 51.0655C160.213 51.4664 160.687 51.7218 161.204 51.7767C161.456 51.8169 161.713 51.806 161.96 51.7446C162.208 51.6832 162.44 51.5726 162.644 51.4194C162.848 51.2662 163.019 51.0735 163.147 50.8528C163.275 50.6322 163.357 50.388 163.388 50.1349C163.43 49.617 163.27 49.1028 162.941 48.7005C162.612 48.2982 162.14 48.0391 161.624 47.9776C161.371 47.9375 161.113 47.9488 160.865 48.0111C160.616 48.0733 160.383 48.1851 160.179 48.3397C159.975 48.4943 159.805 48.6885 159.677 48.9108C159.55 49.133 159.47 49.3787 159.44 49.6329Z" fill="#263238"/>
<path d="M157.486 42.781C157.717 43.066 159.304 42.0619 161.448 42.2112C163.592 42.3604 165.084 43.568 165.328 43.3238C165.573 43.0796 165.233 42.7268 164.582 42.1705C163.704 41.4621 162.628 41.0448 161.502 40.9765C160.388 40.8862 159.275 41.1574 158.327 41.7499C157.635 42.2112 157.377 42.6996 157.486 42.781Z" fill="#263238"/>
<path d="M148.558 58.0996C147.454 57.6655 146.301 57.3693 145.125 57.2177C144.582 57.1227 144.067 56.9734 143.999 56.5935C144 56.0275 144.17 55.4746 144.487 55.0061L146.414 50.9356C149.128 45.169 151.068 40.4066 150.837 40.298C150.607 40.1895 148.246 44.7891 145.559 50.5556C144.921 51.9125 144.297 53.2693 143.714 54.6261C143.318 55.2612 143.16 56.0157 143.266 56.7564C143.331 56.9538 143.441 57.1335 143.587 57.2817C143.733 57.43 143.911 57.5427 144.107 57.6112C144.405 57.7171 144.715 57.7855 145.03 57.8147C146.189 58.0586 147.375 58.1544 148.558 58.0996Z" fill="#263238"/>
<path d="M154.745 60.0397C154.406 60.0397 154.229 62.3192 152.126 63.8252C150.023 65.3313 147.554 64.8971 147.513 65.1821C147.472 65.467 148.029 65.6705 149.073 65.7791C150.435 65.8978 151.795 65.5327 152.913 64.7479C153.985 63.9925 154.721 62.8485 154.962 61.5593C155.125 60.6367 154.908 60.0397 154.745 60.0397Z" fill="#263238"/>
<path d="M157.54 34.3552C157.717 34.9522 159.874 34.83 162.357 35.3185C164.84 35.807 166.834 36.6753 167.214 36.1326C167.377 35.8884 167.065 35.3185 166.278 34.6944C165.234 33.9284 164.03 33.4085 162.757 33.1736C161.483 32.9386 160.173 32.9947 158.924 33.3375C157.974 33.636 157.472 34.0702 157.54 34.3552Z" fill="#263238"/>
<path d="M137.703 34.7078C138.042 35.2234 139.548 34.83 141.326 34.9249C143.103 35.0199 144.582 35.4948 144.962 35.0063C145.139 34.7757 144.962 34.2737 144.311 33.7581C143.466 33.1471 142.459 32.7982 141.417 32.7547C140.375 32.7113 139.343 32.9753 138.449 33.5138C137.798 33.9752 137.554 34.4636 137.703 34.7078Z" fill="#263238"/>
<path d="M178.299 54.9112C178.352 54.4014 178.508 53.9077 178.758 53.4602C179.008 53.0127 179.346 52.6209 179.752 52.3085C180.159 51.9961 180.624 51.7699 181.121 51.6435C181.618 51.5171 182.135 51.4932 182.641 51.5734C185.233 52.0076 188.068 53.69 187.444 59.0495C186.454 68.5473 177.105 65.5894 177.119 65.3181C177.132 65.0467 177.838 58.9003 178.299 54.9112Z" fill="#FFBF9D"/>
<path d="M179.575 61.9665C179.575 61.9665 179.724 62.1022 179.996 62.265C180.373 62.472 180.815 62.5254 181.23 62.4142C181.887 62.0933 182.445 61.6014 182.847 60.9902C183.248 60.379 183.477 59.6711 183.51 58.9408C183.613 58.1295 183.539 57.3054 183.293 56.5256C183.228 56.2275 183.093 55.9491 182.9 55.7132C182.706 55.4773 182.46 55.2907 182.18 55.1688C181.994 55.101 181.79 55.0991 181.602 55.1633C181.415 55.2274 181.255 55.3539 181.149 55.5216C181 55.7794 181.04 55.9693 180.986 55.9829C180.932 55.9964 180.796 55.8065 180.986 55.4266C181.056 55.1935 181.211 54.9951 181.42 54.8703C181.561 54.7832 181.717 54.7251 181.88 54.6994C182.043 54.6738 182.21 54.6811 182.37 54.721C182.727 54.8385 183.05 55.0405 183.313 55.3098C183.575 55.5791 183.768 55.9078 183.876 56.2678C184.194 57.1348 184.292 58.0673 184.161 58.9815C183.903 60.881 182.804 62.5771 181.325 62.8213C181.062 62.8724 180.79 62.8622 180.532 62.7916C180.273 62.721 180.034 62.5919 179.833 62.4142C179.561 62.2107 179.534 61.9936 179.575 61.9665Z" fill="#FF9A6C"/>
<path d="M185.912 45.2369C185.125 47.9506 185.41 52.4959 182.981 51.8718C178.137 50.6506 179.304 60.5691 176.984 59.5921C174.664 58.6152 172.669 55.8202 172.52 49.7144C172.343 41.9805 175.451 36.3904 172.411 27.5167C171.438 25.7488 170.025 24.2618 168.309 23.1994C166.593 22.1369 164.632 21.535 162.615 21.4517C160.583 21.4071 158.572 21.8822 156.775 22.832C154.977 23.7818 153.452 25.1748 152.344 26.879C151.91 24.1654 150.594 20.0949 148.192 18.738C146.988 18.0786 145.617 17.7874 144.249 17.9008C142.882 18.0142 141.577 18.5271 140.499 19.3757C139.468 20.2799 138.798 21.5264 138.614 22.8853C138.429 24.2442 138.742 25.6241 139.495 26.7705C138.939 26.9387 138.343 26.924 137.796 26.7286C137.249 26.5333 136.779 26.1674 136.455 25.685C136.404 26.3161 136.485 26.9509 136.693 27.5489C136.901 28.1469 137.232 28.6951 137.663 29.1585C136.663 28.9077 135.789 28.2996 135.207 27.4489C135.451 28.5751 135.682 29.6877 135.926 30.8003C131.856 30.9088 127.867 26.9604 126.727 23.4598C125.017 18.1275 126.333 12.7544 129.318 8.0191C130.777 5.62556 132.814 3.63688 135.242 2.23574C137.669 0.8346 140.41 0.0659012 143.212 0.000244141C148.803 0.000244141 153.484 2.7139 155.641 7.85628C159.277 5.29188 166.631 4.39637 170.675 6.24165C172.697 7.18706 174.444 8.63502 175.748 10.4474C177.052 12.2597 177.87 14.376 178.124 16.5943C179.425 16.1383 180.825 16.0363 182.179 16.2985C183.533 16.5607 184.793 17.1779 185.83 18.0868L186.346 18.5345C187.768 19.8908 188.824 21.585 189.414 23.4593C190.005 25.3335 190.112 27.3269 189.724 29.2535C189.426 30.8138 188.883 32.4149 188.571 33.6631C187.635 37.4216 185.912 45.2369 185.912 45.2369Z" fill="#263238"/>
<path d="M135.817 25.495C135.817 25.495 135.695 25.495 135.492 25.2372C135.197 24.9751 134.928 24.6842 134.691 24.3688C133.796 23.1835 133.242 21.7758 133.09 20.2984C132.955 19.2062 133.055 18.0978 133.382 17.0472C133.71 15.9966 134.258 15.0281 134.99 14.2062C135.891 13.1975 137.023 12.4234 138.291 11.9506C139.558 11.4778 140.921 11.3206 142.262 11.4925C143.644 11.7046 144.961 12.2239 146.116 13.0122C147.205 13.7079 148.18 14.5684 149.006 15.563C151.323 18.4104 152.529 22.0023 152.398 25.6714C152.398 26.187 152.398 26.5805 152.276 26.8518C152.266 26.9904 152.238 27.1272 152.194 27.2589C152.327 25.2923 152.139 23.3173 151.638 21.411C151.061 19.3595 150.063 17.451 148.707 15.8073C147.109 13.7488 144.811 12.3487 142.249 11.8725C140.97 11.7156 139.672 11.8693 138.465 12.3204C137.258 12.7715 136.178 13.5068 135.315 14.464C134.611 15.2457 134.08 16.1666 133.755 17.1671C133.43 18.1675 133.319 19.2251 133.429 20.2712C133.555 21.6988 134.051 23.069 134.868 24.2467C135.437 25.0608 135.844 25.4679 135.817 25.495Z" fill="#455A64"/>
<path d="M133.945 29.7554C133.832 29.6135 133.736 29.4587 133.66 29.294C133.484 28.982 133.226 28.5206 132.914 27.9372C132.002 26.2384 131.253 24.4576 130.675 22.6184C130.293 21.3357 130.083 20.008 130.051 18.6701C130.001 17.1222 130.283 15.5816 130.878 14.1518C131.564 12.5618 132.701 11.2078 134.148 10.2577C135.695 9.25129 137.476 8.66233 139.318 8.54813C141.167 8.44889 143.016 8.74014 144.745 9.40293C146.333 10.0195 147.819 10.8701 149.155 11.9266C151.49 13.6523 153.185 16.1058 153.972 18.9007C154.469 20.7931 154.369 22.7928 153.687 24.6265C153.503 25.1037 153.266 25.5588 152.981 25.9834C152.891 26.1445 152.776 26.2909 152.642 26.4176C152.999 25.8183 153.299 25.1868 153.537 24.5316C154.14 22.7241 154.192 20.7785 153.687 18.9414C152.879 16.219 151.201 13.8362 148.911 12.1573C146.233 9.97677 142.865 8.82221 139.413 8.9009C137.639 9.00936 135.924 9.57496 134.433 10.5427C133.054 11.4445 131.966 12.7263 131.299 14.2332C130.721 15.6157 130.439 17.104 130.471 18.6022C130.485 19.9102 130.672 21.2105 131.028 22.4692C131.569 24.3011 132.273 26.0811 133.131 27.788L133.809 29.1448C133.879 29.342 133.925 29.5471 133.945 29.7554Z" fill="#455A64"/>
<path d="M182.546 39.0767C182.546 39.0767 183.428 38.3575 184.595 36.9871C186.099 35.1938 187.142 33.0607 187.634 30.7729C188.098 28.4792 187.986 26.1065 187.309 23.8666C186.793 22.1434 186.21 21.153 186.278 21.153C186.458 21.347 186.609 21.5664 186.725 21.8042C187.07 22.439 187.36 23.1016 187.594 23.7852C188.376 26.0636 188.531 28.5106 188.041 30.8693C187.552 33.2281 186.436 35.4116 184.812 37.1907C184.326 37.7276 183.795 38.2223 183.225 38.6696C183.021 38.839 182.792 38.9763 182.546 39.0767Z" fill="#455A64"/>
<path d="M173.876 38.8052C173.876 38.8052 174.351 38.5881 175.111 38.0726C176.162 37.3486 176.993 36.3486 177.513 35.1825L177.906 34.2734L177.825 35.2639C177.703 36.6207 177.567 38.154 177.418 39.8229L177.106 39.6329C178.468 38.7023 179.632 37.5108 180.531 36.1274C181.43 34.7441 182.046 33.1962 182.343 31.5734C182.603 30.0922 182.603 28.577 182.343 27.0958C182.045 25.736 181.59 24.4155 180.986 23.161C180.986 23.161 181.054 23.2288 181.163 23.3917C181.318 23.6269 181.458 23.8716 181.583 24.1244C182.058 25.0468 182.409 26.0276 182.628 27.0415C183.132 29.4787 182.898 32.011 181.955 34.3144C181.013 36.6178 179.405 38.5877 177.336 39.9721L176.984 40.2028V39.7822C177.16 38.1133 177.323 36.5665 177.472 35.2368L177.784 35.3182C177.214 36.5209 176.31 37.5337 175.179 38.2354C174.869 38.4162 174.548 38.5749 174.216 38.7103C174.109 38.7614 173.994 38.7935 173.876 38.8052Z" fill="#455A64"/>
<path d="M171.23 18.7515C170.681 17.7124 169.935 16.7906 169.032 16.0378C168.032 15.2416 166.854 14.6972 165.6 14.4503C164.067 14.1588 162.484 14.2997 161.027 14.8574C159.558 15.4071 158.241 16.3003 157.187 17.4625C156.325 18.4142 155.623 19.5004 155.111 20.6782C154.677 21.784 154.332 22.9229 154.08 24.0838C154.051 23.7611 154.074 23.4359 154.148 23.1205C154.284 22.2428 154.516 21.3828 154.84 20.5561C155.327 19.3264 156.02 18.1885 156.889 17.1911C157.978 15.9758 159.347 15.0443 160.878 14.4775C162.41 13.8965 164.075 13.7601 165.681 14.084C166.987 14.3596 168.205 14.9565 169.222 15.8207C169.903 16.4027 170.469 17.1068 170.891 17.8967C170.999 18.1127 171.094 18.3347 171.176 18.5615C171.23 18.6565 171.244 18.7379 171.23 18.7515Z" fill="#455A64"/>
<path d="M169.005 11.4923C168.171 11.0616 167.293 10.7205 166.387 10.4747C164.166 9.99964 161.849 10.3265 159.847 11.3974C157.875 12.5271 156.269 14.1988 155.22 16.2141C154.392 17.7609 154.121 18.8328 154.053 18.8056C154.056 18.5467 154.102 18.29 154.189 18.0458C154.383 17.3687 154.637 16.7103 154.948 16.0784C155.963 13.9572 157.601 12.1962 159.643 11.031C161.718 9.90809 164.14 9.60775 166.427 10.1898C167.111 10.3701 167.764 10.6489 168.367 11.0174C168.605 11.1396 168.82 11.3001 169.005 11.4923Z" fill="#455A64"/>
<path d="M138.382 460.748L139.345 486.84C139.345 486.84 113.145 496.582 112.846 501.426H163.51L163.687 460.721L138.382 460.748Z" fill="#263238"/>
<path d="M155.003 484.642C155.492 484.787 155.91 485.109 156.176 485.545C156.442 485.981 156.536 486.501 156.441 487.002C156.31 487.495 155.995 487.919 155.561 488.186C155.127 488.454 154.607 488.545 154.107 488.441C153.593 488.28 153.156 487.935 152.88 487.472C152.605 487.008 152.51 486.459 152.615 485.931C152.799 485.429 153.172 485.02 153.653 484.789C154.135 484.559 154.687 484.525 155.193 484.696" fill="#E0E0E0"/>
<path d="M163.51 501.385L163.374 497.314L114.854 498.888C114.854 498.888 112.588 499.879 112.846 501.466L163.51 501.385Z" fill="#263238"/>
<path d="M138.518 486.595C138.518 486.84 139.766 486.948 140.987 487.735C142.208 488.522 142.846 489.581 143.076 489.472C143.307 489.363 142.941 487.952 141.448 487.016C139.956 486.08 138.463 486.351 138.518 486.595Z" fill="white"/>
<path d="M133.212 488.793C133.212 489.038 134.23 489.445 135.071 490.503C135.912 491.561 136.157 492.647 136.428 492.633C136.699 492.62 136.822 491.276 135.763 489.92C134.705 488.563 133.212 488.549 133.212 488.793Z" fill="white"/>
<path d="M130.2 495.157C130.417 495.157 130.77 493.963 130.2 492.62C129.63 491.276 128.409 490.72 128.301 490.924C128.192 491.127 128.911 491.86 129.413 492.972C129.915 494.085 130.01 495.13 130.2 495.157Z" fill="white"/>
<path d="M138.965 480.612C139.074 480.842 140.2 480.503 141.598 480.612C142.995 480.72 144.094 481.141 144.216 480.924C144.338 480.707 143.294 479.838 141.652 479.743C140.01 479.648 138.843 480.422 138.965 480.612Z" fill="white"/>
<path d="M196.495 463.136L198.503 494.668L192.913 520.068C192.819 520.504 192.816 520.953 192.903 521.39C192.991 521.827 193.168 522.24 193.422 522.606C193.677 522.971 194.004 523.28 194.383 523.514C194.762 523.747 195.185 523.9 195.626 523.962C196.134 524.04 196.653 523.994 197.14 523.829C197.626 523.663 198.066 523.383 198.421 523.013C203.048 518.196 219.995 500.381 219.71 498.088C219.398 495.374 219.791 464.696 219.791 464.696L196.495 463.136Z" fill="#263238"/>
<path d="M195.627 523.962L219.629 495.958V497.314C219.676 498.47 219.311 499.605 218.598 500.516C216.698 502.945 211.284 509.567 198.462 523.026C198.096 523.41 197.64 523.697 197.136 523.863C196.632 524.028 196.095 524.067 195.572 523.976L195.627 523.962Z" fill="#263238"/>
<g opacity="0.6">
<path d="M212.777 486.039C212.396 486.338 212.14 486.767 212.06 487.244C211.98 487.721 212.08 488.211 212.342 488.617C212.63 489.003 213.055 489.265 213.529 489.348C214.003 489.431 214.491 489.33 214.893 489.065C215.286 488.745 215.548 488.292 215.628 487.791C215.708 487.29 215.601 486.778 215.327 486.351C214.989 485.972 214.514 485.741 214.007 485.708C213.499 485.675 212.999 485.843 212.614 486.175" fill="white"/>
</g>
<path d="M202.275 509.879C201.471 508.924 200.495 508.127 199.398 507.531C198.223 507.118 196.979 506.934 195.735 506.988C195.735 506.907 196.101 506.649 196.834 506.514C197.801 506.365 198.791 506.497 199.686 506.893C200.58 507.29 201.342 507.935 201.881 508.752C202.275 509.417 202.343 509.838 202.275 509.879Z" fill="white"/>
<path d="M200.199 514.193C199.274 513.723 198.323 513.306 197.35 512.945C196.319 512.801 195.282 512.711 194.243 512.673C194.718 512.355 195.262 512.153 195.831 512.085C196.399 512.017 196.975 512.083 197.513 512.28C199.399 512.741 200.362 514.098 200.199 514.193Z" fill="white"/>
<path d="M206.236 504.288C204.869 503.443 203.44 502.699 201.962 502.063C200.412 501.654 198.834 501.354 197.241 501.168C198.882 500.774 200.601 500.859 202.195 501.412C203.789 501.965 205.192 502.963 206.236 504.288Z" fill="white"/>
<path d="M206.427 494.655C206.346 494.845 204.568 494.18 202.357 494.194C200.145 494.207 198.286 494.831 198.286 494.628C199.533 493.882 200.958 493.488 202.411 493.488C203.864 493.488 205.289 493.882 206.536 494.628L206.427 494.655Z" fill="white"/>
<path d="M206.061 485.374C204.668 484.991 203.231 484.795 201.787 484.79C200.359 485.011 198.967 485.422 197.648 486.012C197.648 486.012 197.92 485.537 198.625 485.089C199.57 484.523 200.634 484.183 201.732 484.098C202.83 484.012 203.933 484.189 204.948 484.614C205.722 484.994 206.101 485.306 206.061 485.374Z" fill="white"/>
<path d="M201.773 483.027C201.65 482.641 201.617 482.233 201.678 481.833C201.742 480.736 202.019 479.663 202.492 478.671C202.787 477.92 203.314 477.283 203.998 476.853C204.24 476.742 204.509 476.705 204.772 476.746C205.035 476.787 205.28 476.905 205.477 477.084C205.826 477.451 206.024 477.935 206.033 478.441C206.006 479.504 205.61 480.525 204.911 481.327C204.213 482.13 203.257 482.664 202.207 482.837C201.164 482.984 200.101 482.818 199.153 482.362C198.204 481.906 197.411 481.179 196.875 480.272C196.745 480.044 196.665 479.79 196.639 479.528C196.614 479.267 196.643 479.002 196.725 478.753C196.851 478.507 197.047 478.306 197.29 478.175C197.532 478.044 197.808 477.99 198.082 478.02C198.863 478.156 199.594 478.498 200.199 479.011C201.085 479.662 201.848 480.466 202.451 481.385C202.885 482.023 203.021 482.43 202.98 482.443C202.114 481.288 201.081 480.269 199.914 479.418C199.368 478.99 198.725 478.706 198.042 478.59C197.897 478.571 197.751 478.599 197.624 478.67C197.497 478.741 197.396 478.851 197.336 478.983C197.254 479.325 197.307 479.685 197.485 479.987C197.971 480.754 198.666 481.365 199.489 481.747C200.312 482.129 201.227 482.268 202.126 482.145C203.013 481.999 203.824 481.555 204.425 480.887C205.027 480.218 205.384 479.365 205.436 478.468C205.441 478.106 205.316 477.754 205.084 477.477C204.984 477.369 204.852 477.296 204.708 477.269C204.564 477.242 204.415 477.263 204.283 477.328C203.683 477.68 203.208 478.212 202.926 478.848C202.296 480.161 201.905 481.576 201.773 483.027Z" fill="white"/>
<path d="M116.184 240.209C113.496 250.963 112.417 262.056 112.982 273.126C113.349 280.154 135.913 483.027 135.913 483.027L164.596 480.449L159.644 290.765L160.838 291.837C160.838 291.837 177.934 371.645 179.073 384.264C180.091 395.593 193.727 486.691 193.727 486.691L221.569 485.334L215.26 370.166L206.821 265.69L203.442 235.243L116.184 240.209Z" fill="#263238"/>
<path d="M165.166 274.415C164.742 274.705 164.287 274.946 163.809 275.134C162.544 275.743 161.202 276.177 159.82 276.423C158.846 276.591 157.85 276.591 156.876 276.423C155.738 276.201 154.685 275.665 153.836 274.876C152.968 273.942 152.351 272.803 152.045 271.565C151.706 270.317 151.516 269.014 151.285 267.698C150.39 262.42 149.807 257.604 149.481 254.13C149.318 252.393 149.223 250.969 149.169 249.992C149.108 249.482 149.108 248.968 149.169 248.458C149.31 248.95 149.401 249.455 149.44 249.965C149.576 251.077 149.752 252.461 149.956 254.035C150.404 257.522 151.055 262.312 151.95 267.603C152.398 270.208 152.697 272.854 154.284 274.387C155.017 275.033 155.884 275.508 156.822 275.778C157.761 276.048 158.748 276.106 159.711 275.948C161.067 275.741 162.395 275.386 163.673 274.889C164.148 274.668 164.65 274.508 165.166 274.415Z" fill="#455A64"/>
<path d="M156.115 249.476C156.115 249.476 156.333 249.313 156.78 249.286C157.425 249.295 158.049 249.514 158.558 249.91C158.948 250.201 159.267 250.577 159.491 251.01C159.714 251.442 159.836 251.92 159.847 252.407C159.786 253.007 159.555 253.578 159.181 254.051C158.807 254.525 158.306 254.883 157.737 255.082C157.167 255.281 156.553 255.314 155.965 255.177C155.378 255.039 154.842 254.738 154.419 254.306C154.131 253.924 153.932 253.481 153.838 253.012C153.744 252.542 153.757 252.057 153.877 251.593C154.012 250.961 154.368 250.398 154.881 250.005C155.247 249.734 155.491 249.707 155.505 249.734C154.912 250.24 154.502 250.926 154.338 251.688C154.258 252.081 154.267 252.487 154.363 252.876C154.459 253.266 154.641 253.629 154.894 253.94C155.225 254.288 155.654 254.528 156.124 254.627C156.594 254.726 157.083 254.681 157.527 254.496C157.983 254.36 158.389 254.091 158.693 253.724C158.998 253.357 159.187 252.908 159.236 252.434C159.233 252.032 159.145 251.635 158.976 251.27C158.808 250.905 158.563 250.58 158.259 250.317C157.655 249.811 156.903 249.516 156.115 249.476Z" fill="#455A64"/>
<path d="M206.427 263.831C206.07 263.932 205.699 263.977 205.328 263.967C204.33 264.041 203.328 264.041 202.33 263.967C195.675 263.429 189.408 260.617 184.582 256.002C183.856 255.311 183.18 254.567 182.561 253.777C182.127 253.221 181.909 252.895 181.95 252.868C181.991 252.841 183.036 253.994 184.908 255.65C189.803 259.976 195.898 262.711 202.384 263.492C204.853 263.709 206.414 263.668 206.427 263.831Z" fill="#455A64"/>
<path d="M129.088 249.435C128.635 250.581 128.032 251.662 127.297 252.651C125.68 255.135 123.766 257.413 121.598 259.435C119.436 261.449 117.035 263.19 114.448 264.618C113.406 265.261 112.284 265.763 111.11 266.11C112.107 265.423 113.139 264.789 114.203 264.211C116.673 262.675 118.994 260.913 121.137 258.946C123.26 256.958 125.191 254.772 126.903 252.42C127.572 251.383 128.302 250.386 129.088 249.435Z" fill="#455A64"/>
<path d="M100.608 134.837C96.3473 147.28 96.8222 146.208 88.8441 183.385C87.3787 190.25 89.9702 201.023 96.1574 204.28C102.345 207.536 113.335 203.954 117.012 197.984L122.928 141.879L100.608 134.837Z" fill="#FFBF9D"/>
<path d="M203.455 202.29L203.279 172.724L203.401 169.821L233.4 162.82C233.4 162.82 227.512 143.417 222.111 122.562C218.991 110.514 208.611 104.462 206.101 103.16L205.545 102.902L176.671 90.6906C170.837 96.9048 162.343 101.898 154.161 99.5099C149.503 97.9885 145.378 95.1632 142.276 91.369L122.832 98.0581C117.212 99.9868 112.448 103.829 109.373 108.913C105.302 116.172 92.2901 149.211 92.0187 149.889L116.116 152.046C116.116 152.046 111.842 230.227 113.402 244.189C113.402 244.189 119.264 248.259 134.026 248.937C163.985 250.294 208.557 248.218 208.557 248.218C207.851 243.714 207.118 236.183 206.711 232.371L203.455 202.29Z" fill="#007EF2"/>
<path d="M116.985 122.997C117.107 122.997 116.469 141.639 115.56 164.624C114.651 187.609 113.81 206.252 113.728 206.252C113.647 206.252 114.244 187.609 115.085 164.611C115.926 141.612 116.863 122.983 116.985 122.997Z" fill="#263238"/>
<path d="M200.158 128.148C199.955 128.148 200.552 144.702 201.515 165.095C202.479 185.488 203.428 202.014 203.645 202.001C203.863 201.987 203.252 185.461 202.289 165.054C201.325 144.647 200.375 128.148 200.158 128.148Z" fill="#263238"/>
<path d="M233.55 176.858C232.573 169.518 231.759 163.032 231.759 163.032L207.77 168.609L208.801 172.476L190.253 153.629L187.309 153.887L177.974 163.589C177.974 163.589 186.115 180.78 190.85 187.469C197.01 196.18 206.685 209.449 219.941 208.337C232.193 207.306 235.3 190.02 233.55 176.858Z" fill="#FFBF9D"/>
<path d="M220.552 181.255C219.097 179.342 217.314 177.702 215.287 176.411C213.409 174.908 211.289 173.733 209.019 172.938C208.91 173.141 211.732 174.742 214.826 177.008C217.919 179.274 220.402 181.418 220.552 181.255Z" fill="#FF9A6C"/>
<path d="M157.866 129.075L166.115 124.869L176.807 128.261L182.099 133.146L190.24 153.661L196.766 161.924L185.247 176.849L177.96 163.552C177.96 163.552 171.787 160.839 169.304 156.958C166.821 153.078 165.722 150.934 165.722 150.934C165.722 150.934 162.153 149.224 161.488 147.569C161.097 146.645 160.885 145.655 160.864 144.652L162.669 142.006C162.554 140.856 162.741 139.696 163.212 138.641C163.553 138.149 164.022 137.76 164.568 137.515C164.568 137.515 164.039 135.29 164.867 134.489C166.431 133.569 168.086 132.815 169.806 132.237L166.21 130.188C166.21 130.188 158.313 132.725 157.866 129.075Z" fill="#FFBF9D"/>
<path d="M170.104 136.493C170.104 136.601 168.842 136.629 167.39 136.954C165.939 137.28 164.677 137.741 164.677 137.646C165.492 137.102 166.42 136.749 167.39 136.615C168.275 136.372 169.202 136.331 170.104 136.493Z" fill="#FF9A6C"/>
<path d="M167.635 141.093C166.845 141.241 166.048 141.345 165.247 141.405C164.468 141.588 163.68 141.723 162.886 141.812C163.584 141.38 164.374 141.12 165.192 141.052C165.999 140.88 166.834 140.894 167.635 141.093Z" fill="#FF9A6C"/>
<path d="M164.148 148.311C164.053 148.311 163.985 147.836 163.999 147.253C164.012 146.669 164.094 146.208 164.189 146.208C164.284 146.208 164.352 146.683 164.352 147.266C164.352 147.85 164.243 148.311 164.148 148.311Z" fill="#FF9A6C"/>
<path d="M165.722 150.536C165.614 149.854 165.354 149.205 164.962 148.637C164.497 148.127 163.934 147.716 163.307 147.429C163.307 147.429 163.564 147.361 163.958 147.429C164.495 147.589 164.969 147.912 165.315 148.352C165.645 148.775 165.847 149.283 165.898 149.817C165.857 150.292 165.762 150.536 165.722 150.536Z" fill="#FF9A6C"/>
<path d="M172.167 143.956C171.782 143.412 171.293 142.951 170.729 142.599C170.114 142.315 169.451 142.15 168.775 142.11C168.775 142.11 168.992 141.961 169.399 141.934C169.926 141.909 170.449 142.031 170.909 142.288C171.369 142.544 171.749 142.925 172.004 143.386C172.194 143.698 172.208 143.942 172.167 143.956Z" fill="#FF9A6C"/>
<path d="M175.925 139.397C175.83 139.397 175.504 138.582 174.568 138.04C174.002 137.741 173.393 137.531 172.764 137.416C172.764 137.416 172.981 137.293 173.361 137.293C173.843 137.326 174.31 137.48 174.717 137.741C175.139 138.001 175.482 138.372 175.708 138.813C175.952 139.152 175.966 139.383 175.925 139.397Z" fill="#FF9A6C"/>
<path d="M178.449 137.158C178.449 137.158 178.449 136.873 178.354 136.452C178.286 135.908 178.081 135.389 177.757 134.946C177.425 134.505 176.986 134.155 176.482 133.929C176.088 133.752 175.817 133.698 175.831 133.644C175.844 133.589 176.129 133.562 176.563 133.644C177.155 133.818 177.674 134.18 178.042 134.675C178.403 135.172 178.598 135.77 178.598 136.384C178.598 136.9 178.49 137.171 178.449 137.158Z" fill="#FF9A6C"/>
<path d="M174.949 131.798C174.949 131.921 173.225 131.948 171.149 132.26C169.074 132.572 167.5 133.318 167.445 133.223C168.542 132.496 169.79 132.032 171.095 131.866C171.993 131.724 172.9 131.656 173.809 131.663C174.194 131.64 174.58 131.686 174.949 131.798Z" fill="#FF9A6C"/>
<g opacity="0.3">
<path d="M151.475 178.12C151.363 175.726 150.664 173.397 149.44 171.336C147.025 167.93 142.29 167.266 138.138 167.415C133.986 167.564 129.644 168.432 125.736 167.008L114.041 201.715C118.426 200.614 122.209 197.844 124.583 193.995C125.777 192.055 126.645 189.803 128.45 188.419C130.947 186.505 134.393 186.777 137.541 186.75C140.824 186.712 144.087 186.232 147.242 185.325C148.621 185.052 149.874 184.338 150.811 183.29C151.882 181.852 151.72 179.898 151.475 178.12Z" fill="black"/>
</g>
<path d="M121.367 137.497L125.004 176.126C125.013 177.004 125.236 177.866 125.651 178.638C126.067 179.411 126.664 180.072 127.392 180.563L150.824 180.074C152.227 178.189 152.867 175.844 152.615 173.507L150.01 136.534C149.861 134.309 149.033 132.708 148.029 132.68L123.348 132.111C122.086 132.083 121.109 134.743 121.367 137.497Z" fill="#263238"/>
<path d="M117.962 145.258C117.504 144.654 117.264 143.913 117.278 143.155C117.293 142.397 117.563 141.666 118.043 141.079C118.546 140.497 119.172 140.035 119.876 139.725C120.58 139.415 121.345 139.266 122.113 139.288C123.632 139.33 125.127 139.676 126.51 140.306C128.209 141.021 129.836 141.898 131.367 142.925C131.957 143.223 132.478 143.641 132.896 144.153C133.314 144.665 133.621 145.259 133.796 145.896C133.986 147.253 132.534 148.61 131.408 147.972C132.206 148.333 132.907 148.878 133.454 149.562C134.001 150.245 134.379 151.049 134.556 151.907C134.759 153.549 133.85 154.417 132.249 154.851C132.85 155.104 133.329 155.581 133.583 156.182C133.836 156.783 133.845 157.46 133.606 158.067C133.228 158.639 132.656 159.055 131.995 159.24C131.335 159.424 130.63 159.364 130.01 159.071C128.782 158.436 127.732 157.503 126.957 156.357C127.728 158.224 127.876 160.289 127.378 162.246C123.877 160.889 120.431 157.076 121.476 153.386C120.618 152.68 120.019 151.709 119.773 150.626C119.528 149.543 119.649 148.409 120.119 147.402C119.316 147.028 118.629 146.443 118.132 145.709C117.635 144.976 117.346 144.121 117.297 143.237" fill="#FFBF9D"/>
<path d="M117.582 141.893L117.297 158.406L113.009 164.851L93.376 182.422C93.376 182.422 96.2796 206.288 105.153 203.683C114.027 201.078 116.157 199.382 121.435 189.762C124.23 184.592 125.967 176.194 127.582 171.404C128.531 168.582 127.704 159.491 127.704 159.491L117.582 141.893Z" fill="#FFBF9D"/>
<path d="M132.249 154.878C131.717 154.515 131.213 154.111 130.743 153.67C129.598 152.671 128.244 151.939 126.781 151.527C125.977 151.345 125.143 151.345 124.339 151.527C123.681 151.672 123.064 151.964 122.534 152.381C122.063 152.79 121.66 153.271 121.34 153.806C121.34 153.806 121.34 153.616 121.49 153.304C121.697 152.868 121.993 152.48 122.358 152.164C122.904 151.688 123.555 151.349 124.258 151.174C125.114 150.971 126.006 150.971 126.863 151.174C128.392 151.595 129.791 152.393 130.933 153.494C131.428 153.898 131.871 154.363 132.249 154.878Z" fill="#FF9A6C"/>
<path d="M132.005 148.148C131.363 147.953 130.748 147.68 130.173 147.334C129.631 147.063 128.979 146.723 128.233 146.425C127.411 146.125 126.567 145.889 125.709 145.719C124.862 145.541 123.99 145.509 123.131 145.624C122.444 145.743 121.791 146.012 121.218 146.411C120.672 146.798 120.21 147.292 119.861 147.863C119.88 147.682 119.936 147.507 120.024 147.347C120.254 146.899 120.578 146.506 120.974 146.194C121.568 145.73 122.267 145.418 123.009 145.285C123.905 145.108 124.827 145.108 125.723 145.285C126.604 145.458 127.467 145.712 128.301 146.045C128.972 146.333 129.625 146.664 130.255 147.035C130.862 147.366 131.447 147.738 132.005 148.148Z" fill="#FF9A6C"/>
<path d="M95.4924 191.919C95.0086 189.906 94.9256 187.818 95.2482 185.773C95.6386 183.565 96.4246 181.446 97.5684 179.518C99.0021 177.177 100.746 175.041 102.751 173.168C104.868 171.119 107.039 169.342 108.979 167.741C110.713 166.266 112.371 164.703 113.945 163.06C114.996 161.902 115.953 160.664 116.808 159.355C117.134 158.894 117.407 158.398 117.622 157.876C117.251 158.304 116.911 158.757 116.605 159.233C115.68 160.441 114.678 161.587 113.606 162.666C112.249 164.023 110.553 165.57 108.586 167.211C106.618 168.853 104.515 170.631 102.304 172.639C100.253 174.554 98.4848 176.752 97.0528 179.165C95.8751 181.17 95.0878 183.38 94.7326 185.678C94.508 187.213 94.5631 188.776 94.8954 190.291C94.9838 190.702 95.1017 191.105 95.2482 191.499C95.411 191.77 95.4653 191.919 95.4924 191.919Z" fill="#FF9A6C"/>
</svg>
