<svg width="335" height="538" viewBox="0 0 335 538" fill="none" xmlns="http://www.w3.org/2000/svg">
<path d="M39.3375 522.709L39.3375 524.272L40.9 524.272L40.9 522.709L39.3375 522.709ZM39.3375 508.009L39.3375 506.447L37.775 506.447L37.775 508.009L39.3375 508.009ZM48 508.009L49.5625 508.009L49.5625 506.447L48 506.447L48 508.009ZM48 533.931L48 535.494L49.5625 535.494L49.5625 533.931L48 533.931ZM1.93126 533.931L0.368764 533.931L0.368764 535.494L1.93126 535.494L1.93126 533.931ZM1.93126 522.709L1.93126 521.147L0.368763 521.147L0.368763 522.709L1.93126 522.709ZM40.9 522.709L40.9 508.009L37.775 508.009L37.775 522.709L40.9 522.709ZM39.3375 509.572L48 509.572L48 506.447L39.3375 506.447L39.3375 509.572ZM46.4375 508.009L46.4375 533.931L49.5625 533.931L49.5625 508.009L46.4375 508.009ZM48 532.369L1.93126 532.369L1.93126 535.494L48 535.494L48 532.369ZM3.49376 533.931L3.49376 522.709L0.368763 522.709L0.368764 533.931L3.49376 533.931ZM1.93126 524.272L39.3375 524.272L39.3375 521.147L1.93126 521.147L1.93126 524.272ZM10.9219 491.435L9.35939 491.435L9.35939 492.997L10.9219 492.997L10.9219 491.435ZM20.2406 491.435L20.2406 492.997L21.8031 492.997L21.8031 491.435L20.2406 491.435ZM20.2406 476.407L20.2406 474.844L18.6781 474.844L18.6781 476.407L20.2406 476.407ZM28.9031 476.407L30.4656 476.407L30.4656 474.844L28.9031 474.844L28.9031 476.407ZM28.9031 491.435L27.3406 491.435L27.3406 492.997L28.9031 492.997L28.9031 491.435ZM39.0094 491.435L39.0094 492.997L40.5719 492.997L40.5719 491.435L39.0094 491.435ZM39.0094 474.438L39.0094 472.876L37.4469 472.876L37.4469 474.438L39.0094 474.438ZM48 474.438L49.5625 474.438L49.5625 472.876L48 472.876L48 474.438ZM48 502.657L48 504.219L49.5625 504.219L49.5625 502.657L48 502.657ZM1.93126 502.657L0.368762 502.657L0.368762 504.219L1.93126 504.219L1.93126 502.657ZM1.93126 474.438L1.93126 472.876L0.368761 472.876L0.368761 474.438L1.93126 474.438ZM10.9219 474.438L12.4844 474.438L12.4844 472.876L10.9219 472.876L10.9219 474.438ZM10.9219 492.997L20.2406 492.997L20.2406 489.872L10.9219 489.872L10.9219 492.997ZM21.8031 491.435L21.8031 476.407L18.6781 476.407L18.6781 491.435L21.8031 491.435ZM20.2406 477.969L28.9031 477.969L28.9031 474.844L20.2406 474.844L20.2406 477.969ZM27.3406 476.407L27.3406 491.435L30.4656 491.435L30.4656 476.407L27.3406 476.407ZM28.9031 492.997L39.0094 492.997L39.0094 489.872L28.9031 489.872L28.9031 492.997ZM40.5719 491.435L40.5719 474.438L37.4469 474.438L37.4469 491.435L40.5719 491.435ZM39.0094 476.001L48 476.001L48 472.876L39.0094 472.876L39.0094 476.001ZM46.4375 474.438L46.4375 502.657L49.5625 502.657L49.5625 474.438L46.4375 474.438ZM48 501.094L1.93126 501.094L1.93126 504.219L48 504.219L48 501.094ZM3.49376 502.657L3.49376 474.438L0.368761 474.438L0.368762 502.657L3.49376 502.657ZM1.93126 476.001L10.9219 476.001L10.9219 472.876L1.93126 472.876L1.93126 476.001ZM9.35939 474.438L9.35939 491.435L12.4844 491.435L12.4844 474.438L9.35939 474.438ZM39.8625 438.475L39.3613 436.995L38.3 437.354L38.3 438.475L39.8625 438.475ZM39.8625 455.668L38.3 455.668L38.3 456.789L39.3613 457.148L39.8625 455.668ZM48 458.425L49.5625 458.425L49.5625 457.304L48.5013 456.945L48 458.425ZM48 470.171L47.4684 471.641L49.5625 472.398L49.5625 470.171L48 470.171ZM1.93126 453.503L0.36876 453.503L0.36876 454.599L1.39964 454.972L1.93126 453.503ZM1.93126 440.509L1.39964 439.04L0.368759 439.413L0.36876 440.509L1.93126 440.509ZM48 423.84L49.5625 423.84L49.5625 421.613L47.4684 422.371L48 423.84ZM48 435.718L48.5013 437.198L49.5625 436.839L49.5625 435.718L48 435.718ZM31.2 441.362L32.7625 441.362L32.7625 439.184L30.699 439.882L31.2 441.362ZM14.3344 447.071L13.8334 445.591L9.43614 447.08L13.8386 448.553L14.3344 447.071ZM31.2 452.715L30.7042 454.197L32.7625 454.886L32.7625 452.715L31.2 452.715ZM38.3 438.475L38.3 455.668L41.425 455.668L41.425 438.475L38.3 438.475ZM39.3613 457.148L47.4987 459.904L48.5013 456.945L40.3638 454.188L39.3613 457.148ZM46.4375 458.425L46.4375 470.171L49.5625 470.171L49.5625 458.425L46.4375 458.425ZM48.5316 468.702L2.46288 452.033L1.39964 454.972L47.4684 471.641L48.5316 468.702ZM3.49376 453.503L3.49376 440.509L0.36876 440.509L0.36876 453.503L3.49376 453.503ZM2.46288 441.978L48.5316 425.309L47.4684 422.371L1.39964 439.04L2.46288 441.978ZM46.4375 423.84L46.4375 435.718L49.5625 435.718L49.5625 423.84L46.4375 423.84ZM47.4987 434.238L39.3613 436.995L40.3638 439.954L48.5013 437.198L47.4987 434.238ZM30.699 439.882L13.8334 445.591L14.8354 448.551L31.701 442.842L30.699 439.882ZM13.8386 448.553L30.7042 454.197L31.6958 451.233L14.8302 445.59L13.8386 448.553ZM32.7625 452.715L32.7625 441.362L29.6375 441.362L29.6375 452.715L32.7625 452.715ZM4.81876 388.776L3.43824 388.045H3.43824L4.81876 388.776ZM12.9563 380.376L13.7223 381.738L13.7324 381.733L13.7425 381.727L12.9563 380.376ZM36.975 380.376L36.1961 381.731L36.2025 381.735L36.209 381.738L36.975 380.376ZM45.1125 388.842L43.7284 389.567L43.732 389.574L45.1125 388.842ZM48 418.767L48 420.33L49.5625 420.33L49.5625 418.767L48 418.767ZM1.93126 418.767L0.368759 418.767L0.368759 420.33L1.93126 420.33L1.93126 418.767ZM11.5125 407.545L9.95001 407.545L9.95001 409.108L11.5125 409.108L11.5125 407.545ZM38.2875 407.545L38.2875 409.108L39.85 409.108L39.85 407.545L38.2875 407.545ZM3.49376 401.508C3.49376 396.86 4.41372 392.876 6.19927 389.508L3.43824 388.045C1.3738 391.939 0.368758 396.443 0.368758 401.508L3.49376 401.508ZM6.19927 389.508C7.98752 386.135 10.4896 383.557 13.7223 381.738L12.1902 379.015C8.42286 381.134 5.5 384.155 3.43824 388.045L6.19927 389.508ZM13.7425 381.727C16.9287 379.871 20.6532 378.92 24.9656 378.92L24.9656 375.795C20.1781 375.795 15.8963 376.856 12.17 379.026L13.7425 381.727ZM24.9656 378.92C29.231 378.92 32.9597 379.87 36.1961 381.731L37.7539 379.022C33.9903 376.858 29.7128 375.795 24.9656 375.795L24.9656 378.92ZM36.209 381.738C39.4367 383.554 41.9386 386.15 43.7284 389.567L46.4966 388.117C44.4364 384.184 41.5133 381.137 37.741 379.015L36.209 381.738ZM43.732 389.574C45.5186 392.944 46.4375 396.907 46.4375 401.508L49.5625 401.508C49.5625 396.484 48.5564 392.003 46.493 388.11L43.732 389.574ZM46.4375 401.508L46.4375 418.767L49.5625 418.767L49.5625 401.508L46.4375 401.508ZM48 417.205L1.93126 417.205L1.93126 420.33L48 420.33L48 417.205ZM3.49376 418.767L3.49376 401.508L0.368758 401.508L0.368759 418.767L3.49376 418.767ZM39.85 402.23C39.85 397.697 38.6046 393.956 35.9245 391.226L33.6943 393.415C35.6517 395.409 36.725 398.275 36.725 402.23L39.85 402.23ZM35.9245 391.226C33.235 388.485 29.5046 387.214 24.9656 387.214L24.9656 390.339C28.9142 390.339 31.7462 391.43 33.6943 393.415L35.9245 391.226ZM24.9656 387.214C20.4251 387.214 16.6808 388.486 13.9514 391.215L16.1611 393.425C18.1567 391.429 21.0187 390.339 24.9656 390.339L24.9656 387.214ZM13.9514 391.215C11.222 393.945 9.95001 397.689 9.95001 402.23L13.075 402.23C13.075 398.283 14.1655 395.421 16.1611 393.425L13.9514 391.215ZM9.95001 402.23L9.95001 407.545L13.075 407.545L13.075 402.23L9.95001 402.23ZM11.5125 409.108L38.2875 409.108L38.2875 405.983L11.5125 405.983L11.5125 409.108ZM39.85 407.545L39.85 402.23L36.725 402.23L36.725 407.545L39.85 407.545ZM10.9219 359.865L9.35938 359.865L9.35938 361.427L10.9219 361.427L10.9219 359.865ZM20.2406 359.865L20.2406 361.427L21.8031 361.427L21.8031 359.865L20.2406 359.865ZM20.2406 344.836L20.2406 343.274L18.6781 343.274L18.6781 344.836L20.2406 344.836ZM28.9031 344.836L30.4656 344.836L30.4656 343.274L28.9031 343.274L28.9031 344.836ZM28.9031 359.865L27.3406 359.865L27.3406 361.427L28.9031 361.427L28.9031 359.865ZM39.0094 359.865L39.0094 361.427L40.5719 361.427L40.5719 359.865L39.0094 359.865ZM39.0094 342.868L39.0094 341.305L37.4469 341.305L37.4469 342.868L39.0094 342.868ZM48 342.868L49.5625 342.868L49.5625 341.305L48 341.305L48 342.868ZM48 371.086L48 372.649L49.5625 372.649L49.5625 371.086L48 371.086ZM1.93126 371.086L0.368757 371.086L0.368757 372.649L1.93126 372.649L1.93126 371.086ZM1.93126 342.868L1.93126 341.305L0.368755 341.305L0.368755 342.868L1.93126 342.868ZM10.9219 342.868L12.4844 342.868L12.4844 341.305L10.9219 341.305L10.9219 342.868ZM10.9219 361.427L20.2406 361.427L20.2406 358.302L10.9219 358.302L10.9219 361.427ZM21.8031 359.865L21.8031 344.836L18.6781 344.836L18.6781 359.865L21.8031 359.865ZM20.2406 346.399L28.9031 346.399L28.9031 343.274L20.2406 343.274L20.2406 346.399ZM27.3406 344.836L27.3406 359.865L30.4656 359.865L30.4656 344.836L27.3406 344.836ZM28.9031 361.427L39.0094 361.427L39.0094 358.302L28.9031 358.302L28.9031 361.427ZM40.5719 359.865L40.5719 342.868L37.4469 342.868L37.4469 359.865L40.5719 359.865ZM39.0094 344.43L48 344.43L48 341.305L39.0094 341.305L39.0094 344.43ZM46.4375 342.868L46.4375 371.086L49.5625 371.086L49.5625 342.868L46.4375 342.868ZM48 369.524L1.93126 369.524L1.93126 372.649L48 372.649L48 369.524ZM3.49376 371.086L3.49376 342.868L0.368755 342.868L0.368757 371.086L3.49376 371.086ZM1.93126 344.43L10.9219 344.43L10.9219 341.305L1.93126 341.305L1.93126 344.43ZM9.35938 342.868L9.35938 359.865L12.4844 359.865L12.4844 342.868L9.35938 342.868ZM48 312.088L48.754 313.457L49.5625 313.012L49.5625 312.088L48 312.088ZM30.6094 321.67L29.8554 320.301L29.0469 320.747L29.0469 321.67L30.6094 321.67ZM30.6094 324.36L29.0469 324.36L29.0469 325.923L30.6094 325.923L30.6094 324.36ZM48 324.36L49.5625 324.36L49.5625 322.798L48 322.798L48 324.36ZM48 335.582L48 337.145L49.5625 337.145L49.5625 335.582L48 335.582ZM1.93125 335.582L0.368755 335.582L0.368755 337.145L1.93126 337.145L1.93125 335.582ZM3.83438 307.495L5.23195 308.194L5.23664 308.184L3.83438 307.495ZM9.08438 301.72L9.85675 303.078L9.86831 303.071L9.08438 301.72ZM24.6375 302.442L23.7185 303.705L23.7261 303.711L23.7337 303.716L24.6375 302.442ZM29.7563 310.054L28.2591 310.501L28.8274 312.404L30.5429 311.404L29.7563 310.054ZM48 299.423L49.5625 299.423L49.5625 296.704L47.2133 298.073L48 299.423ZM22.6688 324.36L22.6688 325.923L24.2313 325.923L24.2313 324.36L22.6688 324.36ZM21.1594 312.81L20.0313 313.891L20.0428 313.903L20.0545 313.915L21.1594 312.81ZM12.7594 312.81L13.8642 313.915L13.876 313.903L13.8875 313.891L12.7594 312.81ZM11.25 324.36L9.68751 324.36L9.68751 325.923L11.25 325.923L11.25 324.36ZM47.246 310.72L29.8554 320.301L31.3634 323.038L48.754 313.457L47.246 310.72ZM29.0469 321.67L29.0469 324.36L32.1719 324.36L32.1719 321.67L29.0469 321.67ZM30.6094 325.923L48 325.923L48 322.798L30.6094 322.798L30.6094 325.923ZM46.4375 324.36L46.4375 335.582L49.5625 335.582L49.5625 324.36L46.4375 324.36ZM48 334.02L1.93125 334.02L1.93126 337.145L48 337.145L48 334.02ZM3.49376 335.582L3.49375 316.748L0.368754 316.748L0.368755 335.582L3.49376 335.582ZM3.49375 316.748C3.49375 313.293 4.09769 310.462 5.23192 308.194L2.43683 306.796C1.03357 309.603 0.368754 312.94 0.368754 316.748L3.49375 316.748ZM5.23664 308.184C6.38452 305.849 7.92995 304.174 9.85672 303.078L8.31203 300.361C5.7763 301.803 3.82174 303.978 2.43211 306.805L5.23664 308.184ZM9.86831 303.071C11.8004 301.951 13.9765 301.379 16.4344 301.379L16.4344 298.254C13.4672 298.254 10.7434 298.951 8.30044 300.368L9.86831 303.071ZM16.4344 301.379C19.177 301.379 21.5876 302.156 23.7185 303.705L25.5565 301.178C22.875 299.228 19.8167 298.254 16.4344 298.254L16.4344 301.379ZM23.7337 303.716C25.8035 305.184 27.3329 307.4 28.2591 310.501L31.2534 309.607C30.1671 305.97 28.284 303.112 25.5413 301.167L23.7337 303.716ZM30.5429 311.404L48.7867 300.773L47.2133 298.073L28.9696 308.704L30.5429 311.404ZM46.4375 299.423L46.4375 312.088L49.5625 312.088L49.5625 299.423L46.4375 299.423ZM24.2313 324.36L24.2313 317.404L21.1063 317.404L21.1063 324.36L24.2313 324.36ZM24.2313 317.404C24.2313 315.118 23.6725 313.114 22.2642 311.706L20.0545 313.915C20.6588 314.519 21.1063 315.577 21.1063 317.404L24.2313 317.404ZM22.2875 311.729C20.9133 310.295 19.0383 309.673 16.8938 309.673L16.8938 312.798C18.4242 312.798 19.393 313.225 20.0313 313.891L22.2875 311.729ZM16.8938 309.673C14.8111 309.673 12.991 310.31 11.6313 311.729L13.8875 313.891C14.5402 313.21 15.4765 312.798 16.8938 312.798L16.8938 309.673ZM11.6545 311.706C10.2463 313.114 9.68751 315.118 9.68751 317.404L12.8125 317.404C12.8125 315.577 13.26 314.519 13.8642 313.915L11.6545 311.706ZM9.68751 317.404L9.68751 324.36L12.8125 324.36L12.8125 317.404L9.68751 317.404ZM11.25 325.923L22.6688 325.923L22.6688 322.798L11.25 322.798L11.25 325.923Z" fill="#FF725E"/>
<path d="M306.582 0.379395H109.226C93.7551 0.379395 81.2131 12.9213 81.2131 28.3926V509.851C81.2131 525.323 93.7551 537.865 109.226 537.865H306.582C322.053 537.865 334.595 525.323 334.595 509.851V28.3926C334.595 12.9213 322.053 0.379395 306.582 0.379395Z" fill="#F5F5F5"/>
<path d="M108.468 0.379395H307.325C314.478 0.386834 321.336 3.23355 326.391 8.29409C331.446 13.3546 334.286 20.2151 334.286 27.368V267.361H81.4797V27.368C81.4797 23.8238 82.1778 20.3143 83.5341 17.0399C84.8904 13.7655 86.8784 10.7903 89.3845 8.28418C91.8906 5.77805 94.8658 3.79008 98.1402 2.43377C101.415 1.07747 104.924 0.379395 108.468 0.379395Z" fill="white"/>
<path d="M107.668 38.2027C107.516 38.2037 107.368 38.1544 107.247 38.0624L101.184 33.5292C101.099 33.4652 101.029 33.3827 100.981 33.2879C100.932 33.1931 100.906 33.0884 100.903 32.9818C100.903 32.8742 100.927 32.7679 100.973 32.6707C101.019 32.5735 101.086 32.4879 101.17 32.4204L107.233 27.5644C107.378 27.4472 107.564 27.3924 107.75 27.4122C107.935 27.4319 108.105 27.5245 108.223 27.6697C108.34 27.8149 108.395 28.0007 108.375 28.1862C108.355 28.3718 108.262 28.5419 108.117 28.6591L102.714 32.9537L108.047 36.9396C108.196 37.0513 108.294 37.2175 108.321 37.4017C108.347 37.586 108.299 37.7731 108.187 37.922C108.128 38.0052 108.05 38.0736 107.96 38.1223C107.87 38.1709 107.77 38.1984 107.668 38.2027Z" fill="#263238"/>
<path d="M150.249 381.855C150.245 381.592 150.295 381.331 150.396 381.087C150.497 380.844 150.647 380.624 150.837 380.441C151.026 380.258 151.251 380.116 151.498 380.024C151.744 379.932 152.007 379.891 152.27 379.905C152.534 379.9 152.795 379.952 153.037 380.056C153.279 380.16 153.496 380.314 153.674 380.508L153.309 380.845C153.173 380.698 153.008 380.583 152.824 380.505C152.64 380.428 152.442 380.39 152.242 380.396C151.853 380.396 151.48 380.55 151.205 380.825C150.93 381.1 150.776 381.473 150.776 381.862C150.776 382.251 150.93 382.624 151.205 382.899C151.48 383.174 151.853 383.329 152.242 383.329C152.443 383.332 152.642 383.293 152.826 383.213C153.01 383.133 153.175 383.015 153.309 382.866L153.674 383.217C153.392 383.501 153.032 383.697 152.639 383.778C152.247 383.859 151.839 383.822 151.467 383.672C151.095 383.522 150.776 383.266 150.549 382.935C150.323 382.604 150.199 382.214 150.193 381.813L150.249 381.855Z" fill="#263238"/>
<path d="M157.787 379.946V383.778H157.239V382.065H155.05V383.778H154.502V379.946H155.05V381.588H157.239V379.946H157.787Z" fill="#263238"/>
<path d="M161.365 382.823H159.33L158.909 383.778H158.348L160.088 379.946H160.621L162.362 383.778H161.786L161.365 382.823ZM161.183 382.374L160.355 380.508L159.527 382.374H161.183Z" fill="#263238"/>
<path d="M166.011 381.252C166.011 382.08 165.407 382.655 164.425 382.655H163.471V383.82H162.923V379.989H164.467C165.407 379.947 166.011 380.452 166.011 381.252ZM165.463 381.252C165.463 380.704 165.099 380.396 164.397 380.396H163.471V382.108H164.467C165.099 382.136 165.463 381.827 165.463 381.252Z" fill="#263238"/>
<path d="M167.456 380.423H166.137V379.946H169.309V380.423H167.99V383.778H167.456V380.423Z" fill="#263238"/>
<path d="M172.663 383.301V383.778H169.856V379.946H172.551V380.423H170.404V381.602H172.313V382.065H170.404V383.301H172.663Z" fill="#263238"/>
<path d="M176.101 383.778L175.287 382.599H174.095V383.764H173.547V379.932H175.035C176.031 379.932 176.635 380.438 176.635 381.266C176.647 381.532 176.571 381.794 176.419 382.012C176.267 382.231 176.047 382.393 175.793 382.473L176.705 383.764L176.101 383.778ZM176.101 381.28C176.101 380.732 175.737 380.424 175.035 380.424H174.109V382.15H175.035C175.694 382.15 176.087 381.827 176.087 381.252L176.101 381.28Z" fill="#263238"/>
<path d="M181.308 383.301V383.778H178.501V383.399L180.059 381.897C180.466 381.504 180.536 381.266 180.536 381.027C180.536 380.789 180.256 380.396 179.722 380.396C179.54 380.384 179.358 380.415 179.19 380.485C179.022 380.556 178.873 380.665 178.754 380.803L178.375 380.48C178.552 380.286 178.769 380.134 179.012 380.034C179.255 379.935 179.516 379.89 179.778 379.905C180.578 379.905 181.084 380.312 181.084 380.971C181.075 381.207 181.013 381.437 180.904 381.646C180.795 381.855 180.64 382.037 180.452 382.178L179.287 383.301H181.308Z" fill="#263238"/>
<path d="M163.232 390.009L160.565 398.135H158.544L156.762 392.634L154.909 398.093H152.902L150.236 389.967H152.187L154.025 395.679L155.934 389.967H157.674L159.541 395.722L161.421 389.967L163.232 390.009Z" fill="#263238"/>
<path d="M170.698 394.557V398.093H168.888V394.795C168.888 393.785 168.425 393.322 167.625 393.322C166.825 393.322 166.123 393.855 166.123 395.006V398.093H164.312V389.476H166.123V392.48C166.387 392.23 166.697 392.035 167.037 391.908C167.377 391.78 167.739 391.721 168.102 391.736C168.47 391.708 168.839 391.763 169.182 391.899C169.526 392.034 169.834 392.245 170.084 392.517C170.334 392.788 170.519 393.113 170.625 393.466C170.732 393.82 170.757 394.192 170.698 394.557Z" fill="#263238"/>
<path d="M177.856 394.571V398.093H176.157V397.307C175.95 397.611 175.665 397.852 175.331 398.006C174.997 398.159 174.628 398.218 174.263 398.178C172.789 398.178 171.919 397.364 171.919 396.297C171.919 395.23 172.705 394.416 174.6 394.416H176.003C176.003 393.644 175.54 393.195 174.6 393.195C173.954 393.186 173.323 393.388 172.803 393.771L172.158 392.508C172.96 391.992 173.898 391.728 174.852 391.75C176.747 391.792 177.856 392.676 177.856 394.571ZM176.045 396.157V395.525H174.796C173.954 395.525 173.687 395.834 173.687 396.255C173.687 396.676 174.066 397.013 174.712 397.013C174.994 397.021 175.273 396.944 175.511 396.791C175.749 396.638 175.935 396.417 176.045 396.157Z" fill="#263238"/>
<path d="M183.512 397.826C183.072 398.104 182.558 398.241 182.038 398.219C181.731 398.264 181.417 398.237 181.121 398.142C180.825 398.047 180.555 397.886 180.33 397.671C180.106 397.456 179.933 397.193 179.825 396.901C179.718 396.609 179.678 396.297 179.709 395.988V393.42H178.74V392.016H179.709V390.486H181.519V392.016H183.077V393.42H181.519V395.96C181.504 396.067 181.514 396.177 181.546 396.28C181.579 396.383 181.634 396.478 181.708 396.557C181.782 396.637 181.873 396.699 181.974 396.738C182.074 396.778 182.183 396.795 182.291 396.788C182.558 396.789 182.818 396.705 183.035 396.549L183.512 397.826Z" fill="#263238"/>
<path d="M187.596 390.009C187.627 389.732 187.759 389.475 187.967 389.288C188.176 389.102 188.446 388.999 188.725 388.999C189.005 388.999 189.275 389.102 189.483 389.288C189.692 389.475 189.824 389.732 189.855 390.009C189.856 390.155 189.826 390.299 189.768 390.433C189.71 390.566 189.625 390.686 189.518 390.785C189.411 390.884 189.285 390.96 189.147 391.007C189.01 391.055 188.864 391.074 188.718 391.062C188.574 391.074 188.429 391.055 188.292 391.007C188.155 390.96 188.03 390.884 187.924 390.785C187.818 390.685 187.734 390.565 187.678 390.432C187.621 390.298 187.593 390.154 187.596 390.009ZM187.82 391.89H189.631V398.093H187.82V391.89Z" fill="#263238"/>
<path d="M190.712 397.546L191.315 396.255C191.97 396.643 192.715 396.851 193.476 396.858C194.318 396.858 194.627 396.634 194.627 396.283C194.627 395.258 190.852 396.283 190.852 393.813C190.852 392.634 191.918 391.792 193.743 391.792C194.576 391.774 195.4 391.962 196.143 392.339L195.553 393.63C195.001 393.319 194.377 393.159 193.743 393.167C192.929 393.167 192.592 393.42 192.592 393.743C192.592 394.809 196.353 393.743 196.353 396.241C196.353 397.406 195.273 398.22 193.406 398.22C192.464 398.243 191.532 398.01 190.712 397.546Z" fill="#263238"/>
<path d="M207.118 389.518V398.093H205.378V397.364C205.139 397.639 204.841 397.856 204.505 397.997C204.169 398.138 203.805 398.2 203.441 398.178C202.589 398.178 201.771 397.839 201.169 397.236C200.566 396.634 200.227 395.816 200.227 394.964C200.227 394.111 200.566 393.294 201.169 392.691C201.771 392.088 202.589 391.75 203.441 391.75C203.788 391.736 204.135 391.796 204.456 391.927C204.778 392.058 205.069 392.256 205.308 392.508V389.476L207.118 389.518ZM205.336 395.006C205.319 394.692 205.211 394.391 205.024 394.138C204.837 393.886 204.58 393.694 204.285 393.587C203.99 393.479 203.67 393.461 203.365 393.534C203.06 393.608 202.783 393.769 202.569 393.998C202.354 394.228 202.212 394.515 202.16 394.825C202.108 395.135 202.149 395.453 202.276 395.74C202.404 396.027 202.613 396.27 202.877 396.439C203.142 396.608 203.45 396.695 203.764 396.69C203.98 396.69 204.194 396.646 204.393 396.56C204.591 396.475 204.77 396.349 204.917 396.191C205.065 396.032 205.178 395.846 205.25 395.642C205.322 395.438 205.351 395.221 205.336 395.006Z" fill="#263238"/>
<path d="M214.865 395.525H210.136C210.237 395.913 210.474 396.252 210.803 396.481C211.133 396.71 211.533 396.814 211.932 396.774C212.219 396.787 212.506 396.74 212.774 396.636C213.043 396.532 213.286 396.374 213.49 396.171L214.458 397.209C213.969 397.678 213.358 398.001 212.694 398.143C212.031 398.284 211.342 398.238 210.703 398.009C210.065 397.78 209.503 397.378 209.08 396.847C208.658 396.317 208.391 395.679 208.311 395.006C208.307 394.572 208.391 394.141 208.559 393.741C208.727 393.341 208.975 392.979 209.288 392.678C209.601 392.377 209.972 392.143 210.378 391.991C210.785 391.838 211.218 391.771 211.651 391.792C212.083 391.77 212.515 391.838 212.918 391.993C213.321 392.148 213.688 392.386 213.993 392.692C214.299 392.998 214.537 393.364 214.692 393.767C214.847 394.171 214.916 394.602 214.893 395.034C214.893 395.174 214.879 395.371 214.865 395.525ZM210.122 394.458H213.195C213.135 394.094 212.947 393.764 212.666 393.525C212.384 393.287 212.027 393.156 211.658 393.156C211.29 393.156 210.933 393.287 210.651 393.525C210.37 393.764 210.182 394.094 210.122 394.458Z" fill="#263238"/>
<path d="M215.497 397.546L216.1 396.255C216.76 396.643 217.51 396.851 218.276 396.858C219.104 396.858 219.427 396.634 219.427 396.283C219.427 395.258 215.651 396.283 215.651 393.813C215.651 392.634 216.718 391.792 218.542 391.792C219.375 391.775 220.199 391.963 220.942 392.339L220.339 393.63C219.791 393.32 219.172 393.16 218.542 393.167C217.728 393.167 217.378 393.42 217.378 393.743C217.378 394.809 221.153 393.743 221.153 396.241C221.153 397.406 220.072 398.22 218.206 398.22C217.259 398.24 216.324 398.008 215.497 397.546Z" fill="#263238"/>
<path d="M222.009 390.01C222.012 389.867 222.044 389.726 222.104 389.597C222.164 389.467 222.25 389.351 222.357 389.257C222.463 389.162 222.589 389.09 222.724 389.046C222.86 389.001 223.003 388.985 223.145 388.999C223.284 388.983 223.424 388.997 223.557 389.038C223.69 389.079 223.813 389.147 223.918 389.238C224.024 389.329 224.109 389.441 224.169 389.566C224.23 389.692 224.263 389.828 224.268 389.967C224.237 390.245 224.105 390.502 223.896 390.689C223.688 390.875 223.418 390.978 223.138 390.978C222.859 390.978 222.589 390.875 222.38 390.689C222.172 390.502 222.04 390.245 222.009 389.967V390.01ZM222.233 391.89H224.044V398.093H222.233V391.89Z" fill="#263238"/>
<path d="M232.198 391.89V397.083C232.256 397.553 232.204 398.029 232.046 398.476C231.888 398.922 231.629 399.326 231.289 399.655C230.949 399.984 230.537 400.23 230.086 400.373C229.635 400.516 229.157 400.552 228.689 400.479C227.605 400.521 226.535 400.221 225.63 399.623L226.345 398.318C226.986 398.782 227.758 399.028 228.549 399.02C229.826 399.02 230.387 398.444 230.387 397.322V397.055C230.131 397.316 229.822 397.519 229.481 397.652C229.14 397.786 228.774 397.845 228.409 397.827C227.608 397.827 226.841 397.509 226.275 396.943C225.709 396.377 225.391 395.61 225.391 394.809C225.391 394.009 225.709 393.242 226.275 392.676C226.841 392.11 227.608 391.792 228.409 391.792C228.801 391.771 229.192 391.841 229.553 391.997C229.913 392.153 230.232 392.39 230.486 392.69V391.89H232.198ZM230.43 394.809C230.452 394.481 230.375 394.153 230.209 393.869C230.043 393.584 229.795 393.356 229.498 393.215C229.2 393.073 228.867 393.024 228.542 393.074C228.216 393.124 227.913 393.271 227.672 393.496C227.431 393.72 227.263 394.012 227.19 394.333C227.117 394.654 227.142 394.99 227.263 395.297C227.383 395.603 227.593 395.867 227.865 396.053C228.137 396.239 228.458 396.338 228.787 396.339C228.998 396.357 229.21 396.33 229.41 396.261C229.609 396.192 229.793 396.082 229.947 395.938C230.102 395.794 230.225 395.619 230.308 395.425C230.391 395.23 230.432 395.021 230.43 394.809Z" fill="#263238"/>
<path d="M240.254 394.557V398.094H238.443V394.795C238.443 393.785 237.98 393.322 237.18 393.322C236.38 393.322 235.692 393.855 235.692 395.006V398.094H233.882V391.848H235.608V392.578C235.874 392.303 236.196 392.087 236.551 391.944C236.907 391.801 237.288 391.735 237.671 391.75C238.037 391.725 238.403 391.782 238.743 391.917C239.084 392.053 239.389 392.263 239.637 392.533C239.885 392.802 240.069 393.124 240.176 393.475C240.283 393.825 240.309 394.195 240.254 394.557Z" fill="#263238"/>
<path d="M244.871 392.311C244.871 391.75 244.38 391.385 243.622 391.385C243.292 391.376 242.965 391.449 242.671 391.599C242.377 391.748 242.125 391.969 241.938 392.241L240.535 391.427C240.901 390.906 241.396 390.489 241.972 390.216C242.547 389.943 243.183 389.823 243.819 389.869C245.559 389.869 246.766 390.641 246.766 392.016C246.766 393.869 244.815 394.079 244.815 395.314H243.061C243.061 393.686 244.871 393.322 244.871 392.311ZM242.836 397.167C242.867 396.893 242.998 396.639 243.204 396.455C243.41 396.271 243.676 396.17 243.952 396.17C244.228 396.17 244.494 396.271 244.7 396.455C244.906 396.639 245.037 396.893 245.068 397.167C245.037 397.441 244.906 397.695 244.7 397.879C244.494 398.063 244.228 398.164 243.952 398.164C243.676 398.164 243.41 398.063 243.204 397.879C242.998 397.695 242.867 397.441 242.836 397.167Z" fill="#263238"/>
<path d="M272.239 513.57H148.369C143.676 513.566 139.177 511.701 135.859 508.383C132.541 505.064 130.675 500.565 130.671 495.873C130.675 491.18 132.541 486.681 135.859 483.362C139.177 480.044 143.676 478.179 148.369 478.175H272.239C276.933 478.175 281.434 480.039 284.753 483.358C288.072 486.677 289.937 491.179 289.937 495.873C289.937 500.566 288.072 505.068 284.753 508.387C281.434 511.706 276.933 513.57 272.239 513.57Z" fill="#FF725E"/>
<path d="M175.694 492.673V500.153H174.291L170.558 495.62V500.153H168.817V492.673H170.221L173.94 497.22V492.673H175.694Z" fill="white"/>
<path d="M183.245 498.764V500.168H177.448V492.687H183.062V494.09H179.133V495.719H182.711V497.122H179.245V498.848L183.245 498.764Z" fill="white"/>
<path d="M189.266 500.153L187.455 497.557L185.687 500.153H183.694L186.501 496.35L183.877 492.673H185.841L187.568 495.101L189.252 492.673H191.133L188.48 496.336L191.287 500.196L189.266 500.153Z" fill="white"/>
<path d="M193.406 494.09H191.021V492.687H197.533V494.09H195.147V500.153H193.406V494.09Z" fill="white"/>
<path d="M200.957 496.42C201.006 495.614 201.291 494.84 201.776 494.194C202.261 493.548 202.925 493.059 203.686 492.787C204.446 492.515 205.27 492.472 206.055 492.664C206.84 492.856 207.551 493.274 208.1 493.866L206.991 494.905C206.765 494.625 206.478 494.4 206.152 494.247C205.827 494.094 205.471 494.016 205.111 494.02C204.781 493.995 204.45 494.038 204.138 494.147C203.825 494.256 203.539 494.428 203.297 494.653C203.054 494.877 202.86 495.15 202.728 495.453C202.596 495.756 202.527 496.083 202.527 496.413C202.527 496.744 202.596 497.071 202.728 497.374C202.86 497.677 203.054 497.949 203.297 498.174C203.539 498.399 203.825 498.571 204.138 498.68C204.45 498.788 204.781 498.831 205.111 498.806C205.471 498.81 205.827 498.733 206.152 498.58C206.478 498.426 206.765 498.202 206.991 497.922L208.1 498.946C207.555 499.544 206.846 499.968 206.062 500.165C205.278 500.361 204.453 500.322 203.69 500.053C202.928 499.783 202.262 499.295 201.776 498.649C201.29 498.003 201.005 497.227 200.957 496.42Z" fill="white"/>
<path d="M216.184 492.673V500.153H214.458V497.094H211.047V500.153H209.377V492.673H211.104V495.62H214.514V492.673H216.184Z" fill="white"/>
<path d="M222.879 498.553H219.412L218.753 500.153H216.97L220.311 492.673H222.009L225.349 500.153H223.553L222.879 498.553ZM222.332 497.234L221.153 494.427L219.96 497.234H222.332Z" fill="white"/>
<path d="M232.633 495.396C232.633 497.052 231.384 498.09 229.377 498.09H227.876V500.153H226.135V492.673H229.377C231.384 492.673 232.633 493.711 232.633 495.396ZM230.879 495.396C230.879 494.568 230.346 494.09 229.279 494.09H227.876V496.687H229.279C230.346 496.687 230.879 496.196 230.879 495.396Z" fill="white"/>
<path d="M235.201 494.09H232.815V492.687H239.328V494.09H236.942V500.153H235.201V494.09Z" fill="white"/>
<path d="M246.05 498.764V500.168H240.254V492.687H245.867V494.09H241.938V495.719H245.404V497.122H241.938V498.848L246.05 498.764Z" fill="white"/>
<path d="M252.197 500.153L250.794 498.076H249.208V500.153H247.468V492.673H250.71C252.703 492.673 253.952 493.711 253.952 495.396C253.973 495.899 253.837 496.396 253.563 496.818C253.288 497.241 252.89 497.568 252.422 497.754L254.092 500.153H252.197ZM250.569 494.09H249.166V496.701H250.569C251.636 496.701 252.169 496.196 252.169 495.396C252.169 494.596 251.636 494.09 250.569 494.09Z" fill="white"/>
<path d="M104.903 300.946C104.899 300.682 104.949 300.421 105.05 300.178C105.151 299.934 105.301 299.714 105.491 299.532C105.68 299.349 105.905 299.207 106.152 299.114C106.398 299.022 106.661 298.981 106.924 298.995C107.186 298.991 107.446 299.042 107.687 299.143C107.929 299.245 108.147 299.395 108.328 299.584L107.963 299.935C107.827 299.789 107.662 299.673 107.478 299.595C107.294 299.518 107.096 299.481 106.896 299.486C106.507 299.486 106.134 299.64 105.859 299.915C105.584 300.191 105.43 300.564 105.43 300.953C105.43 301.342 105.584 301.715 105.859 301.99C106.134 302.265 106.507 302.419 106.896 302.419C107.097 302.423 107.296 302.383 107.48 302.303C107.664 302.223 107.829 302.105 107.963 301.956L108.328 302.307C108.046 302.592 107.686 302.787 107.293 302.868C106.901 302.949 106.493 302.912 106.121 302.762C105.749 302.612 105.43 302.356 105.203 302.025C104.977 301.694 104.853 301.304 104.847 300.903L104.903 300.946Z" fill="#263238"/>
<path d="M112.455 299.037V302.854H111.907V301.156H109.732V302.854H109.184V299.037H109.732V300.679H111.935V299.037H112.455Z" fill="#263238"/>
<path d="M116.019 301.9H113.942L113.521 302.854H112.96L114.686 299.037H115.346L117.072 302.854H116.496L116.019 301.9ZM115.837 301.465L115.009 299.598L114.181 301.465H115.837Z" fill="#263238"/>
<path d="M120.664 300.37C120.664 301.198 120.075 301.703 119.079 301.703H118.152V302.854H117.619V299.037H119.107C120.075 299.037 120.664 299.542 120.664 300.37ZM120.117 300.37C120.117 299.823 119.752 299.514 119.064 299.514H118.152V301.254H119.093C119.752 301.254 120.117 300.917 120.117 300.37Z" fill="#263238"/>
<path d="M122.11 299.514H120.805V299.037H123.963V299.514H122.643V302.854H122.11V299.514Z" fill="#263238"/>
<path d="M127.331 302.391V302.854H124.524V299.037H127.218V299.514H125.169V300.693H127.078V301.156H125.169V302.391H127.331Z" fill="#263238"/>
<path d="M130.784 302.854L129.956 301.689H128.763V302.854H128.216V299.037H129.717C130.714 299.037 131.303 299.542 131.303 300.37C131.318 300.637 131.243 300.9 131.09 301.119C130.938 301.338 130.716 301.499 130.461 301.577L131.373 302.854H130.784ZM130.784 300.37C130.784 299.823 130.419 299.514 129.731 299.514H128.791V301.254H129.731C130.377 301.254 130.784 300.917 130.784 300.37Z" fill="#263238"/>
<path d="M134.517 299.037V302.854H133.983V299.514H133.113V299.037H134.517Z" fill="#263238"/>
<path d="M105.521 310.672H107.205V317.913H105.521V310.672Z" fill="#263238"/>
<path d="M115.528 310.672V317.913H114.125L110.518 313.521V317.913H108.89V310.672H110.293L113.886 315.078V310.672H115.528Z" fill="#263238"/>
<path d="M118.742 312.047H116.426V310.644H122.741V312.047H120.426V317.913H118.742V312.047Z" fill="#263238"/>
<path d="M128.244 317.913L126.84 315.892H125.296V317.913H123.626V310.672H126.756C128.693 310.672 129.9 311.682 129.9 313.31C129.921 313.797 129.788 314.278 129.522 314.686C129.255 315.094 128.867 315.408 128.412 315.584L130.04 317.913H128.244ZM126.672 312.047H125.268V314.559H126.672C127.696 314.559 128.216 314.096 128.216 313.31C128.216 312.524 127.696 312.047 126.672 312.047Z" fill="#263238"/>
<path d="M130.783 314.292C130.741 313.502 130.937 312.717 131.346 312.039C131.754 311.361 132.357 310.821 133.075 310.489C133.794 310.157 134.595 310.048 135.376 310.176C136.157 310.304 136.882 310.664 137.457 311.208C138.031 311.752 138.43 312.456 138.6 313.229C138.771 314.002 138.706 314.808 138.413 315.544C138.121 316.279 137.615 316.91 136.96 317.355C136.306 317.8 135.533 318.039 134.741 318.04C134.231 318.07 133.72 317.996 133.24 317.821C132.76 317.647 132.321 317.375 131.95 317.024C131.579 316.673 131.284 316.249 131.083 315.779C130.883 315.309 130.781 314.803 130.783 314.292ZM137.015 314.292C137.007 313.845 136.866 313.409 136.611 313.041C136.357 312.673 135.999 312.388 135.582 312.222C135.166 312.057 134.711 312.017 134.272 312.11C133.834 312.202 133.433 312.422 133.119 312.742C132.805 313.061 132.593 313.466 132.509 313.906C132.424 314.346 132.472 314.801 132.645 315.214C132.818 315.627 133.11 315.98 133.483 316.228C133.855 316.476 134.293 316.608 134.741 316.608C135.046 316.616 135.348 316.561 135.631 316.447C135.913 316.333 136.169 316.162 136.382 315.945C136.595 315.728 136.761 315.469 136.87 315.185C136.979 314.9 137.028 314.597 137.015 314.292Z" fill="#263238"/>
<path d="M139.962 310.672H143.246C143.748 310.627 144.254 310.688 144.732 310.85C145.21 311.012 145.648 311.271 146.02 311.612C146.392 311.952 146.689 312.366 146.892 312.828C147.095 313.289 147.2 313.788 147.2 314.292C147.2 314.797 147.095 315.295 146.892 315.757C146.689 316.218 146.392 316.633 146.02 316.973C145.648 317.314 145.21 317.573 144.732 317.735C144.254 317.897 143.748 317.958 143.246 317.913H139.962V310.672ZM143.162 316.538C143.457 316.538 143.749 316.48 144.021 316.367C144.294 316.254 144.541 316.089 144.75 315.88C144.958 315.672 145.124 315.424 145.236 315.152C145.349 314.879 145.407 314.587 145.407 314.292C145.407 313.998 145.349 313.706 145.236 313.433C145.124 313.161 144.958 312.913 144.75 312.705C144.541 312.496 144.294 312.331 144.021 312.218C143.749 312.105 143.457 312.047 143.162 312.047H141.632V316.538H143.162Z" fill="#263238"/>
<path d="M148.439 314.728V310.672H150.123V314.671C150.123 316.075 150.713 316.608 151.737 316.608C152.762 316.608 153.337 316.047 153.337 314.671V310.672H154.993V314.728C155.023 315.176 154.96 315.626 154.808 316.049C154.657 316.472 154.42 316.859 154.113 317.187C153.806 317.515 153.435 317.777 153.022 317.955C152.61 318.134 152.166 318.226 151.716 318.226C151.267 318.226 150.822 318.134 150.41 317.955C149.998 317.777 149.627 317.515 149.319 317.187C149.012 316.859 148.776 316.472 148.624 316.049C148.473 315.626 148.41 315.176 148.439 314.728Z" fill="#263238"/>
<path d="M156.201 314.292C156.249 313.514 156.526 312.766 156.996 312.143C157.465 311.52 158.108 311.048 158.843 310.787C159.578 310.525 160.374 310.485 161.132 310.672C161.89 310.858 162.576 311.263 163.106 311.836L162.025 312.833C161.807 312.563 161.531 312.346 161.218 312.198C160.904 312.049 160.561 311.974 160.214 311.977C159.6 311.977 159.011 312.221 158.577 312.655C158.143 313.089 157.899 313.678 157.899 314.292C157.899 314.907 158.143 315.496 158.577 315.93C159.011 316.364 159.6 316.608 160.214 316.608C160.562 316.614 160.906 316.54 161.22 316.392C161.534 316.243 161.809 316.024 162.025 315.752L163.106 316.749C162.579 317.328 161.892 317.739 161.132 317.93C160.373 318.12 159.573 318.082 158.835 317.819C158.097 317.557 157.454 317.082 156.985 316.454C156.516 315.827 156.243 315.075 156.201 314.292Z" fill="#263238"/>
<path d="M165.66 312.047H163.344V310.644H169.645V312.047H167.274V317.913H165.603L165.66 312.047Z" fill="#263238"/>
<path d="M170.544 310.672H172.228V317.913H170.544V310.672Z" fill="#263238"/>
<path d="M173.491 314.292C173.449 313.502 173.645 312.717 174.053 312.039C174.462 311.361 175.064 310.821 175.783 310.489C176.501 310.157 177.303 310.048 178.084 310.176C178.865 310.304 179.59 310.664 180.164 311.208C180.739 311.752 181.137 312.456 181.308 313.229C181.479 314.002 181.413 314.808 181.121 315.544C180.829 316.279 180.323 316.91 179.668 317.355C179.013 317.8 178.24 318.039 177.449 318.04C176.939 318.07 176.428 317.996 175.948 317.821C175.468 317.647 175.029 317.375 174.658 317.024C174.287 316.673 173.992 316.249 173.791 315.779C173.59 315.309 173.488 314.803 173.491 314.292ZM179.708 314.292C179.7 313.844 179.559 313.408 179.304 313.04C179.048 312.671 178.69 312.386 178.273 312.221C177.856 312.056 177.399 312.017 176.961 312.111C176.522 312.205 176.121 312.426 175.808 312.747C175.495 313.068 175.283 313.474 175.201 313.915C175.118 314.356 175.167 314.811 175.343 315.224C175.518 315.637 175.812 315.988 176.186 316.235C176.561 316.481 177 316.611 177.449 316.608C177.753 316.616 178.055 316.562 178.336 316.447C178.618 316.333 178.873 316.162 179.085 315.944C179.297 315.727 179.462 315.468 179.569 315.184C179.677 314.899 179.724 314.596 179.708 314.292Z" fill="#263238"/>
<path d="M189.308 310.672V317.913H187.904L184.297 313.521V317.913H182.711V310.672H184.115L187.708 315.078V310.672H189.308Z" fill="#263238"/>
<path d="M209.574 347.779H212.493C212.619 347.783 212.741 347.821 212.846 347.889C212.951 347.957 213.036 348.053 213.091 348.165C213.146 348.278 213.169 348.404 213.158 348.529C213.146 348.653 213.101 348.773 213.027 348.874L211.539 350.923C211.48 351.01 211.4 351.081 211.307 351.13C211.214 351.179 211.111 351.205 211.006 351.205C210.901 351.205 210.797 351.179 210.704 351.13C210.611 351.081 210.532 351.01 210.472 350.923L209.069 348.874C208.991 348.776 208.941 348.659 208.926 348.534C208.911 348.41 208.93 348.284 208.983 348.17C209.035 348.057 209.119 347.96 209.223 347.891C209.327 347.822 209.449 347.783 209.574 347.779Z" fill="#E0E0E0"/>
<path d="M305.936 328.159C305.936 328.159 306.203 328.159 306.75 328.159H309.319V328.341C298.4 328.496 257.615 328.622 209.027 328.622L135.724 328.51L113.507 328.397H107.458H105.886C105.709 328.419 105.53 328.419 105.353 328.397H105.886H107.458L113.507 328.327L135.724 328.201L209.027 328.103C257.615 328.103 298.4 328.215 309.319 328.369V328.552H306.75C306.217 328.187 305.936 328.159 305.936 328.159Z" fill="#263238"/>
<path d="M309.501 339.597C309.501 339.793 264.057 339.962 208.031 339.962C152.004 339.962 106.546 339.793 106.546 339.597C106.546 339.4 151.976 339.232 208.031 339.232C264.085 339.232 309.501 339.4 309.501 339.597Z" fill="#263238"/>
<path d="M308.813 355.456C308.813 355.653 263.369 355.821 207.343 355.821C151.316 355.821 105.858 355.653 105.858 355.456C105.858 355.26 151.288 355.091 207.343 355.091C263.397 355.091 308.813 355.26 308.813 355.456Z" fill="#E0E0E0"/>
<path d="M309.642 161.231L315.634 153.048L322.399 142.017L326.806 131.996C326.806 131.996 326.96 130.818 325.402 130.705C323.845 130.593 321.473 136.095 321.473 136.095L319.129 139.856C319.129 139.856 316.547 142.214 316.504 141.835C316.462 141.456 319.129 136.067 319.129 136.067L324.35 124.137C324.423 123.711 324.332 123.273 324.095 122.911C323.858 122.549 323.493 122.29 323.073 122.186C322.189 121.92 321.01 122.649 320.027 124.263C319.045 125.877 317.908 128.993 317.361 129.877C316.813 130.761 313.894 136.333 313.894 136.333L318.441 122.102C318.441 122.102 320.42 117.892 318.441 117.274C316.462 116.657 315.634 120.207 314.89 121.485C314.147 122.762 310.947 132.333 309.206 134.438C307.466 136.544 307.887 135.182 307.887 135.182L310.778 127.435C312.041 124.025 312.112 121.583 310.989 120.502C309.866 119.421 306.933 127.337 306.933 127.337L302.582 138.228L299.986 140.866L299.747 136.656C299.747 136.656 302.119 133.077 300.926 130.088C299.733 127.098 298.021 128.361 298.021 128.361L292.716 144.88C292.154 147.785 296.365 155.954 296.365 155.954L287.944 170.48C287.944 170.48 301.852 179.588 302.47 179.391C303.087 179.195 309.642 161.231 309.642 161.231Z" fill="#FFBF9D"/>
<path d="M308.126 152.908C307.777 151.998 307.509 151.059 307.326 150.101C306.847 147.839 305.541 145.837 303.663 144.487C302.73 143.861 301.61 143.574 300.491 143.673H300.112V143.252C300.028 141.456 299.775 139.758 299.719 138.621C299.663 137.484 299.719 136.754 299.719 136.754C299.904 137.344 300.031 137.95 300.098 138.565C300.405 140.128 300.63 141.707 300.771 143.294L300.378 142.929C301.661 142.782 302.954 143.096 304.028 143.814C305.223 144.548 306.194 145.597 306.834 146.845C307.329 147.834 307.683 148.888 307.887 149.975C308.128 150.933 308.208 151.924 308.126 152.908Z" fill="#FF9A6C"/>
<path d="M182.417 31.7889C183.019 30.6325 183.964 29.6906 185.122 29.0926C186.281 28.4945 187.596 28.2696 188.887 28.4487C190.401 27.2685 192.265 26.6276 194.185 26.6276C196.105 26.6276 197.969 27.2685 199.483 28.4487C200.607 27.7523 201.892 27.3591 203.213 27.3074C204.534 27.2557 205.846 27.5473 207.021 28.1538C208.196 28.7602 209.193 29.6609 209.916 30.7678C210.639 31.8747 211.063 33.1501 211.146 34.4696C212.469 34.2261 213.835 34.4065 215.049 34.9852C216.263 35.5638 217.264 36.5111 217.908 37.692C218.552 38.8728 218.807 40.2269 218.636 41.5611C218.465 42.8953 217.877 44.1415 216.956 45.1219C218.408 45.5679 219.643 46.5354 220.424 47.8379C221.204 49.1405 221.475 50.6859 221.184 52.1763C220.893 53.6667 220.06 54.9966 218.847 55.9097C217.634 56.8228 216.125 57.2545 214.612 57.1215L183.736 38.9606C182.796 38.0517 182.164 36.872 181.928 35.5861C181.691 34.3003 181.862 32.9728 182.417 31.7889Z" fill="#263238"/>
<path d="M215.525 57.9496C214.863 51.4298 211.771 45.3982 206.863 41.0551C201.956 36.712 195.593 34.3759 189.041 34.5117H187.638C173.098 35.6625 165.954 48.6586 167.512 63.1564L170.614 111.576L172.733 117.639L197.771 149.02L204.087 120.741L204.213 107.618C204.213 107.618 218.163 105.148 218.037 91.1556C218.037 84.433 216.802 70.5246 215.525 57.9496Z" fill="#FFBF9D"/>
<path d="M204.255 107.66C197.796 107.768 191.44 106.025 185.94 102.636C185.94 102.636 190.431 112.643 204.185 111.141L204.255 107.66Z" fill="#FF9A6C"/>
<path d="M209.967 71.7456C209.983 72.2686 209.793 72.7769 209.439 73.1623C209.085 73.5477 208.595 73.7796 208.072 73.8087C207.819 73.8337 207.564 73.8079 207.321 73.7329C207.078 73.6578 206.853 73.535 206.658 73.3715C206.463 73.2081 206.303 73.0074 206.187 72.7812C206.07 72.555 206.001 72.3079 205.981 72.0543C205.966 71.5336 206.153 71.0272 206.504 70.6422C206.855 70.2573 207.342 70.0238 207.862 69.9912C208.116 69.9662 208.372 69.9918 208.616 70.0668C208.86 70.1417 209.086 70.2643 209.282 70.4276C209.478 70.5908 209.639 70.7915 209.757 71.0177C209.875 71.244 209.946 71.4914 209.967 71.7456Z" fill="#263238"/>
<path d="M212.83 65.5704C212.577 65.8371 211.047 64.7424 208.9 64.7985C206.753 64.8547 205.195 65.9494 204.956 65.6967C204.718 65.4441 205.083 65.1073 205.756 64.588C206.669 63.9205 207.769 63.5572 208.9 63.5494C210.022 63.5179 211.124 63.8475 212.044 64.4898C212.718 64.981 212.942 65.4722 212.83 65.5704Z" fill="#263238"/>
<path d="M191.329 72.293C191.345 72.8123 191.157 73.3171 190.805 73.6998C190.454 74.0825 189.967 74.313 189.448 74.342C189.195 74.3671 188.94 74.3413 188.697 74.2662C188.454 74.1912 188.229 74.0683 188.034 73.9049C187.839 73.7414 187.679 73.5408 187.563 73.3146C187.446 73.0884 187.377 72.8413 187.357 72.5877C187.342 72.067 187.529 71.5606 187.88 71.1756C188.231 70.7906 188.718 70.5572 189.238 70.5246C189.492 70.5016 189.747 70.5292 189.991 70.6058C190.234 70.6825 190.459 70.8068 190.653 70.9713C190.848 71.1358 191.008 71.3374 191.124 71.5643C191.24 71.7912 191.31 72.0389 191.329 72.293Z" fill="#263238"/>
<path d="M192.256 65.6968C192.017 65.9494 190.473 64.8687 188.326 64.9108C186.179 64.9529 184.621 66.0757 184.382 65.8091C184.144 65.5424 184.508 65.2196 185.182 64.7143C186.099 64.0449 187.204 63.6815 188.34 63.6758C189.457 63.6462 190.554 63.9758 191.47 64.6161C192.143 65.1073 192.368 65.5705 192.256 65.6968Z" fill="#263238"/>
<path d="M199.666 81.4717C200.794 81.0998 201.962 80.8642 203.146 80.77C203.694 80.77 204.199 80.5875 204.283 80.2086C204.324 79.6428 204.186 79.0785 203.89 78.5946C203.343 77.2754 202.782 75.8859 202.178 74.3842C199.806 68.4897 198.066 63.6196 198.304 63.5354C198.543 63.4512 200.662 68.1528 203.048 74.0474L204.69 78.2578C205.044 78.9144 205.158 79.6735 205.013 80.4051C204.935 80.5978 204.815 80.7708 204.662 80.9115C204.51 81.0523 204.327 81.1573 204.129 81.2191C203.827 81.3049 203.516 81.3567 203.203 81.3735C202.033 81.557 200.844 81.59 199.666 81.4717Z" fill="#263238"/>
<path d="M192.157 59.5496C191.904 60.1109 190.052 59.6478 187.792 59.732C185.533 59.8162 183.68 60.3215 183.442 59.732C183.329 59.4654 183.708 58.9461 184.48 58.4549C185.486 57.8526 186.634 57.5281 187.806 57.5145C188.96 57.4677 190.104 57.7345 191.118 58.2864C191.89 58.7776 192.255 59.2829 192.157 59.5496Z" fill="#263238"/>
<path d="M212.185 59.6758C211.862 60.2091 210.332 59.8582 208.564 60.0126C206.795 60.167 205.322 60.6722 204.929 60.195C204.746 59.9705 204.929 59.4652 205.546 58.9319C206.348 58.2885 207.328 57.9064 208.353 57.8372C209.396 57.7402 210.442 57.9761 211.343 58.5109C212.1 58.946 212.353 59.4231 212.185 59.6758Z" fill="#263238"/>
<path d="M214.037 51.5638C214.037 51.5638 210.177 42.8764 205.911 40.9256C200.746 38.5537 198.655 44.2097 193.757 42.9465C188.859 41.6834 183.933 39.4098 179.02 43.2834C173.645 47.4938 176.214 50.3007 176.059 56.5742C175.203 81.8366 170.754 88.9802 169.21 77.149C169.042 75.8578 165.407 74.9034 164.761 69.4159C163.919 62.3144 163.47 53.6831 164.958 48.6025C166.207 44.3921 168.579 41.3326 172.859 38.0063C179.624 32.7434 189.055 32.3925 195.469 32.9539C201.883 33.5153 214.402 40.5747 214.037 51.5638Z" fill="#263238"/>
<path d="M170.081 76.6999C170.053 76.1834 169.921 75.6779 169.691 75.2144C169.462 74.7509 169.14 74.339 168.746 74.0041C168.352 73.6691 167.893 73.418 167.399 73.2662C166.905 73.1144 166.384 73.065 165.87 73.1211C163.274 73.4298 160.397 74.9596 160.677 80.3489C161.183 89.9065 170.67 87.4364 170.67 87.1557C170.67 86.875 170.333 80.7559 170.081 76.6999Z" fill="#FFBF9D"/>
<path d="M168.453 83.7172C168.453 83.7172 168.285 83.8436 168.018 83.9839C167.629 84.1758 167.18 84.2061 166.769 84.0681C166.131 83.7113 165.6 83.1896 165.232 82.5576C164.864 81.9256 164.673 81.2065 164.678 80.4752C164.605 79.66 164.72 78.839 165.014 78.0753C165.077 77.7612 165.218 77.4681 165.424 77.2228C165.63 76.9775 165.895 76.7881 166.193 76.6718C166.383 76.609 166.588 76.6154 166.773 76.6899C166.958 76.7645 167.111 76.9023 167.204 77.0789C167.344 77.3315 167.302 77.528 167.344 77.542C167.386 77.556 167.541 77.3736 167.442 76.9806C167.381 76.7456 167.237 76.541 167.035 76.4052C166.902 76.3117 166.752 76.2461 166.592 76.2123C166.433 76.1785 166.269 76.1773 166.109 76.2087C165.719 76.3057 165.361 76.5012 165.069 76.7764C164.776 77.0517 164.559 77.3974 164.439 77.7806C164.082 78.6315 163.933 79.5552 164.004 80.4752C164.172 82.398 165.253 84.1523 166.657 84.4751C166.916 84.5347 167.186 84.5354 167.446 84.4771C167.705 84.4188 167.949 84.3031 168.158 84.1383C168.439 83.9558 168.481 83.7172 168.453 83.7172Z" fill="#FF9A6C"/>
<path d="M169.898 58.2163C171.087 59.1451 172.492 59.7582 173.982 59.9987C174.73 60.1006 175.489 59.9277 176.119 59.5121C176.748 59.0966 177.206 58.4666 177.406 57.7391C177.505 57.0654 177.322 56.3356 177.743 55.7743C178.164 55.2129 179.231 55.3252 180.031 55.3953C181.431 55.476 182.816 55.0721 183.953 54.2517C185.091 53.4312 185.911 52.2442 186.276 50.8902C186.716 51.3513 187.311 51.6325 187.947 51.6792C188.582 51.7259 189.212 51.5347 189.715 51.1428C190.689 50.3272 191.549 49.3829 192.269 48.3359C192.629 47.8076 193.112 47.3753 193.677 47.0769C194.242 46.7784 194.872 46.6228 195.511 46.6237C196.19 46.8387 196.892 46.9753 197.602 47.0307C198.865 46.8903 199.441 45.4167 199.609 44.2237C199.778 43.0308 199.89 41.5151 200.942 40.8133C202.025 40.3619 203.231 40.3024 204.353 40.6449C205.518 40.7993 207.005 40.4905 207.272 39.3537C207.314 39.0496 207.294 38.7403 207.215 38.4438C207.135 38.1473 206.997 37.8698 206.809 37.6275C206.01 36.4866 204.848 35.6494 203.513 35.2519C202.178 34.8544 200.748 34.92 199.455 35.438C198.939 33.8694 197.974 32.4869 196.679 31.4625C195.384 30.4381 193.817 29.8169 192.172 29.6763C190.527 29.5358 188.876 29.8819 187.426 30.6718C185.977 31.4616 184.791 32.6603 184.017 34.1188C182.982 33.2175 181.744 32.5795 180.41 32.2593C179.075 31.9391 177.683 31.946 176.352 32.2795C175.02 32.613 173.789 33.2632 172.763 34.1748C171.738 35.0864 170.947 36.2324 170.459 37.5152C169.282 37.2308 168.046 37.2991 166.907 37.7115C165.768 38.124 164.776 38.8624 164.053 39.8347C163.33 40.8071 162.91 41.9706 162.844 43.1802C162.777 44.3898 163.068 45.5922 163.68 46.6377C162.8 47.0995 162.052 47.7768 161.505 48.6064C160.957 49.4359 160.629 50.3907 160.551 51.3814C160.551 53.3603 162.53 55.283 164.424 54.7217C164.039 55.5116 163.973 56.4193 164.239 57.2569C164.504 58.0945 165.082 58.7978 165.852 59.2215C166.622 59.6452 167.525 59.7567 168.375 59.5331C169.224 59.3094 169.956 58.7676 170.417 58.0198" fill="#263238"/>
<path d="M163.695 54.6375C163.666 54.9701 163.708 55.3051 163.819 55.6199C163.931 55.9347 164.108 56.2219 164.341 56.462C164.821 57.0655 165.514 57.4622 166.277 57.5707C166.764 57.6368 167.259 57.5944 167.728 57.4464C168.196 57.2983 168.626 57.0484 168.986 56.7146H168.579C169.106 57.5908 169.764 58.3812 170.53 59.0584C171.047 59.5146 171.648 59.8671 172.298 60.0969C172.92 60.3157 173.588 60.3642 174.235 60.2373C174.781 60.1799 175.309 60.0031 175.779 59.7193C176.25 59.4356 176.652 59.0518 176.958 58.5952C177.331 57.986 177.579 57.3085 177.688 56.6023C177.772 56.1111 177.786 55.8304 177.688 55.8164C177.567 56.047 177.478 56.2923 177.421 56.5462C177.246 57.2023 176.962 57.824 176.579 58.3847C176.231 58.7981 175.801 59.1348 175.317 59.3735C174.833 59.6122 174.304 59.7477 173.764 59.7715C173.225 59.7952 172.686 59.7067 172.182 59.5115C171.679 59.3162 171.221 59.0186 170.839 58.6373C170.107 58.0035 169.477 57.2602 168.972 56.4339L168.79 56.1532L168.565 56.3777C168.264 56.667 167.903 56.8871 167.508 57.0228C167.113 57.1585 166.693 57.2066 166.277 57.1637C165.607 57.0936 164.984 56.7848 164.523 56.2935C164.141 55.8011 163.86 55.2384 163.695 54.6375Z" fill="#455A64"/>
<path d="M181.308 32.4205C181.308 32.4205 181.561 32.4205 181.996 32.6591C182.613 32.9042 183.138 33.336 183.497 33.8941L183.624 34.0625L183.75 33.8941C184.915 32.2468 186.48 30.9233 188.297 30.0486C189.467 29.4816 190.745 29.1752 192.045 29.1504C193.474 29.1207 194.883 29.4901 196.115 30.217C197.083 30.7772 197.92 31.5381 198.571 32.4485C199.159 33.2839 199.543 34.2451 199.693 35.2555V35.5642L199.988 35.48C201.172 35.1219 202.445 35.1946 203.58 35.6853C204.716 36.176 205.641 37.0529 206.192 38.1606C206.593 39.044 206.818 39.9977 206.851 40.9676C206.925 40.7125 206.959 40.4472 206.949 40.1816C206.943 39.4357 206.781 38.6994 206.472 38.0203C205.993 36.9547 205.187 36.0697 204.171 35.4941C202.85 34.7548 201.291 34.5681 199.834 34.9748L200.171 35.1853C200.035 34.0711 199.63 33.0066 198.992 32.0836C198.305 31.0961 197.409 30.272 196.367 29.6697C195.048 28.8892 193.534 28.4998 192.002 28.5469C190.631 28.5855 189.284 28.9257 188.059 29.5434C186.188 30.4779 184.603 31.8981 183.469 33.6555H183.722C183.299 33.0733 182.698 32.6447 182.01 32.4345C181.78 32.3784 181.54 32.3736 181.308 32.4205Z" fill="#455A64"/>
<path d="M193.939 84.84C193.939 84.84 191.132 90.6082 197.083 91.9836C197.6 92.1033 198.14 92.0741 198.641 91.8994C199.093 91.7515 199.501 91.491 199.825 91.1424C200.149 90.7938 200.379 90.3685 200.494 89.9065L201.308 86.7767C201.083 86.8469 193.939 84.84 193.939 84.84Z" fill="#FF9A6C"/>
<path d="M199.174 91.6748C199.174 91.759 199.034 92.0116 198.515 92.1941C197.786 92.4081 197.012 92.4081 196.283 92.1941C195.144 91.932 194.129 91.2882 193.406 90.3696C193.037 89.7822 192.785 89.1295 192.662 88.4468C192.522 87.7238 192.522 86.9805 192.662 86.2574C192.8 85.5694 193.031 84.9035 193.35 84.2785L193.631 83.7172L194.234 83.9136C198.445 85.2189 201.476 86.4399 201.378 86.7206C201.28 87.0013 198.01 86.3978 193.771 85.2048L194.641 84.8399C194.396 85.3596 194.213 85.9059 194.094 86.468C193.996 87.0156 193.996 87.5764 194.094 88.124C194.163 88.6138 194.315 89.0883 194.543 89.5275C195.069 90.2446 195.79 90.7951 196.62 91.1134C197.193 91.3652 197.806 91.5125 198.431 91.5485C198.866 91.6467 199.118 91.5906 199.174 91.6748Z" fill="#263238"/>
<path d="M234.163 265.438L220.465 140.15L208.957 115.618L204.41 111.113L201.645 122.017L197.785 135.926L187.217 122.523L170.53 109.442L170.151 115.898L162.137 139.561L168.776 201.327V265.297L234.163 265.438Z" fill="white"/>
<path d="M204.241 265.298C204.241 265.298 204.241 265.185 204.241 264.975C204.241 264.764 204.241 264.399 204.241 263.992C204.241 263.108 204.157 261.845 204.101 260.245C203.988 256.947 203.834 252.231 203.638 246.421C203.231 234.758 202.585 218.66 201.673 200.878C200.76 183.097 199.722 166.999 198.866 155.364C198.459 149.568 198.136 144.852 197.897 141.568C197.799 139.968 197.715 138.761 197.645 137.821C197.645 137.409 197.645 137.086 197.645 136.852C197.626 136.741 197.626 136.627 197.645 136.516V136.838C197.645 137.091 197.645 137.414 197.743 137.821C197.827 138.705 197.939 139.954 198.094 141.554C198.375 144.81 198.768 149.512 199.203 155.336C200.101 166.971 201.182 183.068 202.094 200.85C203.006 218.632 203.609 234.744 203.918 246.421C204.087 252.245 204.185 256.975 204.227 260.231C204.227 261.845 204.227 263.108 204.227 263.992V264.975C204.244 265.081 204.249 265.19 204.241 265.298Z" fill="#263238"/>
<path d="M177.224 264.975C177.024 260.16 177.118 255.337 177.505 250.533C178.024 240.709 178.585 223.109 177.701 212.639C176.045 192.991 172.326 160.711 172.087 152.136C171.849 143.561 170.347 111.436 170.347 111.436L167.933 115.646L164.073 120.951L129.38 137.582L148.551 197.58L154.867 221.257L143.878 265.438" fill="#455A64"/>
<path d="M228.311 265.915C228.072 259.768 221.588 208.471 221.588 208.471L213.055 128.193L206.641 112.446L217.097 118.551L250.948 129.681L248.24 153.624L246.682 215.643L253.84 265.508" fill="#455A64"/>
<path d="M217.798 118.523C217.958 118.669 218.103 118.828 218.233 119L219.398 120.404L223.735 125.849L223.833 125.962L223.721 126.06L220.03 128.867V128.558L224.338 129.961H224.479V130.102C224.394 137.807 224.296 147.505 224.184 158.017C223.987 170.844 223.819 182.451 223.707 190.9C223.622 195.11 223.552 198.479 223.496 200.865L223.426 203.573V204.289C223.426 204.443 223.426 204.528 223.426 204.528C223.42 204.448 223.42 204.368 223.426 204.289V203.573C223.426 202.914 223.426 202.015 223.426 200.865C223.426 198.479 223.426 195.082 223.426 190.9C223.51 182.479 223.637 170.83 223.763 158.003C223.917 147.491 224.058 137.793 224.156 130.102L224.296 130.284L219.988 128.881L219.665 128.768L219.931 128.572L223.651 125.765V125.976L219.44 120.446L218.331 119.042C218.143 118.881 217.965 118.708 217.798 118.523Z" fill="#263238"/>
<path d="M175.694 202.549L175.61 202.31C175.61 202.128 175.47 201.903 175.385 201.622C175.175 200.977 174.894 200.093 174.515 198.97C173.771 196.668 172.649 193.356 171.203 189.258L168.817 182.577C167.876 180.029 167.065 177.434 166.389 174.802C164.94 168.751 163.806 162.628 162.993 156.459C161.828 147.912 161.07 139.87 160.607 132.937V132.838H160.677L164.41 129.246V129.54L160.874 126.846L160.747 126.747L160.846 126.607L167.217 117.962L168.972 115.632L169.435 115.029L169.603 114.832C169.603 114.832 169.603 114.916 169.477 115.057L169.056 115.688L167.372 118.074L161.126 126.818V126.565L164.691 129.232L164.859 129.358L164.705 129.526L161 133.133L161.07 132.965C161.575 139.884 162.347 147.926 163.526 156.445C164.328 162.579 165.443 168.669 166.866 174.69C167.526 177.315 168.318 179.905 169.238 182.451C170.08 184.851 170.852 187.096 171.568 189.146C172.971 193.244 174.038 196.584 174.74 198.97C175.091 200.121 175.357 201.033 175.526 201.65L175.694 202.352C175.694 202.464 175.694 202.535 175.694 202.549Z" fill="#263238"/>
<g opacity="0.3">
<path d="M148.495 246.786L166.881 253.986L168.102 249.888L177.21 257.48L177.701 246.154L169.701 234.927L149.842 241.369L148.495 246.786Z" fill="black"/>
</g>
<path d="M210.935 246.631L203.483 242.112L196.929 236.176C198.448 237.404 200.173 238.354 202.023 238.983C202.91 239.253 203.86 239.224 204.728 238.899C205.596 238.574 206.332 237.972 206.823 237.186C206.823 237.186 204.143 235.488 203.216 234.983C202.29 234.477 192.999 227.53 190.585 227.025C188.171 226.52 172.677 223.334 172.677 223.334L172.438 224.148L164.747 240.526L171.582 242.351C172.878 244.179 174.041 246.097 175.063 248.091C176.593 251.165 184.045 254.196 186.922 255.698C189.799 257.2 193.027 254.561 193.027 254.561C196.325 255.319 197.139 251.754 197.139 251.754C200.929 251.235 201.252 247.109 201.252 247.109C204.195 248.279 207.198 249.296 210.248 250.154C210.566 250.24 210.905 250.202 211.196 250.049C211.488 249.895 211.711 249.637 211.82 249.326C212.016 248.845 212.035 248.31 211.873 247.816C211.711 247.323 211.379 246.903 210.935 246.631Z" fill="#FFBF9D"/>
<path d="M201.308 247.095C199.779 246.636 198.316 245.98 196.957 245.144C195.515 244.437 194.204 243.487 193.083 242.337C193.167 242.225 194.908 243.446 197.195 244.695C198.627 245.386 200.002 246.188 201.308 247.095Z" fill="#FF9A6C"/>
<path d="M189.224 246.519C190.753 247.181 192.191 248.035 193.504 249.059C194.909 249.946 196.259 250.916 197.546 251.965C196.004 251.329 194.555 250.489 193.238 249.466C191.832 248.579 190.491 247.594 189.224 246.519Z" fill="#FF9A6C"/>
<path d="M186.263 249.663C186.347 249.565 187.792 250.772 189.715 252.063C190.927 252.784 192.057 253.636 193.083 254.603C191.786 254.041 190.561 253.325 189.434 252.47C188.206 251.748 187.129 250.795 186.263 249.663Z" fill="#FF9A6C"/>
<path d="M188.171 229.678C188.747 229.684 189.315 229.808 189.841 230.043C191.135 230.508 192.344 231.181 193.42 232.035C194.492 232.891 195.457 233.871 196.297 234.955C196.676 235.367 196.98 235.841 197.195 236.358C195.902 234.971 194.539 233.65 193.111 232.4C191.59 231.282 189.929 230.367 188.171 229.678Z" fill="#FF9A6C"/>
<path d="M116.216 227.418C115.245 226.809 114.437 225.971 113.865 224.978C113.292 223.984 112.972 222.866 112.932 221.72C112.865 218.478 113.053 215.235 113.493 212.022C114.798 201.089 129.324 137.638 129.324 137.638L150.713 187.125L144.524 208.626L176.031 223.713L167.274 248.456C167.274 248.456 125.394 233.13 116.216 227.418Z" fill="#455A64"/>
<path d="M292.982 152.641L276.519 178.297L250.948 129.681L242.12 162.311L247.159 185.314L265.909 213.383C269.053 218.057 279.017 219.783 285.459 212.401L313.234 166.269L292.982 152.641Z" fill="#455A64"/>
<path d="M247.355 145.357C247.37 145.591 247.37 145.825 247.355 146.059C247.355 146.55 247.355 147.21 247.355 148.038C247.355 149.82 247.439 152.248 247.496 155.35C247.566 161.525 247.608 170.044 247.496 179.462C247.383 188.879 247.215 197.412 247.018 203.587C246.906 206.633 246.808 209.117 246.738 210.885C246.738 211.713 246.738 212.373 246.639 212.878C246.637 213.109 246.613 213.339 246.569 213.566C246.548 213.337 246.548 213.107 246.569 212.878C246.569 212.373 246.569 211.713 246.569 210.885C246.569 209.103 246.639 206.675 246.682 203.573C246.794 197.412 246.934 188.879 247.032 179.462C247.131 170.044 247.271 161.525 247.271 155.294C247.271 152.248 247.271 149.764 247.271 147.982C247.271 147.168 247.271 146.494 247.271 146.003C247.268 145.785 247.296 145.567 247.355 145.357Z" fill="#263238"/>
<path d="M137.703 152.22C137.787 152.396 137.853 152.579 137.899 152.768L138.376 154.396C138.797 155.799 139.373 157.876 140.074 160.361C141.478 165.399 143.401 172.374 145.365 180.121C147.33 187.868 148.874 194.942 149.842 200.079C150.334 202.661 150.713 204.752 150.923 206.198C151.035 206.871 151.12 207.433 151.176 207.854C151.197 208.05 151.197 208.247 151.176 208.443C151.101 208.263 151.049 208.075 151.021 207.882L150.685 206.226C150.39 204.738 149.969 202.675 149.45 200.149C148.397 195.026 146.797 187.981 144.832 180.234C142.867 172.487 141.001 165.511 139.681 160.445C139.05 157.961 138.517 155.912 138.138 154.438C137.983 153.764 137.843 153.231 137.745 152.796C137.709 152.606 137.695 152.413 137.703 152.22Z" fill="#263238"/>
<path d="M126.658 232.484L126.854 232.555L127.444 232.765L129.717 233.607L138.138 236.863L167.302 248.217L166.993 248.358C168.832 243.179 170.811 237.565 172.874 231.755L175.765 223.601L175.877 223.909L144.818 208.892C142.448 208.125 139.947 207.839 137.464 208.05C135.592 208.235 133.76 208.709 132.033 209.454C130.935 209.925 129.875 210.479 128.861 211.11L128.089 211.629C127.907 211.741 127.822 211.797 127.808 211.783L128.061 211.587L128.819 211.025C129.81 210.353 130.857 209.766 131.949 209.271C136.042 207.444 140.667 207.199 144.931 208.583L176.13 223.502L176.326 223.587L176.256 223.797L173.365 231.951L167.47 248.54L167.4 248.779L167.176 248.68L138.068 237.158L129.647 233.79L127.401 232.863L126.826 232.611C126.714 232.484 126.644 232.484 126.658 232.484Z" fill="#263238"/>
<path d="M197.392 135.435C197.073 135.196 196.777 134.928 196.507 134.635L194.15 132.291L186.22 124.193H186.571C185.538 125.451 184.834 126.946 184.522 128.544C184.347 129.383 184.281 130.242 184.325 131.098V131.646L183.904 131.295C179.89 128.039 176.648 124.853 174.206 122.677L171.4 120.109C171.036 119.82 170.694 119.506 170.375 119.169C170.78 119.402 171.161 119.674 171.512 119.983C172.228 120.53 173.252 121.386 174.487 122.439C176.971 124.558 180.269 127.702 184.311 130.86L183.932 131.07C183.873 130.172 183.939 129.27 184.129 128.389C184.45 126.71 185.194 125.14 186.29 123.828L186.459 123.632L186.641 123.814L194.444 132.038L196.704 134.466C196.963 134.767 197.193 135.091 197.392 135.435Z" fill="#263238"/>
<path d="M207.974 117.709C208.01 117.956 208.01 118.206 207.974 118.453C207.974 118.944 207.974 119.646 207.876 120.544C207.679 122.954 207.285 125.343 206.697 127.688L206.557 128.277L206.276 127.744C205.465 126.196 204.429 124.778 203.203 123.533C202.852 123.183 202.487 122.846 202.136 122.537L202.529 122.411C201.806 125.636 200.845 128.802 199.652 131.884C199.203 133.049 198.81 133.975 198.515 134.607C198.377 134.94 198.208 135.26 198.01 135.561C198.087 135.209 198.2 134.866 198.347 134.537L199.343 131.73C200.432 128.628 201.336 125.465 202.052 122.256L202.136 121.863L202.445 122.13C202.827 122.453 203.192 122.795 203.539 123.155C204.81 124.441 205.871 125.918 206.683 127.533H206.262C206.86 125.226 207.305 122.882 207.596 120.516C207.876 118.804 207.974 117.709 207.974 117.709Z" fill="#263238"/>
<path d="M236.759 242.323L239.594 251.094L255.566 249.621L250.583 241.242L236.759 242.323Z" fill="#455A64"/>
<path d="M236.773 242.309C237.083 242.246 237.397 242.209 237.713 242.196L240.52 241.916C242.934 241.677 246.415 241.354 250.569 241.003H250.709L250.78 241.116L255.776 249.536L255.972 249.873H255.593L254.765 249.958L239.608 251.361H239.454V251.221C238.598 248.414 237.924 246.238 237.475 244.723L236.955 242.968C236.843 242.575 236.787 242.379 236.815 242.379C236.843 242.379 236.913 242.617 237.054 243.024C237.194 243.431 237.419 244.077 237.671 244.793L239.819 251.094L239.608 250.968L254.765 249.565H255.593L255.397 249.929L250.443 241.509L250.639 241.621C246.597 241.916 243.173 242.126 240.731 242.281L237.924 242.449C237.152 242.309 236.787 242.309 236.773 242.309Z" fill="#263238"/>
<path d="M243.987 172.753H226.823V178.297H243.987V172.753Z" fill="#455A64"/>
<path d="M243.987 178.297C243.987 178.297 243.987 178.142 243.987 177.89C243.987 177.637 243.987 177.216 243.987 176.781C243.987 175.77 243.987 174.423 243.903 172.753L244.057 172.921C239.973 172.921 233.798 173.006 226.893 173.006C227.005 172.893 226.654 173.244 227.131 172.753V178.255L226.893 178.016C231.791 178.016 236.043 178.086 239.103 178.128H242.71C243.566 178.128 244.043 178.128 244.113 178.128C243.702 178.155 243.289 178.155 242.878 178.128H239.327C236.268 178.128 231.945 178.226 226.949 178.24H226.71V172.5L226.949 172.262C233.854 172.262 240.029 172.262 244.113 172.346H244.282V172.5C244.282 174.213 244.254 175.588 244.197 176.626C244.18 177.189 244.11 177.748 243.987 178.297Z" fill="#263238"/>
<g opacity="0.3">
<path d="M224.184 130.13L226.823 133.765C226.823 133.765 226.093 188.893 223.286 202.535L224.184 130.13Z" fill="black"/>
</g>
<path d="M235.328 89.1766L240.394 80.5594C237.847 73.0509 238.201 64.8613 241.385 57.6002C244.57 50.3392 250.355 44.5318 257.604 41.3197C264.853 38.1075 273.041 37.7228 280.559 40.2411C288.078 42.7595 294.382 47.9988 298.233 54.9293C302.084 61.8598 303.204 69.9802 301.373 77.6944C299.541 85.4086 294.89 92.1587 288.334 96.618C281.778 101.077 273.792 102.923 265.944 101.793C258.096 100.663 250.955 96.638 245.924 90.5099L235.328 89.1766Z" fill="white"/>
<path d="M235.328 89.1767L236.044 89.2469L238.093 89.4714L245.952 90.4118L245.812 90.5802C245.791 90.557 245.78 90.527 245.78 90.496C245.78 90.4649 245.791 90.4349 245.812 90.4118C245.834 90.3947 245.861 90.3854 245.889 90.3854C245.917 90.3854 245.944 90.3947 245.966 90.4118C249.33 94.4598 253.646 97.6089 258.527 99.5764C261.659 100.843 264.978 101.588 268.352 101.78C276.43 102.285 284.393 99.656 290.582 94.4397C296.132 89.7917 299.903 83.3674 301.256 76.2562C302.609 69.145 301.461 61.7847 298.007 55.4234C295.604 50.8954 292.112 47.0367 287.846 44.1956C283.791 41.4957 279.173 39.7579 274.344 39.1151C269.793 38.5295 265.168 38.956 260.801 40.3642C256.817 41.6363 253.124 43.6865 249.938 46.3962C246.752 49.1058 244.135 52.4209 242.24 56.1492C240.344 59.8776 239.207 63.9451 238.896 68.1161C238.584 72.287 239.103 76.4783 240.423 80.4472C240.43 80.4625 240.434 80.4793 240.434 80.4963C240.434 80.5133 240.43 80.5301 240.423 80.5454L236.619 86.8891C236.184 87.5908 235.861 88.1381 235.623 88.5311C235.384 88.9241 235.258 89.1065 235.258 89.1065L235.553 88.5592L236.493 86.9171L240.212 80.4331V80.5314C238.486 75.5183 238.047 70.1519 238.935 64.9248C240.327 56.8066 244.793 49.5368 251.406 44.6257C258.018 39.7147 266.268 37.5401 274.443 38.5537C279.36 39.2093 284.063 40.9755 288.197 43.7185C292.53 46.6056 296.087 50.5145 298.554 55.1006C300.801 59.2624 302.097 63.8711 302.348 68.5942C302.599 73.3173 301.799 78.0372 300.005 82.4138C298.211 86.7903 295.469 90.7143 291.976 93.903C288.483 97.0917 284.325 99.4656 279.804 100.854C276.1 101.995 272.218 102.442 268.352 102.173C264.927 101.972 261.56 101.204 258.387 99.8992C253.46 97.878 249.117 94.6549 245.756 90.524L245.966 90.3977C245.973 90.4133 245.977 90.4302 245.977 90.4472C245.977 90.4643 245.974 90.4812 245.967 90.4969C245.961 90.5126 245.951 90.5269 245.939 90.5388C245.926 90.5507 245.912 90.56 245.896 90.5662H245.868L237.952 89.4714L236.044 89.3311L235.328 89.1767Z" fill="#263238"/>
<path d="M262.008 70.3843C262.008 70.9811 261.831 71.5644 261.499 72.0607C261.167 72.5569 260.696 72.9436 260.145 73.172C259.593 73.4004 258.987 73.4602 258.401 73.3437C257.816 73.2273 257.278 72.9399 256.856 72.5179C256.434 72.0959 256.147 71.5583 256.031 70.9729C255.914 70.3876 255.974 69.7809 256.202 69.2295C256.431 68.6782 256.817 68.2069 257.314 67.8753C257.81 67.5438 258.393 67.3668 258.99 67.3668C259.79 67.3668 260.558 67.6847 261.124 68.2506C261.69 68.8165 262.008 69.584 262.008 70.3843Z" fill="#263238"/>
<path d="M274.078 70.3843C274.078 70.9811 273.901 71.5644 273.569 72.0607C273.237 72.5569 272.766 72.9436 272.215 73.172C271.663 73.4004 271.057 73.4602 270.471 73.3437C269.886 73.2273 269.348 72.9399 268.926 72.5179C268.504 72.0959 268.217 71.5583 268.101 70.9729C267.984 70.3876 268.044 69.7809 268.272 69.2295C268.501 68.6782 268.887 68.2069 269.384 67.8753C269.88 67.5438 270.463 67.3668 271.06 67.3668C271.86 67.3668 272.628 67.6847 273.194 68.2506C273.76 68.8165 274.078 69.584 274.078 70.3843Z" fill="#263238"/>
<path d="M286.119 68.8685C286.42 69.3846 286.561 69.9785 286.524 70.5749C286.487 71.1713 286.274 71.7433 285.912 72.2184C285.55 72.6936 285.054 73.0504 284.489 73.2438C283.924 73.4372 283.314 73.4584 282.736 73.3047C282.159 73.1509 281.64 72.8293 281.246 72.3804C280.851 71.9315 280.599 71.3757 280.521 70.7833C280.443 70.1909 280.542 69.5887 280.807 69.0529C281.071 68.5171 281.489 68.0719 282.007 67.7738C282.699 67.3797 283.518 67.2735 284.287 67.4784C285.057 67.6832 285.715 68.1826 286.119 68.8685Z" fill="#263238"/>
<path d="M211.932 188.219C223.442 188.219 232.773 178.888 232.773 167.378C232.773 155.867 223.442 146.536 211.932 146.536C200.422 146.536 191.09 155.867 191.09 167.378C191.09 178.888 200.422 188.219 211.932 188.219Z" fill="#FF725E"/>
<path d="M206.908 173.539V161.231C206.91 161.095 206.948 160.963 207.017 160.846C207.085 160.73 207.183 160.633 207.3 160.565C207.417 160.497 207.55 160.461 207.685 160.46C207.821 160.458 207.954 160.492 208.073 160.557L219.062 166.746C219.192 166.812 219.301 166.912 219.377 167.036C219.453 167.16 219.494 167.302 219.494 167.448C219.494 167.593 219.453 167.736 219.377 167.86C219.301 167.984 219.192 168.084 219.062 168.15L208.073 174.241C207.953 174.312 207.816 174.349 207.676 174.349C207.537 174.348 207.4 174.31 207.28 174.238C207.161 174.166 207.063 174.063 206.998 173.94C206.932 173.817 206.901 173.678 206.908 173.539Z" fill="white"/>
<path d="M334.314 266.659H81.2131V287.809H334.314V266.659Z" fill="#E0E0E0"/>
<path d="M310.596 277.859H107.894V276.862H310.596C310.724 276.87 310.844 276.926 310.93 277.021C311.017 277.115 311.063 277.24 311.059 277.368C311.061 277.43 311.051 277.493 311.028 277.551C311.006 277.61 310.972 277.664 310.929 277.709C310.886 277.755 310.835 277.791 310.778 277.817C310.72 277.843 310.659 277.857 310.596 277.859Z" fill="white"/>
<path d="M141.534 278.448H109.044C108.698 278.428 108.373 278.28 108.129 278.034C107.885 277.788 107.742 277.461 107.725 277.115C107.725 276.765 107.864 276.429 108.111 276.182C108.359 275.934 108.694 275.795 109.044 275.795H141.534V278.448Z" fill="#FF725E"/>
<path d="M143.962 277.227C143.962 277.882 143.768 278.522 143.404 279.067C143.04 279.612 142.523 280.036 141.918 280.287C141.313 280.538 140.647 280.603 140.004 280.476C139.362 280.348 138.771 280.032 138.308 279.569C137.845 279.106 137.529 278.516 137.402 277.873C137.274 277.231 137.339 276.565 137.59 275.959C137.841 275.354 138.265 274.837 138.81 274.473C139.355 274.109 139.995 273.915 140.65 273.915C141.529 273.915 142.371 274.264 142.992 274.885C143.613 275.506 143.962 276.349 143.962 277.227Z" fill="#FF725E"/>
<path d="M321.627 276.862H320.771V274.42H323.213V275.262H321.627V276.862Z" fill="#263238"/>
<path d="M323.213 280.034H320.771V277.606H321.613V279.192H323.213V280.034Z" fill="#263238"/>
<path d="M327.1 280.034H324.658V279.192H326.244V277.606H327.1V280.034Z" fill="#263238"/>
<path d="M327.1 276.848H326.258V275.262H324.658V274.42H327.1V276.848Z" fill="#263238"/>
<path d="M93.325 281.423V273.297C93.3258 273.207 93.35 273.119 93.3953 273.041C93.4405 272.963 93.5053 272.898 93.5831 272.853C93.661 272.808 93.7493 272.783 93.8394 272.783C93.9295 272.782 94.0182 272.804 94.0969 272.848L101.353 276.946C101.431 276.992 101.497 277.057 101.542 277.136C101.588 277.215 101.611 277.304 101.611 277.395C101.611 277.486 101.588 277.576 101.542 277.655C101.497 277.733 101.431 277.799 101.353 277.845L94.0829 281.872C94.0052 281.917 93.917 281.941 93.8273 281.94C93.7376 281.94 93.6497 281.915 93.5726 281.87C93.4954 281.824 93.4318 281.758 93.3883 281.68C93.3448 281.602 93.3229 281.513 93.325 281.423Z" fill="#263238"/>
<path d="M131.078 373.14H115.079C109.312 373.14 104.637 377.815 104.637 383.582V399.581C104.637 405.348 109.312 410.023 115.079 410.023H131.078C136.845 410.023 141.52 405.348 141.52 399.581V383.582C141.52 377.815 136.845 373.14 131.078 373.14Z" fill="#FF725E"/>
<path d="M118.152 398.234V384.915C118.152 384.767 118.191 384.622 118.265 384.494C118.339 384.366 118.445 384.259 118.573 384.185C118.701 384.111 118.846 384.072 118.994 384.072C119.142 384.072 119.287 384.111 119.415 384.185L131.317 390.894C131.448 390.966 131.558 391.073 131.634 391.203C131.711 391.332 131.751 391.48 131.751 391.63C131.751 391.781 131.711 391.929 131.634 392.058C131.558 392.188 131.448 392.294 131.317 392.367L119.415 398.978C119.285 399.048 119.14 399.083 118.992 399.08C118.845 399.078 118.701 399.037 118.574 398.962C118.447 398.887 118.341 398.781 118.267 398.653C118.193 398.526 118.154 398.381 118.152 398.234Z" fill="white"/>
<path d="M150.25 431.636C150.245 431.373 150.295 431.111 150.396 430.868C150.497 430.625 150.647 430.405 150.837 430.222C151.026 430.039 151.251 429.897 151.498 429.805C151.744 429.712 152.007 429.672 152.271 429.685C152.532 429.682 152.792 429.732 153.034 429.834C153.275 429.935 153.493 430.085 153.674 430.275L153.309 430.625C153.173 430.479 153.008 430.363 152.824 430.286C152.64 430.208 152.442 430.171 152.242 430.176C151.853 430.176 151.48 430.331 151.205 430.606C150.93 430.881 150.776 431.254 150.776 431.643C150.776 432.032 150.93 432.405 151.205 432.68C151.48 432.955 151.853 433.11 152.242 433.11C152.443 433.113 152.642 433.074 152.826 432.994C153.01 432.914 153.175 432.795 153.309 432.646L153.674 432.997C153.392 433.282 153.032 433.477 152.639 433.558C152.247 433.639 151.839 433.602 151.467 433.453C151.095 433.303 150.776 433.046 150.55 432.716C150.323 432.385 150.199 431.995 150.193 431.594L150.25 431.636Z" fill="#263238"/>
<path d="M157.786 429.728V433.545H157.239V431.847H155.05V433.545H154.502V429.728H155.05V431.37H157.239V429.728H157.786Z" fill="#263238"/>
<path d="M161.365 432.591H159.33L158.909 433.545H158.348L160.088 429.728H160.621L162.361 433.545H161.786L161.365 432.591ZM161.183 432.156L160.354 430.289L159.526 432.156H161.183Z" fill="#263238"/>
<path d="M166.011 431.061C166.011 431.889 165.407 432.394 164.425 432.394H163.471V433.545H162.923V429.728H164.467C165.407 429.728 166.011 430.233 166.011 431.061ZM165.463 431.061C165.463 430.513 165.099 430.205 164.397 430.205H163.471V431.917H164.467C165.099 431.917 165.463 431.608 165.463 431.061Z" fill="#263238"/>
<path d="M167.456 430.205H166.137V429.728H169.309V430.205H167.99V433.545H167.456V430.205Z" fill="#263238"/>
<path d="M172.663 433.082V433.545H169.856V429.728H172.551V430.205H170.404V431.384H172.312V431.847H170.404V433.082H172.663Z" fill="#263238"/>
<path d="M176.101 433.545L175.287 432.38H174.095V433.531H173.547V429.714H175.035C176.031 429.714 176.635 430.219 176.635 431.047C176.645 431.312 176.568 431.574 176.416 431.791C176.264 432.009 176.045 432.172 175.793 432.254L176.705 433.531L176.101 433.545ZM176.101 431.061C176.101 430.513 175.737 430.205 175.035 430.205H174.109V431.931H175.035C175.694 431.931 176.087 431.608 176.087 431.061H176.101Z" fill="#263238"/>
<path d="M181.308 432.422C181.308 433.068 180.831 433.601 179.905 433.601C179.398 433.612 178.902 433.448 178.501 433.138L178.754 432.703C179.074 432.976 179.484 433.122 179.905 433.11C180.466 433.11 180.803 432.843 180.803 432.436C180.803 432.029 180.508 431.763 179.862 431.763H179.554V431.384L180.508 430.205H178.67V429.728H181.196V430.106L180.199 431.327C180.901 431.412 181.308 431.777 181.308 432.422Z" fill="#263238"/>
<path d="M150.432 442.611C150.477 441.731 150.781 440.884 151.305 440.176C151.83 439.468 152.552 438.93 153.38 438.631C154.209 438.331 155.108 438.282 155.964 438.491C156.82 438.7 157.595 439.157 158.193 439.804L156.986 440.913C156.735 440.615 156.421 440.376 156.067 440.213C155.713 440.05 155.327 439.968 154.937 439.973C154.248 439.973 153.588 440.246 153.101 440.733C152.614 441.22 152.34 441.881 152.34 442.569C152.34 443.258 152.614 443.918 153.101 444.405C153.588 444.892 154.248 445.166 154.937 445.166C155.33 445.171 155.718 445.086 156.073 444.918C156.428 444.75 156.741 444.504 156.986 444.197L158.193 445.32C157.595 445.967 156.82 446.424 155.964 446.633C155.108 446.842 154.209 446.793 153.38 446.494C152.552 446.194 151.83 445.656 151.305 444.948C150.781 444.24 150.477 443.393 150.432 442.513V442.611Z" fill="#263238"/>
<path d="M158.643 443.552C158.601 442.868 158.765 442.187 159.114 441.597C159.463 441.007 159.981 440.536 160.601 440.244C161.221 439.951 161.915 439.852 162.592 439.958C163.269 440.065 163.898 440.372 164.399 440.84C164.9 441.308 165.249 441.915 165.4 442.584C165.552 443.252 165.5 443.95 165.25 444.589C165 445.227 164.565 445.776 164 446.164C163.435 446.552 162.767 446.762 162.081 446.766C161.641 446.797 161.198 446.736 160.782 446.589C160.366 446.441 159.985 446.209 159.662 445.908C159.339 445.606 159.082 445.241 158.907 444.836C158.732 444.431 158.642 443.994 158.643 443.552ZM163.667 443.552C163.643 443.241 163.528 442.945 163.337 442.699C163.146 442.452 162.888 442.267 162.594 442.166C162.299 442.064 161.982 442.051 161.68 442.127C161.378 442.204 161.105 442.366 160.894 442.596C160.683 442.825 160.544 443.111 160.493 443.418C160.443 443.726 160.483 444.041 160.609 444.326C160.735 444.611 160.942 444.852 161.203 445.022C161.465 445.191 161.77 445.28 162.081 445.278C162.302 445.281 162.522 445.238 162.725 445.15C162.928 445.062 163.111 444.933 163.26 444.77C163.41 444.607 163.524 444.414 163.594 444.204C163.664 443.994 163.689 443.772 163.667 443.552Z" fill="#263238"/>
<path d="M177.252 443.103V446.667H175.442V443.369C175.442 442.359 174.993 441.896 174.263 441.896C173.533 441.896 172.86 442.429 172.86 443.538V446.667H171.063V443.369C171.063 442.359 170.642 441.896 169.884 441.896C169.126 441.896 168.481 442.429 168.481 443.538V446.667H166.67V440.422H168.411V441.152C168.657 440.882 168.959 440.67 169.296 440.53C169.633 440.389 169.997 440.324 170.361 440.338C170.763 440.318 171.163 440.4 171.523 440.577C171.884 440.753 172.194 441.019 172.425 441.348C172.697 441.02 173.041 440.759 173.431 440.584C173.82 440.408 174.244 440.324 174.67 440.338C175.033 440.308 175.397 440.361 175.737 440.493C176.076 440.624 176.381 440.83 176.629 441.096C176.878 441.362 177.063 441.681 177.171 442.028C177.279 442.375 177.306 442.743 177.252 443.103Z" fill="#263238"/>
<path d="M185.673 443.552C185.699 443.972 185.636 444.393 185.49 444.788C185.344 445.183 185.117 445.543 184.824 445.845C184.531 446.148 184.178 446.386 183.788 446.544C183.397 446.703 182.978 446.778 182.557 446.766C182.208 446.782 181.859 446.723 181.534 446.592C181.21 446.462 180.917 446.262 180.677 446.008V448.927H178.866V440.422H180.607V441.152C180.848 440.876 181.149 440.659 181.488 440.518C181.826 440.377 182.192 440.315 182.557 440.338C182.978 440.325 183.397 440.401 183.788 440.559C184.178 440.717 184.531 440.955 184.824 441.258C185.117 441.56 185.344 441.92 185.49 442.315C185.636 442.71 185.699 443.131 185.673 443.552ZM183.835 443.552C183.807 443.245 183.692 442.954 183.502 442.712C183.312 442.47 183.056 442.289 182.765 442.19C182.474 442.091 182.16 442.079 181.862 442.155C181.564 442.232 181.295 442.393 181.087 442.619C180.879 442.845 180.741 443.127 180.691 443.431C180.64 443.734 180.679 444.045 180.802 444.327C180.925 444.609 181.127 444.848 181.384 445.017C181.641 445.186 181.941 445.277 182.249 445.278C182.47 445.281 182.689 445.237 182.893 445.15C183.096 445.062 183.278 444.933 183.428 444.77C183.578 444.607 183.691 444.414 183.761 444.204C183.831 443.994 183.856 443.772 183.835 443.552Z" fill="#263238"/>
<path d="M186.417 443.552C186.372 442.864 186.534 442.178 186.884 441.584C187.233 440.99 187.753 440.514 188.376 440.219C188.999 439.924 189.697 439.824 190.378 439.93C191.059 440.036 191.692 440.344 192.196 440.815C192.699 441.286 193.05 441.897 193.202 442.569C193.354 443.242 193.3 443.944 193.048 444.586C192.795 445.227 192.356 445.778 191.787 446.167C191.217 446.556 190.544 446.764 189.855 446.766C189.415 446.796 188.972 446.736 188.556 446.589C188.14 446.441 187.759 446.209 187.436 445.908C187.113 445.606 186.856 445.241 186.681 444.836C186.505 444.43 186.416 443.993 186.417 443.552ZM191.441 443.552C191.416 443.241 191.302 442.945 191.111 442.698C190.92 442.452 190.662 442.267 190.368 442.165C190.073 442.064 189.755 442.051 189.454 442.127C189.152 442.203 188.879 442.366 188.668 442.596C188.457 442.825 188.318 443.111 188.267 443.418C188.217 443.725 188.257 444.041 188.383 444.326C188.509 444.61 188.716 444.852 188.977 445.021C189.238 445.191 189.544 445.28 189.855 445.278C190.076 445.281 190.296 445.237 190.499 445.15C190.702 445.062 190.885 444.933 191.034 444.77C191.184 444.607 191.298 444.414 191.368 444.204C191.438 443.994 191.463 443.772 191.441 443.552Z" fill="#263238"/>
<path d="M193.939 446.092L194.543 444.787C195.2 445.182 195.952 445.391 196.718 445.39C197.56 445.39 197.869 445.18 197.869 444.829C197.869 443.804 194.094 444.829 194.094 442.359C194.094 441.166 195.16 440.338 196.985 440.338C197.818 440.321 198.642 440.509 199.385 440.885L198.781 442.162C198.232 441.858 197.613 441.698 196.985 441.699C196.171 441.699 195.82 441.966 195.82 442.289C195.82 443.355 199.595 442.289 199.595 444.773C199.595 445.938 198.515 446.766 196.648 446.766C195.702 446.78 194.769 446.548 193.939 446.092Z" fill="#263238"/>
<path d="M200.41 438.541C200.415 438.399 200.449 438.26 200.509 438.131C200.57 438.003 200.656 437.888 200.762 437.793C200.868 437.699 200.993 437.627 201.128 437.582C201.262 437.537 201.405 437.519 201.547 437.531C201.686 437.515 201.827 437.529 201.961 437.571C202.095 437.613 202.219 437.682 202.324 437.775C202.43 437.867 202.515 437.98 202.575 438.108C202.634 438.235 202.666 438.373 202.669 438.513C202.638 438.791 202.506 439.048 202.297 439.234C202.089 439.421 201.819 439.524 201.539 439.524C201.26 439.524 200.99 439.421 200.782 439.234C200.573 439.048 200.441 438.791 200.41 438.513V438.541ZM200.634 440.422H202.445V446.667H200.634V440.422Z" fill="#263238"/>
<path d="M208.157 446.373C207.716 446.648 207.203 446.785 206.683 446.766C206.375 446.807 206.061 446.779 205.765 446.682C205.469 446.585 205.199 446.423 204.975 446.207C204.751 445.991 204.579 445.727 204.471 445.435C204.363 445.143 204.323 444.83 204.354 444.52V441.966H203.385V440.562H204.354V439.047H206.164V440.562H207.722V441.966H206.164V444.506C206.149 444.613 206.158 444.722 206.191 444.825C206.223 444.927 206.279 445.021 206.353 445.1C206.427 445.178 206.518 445.238 206.619 445.277C206.72 445.315 206.829 445.33 206.936 445.32C207.197 445.327 207.454 445.248 207.666 445.096L208.157 446.373Z" fill="#263238"/>
<path d="M208.957 438.541C208.96 438.4 208.992 438.261 209.051 438.132C209.11 438.004 209.195 437.889 209.3 437.794C209.405 437.699 209.529 437.627 209.663 437.582C209.797 437.537 209.938 437.519 210.079 437.531C210.219 437.515 210.36 437.529 210.494 437.571C210.628 437.613 210.752 437.682 210.857 437.775C210.963 437.867 211.048 437.98 211.107 438.108C211.167 438.235 211.199 438.373 211.202 438.513C211.202 438.811 211.084 439.097 210.873 439.307C210.663 439.518 210.377 439.636 210.079 439.636C209.782 439.636 209.496 439.518 209.285 439.307C209.075 439.097 208.957 438.811 208.957 438.513V438.541ZM209.181 440.422H210.992V446.667H209.181V440.422Z" fill="#263238"/>
<path d="M212.185 443.552C212.14 442.864 212.303 442.178 212.652 441.584C213.001 440.99 213.521 440.514 214.144 440.219C214.767 439.924 215.465 439.824 216.146 439.93C216.827 440.036 217.46 440.344 217.964 440.815C218.467 441.286 218.818 441.897 218.97 442.569C219.122 443.242 219.068 443.944 218.816 444.586C218.563 445.227 218.124 445.778 217.555 446.167C216.986 446.556 216.313 446.764 215.623 446.766C215.183 446.796 214.741 446.736 214.324 446.589C213.908 446.441 213.527 446.209 213.204 445.908C212.881 445.606 212.624 445.241 212.449 444.836C212.274 444.43 212.184 443.993 212.185 443.552ZM217.223 443.552C217.199 443.242 217.084 442.946 216.894 442.7C216.704 442.454 216.447 442.269 216.153 442.167C215.859 442.065 215.542 442.05 215.241 442.126C214.939 442.201 214.666 442.362 214.455 442.59C214.244 442.818 214.103 443.103 214.051 443.409C213.999 443.716 214.037 444.031 214.161 444.316C214.285 444.601 214.489 444.844 214.749 445.015C215.009 445.185 215.312 445.277 215.623 445.278C215.847 445.285 216.069 445.244 216.276 445.159C216.483 445.073 216.668 444.944 216.821 444.78C216.974 444.617 217.09 444.423 217.162 444.211C217.234 443.999 217.259 443.774 217.237 443.552H217.223Z" fill="#263238"/>
<path d="M226.654 443.103V446.667H224.816V443.369C224.816 442.359 224.352 441.896 223.552 441.896C222.752 441.896 222.051 442.429 222.051 443.58V446.667H220.24V440.422H222.009V441.152C222.279 440.883 222.602 440.672 222.956 440.532C223.311 440.392 223.691 440.326 224.072 440.338C224.432 440.316 224.793 440.375 225.129 440.509C225.464 440.643 225.766 440.849 226.013 441.113C226.26 441.377 226.445 441.692 226.556 442.036C226.667 442.38 226.7 442.744 226.654 443.103Z" fill="#263238"/>
<path d="M131.078 424.422H115.079C109.312 424.422 104.637 429.097 104.637 434.864V450.864C104.637 456.631 109.312 461.305 115.079 461.305H131.078C136.845 461.305 141.52 456.631 141.52 450.864V434.864C141.52 429.097 136.845 424.422 131.078 424.422Z" fill="#E0E0E0"/>
<path d="M118.152 449.516V436.212C118.15 436.062 118.187 435.915 118.26 435.785C118.332 435.655 118.438 435.547 118.567 435.471C118.695 435.396 118.842 435.355 118.991 435.355C119.14 435.354 119.286 435.393 119.415 435.468L131.317 442.176C131.433 442.253 131.528 442.357 131.593 442.48C131.659 442.602 131.693 442.739 131.693 442.878C131.693 443.017 131.659 443.154 131.593 443.276C131.528 443.399 131.433 443.503 131.317 443.58L119.415 450.19C119.291 450.258 119.151 450.294 119.009 450.295C118.867 450.296 118.727 450.261 118.602 450.194C118.477 450.127 118.37 450.03 118.291 449.912C118.213 449.794 118.165 449.658 118.152 449.516Z" fill="white"/>
<path d="M291.326 405.939C291.326 406.135 260.66 406.304 222.837 406.304C185.014 406.304 154.362 406.135 154.362 405.939C154.362 405.742 185.014 405.574 222.837 405.574C260.66 405.574 291.326 405.742 291.326 405.939Z" fill="#263238"/>
<path d="M269.727 455.327C269.727 455.523 243.061 455.692 210.346 455.692C177.631 455.692 150.951 455.523 150.951 455.327C150.951 455.13 177.533 454.962 210.346 454.962C243.159 454.962 269.727 455.13 269.727 455.327Z" fill="#263238"/>
<path d="M306.961 537.85L307.957 537.78C308.94 537.757 309.92 537.663 310.89 537.5C314.735 536.957 318.417 535.587 321.683 533.486C327.039 530.093 331.056 524.95 333.051 518.932C333.388 518.062 333.542 517.121 333.809 516.125C334.076 515.128 334.118 514.202 334.286 513.22C334.454 512.237 334.398 511.199 334.469 510.174C334.539 509.15 334.469 508.069 334.469 506.988C334.469 502.694 334.469 498.104 334.469 493.262C334.469 454.428 334.398 398.262 334.356 328.86C334.314 259.459 334.286 176.865 334.286 85.1206V32.5467C334.4 29.5847 334.273 26.6184 333.907 23.6768C333.449 20.7328 332.5 17.8865 331.1 15.2561C328.29 9.94803 323.812 5.71171 318.357 3.20028C315.612 1.97755 312.688 1.20511 309.697 0.912635C306.708 0.688081 303.62 0.80036 300.561 0.772291H108.876C102.298 0.790869 95.9443 3.16592 90.9673 7.46682C86.0089 11.7375 82.78 17.6713 81.8869 24.154C81.5726 27.3859 81.4695 30.6348 81.5781 33.88V63.0581C81.5781 88.8444 81.5781 114.238 81.5781 139.238C81.5781 189.173 81.5781 237.354 81.5781 283.248C81.5781 329.141 81.5781 372.747 81.5781 413.56C81.5781 433.966 81.5781 453.652 81.5781 472.617C81.5781 482.095 81.5781 491.372 81.5781 500.448V507.227C81.5067 509.447 81.5911 511.67 81.8307 513.879C82.4007 518.205 84.0037 522.331 86.5043 525.907C88.9646 529.386 92.1789 532.265 95.9075 534.328C99.5769 536.286 103.639 537.394 107.795 537.57C116.019 537.682 124.075 537.57 131.892 537.64H176.045H246.78H291.466H303.087H307.059H303.087H291.466L246.78 537.71H176.045H131.892C124.075 537.71 116.047 537.78 107.767 537.71C103.537 537.537 99.4012 536.41 95.6689 534.412C91.8673 532.32 88.5898 529.393 86.0832 525.851C83.5323 522.204 81.8957 517.997 81.3114 513.585C81.0615 511.353 80.9724 509.106 81.0448 506.862V472.589C81.0448 453.642 81.0448 433.957 81.0448 413.531C81.0448 372.719 81.0448 329.113 81.0448 283.22C81.0448 237.326 81.0448 189.188 81.0448 139.21V33.852C80.931 30.574 81.0341 27.2921 81.3535 24.0277C82.3125 17.3603 85.6429 11.262 90.7341 6.85138C95.8253 2.44072 102.336 0.0133445 109.072 0.0144182H300.603C303.676 0.0144182 306.708 -0.0697889 309.81 0.1688C312.877 0.49971 315.871 1.3194 318.68 2.59679C324.256 5.1772 328.831 9.51595 331.704 14.9473C333.106 17.6411 334.055 20.5479 334.511 23.5505C334.881 26.5246 335.008 29.524 334.89 32.5187V50.2304C334.89 61.9914 334.89 73.6028 334.89 85.0644C334.89 176.837 334.89 259.487 334.819 328.902C334.749 398.318 334.721 454.471 334.693 493.304C334.693 498.146 334.693 502.736 334.693 507.03V510.216C334.623 511.255 334.609 512.279 334.511 513.29C334.412 514.3 334.244 515.269 334.005 516.223C333.796 517.171 333.539 518.108 333.233 519.03C332.127 522.316 330.419 525.366 328.195 528.026C326.348 530.222 324.17 532.116 321.739 533.64C318.453 535.733 314.751 537.088 310.89 537.612C309.915 537.765 308.93 537.845 307.943 537.85H306.961Z" fill="#263238"/>
</svg>
