<svg width="383" height="507" viewBox="0 0 383 507" fill="none" xmlns="http://www.w3.org/2000/svg">
<path d="M24.1125 458.659L24.876 457.296L24.8644 457.29L24.1125 458.659ZM29.4281 464.303L28.0501 465.04L29.4281 464.303ZM31.4625 480.709L29.9 480.709L29.9 482.272L31.4625 482.272L31.4625 480.709ZM48 480.709L49.5625 480.709L49.5625 479.147L48 479.147L48 480.709ZM48 491.931L48 493.494L49.5625 493.494L49.5625 491.931L48 491.931ZM1.93123 491.931L0.368733 491.931L0.368733 493.494L1.93123 493.494L1.93123 491.931ZM3.83436 464.434L2.43681 463.736L3.83436 464.434ZM10.9875 480.709L9.42498 480.709L9.42498 482.272L10.9875 482.272L10.9875 480.709ZM22.5375 480.709L22.5375 482.272L24.1 482.272L24.1 480.709L22.5375 480.709ZM16.7625 458.384C19.1815 458.384 21.371 458.937 23.3605 460.029L24.8644 457.29C22.3915 455.932 19.6809 455.259 16.7625 455.259L16.7625 458.384ZM23.349 460.023C25.2392 461.081 26.8133 462.726 28.0501 465.04L30.8061 463.567C29.3304 460.806 27.3607 458.688 24.8759 457.296L23.349 460.023ZM28.0501 465.04C29.2537 467.292 29.9 470.171 29.9 473.753L33.025 473.753C33.025 469.81 32.315 466.39 30.8061 463.567L28.0501 465.04ZM29.9 473.753L29.9 480.709L33.025 480.709L33.025 473.753L29.9 473.753ZM31.4625 482.272L48 482.272L48 479.147L31.4625 479.147L31.4625 482.272ZM46.4375 480.709L46.4375 491.931L49.5625 491.931L49.5625 480.709L46.4375 480.709ZM48 490.369L1.93123 490.369L1.93123 493.494L48 493.494L48 490.369ZM3.49373 491.931L3.49373 473.753L0.368732 473.753L0.368733 491.931L3.49373 491.931ZM3.49373 473.753C3.49373 470.252 4.09883 467.399 5.2319 465.133L2.43681 463.736C1.03239 466.544 0.368732 469.905 0.368732 473.753L3.49373 473.753ZM5.2319 465.133C6.37736 462.842 7.92263 461.183 9.8567 460.083L8.31201 457.367C5.78357 458.804 3.82885 460.952 2.43681 463.736L5.2319 465.133ZM9.8567 460.083C11.8243 458.964 14.1113 458.384 16.7625 458.384L16.7625 455.259C13.6387 455.259 10.8069 455.948 8.31201 457.367L9.8567 460.083ZM24.1 474.606C24.1 472.248 23.5491 470.188 22.1562 468.735L19.9 470.897C20.5196 471.543 20.975 472.677 20.975 474.606L24.1 474.606ZM22.1562 468.735C20.782 467.301 18.907 466.678 16.7625 466.678L16.7625 469.803C18.293 469.803 19.2617 470.231 19.9 470.897L22.1562 468.735ZM16.7625 466.678C14.618 466.678 12.7429 467.301 11.3688 468.735L13.625 470.897C14.2633 470.231 15.232 469.803 16.7625 469.803L16.7625 466.678ZM11.3688 468.735C9.97589 470.188 9.42498 472.248 9.42498 474.606L12.55 474.606C12.55 472.677 13.0053 471.543 13.625 470.897L11.3688 468.735ZM9.42498 474.606L9.42498 480.709L12.55 480.709L12.55 474.606L9.42498 474.606ZM10.9875 482.272L22.5375 482.272L22.5375 479.147L10.9875 479.147L10.9875 482.272ZM24.1 480.709L24.1 474.606L20.975 474.606L20.975 480.709L24.1 480.709ZM45.4406 441.136L46.8033 441.9L46.8073 441.893L45.4406 441.136ZM37.0406 449.733L37.8228 451.085L37.8325 451.08L37.8421 451.074L37.0406 449.733ZM12.6937 449.733L11.8922 451.074L11.9044 451.081L12.6937 449.733ZM4.29373 441.136L2.92707 441.893L2.93101 441.9L4.29373 441.136ZM4.29373 417.314L5.65647 418.079L5.66038 418.072L4.29373 417.314ZM12.6937 408.783L13.4707 410.138L13.4769 410.135L13.4831 410.131L12.6937 408.783ZM37.0406 408.783L37.83 407.434L37.8228 407.43L37.0406 408.783ZM45.4406 417.314L46.8033 416.55L45.4406 417.314ZM34.5469 420.398L33.4948 421.554L33.5005 421.559L33.5062 421.564L34.5469 420.398ZM15.1219 420.398L16.1625 421.564L16.1735 421.554L16.1843 421.544L15.1219 420.398ZM15.0562 438.117L13.9938 439.263L13.9995 439.268L14.0052 439.273L15.0562 438.117ZM34.6125 438.117L35.6531 439.283L35.6641 439.273L35.6749 439.263L34.6125 438.117ZM46.8969 429.192C46.8969 433.27 45.9524 436.989 44.074 440.379L46.8073 441.893C48.9539 438.02 50.0219 433.777 50.0219 429.192L46.8969 429.192ZM44.0779 440.372C42.2011 443.717 39.5963 446.385 36.2391 448.392L37.8421 451.074C41.6599 448.793 44.6551 445.73 46.8033 441.9L44.0779 440.372ZM36.2584 448.38C32.8825 450.333 29.087 451.32 24.8344 451.32L24.8344 454.445C29.5942 454.445 33.9362 453.333 37.8228 451.085L36.2584 448.38ZM24.8344 451.32C20.5815 451.32 16.8112 450.333 13.4831 448.384L11.9044 451.081C15.7513 453.333 20.0747 454.445 24.8344 454.445L24.8344 451.32ZM13.4952 448.392C10.138 446.385 7.53323 443.717 5.65645 440.372L2.93101 441.9C5.07923 445.73 8.07443 448.793 11.8922 451.074L13.4952 448.392ZM5.66038 440.379C3.78198 436.989 2.83748 433.27 2.83748 429.192L-0.287519 429.192C-0.287519 433.777 0.780478 438.02 2.92709 441.893L5.66038 440.379ZM2.83748 429.192C2.83748 425.114 3.78195 421.42 5.65645 418.079L2.93101 416.55C0.780513 420.383 -0.287519 424.608 -0.287519 429.192L2.83748 429.192ZM5.66038 418.072C7.5352 414.689 10.1317 412.052 13.4707 410.138L11.9167 407.427C8.08072 409.626 5.07726 412.677 2.92708 416.557L5.66038 418.072ZM13.4831 410.131C16.8112 408.183 20.5815 407.195 24.8344 407.195L24.8344 404.07C20.0747 404.07 15.7513 405.183 11.9044 407.434L13.4831 410.131ZM24.8344 407.195C29.087 407.195 32.8825 408.183 36.2584 410.135L37.8228 407.43C33.9362 405.183 29.5942 404.07 24.8344 404.07L24.8344 407.195ZM36.2513 410.131C39.6018 412.093 42.2027 414.736 44.0779 418.079L46.8033 416.55C44.6535 412.717 41.6544 409.673 37.8299 407.434L36.2513 410.131ZM44.0779 418.079C45.9524 421.42 46.8969 425.114 46.8969 429.192L50.0219 429.192C50.0219 424.608 48.9538 420.383 46.8033 416.55L44.0779 418.079ZM39.7844 429.192C39.7844 425.131 38.4111 421.754 35.5875 419.233L33.5062 421.564C35.5826 423.418 36.6594 425.903 36.6594 429.192L39.7844 429.192ZM35.5989 419.243C32.8023 416.696 29.1607 415.489 24.8344 415.489L24.8344 418.614C28.558 418.614 31.3914 419.638 33.4948 421.554L35.5989 419.243ZM24.8344 415.489C20.4706 415.489 16.8198 416.693 14.0594 419.253L16.1843 421.544C18.2364 419.641 21.0607 418.614 24.8344 418.614L24.8344 415.489ZM14.0812 419.233C11.2576 421.754 9.88435 425.131 9.88435 429.192L13.0094 429.192C13.0094 425.903 14.0861 423.418 16.1625 421.564L14.0812 419.233ZM9.88435 429.192C9.88435 433.282 11.2247 436.695 13.9938 439.263L16.1186 436.971C14.0753 435.077 13.0094 432.54 13.0094 429.192L9.88435 429.192ZM14.0052 439.273C16.7693 441.786 20.4398 442.961 24.8344 442.961L24.8344 439.836C21.0039 439.836 18.1557 438.823 16.1073 436.961L14.0052 439.273ZM24.8344 442.961C29.1915 442.961 32.8528 441.783 35.6531 439.283L33.5718 436.952C31.4722 438.826 28.6147 439.836 24.8344 439.836L24.8344 442.961ZM35.6749 439.263C38.444 436.695 39.7844 433.282 39.7844 429.192L36.6594 429.192C36.6594 432.54 35.5934 435.077 33.5501 436.971L35.6749 439.263ZM1.93123 335.996L2.32537 334.484L0.368726 333.974L0.368726 335.996L1.93123 335.996ZM48 348.005L49.5625 348.005L49.5625 346.798L48.3941 346.493L48 348.005ZM48 361.59L48.3681 363.108L49.5625 362.819L49.5625 361.59L48 361.59ZM17.6812 368.94L17.3131 367.421L17.3007 370.455L17.6812 368.94ZM48 376.552L49.5625 376.552L49.5625 375.334L48.3805 375.037L48 376.552ZM48 390.137L48.384 391.651L49.5625 391.352L49.5625 390.137L48 390.137ZM1.93123 401.818L0.368729 401.818L0.368729 403.826L2.31527 403.332L1.93123 401.818ZM1.93123 389.808L1.62826 388.276L0.368729 388.525L0.368729 389.808L1.93123 389.808ZM35.4656 383.18L35.7686 384.713L35.8369 381.663L35.4656 383.18ZM1.93123 374.977L0.368728 374.977L0.368728 376.204L1.55996 376.495L1.93123 374.977ZM1.93123 362.64L1.57402 361.119L0.368727 361.402L0.368727 362.64L1.93123 362.64ZM35.4656 354.765L35.8228 356.286L35.7715 353.232L35.4656 354.765ZM1.93123 348.071L0.368727 348.071L0.368727 349.352L1.62537 349.603L1.93123 348.071ZM1.53708 337.508L47.6058 349.517L48.3941 346.493L2.32537 334.484L1.53708 337.508ZM46.4375 348.005L46.4375 361.59L49.5625 361.59L49.5625 348.005L46.4375 348.005ZM47.6319 360.071L17.3131 367.421L18.0494 370.458L48.3681 363.108L47.6319 360.071ZM17.3007 370.455L47.6195 378.068L48.3805 375.037L18.0617 367.424L17.3007 370.455ZM46.4375 376.552L46.4375 390.137L49.5625 390.137L49.5625 376.552L46.4375 376.552ZM47.6159 388.622L1.54719 400.303L2.31527 403.332L48.384 391.651L47.6159 388.622ZM3.49373 401.818L3.49373 389.808L0.368729 389.808L0.368729 401.818L3.49373 401.818ZM2.2342 391.341L35.7686 384.713L35.1626 381.648L1.62826 388.276L2.2342 391.341ZM35.8369 381.663L2.3025 373.459L1.55996 376.495L35.0943 384.698L35.8369 381.663ZM3.49373 374.977L3.49373 362.64L0.368727 362.64L0.368728 374.977L3.49373 374.977ZM2.28844 364.161L35.8228 356.286L35.1084 353.244L1.57402 361.119L2.28844 364.161ZM35.7715 353.232L2.23708 346.539L1.62537 349.603L35.1597 356.297L35.7715 353.232ZM3.49373 348.071L3.49373 335.996L0.368726 335.996L0.368727 348.071L3.49373 348.071ZM10.9219 319.146L9.35935 319.146L9.35935 320.709L10.9219 320.709L10.9219 319.146ZM20.2406 319.146L20.2406 320.709L21.8031 320.709L21.8031 319.146L20.2406 319.146ZM20.2406 304.118L20.2406 302.556L18.6781 302.556L18.6781 304.118L20.2406 304.118ZM28.9031 304.118L30.4656 304.118L30.4656 302.556L28.9031 302.556L28.9031 304.118ZM28.9031 319.146L27.3406 319.146L27.3406 320.709L28.9031 320.709L28.9031 319.146ZM39.0093 319.146L39.0093 320.709L40.5718 320.709L40.5718 319.146L39.0093 319.146ZM39.0093 302.149L39.0093 300.587L37.4468 300.587L37.4468 302.149L39.0093 302.149ZM48 302.149L49.5625 302.149L49.5625 300.587L48 300.587L48 302.149ZM48 330.368L48 331.931L49.5625 331.931L49.5625 330.368L48 330.368ZM1.93123 330.368L0.368726 330.368L0.368726 331.931L1.93123 331.931L1.93123 330.368ZM1.93122 302.149L1.93122 300.587L0.368725 300.587L0.368725 302.149L1.93122 302.149ZM10.9219 302.149L12.4844 302.149L12.4844 300.587L10.9219 300.587L10.9219 302.149ZM10.9219 320.709L20.2406 320.709L20.2406 317.584L10.9219 317.584L10.9219 320.709ZM21.8031 319.146L21.8031 304.118L18.6781 304.118L18.6781 319.146L21.8031 319.146ZM20.2406 305.681L28.9031 305.681L28.9031 302.556L20.2406 302.556L20.2406 305.681ZM27.3406 304.118L27.3406 319.146L30.4656 319.146L30.4656 304.118L27.3406 304.118ZM28.9031 320.709L39.0093 320.709L39.0093 317.584L28.9031 317.584L28.9031 320.709ZM40.5718 319.146L40.5718 302.149L37.4468 302.149L37.4468 319.146L40.5718 319.146ZM39.0093 303.712L48 303.712L48 300.587L39.0093 300.587L39.0093 303.712ZM46.4375 302.149L46.4375 330.368L49.5625 330.368L49.5625 302.149L46.4375 302.149ZM48 328.806L1.93123 328.806L1.93123 331.931L48 331.931L48 328.806ZM3.49373 330.368L3.49372 302.149L0.368725 302.149L0.368726 330.368L3.49373 330.368ZM1.93122 303.712L10.9219 303.712L10.9219 300.587L1.93122 300.587L1.93122 303.712ZM9.35935 302.149L9.35935 319.146L12.4844 319.146L12.4844 302.149L9.35935 302.149ZM48 271.37L48.754 272.739L49.5625 272.293L49.5625 271.37L48 271.37ZM30.6093 280.951L29.8554 279.583L29.0468 280.028L29.0468 280.951L30.6093 280.951ZM30.6093 283.642L29.0468 283.642L29.0468 285.205L30.6093 285.205L30.6093 283.642ZM48 283.642L49.5625 283.642L49.5625 282.08L48 282.08L48 283.642ZM48 294.864L48 296.426L49.5625 296.426L49.5625 294.864L48 294.864ZM1.93122 294.864L0.368724 294.864L0.368725 296.426L1.93122 296.426L1.93122 294.864ZM3.83435 266.776L5.23192 267.475L5.23661 267.466L3.83435 266.776ZM9.08435 261.001L9.85672 262.36L9.86828 262.353L9.08435 261.001ZM24.6375 261.723L23.7185 262.987L23.726 262.993L23.7337 262.998L24.6375 261.723ZM29.7562 269.336L28.2591 269.783L28.8274 271.686L30.5429 270.686L29.7562 269.336ZM48 258.705L49.5625 258.705L49.5625 255.986L47.2133 257.355L48 258.705ZM22.6687 283.642L22.6687 285.205L24.2312 285.205L24.2312 283.642L22.6687 283.642ZM21.1593 272.092L20.0312 273.173L20.0427 273.185L20.0545 273.197L21.1593 272.092ZM12.7593 272.092L13.8642 273.197L13.876 273.185L13.8875 273.173L12.7593 272.092ZM11.25 283.642L9.68748 283.642L9.68748 285.205L11.25 285.205L11.25 283.642ZM47.246 270.002L29.8554 279.583L31.3633 282.32L48.754 272.739L47.246 270.002ZM29.0468 280.951L29.0468 283.642L32.1719 283.642L32.1719 280.951L29.0468 280.951ZM30.6093 285.205L48 285.205L48 282.08L30.6093 282.08L30.6093 285.205ZM46.4375 283.642L46.4375 294.864L49.5625 294.864L49.5625 283.642L46.4375 283.642ZM48 293.301L1.93122 293.301L1.93122 296.426L48 296.426L48 293.301ZM3.49372 294.864L3.49372 276.03L0.368724 276.03L0.368724 294.864L3.49372 294.864ZM3.49372 276.03C3.49372 272.575 4.09766 269.744 5.23189 267.475L2.4368 266.078C1.03354 268.884 0.368724 272.222 0.368724 276.03L3.49372 276.03ZM5.23661 267.466C6.38448 265.13 7.92992 263.455 9.85669 262.36L8.312 259.643C5.77627 261.085 3.82171 263.26 2.43208 266.087L5.23661 267.466ZM9.86828 262.353C11.8003 261.233 13.9765 260.661 16.4343 260.661L16.4343 257.536C13.4672 257.536 10.7434 258.233 8.30041 259.65L9.86828 262.353ZM16.4343 260.661C19.177 260.661 21.5875 261.437 23.7185 262.987L25.5565 260.46C22.8749 258.509 19.8167 257.536 16.4343 257.536L16.4343 260.661ZM23.7337 262.998C25.8035 264.466 27.3328 266.682 28.2591 269.783L31.2534 268.889C30.1671 265.252 28.284 262.394 25.5413 260.449L23.7337 262.998ZM30.5429 270.686L48.7867 260.055L47.2133 257.355L28.9695 267.986L30.5429 270.686ZM46.4375 258.705L46.4375 271.37L49.5625 271.37L49.5625 258.705L46.4375 258.705ZM24.2312 283.642L24.2312 276.686L21.1062 276.686L21.1062 283.642L24.2312 283.642ZM24.2312 276.686C24.2312 274.4 23.6724 272.396 22.2642 270.987L20.0545 273.197C20.6588 273.801 21.1062 274.859 21.1062 276.686L24.2312 276.686ZM22.2875 271.011C20.9133 269.577 19.0382 268.955 16.8937 268.955L16.8937 272.08C18.4242 272.08 19.3929 272.507 20.0312 273.173L22.2875 271.011ZM16.8937 268.955C14.811 268.955 12.991 269.592 11.6312 271.011L13.8875 273.173C14.5402 272.492 15.4764 272.08 16.8937 272.08L16.8937 268.955ZM11.6545 270.987C10.2463 272.396 9.68748 274.4 9.68748 276.686L12.8125 276.686C12.8125 274.859 13.2599 273.801 13.8642 273.197L11.6545 270.987ZM9.68748 276.686L9.68748 283.642L12.8125 283.642L12.8125 276.686L9.68748 276.686ZM11.25 285.205L22.6687 285.205L22.6687 282.08L11.25 282.08L11.25 285.205ZM1.93122 222.063L1.93122 220.501L0.368721 220.501L0.368721 222.063L1.93122 222.063ZM10.9218 222.063L12.4843 222.063L12.4843 220.501L10.9218 220.501L10.9218 222.063ZM10.9218 240.832L9.35935 240.832L9.35935 242.395L10.9218 242.395L10.9218 240.832ZM20.6343 240.832L20.6343 242.395L22.1968 242.395L22.1968 240.832L20.6343 240.832ZM20.6343 226.788L20.6343 225.226L19.0718 225.226L19.0718 226.788L20.6343 226.788ZM29.3625 226.788L30.925 226.788L30.925 225.226L29.3625 225.226L29.3625 226.788ZM29.3625 240.832L27.8 240.832L27.8 242.395L29.3625 242.395L29.3625 240.832ZM48 240.832L49.5625 240.832L49.5625 239.27L48 239.27L48 240.832ZM48 252.054L48 253.616L49.5625 253.616L49.5625 252.054L48 252.054ZM1.93122 252.054L0.368723 252.054L0.368723 253.616L1.93122 253.616L1.93122 252.054ZM1.93122 223.626L10.9218 223.626L10.9218 220.501L1.93122 220.501L1.93122 223.626ZM9.35935 222.063L9.35935 240.832L12.4843 240.832L12.4843 222.063L9.35935 222.063ZM10.9218 242.395L20.6343 242.395L20.6343 239.27L10.9218 239.27L10.9218 242.395ZM22.1968 240.832L22.1968 226.788L19.0718 226.788L19.0718 240.832L22.1968 240.832ZM20.6343 228.351L29.3625 228.351L29.3625 225.226L20.6343 225.226L20.6343 228.351ZM27.8 226.788L27.8 240.832L30.925 240.832L30.925 226.788L27.8 226.788ZM29.3625 242.395L48 242.395L48 239.27L29.3625 239.27L29.3625 242.395ZM46.4375 240.832L46.4375 252.054L49.5625 252.054L49.5625 240.832L46.4375 240.832ZM48 250.491L1.93122 250.491L1.93122 253.616L48 253.616L48 250.491ZM3.49372 252.054L3.49372 222.063L0.368721 222.063L0.368723 252.054L3.49372 252.054ZM1.93122 205.14L1.93122 203.578L0.368721 203.578L0.368721 205.14L1.93122 205.14ZM35.8593 203.106L36.9121 204.26L35.8593 203.106ZM35.8593 191.096L36.9302 189.959L35.8593 191.096ZM1.93122 188.997L0.36872 188.997L0.36872 190.559L1.93122 190.559L1.93122 188.997ZM1.93122 177.775L1.93122 176.212L0.368719 176.212L0.368719 177.775L1.93122 177.775ZM39.8625 180.4L40.6814 179.069L39.8625 180.4ZM46.2937 187.487L44.888 188.169L44.892 188.178L46.2937 187.487ZM46.3593 207.109L47.7526 207.816L47.7591 207.804L47.7653 207.791L46.3593 207.109ZM39.9281 213.868L40.7077 215.223L40.7167 215.217L39.9281 213.868ZM1.93122 216.362L0.368721 216.362L0.368721 217.925L1.93122 217.925L1.93122 216.362ZM1.93122 206.703L29.4937 206.703L29.4937 203.578L1.93122 203.578L1.93122 206.703ZM29.4937 206.703C32.4943 206.703 35.045 205.963 36.9121 204.26L34.8066 201.951C33.6987 202.961 32.0056 203.578 29.4937 203.578L29.4937 206.703ZM36.9121 204.26C38.8157 202.525 39.6531 200.057 39.6531 197.134L36.5281 197.134C36.5281 199.461 35.878 200.974 34.8066 201.951L36.9121 204.26ZM39.6531 197.134C39.6531 194.208 38.8149 191.732 36.9302 189.959L34.7885 192.234C35.8788 193.261 36.5281 194.81 36.5281 197.134L39.6531 197.134ZM36.9302 189.959C35.064 188.202 32.5063 187.434 29.4937 187.434L29.4937 190.559C31.9937 190.559 33.6797 191.191 34.7885 192.234L36.9302 189.959ZM29.4937 187.434L1.93122 187.434L1.93122 190.559L29.4937 190.559L29.4937 187.434ZM3.49372 188.997L3.49372 177.775L0.368719 177.775L0.36872 188.997L3.49372 188.997ZM1.93122 179.337L29.4281 179.337L29.4281 176.212L1.93122 176.212L1.93122 179.337ZM29.4281 179.337C33.3183 179.337 36.4974 180.163 39.0436 181.73L40.6814 179.069C37.54 177.136 33.7629 176.212 29.4281 176.212L29.4281 179.337ZM39.0436 181.73C41.6366 183.326 43.5755 185.465 44.888 188.169L47.6994 186.805C46.1245 183.56 43.7759 180.973 40.6814 179.069L39.0436 181.73ZM44.892 188.178C46.2187 190.871 46.8968 193.912 46.8968 197.331L50.0218 197.331C50.0218 193.487 49.2563 189.966 47.6954 186.797L44.892 188.178ZM46.8968 197.331C46.8968 200.757 46.2376 203.779 44.9534 206.427L47.7653 207.791C49.2811 204.664 50.0218 201.167 50.0218 197.331L46.8968 197.331ZM44.9661 206.402C43.6628 208.969 41.7333 211.003 39.1395 212.519L40.7167 215.217C43.8104 213.409 46.1684 210.937 47.7526 207.816L44.9661 206.402ZM39.1485 212.514C36.5477 214.012 33.3305 214.8 29.4281 214.8L29.4281 217.925C33.7507 217.925 37.5335 217.05 40.7077 215.222L39.1485 212.514ZM29.4281 214.8L1.93122 214.8L1.93122 217.925L29.4281 217.925L29.4281 214.8ZM3.49372 216.362L3.49372 205.14L0.368721 205.14L0.368721 216.362L3.49372 216.362ZM39.3375 158.673L39.3375 160.235L40.9 160.235L40.9 158.673L39.3375 158.673ZM39.3375 143.973L39.3375 142.41L37.775 142.41L37.775 143.973L39.3375 143.973ZM48 143.973L49.5625 143.973L49.5625 142.41L48 142.41L48 143.973ZM48 169.894L48 171.457L49.5625 171.457L49.5625 169.894L48 169.894ZM1.93122 169.895L0.368719 169.895L0.368719 171.457L1.93122 171.457L1.93122 169.895ZM1.93122 158.673L1.93122 157.11L0.368718 157.11L0.368719 158.673L1.93122 158.673ZM40.9 158.673L40.9 143.973L37.775 143.973L37.775 158.673L40.9 158.673ZM39.3375 145.535L48 145.535L48 142.41L39.3375 142.41L39.3375 145.535ZM46.4375 143.973L46.4375 169.894L49.5625 169.894L49.5625 143.973L46.4375 143.973ZM48 168.332L1.93122 168.332L1.93122 171.457L48 171.457L48 168.332ZM3.49372 169.895L3.49372 158.673L0.368719 158.673L0.368719 169.895L3.49372 169.895ZM1.93122 160.235L39.3375 160.235L39.3375 157.11L1.93122 157.11L1.93122 160.235Z" fill="#FFA92C"/>
<path d="M132.934 485.375H147.447L180.775 110.313H166.261L132.934 485.375Z" fill="#455A64"/>
<path d="M132.934 485.375C132.934 485.375 132.934 484.73 133.077 483.476C133.22 482.221 133.352 480.31 133.555 477.849C133.985 472.892 134.618 465.582 135.442 456.169C137.091 437.307 139.492 409.988 142.454 376.134L165.951 110.253V109.979H181.098V110.313C164.959 290.784 151.377 442.515 147.543 485.399V485.471H147.459H136.434H132.946L147.459 485.387L147.388 485.459C151.162 442.611 164.553 290.868 180.476 110.373L180.787 110.719H166.261L166.572 110.432C157.255 214.668 148.881 308.38 142.836 376.051C139.79 409.904 137.33 437.235 135.669 456.085C134.809 465.522 134.152 472.809 133.698 477.826C133.471 480.31 133.292 482.21 133.173 483.488C133.053 484.766 132.934 485.375 132.934 485.375Z" fill="#263238"/>
<path d="M281.057 485.375H295.582L247.192 110.313H232.678L281.057 485.375Z" fill="#455A64"/>
<path d="M281.057 485.375C281.057 485.375 280.961 484.73 280.782 483.476C280.603 482.221 280.364 480.322 280.041 477.849C279.384 472.892 278.429 465.594 277.198 456.181C274.737 437.319 271.225 410.012 266.782 376.146C258.014 308.428 245.877 214.632 232.367 110.313V109.967H247.514V110.229C270.688 290.772 290.171 442.539 295.666 485.315V485.399H295.582H284.557H281.057C281.057 485.399 282.251 485.399 284.64 485.399H295.63L295.546 485.483C290.004 442.718 270.33 290.963 246.94 110.456L247.239 110.731H232.678L232.988 110.373C246.379 214.632 258.432 308.356 267.128 376.039C271.452 409.892 274.952 437.235 277.365 456.073C278.56 465.522 279.492 472.797 280.125 477.826C280.435 480.31 280.662 482.198 280.83 483.488C280.997 484.778 281.057 485.375 281.057 485.375Z" fill="#263238"/>
<path d="M80.0154 286.615L102.64 3.6404C102.701 2.71522 103.119 1.84986 103.805 1.22615C104.491 0.602436 105.392 0.268921 106.319 0.295684L277.939 2.76838C278.44 2.7764 278.934 2.88744 279.391 3.09459C279.847 3.30174 280.257 3.60058 280.593 3.97254C280.929 4.3445 281.185 4.78162 281.345 5.25672C281.505 5.73183 281.565 6.23476 281.523 6.73426L256.031 289.757C255.961 290.674 255.541 291.528 254.859 292.144C254.176 292.76 253.283 293.09 252.364 293.066L83.599 290.593C83.0961 290.587 82.5999 290.477 82.1417 290.27C81.6834 290.062 81.2731 289.762 80.9365 289.389C80.5998 289.015 80.3442 288.576 80.1857 288.098C80.0272 287.621 79.9692 287.116 80.0154 286.615Z" fill="#E0E0E0"/>
<path d="M80.0152 286.615C80.0019 286.818 80.0019 287.022 80.0152 287.225C80.0654 287.821 80.2714 288.393 80.6124 288.885C80.8833 289.293 81.2351 289.642 81.646 289.909C82.0569 290.176 82.5183 290.356 83.0015 290.438C84.1961 290.545 85.5459 290.438 87.0869 290.534L114.227 290.868L214.007 292.242L247.072 292.708L251.408 292.767C252.106 292.837 252.811 292.776 253.486 292.588C254.134 292.364 254.697 291.947 255.099 291.394C255.512 290.831 255.745 290.156 255.768 289.458L255.959 287.249C256.091 285.779 256.222 284.298 256.365 282.805C256.891 276.856 257.432 270.796 257.99 264.624C260.2 239.957 262.565 213.593 265.05 185.844C267.534 158.095 270.15 128.984 272.862 98.7977C274.224 83.6668 275.605 68.3169 277.007 52.7481C277.7 44.9597 278.405 37.1115 279.121 29.2037C279.48 25.2498 279.826 21.2839 280.185 17.2583L280.722 11.2856L280.997 8.28726L281.128 6.78214C281.185 6.32236 281.153 5.85583 281.033 5.40841C280.84 4.74542 280.445 4.15904 279.903 3.73085C279.362 3.30265 278.7 3.05394 278.01 3.01933H276.517L270.545 2.93571L258.599 2.75654L234.947 2.41012L188.718 1.78895L144.102 1.12001L122.469 0.809427L111.826 0.65414L106.558 0.570523C105.742 0.499508 104.928 0.728385 104.268 1.21431C103.608 1.70023 103.148 2.40989 102.974 3.21046C98.5067 58.7327 94.4811 108.736 91.1005 150.724C87.72 192.713 84.9606 226.697 83.0612 250.182C82.0937 261.924 81.3531 271.039 80.8394 277.226C80.5766 280.308 80.3855 282.661 80.2541 284.262C80.1227 285.863 80.0271 286.651 80.0271 286.651C80.0271 286.651 80.0271 285.839 80.1824 284.262C80.3377 282.685 80.481 280.32 80.72 277.226C81.1978 271.039 81.9145 261.924 82.8224 250.182L90.6585 150.701C94.0033 108.688 97.993 58.7208 102.413 3.10295C102.609 2.1734 103.141 1.34855 103.906 0.785541C104.666 0.2209 105.602 -0.0544035 106.546 0.00908681L111.814 0.0807564L122.457 0.236053L144.09 0.546627L188.718 1.17974L234.959 1.84868L258.599 2.18315L270.545 2.35039L276.517 2.44595H278.034C278.58 2.47193 279.113 2.61449 279.599 2.86404C280.331 3.2351 280.929 3.82377 281.312 4.54899C281.695 5.27421 281.843 6.10031 281.737 6.91354L281.606 8.41866L281.331 11.405L280.794 17.3777C280.435 21.3595 280.081 25.3413 279.731 29.3231C279.014 37.231 278.305 45.0831 277.604 52.8795C276.203 68.4643 274.821 83.8102 273.459 98.9171C270.736 129.103 268.108 158.226 265.611 185.963C263.115 213.701 260.713 240.076 258.444 264.803C257.878 270.967 257.329 277.027 256.795 282.984C256.664 284.477 256.533 285.958 256.389 287.428L256.198 289.638C256.166 290.422 255.9 291.18 255.434 291.812C254.97 292.447 254.324 292.926 253.582 293.185C252.853 293.393 252.091 293.462 251.336 293.388L247.012 293.317L213.947 292.815L114.155 291.25L87.1824 290.701C85.6295 290.701 84.2678 290.701 83.0852 290.581C82.29 290.439 81.5645 290.037 81.022 289.438C80.4796 288.839 80.1507 288.078 80.0868 287.272C80.0382 287.057 80.0142 286.836 80.0152 286.615Z" fill="#263238"/>
<path d="M87.302 285.003L108.648 7.59448L274.307 10.0791L250.297 286.926L87.302 285.003Z" fill="white"/>
<path d="M87.302 285.003L250.297 286.687L250.058 286.902C256.497 212.482 264.871 115.641 273.949 10.0432L274.26 10.3896H272.766L108.684 7.88111L108.971 7.60636C96.2969 170.243 87.5409 282.351 87.3378 285.003C87.5409 282.387 96.058 170.219 108.398 7.57052V7.29578H108.684L272.862 9.68486H274.355H274.69V10.0193C265.504 115.605 257.082 212.446 250.608 286.866V287.081H250.381L87.302 285.003Z" fill="#263238"/>
<path d="M234.29 138.863C234.29 139.03 209.766 139.173 179.532 139.173C149.299 139.173 124.763 139.03 124.763 138.863C124.763 138.695 149.275 138.552 179.532 138.552C209.79 138.552 234.29 138.683 234.29 138.863Z" fill="#263238"/>
<path d="M232.559 149.136C232.559 149.315 208.274 149.446 178.338 149.446C148.403 149.446 124.118 149.315 124.118 149.136C124.118 148.956 148.391 148.825 178.338 148.825C208.285 148.825 232.559 148.968 232.559 149.136Z" fill="#263238"/>
<path d="M176.833 160.281C176.833 160.448 165.031 160.591 150.482 160.591C135.932 160.591 124.118 160.448 124.118 160.281C124.118 160.113 135.92 159.994 150.494 159.994C165.067 159.994 176.833 160.113 176.833 160.281Z" fill="#263238"/>
<path d="M159.524 124.6H129.052C128.394 124.601 127.744 124.45 127.154 124.159C126.564 123.868 126.049 123.445 125.649 122.923C125.249 122.4 124.975 121.793 124.849 121.147C124.722 120.501 124.746 119.835 124.919 119.2C125.161 118.29 125.698 117.486 126.446 116.914C127.194 116.341 128.11 116.032 129.052 116.035H159.524C160.203 116.036 160.871 116.198 161.474 116.508C162.077 116.818 162.599 117.266 162.995 117.817C163.391 118.367 163.652 119.003 163.754 119.674C163.857 120.344 163.799 121.029 163.586 121.673C163.302 122.526 162.757 123.267 162.028 123.793C161.299 124.318 160.423 124.6 159.524 124.6Z" fill="#EBEBEB"/>
<path d="M228.82 223.878C228.82 224.057 204.296 224.201 174.062 224.201C143.828 224.201 119.292 224.057 119.292 223.878C119.292 223.699 143.804 223.568 174.062 223.568C204.32 223.568 228.82 223.711 228.82 223.878Z" fill="#263238"/>
<path d="M227.087 234.163C227.087 234.33 202.814 234.474 172.867 234.474C142.92 234.474 118.647 234.33 118.647 234.163C118.647 233.996 142.92 233.852 172.867 233.852C202.814 233.852 227.087 234.056 227.087 234.163Z" fill="#263238"/>
<path d="M171.362 245.308C171.362 245.475 159.56 245.619 145.011 245.619C130.461 245.619 118.647 245.475 118.647 245.308C118.647 245.141 130.449 244.998 145.011 244.998C159.572 244.998 171.362 245.129 171.362 245.308Z" fill="#263238"/>
<path d="M154.077 209.627H123.58C122.917 209.632 122.262 209.482 121.667 209.19C121.072 208.898 120.553 208.471 120.151 207.944C119.749 207.417 119.475 206.804 119.351 206.152C119.227 205.501 119.256 204.83 119.435 204.192C119.677 203.281 120.214 202.475 120.962 201.901C121.709 201.326 122.625 201.014 123.568 201.015H154.077C154.756 201.014 155.426 201.175 156.031 201.484C156.635 201.793 157.158 202.241 157.556 202.792C157.954 203.342 158.215 203.979 158.318 204.651C158.422 205.322 158.364 206.008 158.15 206.653C157.873 207.515 157.329 208.268 156.597 208.802C155.865 209.336 154.983 209.625 154.077 209.627Z" fill="#EBEBEB"/>
<path d="M242.7 61.6833C242.7 61.8505 218.176 61.9938 187.942 61.9938C157.708 61.9938 133.172 61.8505 133.172 61.6833C133.172 61.516 157.684 61.3727 187.942 61.3727C218.2 61.3727 242.7 61.5041 242.7 61.6833Z" fill="#263238"/>
<path d="M240.968 71.9561C240.968 72.1353 216.695 72.2667 186.748 72.2667C156.8 72.2667 132.575 72.1353 132.575 71.9561C132.575 71.7769 156.848 71.6455 186.795 71.6455C216.743 71.6455 240.968 71.7889 240.968 71.9561Z" fill="#263238"/>
<path d="M185.242 83.1016C185.242 83.2688 173.44 83.4122 158.891 83.4122C144.341 83.4122 132.527 83.2688 132.527 83.1016C132.527 82.9344 144.329 82.791 158.891 82.791C173.452 82.791 185.242 82.9344 185.242 83.1016Z" fill="#263238"/>
<path opacity="0.3" d="M150.171 291.573L149.119 303.435H163.633L164.696 291.573H150.171Z" fill="black"/>
<path d="M167.934 47.4323H137.461C136.802 47.4314 136.153 47.2789 135.563 46.9867C134.973 46.6944 134.458 46.2702 134.058 45.7469C133.659 45.2237 133.385 44.6154 133.258 43.9692C133.132 43.3231 133.155 42.6565 133.328 42.021C133.574 41.1131 134.112 40.3113 134.859 39.7393C135.606 39.1673 136.52 38.8567 137.461 38.8555H167.934C168.613 38.855 169.282 39.0159 169.887 39.3248C170.492 39.6338 171.015 40.082 171.413 40.6325C171.81 41.1831 172.072 41.8202 172.175 42.4915C172.278 43.1628 172.221 43.849 172.007 44.4937C171.723 45.3496 171.177 46.0942 170.445 46.6217C169.714 47.1493 168.835 47.4329 167.934 47.4323Z" fill="#EBEBEB"/>
<path d="M378.842 56.0689C380.088 54.9932 381.08 53.6538 381.745 52.1477C382.41 50.6417 382.732 49.0066 382.688 47.3607C382.401 44.0877 379.57 40.9819 376.297 41.1372C376.829 39.6089 376.888 37.9561 376.468 36.3937C376.047 34.8312 375.167 33.4314 373.94 32.3762C372.713 31.321 371.198 30.6592 369.59 30.4768C367.982 30.2945 366.357 30.6001 364.925 31.3539C365.052 30.4554 364.888 29.54 364.458 28.7408C364.029 27.9417 363.355 27.3004 362.536 26.9102C361.15 26.1218 355.679 25.9546 353.923 29.0604L345.896 55.1372C344.224 56.6439 342.867 58.4661 341.901 60.4991C340.936 62.5321 340.382 64.7358 340.271 66.9837C340.16 69.2315 340.494 71.4791 341.255 73.5973C342.015 75.7155 343.186 77.6626 344.702 79.3267C343.679 80.6788 343.088 82.3082 343.006 84.0016C342.925 85.695 343.356 87.3737 344.244 88.8179C345.132 90.2622 346.435 91.4048 347.983 92.0963C349.531 92.7878 351.252 92.996 352.92 92.6936C353.008 93.8405 353.344 94.9547 353.903 95.9599C354.462 96.9651 355.232 97.8376 356.16 98.5174C357.087 99.1973 358.151 99.6686 359.278 99.8989C360.405 100.129 361.569 100.113 362.689 99.8519C363.809 99.5905 364.859 99.0901 365.768 98.3849C366.677 97.6797 367.422 96.7864 367.954 95.7661C368.485 94.7459 368.789 93.6228 368.846 92.4739C368.903 91.3251 368.71 90.1775 368.282 89.11C372.045 90.627 376.524 87.784 377.838 83.9615C379.152 80.139 378.113 75.8506 376.237 72.255C377.933 71.8337 379.467 70.9236 380.649 69.6377C381.831 68.3518 382.609 66.7468 382.887 65.0222C383.164 63.2977 382.929 61.5296 382.209 59.9378C381.49 58.346 380.319 57.0006 378.842 56.0689Z" fill="#263238"/>
<path d="M358.463 33.6713C362.047 35.1167 362.608 38.1389 363.241 40.6713C364.519 46.1064 362.142 53.8112 358.833 58.3863C355.524 62.9614 352.096 65.0758 346.517 65.5536C346.916 57.0723 347.314 48.5951 347.712 40.1218L358.463 33.6713Z" fill="#FFA92C"/>
<path d="M359.538 48.388C360.864 46.8037 361.591 44.8037 361.591 42.7378C361.591 40.672 360.864 38.6719 359.538 37.0876C361.282 35.1764 360.924 32.0228 359.431 29.9204C357.769 27.9234 355.679 26.3269 353.315 25.2497C352.751 22.2699 351.068 19.6189 348.611 17.8416C346.154 16.0643 343.109 15.2955 340.103 15.6934C337.356 10.9152 330.869 9.8282 325.542 10.9988C324.261 11.3725 322.934 11.5655 321.6 11.5722C320.632 11.4375 319.674 11.238 318.733 10.975C313.465 9.89987 307.982 13.2804 305.521 18.1422C305.19 18.9362 304.757 19.6832 304.231 20.3641C303.391 21.1187 302.46 21.7648 301.46 22.2873C300.449 22.9752 299.598 23.8718 298.963 24.9165C298.329 25.9612 297.925 27.1298 297.78 28.3436C297.554 30.3982 298.067 32.632 297.064 34.4477C296.562 35.3675 295.726 36.0723 295.32 37.0279C294.125 39.7873 297.088 42.9051 296.299 45.8197C296.144 46.4051 295.833 46.9426 295.63 47.5279C295.206 48.7222 295.231 50.0303 295.702 51.2071C296.195 52.0407 296.524 52.9612 296.67 53.9187C296.571 54.6493 296.379 55.3641 296.096 56.045C295.618 57.7771 298.951 64.8129 300.397 65.8761L345.789 69.3761C347.533 69.1093 349.15 68.3054 350.415 67.0765C351.681 65.8475 352.531 64.2546 352.849 62.5194C352.874 61.9348 353.06 61.3685 353.386 60.8829C353.767 60.5571 354.21 60.3131 354.688 60.1662C357.711 58.7925 358.344 54.8027 358.272 51.4819C358.234 51.0165 358.274 50.5481 358.392 50.0962C358.657 49.4568 359.047 48.8763 359.538 48.388Z" fill="#263238"/>
<path d="M346.53 47.5757C346.779 43.2061 345.848 38.8498 343.835 34.9637C341.822 31.0776 338.8 27.8049 335.086 25.4886C331.561 23.5432 327.682 22.3246 323.678 21.905C319.989 21.3014 316.203 21.8303 312.82 23.422C310.275 23.8401 300.528 31.6166 299.429 40.6951C298.234 50.777 297.124 63.1405 297.888 70.7617C299.429 86.0996 310.956 88.6798 310.956 88.6798L308.149 113.765L329.293 133.714L340.043 105.153L346.53 47.5757Z" fill="#FFBF9D"/>
<path d="M302.905 53.202C302.872 53.7103 303.038 54.2116 303.368 54.5996C303.698 54.9877 304.166 55.2319 304.673 55.2805C304.919 55.3139 305.169 55.2978 305.409 55.2333C305.648 55.1687 305.873 55.0569 306.068 54.9044C306.264 54.752 306.428 54.562 306.549 54.3455C306.671 54.1291 306.748 53.8906 306.775 53.644C306.809 53.1375 306.645 52.6378 306.317 52.2501C305.99 51.8624 305.524 51.617 305.019 51.5655C304.773 51.5303 304.521 51.5451 304.28 51.6089C304.039 51.6726 303.813 51.7841 303.616 51.9367C303.419 52.0893 303.255 52.2799 303.133 52.4973C303.01 52.7146 302.933 52.9542 302.905 53.202Z" fill="#263238"/>
<path d="M302.583 46.7156C302.81 46.9784 304.351 45.9749 306.441 46.0944C308.531 46.2139 310.025 47.3606 310.264 47.1217C310.502 46.8828 310.156 46.5364 309.523 46.0108C308.656 45.3058 307.592 44.8882 306.477 44.8162C305.39 44.7567 304.311 45.0409 303.395 45.6285C302.714 46.1422 302.475 46.5961 302.583 46.7156Z" fill="#263238"/>
<path d="M313.894 63.9649C312.809 63.5606 311.677 63.2918 310.526 63.1646C310 63.069 309.499 62.9376 309.427 62.5673C309.413 62.013 309.567 61.4675 309.869 61.0025L311.697 57.0127C314.229 51.3386 316.092 46.656 315.865 46.5604C315.639 46.4649 313.393 50.9802 310.86 56.6543C310.251 58.0639 309.666 59.3898 309.104 60.668C308.731 61.2967 308.591 62.0369 308.71 62.7584C308.779 62.9513 308.889 63.1264 309.034 63.2711C309.178 63.4158 309.354 63.5263 309.546 63.5946C309.836 63.69 310.138 63.7462 310.442 63.7618C311.58 63.9774 312.74 64.0457 313.894 63.9649Z" fill="#263238"/>
<path d="M310.956 88.6798C318.124 89.2077 325.297 87.7398 331.681 84.4392C331.681 84.4392 325.709 94.8317 310.526 92.5382L310.956 88.6798Z" fill="#FF9A6C"/>
<path d="M304.446 38.4135C304.768 38.9391 306.393 38.6883 308.256 38.9511C310.12 39.2139 311.649 39.7992 312.091 39.3692C312.282 39.1542 312.091 38.6405 311.493 38.091C310.631 37.4178 309.596 37.0035 308.507 36.8965C307.424 36.7449 306.32 36.9109 305.33 37.3743C304.589 37.6968 304.302 38.1507 304.446 38.4135Z" fill="#263238"/>
<path d="M325.984 55.7703C325.938 56.2774 325.697 56.7467 325.311 57.0789C324.925 57.4112 324.425 57.5802 323.917 57.5502C323.668 57.5456 323.422 57.4913 323.193 57.3905C322.965 57.2897 322.76 57.1444 322.588 56.963C322.417 56.7817 322.283 56.5681 322.196 56.3345C322.108 56.101 322.068 55.8524 322.077 55.6031C322.123 55.0961 322.364 54.6267 322.75 54.2945C323.136 53.9623 323.636 53.7932 324.144 53.8232C324.393 53.8278 324.639 53.8821 324.868 53.9829C325.096 54.0837 325.301 54.2291 325.473 54.4104C325.644 54.5917 325.777 54.8054 325.865 55.0389C325.953 55.2724 325.993 55.5211 325.984 55.7703Z" fill="#263238"/>
<path d="M331.216 49.1883C330.953 49.4153 329.579 48.1849 327.489 47.9938C325.398 47.8026 323.774 48.6985 323.571 48.4238C323.368 48.1491 323.762 47.8624 324.466 47.4443C325.431 46.8987 326.542 46.669 327.644 46.7873C328.733 46.8881 329.761 47.3314 330.583 48.0535C331.168 48.603 331.347 49.0808 331.216 49.1883Z" fill="#263238"/>
<path d="M331.777 40.9699C331.323 41.4119 329.758 40.7668 327.823 40.5518C325.888 40.3368 324.239 40.5518 323.881 40.0023C323.738 39.7395 324.036 39.2975 324.801 38.9153C325.834 38.4515 326.976 38.286 328.098 38.4374C329.219 38.5574 330.283 38.9922 331.168 39.6917C331.801 40.2532 331.98 40.7549 331.777 40.9699Z" fill="#263238"/>
<path d="M343.257 61.8266C343.328 60.6917 344.786 58.0996 345.909 57.9921C348.919 57.6934 354.27 58.2429 353.9 65.8283C353.375 76.1849 343.078 73.5211 343.078 73.2225C343.078 72.9238 343.018 65.7327 343.257 61.8266Z" fill="#FFBF9D"/>
<path d="M346.123 69.5792C346.123 69.5792 346.303 69.7225 346.601 69.8778C347.024 70.0754 347.505 70.1094 347.951 69.9734C349.062 69.6269 350.077 67.9307 350.221 66.0672C350.289 65.1815 350.158 64.2919 349.838 63.4631C349.76 63.1346 349.602 62.8302 349.38 62.5763C349.157 62.3224 348.876 62.1265 348.56 62.0058C348.354 61.9406 348.132 61.949 347.932 62.0296C347.731 62.1103 347.565 62.2581 347.461 62.4477C347.318 62.7225 347.366 62.9375 347.318 62.9495C347.27 62.9614 347.103 62.7703 347.21 62.3402C347.274 62.088 347.427 61.8673 347.64 61.7191C347.938 61.5174 348.302 61.4402 348.656 61.5041C349.081 61.6109 349.471 61.8268 349.788 62.1306C350.104 62.4344 350.336 62.8155 350.46 63.2361C350.855 64.1581 351.019 65.1629 350.937 66.1628C350.77 68.2413 349.6 70.1406 348.082 70.499C347.8 70.5674 347.506 70.5707 347.223 70.5086C346.939 70.4465 346.674 70.3207 346.446 70.1406C346.135 69.83 346.088 69.603 346.123 69.5792Z" fill="#FF9A6C"/>
<path d="M297.123 40.6952C298.171 40.238 299.066 39.4896 299.701 38.5389C300.336 37.5881 300.685 36.475 300.707 35.3317C302.08 35.8334 303.586 34.1372 304.47 32.9427C305.353 31.7481 306.369 31.2464 306.393 29.7891C306.364 29.5051 306.418 29.2189 306.548 28.9648C306.775 28.5706 307.277 28.4751 307.743 28.3676C308.868 28.0744 309.902 27.5044 310.752 26.7096C311.601 25.9147 312.238 24.9201 312.604 23.8164C314.775 24.9281 317.191 25.4745 319.628 25.4051C320.121 26.2252 320.815 26.906 321.644 27.3833C322.473 27.8607 323.41 28.1187 324.367 28.1331C325.323 28.1474 326.268 27.9176 327.111 27.4653C327.954 27.0131 328.667 26.3533 329.185 25.5484C329.498 26.1979 329.947 26.7728 330.501 27.2343C331.056 27.6959 331.702 28.0334 332.398 28.2242C333.797 28.5872 335.241 28.7481 336.686 28.702C336.343 30.0894 336.509 31.5538 337.153 32.8294C337.797 34.105 338.878 35.1073 340.198 35.6543C340.557 35.7976 340.987 35.929 341.13 36.2874C341.178 36.4913 341.183 36.703 341.144 36.9088C341.104 37.1146 341.023 37.3099 340.903 37.4819C340.673 38.0661 340.562 38.6906 340.578 39.3183C340.594 39.946 340.736 40.5641 340.996 41.1358C341.255 41.7076 341.627 42.2212 342.09 42.6462C342.552 43.0713 343.095 43.399 343.686 43.6099C343.273 43.9376 342.94 44.3544 342.711 44.8291C342.481 45.3038 342.362 45.8242 342.362 46.3514C342.362 46.8786 342.481 47.3989 342.711 47.8736C342.94 48.3483 343.273 48.7651 343.686 49.0929C344.045 49.3437 344.522 49.6424 344.439 50.0724C344.394 50.2349 344.307 50.3831 344.188 50.5024C343.272 51.4149 342.637 52.5719 342.36 53.8352C342.242 54.4674 342.372 55.1209 342.724 55.6594C343.075 56.1979 343.621 56.58 344.248 56.726C343.869 56.9711 343.545 57.2918 343.297 57.668C343.048 58.0442 342.88 58.4677 342.802 58.912C342.731 59.8079 343.591 60.7874 344.451 60.5007C346.408 60.23 348.35 59.8551 350.268 59.3779C353.434 55.5792 350.005 51.0161 350.005 46.0109C349.894 41.0459 348.639 36.1734 346.338 31.772C345.446 29.8919 344.305 28.1402 342.946 26.5638C341.312 24.8487 339.484 23.3293 337.499 22.0365C335.065 20.1279 332.338 18.6271 329.423 17.5928C323.917 15.9563 317.992 17.5928 312.7 19.743C310.634 20.4741 308.677 21.4828 306.882 22.7413C304.836 24.4081 303.108 26.4316 301.782 28.714C299.621 31.8338 298.132 35.3687 297.41 39.0945" fill="#263238"/>
<path d="M295.307 36.9562C295.457 36.5639 295.666 36.1971 295.929 35.8692C296.167 35.5466 296.502 35.1644 296.824 34.6746C297.19 34.0992 297.427 33.4511 297.517 32.7753C297.629 31.924 297.664 31.0646 297.625 30.207C297.576 29.1766 297.664 28.1442 297.888 27.1371C298.187 25.9824 298.72 24.9011 299.452 23.9596C299.85 23.4599 300.308 23.0106 300.814 22.6217C301.349 22.2024 301.916 21.8269 302.51 21.4988C303.13 21.1718 303.691 20.7439 304.171 20.2326C304.616 19.6528 304.985 19.0186 305.27 18.3452C305.955 16.9093 306.884 15.6036 308.017 14.4869C309.227 13.2825 310.654 12.3179 312.222 11.6439C313.038 11.287 313.892 11.0226 314.766 10.8555C315.668 10.6879 316.588 10.6397 317.502 10.7121C317.967 10.7457 318.43 10.8095 318.888 10.9033C319.353 10.9988 319.807 11.1302 320.249 11.2377C321.153 11.4783 322.095 11.5351 323.021 11.405C323.964 11.2736 324.884 10.9988 325.864 10.8077C326.84 10.6119 327.831 10.5 328.826 10.4732C329.84 10.4378 330.855 10.4857 331.86 10.6166C332.885 10.7697 333.892 11.0176 334.871 11.3572C336.885 12.0625 338.633 13.3724 339.876 15.108L340.222 15.6456L340.067 15.5739C343.116 15.1763 346.201 15.9611 348.689 17.7672C351.177 19.5733 352.879 22.2636 353.446 25.2855L353.374 25.178C354.589 25.8156 355.762 26.5298 356.886 27.3163C357.99 28.0767 358.942 29.0369 359.693 30.1473C360.417 31.2342 360.83 32.4981 360.888 33.8026C360.947 35.0603 360.519 36.2923 359.693 37.2429V36.9562C360.993 38.481 361.72 40.4118 361.748 42.4153C361.825 44.2088 361.345 45.9821 360.374 47.4921C360.146 47.8395 359.895 48.1708 359.621 48.4835C359.347 48.7605 359.091 49.0558 358.857 49.3675C358.63 49.6549 358.481 49.9967 358.427 50.359C358.391 50.7164 358.391 51.0766 358.427 51.4341C358.461 52.749 358.344 54.0635 358.081 55.3521C357.876 56.3995 357.47 57.3974 356.886 58.2907C356.447 58.9417 355.862 59.4815 355.178 59.8675C354.628 60.19 354.139 60.2976 353.864 60.4767C353.725 60.562 353.593 60.6579 353.47 60.7634C353.575 60.6324 353.705 60.5229 353.852 60.4409C354.127 60.2498 354.604 60.1303 355.142 59.7958C355.807 59.4059 356.371 58.8659 356.79 58.2191C357.373 57.3424 357.779 56.3604 357.985 55.3283C358.231 54.0456 358.331 52.7392 358.284 51.4341C358.254 51.0643 358.254 50.6929 358.284 50.3231C358.344 49.9328 358.5 49.5634 358.738 49.248C358.976 48.9255 359.251 48.6388 359.514 48.3402C359.777 48.0372 360.02 47.7181 360.243 47.3846C361.173 45.9031 361.635 44.1754 361.569 42.4272C361.531 40.4765 360.813 38.6003 359.538 37.1234L359.466 37.0398L359.538 36.9562C360.322 36.0566 360.725 34.8868 360.661 33.6951C360.621 32.4463 360.241 31.2321 359.562 30.1832C358.828 29.1091 357.9 28.1813 356.826 27.4477C355.709 26.6708 354.544 25.9646 353.338 25.3333H353.267V25.2616C352.712 22.3202 351.053 19.7024 348.629 17.9454C346.206 16.1884 343.202 15.4254 340.234 15.8128H340.139V15.7173L339.792 15.2036C338.587 13.5339 336.892 12.2813 334.942 11.62C333.988 11.2848 333.004 11.0408 332.004 10.8913C331.014 10.7625 330.015 10.7106 329.017 10.736C328.038 10.768 327.063 10.8798 326.103 11.0705C325.147 11.2497 324.203 11.5364 323.248 11.6558C322.762 11.7333 322.269 11.7573 321.778 11.7275C321.303 11.6848 320.832 11.6049 320.369 11.4886C319.903 11.3691 319.461 11.2497 319.007 11.1541C318.562 11.0604 318.111 10.9965 317.657 10.963C316.767 10.8928 315.872 10.937 314.993 11.0944C314.14 11.2603 313.308 11.5166 312.509 11.8589C309.516 13.1555 307.087 15.4824 305.664 18.4169C305.347 19.1087 304.946 19.7587 304.47 20.3521C303.969 20.8748 303.388 21.3143 302.749 21.6541C302.159 21.9703 301.596 22.3338 301.065 22.7412C299.65 23.8775 298.641 25.4402 298.186 27.1968C297.954 28.1865 297.858 29.2033 297.9 30.219C297.928 31.0856 297.88 31.953 297.756 32.8111C297.649 33.4957 297.401 34.1505 297.027 34.7344C296.693 35.2361 296.347 35.6064 296.096 35.9289C295.902 36.1635 295.73 36.4154 295.582 36.6815C295.355 36.8606 295.319 36.9562 295.307 36.9562Z" fill="#455A64"/>
<path d="M335.373 13.0653C335.373 13.0653 335.11 12.8861 334.62 12.6114C333.929 12.2236 333.178 11.9531 332.398 11.811C331.249 11.6042 330.066 11.7073 328.97 12.1097C327.629 12.6124 326.483 13.5286 325.697 14.7257C325.458 15.1009 325.262 15.5015 325.112 15.9203C325.032 16.0924 324.99 16.2799 324.99 16.4698C324.99 16.6596 325.032 16.8471 325.112 17.0192L325.339 17.3896L324.933 17.2462C323.874 16.8831 322.715 16.9518 321.707 17.4373C320.906 17.8231 320.249 18.4551 319.832 19.2411C319.557 19.7648 319.387 20.3368 319.33 20.9254C319.343 21.1402 319.343 21.3556 319.33 21.5705C319.33 21.5705 319.33 21.5705 319.33 21.4032C319.321 21.2401 319.321 21.0766 319.33 20.9135C319.35 20.3032 319.5 19.7043 319.772 19.1575C320.176 18.3077 320.853 17.6179 321.695 17.1984C322.765 16.6668 324.002 16.5809 325.136 16.9595L324.956 17.1865C324.854 16.9742 324.801 16.7414 324.801 16.5056C324.801 16.2698 324.854 16.037 324.956 15.8247C325.112 15.404 325.316 15.0031 325.566 14.6302C326.348 13.3873 327.501 12.422 328.863 11.8708C329.82 11.5339 330.84 11.419 331.848 11.5349C332.856 11.6508 333.825 11.9944 334.68 12.5397C334.865 12.6582 335.04 12.7899 335.206 12.9339C335.325 13.0653 335.373 13.0653 335.373 13.0653Z" fill="#455A64"/>
<path d="M351.451 26.0023C351.343 26.1377 351.214 26.2547 351.069 26.3488C350.697 26.6362 350.297 26.8844 349.874 27.0894C349.219 27.4077 348.5 27.5751 347.772 27.5791C346.84 27.5993 345.936 27.2664 345.239 26.6474H345.478L345.144 27.0535L344.773 27.4358C344.011 28.1354 343.088 28.636 342.086 28.8931C341.275 29.1051 340.431 29.1579 339.601 29.0484C339.043 28.9748 338.5 28.8178 337.988 28.5825C337.801 28.4964 337.624 28.3881 337.463 28.26C338.156 28.5416 338.883 28.7342 339.625 28.8334C340.428 28.904 341.238 28.8271 342.014 28.6064C342.963 28.3537 343.836 27.8741 344.558 27.2088L344.917 26.8385L345.227 26.4563L345.335 26.3249L345.454 26.4443C346.095 27.0067 346.919 27.3166 347.772 27.3163C348.466 27.3255 349.154 27.1871 349.79 26.9102C350.854 26.4324 351.415 25.9546 351.451 26.0023Z" fill="#455A64"/>
<path d="M356.349 35.9288C356.349 35.9288 356.349 36.0005 356.349 36.12C356.284 36.2946 356.196 36.4595 356.086 36.6097C355.649 37.1491 355.028 37.5068 354.342 37.6132C353.339 37.7327 352.322 37.5585 351.415 37.1114C350.868 36.8947 350.334 36.6474 349.815 36.3708C349.215 36.0826 348.737 35.5918 348.465 34.9852L348.405 34.8179L348.644 34.9015C347.674 35.6117 346.603 36.1715 345.467 36.562C344.521 36.8713 343.508 36.9126 342.54 36.6814C341.889 36.531 341.288 36.2141 340.796 35.7616C340.661 35.6438 340.545 35.507 340.45 35.3555C340.378 35.2599 340.342 35.2002 340.354 35.1882C340.366 35.1763 340.533 35.3794 340.88 35.678C341.378 36.0728 341.964 36.3431 342.588 36.4664C343.519 36.657 344.484 36.5952 345.383 36.2872C346.488 35.8894 347.53 35.3342 348.477 34.6387L348.644 34.5193L348.716 34.7343V34.8777C348.969 35.3981 349.39 35.8186 349.91 36.0722C350.412 36.3589 350.961 36.5858 351.463 36.8128C352.322 37.2506 353.286 37.4408 354.246 37.3623C354.893 37.2788 355.489 36.97 355.931 36.4903C356.081 36.3113 356.22 36.1238 356.349 35.9288Z" fill="#455A64"/>
<path d="M321.313 65.697C318.903 66.2306 316.571 67.0696 314.373 68.1936C314.194 69.2448 315.938 71.5861 316.917 72.0161C317.466 72.2165 318.054 72.2863 318.635 72.2199C319.215 72.1536 319.772 71.9529 320.262 71.6339C321.117 70.9191 321.682 69.9166 321.851 68.8148C321.914 67.748 321.73 66.681 321.313 65.697Z" fill="#FF9A6C"/>
<path d="M317.216 72.1473C318.007 72.1277 318.79 71.9784 319.533 71.7053C320.3 71.3674 320.94 70.7943 321.361 70.0688C321.853 69.172 321.986 68.1213 321.731 67.1303C321.617 66.6678 321.419 66.2304 321.146 65.8402L321.48 65.9477C319.349 66.7662 317.156 67.4133 314.922 67.8828C316.974 66.8779 319.103 66.0391 321.289 65.3743L321.492 65.3026L321.636 65.4818C321.965 65.9293 322.204 66.4364 322.34 66.975C322.63 68.1209 322.458 69.3346 321.862 70.3555C321.36 71.1676 320.598 71.7863 319.7 72.1115C319.313 72.2955 318.891 72.3939 318.462 72.4001C318.033 72.4063 317.608 72.3201 317.216 72.1473Z" fill="#263238"/>
<path d="M348.548 73.8317C348.548 74.4885 348.354 75.1305 347.989 75.6767C347.624 76.2228 347.105 76.6484 346.498 76.8997C345.892 77.1511 345.224 77.2169 344.58 77.0887C343.936 76.9606 343.344 76.6443 342.879 76.1799C342.415 75.7154 342.099 75.1237 341.971 74.4796C341.842 73.8354 341.908 73.1677 342.159 72.5609C342.411 71.9541 342.837 71.4354 343.383 71.0705C343.929 70.7056 344.571 70.5109 345.228 70.5109C346.107 70.514 346.95 70.8649 347.572 71.487C348.194 72.1091 348.545 72.9519 348.548 73.8317Z" fill="#455A64"/>
<path d="M203.388 149.817C203.388 149.817 193.067 145.313 190.057 143.39C187.689 141.755 184.958 140.722 182.101 140.38C178.732 139.771 169.809 138.803 167.647 140.38C165.485 141.957 155.702 145.922 155.702 145.922L168.627 152.958C168.627 152.958 170.741 161.69 173.297 162.515C175.854 163.339 175.412 163.04 178.147 162.515C180.883 161.989 189.878 157.665 190.093 157.844C190.308 158.023 199.589 163.016 199.589 163.016L203.388 149.817Z" fill="#FFBF9D"/>
<path d="M164.183 148.61H133.543L132.062 147.595C132.007 147.556 131.963 147.505 131.933 147.446C131.902 147.387 131.886 147.321 131.886 147.254C131.886 147.188 131.902 147.122 131.933 147.063C131.963 147.004 132.007 146.953 132.062 146.914L133.531 146.006H164.171L164.183 148.61Z" fill="#263238"/>
<path d="M148.809 146.854C148.809 146.854 150.266 145.11 153.121 146.854C154.77 147.821 156.365 148.878 157.899 150.02C158.558 149.859 159.208 149.664 159.846 149.434L163.908 151.369L164.35 153.758C164.35 153.758 159.165 155.502 157.517 154.63C154.539 152.766 151.74 150.631 149.155 148.252C148.51 147.248 148.809 146.854 148.809 146.854Z" fill="#FFBF9D"/>
<path d="M174.767 156.84L172.879 155.646L173.56 153.03C173.56 153.03 177.526 152.492 177.968 150.318C178.41 148.144 177.968 148.18 177.968 148.18L172.831 149.052L175.22 147.069C175.22 147.069 179.521 146.532 179.186 144.023L178.362 142.829C176.471 143.178 174.61 143.674 172.796 144.31C170.63 145.504 168.528 146.812 166.5 148.228L170.371 144.549C171.416 144.179 172.378 143.606 173.202 142.864C173.356 142.704 173.473 142.511 173.544 142.3C173.614 142.089 173.637 141.864 173.609 141.643C173.582 141.422 173.505 141.21 173.385 141.022C173.265 140.835 173.104 140.676 172.915 140.559C172.639 140.379 172.312 140.295 171.983 140.32C170.572 140.399 169.182 140.697 167.862 141.204C166.214 141.98 161.268 145.612 160.54 147.499C159.811 149.387 159.918 150.055 161.077 151.25C162.314 152.318 163.66 153.255 165.091 154.045C165.655 155.117 166.476 156.032 167.48 156.709C167.48 156.709 168.304 160.352 173.285 162.479" fill="#FFBF9D"/>
<path d="M173.309 162.479C173.124 162.434 172.944 162.37 172.772 162.287C172.265 162.067 171.774 161.811 171.302 161.523C170.534 161.057 169.83 160.491 169.212 159.839C168.35 158.969 167.703 157.909 167.325 156.745L167.42 156.864C166.344 156.207 165.472 155.264 164.9 154.141L164.983 154.224C164.147 153.758 163.287 153.245 162.427 152.648C161.461 152.067 160.643 151.269 160.038 150.318C159.775 149.739 159.741 149.082 159.942 148.479C160.073 147.87 160.307 147.288 160.635 146.758C161.392 145.75 162.275 144.843 163.263 144.059C164.263 143.202 165.312 142.404 166.405 141.67C166.979 141.275 167.596 140.947 168.244 140.69C168.908 140.459 169.592 140.291 170.287 140.188L171.338 140.033C171.734 139.975 172.137 139.975 172.533 140.033C172.951 140.133 173.322 140.377 173.579 140.722C173.837 141.066 173.965 141.491 173.942 141.921C173.93 142.37 173.746 142.797 173.429 143.115C173.155 143.384 172.855 143.624 172.533 143.832C171.899 144.254 171.217 144.599 170.502 144.859L170.61 144.787L169.033 146.293L166.739 148.467L166.345 147.989C168.28 146.687 170.156 145.421 172.115 144.333C173.111 143.848 174.162 143.483 175.244 143.246C176.288 142.984 177.315 142.757 178.326 142.566H178.517L178.625 142.721L179.449 143.915V143.975C179.51 144.523 179.37 145.075 179.055 145.528C178.742 145.946 178.332 146.283 177.86 146.508C177.022 146.933 176.117 147.211 175.185 147.332L175.328 147.272L172.939 149.243L172.748 148.813L176.582 148.18L177.478 148.037H177.693H177.801H177.968C178.011 148.026 178.056 148.026 178.099 148.037C178.434 148.275 178.338 148.443 178.386 148.61C178.399 149.189 178.334 149.768 178.195 150.33C178.075 150.884 177.777 151.383 177.347 151.752C176.961 152.071 176.53 152.333 176.069 152.528C175.278 152.864 174.447 153.093 173.596 153.209L173.715 153.113C173.429 154.141 173.19 155.001 172.999 155.706V155.61L174.408 156.554C174.564 156.648 174.708 156.761 174.838 156.888C174.668 156.819 174.504 156.735 174.348 156.637L172.903 155.765H172.843C173.011 155.049 173.226 154.177 173.465 153.137V153.042H173.56C174.383 152.904 175.186 152.663 175.949 152.325C176.396 152.169 176.799 151.909 177.125 151.566C177.452 151.224 177.691 150.808 177.825 150.354C177.942 149.829 177.994 149.291 177.98 148.753C177.987 148.698 177.987 148.642 177.98 148.586C177.98 148.514 177.98 148.586 177.98 148.431C177.98 148.275 177.98 148.622 177.98 148.586H177.86H177.645L176.75 148.741L172.939 149.422L172.031 149.578L172.736 148.98L175.125 146.985H175.209C176.071 146.863 176.907 146.597 177.681 146.197C178.059 146.035 178.377 145.759 178.591 145.408C178.805 145.057 178.904 144.648 178.876 144.238L178.936 144.357L178.099 143.163L178.386 143.282C177.395 143.485 176.367 143.712 175.34 143.975C174.306 144.203 173.303 144.556 172.354 145.026C170.454 146.078 168.567 147.356 166.656 148.61L166.261 148.12L168.555 145.946L170.132 144.441H170.203C170.866 144.193 171.499 143.872 172.091 143.485C172.378 143.297 172.646 143.081 172.891 142.84C173.101 142.645 173.226 142.374 173.238 142.088C173.258 141.8 173.174 141.514 173.001 141.284C172.827 141.053 172.576 140.893 172.294 140.833C171.981 140.787 171.663 140.787 171.35 140.833L170.335 140.965C169.674 141.071 169.023 141.23 168.388 141.443C167.781 141.678 167.204 141.983 166.668 142.351C165.619 143 164.606 143.706 163.633 144.465C162.685 145.211 161.834 146.074 161.101 147.033C160.806 147.51 160.589 148.03 160.456 148.574C160.269 149.058 160.269 149.595 160.456 150.079C161.02 150.954 161.77 151.692 162.654 152.241C163.49 152.839 164.338 153.364 165.151 153.83H165.21C165.734 154.891 166.534 155.791 167.528 156.434H167.599V156.518C167.944 157.631 168.536 158.652 169.331 159.504C169.918 160.155 170.584 160.729 171.314 161.212C172.604 162.144 173.333 162.383 173.309 162.479Z" fill="#FF9A6C"/>
<path d="M176.474 156.996C176.672 156.265 177.008 155.58 177.466 154.977C179.443 151.909 182.269 149.481 185.601 147.989C186.264 147.629 186.99 147.398 187.739 147.308C183.152 149.42 179.249 152.776 176.474 156.996Z" fill="#FF9A6C"/>
<path d="M173.19 148.849C173.19 148.956 172.605 149.052 171.756 149.422C170.668 149.946 169.779 150.81 169.224 151.883C168.683 152.994 168.263 154.159 167.97 155.359C167.707 156.279 167.516 156.864 167.432 156.84C167.358 156.313 167.395 155.776 167.54 155.264C167.728 153.979 168.132 152.735 168.734 151.584C169.338 150.389 170.377 149.47 171.637 149.016C172.127 148.809 172.667 148.751 173.19 148.849Z" fill="#FF9A6C"/>
<path d="M166.667 148.049C166.096 148.883 165.642 149.791 165.318 150.748C164.864 152.361 164.983 153.759 164.804 153.783C164.351 152.77 164.317 151.619 164.708 150.581C164.924 149.812 165.336 149.113 165.903 148.551C166.273 148.156 166.632 148.049 166.667 148.049Z" fill="#FF9A6C"/>
<path d="M322.615 469.5V470.957C322.615 470.957 297.983 481.134 297.757 485.829L346.876 485.1L345.968 468.771C342.355 470.559 338.4 471.55 334.371 471.676C330.341 471.801 326.332 471.059 322.615 469.5Z" fill="#263238"/>
<path d="M346.876 485.1L346.661 481.182L299.668 483.309C299.668 483.309 297.494 484.288 297.756 485.829L346.876 485.1Z" fill="#455A64"/>
<path d="M322.507 471.1C322.507 471.339 323.702 471.435 324.896 472.187C326.091 472.94 326.736 473.931 326.951 473.836C327.166 473.74 326.796 472.367 325.338 471.447C323.881 470.527 322.4 470.885 322.507 471.1Z" fill="white"/>
<path d="M317.335 473.31C317.335 473.537 318.326 473.932 319.15 474.935C319.975 475.938 320.237 477.001 320.476 476.99C320.715 476.978 320.847 475.616 319.783 474.397C318.72 473.179 317.335 473.083 317.335 473.31Z" fill="white"/>
<path d="M314.492 479.51C314.707 479.51 315.03 478.315 314.397 477.061C313.764 475.807 312.629 475.246 312.533 475.449C312.438 475.652 313.142 476.345 313.644 477.42C314.146 478.495 314.253 479.498 314.492 479.51Z" fill="white"/>
<path d="M357.735 454.688L336.842 460.541L342.062 472.403L336.651 502.409C336.496 503.239 336.654 504.097 337.095 504.817C337.537 505.536 338.23 506.066 339.04 506.304C339.672 506.492 340.345 506.496 340.979 506.316C341.614 506.137 342.184 505.78 342.624 505.288C347.235 500.116 364.125 480.991 363.719 478.662L363.05 472.414C362.907 471.124 361.653 468.042 361.653 467.768L357.735 454.688Z" fill="#263238"/>
<path d="M339.601 506.411L363.396 476.547L363.528 477.909C363.61 478.47 363.566 479.042 363.399 479.584C363.231 480.125 362.945 480.623 362.56 481.039C360.685 484.049 355.393 490.894 342.599 505.348C342.227 505.763 341.76 506.083 341.238 506.28C340.717 506.478 340.155 506.547 339.601 506.483V506.411Z" fill="#455A64"/>
<path d="M345.873 491.647C344.979 490.712 343.917 489.954 342.743 489.413C341.487 489.052 340.174 488.931 338.873 489.054C338.873 488.971 339.231 488.684 339.995 488.505C341.002 488.304 342.044 488.386 343.006 488.744C343.955 489.098 344.784 489.715 345.395 490.524C345.861 491.145 345.956 491.623 345.873 491.647Z" fill="white"/>
<path d="M343.914 496.186C342.92 495.746 341.898 495.371 340.856 495.063C339.772 494.961 338.683 494.925 337.595 494.955C337.475 494.8 339.016 493.964 340.999 494.37C342.982 494.776 344.081 496.078 343.914 496.186Z" fill="white"/>
<path d="M349.754 485.721C349.611 485.889 347.843 484.419 345.156 483.691C342.468 482.962 340.174 483.237 340.15 483.022C341.838 482.417 343.683 482.417 345.371 483.022C348.237 483.798 349.91 485.614 349.754 485.721Z" fill="white"/>
<path d="M341.799 468.317C342.001 469.653 342.081 471.004 342.038 472.355C341.775 474.087 341.417 476.309 340.987 478.722C340.497 481.577 340.007 484.157 339.625 486.02C339.477 487.039 339.224 488.039 338.873 489.007C338.877 487.976 338.981 486.948 339.183 485.937C339.458 484.061 339.876 481.469 340.378 478.614C340.796 476.225 341.214 473.991 341.572 472.271C341.533 470.949 341.609 469.626 341.799 468.317Z" fill="#455A64"/>
<path d="M371.555 275.136C373.204 267.18 374.159 259.523 372.511 252.906C368.7 237.556 361.76 228.513 352.646 209.03L350.34 209.568L281.487 209.03L278.799 213.163C272.826 229.11 268.836 238.619 267.164 250.278C265.241 263.716 268.61 283.163 276.075 302.837C292.19 345.244 301.161 379.157 301.794 388.283C302.427 397.409 303.395 406.858 311.864 435.79C318.04 456.897 322.615 469.524 322.615 469.524C329.029 473.107 335.85 474.123 342.038 470.611L360.96 463.3C360.96 463.3 355.154 413.5 348.393 400.288C343.519 390.732 335.552 386.264 339.267 373.865C342.982 361.465 366.49 299.552 371.555 275.136Z" fill="#263238"/>
<path d="M295.272 234.928C295.368 235.025 295.452 235.133 295.523 235.25L296.251 236.254L299.011 240.172C301.4 243.648 304.912 248.677 309.343 255.044V255.115C308.842 260.682 308.651 267.144 308.316 274.336C307.982 281.527 307.587 289.458 307.181 297.964C306.775 306.469 306.262 315.559 305.772 325.08C305.282 334.6 304.709 344.575 303.765 354.812C302.762 363.341 301.89 371.715 302.57 379.766C302.736 381.77 303.007 383.763 303.383 385.738C303.707 387.667 304.178 389.568 304.792 391.424C306.142 395.008 307.707 398.532 309.188 401.936C315.161 415.554 320.835 427.715 325.53 437.952C330.224 448.189 334.059 456.419 336.698 462.153L339.721 468.747C340.055 469.476 340.318 470.049 340.497 470.467C340.676 470.885 340.736 471.053 340.736 471.053C340.736 471.053 340.628 470.873 340.437 470.491C340.246 470.109 339.96 469.524 339.613 468.795L336.555 462.213C333.855 456.491 329.985 448.261 325.195 438.083C320.405 427.906 314.779 415.733 308.734 402.128C307.229 398.711 305.676 395.247 304.291 391.568C303.667 389.688 303.188 387.763 302.857 385.81C302.476 383.835 302.197 381.841 302.021 379.837C301.28 371.715 302.164 363.281 303.156 354.752C304.111 344.551 304.601 334.564 305.174 325.056C305.748 315.547 306.19 306.433 306.656 297.928C307.122 289.423 307.492 281.503 307.85 274.312C308.209 267.121 308.459 260.658 309.045 255.08V255.199L298.855 240.243L296.227 236.313L295.546 235.286C295.442 235.177 295.35 235.057 295.272 234.928Z" fill="#455A64"/>
<path d="M364.818 113.12C364.818 113.12 374.709 115.748 375.007 128.781C375.27 140.296 380.646 172.68 380.789 184.375C380.932 196.069 379.595 204.873 364.794 207.37C352.849 209.376 340.163 182.499 340.163 182.499L352.371 171.939L347.294 150.82C347.294 150.82 343.925 143.569 351.917 128.315C359.908 113.061 364.818 113.12 364.818 113.12Z" fill="#FFA92C"/>
<path d="M309.797 93.0998L304.075 100.649L285.882 104.567C285.882 104.567 272.492 133.045 273.125 146.149C273.316 152.721 273.995 159.269 275.155 165.74L275.036 180.731C275.036 180.731 269.398 193.202 271.906 198.649C274.415 204.097 281.463 209.042 281.463 209.042L347.485 209.866C347.485 209.866 352.179 212.566 354.652 205.506C357.125 198.446 353.219 146.854 353.219 146.854L366.084 113.694L345.263 102.334L341.452 92.2875L316.534 98.6663L309.797 93.0998Z" fill="#FFA92C"/>
<path d="M357.149 175.105L354.401 171.067L340.174 177.219L341.512 181.83C341.512 181.83 346.362 187.289 351.152 185.414C355.942 183.538 356.779 178.247 356.779 178.247L357.149 175.105Z" fill="#FFBF9D"/>
<path d="M344.833 164.306C344.833 164.306 346.816 161.702 348.298 161.117C349.001 160.834 349.719 160.587 350.448 160.376C350.333 160.043 350.299 159.687 350.347 159.338C350.396 158.988 350.526 158.655 350.727 158.366C350.929 158.076 351.195 157.838 351.506 157.67C351.816 157.503 352.162 157.411 352.514 157.402C353.077 157.885 353.764 158.2 354.497 158.31C354.704 158.276 354.915 158.283 355.118 158.332C355.322 158.38 355.514 158.469 355.683 158.592C355.852 158.716 355.995 158.872 356.103 159.051C356.211 159.23 356.282 159.429 356.313 159.636C356.552 160.711 357.221 163.673 356.313 165.083C355.405 166.492 353.745 167.89 354.497 171.689C354.497 171.689 353.506 175.893 351.356 176.969C350.376 177.555 349.27 177.895 348.13 177.96C348.13 177.96 346.159 180.349 344.547 180.015C342.934 179.68 342.158 179.609 342.158 179.609C342.158 179.609 340.844 181.651 337.953 180.05C337.481 180.366 336.935 180.552 336.369 180.589C335.803 180.627 335.237 180.515 334.728 180.266C333.963 179.847 330.188 176.061 330.021 173.17C329.854 170.279 330.021 168.296 330.69 167.197C331.741 165.608 333.282 167.054 333.282 167.054C333.445 165.685 333.941 164.376 334.728 163.243C335.803 162.168 336.627 162.335 336.627 162.335C336.627 162.335 336.304 159.027 338.861 158.752C341.417 158.477 341.166 161.559 341.25 163.207L341.333 164.856C341.333 164.856 342.313 162.491 344.833 164.306Z" fill="#FFBF9D"/>
<path d="M344.834 164.306C344.834 164.306 344.499 164.091 343.854 163.852C343.465 163.73 343.048 163.73 342.659 163.852C342.389 163.959 342.144 164.12 341.938 164.326C341.733 164.531 341.572 164.777 341.465 165.047L341.25 165.525V164.999C341.25 164.294 341.142 163.518 341.119 162.61C341.144 161.687 340.982 160.768 340.641 159.91C340.514 159.699 340.346 159.516 340.146 159.372C339.946 159.228 339.719 159.127 339.478 159.074C339.237 159.022 338.989 159.019 338.747 159.066C338.505 159.113 338.276 159.21 338.072 159.349C337.615 159.7 337.262 160.169 337.051 160.706C336.841 161.242 336.781 161.827 336.878 162.395V162.658H336.579C336.129 162.711 335.699 162.875 335.328 163.136C334.956 163.396 334.656 163.745 334.453 164.151C333.994 165.109 333.688 166.133 333.545 167.185L333.473 167.663L333.103 167.34C332.589 166.898 331.813 166.612 331.299 167.03C330.767 167.564 330.445 168.272 330.392 169.025C330.277 169.852 330.229 170.687 330.248 171.521C330.231 172.371 330.308 173.22 330.475 174.054C331.063 175.74 332.013 177.277 333.258 178.557C333.557 178.892 333.88 179.226 334.214 179.537C334.549 179.847 334.56 179.835 334.74 179.967C334.906 180.089 335.092 180.182 335.289 180.241C335.705 180.365 336.143 180.395 336.573 180.331C337.002 180.267 337.412 180.11 337.774 179.871L337.941 179.764L338.096 179.847C338.863 180.331 339.786 180.506 340.677 180.337C341.151 180.193 341.568 179.905 341.871 179.513L342.002 179.334H342.17L343.89 179.632C344.153 179.632 344.475 179.74 344.714 179.764C344.952 179.782 345.192 179.754 345.419 179.68C346.398 179.267 347.26 178.619 347.927 177.793L348.023 177.685H348.178C348.969 177.626 349.742 177.424 350.46 177.088C351.215 176.846 351.88 176.384 352.371 175.762C353.278 174.523 353.924 173.113 354.27 171.617V171.736C353.859 170.055 354.085 168.28 354.904 166.755C355.298 166.038 355.847 165.429 356.206 164.832C356.504 164.19 356.632 163.483 356.576 162.777C356.555 162.08 356.479 161.385 356.349 160.699C356.304 160.068 356.107 159.457 355.776 158.919C355.58 158.722 355.323 158.6 355.047 158.572C354.772 158.513 354.438 158.572 354.091 158.465C353.463 158.305 352.876 158.012 352.371 157.605H352.514C352.171 157.605 351.833 157.69 351.531 157.853C351.229 158.015 350.972 158.25 350.782 158.537C350.508 159.092 350.441 159.727 350.591 160.328V160.484H350.436L348.943 160.985C348.52 161.103 348.117 161.284 347.748 161.523C347.145 161.931 346.588 162.404 346.088 162.933C345.67 163.363 345.371 163.697 345.168 163.924C345.07 164.044 344.962 164.156 344.846 164.258C344.846 164.258 344.845 164.115 345.096 163.864C345.347 163.613 345.562 163.267 345.968 162.813C346.459 162.255 347.007 161.75 347.605 161.308C348.009 161.05 348.448 160.849 348.907 160.711L350.424 160.173L350.305 160.376C350.109 159.689 350.173 158.953 350.484 158.31C350.694 157.958 350.989 157.665 351.342 157.456C351.694 157.248 352.093 157.13 352.502 157.115H352.586H352.658C353.092 157.48 353.596 157.752 354.139 157.915C354.605 158.023 355.501 157.915 356.05 158.477C356.305 158.755 356.478 159.098 356.552 159.468C356.624 159.803 356.707 160.137 356.767 160.484C356.91 161.193 356.998 161.911 357.03 162.634C357.095 163.43 356.95 164.228 356.612 164.951C356.194 165.656 355.692 166.218 355.322 166.898C354.583 168.313 354.391 169.95 354.784 171.497V171.617C354.42 173.201 353.741 174.696 352.789 176.013C352.515 176.352 352.193 176.65 351.834 176.897C351.454 177.127 351.054 177.323 350.639 177.482C349.835 177.857 348.968 178.076 348.083 178.127L348.334 178.02C347.599 178.939 346.641 179.655 345.55 180.098C345.239 180.2 344.909 180.237 344.583 180.206C344.248 180.206 344.009 180.122 343.723 180.074L342.038 179.788L342.337 179.644C341.949 180.174 341.394 180.558 340.76 180.731C339.713 180.948 338.623 180.756 337.714 180.194H338.049C337.607 180.491 337.104 180.686 336.577 180.765C336.05 180.843 335.512 180.803 335.002 180.648C334.747 180.565 334.505 180.444 334.286 180.289C334.083 180.134 333.904 179.979 333.724 179.811C333.545 179.644 333.031 179.131 332.721 178.784C331.412 177.426 330.42 175.794 329.818 174.006C329.645 173.121 329.569 172.22 329.591 171.318C329.565 170.455 329.617 169.592 329.746 168.738C329.806 167.826 330.212 166.971 330.881 166.349C331.073 166.203 331.295 166.104 331.532 166.058C331.768 166.013 332.011 166.022 332.243 166.086C332.689 166.183 333.102 166.398 333.438 166.707L332.996 166.863C333.149 165.749 333.484 164.667 333.987 163.661C334.255 163.182 334.631 162.773 335.086 162.467C335.532 162.12 336.086 161.942 336.651 161.965L336.376 162.228C336.323 161.562 336.4 160.893 336.603 160.257C336.801 159.627 337.227 159.095 337.798 158.764C338.344 158.476 338.97 158.379 339.578 158.489C339.868 158.541 340.141 158.663 340.374 158.844C340.607 159.025 340.793 159.26 340.915 159.528C341.269 160.441 341.427 161.417 341.381 162.395C341.381 163.255 341.381 164.043 341.453 164.784H341.202C341.336 164.494 341.526 164.233 341.762 164.018C341.998 163.802 342.275 163.636 342.576 163.53C343.03 163.418 343.507 163.456 343.938 163.637C344.268 163.814 344.57 164.04 344.834 164.306Z" fill="#FF9A6C"/>
<path d="M353.566 163.578C353.566 163.661 353.255 163.721 352.801 163.578C352.194 163.421 351.648 163.083 351.236 162.61C350.827 162.141 350.572 161.557 350.508 160.938C350.508 160.46 350.567 160.185 350.639 160.185C350.711 160.185 350.89 161.272 351.714 162.204C352.538 163.136 353.566 163.434 353.566 163.578Z" fill="#FF9A6C"/>
<path d="M349.814 171.939C349.635 172.011 348.895 170.076 347.533 167.95C346.171 165.823 344.702 164.366 344.821 164.247C346.182 165.06 347.3 166.223 348.058 167.615C348.989 168.891 349.592 170.376 349.814 171.939Z" fill="#FF9A6C"/>
<path d="M341.357 164.259C341.453 164.259 341.357 165.059 341.572 166.253C342.004 167.81 342.669 169.292 343.543 170.649C344.011 171.442 344.411 172.273 344.738 173.134C344.966 173.843 345.149 174.565 345.287 175.296C345.447 175.929 345.823 176.487 346.35 176.873C346.35 176.873 346.123 176.873 345.801 176.706C345.365 176.394 345.043 175.95 344.881 175.439C344.642 174.806 344.523 174.09 344.2 173.337C343.853 172.516 343.454 171.718 343.006 170.948C342.09 169.537 341.453 167.964 341.13 166.313C340.973 165.622 341.053 164.898 341.357 164.259Z" fill="#FF9A6C"/>
<path d="M339.995 175.523C339.36 175.179 338.797 174.717 338.335 174.161C337.776 173.589 337.323 172.921 336.997 172.19C336.66 171.278 336.466 170.319 336.423 169.347C336.098 166.93 336.175 164.476 336.65 162.084C336.83 162.084 336.65 165.334 337.045 169.252C337.077 170.163 337.242 171.064 337.534 171.928C337.811 172.616 338.194 173.257 338.669 173.827C339.482 174.878 340.067 175.523 339.995 175.523Z" fill="#FF9A6C"/>
<path d="M335.397 176.3C335.313 176.3 335.05 175.822 334.393 175.105C333.995 174.691 333.628 174.247 333.294 173.779C332.877 173.166 332.629 172.453 332.578 171.713C332.556 170.435 332.688 169.16 332.972 167.914C333.001 167.394 333.081 166.878 333.211 166.373C333.294 166.373 333.45 166.97 333.402 167.95C333.263 169.179 333.195 170.416 333.199 171.653C333.374 172.845 333.912 173.955 334.74 174.83C335.325 175.643 335.48 176.276 335.397 176.3Z" fill="#FF9A6C"/>
<path d="M374.589 185.748C374.064 184.875 373.429 184.073 372.702 183.359C371.875 182.605 370.941 181.977 369.931 181.496C368.678 180.928 367.384 180.456 366.06 180.086C364.651 179.656 363.277 179.25 362.07 178.748C360.993 178.316 359.98 177.737 359.06 177.028C358.435 176.553 357.887 175.985 357.436 175.344C357.125 174.89 357.017 174.591 357.053 174.579C357.734 175.358 358.494 176.063 359.323 176.682C360.248 177.304 361.242 177.817 362.285 178.211C363.48 178.677 364.818 179.059 366.239 179.489C367.598 179.871 368.921 180.371 370.193 180.982C371.236 181.508 372.188 182.198 373.012 183.025C373.567 183.583 374.019 184.234 374.35 184.948C374.577 185.426 374.625 185.736 374.589 185.748Z" fill="#263238"/>
<path d="M198.8 146.102C199.517 146.173 209.838 149.805 209.838 149.805C212.442 148.986 215.218 148.879 217.877 149.494C221.712 150.605 241.183 154.989 241.183 154.989L266.268 122.581C266.268 122.581 276.338 105.63 285.918 104.591L278.297 152.373C278.297 152.373 257.93 179.286 248.111 182.654C238.292 186.023 203.782 173.277 202.898 168.475L191.382 161.308L198.8 146.102Z" fill="#FFA92C"/>
<path d="M361.76 207.883C361.322 207.785 360.897 207.636 360.494 207.441C359.367 206.945 358.28 206.362 357.244 205.697C353.893 203.389 350.926 200.567 348.453 197.335C346.971 195.496 345.657 193.668 344.487 191.996C343.396 190.577 342.436 189.062 341.62 187.468C341.076 186.322 340.941 185.023 341.238 183.789C341.328 183.461 341.465 183.147 341.644 182.858C341.775 182.666 341.859 182.583 341.871 182.595C341.718 182.985 341.586 183.384 341.477 183.789C341.289 184.964 341.477 186.168 342.014 187.23C342.878 188.803 343.873 190.302 344.988 191.709C346.183 193.358 347.497 195.173 348.978 197.001C351.421 200.178 354.3 202.993 357.531 205.363C360.016 207.083 361.82 207.776 361.76 207.883Z" fill="#263238"/>
<path d="M349.802 141.037C349.982 141.037 349.91 144.764 350.101 149.398C350.292 154.033 350.675 157.677 350.495 157.7C350.219 156.931 350.05 156.127 349.994 155.311C349.791 153.818 349.576 151.728 349.48 149.434C349.384 147.141 349.42 145.038 349.48 143.533C349.471 142.69 349.579 141.85 349.802 141.037Z" fill="#263238"/>
<path d="M364.686 114.53C363.466 114.745 362.267 115.064 361.103 115.485C358.405 116.753 356.114 118.747 354.485 121.243C352.774 123.699 351.468 126.413 350.615 129.282C349.958 131.48 349.814 132.866 349.695 132.866C349.643 132.529 349.643 132.187 349.695 131.851C349.718 131.449 349.77 131.05 349.85 130.656C349.928 130.137 350.036 129.622 350.173 129.115C350.921 126.15 352.2 123.346 353.947 120.837C354.912 119.45 356.057 118.196 357.352 117.11C358.418 116.217 359.631 115.514 360.935 115.031C361.222 114.924 361.473 114.816 361.736 114.745L362.464 114.59C362.855 114.49 363.256 114.442 363.659 114.446C364.004 114.41 364.352 114.439 364.686 114.53Z" fill="#263238"/>
<path d="M283.231 114.53C283.231 114.53 283.231 114.721 283.04 115.055L282.359 116.501C282.048 117.11 281.69 117.874 281.308 118.782C280.925 119.69 280.435 120.682 280.005 121.84C278.938 124.522 278.009 127.257 277.222 130.035C276.297 133.445 275.575 136.908 275.06 140.404C274.587 143.908 274.327 147.439 274.284 150.975C274.272 153.859 274.411 156.742 274.702 159.612C274.797 160.806 274.976 162.001 275.108 162.921C275.239 163.84 275.359 164.724 275.49 165.405C275.621 166.086 275.669 166.6 275.741 166.982C275.767 167.164 275.767 167.349 275.741 167.532C275.741 167.532 275.657 167.352 275.574 167.006L275.203 165.453C275.036 164.772 274.869 163.948 274.714 162.968C274.558 161.989 274.343 160.902 274.224 159.66C273.861 156.775 273.673 153.871 273.662 150.963C273.642 143.83 274.64 136.731 276.625 129.88C277.436 127.088 278.414 124.348 279.551 121.673C280.017 120.479 280.519 119.523 280.949 118.627C281.379 117.731 281.75 116.991 282.144 116.381L282.932 114.996C283.013 114.829 283.113 114.673 283.231 114.53Z" fill="#263238"/>
<path d="M345.263 102.357C345.263 102.357 345.108 102.465 344.785 102.62L343.352 103.265C342.098 103.803 340.27 104.531 337.964 105.368C331.906 107.544 325.718 109.343 319.437 110.755L319.138 110.827L319.067 110.516C318.923 109.943 318.78 109.322 318.601 108.712C317.717 105.475 316.642 102.417 315.973 99.4786L316.487 99.598C313.882 102.775 311.529 105.571 309.427 107.781L309.26 107.948L309.104 107.781C308.304 106.863 307.577 105.885 306.93 104.854C306.369 103.982 305.867 103.229 305.437 102.572C304.601 101.378 304.051 100.721 304.075 100.685C304.099 100.649 304.254 100.805 304.529 101.091C304.918 101.518 305.285 101.964 305.628 102.429C306.082 103.038 306.608 103.791 307.229 104.651C307.888 105.646 308.622 106.589 309.427 107.47H309.104C311.135 105.272 313.452 102.417 316.033 99.2277L316.403 98.7618L316.546 99.3472C317.227 102.238 318.302 105.32 319.198 108.545C319.377 109.166 319.533 109.74 319.664 110.385L319.294 110.146C325.556 108.743 331.74 107.013 337.821 104.961C340.138 104.185 341.99 103.516 343.268 103.038C343.919 102.771 344.585 102.543 345.263 102.357Z" fill="#263238"/>
<path d="M308.758 212.47C308.661 212.433 308.569 212.385 308.483 212.327C308.224 212.19 307.973 212.038 307.731 211.873C306.812 211.209 306.026 210.378 305.413 209.424C304.458 207.897 303.801 206.203 303.478 204.431C303.024 202.106 302.807 199.74 302.833 197.371C302.833 186.919 302.678 172.453 303.801 156.506C304.374 148.538 305.27 140.977 306.452 134.144C307.478 128.093 308.866 122.11 310.609 116.226C312.186 110.795 314.183 105.495 316.582 100.374C316.566 100.473 316.538 100.569 316.498 100.661L316.2 101.485C315.901 102.25 315.483 103.301 315.005 104.627C314.527 105.953 313.894 107.673 313.214 109.632C312.533 111.591 311.852 113.849 311.099 116.357C309.43 122.251 308.09 128.233 307.086 134.275C305.891 141.084 305.067 148.61 304.493 156.59C303.37 172.501 303.442 186.955 303.299 197.407C303.262 199.748 303.446 202.088 303.848 204.395C304.15 206.134 304.761 207.805 305.652 209.329C306.448 210.588 307.507 211.66 308.758 212.47Z" fill="#263238"/>
<path d="M327.345 189.965C326.772 189.973 326.199 189.921 325.637 189.81C324.538 189.666 322.949 189.404 321.014 189.021C315.951 188.015 310.966 186.654 306.094 184.948C301.225 183.244 296.482 181.196 291.903 178.82C290.147 177.9 288.749 177.124 287.806 176.55C287.299 176.282 286.819 175.966 286.372 175.607C286.911 175.802 287.431 176.046 287.925 176.335C288.905 176.849 290.314 177.53 292.106 178.426C301.338 182.939 311.069 186.35 321.098 188.591C323.033 189.021 324.586 189.356 325.673 189.571C326.241 189.653 326.8 189.785 327.345 189.965Z" fill="#263238"/>
<g opacity="0.3">
<path d="M359.825 177.04L359.67 176.933L359.825 177.04Z" fill="black"/>
<path d="M377.623 182.428C377.366 181.397 376.857 180.446 376.142 179.66C375.427 178.874 374.528 178.278 373.526 177.924C371.51 177.246 369.373 176.997 367.255 177.195C364.786 177.329 362.31 177.277 359.849 177.04C361.939 178.701 365.594 179.429 368.437 180.624C370.09 181.193 371.618 182.073 372.941 183.216C373.413 183.754 373.92 184.261 374.458 184.733C374.73 184.966 375.054 185.131 375.403 185.215C375.752 185.298 376.116 185.296 376.465 185.211C376.948 184.951 377.327 184.532 377.538 184.025C377.749 183.518 377.779 182.954 377.623 182.428Z" fill="black"/>
</g>
<g opacity="0.3">
<path d="M277.39 128.458C273.713 132.364 271.385 137.346 270.748 142.673C270.257 148.04 271.487 153.425 274.26 158.047V157.856C272.987 147.947 274.059 137.877 277.39 128.458Z" fill="black"/>
</g>
</svg>
