<svg width="1169" height="812" viewBox="0 0 1169 812" fill="none" xmlns="http://www.w3.org/2000/svg">
<path d="M1113.36 782.053H2V647.289H1101.9V479.631H2V337.439H1101.9V176.148H2V43.5065H307.701" stroke="#8491A5" stroke-width="4" stroke-linecap="round" stroke-linejoin="round" stroke-dasharray="20 20"/>
<rect x="43.7238" y="146.573" width="76.745" height="62.5817" rx="31.2908" fill="#008CE4"/>
<path d="M82.2535 183.038H74.4125L73.0652 186.864H69.8587L76.5681 168.11H80.1249L86.8342 186.864H83.6008L82.2535 183.038ZM81.3913 180.532L78.3465 171.828L75.2747 180.532H81.3913ZM93.2378 168.137V186.864H90.166V168.137H93.2378Z" fill="white"/>
<rect x="142.232" y="147.609" width="100.672" height="60.509" rx="30.2545" fill="white"/>
<path d="M171.248 184.385H177.581V186.864H168.177V168.137H171.248V184.385ZM200.288 168.137V186.864H197.216V174.038L191.504 186.864H189.375L183.636 174.038V186.864H180.564V168.137H183.878L190.453 182.822L197.001 168.137H200.288ZM210.91 187.052C209.653 187.052 208.521 186.837 207.515 186.406C206.509 185.956 205.719 185.328 205.144 184.519C204.569 183.711 204.282 182.768 204.282 181.69H207.569C207.641 182.499 207.955 183.163 208.512 183.684C209.087 184.205 209.886 184.466 210.91 184.466C211.97 184.466 212.796 184.214 213.389 183.711C213.982 183.19 214.278 182.525 214.278 181.717C214.278 181.088 214.09 180.576 213.713 180.181C213.353 179.786 212.895 179.481 212.338 179.265C211.799 179.05 211.045 178.816 210.075 178.565C208.853 178.241 207.856 177.918 207.084 177.594C206.33 177.253 205.683 176.732 205.144 176.032C204.605 175.331 204.336 174.397 204.336 173.229C204.336 172.152 204.605 171.208 205.144 170.4C205.683 169.592 206.437 168.972 207.407 168.541C208.377 168.11 209.5 167.894 210.776 167.894C212.59 167.894 214.072 168.352 215.221 169.268C216.389 170.167 217.036 171.406 217.162 172.987H213.766C213.713 172.304 213.389 171.72 212.796 171.235C212.204 170.75 211.422 170.508 210.452 170.508C209.572 170.508 208.853 170.732 208.297 171.182C207.74 171.631 207.461 172.277 207.461 173.122C207.461 173.696 207.632 174.172 207.973 174.55C208.332 174.909 208.782 175.196 209.32 175.412C209.859 175.627 210.596 175.861 211.53 176.113C212.769 176.454 213.775 176.795 214.548 177.136C215.338 177.478 216.003 178.008 216.542 178.726C217.099 179.427 217.377 180.37 217.377 181.555C217.377 182.508 217.117 183.406 216.596 184.25C216.093 185.094 215.347 185.777 214.359 186.298C213.389 186.801 212.24 187.052 210.91 187.052Z" fill="#64748B"/>
<rect x="142.232" y="147.609" width="100.672" height="60.509" rx="30.2545" stroke="#CBD5E1" stroke-width="2.07271"/>
<rect x="265.704" y="147.609" width="130.672" height="60.509" rx="30.2545" fill="white"/>
<path d="M290.764 177.46C290.764 175.627 291.186 173.984 292.031 172.529C292.893 171.074 294.051 169.942 295.507 169.134C296.98 168.307 298.587 167.894 300.33 167.894C302.324 167.894 304.093 168.388 305.638 169.376C307.201 170.346 308.332 171.729 309.033 173.526H305.342C304.856 172.538 304.183 171.801 303.321 171.316C302.458 170.831 301.461 170.589 300.33 170.589C299.09 170.589 297.985 170.867 297.015 171.424C296.045 171.981 295.282 172.78 294.725 173.822C294.186 174.864 293.917 176.077 293.917 177.46C293.917 178.843 294.186 180.055 294.725 181.097C295.282 182.139 296.045 182.948 297.015 183.522C297.985 184.079 299.09 184.358 300.33 184.358C301.461 184.358 302.458 184.115 303.321 183.63C304.183 183.145 304.856 182.409 305.342 181.421H309.033C308.332 183.217 307.201 184.6 305.638 185.57C304.093 186.54 302.324 187.025 300.33 187.025C298.569 187.025 296.962 186.621 295.507 185.813C294.051 184.986 292.893 183.846 292.031 182.391C291.186 180.936 290.764 179.292 290.764 177.46ZM316.115 166.924V186.864H313.043V166.924H316.115ZM327.002 187.106C325.601 187.106 324.335 186.792 323.203 186.163C322.071 185.516 321.182 184.618 320.535 183.469C319.889 182.301 319.565 180.954 319.565 179.427C319.565 177.918 319.898 176.58 320.562 175.412C321.227 174.244 322.134 173.346 323.284 172.717C324.433 172.089 325.718 171.774 327.137 171.774C328.556 171.774 329.84 172.089 330.99 172.717C332.14 173.346 333.047 174.244 333.712 175.412C334.376 176.58 334.709 177.918 334.709 179.427C334.709 180.936 334.367 182.274 333.685 183.442C333.002 184.609 332.068 185.516 330.882 186.163C329.715 186.792 328.421 187.106 327.002 187.106ZM327.002 184.439C327.793 184.439 328.529 184.25 329.212 183.873C329.912 183.495 330.478 182.93 330.909 182.175C331.34 181.421 331.556 180.505 331.556 179.427C331.556 178.349 331.349 177.442 330.936 176.705C330.523 175.951 329.975 175.385 329.293 175.008C328.61 174.631 327.873 174.442 327.083 174.442C326.293 174.442 325.556 174.631 324.874 175.008C324.209 175.385 323.679 175.951 323.284 176.705C322.889 177.442 322.691 178.349 322.691 179.427C322.691 181.026 323.095 182.265 323.903 183.145C324.73 184.007 325.763 184.439 327.002 184.439ZM351.605 172.017V186.864H348.534V185.112C348.049 185.723 347.411 186.208 346.62 186.567C345.848 186.909 345.022 187.079 344.142 187.079C342.974 187.079 341.923 186.837 340.989 186.352C340.073 185.867 339.345 185.148 338.806 184.196C338.285 183.244 338.025 182.094 338.025 180.747V172.017H341.07V180.289C341.07 181.618 341.402 182.642 342.067 183.361C342.731 184.061 343.639 184.412 344.788 184.412C345.938 184.412 346.845 184.061 347.51 183.361C348.192 182.642 348.534 181.618 348.534 180.289V172.017H351.605ZM355.049 179.373C355.049 177.882 355.354 176.562 355.965 175.412C356.594 174.262 357.438 173.373 358.498 172.744C359.576 172.098 360.77 171.774 362.082 171.774C363.052 171.774 364.004 171.99 364.938 172.421C365.89 172.834 366.644 173.391 367.201 174.092V166.924H370.3V186.864H367.201V184.627C366.698 185.346 365.998 185.939 365.099 186.406C364.219 186.873 363.204 187.106 362.055 187.106C360.761 187.106 359.576 186.783 358.498 186.136C357.438 185.471 356.594 184.555 355.965 183.388C355.354 182.202 355.049 180.864 355.049 179.373ZM367.201 179.427C367.201 178.403 366.986 177.514 366.555 176.759C366.141 176.005 365.593 175.43 364.911 175.035C364.228 174.639 363.492 174.442 362.701 174.442C361.911 174.442 361.174 174.639 360.492 175.035C359.809 175.412 359.252 175.978 358.821 176.732C358.408 177.469 358.202 178.349 358.202 179.373C358.202 180.397 358.408 181.295 358.821 182.067C359.252 182.84 359.809 183.433 360.492 183.846C361.192 184.241 361.929 184.439 362.701 184.439C363.492 184.439 364.228 184.241 364.911 183.846C365.593 183.451 366.141 182.876 366.555 182.121C366.986 181.349 367.201 180.451 367.201 179.427Z" fill="#64748B"/>
<rect x="265.704" y="147.609" width="130.672" height="60.509" rx="30.2545" stroke="#CBD5E1" stroke-width="2.07271"/>
<rect x="419.177" y="147.609" width="162.672" height="60.509" rx="30.2545" fill="white"/>
<path d="M451.57 187.052C450.313 187.052 449.181 186.837 448.175 186.406C447.169 185.956 446.379 185.328 445.804 184.519C445.229 183.711 444.941 182.768 444.941 181.69H448.229C448.301 182.499 448.615 183.163 449.172 183.684C449.747 184.205 450.546 184.466 451.57 184.466C452.63 184.466 453.456 184.214 454.049 183.711C454.642 183.19 454.938 182.525 454.938 181.717C454.938 181.088 454.749 180.576 454.372 180.181C454.013 179.786 453.555 179.481 452.998 179.265C452.459 179.05 451.705 178.816 450.735 178.565C449.513 178.241 448.516 177.918 447.744 177.594C446.989 177.253 446.343 176.732 445.804 176.032C445.265 175.331 444.995 174.397 444.995 173.229C444.995 172.152 445.265 171.208 445.804 170.4C446.343 169.592 447.097 168.972 448.067 168.541C449.037 168.11 450.16 167.894 451.435 167.894C453.25 167.894 454.732 168.352 455.881 169.268C457.049 170.167 457.696 171.406 457.821 172.987H454.426C454.372 172.304 454.049 171.72 453.456 171.235C452.863 170.75 452.082 170.508 451.112 170.508C450.232 170.508 449.513 170.732 448.956 171.182C448.399 171.631 448.121 172.277 448.121 173.122C448.121 173.696 448.292 174.172 448.633 174.55C448.992 174.909 449.441 175.196 449.98 175.412C450.519 175.627 451.256 175.861 452.19 176.113C453.429 176.454 454.435 176.795 455.208 177.136C455.998 177.478 456.663 178.008 457.202 178.726C457.758 179.427 458.037 180.37 458.037 181.555C458.037 182.508 457.776 183.406 457.255 184.25C456.752 185.094 456.007 185.777 455.019 186.298C454.049 186.801 452.899 187.052 451.57 187.052ZM475.683 179.076C475.683 179.633 475.647 180.136 475.575 180.585H464.232C464.321 181.771 464.761 182.723 465.552 183.442C466.342 184.16 467.312 184.519 468.462 184.519C470.115 184.519 471.282 183.828 471.965 182.445H475.279C474.83 183.81 474.013 184.933 472.827 185.813C471.659 186.675 470.204 187.106 468.462 187.106C467.043 187.106 465.767 186.792 464.636 186.163C463.522 185.516 462.642 184.618 461.995 183.469C461.366 182.301 461.052 180.954 461.052 179.427C461.052 177.9 461.357 176.562 461.968 175.412C462.597 174.244 463.468 173.346 464.582 172.717C465.714 172.089 467.007 171.774 468.462 171.774C469.863 171.774 471.112 172.08 472.207 172.69C473.303 173.301 474.156 174.163 474.767 175.277C475.378 176.373 475.683 177.639 475.683 179.076ZM472.477 178.106C472.459 176.975 472.055 176.068 471.264 175.385C470.474 174.702 469.495 174.361 468.327 174.361C467.267 174.361 466.36 174.702 465.606 175.385C464.851 176.05 464.402 176.957 464.258 178.106H472.477ZM478.097 179.427C478.097 177.9 478.402 176.562 479.013 175.412C479.642 174.244 480.504 173.346 481.6 172.717C482.695 172.089 483.953 171.774 485.372 171.774C487.168 171.774 488.65 172.205 489.818 173.068C491.004 173.912 491.803 175.125 492.216 176.705H488.902C488.632 175.969 488.201 175.394 487.608 174.981C487.016 174.568 486.27 174.361 485.372 174.361C484.115 174.361 483.109 174.81 482.354 175.708C481.618 176.589 481.249 177.828 481.249 179.427C481.249 181.026 481.618 182.274 482.354 183.172C483.109 184.07 484.115 184.519 485.372 184.519C487.15 184.519 488.327 183.738 488.902 182.175H492.216C491.785 183.684 490.977 184.888 489.791 185.786C488.605 186.666 487.132 187.106 485.372 187.106C483.953 187.106 482.695 186.792 481.6 186.163C480.504 185.516 479.642 184.618 479.013 183.469C478.402 182.301 478.097 180.954 478.097 179.427ZM509.138 172.017V186.864H506.066V185.112C505.581 185.723 504.943 186.208 504.153 186.567C503.38 186.909 502.554 187.079 501.674 187.079C500.506 187.079 499.455 186.837 498.521 186.352C497.605 185.867 496.877 185.148 496.339 184.196C495.818 183.244 495.557 182.094 495.557 180.747V172.017H498.602V180.289C498.602 181.618 498.934 182.642 499.599 183.361C500.264 184.061 501.171 184.412 502.32 184.412C503.47 184.412 504.377 184.061 505.042 183.361C505.724 182.642 506.066 181.618 506.066 180.289V172.017H509.138ZM516.677 174.172C517.126 173.418 517.719 172.834 518.455 172.421C519.21 171.99 520.099 171.774 521.123 171.774V174.954H520.341C519.138 174.954 518.222 175.259 517.593 175.87C516.982 176.481 516.677 177.541 516.677 179.05V186.864H513.605V172.017H516.677V174.172ZM537.968 179.076C537.968 179.633 537.932 180.136 537.86 180.585H526.516C526.606 181.771 527.046 182.723 527.837 183.442C528.627 184.16 529.597 184.519 530.747 184.519C532.399 184.519 533.567 183.828 534.25 182.445H537.564C537.115 183.81 536.298 184.933 535.112 185.813C533.944 186.675 532.489 187.106 530.747 187.106C529.328 187.106 528.052 186.792 526.921 186.163C525.807 185.516 524.927 184.618 524.28 183.469C523.651 182.301 523.337 180.954 523.337 179.427C523.337 177.9 523.642 176.562 524.253 175.412C524.882 174.244 525.753 173.346 526.867 172.717C527.998 172.089 529.292 171.774 530.747 171.774C532.148 171.774 533.396 172.08 534.492 172.69C535.588 173.301 536.441 174.163 537.052 175.277C537.663 176.373 537.968 177.639 537.968 179.076ZM534.762 178.106C534.744 176.975 534.34 176.068 533.549 175.385C532.759 174.702 531.78 174.361 530.612 174.361C529.552 174.361 528.645 174.702 527.891 175.385C527.136 176.05 526.687 176.957 526.543 178.106H534.762ZM540.382 179.373C540.382 177.882 540.687 176.562 541.298 175.412C541.927 174.262 542.771 173.373 543.831 172.744C544.909 172.098 546.103 171.774 547.414 171.774C548.384 171.774 549.337 171.99 550.271 172.421C551.223 172.834 551.977 173.391 552.534 174.092V166.924H555.633V186.864H552.534V184.627C552.031 185.346 551.33 185.939 550.432 186.406C549.552 186.873 548.537 187.106 547.387 187.106C546.094 187.106 544.909 186.783 543.831 186.136C542.771 185.471 541.927 184.555 541.298 183.388C540.687 182.202 540.382 180.864 540.382 179.373ZM552.534 179.427C552.534 178.403 552.318 177.514 551.887 176.759C551.474 176.005 550.926 175.43 550.244 175.035C549.561 174.639 548.825 174.442 548.034 174.442C547.244 174.442 546.507 174.639 545.825 175.035C545.142 175.412 544.585 175.978 544.154 176.732C543.741 177.469 543.534 178.349 543.534 179.373C543.534 180.397 543.741 181.295 544.154 182.067C544.585 182.84 545.142 183.433 545.825 183.846C546.525 184.241 547.262 184.439 548.034 184.439C548.825 184.439 549.561 184.241 550.244 183.846C550.926 183.451 551.474 182.876 551.887 182.121C552.318 181.349 552.534 180.451 552.534 179.427Z" fill="#64748B"/>
<rect x="419.177" y="147.609" width="162.672" height="60.509" rx="30.2545" stroke="#CBD5E1" stroke-width="2.07271"/>
<rect x="604.649" y="147.609" width="168.672" height="60.509" rx="30.2545" fill="white"/>
<path d="M640.869 177.244C641.875 177.424 642.729 177.954 643.429 178.834C644.13 179.714 644.48 180.711 644.48 181.825C644.48 182.777 644.229 183.639 643.726 184.412C643.241 185.166 642.531 185.768 641.597 186.217C640.663 186.648 639.576 186.864 638.336 186.864H630.846V168.137H637.986C639.262 168.137 640.357 168.352 641.274 168.783C642.19 169.215 642.881 169.798 643.348 170.535C643.815 171.253 644.049 172.062 644.049 172.96C644.049 174.038 643.761 174.936 643.187 175.654C642.612 176.373 641.839 176.903 640.869 177.244ZM633.917 176.005H637.717C638.723 176.005 639.504 175.78 640.061 175.331C640.636 174.864 640.923 174.199 640.923 173.337C640.923 172.493 640.636 171.837 640.061 171.37C639.504 170.885 638.723 170.643 637.717 170.643H633.917V176.005ZM638.067 184.358C639.109 184.358 639.926 184.106 640.519 183.603C641.112 183.1 641.408 182.4 641.408 181.502C641.408 180.585 641.094 179.858 640.465 179.319C639.836 178.78 639.001 178.511 637.959 178.511H633.917V184.358H638.067ZM647.209 179.373C647.209 177.882 647.514 176.562 648.125 175.412C648.754 174.262 649.598 173.373 650.658 172.744C651.735 172.098 652.921 171.774 654.214 171.774C655.382 171.774 656.397 172.008 657.259 172.475C658.139 172.924 658.84 173.49 659.361 174.172V172.017H662.46V186.864H659.361V184.654C658.84 185.355 658.13 185.939 657.232 186.406C656.334 186.873 655.31 187.106 654.161 187.106C652.885 187.106 651.718 186.783 650.658 186.136C649.598 185.471 648.754 184.555 648.125 183.388C647.514 182.202 647.209 180.864 647.209 179.373ZM659.361 179.427C659.361 178.403 659.145 177.514 658.714 176.759C658.301 176.005 657.753 175.43 657.071 175.035C656.388 174.639 655.652 174.442 654.861 174.442C654.071 174.442 653.334 174.639 652.652 175.035C651.969 175.412 651.412 175.978 650.981 176.732C650.568 177.469 650.361 178.349 650.361 179.373C650.361 180.397 650.568 181.295 650.981 182.067C651.412 182.84 651.969 183.433 652.652 183.846C653.352 184.241 654.089 184.439 654.861 184.439C655.652 184.439 656.388 184.241 657.071 183.846C657.753 183.451 658.301 182.876 658.714 182.121C659.145 181.349 659.361 180.451 659.361 179.427ZM665.885 179.427C665.885 177.9 666.19 176.562 666.801 175.412C667.43 174.244 668.292 173.346 669.388 172.717C670.484 172.089 671.741 171.774 673.16 171.774C674.956 171.774 676.438 172.205 677.606 173.068C678.792 173.912 679.591 175.125 680.004 176.705H676.69C676.421 175.969 675.989 175.394 675.397 174.981C674.804 174.568 674.058 174.361 673.16 174.361C671.903 174.361 670.897 174.81 670.142 175.708C669.406 176.589 669.038 177.828 669.038 179.427C669.038 181.026 669.406 182.274 670.142 183.172C670.897 184.07 671.903 184.519 673.16 184.519C674.939 184.519 676.115 183.738 676.69 182.175H680.004C679.573 183.684 678.765 184.888 677.579 185.786C676.394 186.666 674.921 187.106 673.16 187.106C671.741 187.106 670.484 186.792 669.388 186.163C668.292 185.516 667.43 184.618 666.801 183.469C666.19 182.301 665.885 180.954 665.885 179.427ZM689.354 179.454L696.198 186.864H692.049L686.552 180.478V186.864H683.48V166.924H686.552V178.511L691.941 172.017H696.198L689.354 179.454ZM710.212 175.816V178.403H699.138V175.816H710.212ZM728.437 172.017V186.864H725.365V185.112C724.88 185.723 724.242 186.208 723.452 186.567C722.679 186.909 721.853 187.079 720.973 187.079C719.805 187.079 718.754 186.837 717.82 186.352C716.904 185.867 716.176 185.148 715.638 184.196C715.117 183.244 714.856 182.094 714.856 180.747V172.017H717.901V180.289C717.901 181.618 718.233 182.642 718.898 183.361C719.563 184.061 720.47 184.412 721.619 184.412C722.769 184.412 723.676 184.061 724.341 183.361C725.023 182.642 725.365 181.618 725.365 180.289V172.017H728.437ZM735.976 174.199C736.497 173.517 737.206 172.942 738.104 172.475C739.003 172.008 740.018 171.774 741.149 171.774C742.443 171.774 743.619 172.098 744.679 172.744C745.757 173.373 746.601 174.262 747.212 175.412C747.823 176.562 748.128 177.882 748.128 179.373C748.128 180.864 747.823 182.202 747.212 183.388C746.601 184.555 745.757 185.471 744.679 186.136C743.619 186.783 742.443 187.106 741.149 187.106C740.018 187.106 739.012 186.882 738.131 186.433C737.251 185.965 736.533 185.391 735.976 184.708V193.923H732.904V172.017H735.976V174.199ZM745.002 179.373C745.002 178.349 744.787 177.469 744.356 176.732C743.943 175.978 743.386 175.412 742.685 175.035C742.002 174.639 741.266 174.442 740.476 174.442C739.703 174.442 738.967 174.639 738.266 175.035C737.583 175.43 737.027 176.005 736.595 176.759C736.182 177.514 735.976 178.403 735.976 179.427C735.976 180.451 736.182 181.349 736.595 182.121C737.027 182.876 737.583 183.451 738.266 183.846C738.967 184.241 739.703 184.439 740.476 184.439C741.266 184.439 742.002 184.241 742.685 183.846C743.386 183.433 743.943 182.84 744.356 182.067C744.787 181.295 745.002 180.397 745.002 179.373Z" fill="#64748B"/>
<rect x="604.649" y="147.609" width="168.672" height="60.509" rx="30.2545" stroke="#CBD5E1" stroke-width="2.07271"/>
<rect x="796.121" y="147.609" width="238.672" height="60.509" rx="30.2545" fill="white"/>
<path d="M846.406 168.137L840.856 186.864H837.38L833.446 172.69L829.269 186.864L825.82 186.891L820.512 168.137H823.772L827.652 183.388L831.856 168.137H835.305L839.212 183.307L843.119 168.137H846.406ZM862.962 179.076C862.962 179.633 862.926 180.136 862.854 180.585H851.51C851.6 181.771 852.04 182.723 852.83 183.442C853.621 184.16 854.591 184.519 855.74 184.519C857.393 184.519 858.561 183.828 859.243 182.445H862.557C862.108 183.81 861.291 184.933 860.105 185.813C858.938 186.675 857.483 187.106 855.74 187.106C854.321 187.106 853.046 186.792 851.914 186.163C850.8 185.516 849.92 184.618 849.273 183.469C848.645 182.301 848.33 180.954 848.33 179.427C848.33 177.9 848.636 176.562 849.246 175.412C849.875 174.244 850.746 173.346 851.86 172.717C852.992 172.089 854.285 171.774 855.74 171.774C857.141 171.774 858.39 172.08 859.486 172.69C860.581 173.301 861.435 174.163 862.045 175.277C862.656 176.373 862.962 177.639 862.962 179.076ZM859.755 178.106C859.737 176.975 859.333 176.068 858.543 175.385C857.752 174.702 856.773 174.361 855.606 174.361C854.546 174.361 853.639 174.702 852.884 175.385C852.13 176.05 851.681 176.957 851.537 178.106H859.755ZM869.471 174.226C869.992 173.508 870.701 172.924 871.599 172.475C872.516 172.008 873.531 171.774 874.644 171.774C875.956 171.774 877.141 172.089 878.201 172.717C879.261 173.346 880.096 174.244 880.707 175.412C881.318 176.562 881.623 177.882 881.623 179.373C881.623 180.864 881.318 182.202 880.707 183.388C880.096 184.555 879.252 185.471 878.174 186.136C877.114 186.783 875.938 187.106 874.644 187.106C873.495 187.106 872.471 186.882 871.573 186.433C870.692 185.983 869.992 185.409 869.471 184.708V186.864H866.399V166.924H869.471V174.226ZM878.497 179.373C878.497 178.349 878.282 177.469 877.851 176.732C877.438 175.978 876.881 175.412 876.18 175.035C875.498 174.639 874.761 174.442 873.971 174.442C873.198 174.442 872.462 174.639 871.761 175.035C871.079 175.43 870.522 176.005 870.091 176.759C869.677 177.514 869.471 178.403 869.471 179.427C869.471 180.451 869.677 181.349 870.091 182.121C870.522 182.876 871.079 183.451 871.761 183.846C872.462 184.241 873.198 184.439 873.971 184.439C874.761 184.439 875.498 184.241 876.18 183.846C876.881 183.433 877.438 182.84 877.851 182.067C878.282 181.295 878.497 180.397 878.497 179.373ZM906.959 186.864L904.642 184.546C903.743 185.445 902.764 186.118 901.705 186.567C900.645 186.998 899.459 187.214 898.148 187.214C896.818 187.214 895.642 186.98 894.618 186.513C893.594 186.046 892.804 185.382 892.247 184.519C891.69 183.639 891.411 182.624 891.411 181.475C891.411 180.181 891.78 179.032 892.516 178.026C893.253 177.002 894.349 176.193 895.804 175.601C895.283 174.972 894.914 174.388 894.699 173.849C894.483 173.292 894.375 172.681 894.375 172.017C894.375 171.191 894.582 170.454 894.995 169.807C895.426 169.161 896.037 168.649 896.827 168.271C897.618 167.894 898.534 167.706 899.576 167.706C900.636 167.706 901.534 167.912 902.27 168.325C903.025 168.721 903.582 169.268 903.941 169.969C904.318 170.67 904.471 171.451 904.399 172.313H901.327C901.345 171.649 901.184 171.137 900.842 170.777C900.501 170.4 900.034 170.211 899.441 170.211C898.848 170.211 898.363 170.391 897.986 170.75C897.627 171.092 897.447 171.514 897.447 172.017C897.447 172.502 897.582 172.987 897.851 173.472C898.139 173.939 898.633 174.55 899.333 175.304L904.291 180.235L906.204 177.083H909.519L907.094 181.232L906.42 182.337L910.974 186.864H906.959ZM898.148 184.6C899.836 184.6 901.327 183.909 902.621 182.525L897.663 177.541C895.543 178.385 894.483 179.66 894.483 181.367C894.483 182.283 894.825 183.055 895.507 183.684C896.19 184.295 897.07 184.6 898.148 184.6ZM940.54 168.137V186.864H937.468V174.038L931.756 186.864H929.627L923.888 174.038V186.864H920.816V168.137H924.13L930.705 182.822L937.253 168.137H940.54ZM951.432 187.106C950.031 187.106 948.764 186.792 947.633 186.163C946.501 185.516 945.612 184.618 944.965 183.469C944.318 182.301 943.995 180.954 943.995 179.427C943.995 177.918 944.327 176.58 944.992 175.412C945.657 174.244 946.564 173.346 947.713 172.717C948.863 172.089 950.148 171.774 951.567 171.774C952.986 171.774 954.27 172.089 955.42 172.717C956.569 173.346 957.477 174.244 958.141 175.412C958.806 176.58 959.138 177.918 959.138 179.427C959.138 180.936 958.797 182.274 958.114 183.442C957.432 184.609 956.498 185.516 955.312 186.163C954.144 186.792 952.851 187.106 951.432 187.106ZM951.432 184.439C952.222 184.439 952.959 184.25 953.641 183.873C954.342 183.495 954.908 182.93 955.339 182.175C955.77 181.421 955.986 180.505 955.986 179.427C955.986 178.349 955.779 177.442 955.366 176.705C954.953 175.951 954.405 175.385 953.722 175.008C953.04 174.631 952.303 174.442 951.513 174.442C950.722 174.442 949.986 174.631 949.303 175.008C948.639 175.385 948.109 175.951 947.713 176.705C947.318 177.442 947.121 178.349 947.121 179.427C947.121 181.026 947.525 182.265 948.333 183.145C949.16 184.007 950.192 184.439 951.432 184.439ZM965.661 174.226C966.182 173.508 966.892 172.924 967.79 172.475C968.706 172.008 969.721 171.774 970.835 171.774C972.146 171.774 973.332 172.089 974.391 172.717C975.451 173.346 976.287 174.244 976.897 175.412C977.508 176.562 977.813 177.882 977.813 179.373C977.813 180.864 977.508 182.202 976.897 183.388C976.287 184.555 975.442 185.471 974.364 186.136C973.305 186.783 972.128 187.106 970.835 187.106C969.685 187.106 968.661 186.882 967.763 186.433C966.883 185.983 966.182 185.409 965.661 184.708V186.864H962.589V166.924H965.661V174.226ZM974.688 179.373C974.688 178.349 974.472 177.469 974.041 176.732C973.628 175.978 973.071 175.412 972.37 175.035C971.688 174.639 970.951 174.442 970.161 174.442C969.389 174.442 968.652 174.639 967.951 175.035C967.269 175.43 966.712 176.005 966.281 176.759C965.868 177.514 965.661 178.403 965.661 179.427C965.661 180.451 965.868 181.349 966.281 182.121C966.712 182.876 967.269 183.451 967.951 183.846C968.652 184.241 969.389 184.439 970.161 184.439C970.951 184.439 971.688 184.241 972.37 183.846C973.071 183.433 973.628 182.84 974.041 182.067C974.472 181.295 974.688 180.397 974.688 179.373ZM982.828 170.05C982.272 170.05 981.805 169.861 981.427 169.484C981.05 169.107 980.861 168.64 980.861 168.083C980.861 167.526 981.05 167.059 981.427 166.682C981.805 166.304 982.272 166.116 982.828 166.116C983.367 166.116 983.825 166.304 984.203 166.682C984.58 167.059 984.769 167.526 984.769 168.083C984.769 168.64 984.58 169.107 984.203 169.484C983.825 169.861 983.367 170.05 982.828 170.05ZM984.337 172.017V186.864H981.266V172.017H984.337ZM991.857 166.924V186.864H988.785V166.924H991.857ZM1009.91 179.076C1009.91 179.633 1009.88 180.136 1009.8 180.585H998.46C998.55 181.771 998.99 182.723 999.78 183.442C1000.57 184.16 1001.54 184.519 1002.69 184.519C1004.34 184.519 1005.51 183.828 1006.19 182.445H1009.51C1009.06 183.81 1008.24 184.933 1007.06 185.813C1005.89 186.675 1004.43 187.106 1002.69 187.106C1001.27 187.106 999.996 186.792 998.864 186.163C997.75 185.516 996.87 184.618 996.223 183.469C995.595 182.301 995.28 180.954 995.28 179.427C995.28 177.9 995.586 176.562 996.196 175.412C996.825 174.244 997.696 173.346 998.81 172.717C999.942 172.089 1001.24 171.774 1002.69 171.774C1004.09 171.774 1005.34 172.08 1006.44 172.69C1007.53 173.301 1008.38 174.163 1009 175.277C1009.61 176.373 1009.91 177.639 1009.91 179.076ZM1006.7 178.106C1006.69 176.975 1006.28 176.068 1005.49 175.385C1004.7 174.702 1003.72 174.361 1002.56 174.361C1001.5 174.361 1000.59 174.702 999.834 175.385C999.079 176.05 998.63 176.957 998.487 178.106H1006.7Z" fill="#64748B"/>
<rect x="796.121" y="147.609" width="238.672" height="60.509" rx="30.2545" stroke="#CBD5E1" stroke-width="2.07271"/>
<rect x="44.1402" y="450.761" width="111.745" height="62.5817" rx="31.2908" fill="#008CE4"/>
<path d="M85.868 494.447L82.5807 490.89C81.7724 491.124 80.8832 491.241 79.9131 491.241C78.1707 491.241 76.563 490.837 75.09 490.028C73.6349 489.202 72.4763 488.061 71.614 486.606C70.7697 485.133 70.3476 483.481 70.3476 481.648C70.3476 479.816 70.7697 478.172 71.614 476.717C72.4763 475.262 73.6349 474.131 75.09 473.322C76.563 472.496 78.1707 472.083 79.9131 472.083C81.6736 472.083 83.2813 472.496 84.7363 473.322C86.2094 474.131 87.368 475.262 88.2123 476.717C89.0566 478.172 89.4787 479.816 89.4787 481.648C89.4787 483.373 89.1015 484.936 88.347 486.337C87.6105 487.72 86.5866 488.834 85.2752 489.678L89.7751 494.447H85.868ZM73.5002 481.648C73.5002 483.031 73.7696 484.253 74.3085 485.313C74.8654 486.355 75.6289 487.163 76.5989 487.738C77.5689 488.295 78.6737 488.573 79.9131 488.573C81.1526 488.573 82.2574 488.295 83.2274 487.738C84.1974 487.163 84.9519 486.355 85.4908 485.313C86.0477 484.253 86.3261 483.031 86.3261 481.648C86.3261 480.265 86.0477 479.053 85.4908 478.011C84.9519 476.969 84.1974 476.169 83.2274 475.613C82.2574 475.056 81.1526 474.777 79.9131 474.777C78.6737 474.777 77.5689 475.056 76.5989 475.613C75.6289 476.169 74.8654 476.969 74.3085 478.011C73.7696 479.053 73.5002 480.265 73.5002 481.648ZM107.464 491.052L105.147 488.735C104.249 489.633 103.27 490.307 102.21 490.756C101.15 491.187 99.9647 491.402 98.6534 491.402C97.3241 491.402 96.1475 491.169 95.1236 490.702C94.0996 490.235 93.3093 489.57 92.7524 488.708C92.1955 487.828 91.9171 486.813 91.9171 485.663C91.9171 484.37 92.2853 483.22 93.0218 482.214C93.7583 481.19 94.8541 480.382 96.3092 479.789C95.7882 479.16 95.42 478.576 95.2044 478.038C94.9888 477.481 94.8811 476.87 94.8811 476.205C94.8811 475.379 95.0876 474.642 95.5008 473.996C95.9319 473.349 96.5427 472.837 97.3331 472.46C98.1235 472.083 99.0396 471.894 100.081 471.894C101.141 471.894 102.04 472.101 102.776 472.514C103.53 472.909 104.087 473.457 104.447 474.157C104.824 474.858 104.977 475.639 104.905 476.502H101.833C101.851 475.837 101.689 475.325 101.348 474.966C101.007 474.589 100.54 474.4 99.9468 474.4C99.354 474.4 98.869 474.58 98.4917 474.939C98.1324 475.28 97.9528 475.702 97.9528 476.205C97.9528 476.69 98.0875 477.175 98.357 477.66C98.6444 478.127 99.1384 478.738 99.839 479.493L104.797 484.424L106.71 481.271H110.024L107.599 485.421L106.926 486.525L111.479 491.052H107.464ZM98.6534 488.789C100.342 488.789 101.833 488.097 103.126 486.714L98.1684 481.729C96.0487 482.573 94.9888 483.849 94.9888 485.555C94.9888 486.471 95.3301 487.244 96.0128 487.873C96.6954 488.483 97.5756 488.789 98.6534 488.789ZM125.198 487.226H117.357L116.01 491.052H112.803L119.512 472.298H123.069L129.779 491.052H126.545L125.198 487.226ZM124.336 484.72L121.291 476.017L118.219 484.72H124.336Z" fill="white"/>
<rect x="177.649" y="451.798" width="105.672" height="60.509" rx="30.2545" fill="white"/>
<path d="M215.853 472.325V474.831H210.868V491.052H207.796V474.831H202.785V472.325H215.853ZM232.986 483.265C232.986 483.822 232.95 484.325 232.878 484.774H221.534C221.624 485.959 222.064 486.912 222.854 487.63C223.645 488.349 224.615 488.708 225.765 488.708C227.417 488.708 228.585 488.016 229.267 486.633H232.582C232.133 487.998 231.315 489.121 230.13 490.001C228.962 490.864 227.507 491.295 225.765 491.295C224.345 491.295 223.07 490.98 221.938 490.352C220.825 489.705 219.944 488.807 219.298 487.657C218.669 486.489 218.355 485.142 218.355 483.615C218.355 482.088 218.66 480.75 219.271 479.6C219.899 478.433 220.771 477.535 221.884 476.906C223.016 476.277 224.309 475.963 225.765 475.963C227.166 475.963 228.414 476.268 229.51 476.879C230.606 477.49 231.459 478.352 232.07 479.466C232.68 480.561 232.986 481.828 232.986 483.265ZM229.779 482.295C229.761 481.163 229.357 480.256 228.567 479.573C227.776 478.891 226.797 478.55 225.63 478.55C224.57 478.55 223.663 478.891 222.908 479.573C222.154 480.238 221.705 481.145 221.561 482.295H229.779ZM241.812 491.295C240.645 491.295 239.594 491.088 238.66 490.675C237.744 490.244 237.016 489.669 236.477 488.95C235.938 488.214 235.651 487.397 235.615 486.498H238.794C238.848 487.127 239.145 487.657 239.684 488.088C240.241 488.501 240.932 488.708 241.758 488.708C242.621 488.708 243.285 488.546 243.752 488.223C244.237 487.882 244.48 487.45 244.48 486.93C244.48 486.373 244.21 485.959 243.672 485.69C243.151 485.421 242.315 485.124 241.166 484.801C240.052 484.495 239.145 484.199 238.444 483.912C237.744 483.624 237.133 483.184 236.612 482.591C236.109 481.999 235.857 481.217 235.857 480.247C235.857 479.457 236.091 478.738 236.558 478.091C237.025 477.427 237.69 476.906 238.552 476.529C239.432 476.151 240.438 475.963 241.57 475.963C243.258 475.963 244.615 476.394 245.639 477.256C246.68 478.1 247.237 479.259 247.309 480.732H244.237C244.184 480.067 243.914 479.538 243.429 479.142C242.944 478.747 242.288 478.55 241.462 478.55C240.654 478.55 240.034 478.702 239.603 479.008C239.172 479.313 238.956 479.717 238.956 480.22C238.956 480.615 239.1 480.948 239.387 481.217C239.675 481.487 240.025 481.702 240.438 481.864C240.851 482.008 241.462 482.196 242.27 482.43C243.348 482.717 244.228 483.013 244.911 483.319C245.612 483.606 246.213 484.037 246.716 484.612C247.219 485.187 247.48 485.95 247.498 486.903C247.498 487.747 247.264 488.501 246.797 489.166C246.33 489.831 245.666 490.352 244.803 490.729C243.959 491.106 242.962 491.295 241.812 491.295ZM254.815 478.711V486.93C254.815 487.486 254.941 487.891 255.192 488.142C255.462 488.376 255.911 488.492 256.54 488.492H258.426V491.052H256.001C254.618 491.052 253.558 490.729 252.821 490.082C252.085 489.435 251.716 488.385 251.716 486.93V478.711H249.965V476.205H251.716V472.514H254.815V476.205H258.426V478.711H254.815Z" fill="#64748B"/>
<rect x="177.649" y="451.798" width="105.672" height="60.509" rx="30.2545" stroke="#CBD5E1" stroke-width="2.07271"/>
<rect x="306.121" y="451.798" width="115.672" height="60.509" rx="30.2545" fill="white"/>
<path d="M331.019 481.648C331.019 479.816 331.441 478.172 332.285 476.717C333.148 475.262 334.306 474.131 335.761 473.322C337.234 472.496 338.842 472.083 340.585 472.083C342.579 472.083 344.348 472.577 345.893 473.565C347.456 474.535 348.587 475.918 349.288 477.714H345.596C345.111 476.726 344.438 475.99 343.575 475.505C342.713 475.02 341.716 474.777 340.585 474.777C339.345 474.777 338.24 475.056 337.27 475.613C336.3 476.169 335.537 476.969 334.98 478.011C334.441 479.053 334.172 480.265 334.172 481.648C334.172 483.031 334.441 484.244 334.98 485.286C335.537 486.328 336.3 487.136 337.27 487.711C338.24 488.268 339.345 488.546 340.585 488.546C341.716 488.546 342.713 488.304 343.575 487.819C344.438 487.334 345.111 486.597 345.596 485.609H349.288C348.587 487.406 347.456 488.789 345.893 489.759C344.348 490.729 342.579 491.214 340.585 491.214C338.824 491.214 337.216 490.81 335.761 490.001C334.306 489.175 333.148 488.034 332.285 486.579C331.441 485.124 331.019 483.481 331.019 481.648ZM360.977 475.963C362.109 475.963 363.115 476.205 363.995 476.69C364.893 477.175 365.594 477.894 366.097 478.846C366.618 479.798 366.878 480.948 366.878 482.295V491.052H363.833V482.753C363.833 481.424 363.501 480.409 362.837 479.708C362.172 478.99 361.265 478.63 360.115 478.63C358.965 478.63 358.049 478.99 357.367 479.708C356.702 480.409 356.37 481.424 356.37 482.753V491.052H353.298V471.113H356.37V477.93C356.891 477.301 357.546 476.816 358.337 476.475C359.145 476.133 360.025 475.963 360.977 475.963ZM370.187 483.561C370.187 482.07 370.493 480.75 371.103 479.6C371.732 478.451 372.576 477.562 373.636 476.933C374.714 476.286 375.9 475.963 377.193 475.963C378.361 475.963 379.375 476.196 380.238 476.663C381.118 477.112 381.818 477.678 382.339 478.361V476.205H385.438V491.052H382.339V488.843C381.818 489.543 381.109 490.127 380.211 490.594C379.313 491.061 378.289 491.295 377.139 491.295C375.864 491.295 374.696 490.971 373.636 490.325C372.576 489.66 371.732 488.744 371.103 487.576C370.493 486.391 370.187 485.052 370.187 483.561ZM382.339 483.615C382.339 482.591 382.124 481.702 381.693 480.948C381.28 480.193 380.732 479.618 380.049 479.223C379.366 478.828 378.63 478.63 377.84 478.63C377.049 478.63 376.313 478.828 375.63 479.223C374.947 479.6 374.391 480.166 373.959 480.921C373.546 481.657 373.34 482.537 373.34 483.561C373.34 484.585 373.546 485.483 373.959 486.256C374.391 487.028 374.947 487.621 375.63 488.034C376.331 488.429 377.067 488.627 377.84 488.627C378.63 488.627 379.366 488.429 380.049 488.034C380.732 487.639 381.28 487.064 381.693 486.31C382.124 485.537 382.339 484.639 382.339 483.615ZM393.471 478.711V486.93C393.471 487.486 393.597 487.891 393.848 488.142C394.118 488.376 394.567 488.492 395.196 488.492H397.082V491.052H394.657C393.273 491.052 392.214 490.729 391.477 490.082C390.741 489.435 390.372 488.385 390.372 486.93V478.711H388.621V476.205H390.372V472.514H393.471V476.205H397.082V478.711H393.471Z" fill="#64748B"/>
<rect x="306.121" y="451.798" width="115.672" height="60.509" rx="30.2545" stroke="#CBD5E1" stroke-width="2.07271"/>
<rect x="444.593" y="451.798" width="142.672" height="60.509" rx="30.2545" fill="white"/>
<path d="M473.795 488.573H480.127V491.052H470.723V472.325H473.795V488.573ZM484.673 474.238C484.116 474.238 483.649 474.05 483.272 473.672C482.895 473.295 482.706 472.828 482.706 472.271C482.706 471.714 482.895 471.247 483.272 470.87C483.649 470.493 484.116 470.304 484.673 470.304C485.212 470.304 485.67 470.493 486.048 470.87C486.425 471.247 486.613 471.714 486.613 472.271C486.613 472.828 486.425 473.295 486.048 473.672C485.67 474.05 485.212 474.238 484.673 474.238ZM486.182 476.205V491.052H483.11V476.205H486.182ZM493.701 478.415C494.222 477.696 494.932 477.112 495.83 476.663C496.746 476.196 497.761 475.963 498.875 475.963C500.186 475.963 501.372 476.277 502.432 476.906C503.492 477.535 504.327 478.433 504.938 479.6C505.548 480.75 505.854 482.07 505.854 483.561C505.854 485.052 505.548 486.391 504.938 487.576C504.327 488.744 503.483 489.66 502.405 490.325C501.345 490.971 500.168 491.295 498.875 491.295C497.725 491.295 496.701 491.07 495.803 490.621C494.923 490.172 494.222 489.597 493.701 488.897V491.052H490.63V471.113H493.701V478.415ZM502.728 483.561C502.728 482.537 502.513 481.657 502.081 480.921C501.668 480.166 501.111 479.6 500.411 479.223C499.728 478.828 498.992 478.63 498.201 478.63C497.429 478.63 496.692 478.828 495.992 479.223C495.309 479.618 494.752 480.193 494.321 480.948C493.908 481.702 493.701 482.591 493.701 483.615C493.701 484.639 493.908 485.537 494.321 486.31C494.752 487.064 495.309 487.639 495.992 488.034C496.692 488.429 497.429 488.627 498.201 488.627C498.992 488.627 499.728 488.429 500.411 488.034C501.111 487.621 501.668 487.028 502.081 486.256C502.513 485.483 502.728 484.585 502.728 483.561ZM512.378 478.361C512.827 477.606 513.42 477.023 514.156 476.609C514.911 476.178 515.8 475.963 516.824 475.963V479.142H516.042C514.839 479.142 513.923 479.448 513.294 480.058C512.683 480.669 512.378 481.729 512.378 483.238V491.052H509.306V476.205H512.378V478.361ZM519.038 483.561C519.038 482.07 519.343 480.75 519.954 479.6C520.583 478.451 521.427 477.562 522.487 476.933C523.565 476.286 524.75 475.963 526.044 475.963C527.211 475.963 528.226 476.196 529.088 476.663C529.969 477.112 530.669 477.678 531.19 478.361V476.205H534.289V491.052H531.19V488.843C530.669 489.543 529.96 490.127 529.061 490.594C528.163 491.061 527.139 491.295 525.99 491.295C524.714 491.295 523.547 490.971 522.487 490.325C521.427 489.66 520.583 488.744 519.954 487.576C519.343 486.391 519.038 485.052 519.038 483.561ZM531.19 483.615C531.19 482.591 530.975 481.702 530.543 480.948C530.13 480.193 529.582 479.618 528.9 479.223C528.217 478.828 527.481 478.63 526.69 478.63C525.9 478.63 525.163 478.828 524.481 479.223C523.798 479.6 523.241 480.166 522.81 480.921C522.397 481.657 522.19 482.537 522.19 483.561C522.19 484.585 522.397 485.483 522.81 486.256C523.241 487.028 523.798 487.621 524.481 488.034C525.181 488.429 525.918 488.627 526.69 488.627C527.481 488.627 528.217 488.429 528.9 488.034C529.582 487.639 530.13 487.064 530.543 486.31C530.975 485.537 531.19 484.639 531.19 483.615ZM541.81 478.361C542.259 477.606 542.852 477.023 543.588 476.609C544.343 476.178 545.232 475.963 546.256 475.963V479.142H545.474C544.271 479.142 543.355 479.448 542.726 480.058C542.115 480.669 541.81 481.729 541.81 483.238V491.052H538.738V476.205H541.81V478.361ZM562.859 476.205L553.751 498.031H550.572L553.59 490.81L547.742 476.205H551.164L555.341 487.522L559.679 476.205H562.859Z" fill="#64748B"/>
<rect x="444.593" y="451.798" width="142.672" height="60.509" rx="30.2545" stroke="#CBD5E1" stroke-width="2.07271"/>
<rect x="610.065" y="451.798" width="212.672" height="60.509" rx="30.2545" fill="white"/>
<path d="M660.699 472.325L655.148 491.052H651.672L647.738 476.879L643.561 491.052L640.112 491.079L634.804 472.325H638.065L641.945 487.576L646.148 472.325H649.597L653.504 487.495L657.411 472.325H660.699ZM671.326 475.963C672.458 475.963 673.464 476.205 674.344 476.69C675.242 477.175 675.943 477.894 676.446 478.846C676.966 479.798 677.227 480.948 677.227 482.295V491.052H674.182V482.753C674.182 481.424 673.85 480.409 673.185 479.708C672.521 478.99 671.613 478.63 670.464 478.63C669.314 478.63 668.398 478.99 667.715 479.708C667.051 480.409 666.718 481.424 666.718 482.753V491.052H663.647V471.113H666.718V477.93C667.239 477.301 667.895 476.816 668.685 476.475C669.494 476.133 670.374 475.963 671.326 475.963ZM683.123 474.238C682.566 474.238 682.099 474.05 681.721 473.672C681.344 473.295 681.156 472.828 681.156 472.271C681.156 471.714 681.344 471.247 681.721 470.87C682.099 470.493 682.566 470.304 683.123 470.304C683.661 470.304 684.119 470.493 684.497 470.87C684.874 471.247 685.063 471.714 685.063 472.271C685.063 472.828 684.874 473.295 684.497 473.672C684.119 474.05 683.661 474.238 683.123 474.238ZM684.631 476.205V491.052H681.56V476.205H684.631ZM692.663 478.711V486.93C692.663 487.486 692.788 487.891 693.04 488.142C693.309 488.376 693.758 488.492 694.387 488.492H696.273V491.052H693.848C692.465 491.052 691.405 490.729 690.669 490.082C689.932 489.435 689.564 488.385 689.564 486.93V478.711H687.813V476.205H689.564V472.514H692.663V476.205H696.273V478.711H692.663ZM713.126 483.265C713.126 483.822 713.09 484.325 713.019 484.774H701.675C701.764 485.959 702.205 486.912 702.995 487.63C703.785 488.349 704.755 488.708 705.905 488.708C707.558 488.708 708.725 488.016 709.408 486.633H712.722C712.273 487.998 711.456 489.121 710.27 490.001C709.103 490.864 707.647 491.295 705.905 491.295C704.486 491.295 703.21 490.98 702.079 490.352C700.965 489.705 700.085 488.807 699.438 487.657C698.809 486.489 698.495 485.142 698.495 483.615C698.495 482.088 698.8 480.75 699.411 479.6C700.04 478.433 700.911 477.535 702.025 476.906C703.157 476.277 704.45 475.963 705.905 475.963C707.306 475.963 708.555 476.268 709.65 476.879C710.746 477.49 711.599 478.352 712.21 479.466C712.821 480.561 713.126 481.828 713.126 483.265ZM709.92 482.295C709.902 481.163 709.498 480.256 708.707 479.573C707.917 478.891 706.938 478.55 705.77 478.55C704.71 478.55 703.803 478.891 703.049 479.573C702.294 480.238 701.845 481.145 701.702 482.295H709.92ZM719.636 478.415C720.156 477.696 720.866 477.112 721.764 476.663C722.68 476.196 723.695 475.963 724.809 475.963C726.12 475.963 727.306 476.277 728.366 476.906C729.426 477.535 730.261 478.433 730.872 479.6C731.482 480.75 731.788 482.07 731.788 483.561C731.788 485.052 731.482 486.391 730.872 487.576C730.261 488.744 729.417 489.66 728.339 490.325C727.279 490.971 726.102 491.295 724.809 491.295C723.659 491.295 722.635 491.07 721.737 490.621C720.857 490.172 720.156 489.597 719.636 488.897V491.052H716.564V471.113H719.636V478.415ZM728.662 483.561C728.662 482.537 728.447 481.657 728.016 480.921C727.602 480.166 727.045 479.6 726.345 479.223C725.662 478.828 724.926 478.63 724.135 478.63C723.363 478.63 722.626 478.828 721.926 479.223C721.243 479.618 720.686 480.193 720.255 480.948C719.842 481.702 719.636 482.591 719.636 483.615C719.636 484.639 719.842 485.537 720.255 486.31C720.686 487.064 721.243 487.639 721.926 488.034C722.626 488.429 723.363 488.627 724.135 488.627C724.926 488.627 725.662 488.429 726.345 488.034C727.045 487.621 727.602 487.028 728.016 486.256C728.447 485.483 728.662 484.585 728.662 483.561ZM741.68 491.295C740.279 491.295 739.012 490.98 737.881 490.352C736.749 489.705 735.86 488.807 735.213 487.657C734.566 486.489 734.243 485.142 734.243 483.615C734.243 482.106 734.575 480.768 735.24 479.6C735.905 478.433 736.812 477.535 737.962 476.906C739.111 476.277 740.396 475.963 741.815 475.963C743.234 475.963 744.518 476.277 745.668 476.906C746.818 477.535 747.725 478.433 748.389 479.6C749.054 480.768 749.386 482.106 749.386 483.615C749.386 485.124 749.045 486.462 748.362 487.63C747.68 488.798 746.746 489.705 745.56 490.352C744.392 490.98 743.099 491.295 741.68 491.295ZM741.68 488.627C742.47 488.627 743.207 488.438 743.889 488.061C744.59 487.684 745.156 487.118 745.587 486.364C746.018 485.609 746.234 484.693 746.234 483.615C746.234 482.537 746.027 481.63 745.614 480.894C745.201 480.139 744.653 479.573 743.97 479.196C743.288 478.819 742.551 478.63 741.761 478.63C740.97 478.63 740.234 478.819 739.551 479.196C738.887 479.573 738.357 480.139 737.962 480.894C737.566 481.63 737.369 482.537 737.369 483.615C737.369 485.214 737.773 486.453 738.581 487.334C739.408 488.196 740.44 488.627 741.68 488.627ZM751.814 483.561C751.814 482.07 752.119 480.75 752.73 479.6C753.358 478.451 754.203 477.562 755.263 476.933C756.34 476.286 757.526 475.963 758.819 475.963C759.987 475.963 761.002 476.196 761.864 476.663C762.744 477.112 763.445 477.678 763.966 478.361V476.205H767.065V491.052H763.966V488.843C763.445 489.543 762.735 490.127 761.837 490.594C760.939 491.061 759.915 491.295 758.765 491.295C757.49 491.295 756.322 490.971 755.263 490.325C754.203 489.66 753.358 488.744 752.73 487.576C752.119 486.391 751.814 485.052 751.814 483.561ZM763.966 483.615C763.966 482.591 763.75 481.702 763.319 480.948C762.906 480.193 762.358 479.618 761.675 479.223C760.993 478.828 760.256 478.63 759.466 478.63C758.676 478.63 757.939 478.828 757.256 479.223C756.574 479.6 756.017 480.166 755.586 480.921C755.173 481.657 754.966 482.537 754.966 483.561C754.966 484.585 755.173 485.483 755.586 486.256C756.017 487.028 756.574 487.621 757.256 488.034C757.957 488.429 758.694 488.627 759.466 488.627C760.256 488.627 760.993 488.429 761.675 488.034C762.358 487.639 762.906 487.064 763.319 486.31C763.75 485.537 763.966 484.639 763.966 483.615ZM774.585 478.361C775.035 477.606 775.627 477.023 776.364 476.609C777.118 476.178 778.007 475.963 779.031 475.963V479.142H778.25C777.046 479.142 776.13 479.448 775.502 480.058C774.891 480.669 774.585 481.729 774.585 483.238V491.052H771.514V476.205H774.585V478.361ZM781.246 483.561C781.246 482.07 781.551 480.75 782.162 479.6C782.79 478.451 783.635 477.562 784.695 476.933C785.772 476.286 786.967 475.963 788.278 475.963C789.248 475.963 790.2 476.178 791.134 476.609C792.087 477.023 792.841 477.58 793.398 478.28V471.113H796.497V491.052H793.398V488.816C792.895 489.534 792.194 490.127 791.296 490.594C790.416 491.061 789.401 491.295 788.251 491.295C786.958 491.295 785.772 490.971 784.695 490.325C783.635 489.66 782.79 488.744 782.162 487.576C781.551 486.391 781.246 485.052 781.246 483.561ZM793.398 483.615C793.398 482.591 793.182 481.702 792.751 480.948C792.338 480.193 791.79 479.618 791.108 479.223C790.425 478.828 789.688 478.63 788.898 478.63C788.108 478.63 787.371 478.828 786.689 479.223C786.006 479.6 785.449 480.166 785.018 480.921C784.605 481.657 784.398 482.537 784.398 483.561C784.398 484.585 784.605 485.483 785.018 486.256C785.449 487.028 786.006 487.621 786.689 488.034C787.389 488.429 788.126 488.627 788.898 488.627C789.688 488.627 790.425 488.429 791.108 488.034C791.79 487.639 792.338 487.064 792.751 486.31C793.182 485.537 793.398 484.639 793.398 483.615Z" fill="#64748B"/>
<rect x="610.065" y="451.798" width="212.672" height="60.509" rx="30.2545" stroke="#CBD5E1" stroke-width="2.07271"/>
<rect x="845.537" y="451.798" width="209.672" height="60.509" rx="30.2545" fill="white"/>
<path d="M887.105 491.052H884.033L874.791 477.068V491.052H871.719V472.298H874.791L884.033 486.256V472.298H887.105V491.052ZM901.281 491.052L896.969 483.561H894.625V491.052H891.553V472.325H898.02C899.457 472.325 900.67 472.577 901.658 473.08C902.664 473.583 903.409 474.256 903.894 475.101C904.397 475.945 904.649 476.888 904.649 477.93C904.649 479.151 904.289 480.265 903.571 481.271C902.87 482.259 901.784 482.933 900.311 483.292L904.945 491.052H901.281ZM894.625 481.109H898.02C899.17 481.109 900.032 480.822 900.607 480.247C901.2 479.672 901.496 478.9 901.496 477.93C901.496 476.96 901.209 476.205 900.634 475.666C900.059 475.11 899.188 474.831 898.02 474.831H894.625V481.109ZM912.065 472.325V491.052H908.993V472.325H912.065ZM915.488 481.648C915.488 479.816 915.91 478.172 916.755 476.717C917.617 475.262 918.776 474.131 920.231 473.322C921.704 472.496 923.311 472.083 925.054 472.083C927.048 472.083 928.817 472.577 930.362 473.565C931.925 474.535 933.056 475.918 933.757 477.714H930.066C929.581 476.726 928.907 475.99 928.045 475.505C927.182 475.02 926.185 474.777 925.054 474.777C923.814 474.777 922.71 475.056 921.739 475.613C920.769 476.169 920.006 476.969 919.449 478.011C918.91 479.053 918.641 480.265 918.641 481.648C918.641 483.031 918.91 484.244 919.449 485.286C920.006 486.328 920.769 487.136 921.739 487.711C922.71 488.268 923.814 488.546 925.054 488.546C926.185 488.546 927.182 488.304 928.045 487.819C928.907 487.334 929.581 486.597 930.066 485.609H933.757C933.056 487.406 931.925 488.789 930.362 489.759C928.817 490.729 927.048 491.214 925.054 491.214C923.293 491.214 921.686 490.81 920.231 490.001C918.776 489.175 917.617 488.034 916.755 486.579C915.91 485.124 915.488 483.481 915.488 481.648ZM952.722 472.325V491.052H949.65V482.861H940.839V491.052H937.767V472.325H940.839V480.355H949.65V472.325H952.722ZM984.318 472.325V491.052H981.246V478.226L975.534 491.052H973.405L967.666 478.226V491.052H964.594V472.325H967.908L974.483 487.01L981.031 472.325H984.318ZM991.842 474.804V480.301H998.309V482.807H991.842V488.546H999.117V491.052H988.77V472.298H999.117V474.804H991.842ZM1006.39 474.804V480.301H1012.85V482.807H1006.39V488.546H1013.66V491.052H1003.31V472.298H1013.66V474.804H1006.39ZM1029.96 472.325V474.831H1024.97V491.052H1021.9V474.831H1016.89V472.325H1029.96Z" fill="#64748B"/>
<rect x="845.537" y="451.798" width="209.672" height="60.509" rx="30.2545" stroke="#CBD5E1" stroke-width="2.07271"/>
<path d="M41.3514 6.35615C41.3514 2.84575 44.1971 0 47.7075 0H304.295C307.806 0 310.651 2.84574 310.651 6.35614V68.1803C310.651 71.6907 307.806 74.5365 304.295 74.5365H47.7075C44.1971 74.5365 41.3514 71.6908 41.3514 68.1804V6.35615Z" fill="#007EF2"/>
<path d="M113.417 28.4202V31.9034H108.688V46.2682H104.341V31.9034H99.6115V28.4202H113.417ZM128.972 38.946C128.972 39.3528 128.947 39.7765 128.896 40.2172H119.057C119.125 41.0986 119.404 41.7766 119.896 42.2512C120.404 42.7088 121.023 42.9376 121.752 42.9376C122.837 42.9376 123.591 42.48 124.015 41.5647H128.642C128.405 42.4969 127.972 43.336 127.345 44.0817C126.735 44.8275 125.964 45.4123 125.032 45.836C124.099 46.2598 123.057 46.4716 121.904 46.4716C120.514 46.4716 119.277 46.175 118.192 45.5818C117.108 44.9885 116.26 44.1411 115.65 43.0393C115.04 41.9376 114.735 40.6494 114.735 39.1748C114.735 37.7002 115.031 36.412 115.624 35.3103C116.235 34.2085 117.082 33.361 118.167 32.7678C119.252 32.1746 120.497 31.8779 121.904 31.8779C123.277 31.8779 124.498 32.1661 125.565 32.7424C126.633 33.3187 127.464 34.1407 128.057 35.2086C128.667 36.2764 128.972 37.5222 128.972 38.946ZM124.523 37.8019C124.523 37.0561 124.269 36.4628 123.76 36.0222C123.252 35.5815 122.616 35.3611 121.853 35.3611C121.125 35.3611 120.506 35.573 119.997 35.9967C119.506 36.4205 119.201 37.0222 119.082 37.8019H124.523ZM130.401 39.1748C130.401 37.7002 130.698 36.412 131.291 35.3103C131.902 34.2085 132.741 33.361 133.808 32.7678C134.893 32.1746 136.13 31.8779 137.52 31.8779C139.3 31.8779 140.783 32.3441 141.97 33.2763C143.173 34.2085 143.961 35.5221 144.334 37.2171H139.707C139.317 36.1323 138.563 35.5899 137.444 35.5899C136.647 35.5899 136.012 35.9035 135.537 36.5306C135.063 37.1408 134.825 38.0222 134.825 39.1748C134.825 40.3274 135.063 41.2172 135.537 41.8444C136.012 42.4546 136.647 42.7597 137.444 42.7597C138.563 42.7597 139.317 42.2173 139.707 41.1325H144.334C143.961 42.7936 143.173 44.0987 141.97 45.0479C140.766 45.9971 139.283 46.4716 137.52 46.4716C136.13 46.4716 134.893 46.175 133.808 45.5818C132.741 44.9885 131.902 44.1411 131.291 43.0393C130.698 41.9376 130.401 40.6494 130.401 39.1748ZM155.38 31.9288C157.007 31.9288 158.313 32.4712 159.296 33.556C160.279 34.6238 160.77 36.0984 160.77 37.9798V46.2682H156.448V38.5646C156.448 37.6154 156.202 36.8781 155.711 36.3527C155.219 35.8272 154.558 35.5645 153.728 35.5645C152.897 35.5645 152.236 35.8272 151.745 36.3527C151.253 36.8781 151.007 37.6154 151.007 38.5646V46.2682H146.66V27.4541H151.007V33.9882C151.448 33.361 152.05 32.861 152.812 32.4881C153.575 32.1152 154.431 31.9288 155.38 31.9288ZM172.436 31.9288C174.097 31.9288 175.419 32.4712 176.402 33.556C177.402 34.6238 177.902 36.0984 177.902 37.9798V46.2682H173.58V38.5646C173.58 37.6154 173.334 36.8781 172.843 36.3527C172.351 35.8272 171.69 35.5645 170.859 35.5645C170.029 35.5645 169.368 35.8272 168.876 36.3527C168.385 36.8781 168.139 37.6154 168.139 38.5646V46.2682H163.791V32.0813H168.139V33.9628C168.58 33.3356 169.173 32.8441 169.919 32.4881C170.665 32.1152 171.504 31.9288 172.436 31.9288ZM187.381 46.4716C185.991 46.4716 184.737 46.175 183.618 45.5818C182.517 44.9885 181.644 44.1411 181 43.0393C180.372 41.9376 180.059 40.6494 180.059 39.1748C180.059 37.7171 180.381 36.4374 181.025 35.3357C181.669 34.217 182.55 33.361 183.669 32.7678C184.788 32.1746 186.042 31.8779 187.432 31.8779C188.822 31.8779 190.076 32.1746 191.195 32.7678C192.313 33.361 193.195 34.217 193.839 35.3357C194.483 36.4374 194.805 37.7171 194.805 39.1748C194.805 40.6325 194.475 41.9206 193.813 43.0393C193.169 44.1411 192.28 44.9885 191.144 45.5818C190.025 46.175 188.771 46.4716 187.381 46.4716ZM187.381 42.7088C188.212 42.7088 188.915 42.4037 189.491 41.7935C190.085 41.1833 190.381 40.3104 190.381 39.1748C190.381 38.0392 190.093 37.1663 189.517 36.5561C188.957 35.9459 188.262 35.6408 187.432 35.6408C186.584 35.6408 185.881 35.9459 185.322 36.5561C184.762 37.1493 184.483 38.0222 184.483 39.1748C184.483 40.3104 184.754 41.1833 185.296 41.7935C185.856 42.4037 186.551 42.7088 187.381 42.7088ZM201.459 27.4541V46.2682H197.112V27.4541H201.459ZM211.068 46.4716C209.678 46.4716 208.423 46.175 207.305 45.5818C206.203 44.9885 205.33 44.1411 204.686 43.0393C204.059 41.9376 203.745 40.6494 203.745 39.1748C203.745 37.7171 204.067 36.4374 204.711 35.3357C205.356 34.217 206.237 33.361 207.356 32.7678C208.474 32.1746 209.729 31.8779 211.118 31.8779C212.508 31.8779 213.763 32.1746 214.881 32.7678C216 33.361 216.881 34.217 217.525 35.3357C218.17 36.4374 218.492 37.7171 218.492 39.1748C218.492 40.6325 218.161 41.9206 217.5 43.0393C216.856 44.1411 215.966 44.9885 214.83 45.5818C213.712 46.175 212.458 46.4716 211.068 46.4716ZM211.068 42.7088C211.898 42.7088 212.602 42.4037 213.178 41.7935C213.771 41.1833 214.068 40.3104 214.068 39.1748C214.068 38.0392 213.78 37.1663 213.203 36.5561C212.644 35.9459 211.949 35.6408 211.118 35.6408C210.271 35.6408 209.568 35.9459 209.008 36.5561C208.449 37.1493 208.169 38.0222 208.169 39.1748C208.169 40.3104 208.44 41.1833 208.983 41.7935C209.542 42.4037 210.237 42.7088 211.068 42.7088ZM226.188 31.8779C227.188 31.8779 228.061 32.0813 228.807 32.4881C229.57 32.8949 230.154 33.4288 230.561 34.0899V32.0813H234.909V46.2428C234.909 47.548 234.646 48.726 234.121 49.7768C233.612 50.8447 232.824 51.6922 231.756 52.3193C230.705 52.9464 229.392 53.26 227.815 53.26C225.714 53.26 224.01 52.76 222.705 51.76C221.4 50.7769 220.654 49.4378 220.468 47.7429H224.764C224.9 48.2853 225.222 48.709 225.73 49.0141C226.239 49.3361 226.866 49.4972 227.612 49.4972C228.51 49.4972 229.222 49.2344 229.748 48.709C230.29 48.2005 230.561 47.3785 230.561 46.2428V44.2343C230.137 44.8953 229.553 45.4377 228.807 45.8615C228.061 46.2682 227.188 46.4716 226.188 46.4716C225.019 46.4716 223.959 46.175 223.01 45.5818C222.061 44.9716 221.307 44.1156 220.747 43.0139C220.205 41.8952 219.934 40.607 219.934 39.1494C219.934 37.6917 220.205 36.412 220.747 35.3103C221.307 34.2085 222.061 33.361 223.01 32.7678C223.959 32.1746 225.019 31.8779 226.188 31.8779ZM230.561 39.1748C230.561 38.09 230.256 37.2341 229.646 36.6069C229.053 35.9798 228.324 35.6662 227.459 35.6662C226.595 35.6662 225.858 35.9798 225.247 36.6069C224.654 37.2171 224.358 38.0646 224.358 39.1494C224.358 40.2342 224.654 41.0986 225.247 41.7427C225.858 42.3698 226.595 42.6834 227.459 42.6834C228.324 42.6834 229.053 42.3698 229.646 41.7427C230.256 41.1155 230.561 40.2596 230.561 39.1748ZM252.546 32.0813L243.647 53.0058H238.969L242.224 45.7852L236.452 32.0813H241.308L244.588 40.9545L247.842 32.0813H252.546Z" fill="white"/>
<rect x="45.9707" y="747.035" width="231.745" height="62.5817" rx="31.2908" fill="#008CE4"/>
<path d="M74.503 783.15C76.2275 781.659 77.5837 780.437 78.5717 779.485C79.5777 778.515 80.413 777.509 81.0776 776.467C81.7423 775.425 82.0746 774.384 82.0746 773.342C82.0746 772.264 81.8141 771.42 81.2932 770.809C80.7902 770.198 79.9908 769.893 78.895 769.893C77.8352 769.893 77.0089 770.234 76.4161 770.917C75.8412 771.581 75.5359 772.479 75.4999 773.611H72.536C72.5899 771.563 73.2006 770.001 74.3682 768.923C75.5538 767.827 77.0538 767.279 78.8681 767.279C80.8261 767.279 82.353 767.818 83.4488 768.896C84.5625 769.974 85.1194 771.411 85.1194 773.207C85.1194 774.5 84.7871 775.749 84.1224 776.952C83.4757 778.138 82.6943 779.207 81.7782 780.159C80.88 781.093 79.7303 782.18 78.3292 783.419L77.1167 784.497H85.6583V787.057H72.5629V784.82L74.503 783.15ZM88.3941 783.231V780.913L97.4477 767.926H101.166V780.563H103.672V783.231H101.166V787.326H98.1483V783.231H88.3941ZM98.283 771.051L91.9239 780.563H98.283V771.051ZM117.006 761.89L109.677 792.042H106.659L113.961 761.89H117.006ZM133.336 770.054L125.845 787.326H122.747L130.318 770.378H120.349V767.764H133.336V770.054ZM150.368 787.515C149.111 787.515 147.979 787.299 146.973 786.868C145.967 786.419 145.177 785.79 144.602 784.982C144.027 784.174 143.74 783.231 143.74 782.153H147.027C147.099 782.961 147.413 783.626 147.97 784.147C148.545 784.668 149.344 784.928 150.368 784.928C151.428 784.928 152.255 784.677 152.847 784.174C153.44 783.653 153.736 782.988 153.736 782.18C153.736 781.551 153.548 781.039 153.171 780.644C152.811 780.249 152.353 779.943 151.796 779.728C151.258 779.512 150.503 779.279 149.533 779.027C148.312 778.704 147.315 778.38 146.542 778.057C145.788 777.716 145.141 777.195 144.602 776.494C144.063 775.794 143.794 774.86 143.794 773.692C143.794 772.614 144.063 771.671 144.602 770.863C145.141 770.054 145.895 769.435 146.865 769.004C147.835 768.572 148.958 768.357 150.234 768.357C152.048 768.357 153.53 768.815 154.68 769.731C155.847 770.629 156.494 771.869 156.62 773.45H153.225C153.171 772.767 152.847 772.183 152.255 771.698C151.662 771.213 150.88 770.971 149.91 770.971C149.03 770.971 148.312 771.195 147.755 771.644C147.198 772.093 146.919 772.74 146.919 773.584C146.919 774.159 147.09 774.635 147.431 775.012C147.791 775.372 148.24 775.659 148.779 775.875C149.317 776.09 150.054 776.324 150.988 776.575C152.228 776.916 153.234 777.258 154.006 777.599C154.796 777.94 155.461 778.47 156 779.189C156.557 779.889 156.835 780.832 156.835 782.018C156.835 782.97 156.575 783.868 156.054 784.713C155.551 785.557 154.805 786.24 153.817 786.76C152.847 787.263 151.698 787.515 150.368 787.515ZM174.32 772.479V787.326H171.248V785.575C170.763 786.186 170.125 786.671 169.335 787.03C168.563 787.371 167.736 787.542 166.856 787.542C165.688 787.542 164.638 787.299 163.704 786.814C162.787 786.329 162.06 785.611 161.521 784.659C161 783.707 160.74 782.557 160.74 781.21V772.479H163.784V780.752C163.784 782.081 164.117 783.105 164.781 783.823C165.446 784.524 166.353 784.874 167.503 784.874C168.652 784.874 169.56 784.524 170.224 783.823C170.907 783.105 171.248 782.081 171.248 780.752V772.479H174.32ZM181.859 774.662C182.38 773.979 183.09 773.405 183.988 772.938C184.886 772.47 185.901 772.237 187.033 772.237C188.326 772.237 189.503 772.56 190.562 773.207C191.64 773.836 192.485 774.725 193.095 775.875C193.706 777.024 194.011 778.345 194.011 779.836C194.011 781.326 193.706 782.665 193.095 783.85C192.485 785.018 191.64 785.934 190.562 786.599C189.503 787.245 188.326 787.569 187.033 787.569C185.901 787.569 184.895 787.344 184.015 786.895C183.135 786.428 182.416 785.853 181.859 785.171V794.386H178.787V772.479H181.859V774.662ZM190.886 779.836C190.886 778.812 190.67 777.931 190.239 777.195C189.826 776.44 189.269 775.875 188.569 775.497C187.886 775.102 187.149 774.905 186.359 774.905C185.587 774.905 184.85 775.102 184.15 775.497C183.467 775.893 182.91 776.467 182.479 777.222C182.066 777.976 181.859 778.865 181.859 779.889C181.859 780.913 182.066 781.812 182.479 782.584C182.91 783.338 183.467 783.913 184.15 784.308C184.85 784.704 185.587 784.901 186.359 784.901C187.149 784.901 187.886 784.704 188.569 784.308C189.269 783.895 189.826 783.302 190.239 782.53C190.67 781.758 190.886 780.859 190.886 779.836ZM200.535 774.662C201.056 773.979 201.766 773.405 202.664 772.938C203.562 772.47 204.577 772.237 205.709 772.237C207.002 772.237 208.179 772.56 209.239 773.207C210.317 773.836 211.161 774.725 211.772 775.875C212.382 777.024 212.688 778.345 212.688 779.836C212.688 781.326 212.382 782.665 211.772 783.85C211.161 785.018 210.317 785.934 209.239 786.599C208.179 787.245 207.002 787.569 205.709 787.569C204.577 787.569 203.571 787.344 202.691 786.895C201.811 786.428 201.092 785.853 200.535 785.171V794.386H197.464V772.479H200.535V774.662ZM209.562 779.836C209.562 778.812 209.347 777.931 208.915 777.195C208.502 776.44 207.945 775.875 207.245 775.497C206.562 775.102 205.826 774.905 205.035 774.905C204.263 774.905 203.526 775.102 202.826 775.497C202.143 775.893 201.586 776.467 201.155 777.222C200.742 777.976 200.535 778.865 200.535 779.889C200.535 780.913 200.742 781.812 201.155 782.584C201.586 783.338 202.143 783.913 202.826 784.308C203.526 784.704 204.263 784.901 205.035 784.901C205.826 784.901 206.562 784.704 207.245 784.308C207.945 783.895 208.502 783.302 208.915 782.53C209.347 781.758 209.562 780.859 209.562 779.836ZM222.58 787.569C221.179 787.569 219.912 787.254 218.781 786.626C217.649 785.979 216.76 785.081 216.113 783.931C215.466 782.764 215.143 781.416 215.143 779.889C215.143 778.38 215.475 777.042 216.14 775.875C216.805 774.707 217.712 773.809 218.861 773.18C220.011 772.551 221.295 772.237 222.715 772.237C224.134 772.237 225.418 772.551 226.568 773.18C227.717 773.809 228.625 774.707 229.289 775.875C229.954 777.042 230.286 778.38 230.286 779.889C230.286 781.398 229.945 782.737 229.262 783.904C228.58 785.072 227.646 785.979 226.46 786.626C225.292 787.254 223.999 787.569 222.58 787.569ZM222.58 784.901C223.37 784.901 224.107 784.713 224.789 784.335C225.49 783.958 226.056 783.392 226.487 782.638C226.918 781.883 227.134 780.967 227.134 779.889C227.134 778.812 226.927 777.904 226.514 777.168C226.101 776.413 225.553 775.848 224.87 775.47C224.188 775.093 223.451 774.905 222.661 774.905C221.87 774.905 221.134 775.093 220.451 775.47C219.787 775.848 219.257 776.413 218.861 777.168C218.466 777.904 218.269 778.812 218.269 779.889C218.269 781.488 218.673 782.728 219.481 783.608C220.307 784.47 221.34 784.901 222.58 784.901ZM236.809 774.635C237.258 773.881 237.851 773.297 238.587 772.884C239.342 772.453 240.231 772.237 241.255 772.237V775.417H240.474C239.27 775.417 238.354 775.722 237.725 776.333C237.114 776.943 236.809 778.003 236.809 779.512V787.326H233.737V772.479H236.809V774.635ZM248.077 774.985V783.204C248.077 783.761 248.203 784.165 248.454 784.416C248.724 784.65 249.173 784.766 249.801 784.766H251.688V787.326H249.262C247.879 787.326 246.819 787.003 246.083 786.356C245.346 785.71 244.978 784.659 244.978 783.204V774.985H243.227V772.479H244.978V768.788H248.077V772.479H251.688V774.985H248.077Z" fill="white"/>
<rect x="299.479" y="748.072" width="207.672" height="60.509" rx="30.2545" fill="white"/>
<path d="M324.58 770.486V767.683H330.184V787.326H327.086V770.486H324.58ZM346.621 776.279V778.865H335.546V776.279H346.621ZM350.591 770.486V767.683H356.196V787.326H353.097V770.486H350.591ZM386.621 772.237C387.788 772.237 388.83 772.479 389.746 772.964C390.68 773.45 391.408 774.168 391.929 775.12C392.468 776.072 392.737 777.222 392.737 778.569V787.326H389.692V779.027C389.692 777.698 389.36 776.683 388.695 775.982C388.031 775.264 387.124 774.905 385.974 774.905C384.824 774.905 383.908 775.264 383.226 775.982C382.561 776.683 382.229 777.698 382.229 779.027V787.326H379.184V779.027C379.184 777.698 378.851 776.683 378.187 775.982C377.522 775.264 376.615 774.905 375.465 774.905C374.316 774.905 373.4 775.264 372.717 775.982C372.052 776.683 371.72 777.698 371.72 779.027V787.326H368.648V772.479H371.72V774.177C372.223 773.566 372.861 773.09 373.633 772.749C374.406 772.408 375.232 772.237 376.112 772.237C377.298 772.237 378.358 772.488 379.292 772.991C380.226 773.494 380.944 774.222 381.447 775.174C381.896 774.276 382.597 773.566 383.549 773.045C384.501 772.506 385.525 772.237 386.621 772.237ZM410.668 779.539C410.668 780.096 410.632 780.599 410.56 781.048H399.216C399.306 782.234 399.746 783.186 400.536 783.904C401.327 784.623 402.297 784.982 403.447 784.982C405.099 784.982 406.267 784.29 406.949 782.907H410.264C409.815 784.273 408.997 785.395 407.812 786.275C406.644 787.138 405.189 787.569 403.447 787.569C402.027 787.569 400.752 787.254 399.62 786.626C398.507 785.979 397.626 785.081 396.98 783.931C396.351 782.764 396.037 781.416 396.037 779.889C396.037 778.363 396.342 777.024 396.953 775.875C397.581 774.707 398.453 773.809 399.566 773.18C400.698 772.551 401.992 772.237 403.447 772.237C404.848 772.237 406.096 772.542 407.192 773.153C408.288 773.764 409.141 774.626 409.752 775.74C410.363 776.836 410.668 778.102 410.668 779.539ZM407.461 778.569C407.443 777.437 407.039 776.53 406.249 775.848C405.458 775.165 404.479 774.824 403.312 774.824C402.252 774.824 401.345 775.165 400.59 775.848C399.836 776.512 399.387 777.419 399.243 778.569H407.461ZM427.713 779.539C427.713 780.096 427.677 780.599 427.605 781.048H416.261C416.351 782.234 416.791 783.186 417.581 783.904C418.372 784.623 419.342 784.982 420.491 784.982C422.144 784.982 423.312 784.29 423.994 782.907H427.309C426.859 784.273 426.042 785.395 424.856 786.275C423.689 787.138 422.234 787.569 420.491 787.569C419.072 787.569 417.797 787.254 416.665 786.626C415.551 785.979 414.671 785.081 414.025 783.931C413.396 782.764 413.081 781.416 413.081 779.889C413.081 778.363 413.387 777.024 413.998 775.875C414.626 774.707 415.498 773.809 416.611 773.18C417.743 772.551 419.036 772.237 420.491 772.237C421.893 772.237 423.141 772.542 424.237 773.153C425.333 773.764 426.186 774.626 426.797 775.74C427.407 776.836 427.713 778.102 427.713 779.539ZM424.506 778.569C424.488 777.437 424.084 776.53 423.294 775.848C422.503 775.165 421.524 774.824 420.357 774.824C419.297 774.824 418.39 775.165 417.635 775.848C416.881 776.512 416.432 777.419 416.288 778.569H424.506ZM434.734 774.985V783.204C434.734 783.761 434.86 784.165 435.111 784.416C435.381 784.65 435.83 784.766 436.458 784.766H438.345V787.326H435.919C434.536 787.326 433.476 787.003 432.74 786.356C432.003 785.71 431.635 784.659 431.635 783.204V774.985H429.884V772.479H431.635V768.788H434.734V772.479H438.345V774.985H434.734ZM443.153 770.512C442.596 770.512 442.129 770.324 441.752 769.947C441.375 769.569 441.186 769.102 441.186 768.545C441.186 767.989 441.375 767.522 441.752 767.144C442.129 766.767 442.596 766.578 443.153 766.578C443.692 766.578 444.15 766.767 444.527 767.144C444.904 767.522 445.093 767.989 445.093 768.545C445.093 769.102 444.904 769.569 444.527 769.947C444.15 770.324 443.692 770.512 443.153 770.512ZM444.662 772.479V787.326H441.59V772.479H444.662ZM456.6 772.237C457.768 772.237 458.81 772.479 459.726 772.964C460.66 773.45 461.387 774.168 461.908 775.12C462.429 776.072 462.69 777.222 462.69 778.569V787.326H459.645V779.027C459.645 777.698 459.313 776.683 458.648 775.982C457.983 775.264 457.076 774.905 455.927 774.905C454.777 774.905 453.861 775.264 453.178 775.982C452.514 776.683 452.181 777.698 452.181 779.027V787.326H449.109V772.479H452.181V774.177C452.684 773.566 453.322 773.09 454.094 772.749C454.885 772.408 455.72 772.237 456.6 772.237ZM473.004 772.237C474.154 772.237 475.169 772.47 476.049 772.938C476.947 773.387 477.648 773.952 478.151 774.635V772.479H481.25V787.569C481.25 788.934 480.962 790.147 480.387 791.206C479.813 792.284 478.977 793.128 477.882 793.739C476.804 794.35 475.51 794.655 474.001 794.655C471.989 794.655 470.319 794.179 468.99 793.227C467.66 792.293 466.906 791.018 466.726 789.401H469.771C470.005 790.174 470.499 790.793 471.253 791.26C472.025 791.745 472.942 791.988 474.001 791.988C475.241 791.988 476.238 791.611 476.992 790.856C477.765 790.102 478.151 789.006 478.151 787.569V785.09C477.63 785.79 476.92 786.383 476.022 786.868C475.142 787.335 474.136 787.569 473.004 787.569C471.711 787.569 470.525 787.245 469.448 786.599C468.388 785.934 467.544 785.018 466.915 783.85C466.304 782.665 465.999 781.326 465.999 779.836C465.999 778.345 466.304 777.024 466.915 775.875C467.544 774.725 468.388 773.836 469.448 773.207C470.525 772.56 471.711 772.237 473.004 772.237ZM478.151 779.889C478.151 778.865 477.935 777.976 477.504 777.222C477.091 776.467 476.543 775.893 475.861 775.497C475.178 775.102 474.442 774.905 473.651 774.905C472.861 774.905 472.124 775.102 471.442 775.497C470.759 775.875 470.202 776.44 469.771 777.195C469.358 777.931 469.151 778.812 469.151 779.836C469.151 780.859 469.358 781.758 469.771 782.53C470.202 783.302 470.759 783.895 471.442 784.308C472.142 784.704 472.879 784.901 473.651 784.901C474.442 784.901 475.178 784.704 475.861 784.308C476.543 783.913 477.091 783.338 477.504 782.584C477.935 781.812 478.151 780.913 478.151 779.889Z" fill="#64748B"/>
<rect x="299.479" y="748.072" width="207.672" height="60.509" rx="30.2545" stroke="#CBD5E1" stroke-width="2.07271"/>
<rect x="529.951" y="748.072" width="244.672" height="60.509" rx="30.2545" fill="white"/>
<path d="M567.283 768.599V771.105H559.335V776.629H565.532V779.135H559.335V787.326H556.263V768.599H567.283ZM573.617 774.635C574.066 773.881 574.658 773.297 575.395 772.884C576.149 772.453 577.039 772.237 578.062 772.237V775.417H577.281C576.077 775.417 575.161 775.722 574.533 776.333C573.922 776.943 573.617 778.003 573.617 779.512V787.326H570.545V772.479H573.617V774.635ZM594.908 779.539C594.908 780.096 594.872 780.599 594.8 781.048H583.456C583.546 782.234 583.986 783.186 584.777 783.904C585.567 784.623 586.537 784.982 587.687 784.982C589.339 784.982 590.507 784.29 591.189 782.907H594.504C594.055 784.273 593.237 785.395 592.052 786.275C590.884 787.138 589.429 787.569 587.687 787.569C586.267 787.569 584.992 787.254 583.86 786.626C582.747 785.979 581.866 785.081 581.22 783.931C580.591 782.764 580.277 781.416 580.277 779.889C580.277 778.363 580.582 777.024 581.193 775.875C581.822 774.707 582.693 773.809 583.806 773.18C584.938 772.551 586.232 772.237 587.687 772.237C589.088 772.237 590.336 772.542 591.432 773.153C592.528 773.764 593.381 774.626 593.992 775.74C594.603 776.836 594.908 778.102 594.908 779.539ZM591.701 778.569C591.683 777.437 591.279 776.53 590.489 775.848C589.698 775.165 588.719 774.824 587.552 774.824C586.492 774.824 585.585 775.165 584.83 775.848C584.076 776.512 583.627 777.419 583.483 778.569H591.701ZM611.953 779.539C611.953 780.096 611.917 780.599 611.845 781.048H600.501C600.591 782.234 601.031 783.186 601.821 783.904C602.612 784.623 603.582 784.982 604.731 784.982C606.384 784.982 607.552 784.29 608.234 782.907H611.549C611.099 784.273 610.282 785.395 609.097 786.275C607.929 787.138 606.474 787.569 604.731 787.569C603.312 787.569 602.037 787.254 600.905 786.626C599.791 785.979 598.911 785.081 598.265 783.931C597.636 782.764 597.321 781.416 597.321 779.889C597.321 778.363 597.627 777.024 598.238 775.875C598.866 774.707 599.738 773.809 600.851 773.18C601.983 772.551 603.276 772.237 604.731 772.237C606.133 772.237 607.381 772.542 608.477 773.153C609.573 773.764 610.426 774.626 611.037 775.74C611.647 776.836 611.953 778.102 611.953 779.539ZM608.746 778.569C608.728 777.437 608.324 776.53 607.534 775.848C606.743 775.165 605.764 774.824 604.597 774.824C603.537 774.824 602.63 775.165 601.875 775.848C601.121 776.512 600.672 777.419 600.528 778.569H608.746ZM631.346 787.515C629.603 787.515 627.996 787.111 626.523 786.302C625.068 785.476 623.909 784.335 623.047 782.88C622.202 781.407 621.78 779.755 621.78 777.922C621.78 776.09 622.202 774.446 623.047 772.991C623.909 771.536 625.068 770.405 626.523 769.596C627.996 768.77 629.603 768.357 631.346 768.357C633.106 768.357 634.714 768.77 636.169 769.596C637.642 770.405 638.801 771.536 639.645 772.991C640.489 774.446 640.911 776.09 640.911 777.922C640.911 779.755 640.489 781.407 639.645 782.88C638.801 784.335 637.642 785.476 636.169 786.302C634.714 787.111 633.106 787.515 631.346 787.515ZM631.346 784.847C632.585 784.847 633.69 784.569 634.66 784.012C635.63 783.437 636.385 782.629 636.923 781.587C637.48 780.527 637.759 779.306 637.759 777.922C637.759 776.539 637.48 775.327 636.923 774.285C636.385 773.243 635.63 772.444 634.66 771.887C633.69 771.33 632.585 771.051 631.346 771.051C630.106 771.051 629.002 771.33 628.032 771.887C627.061 772.444 626.298 773.243 625.741 774.285C625.202 775.327 624.933 776.539 624.933 777.922C624.933 779.306 625.202 780.527 625.741 781.587C626.298 782.629 627.061 783.437 628.032 784.012C629.002 784.569 630.106 784.847 631.346 784.847ZM651.839 772.237C653.007 772.237 654.049 772.479 654.965 772.964C655.899 773.45 656.627 774.168 657.148 775.12C657.669 776.072 657.929 777.222 657.929 778.569V787.326H654.884V779.027C654.884 777.698 654.552 776.683 653.887 775.982C653.223 775.264 652.315 774.905 651.166 774.905C650.016 774.905 649.1 775.264 648.417 775.982C647.753 776.683 647.42 777.698 647.42 779.027V787.326H644.349V772.479H647.42V774.177C647.923 773.566 648.561 773.09 649.333 772.749C650.124 772.408 650.959 772.237 651.839 772.237ZM679.699 777.707C680.705 777.886 681.559 778.416 682.259 779.297C682.96 780.177 683.31 781.174 683.31 782.288C683.31 783.24 683.059 784.102 682.556 784.874C682.071 785.629 681.361 786.231 680.427 786.68C679.493 787.111 678.406 787.326 677.166 787.326H669.676V768.599H676.816C678.092 768.599 679.187 768.815 680.104 769.246C681.02 769.677 681.711 770.261 682.178 770.997C682.645 771.716 682.879 772.524 682.879 773.423C682.879 774.5 682.591 775.399 682.017 776.117C681.442 776.836 680.669 777.366 679.699 777.707ZM672.747 776.467H676.547C677.553 776.467 678.334 776.243 678.891 775.794C679.466 775.327 679.753 774.662 679.753 773.8C679.753 772.956 679.466 772.3 678.891 771.833C678.334 771.348 677.553 771.105 676.547 771.105H672.747V776.467ZM676.897 784.82C677.939 784.82 678.756 784.569 679.349 784.066C679.942 783.563 680.238 782.862 680.238 781.964C680.238 781.048 679.924 780.321 679.295 779.782C678.666 779.243 677.831 778.973 676.789 778.973H672.747V784.82H676.897ZM693.503 787.569C692.101 787.569 690.835 787.254 689.703 786.626C688.572 785.979 687.682 785.081 687.036 783.931C686.389 782.764 686.066 781.416 686.066 779.889C686.066 778.38 686.398 777.042 687.063 775.875C687.727 774.707 688.634 773.809 689.784 773.18C690.934 772.551 692.218 772.237 693.637 772.237C695.056 772.237 696.341 772.551 697.49 773.18C698.64 773.809 699.547 774.707 700.212 775.875C700.877 777.042 701.209 778.38 701.209 779.889C701.209 781.398 700.868 782.737 700.185 783.904C699.502 785.072 698.568 785.979 697.383 786.626C696.215 787.254 694.922 787.569 693.503 787.569ZM693.503 784.901C694.293 784.901 695.029 784.713 695.712 784.335C696.413 783.958 696.978 783.392 697.41 782.638C697.841 781.883 698.056 780.967 698.056 779.889C698.056 778.812 697.85 777.904 697.437 777.168C697.023 776.413 696.475 775.848 695.793 775.47C695.11 775.093 694.374 774.905 693.583 774.905C692.793 774.905 692.056 775.093 691.374 775.47C690.709 775.848 690.179 776.413 689.784 777.168C689.389 777.904 689.191 778.812 689.191 779.889C689.191 781.488 689.595 782.728 690.404 783.608C691.23 784.47 692.263 784.901 693.503 784.901ZM703.636 779.836C703.636 778.345 703.941 777.024 704.552 775.875C705.181 774.725 706.025 773.836 707.085 773.207C708.163 772.56 709.348 772.237 710.642 772.237C711.809 772.237 712.824 772.47 713.687 772.938C714.567 773.387 715.267 773.952 715.788 774.635V772.479H718.887V787.326H715.788V785.117C715.267 785.817 714.558 786.401 713.66 786.868C712.762 787.335 711.738 787.569 710.588 787.569C709.313 787.569 708.145 787.245 707.085 786.599C706.025 785.934 705.181 785.018 704.552 783.85C703.941 782.665 703.636 781.326 703.636 779.836ZM715.788 779.889C715.788 778.865 715.573 777.976 715.142 777.222C714.729 776.467 714.181 775.893 713.498 775.497C712.815 775.102 712.079 774.905 711.289 774.905C710.498 774.905 709.762 775.102 709.079 775.497C708.396 775.875 707.84 776.44 707.408 777.195C706.995 777.931 706.789 778.812 706.789 779.836C706.789 780.859 706.995 781.758 707.408 782.53C707.84 783.302 708.396 783.895 709.079 784.308C709.78 784.704 710.516 784.901 711.289 784.901C712.079 784.901 712.815 784.704 713.498 784.308C714.181 783.913 714.729 783.338 715.142 782.584C715.573 781.812 715.788 780.913 715.788 779.889ZM726.408 774.635C726.857 773.881 727.45 773.297 728.186 772.884C728.941 772.453 729.83 772.237 730.854 772.237V775.417H730.073C728.869 775.417 727.953 775.722 727.324 776.333C726.713 776.943 726.408 778.003 726.408 779.512V787.326H723.336V772.479H726.408V774.635ZM733.068 779.836C733.068 778.345 733.374 777.024 733.984 775.875C734.613 774.725 735.457 773.836 736.517 773.207C737.595 772.56 738.79 772.237 740.101 772.237C741.071 772.237 742.023 772.453 742.957 772.884C743.909 773.297 744.664 773.854 745.22 774.554V767.387H748.319V787.326H745.22V785.09C744.717 785.808 744.017 786.401 743.119 786.868C742.239 787.335 741.224 787.569 740.074 787.569C738.781 787.569 737.595 787.245 736.517 786.599C735.457 785.934 734.613 785.018 733.984 783.85C733.374 782.665 733.068 781.326 733.068 779.836ZM745.22 779.889C745.22 778.865 745.005 777.976 744.574 777.222C744.161 776.467 743.613 775.893 742.93 775.497C742.247 775.102 741.511 774.905 740.721 774.905C739.93 774.905 739.194 775.102 738.511 775.497C737.828 775.875 737.272 776.44 736.84 777.195C736.427 777.931 736.221 778.812 736.221 779.836C736.221 780.859 736.427 781.758 736.84 782.53C737.272 783.302 737.828 783.895 738.511 784.308C739.212 784.704 739.948 784.901 740.721 784.901C741.511 784.901 742.247 784.704 742.93 784.308C743.613 783.913 744.161 783.338 744.574 782.584C745.005 781.812 745.22 780.913 745.22 779.889Z" fill="#64748B"/>
<rect x="529.951" y="748.072" width="244.672" height="60.509" rx="30.2545" stroke="#CBD5E1" stroke-width="2.07271"/>
<rect x="797.423" y="748.072" width="347.672" height="60.509" rx="30.2545" fill="white"/>
<path d="M843.341 768.599V787.326H840.269V774.5L834.557 787.326H832.428L826.689 774.5V787.326H823.617V768.599H826.931L833.506 783.285L840.054 768.599H843.341ZM846.769 779.836C846.769 778.345 847.074 777.024 847.685 775.875C848.314 774.725 849.158 773.836 850.218 773.207C851.296 772.56 852.481 772.237 853.775 772.237C854.942 772.237 855.957 772.47 856.82 772.938C857.7 773.387 858.4 773.952 858.921 774.635V772.479H862.02V787.326H858.921V785.117C858.4 785.817 857.691 786.401 856.793 786.868C855.894 787.335 854.87 787.569 853.721 787.569C852.445 787.569 851.278 787.245 850.218 786.599C849.158 785.934 848.314 785.018 847.685 783.85C847.074 782.665 846.769 781.326 846.769 779.836ZM858.921 779.889C858.921 778.865 858.706 777.976 858.275 777.222C857.861 776.467 857.314 775.893 856.631 775.497C855.948 775.102 855.212 774.905 854.421 774.905C853.631 774.905 852.894 775.102 852.212 775.497C851.529 775.875 850.972 776.44 850.541 777.195C850.128 777.931 849.922 778.812 849.922 779.836C849.922 780.859 850.128 781.758 850.541 782.53C850.972 783.302 851.529 783.895 852.212 784.308C852.912 784.704 853.649 784.901 854.421 784.901C855.212 784.901 855.948 784.704 856.631 784.308C857.314 783.913 857.861 783.338 858.275 782.584C858.706 781.812 858.921 780.913 858.921 779.889ZM869.541 774.635C869.99 773.881 870.583 773.297 871.319 772.884C872.074 772.453 872.963 772.237 873.987 772.237V775.417H873.205C872.002 775.417 871.086 775.722 870.457 776.333C869.846 776.943 869.541 778.003 869.541 779.512V787.326H866.469V772.479H869.541V774.635ZM883.099 779.916L889.943 787.326H885.794L880.297 780.94V787.326H877.225V767.387H880.297V778.973L885.686 772.479H889.943L883.099 779.916ZM906.167 779.539C906.167 780.096 906.131 780.599 906.059 781.048H894.715C894.805 782.234 895.245 783.186 896.035 783.904C896.826 784.623 897.796 784.982 898.945 784.982C900.598 784.982 901.766 784.29 902.448 782.907H905.763C905.313 784.273 904.496 785.395 903.31 786.275C902.143 787.138 900.688 787.569 898.945 787.569C897.526 787.569 896.251 787.254 895.119 786.626C894.005 785.979 893.125 785.081 892.479 783.931C891.85 782.764 891.535 781.416 891.535 779.889C891.535 778.363 891.841 777.024 892.452 775.875C893.08 774.707 893.952 773.809 895.065 773.18C896.197 772.551 897.49 772.237 898.945 772.237C900.347 772.237 901.595 772.542 902.691 773.153C903.787 773.764 904.64 774.626 905.251 775.74C905.861 776.836 906.167 778.102 906.167 779.539ZM902.96 778.569C902.942 777.437 902.538 776.53 901.748 775.848C900.957 775.165 899.978 774.824 898.811 774.824C897.751 774.824 896.844 775.165 896.089 775.848C895.335 776.512 894.886 777.419 894.742 778.569H902.96ZM913.188 774.985V783.204C913.188 783.761 913.314 784.165 913.565 784.416C913.835 784.65 914.284 784.766 914.912 784.766H916.799V787.326H914.373C912.99 787.326 911.93 787.003 911.194 786.356C910.457 785.71 910.089 784.659 910.089 783.204V774.985H908.338V772.479H910.089V768.788H913.188V772.479H916.799V774.985H913.188ZM921.607 770.512C921.05 770.512 920.583 770.324 920.206 769.947C919.829 769.569 919.64 769.102 919.64 768.545C919.64 767.989 919.829 767.522 920.206 767.144C920.583 766.767 921.05 766.578 921.607 766.578C922.146 766.578 922.604 766.767 922.981 767.144C923.358 767.522 923.547 767.989 923.547 768.545C923.547 769.102 923.358 769.569 922.981 769.947C922.604 770.324 922.146 770.512 921.607 770.512ZM923.116 772.479V787.326H920.044V772.479H923.116ZM935.054 772.237C936.222 772.237 937.264 772.479 938.18 772.964C939.114 773.45 939.841 774.168 940.362 775.12C940.883 776.072 941.144 777.222 941.144 778.569V787.326H938.099V779.027C938.099 777.698 937.767 776.683 937.102 775.982C936.437 775.264 935.53 774.905 934.381 774.905C933.231 774.905 932.315 775.264 931.632 775.982C930.968 776.683 930.635 777.698 930.635 779.027V787.326H927.563V772.479H930.635V774.177C931.138 773.566 931.776 773.09 932.548 772.749C933.339 772.408 934.174 772.237 935.054 772.237ZM951.458 772.237C952.608 772.237 953.623 772.47 954.503 772.938C955.401 773.387 956.102 773.952 956.605 774.635V772.479H959.704V787.569C959.704 788.934 959.416 790.147 958.841 791.206C958.267 792.284 957.431 793.128 956.336 793.739C955.258 794.35 953.964 794.655 952.455 794.655C950.443 794.655 948.773 794.179 947.444 793.227C946.114 792.293 945.36 791.018 945.18 789.401H948.225C948.459 790.174 948.953 790.793 949.707 791.26C950.479 791.745 951.396 791.988 952.455 791.988C953.695 791.988 954.692 791.611 955.446 790.856C956.219 790.102 956.605 789.006 956.605 787.569V785.09C956.084 785.79 955.374 786.383 954.476 786.868C953.596 787.335 952.59 787.569 951.458 787.569C950.165 787.569 948.979 787.245 947.902 786.599C946.842 785.934 945.998 785.018 945.369 783.85C944.758 782.665 944.453 781.326 944.453 779.836C944.453 778.345 944.758 777.024 945.369 775.875C945.998 774.725 946.842 773.836 947.902 773.207C948.979 772.56 950.165 772.237 951.458 772.237ZM956.605 779.889C956.605 778.865 956.389 777.976 955.958 777.222C955.545 776.467 954.997 775.893 954.315 775.497C953.632 775.102 952.896 774.905 952.105 774.905C951.315 774.905 950.578 775.102 949.896 775.497C949.213 775.875 948.656 776.44 948.225 777.195C947.812 777.931 947.605 778.812 947.605 779.836C947.605 780.859 947.812 781.758 948.225 782.53C948.656 783.302 949.213 783.895 949.896 784.308C950.596 784.704 951.333 784.901 952.105 784.901C952.896 784.901 953.632 784.704 954.315 784.308C954.997 783.913 955.545 783.338 955.958 782.584C956.389 781.812 956.605 780.913 956.605 779.889ZM982.857 783.5H975.016L973.669 787.326H970.462L977.171 768.572H980.728L987.438 787.326H984.204L982.857 783.5ZM981.995 780.994L978.95 772.291L975.878 780.994H981.995ZM996.158 787.569C994.991 787.569 993.94 787.362 993.006 786.949C992.09 786.518 991.362 785.943 990.823 785.225C990.284 784.488 989.997 783.671 989.961 782.773H993.141C993.194 783.401 993.491 783.931 994.03 784.362C994.587 784.775 995.278 784.982 996.104 784.982C996.967 784.982 997.631 784.82 998.098 784.497C998.583 784.156 998.826 783.725 998.826 783.204C998.826 782.647 998.557 782.234 998.018 781.964C997.497 781.695 996.661 781.398 995.512 781.075C994.398 780.77 993.491 780.473 992.79 780.186C992.09 779.898 991.479 779.458 990.958 778.865C990.455 778.273 990.203 777.491 990.203 776.521C990.203 775.731 990.437 775.012 990.904 774.366C991.371 773.701 992.036 773.18 992.898 772.803C993.778 772.426 994.784 772.237 995.916 772.237C997.604 772.237 998.961 772.668 999.985 773.53C1001.03 774.375 1001.58 775.533 1001.66 777.006H998.583C998.53 776.342 998.26 775.812 997.775 775.417C997.29 775.021 996.634 774.824 995.808 774.824C995 774.824 994.38 774.976 993.949 775.282C993.518 775.587 993.302 775.991 993.302 776.494C993.302 776.89 993.446 777.222 993.733 777.491C994.021 777.761 994.371 777.976 994.784 778.138C995.197 778.282 995.808 778.47 996.616 778.704C997.694 778.991 998.574 779.288 999.257 779.593C999.958 779.88 1000.56 780.312 1001.06 780.886C1001.57 781.461 1001.83 782.225 1001.84 783.177C1001.84 784.021 1001.61 784.775 1001.14 785.44C1000.68 786.105 1000.01 786.626 999.149 787.003C998.305 787.38 997.308 787.569 996.158 787.569ZM1010.97 787.569C1009.8 787.569 1008.75 787.362 1007.81 786.949C1006.9 786.518 1006.17 785.943 1005.63 785.225C1005.09 784.488 1004.81 783.671 1004.77 782.773H1007.95C1008 783.401 1008.3 783.931 1008.84 784.362C1009.39 784.775 1010.09 784.982 1010.91 784.982C1011.77 784.982 1012.44 784.82 1012.91 784.497C1013.39 784.156 1013.63 783.725 1013.63 783.204C1013.63 782.647 1013.36 782.234 1012.83 781.964C1012.3 781.695 1011.47 781.398 1010.32 781.075C1009.21 780.77 1008.3 780.473 1007.6 780.186C1006.9 779.898 1006.29 779.458 1005.77 778.865C1005.26 778.273 1005.01 777.491 1005.01 776.521C1005.01 775.731 1005.25 775.012 1005.71 774.366C1006.18 773.701 1006.84 773.18 1007.71 772.803C1008.59 772.426 1009.59 772.237 1010.72 772.237C1012.41 772.237 1013.77 772.668 1014.79 773.53C1015.83 774.375 1016.39 775.533 1016.46 777.006H1013.39C1013.34 776.342 1013.07 775.812 1012.58 775.417C1012.1 775.021 1011.44 774.824 1010.62 774.824C1009.81 774.824 1009.19 774.976 1008.76 775.282C1008.33 775.587 1008.11 775.991 1008.11 776.494C1008.11 776.89 1008.25 777.222 1008.54 777.491C1008.83 777.761 1009.18 777.976 1009.59 778.138C1010.01 778.282 1010.62 778.47 1011.42 778.704C1012.5 778.991 1013.38 779.288 1014.07 779.593C1014.77 779.88 1015.37 780.312 1015.87 780.886C1016.37 781.461 1016.63 782.225 1016.65 783.177C1016.65 784.021 1016.42 784.775 1015.95 785.44C1015.48 786.105 1014.82 786.626 1013.96 787.003C1013.11 787.38 1012.12 787.569 1010.97 787.569ZM1021.95 770.512C1021.39 770.512 1020.92 770.324 1020.55 769.947C1020.17 769.569 1019.98 769.102 1019.98 768.545C1019.98 767.989 1020.17 767.522 1020.55 767.144C1020.92 766.767 1021.39 766.578 1021.95 766.578C1022.49 766.578 1022.95 766.767 1023.32 767.144C1023.7 767.522 1023.89 767.989 1023.89 768.545C1023.89 769.102 1023.7 769.569 1023.32 769.947C1022.95 770.324 1022.49 770.512 1021.95 770.512ZM1023.46 772.479V787.326H1020.39V772.479H1023.46ZM1033.29 787.569C1032.13 787.569 1031.08 787.362 1030.14 786.949C1029.23 786.518 1028.5 785.943 1027.96 785.225C1027.42 784.488 1027.13 783.671 1027.1 782.773H1030.28C1030.33 783.401 1030.63 783.931 1031.17 784.362C1031.72 784.775 1032.41 784.982 1033.24 784.982C1034.1 784.982 1034.77 784.82 1035.23 784.497C1035.72 784.156 1035.96 783.725 1035.96 783.204C1035.96 782.647 1035.69 782.234 1035.15 781.964C1034.63 781.695 1033.8 781.398 1032.65 781.075C1031.53 780.77 1030.63 780.473 1029.93 780.186C1029.23 779.898 1028.61 779.458 1028.09 778.865C1027.59 778.273 1027.34 777.491 1027.34 776.521C1027.34 775.731 1027.57 775.012 1028.04 774.366C1028.51 773.701 1029.17 773.18 1030.03 772.803C1030.91 772.426 1031.92 772.237 1033.05 772.237C1034.74 772.237 1036.1 772.668 1037.12 773.53C1038.16 774.375 1038.72 775.533 1038.79 777.006H1035.72C1035.67 776.342 1035.4 775.812 1034.91 775.417C1034.43 775.021 1033.77 774.824 1032.94 774.824C1032.14 774.824 1031.52 774.976 1031.08 775.282C1030.65 775.587 1030.44 775.991 1030.44 776.494C1030.44 776.89 1030.58 777.222 1030.87 777.491C1031.16 777.761 1031.51 777.976 1031.92 778.138C1032.33 778.282 1032.94 778.47 1033.75 778.704C1034.83 778.991 1035.71 779.288 1036.39 779.593C1037.09 779.88 1037.69 780.312 1038.2 780.886C1038.7 781.461 1038.96 782.225 1038.98 783.177C1038.98 784.021 1038.75 784.775 1038.28 785.44C1037.81 786.105 1037.15 786.626 1036.28 787.003C1035.44 787.38 1034.44 787.569 1033.29 787.569ZM1046.3 774.985V783.204C1046.3 783.761 1046.42 784.165 1046.67 784.416C1046.94 784.65 1047.39 784.766 1048.02 784.766H1049.91V787.326H1047.48C1046.1 787.326 1045.04 787.003 1044.3 786.356C1043.57 785.71 1043.2 784.659 1043.2 783.204V774.985H1041.45V772.479H1043.2V768.788H1046.3V772.479H1049.91V774.985H1046.3ZM1052.13 779.836C1052.13 778.345 1052.43 777.024 1053.05 775.875C1053.67 774.725 1054.52 773.836 1055.58 773.207C1056.66 772.56 1057.84 772.237 1059.13 772.237C1060.3 772.237 1061.32 772.47 1062.18 772.938C1063.06 773.387 1063.76 773.952 1064.28 774.635V772.479H1067.38V787.326H1064.28V785.117C1063.76 785.817 1063.05 786.401 1062.15 786.868C1061.25 787.335 1060.23 787.569 1059.08 787.569C1057.81 787.569 1056.64 787.245 1055.58 786.599C1054.52 785.934 1053.67 785.018 1053.05 783.85C1052.43 782.665 1052.13 781.326 1052.13 779.836ZM1064.28 779.889C1064.28 778.865 1064.07 777.976 1063.63 777.222C1063.22 776.467 1062.67 775.893 1061.99 775.497C1061.31 775.102 1060.57 774.905 1059.78 774.905C1058.99 774.905 1058.25 775.102 1057.57 775.497C1056.89 775.875 1056.33 776.44 1055.9 777.195C1055.49 777.931 1055.28 778.812 1055.28 779.836C1055.28 780.859 1055.49 781.758 1055.9 782.53C1056.33 783.302 1056.89 783.895 1057.57 784.308C1058.27 784.704 1059.01 784.901 1059.78 784.901C1060.57 784.901 1061.31 784.704 1061.99 784.308C1062.67 783.913 1063.22 783.338 1063.63 782.584C1064.07 781.812 1064.28 780.913 1064.28 779.889ZM1079.32 772.237C1080.49 772.237 1081.53 772.479 1082.45 772.964C1083.38 773.45 1084.11 774.168 1084.63 775.12C1085.15 776.072 1085.41 777.222 1085.41 778.569V787.326H1082.36V779.027C1082.36 777.698 1082.03 776.683 1081.37 775.982C1080.7 775.264 1079.8 774.905 1078.65 774.905C1077.5 774.905 1076.58 775.264 1075.9 775.982C1075.23 776.683 1074.9 777.698 1074.9 779.027V787.326H1071.83V772.479H1074.9V774.177C1075.4 773.566 1076.04 773.09 1076.81 772.749C1077.6 772.408 1078.44 772.237 1079.32 772.237ZM1088.72 779.889C1088.72 778.363 1089.02 777.024 1089.63 775.875C1090.26 774.707 1091.13 773.809 1092.22 773.18C1093.32 772.551 1094.57 772.237 1095.99 772.237C1097.79 772.237 1099.27 772.668 1100.44 773.53C1101.63 774.375 1102.42 775.587 1102.84 777.168H1099.52C1099.25 776.431 1098.82 775.857 1098.23 775.443C1097.64 775.03 1096.89 774.824 1095.99 774.824C1094.74 774.824 1093.73 775.273 1092.98 776.171C1092.24 777.051 1091.87 778.291 1091.87 779.889C1091.87 781.488 1092.24 782.737 1092.98 783.635C1093.73 784.533 1094.74 784.982 1095.99 784.982C1097.77 784.982 1098.95 784.201 1099.52 782.638H1102.84C1102.41 784.147 1101.6 785.35 1100.41 786.248C1099.23 787.129 1097.75 787.569 1095.99 787.569C1094.57 787.569 1093.32 787.254 1092.22 786.626C1091.13 785.979 1090.26 785.081 1089.63 783.931C1089.02 782.764 1088.72 781.416 1088.72 779.889ZM1119.92 779.539C1119.92 780.096 1119.88 780.599 1119.81 781.048H1108.47C1108.56 782.234 1109 783.186 1109.79 783.904C1110.58 784.623 1111.55 784.982 1112.7 784.982C1114.35 784.982 1115.52 784.29 1116.2 782.907H1119.52C1119.07 784.273 1118.25 785.395 1117.06 786.275C1115.9 787.138 1114.44 787.569 1112.7 787.569C1111.28 787.569 1110.01 787.254 1108.87 786.626C1107.76 785.979 1106.88 785.081 1106.23 783.931C1105.6 782.764 1105.29 781.416 1105.29 779.889C1105.29 778.363 1105.6 777.024 1106.21 775.875C1106.83 774.707 1107.71 773.809 1108.82 773.18C1109.95 772.551 1111.24 772.237 1112.7 772.237C1114.1 772.237 1115.35 772.542 1116.44 773.153C1117.54 773.764 1118.39 774.626 1119 775.74C1119.62 776.836 1119.92 778.102 1119.92 779.539ZM1116.71 778.569C1116.7 777.437 1116.29 776.53 1115.5 775.848C1114.71 775.165 1113.73 774.824 1112.56 774.824C1111.51 774.824 1110.6 775.165 1109.84 775.848C1109.09 776.512 1108.64 777.419 1108.5 778.569H1116.71Z" fill="#64748B"/>
<rect x="797.423" y="748.072" width="347.672" height="60.509" rx="30.2545" stroke="#CBD5E1" stroke-width="2.07271"/>
<path d="M405.113 310.545C405.113 307.034 407.959 304.188 411.469 304.188H668.057C671.567 304.188 674.413 307.034 674.413 310.545V372.369C674.413 375.879 671.567 378.725 668.057 378.725H411.469C407.959 378.725 405.113 375.879 405.113 372.369V310.545Z" fill="#00ACA5"/>
<path d="M519.178 332.609V336.092H514.449V350.457H510.102V336.092H505.373V332.609H519.178ZM527.818 350.66C526.428 350.66 525.174 350.363 524.055 349.77C522.954 349.177 522.081 348.329 521.437 347.228C520.81 346.126 520.496 344.838 520.496 343.363C520.496 341.906 520.818 340.626 521.462 339.524C522.106 338.405 522.988 337.549 524.106 336.956C525.225 336.363 526.479 336.066 527.869 336.066C529.259 336.066 530.513 336.363 531.632 336.956C532.751 337.549 533.632 338.405 534.276 339.524C534.92 340.626 535.242 341.906 535.242 343.363C535.242 344.821 534.912 346.109 534.251 347.228C533.607 348.329 532.717 349.177 531.581 349.77C530.462 350.363 529.208 350.66 527.818 350.66ZM527.818 346.897C528.649 346.897 529.352 346.592 529.928 345.982C530.522 345.372 530.818 344.499 530.818 343.363C530.818 342.228 530.53 341.355 529.954 340.744C529.395 340.134 528.7 339.829 527.869 339.829C527.022 339.829 526.318 340.134 525.759 340.744C525.199 341.338 524.92 342.211 524.92 343.363C524.92 344.499 525.191 345.372 525.733 345.982C526.293 346.592 526.988 346.897 527.818 346.897ZM544.007 350.66C542.617 350.66 541.362 350.363 540.244 349.77C539.142 349.177 538.269 348.329 537.625 347.228C536.998 346.126 536.684 344.838 536.684 343.363C536.684 341.906 537.006 340.626 537.65 339.524C538.294 338.405 539.176 337.549 540.295 336.956C541.413 336.363 542.667 336.066 544.057 336.066C545.447 336.066 546.702 336.363 547.82 336.956C548.939 337.549 549.82 338.405 550.464 339.524C551.108 340.626 551.43 341.906 551.43 343.363C551.43 344.821 551.1 346.109 550.439 347.228C549.795 348.329 548.905 349.177 547.769 349.77C546.651 350.363 545.396 350.66 544.007 350.66ZM544.007 346.897C544.837 346.897 545.54 346.592 546.117 345.982C546.71 345.372 547.007 344.499 547.007 343.363C547.007 342.228 546.718 341.355 546.142 340.744C545.583 340.134 544.888 339.829 544.057 339.829C543.21 339.829 542.506 340.134 541.947 340.744C541.388 341.338 541.108 342.211 541.108 343.363C541.108 344.499 541.379 345.372 541.922 345.982C542.481 346.592 543.176 346.897 544.007 346.897ZM558.085 331.642V350.457H553.737V331.642H558.085ZM567.007 350.66C565.769 350.66 564.668 350.448 563.701 350.024C562.735 349.601 561.973 349.024 561.413 348.296C560.854 347.55 560.54 346.719 560.472 345.804H564.769C564.82 346.296 565.049 346.694 565.456 346.999C565.862 347.304 566.363 347.457 566.956 347.457C567.498 347.457 567.913 347.355 568.202 347.151C568.507 346.931 568.659 346.651 568.659 346.312C568.659 345.906 568.447 345.609 568.024 345.423C567.6 345.219 566.913 344.999 565.964 344.762C564.947 344.524 564.1 344.278 563.422 344.024C562.744 343.753 562.159 343.338 561.667 342.778C561.176 342.202 560.93 341.431 560.93 340.465C560.93 339.651 561.15 338.914 561.591 338.253C562.049 337.575 562.71 337.041 563.574 336.651C564.456 336.261 565.498 336.066 566.702 336.066C568.481 336.066 569.88 336.507 570.897 337.388C571.93 338.27 572.524 339.439 572.676 340.897H568.659C568.591 340.405 568.371 340.016 567.998 339.728C567.642 339.439 567.168 339.295 566.574 339.295C566.066 339.295 565.676 339.397 565.405 339.6C565.134 339.787 564.998 340.05 564.998 340.389C564.998 340.795 565.21 341.1 565.634 341.304C566.074 341.507 566.752 341.711 567.668 341.914C568.719 342.185 569.574 342.456 570.236 342.728C570.897 342.982 571.473 343.406 571.964 343.999C572.473 344.575 572.736 345.355 572.753 346.338C572.753 347.168 572.515 347.914 572.041 348.575C571.583 349.219 570.914 349.728 570.032 350.101C569.168 350.474 568.159 350.66 567.007 350.66Z" fill="white"/>
<path d="M756.149 606.813C756.149 603.302 758.995 600.456 762.505 600.456H1019.09C1022.6 600.456 1025.45 603.302 1025.45 606.813V668.637C1025.45 672.147 1022.6 674.993 1019.09 674.993H762.505C758.995 674.993 756.149 672.147 756.149 668.637V606.813Z" fill="#FF635F"/>
<path d="M867.715 628.877V632.36H862.986V646.725H858.638V632.36H853.909V628.877H867.715ZM883.27 639.402C883.27 639.809 883.245 640.233 883.194 640.674H873.354C873.422 641.555 873.702 642.233 874.193 642.708C874.702 643.165 875.321 643.394 876.049 643.394C877.134 643.394 877.889 642.936 878.312 642.021H882.94C882.702 642.953 882.27 643.792 881.643 644.538C881.033 645.284 880.261 645.869 879.329 646.292C878.397 646.716 877.355 646.928 876.202 646.928C874.812 646.928 873.575 646.631 872.49 646.038C871.405 645.445 870.558 644.597 869.948 643.496C869.337 642.394 869.032 641.106 869.032 639.631C869.032 638.157 869.329 636.868 869.922 635.767C870.532 634.665 871.38 633.817 872.465 633.224C873.549 632.631 874.795 632.334 876.202 632.334C877.575 632.334 878.795 632.622 879.863 633.199C880.931 633.775 881.762 634.597 882.355 635.665C882.965 636.733 883.27 637.979 883.27 639.402ZM878.821 638.258C878.821 637.512 878.567 636.919 878.058 636.479C877.55 636.038 876.914 635.817 876.151 635.817C875.422 635.817 874.804 636.029 874.295 636.453C873.804 636.877 873.499 637.479 873.38 638.258H878.821ZM884.699 639.606C884.699 638.148 884.97 636.868 885.513 635.767C886.072 634.665 886.826 633.817 887.776 633.224C888.725 632.631 889.784 632.334 890.954 632.334C891.954 632.334 892.827 632.538 893.572 632.944C894.335 633.351 894.92 633.885 895.327 634.546V632.538H899.674V646.725H895.327V644.716C894.903 645.377 894.31 645.911 893.547 646.318C892.801 646.725 891.928 646.928 890.928 646.928C889.776 646.928 888.725 646.631 887.776 646.038C886.826 645.428 886.072 644.572 885.513 643.47C884.97 642.352 884.699 641.063 884.699 639.606ZM895.327 639.631C895.327 638.546 895.022 637.69 894.411 637.063C893.818 636.436 893.089 636.123 892.225 636.123C891.36 636.123 890.623 636.436 890.013 637.063C889.42 637.673 889.123 638.521 889.123 639.606C889.123 640.691 889.42 641.555 890.013 642.199C890.623 642.826 891.36 643.14 892.225 643.14C893.089 643.14 893.818 642.826 894.411 642.199C895.022 641.572 895.327 640.716 895.327 639.631ZM920.922 632.385C922.685 632.385 924.083 632.919 925.117 633.987C926.168 635.055 926.693 636.538 926.693 638.436V646.725H922.371V639.021C922.371 638.106 922.125 637.402 921.634 636.911C921.159 636.402 920.498 636.148 919.651 636.148C918.803 636.148 918.134 636.402 917.642 636.911C917.167 637.402 916.93 638.106 916.93 639.021V646.725H912.608V639.021C912.608 638.106 912.362 637.402 911.871 636.911C911.396 636.402 910.735 636.148 909.888 636.148C909.04 636.148 908.371 636.402 907.879 636.911C907.404 637.402 907.167 638.106 907.167 639.021V646.725H902.82V632.538H907.167V634.317C907.608 633.724 908.184 633.258 908.896 632.919C909.608 632.563 910.413 632.385 911.311 632.385C912.379 632.385 913.328 632.614 914.159 633.072C915.006 633.529 915.667 634.182 916.142 635.029C916.634 634.25 917.303 633.614 918.151 633.122C918.998 632.631 919.922 632.385 920.922 632.385Z" fill="white"/>
</svg>
