<svg width="15" height="15" viewBox="0 0 15 15" fill="none" xmlns="http://www.w3.org/2000/svg">
<path d="M12.6562 2.34399H2.34375C2.09511 2.34399 1.85665 2.44277 1.68084 2.61858C1.50502 2.7944 1.40625 3.03285 1.40625 3.28149V11.719C1.40625 11.9676 1.50502 12.2061 1.68084 12.3819C1.85665 12.5577 2.09511 12.6565 2.34375 12.6565H3.12891C3.21767 12.6567 3.30463 12.6315 3.37942 12.5837C3.45422 12.5359 3.5137 12.4676 3.55078 12.387C3.78013 11.907 4.14065 11.5017 4.59066 11.218C5.04066 10.9343 5.56178 10.7837 6.09375 10.7837C6.62572 10.7837 7.14684 10.9343 7.59684 11.218C8.04685 11.5017 8.40736 11.907 8.63672 12.387C8.6738 12.4676 8.73328 12.5359 8.80807 12.5837C8.88287 12.6315 8.96983 12.6567 9.05859 12.6565H12.6562C12.9049 12.6565 13.1433 12.5577 13.3192 12.3819C13.495 12.2061 13.5938 11.9676 13.5938 11.719V3.28149C13.5938 3.03285 13.495 2.7944 13.3192 2.61858C13.1433 2.44277 12.9049 2.34399 12.6562 2.34399V2.34399ZM4.6875 8.43774C4.6875 8.15961 4.76998 7.88773 4.9245 7.65647C5.07902 7.42522 5.29864 7.24497 5.5556 7.13854C5.81256 7.0321 6.09531 7.00425 6.3681 7.05851C6.64088 7.11278 6.89145 7.24671 7.08812 7.44338C7.28479 7.64004 7.41872 7.89061 7.47298 8.1634C7.52724 8.43618 7.49939 8.71893 7.39296 8.97589C7.28652 9.23285 7.10628 9.45248 6.87502 9.607C6.64376 9.76152 6.37188 9.84399 6.09375 9.84399C5.72126 9.84245 5.36447 9.6938 5.10109 9.43041C4.8377 9.16702 4.68904 8.81023 4.6875 8.43774ZM12.6562 11.719H9.33984C8.9486 11.0459 8.35933 10.5098 7.65234 10.1838C8.00718 9.86789 8.25761 9.45156 8.37045 8.99003C8.48328 8.52851 8.45318 8.0436 8.28415 7.59957C8.11511 7.15554 7.81512 6.77337 7.42394 6.50372C7.03276 6.23407 6.56886 6.08967 6.09375 6.08967C5.61864 6.08967 5.15474 6.23407 4.76356 6.50372C4.37238 6.77337 4.07239 7.15554 3.90335 7.59957C3.73432 8.0436 3.70422 8.52851 3.81705 8.99003C3.92989 9.45156 4.18032 9.86789 4.53516 10.1838C3.82817 10.5098 3.2389 11.0459 2.84766 11.719H2.34375V3.28149H12.6562V11.719ZM3.28125 5.62524V4.68774C3.28125 4.56342 3.33064 4.4442 3.41854 4.35629C3.50645 4.26838 3.62568 4.21899 3.75 4.21899H11.25C11.3743 4.21899 11.4935 4.26838 11.5815 4.35629C11.6694 4.4442 11.7188 4.56342 11.7188 4.68774V10.3127C11.7188 10.4371 11.6694 10.5563 11.5815 10.6442C11.4935 10.7321 11.3743 10.7815 11.25 10.7815H10.3125C10.1882 10.7815 10.069 10.7321 9.98104 10.6442C9.89314 10.5563 9.84375 10.4371 9.84375 10.3127C9.84375 10.1884 9.89314 10.0692 9.98104 9.98129C10.069 9.89338 10.1882 9.84399 10.3125 9.84399H10.7812V5.15649H4.21875V5.62524C4.21875 5.74956 4.16936 5.86879 4.08146 5.9567C3.99355 6.04461 3.87432 6.09399 3.75 6.09399C3.62568 6.09399 3.50645 6.04461 3.41854 5.9567C3.33064 5.86879 3.28125 5.74956 3.28125 5.62524Z" fill="#007EF2"/>
</svg>
