<svg width="70" height="70" viewBox="0 0 70 70" fill="none" xmlns="http://www.w3.org/2000/svg">
<g clip-path="url(#clip0_1_27246)">
<path opacity="0.3" d="M58.334 11.6658H55.4173V37.9158L46.6673 31.3533L37.9173 37.9158V11.6658H23.334V46.6658H58.334V11.6658Z" fill="#00ACA5"/>
<path d="M11.6673 64.1671H52.5006V58.3337H11.6673V17.5004H5.83398V58.3337C5.83398 61.5421 8.45898 64.1671 11.6673 64.1671ZM64.1673 46.6671V11.6671C64.1673 8.45874 61.5423 5.83374 58.334 5.83374H23.334C20.1257 5.83374 17.5007 8.45874 17.5007 11.6671V46.6671C17.5007 49.8754 20.1257 52.5004 23.334 52.5004H58.334C61.5423 52.5004 64.1673 49.8754 64.1673 46.6671ZM43.7506 11.6671H49.584V26.2504L46.6673 24.0629L43.7506 26.2504V11.6671ZM23.334 11.6671H37.9173V37.9171L46.6673 31.3546L55.4173 37.9171V11.6671H58.334V46.6671H23.334V11.6671Z" fill="#007EF2"/>
</g>
<defs>
<clipPath id="clip0_1_27246">
<rect width="70" height="70" fill="white" transform="translate(0 -0.000244141)"/>
</clipPath>
</defs>
</svg>
