<svg width="194" height="25" viewBox="0 0 194 25" fill="none" xmlns="http://www.w3.org/2000/svg">
<path d="M10.264 4.424C10.2853 4.46667 10.296 4.50933 10.296 4.552C10.296 4.57333 10.3067 4.60533 10.328 4.648C10.3707 4.73333 10.36 4.81867 10.296 4.904C10.232 4.98933 10.168 5.01067 10.104 4.968C9.89067 4.92533 9.67733 4.86133 9.464 4.776C9.25067 4.66933 9.03733 4.57333 8.824 4.488C8.61067 4.40267 8.39733 4.33867 8.184 4.296C7.97067 4.25333 7.768 4.264 7.576 4.328C7.14933 4.456 6.70133 4.65867 6.232 4.936C5.784 5.21333 5.336 5.56533 4.888 5.992C4.46133 6.39733 4.056 6.87733 3.672 7.432C3.30933 7.98667 3 8.60533 2.744 9.288C2.424 10.2267 2.328 11.112 2.456 11.944C2.584 12.7547 2.872 13.4373 3.32 13.992C3.78933 14.5467 4.38667 14.952 5.112 15.208C5.85867 15.4427 6.70133 15.464 7.64 15.272C8.32267 15.1227 8.97333 14.8773 9.592 14.536C10.2107 14.1947 10.7867 13.8427 11.32 13.48C11.2133 13.6507 11.1173 13.8 11.032 13.928C10.9467 14.056 10.8187 14.2053 10.648 14.376C10.5413 14.4827 10.4347 14.632 10.328 14.824C10.2213 14.9947 10.1147 15.1333 10.008 15.24C9.26133 16.0507 8.35467 16.6373 7.288 17C7.05333 17.0853 6.85067 17.128 6.68 17.128C6.50933 17.1493 6.30667 17.1813 6.072 17.224C5.73067 17.224 5.38933 17.2347 5.048 17.256C4.70667 17.2773 4.376 17.2347 4.056 17.128C3.11733 16.808 2.31733 16.1893 1.656 15.272C1.35733 14.8667 1.10133 14.376 0.888 13.8C0.696 13.2027 0.568 12.584 0.504 11.944C0.461333 11.2827 0.482667 10.632 0.568 9.992C0.653333 9.352 0.834667 8.75467 1.112 8.2C1.688 6.96267 2.37067 5.85333 3.16 4.872C3.97067 3.89067 4.93067 3.208 6.04 2.824C6.78667 2.54667 7.68267 2.52533 8.728 2.76C8.984 2.86667 9.272 3.08 9.592 3.4C9.69867 3.50667 9.80533 3.61333 9.912 3.72C10.0187 3.82667 10.1253 3.976 10.232 4.168C10.2533 4.21067 10.2533 4.25333 10.232 4.296C10.232 4.33867 10.2427 4.38133 10.264 4.424ZM21.5635 8.392C21.5635 9.88533 21.5742 11.272 21.5955 12.552C21.6382 13.832 21.7662 15.0907 21.9795 16.328C22.0008 16.456 21.9688 16.5947 21.8835 16.744C21.7982 16.8933 21.7128 17.0213 21.6275 17.128C21.4995 17.2773 21.3822 17.416 21.2755 17.544C21.1688 17.6933 21.0622 17.7893 20.9555 17.832C20.7422 17.9387 20.6142 17.96 20.5715 17.896C20.5288 17.832 20.4968 17.7467 20.4755 17.64C20.3902 17.2347 20.2728 16.6907 20.1235 16.008C19.9955 15.304 19.9102 14.6 19.8675 13.896C19.6115 14.3227 19.3235 14.76 19.0035 15.208C18.7048 15.6347 18.3742 16.0293 18.0115 16.392C17.6702 16.7547 17.3182 17.0747 16.9555 17.352C16.5928 17.6507 16.2408 17.864 15.8995 17.992C15.7502 18.056 15.6435 18.0667 15.5795 18.024C15.5368 17.9813 15.4515 17.9387 15.3235 17.896C15.1315 17.8107 14.9395 17.7253 14.7475 17.64C14.5768 17.576 14.4382 17.4693 14.3315 17.32C14.0968 16.9147 13.9048 16.52 13.7555 16.136C13.5208 15.5173 13.3715 14.8667 13.3075 14.184C13.2648 13.5013 13.2648 12.8187 13.3075 12.136C13.3502 11.4533 13.4248 10.792 13.5315 10.152C13.6382 9.512 13.7448 8.92533 13.8515 8.392C13.8728 8.28533 13.9262 8.22133 14.0115 8.2C14.0968 8.15733 14.1502 8.08267 14.1715 7.976C14.2142 7.80533 14.2888 7.688 14.3955 7.624C14.5235 7.56 14.6515 7.50667 14.7795 7.464C14.9502 7.42133 15.0782 7.38933 15.1635 7.368C15.2702 7.32533 15.4088 7.304 15.5795 7.304C15.3875 7.92267 15.2382 8.62667 15.1315 9.416C15.0248 10.2053 14.9715 11.016 14.9715 11.848C14.9928 12.6587 15.0675 13.448 15.1955 14.216C15.3448 14.984 15.5582 15.656 15.8355 16.232C16.2408 15.9547 16.6355 15.6133 17.0195 15.208C17.4248 14.8027 17.7982 14.3867 18.1395 13.96C18.4808 13.512 18.7795 13.0853 19.0355 12.68C19.3128 12.2747 19.5155 11.9333 19.6435 11.656C19.7715 11.2293 19.8462 10.7493 19.8675 10.216C19.9102 9.66133 19.9315 9.17067 19.9315 8.744C19.9102 8.552 19.9208 8.40267 19.9635 8.296C20.0275 8.18933 20.0915 8.072 20.1555 7.944C20.1982 7.88 20.2195 7.816 20.2195 7.752C20.2408 7.688 20.2835 7.63467 20.3475 7.592C20.3902 7.54933 20.4328 7.496 20.4755 7.432C20.5395 7.34667 20.6035 7.304 20.6675 7.304C20.7955 7.304 20.8808 7.368 20.9235 7.496C20.9662 7.624 21.0302 7.72 21.1155 7.784C21.2222 7.89067 21.3182 7.976 21.4035 8.04C21.5102 8.08267 21.5635 8.2 21.5635 8.392ZM34.1025 6.664C34.1025 6.856 34.1345 7.10133 34.1985 7.4C34.2625 7.67733 34.2412 7.90133 34.1345 8.072C34.0918 8.11467 34.0705 8.2 34.0705 8.328C34.0705 8.43467 34.0385 8.50933 33.9745 8.552L33.5585 8.296C33.2172 8.12533 32.8332 8.05067 32.4065 8.072C32.0012 8.09333 31.5852 8.18933 31.1585 8.36C30.8598 8.488 30.5612 8.66933 30.2625 8.904C29.9852 9.11733 29.7185 9.36267 29.4625 9.64C29.2065 9.91733 28.9718 10.2053 28.7585 10.504C28.5452 10.8027 28.3638 11.0907 28.2145 11.368C27.8732 11.9867 27.7025 12.7333 27.7025 13.608C27.7238 14.4827 28.0438 15.6133 28.6625 17C28.6625 17.1493 28.5558 17.3307 28.3425 17.544C28.2998 17.5867 28.2465 17.6507 28.1825 17.736C28.1185 17.8213 28.0652 17.8853 28.0225 17.928C27.8518 18.0773 27.7452 18.2053 27.7025 18.312C27.6812 18.4187 27.6172 18.4933 27.5105 18.536C27.3398 18.6 27.1798 18.4507 27.0305 18.088C26.6678 17.448 26.3158 16.6693 25.9745 15.752C25.6545 14.8133 25.3452 13.8533 25.0465 12.872C24.7692 11.8907 24.5132 10.952 24.2785 10.056C24.0652 9.13867 23.8945 8.37067 23.7665 7.752C23.7025 7.58133 23.6918 7.42133 23.7345 7.272C23.7772 7.10133 23.8412 6.96267 23.9265 6.856C23.9905 6.77067 24.0652 6.74933 24.1505 6.792C24.2572 6.83467 24.3425 6.856 24.4065 6.856C24.6838 6.856 24.8545 6.90933 24.9185 7.016C24.9825 7.12267 25.0892 7.26133 25.2385 7.432C25.5372 7.77333 25.7718 8.232 25.9425 8.808C26.1132 9.384 26.3265 10.0667 26.5825 10.856C26.9238 10.28 27.3612 9.72533 27.8945 9.192C28.4492 8.65867 29.0465 8.17867 29.6865 7.752C30.3265 7.304 30.9878 6.94133 31.6705 6.664C32.3532 6.38667 33.0145 6.216 33.6545 6.152C33.7825 6.13067 33.8892 6.17333 33.9745 6.28C34.0812 6.36533 34.1238 6.49333 34.1025 6.664ZM43.6818 7.56C43.9591 8.24267 44.2151 8.97867 44.4498 9.768C44.7058 10.5573 44.8764 11.3467 44.9618 12.136C45.0684 12.904 45.0684 13.6507 44.9618 14.376C44.8764 15.1013 44.6311 15.7307 44.2258 16.264C44.0551 16.4773 43.8524 16.5627 43.6178 16.52C43.5324 16.4987 43.4578 16.4453 43.3938 16.36C43.3298 16.2747 43.2444 16.2 43.1378 16.136C43.0524 16.072 42.9564 16.0187 42.8498 15.976C42.7644 15.9333 42.6791 15.848 42.5938 15.72C42.2738 15.8267 41.9538 15.9867 41.6338 16.2C41.3351 16.392 41.0258 16.5947 40.7058 16.808C40.3858 17.0213 40.0551 17.224 39.7138 17.416C39.3724 17.6293 39.0204 17.7787 38.6578 17.864C38.2738 17.9707 37.9858 17.9493 37.7938 17.8C37.6231 17.672 37.4311 17.5227 37.2178 17.352C37.0684 17.224 36.9724 17.1387 36.9298 17.096C36.8871 17.0747 36.8444 16.9467 36.8018 16.712C36.7378 16.2427 36.7271 15.7413 36.7698 15.208C36.8338 14.6533 36.9618 14.0987 37.1538 13.544C37.6871 11.9227 38.7751 10.8347 40.4178 10.28C40.6098 10.216 40.8018 10.2053 40.9938 10.248C41.2071 10.2693 41.4098 10.3227 41.6018 10.408C41.7938 10.4933 41.9751 10.6 42.1458 10.728C42.3378 10.856 42.5084 10.984 42.6578 11.112L43.1698 11.528C43.2764 11.1653 43.2658 10.7813 43.1378 10.376C43.0311 9.94933 42.8604 9.55467 42.6258 9.192C42.3911 8.808 42.1244 8.46667 41.8258 8.168C41.5271 7.86933 41.2391 7.66667 40.9618 7.56C39.8738 7.56 38.8924 7.816 38.0178 8.328C37.1644 8.81867 36.3324 9.46933 35.5218 10.28C35.4791 10.3227 35.4258 10.3547 35.3618 10.376C35.3191 10.3973 35.2764 10.4187 35.2338 10.44C35.1698 10.4827 35.0951 10.4933 35.0098 10.472C34.9458 10.4507 34.9351 10.3867 34.9778 10.28C35.1058 9.59733 35.3618 8.98933 35.7458 8.456C36.1298 7.90133 36.5778 7.42133 37.0898 7.016C37.6018 6.61067 38.1458 6.26933 38.7218 5.992C39.2978 5.71467 39.8631 5.512 40.4178 5.384C40.5031 5.34133 40.5778 5.32 40.6418 5.32C40.7271 5.29867 40.8231 5.288 40.9298 5.288C41.0791 5.288 41.2178 5.33067 41.3458 5.416C41.4738 5.50133 41.6231 5.59733 41.7938 5.704C42.0071 5.81067 42.2204 5.93867 42.4338 6.088C42.6471 6.216 42.8391 6.376 43.0098 6.568C43.1591 6.73867 43.2871 6.90933 43.3938 7.08C43.5004 7.25067 43.5964 7.41067 43.6818 7.56ZM42.5938 13.256C42.4658 12.9787 42.2631 12.7227 41.9858 12.488C41.7298 12.2533 41.4311 12.0827 41.0898 11.976C40.7484 11.848 40.3751 11.816 39.9698 11.88C39.5858 11.944 39.1911 12.136 38.7858 12.456C38.6578 12.7333 38.5298 13.0427 38.4018 13.384C38.2738 13.704 38.1778 14.0347 38.1138 14.376C38.0498 14.696 38.0178 15.0267 38.0178 15.368C38.0391 15.688 38.1138 15.9867 38.2418 16.264C39.0524 15.9867 39.8418 15.6667 40.6098 15.304C41.3778 14.9413 42.0391 14.6213 42.5938 14.344C42.7218 14.216 42.7964 14.1093 42.8177 14.024C42.8391 13.9387 42.8284 13.864 42.7858 13.8C42.7644 13.736 42.7218 13.6613 42.6578 13.576C42.6151 13.4907 42.5938 13.384 42.5938 13.256ZM58.573 9.928C58.6157 9.97067 58.6477 9.992 58.669 9.992C58.6903 9.992 58.701 10.0133 58.701 10.056C58.6797 10.0987 58.6263 10.152 58.541 10.216C58.477 10.2587 58.349 10.2907 58.157 10.312C58.093 10.3333 58.0077 10.376 57.901 10.44C57.7943 10.4827 57.709 10.5147 57.645 10.536C57.069 10.664 56.3863 10.7813 55.597 10.888C54.829 10.9947 54.029 11.0907 53.197 11.176C53.1543 11.9227 53.133 12.616 53.133 13.256C53.1543 13.896 53.1863 14.4507 53.229 14.92C53.2717 15.2827 53.4423 15.464 53.741 15.464C54.0397 15.4427 54.349 15.3787 54.669 15.272C54.7543 15.2507 54.9783 15.1547 55.341 14.984C55.725 14.792 56.1623 14.5787 56.653 14.344C57.165 14.088 57.6983 13.8213 58.253 13.544C58.8077 13.2453 59.309 12.9787 59.757 12.744C59.757 13.0427 59.597 13.3307 59.277 13.608C59.1063 13.7573 58.9143 13.896 58.701 14.024C58.509 14.152 58.3063 14.2907 58.093 14.44C57.8583 14.5893 57.6983 14.7493 57.613 14.92C57.5277 15.0907 57.3357 15.272 57.037 15.464C56.4823 15.8267 55.885 16.1573 55.245 16.456C54.605 16.7547 54.029 16.968 53.517 17.096C53.3463 17.1387 53.165 17.16 52.973 17.16C52.8023 17.16 52.6317 17.192 52.461 17.256C52.205 17.3627 52.0023 17.3413 51.853 17.192C51.725 17.0427 51.6397 16.8293 51.597 16.552C51.5117 15.7627 51.4477 14.92 51.405 14.024C51.3837 13.128 51.3837 12.2213 51.405 11.304C50.765 11.3467 50.1677 11.368 49.613 11.368C49.0797 11.3467 48.6423 11.304 48.301 11.24C47.981 11.1973 47.6823 11.1333 47.405 11.048C47.149 10.9413 46.9143 10.7813 46.701 10.568C46.509 10.568 46.445 10.4827 46.509 10.312C46.5943 10.12 46.6583 9.96 46.701 9.832C47.149 9.81067 47.7997 9.78933 48.653 9.768C49.5277 9.72533 50.4663 9.68267 51.469 9.64C51.5543 7.86933 51.7037 6.22667 51.917 4.712C52.1303 3.19733 52.3863 2.06667 52.685 1.32C52.685 1.128 52.7597 0.999999 52.909 0.935999C53.0797 0.850665 53.2503 0.754665 53.421 0.647999C53.5063 0.605333 53.5917 0.551999 53.677 0.487999C53.7837 0.402665 53.9223 0.359999 54.093 0.359999C54.285 0.466665 54.4237 0.562665 54.509 0.647999C54.5943 0.711999 54.637 0.797333 54.637 0.903999C54.637 1.01067 54.605 1.13867 54.541 1.288C54.477 1.43733 54.4023 1.62933 54.317 1.864C54.2743 1.928 54.2103 2.19467 54.125 2.664C54.0397 3.13333 53.9437 3.73067 53.837 4.456C53.7517 5.16 53.6557 5.97067 53.549 6.888C53.4423 7.784 53.357 8.69067 53.293 9.608C53.997 9.608 54.669 9.61867 55.309 9.64C55.949 9.64 56.5143 9.66133 57.005 9.704L58.573 9.928ZM67.57 7.144C67.7193 7.29333 67.858 7.464 67.986 7.656C68.114 7.82667 68.2207 8.008 68.306 8.2C68.4767 8.60533 68.562 9.01067 68.562 9.416C68.5833 9.8 68.434 10.2693 68.114 10.824C67.7513 11.4213 67.282 11.9227 66.706 12.328C66.1513 12.7333 65.5433 12.9893 64.882 13.096C64.4127 13.1813 63.9433 13.1813 63.474 13.096C63.0047 12.9893 62.5567 12.776 62.13 12.456C62.002 12.5627 61.8953 12.7227 61.81 12.936C61.746 13.128 61.7247 13.3093 61.746 13.48C61.7887 13.7787 61.8953 14.1093 62.066 14.472C62.258 14.8133 62.4607 15.048 62.674 15.176C63.0367 15.3253 63.538 15.336 64.178 15.208C64.8393 15.08 65.5327 14.888 66.258 14.632C67.0047 14.3547 67.73 14.056 68.434 13.736C69.1593 13.3947 69.778 13.1067 70.29 12.872C70.29 13 70.258 13.0853 70.194 13.128C70.1513 13.1707 70.0873 13.2453 70.002 13.352C69.8953 13.4587 69.778 13.5867 69.65 13.736C69.522 13.8853 69.3727 14.0133 69.202 14.12C68.9887 14.248 68.8287 14.4187 68.722 14.632C68.6153 14.824 68.4127 15.0053 68.114 15.176C67.7087 15.3893 67.2927 15.6133 66.866 15.848C66.4607 16.0613 66.0553 16.264 65.65 16.456C65.2447 16.6267 64.8287 16.7653 64.402 16.872C63.9967 16.9573 63.5913 16.9787 63.186 16.936C62.9087 16.8933 62.674 16.8187 62.482 16.712C62.3113 16.6053 62.098 16.4453 61.842 16.232C61.714 16.1253 61.5647 16.0187 61.394 15.912C61.2233 15.8053 61.0953 15.6987 61.01 15.592C60.6473 15.0587 60.402 14.4933 60.274 13.896C60.146 13.2773 60.114 12.6693 60.178 12.072C60.2633 11.4533 60.4233 10.856 60.658 10.28C60.8927 9.68267 61.202 9.13867 61.586 8.648C61.7993 8.37067 62.0553 8.09333 62.354 7.816C62.674 7.51733 63.0153 7.26133 63.378 7.048C63.762 6.81333 64.1567 6.632 64.562 6.504C64.9887 6.376 65.4153 6.32267 65.842 6.344C66.0127 6.36533 66.162 6.41867 66.29 6.504C66.4393 6.568 66.5993 6.64267 66.77 6.728C66.8767 6.77067 67.0047 6.83467 67.154 6.92C67.3247 6.984 67.4633 7.05867 67.57 7.144ZM66.642 9.032C66.5993 8.84 66.482 8.66933 66.29 8.52C66.098 8.37067 65.8847 8.25333 65.65 8.168C65.4153 8.06133 65.1807 7.99733 64.946 7.976C64.7113 7.95467 64.5407 7.96533 64.434 8.008C64.2633 8.072 64.0607 8.18933 63.826 8.36C63.6127 8.50933 63.3993 8.69067 63.186 8.904C62.994 9.11733 62.802 9.352 62.61 9.608C62.4393 9.84267 62.3113 10.0667 62.226 10.28C62.1833 10.344 62.1407 10.4507 62.098 10.6C62.0767 10.728 62.0873 10.824 62.13 10.888C62.386 11.208 62.77 11.368 63.282 11.368C63.7727 11.368 64.2953 11.2507 64.85 11.016C65.426 10.7813 65.8313 10.536 66.066 10.28C66.0873 10.2373 66.13 10.1627 66.194 10.056C66.2793 9.94933 66.354 9.832 66.418 9.704C66.482 9.576 66.5353 9.448 66.578 9.32C66.642 9.192 66.6633 9.096 66.642 9.032ZM87.0373 20.904C86.9733 21.16 86.9093 21.3733 86.8453 21.544C86.7813 21.736 86.7173 21.9067 86.6533 22.056C86.5893 22.2053 86.5146 22.344 86.4293 22.472C86.3439 22.6 86.2479 22.76 86.1413 22.952C86.0346 23.0373 85.9173 23.1973 85.7893 23.432C85.6826 23.688 85.5226 23.8587 85.3093 23.944C84.7333 24.1787 84.0826 24.3813 83.3573 24.552C82.6533 24.7227 82.0666 24.776 81.5973 24.712C81.5546 24.6907 81.5013 24.68 81.4373 24.68C81.3946 24.7013 81.3626 24.6907 81.3413 24.648C81.2346 24.4347 81.2559 24.2533 81.4053 24.104C81.5759 23.976 81.6826 23.8267 81.7253 23.656C81.7679 23.5493 81.8106 23.4213 81.8533 23.272C81.8959 23.144 81.9706 23.0373 82.0773 22.952C82.2906 22.8453 82.5999 22.7387 83.0052 22.632C83.4106 22.5467 83.8053 22.4187 84.1893 22.248C84.5946 22.0773 84.9573 21.8427 85.2773 21.544C85.6186 21.2667 85.8426 20.872 85.9493 20.36C86.0773 19.6987 86.1839 18.9733 86.2693 18.184C86.3546 17.3947 86.4186 16.5947 86.4613 15.784C86.5253 14.9733 86.5679 14.1733 86.5893 13.384C86.6319 12.5947 86.6639 11.8587 86.6853 11.176C86.5573 11.432 86.3759 11.7307 86.1413 12.072C85.9066 12.392 85.6506 12.712 85.3733 13.032C85.0959 13.352 84.8186 13.64 84.5413 13.896C84.2639 14.152 84.0079 14.344 83.7733 14.472C83.4959 14.6213 83.2719 14.7707 83.1013 14.92C82.9306 15.048 82.7599 15.1867 82.5893 15.336C82.4613 15.4427 82.2906 15.4427 82.0773 15.336C81.8639 15.2293 81.6719 15.0373 81.5013 14.76C81.3093 14.4187 81.1279 14.0027 80.9573 13.512C80.7866 13 80.6159 12.4667 80.4453 11.912C80.2746 11.336 80.1039 10.7493 79.9333 10.152C79.7626 9.53333 79.5919 8.94667 79.4213 8.392C79.2719 7.98667 79.2826 7.69867 79.4533 7.528C79.6026 7.37867 79.7733 7.304 79.9653 7.304C80.1359 7.304 80.2319 7.35733 80.2533 7.464C80.2959 7.54933 80.4026 7.60267 80.5733 7.624C80.7226 7.64533 80.8293 7.69867 80.8932 7.784C80.9786 7.86933 81.0746 7.944 81.1813 8.008C81.3093 8.09333 81.3946 8.17867 81.4373 8.264C81.5013 8.34933 81.5653 8.49867 81.6293 8.712C81.7359 9.11733 81.8213 9.50133 81.8853 9.864C81.9706 10.2053 82.0453 10.5467 82.1093 10.888C82.1946 11.2293 82.2799 11.5813 82.3653 11.944C82.4719 12.2853 82.5893 12.6587 82.7173 13.064C83.2933 12.68 83.7946 12.264 84.2213 11.816C84.6693 11.3467 85.0639 10.8773 85.4053 10.408C85.7679 9.91733 86.0879 9.448 86.3653 9C86.6426 8.53067 86.8986 8.08267 87.1333 7.656C87.2186 7.528 87.3253 7.34667 87.4533 7.112C87.5813 6.87733 87.6986 6.70667 87.8053 6.6C87.8693 6.536 87.9226 6.472 87.9653 6.408C88.0079 6.32267 88.0613 6.25867 88.1253 6.216C88.2106 6.30133 88.2639 6.39733 88.2853 6.504C88.3066 6.61067 88.3279 6.728 88.3493 6.856C88.3919 7.21867 88.3599 7.61333 88.2533 8.04C88.1679 8.44533 88.1253 8.744 88.1253 8.936C88.1253 9.896 88.1253 10.8773 88.1253 11.88C88.1253 12.8827 88.0933 13.8853 88.0293 14.888C87.9653 15.8907 87.8586 16.8933 87.7093 17.896C87.5599 18.92 87.3359 19.9227 87.0373 20.904ZM94.6238 7.752L94.0798 8.296C94.2504 8.27467 94.5064 8.232 94.8478 8.168C95.2104 8.08267 95.5624 8.04 95.9038 8.04C96.1598 8.08267 96.3731 8.168 96.5438 8.296C96.7144 8.424 96.8211 8.66933 96.8638 9.032C96.9491 9.544 97.0771 10.0667 97.2478 10.6C97.4398 11.112 97.5784 11.624 97.6638 12.136C97.7704 12.648 97.7704 13.1387 97.6638 13.608C97.5571 14.056 97.2691 14.4613 96.7998 14.824C96.3091 15.5707 95.7651 16.2 95.1678 16.712C94.5918 17.2027 93.9838 17.4907 93.3438 17.576C92.9171 17.64 92.4478 17.576 91.9358 17.384C91.4238 17.2133 91.0504 16.904 90.8158 16.456C90.7518 16.4987 90.6984 16.5093 90.6558 16.488C90.6131 16.4453 90.5704 16.4027 90.5278 16.36C90.4851 16.3173 90.4424 16.3067 90.3997 16.328C90.3784 16.3493 90.3571 16.3387 90.3358 16.296C90.3144 16.232 90.3038 16.1467 90.3038 16.04V15.976V15.912C90.3251 15.1653 90.3891 14.4187 90.4958 13.672C90.6238 12.904 90.8051 12.168 91.0398 11.464C91.2958 10.7387 91.6158 10.0667 91.9998 9.448C92.4051 8.808 92.9171 8.24267 93.5358 7.752C93.7491 7.624 93.9838 7.58133 94.2398 7.624C94.2824 7.624 94.3358 7.624 94.3998 7.624C94.4638 7.624 94.5384 7.66667 94.6238 7.752ZM93.5358 9.928C93.4078 9.90667 93.3331 9.864 93.3118 9.8C93.2904 9.736 93.2904 9.66133 93.3118 9.576C93.3544 9.46933 93.3971 9.352 93.4398 9.224C93.5038 9.096 93.5358 8.968 93.5358 8.84C93.0878 9.24533 92.7358 9.736 92.4798 10.312C92.2451 10.888 92.0744 11.4853 91.9678 12.104C91.8611 12.7013 91.8078 13.288 91.8078 13.864C91.8291 14.44 91.8611 14.9413 91.9038 15.368C91.9464 15.7307 92.0211 16.0293 92.1278 16.264C92.2344 16.4773 92.3944 16.6053 92.6078 16.648C92.8424 16.712 93.1518 16.648 93.5358 16.456C94.0904 16.1787 94.5384 15.7947 94.8798 15.304C95.2211 14.8133 95.4984 14.2907 95.7118 13.736C95.7971 13.4373 95.8611 13.0853 95.9038 12.68C95.9678 12.2533 95.9571 11.8587 95.8718 11.496C95.7651 11.0053 95.4878 10.6533 95.0398 10.44C94.6131 10.2053 94.1118 10.0347 93.5358 9.928ZM108.001 8.392C108.001 9.88533 108.012 11.272 108.033 12.552C108.076 13.832 108.204 15.0907 108.417 16.328C108.438 16.456 108.406 16.5947 108.321 16.744C108.236 16.8933 108.15 17.0213 108.065 17.128C107.937 17.2773 107.82 17.416 107.713 17.544C107.606 17.6933 107.5 17.7893 107.393 17.832C107.18 17.9387 107.052 17.96 107.009 17.896C106.966 17.832 106.934 17.7467 106.913 17.64C106.828 17.2347 106.71 16.6907 106.561 16.008C106.433 15.304 106.348 14.6 106.305 13.896C106.049 14.3227 105.761 14.76 105.441 15.208C105.142 15.6347 104.812 16.0293 104.449 16.392C104.108 16.7547 103.756 17.0747 103.393 17.352C103.03 17.6507 102.678 17.864 102.337 17.992C102.188 18.056 102.081 18.0667 102.017 18.024C101.974 17.9813 101.889 17.9387 101.761 17.896C101.569 17.8107 101.377 17.7253 101.185 17.64C101.014 17.576 100.876 17.4693 100.769 17.32C100.534 16.9147 100.342 16.52 100.193 16.136C99.9583 15.5173 99.809 14.8667 99.745 14.184C99.7023 13.5013 99.7023 12.8187 99.745 12.136C99.7877 11.4533 99.8623 10.792 99.969 10.152C100.076 9.512 100.182 8.92533 100.289 8.392C100.31 8.28533 100.364 8.22133 100.449 8.2C100.534 8.15733 100.588 8.08267 100.609 7.976C100.652 7.80533 100.726 7.688 100.833 7.624C100.961 7.56 101.089 7.50667 101.217 7.464C101.388 7.42133 101.516 7.38933 101.601 7.368C101.708 7.32533 101.846 7.304 102.017 7.304C101.825 7.92267 101.676 8.62667 101.569 9.416C101.462 10.2053 101.409 11.016 101.409 11.848C101.43 12.6587 101.505 13.448 101.633 14.216C101.782 14.984 101.996 15.656 102.273 16.232C102.678 15.9547 103.073 15.6133 103.457 15.208C103.862 14.8027 104.236 14.3867 104.577 13.96C104.918 13.512 105.217 13.0853 105.473 12.68C105.75 12.2747 105.953 11.9333 106.081 11.656C106.209 11.2293 106.284 10.7493 106.305 10.216C106.348 9.66133 106.369 9.17067 106.369 8.744C106.348 8.552 106.358 8.40267 106.401 8.296C106.465 8.18933 106.529 8.072 106.593 7.944C106.636 7.88 106.657 7.816 106.657 7.752C106.678 7.688 106.721 7.63467 106.785 7.592C106.828 7.54933 106.87 7.496 106.913 7.432C106.977 7.34667 107.041 7.304 107.105 7.304C107.233 7.304 107.318 7.368 107.361 7.496C107.404 7.624 107.468 7.72 107.553 7.784C107.66 7.89067 107.756 7.976 107.841 8.04C107.948 8.08267 108.001 8.2 108.001 8.392ZM120.54 6.664C120.54 6.856 120.572 7.10133 120.636 7.4C120.7 7.67733 120.679 7.90133 120.572 8.072C120.529 8.11467 120.508 8.2 120.508 8.328C120.508 8.43467 120.476 8.50933 120.412 8.552L119.996 8.296C119.655 8.12533 119.271 8.05067 118.844 8.072C118.439 8.09333 118.023 8.18933 117.596 8.36C117.297 8.488 116.999 8.66933 116.7 8.904C116.423 9.11733 116.156 9.36267 115.9 9.64C115.644 9.91733 115.409 10.2053 115.196 10.504C114.983 10.8027 114.801 11.0907 114.652 11.368C114.311 11.9867 114.14 12.7333 114.14 13.608C114.161 14.4827 114.481 15.6133 115.1 17C115.1 17.1493 114.993 17.3307 114.78 17.544C114.737 17.5867 114.684 17.6507 114.62 17.736C114.556 17.8213 114.503 17.8853 114.46 17.928C114.289 18.0773 114.183 18.2053 114.14 18.312C114.119 18.4187 114.055 18.4933 113.948 18.536C113.777 18.6 113.617 18.4507 113.468 18.088C113.105 17.448 112.753 16.6693 112.412 15.752C112.092 14.8133 111.783 13.8533 111.484 12.872C111.207 11.8907 110.951 10.952 110.716 10.056C110.503 9.13867 110.332 8.37067 110.204 7.752C110.14 7.58133 110.129 7.42133 110.172 7.272C110.215 7.10133 110.279 6.96267 110.364 6.856C110.428 6.77067 110.503 6.74933 110.588 6.792C110.695 6.83467 110.78 6.856 110.844 6.856C111.121 6.856 111.292 6.90933 111.356 7.016C111.42 7.12267 111.527 7.26133 111.676 7.432C111.975 7.77333 112.209 8.232 112.38 8.808C112.551 9.384 112.764 10.0667 113.02 10.856C113.361 10.28 113.799 9.72533 114.332 9.192C114.887 8.65867 115.484 8.17867 116.124 7.752C116.764 7.304 117.425 6.94133 118.108 6.664C118.791 6.38667 119.452 6.216 120.092 6.152C120.22 6.13067 120.327 6.17333 120.412 6.28C120.519 6.36533 120.561 6.49333 120.54 6.664ZM138.16 9.192C138.224 9.29867 138.245 9.40533 138.224 9.512C138.224 9.59733 138.213 9.672 138.192 9.736C138.021 9.928 137.883 10.056 137.776 10.12C137.669 10.184 137.488 10.28 137.232 10.408C137.168 10.4507 137.104 10.4933 137.04 10.536C136.997 10.5787 136.944 10.6 136.88 10.6C136.773 10.6 136.603 10.5147 136.368 10.344C136.155 10.1733 135.92 10.0027 135.664 9.832C135.408 9.66133 135.131 9.53333 134.832 9.448C134.555 9.36267 134.299 9.39467 134.064 9.544C133.829 9.864 133.605 10.28 133.392 10.792C133.179 11.2827 133.008 11.8053 132.88 12.36C132.773 12.9147 132.741 13.48 132.784 14.056C132.827 14.632 132.997 15.1653 133.296 15.656C134.533 15.784 135.632 15.5813 136.592 15.048C137.552 14.4933 138.437 13.8107 139.248 13C139.248 13.1493 139.205 13.288 139.12 13.416C139.056 13.5227 138.992 13.64 138.928 13.768C138.843 13.96 138.747 14.152 138.64 14.344C138.555 14.5147 138.427 14.6853 138.256 14.856C137.957 15.176 137.616 15.4853 137.232 15.784C136.869 16.0827 136.475 16.3493 136.048 16.584C135.643 16.7973 135.216 16.9573 134.768 17.064C134.341 17.192 133.915 17.2347 133.488 17.192C133.253 17.1707 133.083 17.1067 132.976 17C132.891 16.9147 132.731 16.8187 132.496 16.712C132.368 16.6267 132.197 16.552 131.984 16.488C131.792 16.424 131.643 16.3387 131.536 16.232C131.323 15.976 131.163 15.6667 131.056 15.304C130.907 14.8347 130.832 14.3227 130.832 13.768C130.832 13.2133 130.864 12.68 130.928 12.168C131.013 11.6347 131.12 11.1547 131.248 10.728C131.397 10.3013 131.525 9.97067 131.632 9.736C131.76 9.45867 131.952 9.224 132.208 9.032C132.464 8.81867 132.741 8.62667 133.04 8.456C133.36 8.28533 133.68 8.12533 134 7.976C134.32 7.82667 134.619 7.688 134.896 7.56C135.984 7.56 137.072 8.104 138.16 9.192ZM145.124 7.752L144.58 8.296C144.75 8.27467 145.006 8.232 145.348 8.168C145.71 8.08267 146.062 8.04 146.404 8.04C146.66 8.08267 146.873 8.168 147.044 8.296C147.214 8.424 147.321 8.66933 147.364 9.032C147.449 9.544 147.577 10.0667 147.748 10.6C147.94 11.112 148.078 11.624 148.164 12.136C148.27 12.648 148.27 13.1387 148.164 13.608C148.057 14.056 147.769 14.4613 147.3 14.824C146.809 15.5707 146.265 16.2 145.668 16.712C145.092 17.2027 144.484 17.4907 143.844 17.576C143.417 17.64 142.948 17.576 142.436 17.384C141.924 17.2133 141.55 16.904 141.316 16.456C141.252 16.4987 141.198 16.5093 141.156 16.488C141.113 16.4453 141.07 16.4027 141.028 16.36C140.985 16.3173 140.942 16.3067 140.9 16.328C140.878 16.3493 140.857 16.3387 140.836 16.296C140.814 16.232 140.804 16.1467 140.804 16.04V15.976V15.912C140.825 15.1653 140.889 14.4187 140.996 13.672C141.124 12.904 141.305 12.168 141.54 11.464C141.796 10.7387 142.116 10.0667 142.5 9.448C142.905 8.808 143.417 8.24267 144.036 7.752C144.249 7.624 144.484 7.58133 144.74 7.624C144.782 7.624 144.836 7.624 144.9 7.624C144.964 7.624 145.038 7.66667 145.124 7.752ZM144.036 9.928C143.908 9.90667 143.833 9.864 143.812 9.8C143.79 9.736 143.79 9.66133 143.812 9.576C143.854 9.46933 143.897 9.352 143.94 9.224C144.004 9.096 144.036 8.968 144.036 8.84C143.588 9.24533 143.236 9.736 142.98 10.312C142.745 10.888 142.574 11.4853 142.468 12.104C142.361 12.7013 142.308 13.288 142.308 13.864C142.329 14.44 142.361 14.9413 142.404 15.368C142.446 15.7307 142.521 16.0293 142.628 16.264C142.734 16.4773 142.894 16.6053 143.108 16.648C143.342 16.712 143.652 16.648 144.036 16.456C144.59 16.1787 145.038 15.7947 145.38 15.304C145.721 14.8133 145.998 14.2907 146.212 13.736C146.297 13.4373 146.361 13.0853 146.404 12.68C146.468 12.2533 146.457 11.8587 146.372 11.496C146.265 11.0053 145.988 10.6533 145.54 10.44C145.113 10.2053 144.612 10.0347 144.036 9.928ZM158.501 8.392C158.501 9.88533 158.512 11.272 158.533 12.552C158.576 13.832 158.704 15.0907 158.917 16.328C158.938 16.456 158.906 16.5947 158.821 16.744C158.736 16.8933 158.65 17.0213 158.565 17.128C158.437 17.2773 158.32 17.416 158.213 17.544C158.106 17.6933 158 17.7893 157.893 17.832C157.68 17.9387 157.552 17.96 157.509 17.896C157.466 17.832 157.434 17.7467 157.413 17.64C157.328 17.2347 157.21 16.6907 157.061 16.008C156.933 15.304 156.848 14.6 156.805 13.896C156.549 14.3227 156.261 14.76 155.941 15.208C155.642 15.6347 155.312 16.0293 154.949 16.392C154.608 16.7547 154.256 17.0747 153.893 17.352C153.53 17.6507 153.178 17.864 152.837 17.992C152.688 18.056 152.581 18.0667 152.517 18.024C152.474 17.9813 152.389 17.9387 152.261 17.896C152.069 17.8107 151.877 17.7253 151.685 17.64C151.514 17.576 151.376 17.4693 151.269 17.32C151.034 16.9147 150.842 16.52 150.693 16.136C150.458 15.5173 150.309 14.8667 150.245 14.184C150.202 13.5013 150.202 12.8187 150.245 12.136C150.288 11.4533 150.362 10.792 150.469 10.152C150.576 9.512 150.682 8.92533 150.789 8.392C150.81 8.28533 150.864 8.22133 150.949 8.2C151.034 8.15733 151.088 8.08267 151.109 7.976C151.152 7.80533 151.226 7.688 151.333 7.624C151.461 7.56 151.589 7.50667 151.717 7.464C151.888 7.42133 152.016 7.38933 152.101 7.368C152.208 7.32533 152.346 7.304 152.517 7.304C152.325 7.92267 152.176 8.62667 152.069 9.416C151.962 10.2053 151.909 11.016 151.909 11.848C151.93 12.6587 152.005 13.448 152.133 14.216C152.282 14.984 152.496 15.656 152.773 16.232C153.178 15.9547 153.573 15.6133 153.957 15.208C154.362 14.8027 154.736 14.3867 155.077 13.96C155.418 13.512 155.717 13.0853 155.973 12.68C156.25 12.2747 156.453 11.9333 156.581 11.656C156.709 11.2293 156.784 10.7493 156.805 10.216C156.848 9.66133 156.869 9.17067 156.869 8.744C156.848 8.552 156.858 8.40267 156.901 8.296C156.965 8.18933 157.029 8.072 157.093 7.944C157.136 7.88 157.157 7.816 157.157 7.752C157.178 7.688 157.221 7.63467 157.285 7.592C157.328 7.54933 157.37 7.496 157.413 7.432C157.477 7.34667 157.541 7.304 157.605 7.304C157.733 7.304 157.818 7.368 157.861 7.496C157.904 7.624 157.968 7.72 158.053 7.784C158.16 7.89067 158.256 7.976 158.341 8.04C158.448 8.08267 158.501 8.2 158.501 8.392ZM171.04 6.664C171.04 6.856 171.072 7.10133 171.136 7.4C171.2 7.67733 171.179 7.90133 171.072 8.072C171.029 8.11467 171.008 8.2 171.008 8.328C171.008 8.43467 170.976 8.50933 170.912 8.552L170.496 8.296C170.155 8.12533 169.771 8.05067 169.344 8.072C168.939 8.09333 168.523 8.18933 168.096 8.36C167.797 8.488 167.499 8.66933 167.2 8.904C166.923 9.11733 166.656 9.36267 166.4 9.64C166.144 9.91733 165.909 10.2053 165.696 10.504C165.483 10.8027 165.301 11.0907 165.152 11.368C164.811 11.9867 164.64 12.7333 164.64 13.608C164.661 14.4827 164.981 15.6133 165.6 17C165.6 17.1493 165.493 17.3307 165.28 17.544C165.237 17.5867 165.184 17.6507 165.12 17.736C165.056 17.8213 165.003 17.8853 164.96 17.928C164.789 18.0773 164.683 18.2053 164.64 18.312C164.619 18.4187 164.555 18.4933 164.448 18.536C164.277 18.6 164.117 18.4507 163.968 18.088C163.605 17.448 163.253 16.6693 162.912 15.752C162.592 14.8133 162.283 13.8533 161.984 12.872C161.707 11.8907 161.451 10.952 161.216 10.056C161.003 9.13867 160.832 8.37067 160.704 7.752C160.64 7.58133 160.629 7.42133 160.672 7.272C160.715 7.10133 160.779 6.96267 160.864 6.856C160.928 6.77067 161.003 6.74933 161.088 6.792C161.195 6.83467 161.28 6.856 161.344 6.856C161.621 6.856 161.792 6.90933 161.856 7.016C161.92 7.12267 162.027 7.26133 162.176 7.432C162.475 7.77333 162.709 8.232 162.88 8.808C163.051 9.384 163.264 10.0667 163.52 10.856C163.861 10.28 164.299 9.72533 164.832 9.192C165.387 8.65867 165.984 8.17867 166.624 7.752C167.264 7.304 167.925 6.94133 168.608 6.664C169.291 6.38667 169.952 6.216 170.592 6.152C170.72 6.13067 170.827 6.17333 170.912 6.28C171.019 6.36533 171.061 6.49333 171.04 6.664ZM180.491 8.328C180.385 8.648 180.299 8.89333 180.235 9.064C180.171 9.23467 180.075 9.256 179.947 9.128C179.649 8.82933 179.286 8.50933 178.859 8.168C178.433 7.82667 177.91 7.61333 177.291 7.528C176.886 7.48533 176.449 7.53867 175.979 7.688C175.531 7.816 175.19 8.104 174.955 8.552C174.742 8.936 174.71 9.39467 174.859 9.928C174.987 10.4827 175.265 10.888 175.691 11.144C176.139 11.3787 176.63 11.5707 177.163 11.72C177.718 11.848 178.273 11.9653 178.827 12.072C179.403 12.1787 179.894 12.3707 180.299 12.648C180.427 12.712 180.523 12.8187 180.587 12.968C180.673 13.096 180.758 13.2133 180.843 13.32C180.95 13.448 181.046 13.5547 181.131 13.64C181.238 13.7253 181.334 13.8533 181.419 14.024C181.483 14.152 181.558 14.312 181.643 14.504C181.729 14.6747 181.75 14.8667 181.707 15.08C181.643 15.3573 181.377 15.656 180.907 15.976C179.883 16.6373 178.806 17.16 177.675 17.544C176.545 17.9493 175.35 18.024 174.091 17.768C173.942 17.7253 173.771 17.576 173.579 17.32C173.387 17.0853 173.227 16.9253 173.099 16.84C172.758 16.648 172.523 16.4027 172.395 16.104C172.225 15.5493 172.139 14.9413 172.139 14.28C172.139 14.0667 172.171 13.9707 172.235 13.992C172.321 13.992 172.395 13.992 172.459 13.992C172.587 13.992 172.726 14.0773 172.875 14.248C173.046 14.4187 173.217 14.6213 173.387 14.856C173.579 15.0693 173.75 15.272 173.899 15.464C174.07 15.6347 174.209 15.72 174.315 15.72C174.678 15.8907 175.115 15.9867 175.627 16.008C176.139 16.0293 176.651 15.9867 177.163 15.88C177.697 15.752 178.187 15.56 178.635 15.304C179.105 15.0267 179.478 14.6853 179.755 14.28C179.755 14.1733 179.627 14.0453 179.371 13.896C179.137 13.7467 178.827 13.5867 178.443 13.416C178.059 13.224 177.633 13.032 177.163 12.84C176.715 12.648 176.278 12.4453 175.851 12.232C175.446 12.0187 175.083 11.7947 174.763 11.56C174.465 11.3253 174.262 11.0907 174.155 10.856C174.091 10.6853 174.017 10.5147 173.931 10.344C173.846 10.152 173.793 10.0133 173.771 9.928C173.665 9.45867 173.643 9.01067 173.707 8.584C173.771 8.136 173.899 7.74133 174.091 7.4C174.283 7.05867 174.539 6.78133 174.859 6.568C175.179 6.33333 175.542 6.184 175.947 6.12C176.587 6.03467 177.27 6.03467 177.995 6.12C178.742 6.184 179.403 6.42933 179.979 6.856C180.15 7.00533 180.267 7.144 180.331 7.272C180.417 7.4 180.481 7.54933 180.523 7.72C180.545 7.82667 180.566 7.93333 180.587 8.04C180.609 8.12533 180.577 8.22133 180.491 8.328ZM190.726 7.144C190.876 7.29333 191.014 7.464 191.142 7.656C191.27 7.82667 191.377 8.008 191.462 8.2C191.633 8.60533 191.718 9.01067 191.718 9.416C191.74 9.8 191.59 10.2693 191.27 10.824C190.908 11.4213 190.438 11.9227 189.862 12.328C189.308 12.7333 188.7 12.9893 188.038 13.096C187.569 13.1813 187.1 13.1813 186.63 13.096C186.161 12.9893 185.713 12.776 185.286 12.456C185.158 12.5627 185.052 12.7227 184.966 12.936C184.902 13.128 184.881 13.3093 184.902 13.48C184.945 13.7787 185.052 14.1093 185.222 14.472C185.414 14.8133 185.617 15.048 185.83 15.176C186.193 15.3253 186.694 15.336 187.334 15.208C187.996 15.08 188.689 14.888 189.414 14.632C190.161 14.3547 190.886 14.056 191.59 13.736C192.316 13.3947 192.934 13.1067 193.446 12.872C193.446 13 193.414 13.0853 193.35 13.128C193.308 13.1707 193.244 13.2453 193.158 13.352C193.052 13.4587 192.934 13.5867 192.806 13.736C192.678 13.8853 192.529 14.0133 192.358 14.12C192.145 14.248 191.985 14.4187 191.878 14.632C191.772 14.824 191.569 15.0053 191.27 15.176C190.865 15.3893 190.449 15.6133 190.022 15.848C189.617 16.0613 189.212 16.264 188.806 16.456C188.401 16.6267 187.985 16.7653 187.558 16.872C187.153 16.9573 186.748 16.9787 186.342 16.936C186.065 16.8933 185.83 16.8187 185.638 16.712C185.468 16.6053 185.254 16.4453 184.998 16.232C184.87 16.1253 184.721 16.0187 184.55 15.912C184.38 15.8053 184.252 15.6987 184.166 15.592C183.804 15.0587 183.558 14.4933 183.43 13.896C183.302 13.2773 183.27 12.6693 183.334 12.072C183.42 11.4533 183.58 10.856 183.814 10.28C184.049 9.68267 184.358 9.13867 184.742 8.648C184.956 8.37067 185.212 8.09333 185.51 7.816C185.83 7.51733 186.172 7.26133 186.534 7.048C186.918 6.81333 187.313 6.632 187.718 6.504C188.145 6.376 188.572 6.32267 188.998 6.344C189.169 6.36533 189.318 6.41867 189.446 6.504C189.596 6.568 189.756 6.64267 189.926 6.728C190.033 6.77067 190.161 6.83467 190.31 6.92C190.481 6.984 190.62 7.05867 190.726 7.144ZM189.798 9.032C189.756 8.84 189.638 8.66933 189.446 8.52C189.254 8.37067 189.041 8.25333 188.806 8.168C188.572 8.06133 188.337 7.99733 188.102 7.976C187.868 7.95467 187.697 7.96533 187.59 8.008C187.42 8.072 187.217 8.18933 186.982 8.36C186.769 8.50933 186.556 8.69067 186.342 8.904C186.15 9.11733 185.958 9.352 185.766 9.608C185.596 9.84267 185.468 10.0667 185.382 10.28C185.34 10.344 185.297 10.4507 185.254 10.6C185.233 10.728 185.244 10.824 185.286 10.888C185.542 11.208 185.926 11.368 186.438 11.368C186.929 11.368 187.452 11.2507 188.006 11.016C188.582 10.7813 188.988 10.536 189.222 10.28C189.244 10.2373 189.286 10.1627 189.35 10.056C189.436 9.94933 189.51 9.832 189.574 9.704C189.638 9.576 189.692 9.448 189.734 9.32C189.798 9.192 189.82 9.096 189.798 9.032Z" fill="#FFA92C"/>
</svg>
