<svg width="88" height="88" viewBox="0 0 88 88" fill="none" xmlns="http://www.w3.org/2000/svg">
<g clip-path="url(#clip0_1_14053)">
<path d="M36.4102 74.9059L33.1171 72.8713L59.7638 66.5771L63.0564 68.6114L36.4102 74.9059ZM49.8917 12.8831L47.9078 16.0942L21.2612 22.3893L23.2455 19.1776L49.8917 12.8831ZM4.57503 49.3974L31.2217 43.1022L29.1184 46.5066L2.4721 52.8012L4.57503 49.3974ZM45.1691 20.5269L18.5229 26.8215L21.007 22.8008L47.6536 16.5056L45.1691 20.5269ZM7.31366 44.9647L33.9603 38.6695L31.4758 42.6908L4.82928 48.9859L7.31366 44.9647ZM10.0524 40.5319L36.6989 34.2368L34.2145 38.258L7.5679 44.5532L10.0524 40.5319ZM12.791 36.0991L39.4376 29.8039L36.9532 33.8252L10.3066 40.1203L12.791 36.0991ZM15.5301 31.6657L42.1759 25.3717L39.6918 29.3925L13.0452 35.6876L15.5301 31.6657ZM18.2687 27.233L44.9149 20.9385L42.4302 24.9602L15.7842 31.2543L18.2687 27.233ZM2.78674 54.1326L29.4328 47.838L32.8255 49.9341L6.17948 56.2287L2.78674 54.1326ZM6.59087 56.4829L33.2371 50.1884L37.2467 52.6656L10.5999 58.9598L6.59087 56.4829ZM11.0114 59.214L37.6582 52.9198L41.6678 55.397L15.021 61.6912L11.0114 59.214ZM15.4326 61.9455L42.0793 55.6513L46.0889 58.1285L19.4422 64.4227L15.4326 61.9455ZM19.8537 64.6769L46.5005 58.3827L50.5101 60.86L23.8633 67.1542L19.8537 64.6769ZM24.2748 67.4084L50.9216 61.1142L54.9312 63.5914L28.2851 69.8861L24.2748 67.4084ZM28.6965 70.1402L55.3427 63.8457L59.3523 66.3229L32.7056 72.6171L28.6965 70.1402ZM64.5985 67.9558L30.4931 46.8847L51.5645 12.7786L85.6699 33.8497L64.5985 67.9558ZM87.1936 33.987C87.3921 33.6657 87.293 33.2441 86.9712 33.0453L51.7016 11.255C51.626 11.2083 51.5407 11.1772 51.4513 11.1631C51.3623 11.1482 51.2711 11.1515 51.1845 11.1719L22.655 17.9115C22.4781 17.9533 22.3256 18.0633 22.2303 18.2175L0.440056 53.4871C0.393281 53.5628 0.361677 53.6477 0.347503 53.7371C0.318843 53.9163 0.361892 54.099 0.467834 54.2465C0.5205 54.32 0.586806 54.382 0.662516 54.4287L35.9319 76.2189C36.0862 76.3142 36.2724 76.3448 36.4488 76.3026L64.9774 69.5633C65.0649 69.5426 65.1469 69.5048 65.2209 69.4516C65.2943 69.399 65.3563 69.3326 65.4031 69.2569L87.1936 33.987Z" fill="url(#paint0_linear_1_14053)"/>
</g>
<defs>
<linearGradient id="paint0_linear_1_14053" x1="38.5794" y1="-8.245" x2="92.5886" y2="31.1199" gradientUnits="userSpaceOnUse">
<stop stop-color="#008CE4"/>
<stop offset="1" stop-color="#00AF9E"/>
</linearGradient>
<clipPath id="clip0_1_14053">
<rect width="63.7086" height="63.7086" fill="white" transform="translate(33.4854) rotate(31.7086)"/>
</clipPath>
</defs>
</svg>
