<svg width="88" height="23" viewBox="0 0 88 23" fill="none" xmlns="http://www.w3.org/2000/svg">
<path d="M10.08 11.408C9.97333 11.7707 9.81333 12.24 9.6 12.816C9.38667 13.3707 9.14133 13.9787 8.864 14.64C8.608 15.28 8.32 15.9307 8 16.592C7.70133 17.2533 7.392 17.8507 7.072 18.384C7.008 18.4907 6.93333 18.5867 6.848 18.672C6.76267 18.7573 6.69867 18.8427 6.656 18.928C6.54933 19.0987 6.45333 19.2267 6.368 19.312C6.304 19.4187 6.22933 19.4827 6.144 19.504C6.03733 19.5253 5.94133 19.4933 5.856 19.408C5.77067 19.3227 5.664 19.2267 5.536 19.12C5.344 18.9493 5.17333 18.7467 5.024 18.512C4.87467 18.2987 4.736 18.0853 4.608 17.872C4.52267 17.744 4.40533 17.6267 4.256 17.52C4.10667 17.392 4.01067 17.2533 3.968 17.104C3.28533 15.3333 2.688 13.4347 2.176 11.408C1.664 9.36 1.216 7.36533 0.832 5.424C0.874667 5.31733 0.896 5.21067 0.896 5.104C0.896 4.99733 0.938667 4.95467 1.024 4.976C1.19467 5.01867 1.38667 5.06133 1.6 5.104C1.81333 5.14667 1.92 5.25333 1.92 5.424C2.24 6.10667 2.56 6.93867 2.88 7.92C3.2 8.90133 3.50933 9.936 3.808 11.024C4.128 12.0907 4.42667 13.1467 4.704 14.192C5.00267 15.2373 5.28 16.1547 5.536 16.944C5.96267 16.0693 6.42133 15.0987 6.912 14.032C7.40267 12.9653 7.91467 11.8773 8.448 10.768C8.98133 9.63733 9.51467 8.528 10.048 7.44C10.6027 6.33067 11.1573 5.296 11.712 4.336C11.712 4.656 11.68 4.976 11.616 5.296C11.552 5.616 11.4667 5.94667 11.36 6.288C11.296 6.48 11.2213 6.672 11.136 6.864C11.072 7.056 11.008 7.25867 10.944 7.472C10.7307 8.09067 10.592 8.72 10.528 9.36C10.464 10 10.3147 10.6827 10.08 11.408ZM27.3168 12.272C27.2528 12.3787 27.1568 12.4533 27.0288 12.496C26.9221 12.5173 26.8154 12.56 26.7088 12.624C26.6021 12.688 26.4954 12.7733 26.3888 12.88C26.2821 12.9867 26.1754 13.072 26.0688 13.136C26.3674 14.288 26.6021 15.2907 26.7728 16.144C26.9434 16.9973 27.0501 17.6373 27.0928 18.064C27.1354 18.4907 27.1674 18.96 27.1888 19.472C27.2101 19.984 27.2208 20.4533 27.2208 20.88C27.2208 21.2 27.1994 21.456 27.1568 21.648C27.1354 21.8613 27.0928 22.064 27.0288 22.256C26.7728 21.936 26.5594 21.5947 26.3888 21.232C26.2394 20.8693 26.0794 20.5067 25.9088 20.144C25.5461 19.056 25.1941 17.9147 24.8528 16.72C24.5328 15.5253 24.2128 14.3093 23.8928 13.072C23.2954 13.0507 22.6554 13.04 21.9728 13.04C21.2901 13.04 20.6074 13.04 19.9248 13.04C19.2421 13.04 18.5914 13.0507 17.9728 13.072C17.3754 13.072 16.8528 13.0827 16.4048 13.104C16.3621 13.232 16.3194 13.3813 16.2768 13.552C16.1488 13.8293 16.0421 14.1387 15.9568 14.48C15.8714 14.8 15.7968 15.152 15.7328 15.536C15.6688 15.8987 15.5941 16.2827 15.5088 16.688C15.4234 17.0933 15.3168 17.4987 15.1888 17.904C15.4661 17.904 15.7328 17.8187 15.9888 17.648C16.2661 17.456 16.5434 17.36 16.8208 17.36C16.6288 17.552 16.4581 17.7653 16.3088 18C16.1808 18.2347 16.0634 18.544 15.9568 18.928C15.9354 19.0347 15.8714 19.1413 15.7648 19.248C15.6581 19.376 15.5834 19.472 15.5408 19.536C15.4981 19.6213 15.4554 19.7067 15.4128 19.792C15.3701 19.8987 15.3168 19.9733 15.2528 20.016C15.1034 20.1013 14.9754 20.144 14.8688 20.144C14.7621 20.1653 14.6874 20.144 14.6448 20.08C14.4741 19.824 14.3568 19.5467 14.2928 19.248C14.2501 18.9707 14.2074 18.672 14.1648 18.352C14.1648 17.776 14.2394 17.0293 14.3888 16.112C14.5381 15.1947 14.7301 14.2133 14.9648 13.168C14.7941 13.1253 14.6234 13.0507 14.4528 12.944C14.2821 12.816 14.1328 12.7307 14.0048 12.688C13.7701 12.5813 13.5781 12.528 13.4288 12.528C13.2794 12.5067 13.1194 12.4213 12.9488 12.272L14.9008 11.76C15.0074 11.76 15.1461 11.7387 15.3168 11.696C15.5728 10.6933 15.8288 9.73333 16.0848 8.816C16.3408 7.89867 16.5861 7.12 16.8208 6.48C16.9914 5.98933 17.1941 5.424 17.4288 4.784C17.6848 4.144 17.9728 3.536 18.2928 2.96C18.6341 2.36267 19.0074 1.85067 19.4128 1.424C19.8394 0.997332 20.2981 0.730665 20.7888 0.623999C20.9381 0.581333 21.0874 0.549333 21.2368 0.528C21.3861 0.506666 21.5461 0.495998 21.7168 0.495998C21.8874 0.495998 22.0154 0.581332 22.1008 0.751999C22.1861 0.901333 22.3141 1.09333 22.4848 1.328C22.5914 1.52 22.6874 1.69067 22.7728 1.84C22.8794 1.968 22.9861 2.24533 23.0928 2.672C23.6048 4.22933 24.0848 5.79733 24.5328 7.376C24.9808 8.93333 25.3754 10.4053 25.7168 11.792L27.6688 12.208L27.3168 12.272ZM20.7888 2C20.4261 2.49067 20.0848 3.03467 19.7648 3.632C19.4448 4.208 19.1248 4.88 18.8048 5.648C18.4848 6.39467 18.1648 7.25867 17.8448 8.24C17.5248 9.2 17.1941 10.288 16.8528 11.504C17.9621 11.376 19.0714 11.3013 20.1808 11.28C21.2901 11.2587 22.3888 11.3013 23.4768 11.408C23.0288 9.68 22.5914 8.00533 22.1648 6.384C21.7381 4.74133 21.2794 3.28 20.7888 2ZM32.1808 16.912C33.2261 16.784 34.2074 16.6347 35.1248 16.464C36.0634 16.2933 36.9488 16.1013 37.7808 15.888C38.6128 15.6747 39.4128 15.44 40.1808 15.184C40.9701 14.9067 41.7488 14.6187 42.5168 14.32C42.8368 14.1707 43.1248 14.096 43.3808 14.096C43.5514 14.096 43.6261 14.1707 43.6048 14.32C43.6474 14.4267 43.6901 14.4907 43.7328 14.512C43.7754 14.512 43.7968 14.64 43.7968 14.896C43.7968 15.1307 43.7328 15.3547 43.6048 15.568C43.4768 15.7813 43.3594 15.952 43.2528 16.08C43.0608 16.2933 42.7194 16.528 42.2288 16.784C41.7381 17.0187 41.1514 17.264 40.4688 17.52C39.7861 17.776 39.0608 18.032 38.2928 18.288C37.5248 18.544 36.7674 18.7787 36.0208 18.992C35.2954 19.2053 34.6234 19.3867 34.0048 19.536C33.4074 19.7067 32.9381 19.824 32.5968 19.888C32.4048 19.9307 32.2234 19.8667 32.0528 19.696C31.8821 19.5467 31.7434 19.4507 31.6368 19.408C31.3381 19.2587 31.1674 19.0667 31.1248 18.832C31.1034 18.5973 31.0181 18.3093 30.8688 17.968C30.6981 17.648 30.5808 17.3173 30.5168 16.976C30.4528 16.6133 30.4101 16.2613 30.3888 15.92C30.3461 15.0453 30.3461 14.1707 30.3888 13.296C30.4314 12.4213 30.4741 11.5253 30.5168 10.608C30.5594 9.66933 30.5807 8.70933 30.5807 7.728C30.5807 6.72533 30.5274 5.65867 30.4208 4.528C30.4634 4.42133 30.5381 4.41067 30.6448 4.496C30.7728 4.58133 30.9008 4.64533 31.0288 4.688C31.1354 4.73067 31.2314 4.77333 31.3168 4.816C31.4021 4.83733 31.4768 4.90133 31.5408 5.008C31.7541 5.392 31.9141 6.064 32.0208 7.024C32.1488 7.96267 32.2234 9.01867 32.2448 10.192C32.2874 11.3653 32.2981 12.56 32.2768 13.776C32.2554 14.9707 32.2234 16.016 32.1808 16.912ZM49.7488 4.88C49.4074 5.712 49.0874 6.56533 48.7888 7.44C48.5114 8.31467 48.2768 9.2 48.0848 10.096C47.8928 10.9707 47.7434 11.8453 47.6368 12.72C47.5514 13.5947 47.5301 14.4267 47.5728 15.216C47.5301 15.344 47.4874 15.4507 47.4448 15.536C47.4234 15.6 47.4128 15.6533 47.4128 15.696C47.4341 15.8027 47.4661 15.888 47.5088 15.952C47.5514 16.016 47.5728 16.1333 47.5728 16.304C48.0848 16.6453 48.7034 16.8373 49.4288 16.88C50.1541 16.9227 50.8794 16.8373 51.6048 16.624C52.3514 16.4107 53.0021 16.1227 53.5568 15.76C54.3461 15.248 54.9541 14.6507 55.3808 13.968C55.8288 13.264 56.1594 12.528 56.3728 11.76C56.5861 10.9707 56.7141 10.16 56.7568 9.328C56.7994 8.496 56.8208 7.68533 56.8208 6.896C56.8208 6.832 56.8421 6.77867 56.8848 6.736C56.9488 6.672 56.9808 6.608 56.9808 6.544C56.9808 6.48 56.9914 6.416 57.0128 6.352C57.0341 6.30933 57.0448 6.256 57.0448 6.192C57.0448 6.128 57.0554 6.07467 57.0768 6.032C57.0768 5.98933 57.1194 5.94667 57.2048 5.904C57.3114 5.84 57.3648 5.86133 57.3648 5.968C57.4928 6.928 57.5781 7.93067 57.6208 8.976C57.6634 10.0213 57.5781 11.056 57.3648 12.08C57.1514 13.104 56.7888 14.0747 56.2768 14.992C55.7861 15.9093 55.0608 16.7093 54.1008 17.392C53.4821 17.8187 52.7248 18.2133 51.8288 18.576C50.9328 18.96 50.0368 19.2373 49.1408 19.408C48.6288 19.472 48.2768 19.4187 48.0848 19.248C47.8928 19.0773 47.6794 18.9387 47.4448 18.832C47.1461 18.6827 46.9434 18.5653 46.8368 18.48C46.7514 18.3947 46.6341 18.2133 46.4848 17.936C45.9728 16.912 45.6954 15.8347 45.6528 14.704C45.6101 13.552 45.7061 12.4213 45.9408 11.312C46.1754 10.2027 46.4954 9.14667 46.9008 8.144C47.3274 7.12 47.7328 6.21333 48.1168 5.424C48.2234 5.25333 48.2981 5.168 48.3408 5.168C48.4048 5.168 48.5008 5.12533 48.6288 5.04C48.7141 4.99733 48.8314 4.92267 48.9808 4.816C49.1514 4.688 49.2794 4.63467 49.3648 4.656C49.4074 4.656 49.4714 4.66667 49.5568 4.688C49.6634 4.688 49.7381 4.69867 49.7808 4.72C49.8234 4.74133 49.8128 4.76267 49.7488 4.784C49.7061 4.80533 49.7061 4.83733 49.7488 4.88ZM71.0998 10.192C71.3131 10.2347 71.4624 10.2773 71.5478 10.32C71.6544 10.3413 71.7184 10.4053 71.7398 10.512L71.1958 11.28C71.0678 11.3867 70.8971 11.472 70.6838 11.536C70.4918 11.6 70.3104 11.6533 70.1398 11.696C69.6491 11.7387 69.1051 11.7707 68.5078 11.792C67.9104 11.8133 67.2918 11.8453 66.6518 11.888C66.0118 11.9093 65.3611 11.9307 64.6998 11.952C64.0598 11.9733 63.4518 11.9947 62.8758 12.016C62.8758 12.912 62.8758 13.744 62.8758 14.512C62.8971 15.28 62.9291 15.8987 62.9718 16.368C63.5051 16.2827 64.1238 16.144 64.8278 15.952C65.5318 15.76 66.2891 15.536 67.0998 15.28C67.9104 15.024 68.7531 14.7467 69.6278 14.448C70.5024 14.1493 71.3558 13.84 72.1878 13.52C72.4864 13.4133 72.7638 13.328 73.0198 13.264C73.2971 13.1787 73.5744 13.0933 73.8518 13.008C73.8518 13.0933 73.8411 13.1573 73.8198 13.2C73.7984 13.2213 73.7664 13.2533 73.7238 13.296C73.6598 13.4667 73.5638 13.616 73.4358 13.744C73.3078 13.8507 73.1798 13.9467 73.0518 14.032C72.9451 14.1173 72.8491 14.192 72.7638 14.256C72.6571 14.3413 72.5611 14.4693 72.4758 14.64C72.4118 14.8107 72.2624 14.9707 72.0278 15.12C70.6411 15.9733 69.2438 16.6773 67.8358 17.232C66.4278 17.7867 64.9344 18.288 63.3558 18.736C62.9931 18.8427 62.7051 18.8533 62.4918 18.768C62.2784 18.704 62.0971 18.512 61.9478 18.192C61.9051 18.0213 61.8518 17.8827 61.7878 17.776C61.7238 17.6693 61.5744 17.5307 61.3398 17.36C61.2331 17.2747 61.1798 17.136 61.1798 16.944C61.1798 16.7307 61.1691 16.5067 61.1478 16.272C61.1051 15.76 61.0731 15.1413 61.0518 14.416C61.0518 13.6693 61.0624 12.88 61.0838 12.048H60.2518C60.0598 12.0267 59.9211 12.0053 59.8358 11.984C59.7504 11.9413 59.6224 11.8347 59.4518 11.664C59.4518 11.5147 59.4838 11.4187 59.5478 11.376C59.6331 11.3333 59.7078 11.2693 59.7718 11.184C59.8358 11.0987 59.8891 11.0027 59.9318 10.896C59.9958 10.7893 60.0811 10.7147 60.1878 10.672C60.2944 10.6507 60.4224 10.6293 60.5718 10.608C60.7424 10.5867 60.9344 10.5547 61.1478 10.512C61.1904 9.72267 61.2224 8.93333 61.2438 8.144C61.2864 7.35467 61.3291 6.61867 61.3718 5.936H60.9238C60.6678 5.936 60.4864 5.91467 60.3798 5.872C60.2944 5.808 60.2304 5.75467 60.1878 5.712C60.1451 5.648 60.1131 5.59467 60.0918 5.552C60.0704 5.488 60.0064 5.44533 59.8997 5.424C59.7291 5.40267 59.6438 5.37067 59.6438 5.328C59.6438 5.28533 59.6011 5.24267 59.5158 5.2C59.4304 5.136 59.4624 5.06133 59.6118 4.976C59.7824 4.89067 59.9531 4.72 60.1238 4.464C60.2731 4.31467 60.3584 4.19733 60.3798 4.112C60.4224 4.02667 60.5611 3.93067 60.7958 3.824C61.0091 3.71733 61.4144 3.65333 62.0118 3.632C62.6091 3.61067 63.2811 3.62133 64.0278 3.664C64.7744 3.68533 65.5318 3.73867 66.2998 3.824C67.0891 3.888 67.7611 3.97333 68.3158 4.08C68.6571 4.16533 68.9664 4.272 69.2438 4.4C69.5211 4.50667 69.7878 4.656 70.0438 4.848C70.0438 4.912 69.9904 4.95467 69.8838 4.976C69.7984 4.976 69.7344 4.99733 69.6918 5.04C69.6064 5.104 69.5211 5.15733 69.4358 5.2C69.3504 5.22133 69.2758 5.25333 69.2118 5.296C69.1264 5.33867 69.0411 5.37067 68.9558 5.392C68.6144 5.49867 68.2518 5.59467 67.8678 5.68C67.5051 5.744 67.0891 5.79733 66.6198 5.84C66.1718 5.88267 65.6384 5.91467 65.0198 5.936C64.4224 5.936 63.7291 5.936 62.9398 5.936C62.9184 6.55467 62.8971 7.23733 62.8758 7.984C62.8758 8.73067 62.8758 9.49867 62.8758 10.288C63.8998 10.1813 65.0304 10.096 66.2678 10.032C67.5264 9.94667 68.6998 9.89333 69.7878 9.872C70.0224 9.872 70.2464 9.92533 70.4598 10.032C70.6731 10.1387 70.8864 10.192 71.0998 10.192ZM85.8825 5.424C85.8398 5.50933 85.8398 5.57333 85.8825 5.616C85.9252 5.65867 85.9252 5.70133 85.8825 5.744C85.8185 5.78667 85.7012 5.81867 85.5305 5.84C85.3812 5.84 85.2532 5.85067 85.1465 5.872C84.9972 5.91467 84.8478 5.936 84.6985 5.936C84.5492 5.91467 84.3892 5.85067 84.2185 5.744C83.9625 5.616 83.6425 5.49867 83.2585 5.392C82.8958 5.264 82.5012 5.2 82.0745 5.2C81.5198 5.2 80.9332 5.264 80.3145 5.392C79.6958 5.49867 79.0985 5.65867 78.5225 5.872C77.9678 6.064 77.4665 6.30933 77.0185 6.608C76.5918 6.90667 76.2825 7.23733 76.0905 7.6C75.9625 7.87733 75.9092 8.176 75.9305 8.496C75.9518 8.79467 76.0265 9.08267 76.1545 9.36C76.2825 9.63733 76.4318 9.89333 76.6025 10.128C76.7945 10.3413 76.9758 10.4907 77.1465 10.576C77.6798 10.8533 78.2665 11.0347 78.9065 11.12C79.5678 11.2053 80.2398 11.2587 80.9225 11.28C81.6265 11.3013 82.3198 11.3333 83.0025 11.376C83.6852 11.4187 84.3145 11.5253 84.8905 11.696C85.1892 11.8027 85.4665 11.888 85.7225 11.952C85.9998 12.016 86.2452 12.112 86.4585 12.24C86.6718 12.3467 86.8638 12.5067 87.0345 12.72C87.2265 12.912 87.3865 13.2 87.5145 13.584C87.7065 14.3947 87.6638 15.184 87.3865 15.952C87.1092 16.7413 86.6505 17.4347 86.0105 18.032C85.3705 18.6507 84.6452 19.1413 83.8345 19.504C83.1945 19.7813 82.5332 19.9627 81.8505 20.048C81.1892 20.1547 80.5385 20.144 79.8985 20.016C79.2798 19.888 78.7038 19.6427 78.1705 19.28C77.6585 18.9173 77.2425 18.416 76.9225 17.776C76.7305 17.3707 76.6345 16.88 76.6345 16.304C76.6132 16.24 76.6132 16.176 76.6345 16.112C76.6772 15.9627 76.8158 15.888 77.0505 15.888C77.1358 15.8453 77.2425 15.8773 77.3705 15.984C77.5198 16.0693 77.6265 16.1227 77.6905 16.144C77.8612 16.1653 78.0212 16.2827 78.1705 16.496C78.3412 16.688 78.5012 16.848 78.6505 16.976C79.1838 17.5307 79.7812 17.872 80.4425 18C81.1252 18.1067 81.7758 18.1067 82.3945 18C83.0345 17.872 83.6212 17.68 84.1545 17.424C84.6878 17.168 85.0825 16.9333 85.3385 16.72C85.4878 16.592 85.6478 16.4427 85.8185 16.272C86.0105 16.08 86.1918 15.8773 86.3625 15.664C86.5332 15.4293 86.6718 15.184 86.7785 14.928C86.9065 14.672 86.9705 14.4053 86.9705 14.128C86.9065 13.872 86.7358 13.68 86.4585 13.552C86.1812 13.4027 85.8292 13.2853 85.4025 13.2C84.6558 13.072 83.9198 13.008 83.1945 13.008C82.4692 12.9867 81.7545 12.9867 81.0505 13.008C80.3465 13.0293 79.6532 13.04 78.9705 13.04C78.2878 13.04 77.6265 12.9653 76.9865 12.816C76.7945 12.7733 76.6025 12.7093 76.4105 12.624C76.2398 12.5173 76.0692 12.4107 75.8985 12.304C75.7278 12.1973 75.5998 12.0587 75.5145 11.888C75.4292 11.7173 75.3332 11.536 75.2265 11.344C75.1198 11.152 75.0132 10.96 74.9065 10.768C74.8212 10.5547 74.7572 10.3307 74.7145 10.096C74.6078 9.41333 74.6078 8.70933 74.7145 7.984C74.8425 7.25867 75.1198 6.58667 75.5465 5.968C75.8878 5.456 76.3465 5.01867 76.9225 4.656C77.5198 4.272 78.1812 3.984 78.9065 3.792C79.6532 3.57867 80.4425 3.48267 81.2745 3.504C82.1065 3.504 82.9598 3.632 83.8345 3.888C83.9412 3.93067 84.0692 3.99467 84.2185 4.08C84.3678 4.144 84.4958 4.19733 84.6025 4.24C84.9012 4.38933 85.1678 4.57067 85.4025 4.784C85.6372 4.99733 85.7972 5.21067 85.8825 5.424Z" fill="#FF635F"/>
</svg>
