<svg width="66" height="66" viewBox="0 0 66 66" fill="none" xmlns="http://www.w3.org/2000/svg">
<circle opacity="0.2" cx="33" cy="33" r="33" fill="#FFA92C"/>
<g clip-path="url(#clip0_535_1700)">
<path d="M46.5 19.5H19.5C17.85 19.5 16.5 20.85 16.5 22.5V27H19.5V22.5H46.5V43.5H36V46.5H46.5C48.15 46.5 49.5 45.15 49.5 43.5V22.5C49.5 20.85 48.15 19.5 46.5 19.5ZM16.5 42V46.5H21C21 44.01 18.99 42 16.5 42ZM16.5 36V39C20.64 39 24 42.36 24 46.5H27C27 40.695 22.305 36 16.5 36ZM16.5 30V33C23.955 33 30 39.045 30 46.5H33C33 37.38 25.605 30 16.5 30ZM31.5 31.635V34.635L36.75 37.5L42 34.635V31.635L36.75 34.5L31.5 31.635ZM36.75 24L28.5 28.5L36.75 33L45 28.5L36.75 24Z" fill="#FFA92C"/>
</g>
<defs>
<clipPath id="clip0_535_1700">
<rect width="36" height="36" fill="white" transform="translate(15 15)"/>
</clipPath>
</defs>
</svg>
