<svg width="66" height="66" viewBox="0 0 66 66" fill="none" xmlns="http://www.w3.org/2000/svg">
<circle opacity="0.2" cx="33" cy="33" r="33" fill="#FF635F"/>
<g clip-path="url(#clip0_535_1705)">
<path opacity="0.3" d="M22.5 22.5H43.5V25.5H22.5V22.5Z" fill="#FF635F"/>
<path d="M43.5 19.5H42V16.5H39V19.5H27V16.5H24V19.5H22.5C20.85 19.5 19.5 20.85 19.5 22.5V43.5C19.5 45.15 20.85 46.5 22.5 46.5H43.5C45.15 46.5 46.5 45.15 46.5 43.5V22.5C46.5 20.85 45.15 19.5 43.5 19.5ZM43.5 43.5H22.5V28.5H43.5V43.5ZM43.5 25.5H22.5V22.5H43.5V25.5ZM25.5 31.5H40.5V34.5H25.5V31.5ZM25.5 37.5H36V40.5H25.5V37.5Z" fill="#FF635F"/>
</g>
<defs>
<clipPath id="clip0_535_1705">
<rect width="36" height="36" fill="white" transform="translate(15 15)"/>
</clipPath>
</defs>
</svg>
