<svg width="89" height="89" viewBox="0 0 89 89" fill="none" xmlns="http://www.w3.org/2000/svg">
<circle opacity="0.2" cx="44.5" cy="44.5" r="44.5" fill="#313131" fill-opacity="0.4"/>
<g clip-path="url(#clip0_1_23191)">
<path opacity="0.3" d="M30 30H58V34H30V30Z" fill="#9E9FA3"/>
<path d="M58 26H56V22H52V26H36V22H32V26H30C27.8 26 26 27.8 26 30V58C26 60.2 27.8 62 30 62H58C60.2 62 62 60.2 62 58V30C62 27.8 60.2 26 58 26ZM58 58H30V38H58V58ZM58 34H30V30H58V34ZM34 42H54V46H34V42ZM34 50H48V54H34V50Z" fill="#9E9FA3"/>
</g>
<defs>
<clipPath id="clip0_1_23191">
<rect width="48" height="48" fill="white" transform="translate(20 20)"/>
</clipPath>
</defs>
</svg>
