<svg width="424" height="424" viewBox="0 0 424 424" fill="none" xmlns="http://www.w3.org/2000/svg">
<g filter="url(#filter0_d_1_24649)">
<rect x="16" y="16" width="384" height="384" rx="10.8936" fill="white"/>
<rect x="43" y="43" width="329.532" height="329.532" rx="10.8936" fill="#007EF2" fill-opacity="0.1"/>
<path d="M184.392 205.501C184.34 204.976 184.116 204.568 183.721 204.277C183.326 203.987 182.79 203.841 182.113 203.841C181.653 203.841 181.265 203.906 180.948 204.036C180.631 204.162 180.388 204.338 180.219 204.564C180.054 204.789 179.971 205.046 179.971 205.332C179.963 205.571 180.013 205.779 180.121 205.957C180.234 206.135 180.388 206.289 180.583 206.419C180.779 206.545 181.004 206.656 181.26 206.751C181.516 206.842 181.79 206.921 182.081 206.986L183.279 207.272C183.86 207.402 184.394 207.576 184.88 207.793C185.366 208.01 185.787 208.277 186.143 208.594C186.499 208.911 186.775 209.284 186.97 209.714C187.17 210.143 187.272 210.636 187.276 211.191C187.272 212.007 187.063 212.715 186.651 213.314C186.243 213.908 185.653 214.371 184.88 214.701C184.112 215.026 183.185 215.189 182.1 215.189C181.024 215.189 180.086 215.024 179.288 214.694C178.493 214.364 177.873 213.876 177.426 213.229C176.983 212.578 176.751 211.773 176.729 210.814H179.457C179.487 211.261 179.615 211.634 179.841 211.934C180.071 212.229 180.377 212.452 180.759 212.604C181.145 212.752 181.582 212.826 182.068 212.826C182.545 212.826 182.96 212.756 183.311 212.617C183.667 212.478 183.943 212.285 184.138 212.038C184.333 211.79 184.431 211.506 184.431 211.185C184.431 210.885 184.342 210.634 184.164 210.43C183.99 210.226 183.734 210.052 183.396 209.909C183.062 209.766 182.651 209.635 182.165 209.518L180.714 209.154C179.589 208.88 178.702 208.453 178.051 207.871C177.4 207.289 177.076 206.506 177.081 205.521C177.076 204.714 177.291 204.008 177.725 203.405C178.164 202.802 178.765 202.331 179.529 201.992C180.293 201.654 181.161 201.484 182.133 201.484C183.122 201.484 183.986 201.654 184.724 201.992C185.466 202.331 186.043 202.802 186.456 203.405C186.868 204.008 187.081 204.707 187.094 205.501H184.392ZM188.848 203.991V201.667H199.798V203.991H195.716V215H192.93V203.991H188.848ZM201.785 215V201.667H210.769V203.991H204.604V207.168H210.307V209.492H204.604V212.676H210.795V215H201.785ZM213.194 215V201.667H218.454C219.466 201.667 220.327 201.86 221.039 202.246C221.751 202.628 222.293 203.16 222.667 203.841C223.044 204.518 223.233 205.299 223.233 206.185C223.233 207.07 223.042 207.852 222.66 208.529C222.278 209.206 221.725 209.733 221 210.111C220.279 210.488 219.407 210.677 218.383 210.677H215.03V208.418H217.927C218.469 208.418 218.917 208.325 219.268 208.138C219.624 207.947 219.889 207.684 220.062 207.35C220.24 207.012 220.329 206.623 220.329 206.185C220.329 205.742 220.24 205.356 220.062 205.026C219.889 204.692 219.624 204.434 219.268 204.251C218.912 204.065 218.461 203.971 217.914 203.971H216.013V215H213.194ZM234.524 215.182C233.552 215.182 232.686 215.015 231.926 214.681C231.171 214.342 230.574 213.878 230.136 213.288C229.702 212.693 229.479 212.007 229.465 211.23H232.304C232.321 211.556 232.428 211.842 232.623 212.09C232.823 212.333 233.087 212.522 233.417 212.656C233.747 212.791 234.118 212.858 234.531 212.858C234.96 212.858 235.34 212.782 235.67 212.63C236 212.478 236.258 212.268 236.445 211.999C236.631 211.73 236.725 211.419 236.725 211.068C236.725 210.712 236.625 210.397 236.425 210.124C236.23 209.846 235.948 209.629 235.579 209.473C235.214 209.316 234.78 209.238 234.277 209.238H233.033V207.168H234.277C234.702 207.168 235.077 207.094 235.403 206.947C235.733 206.799 235.989 206.595 236.171 206.335C236.354 206.07 236.445 205.762 236.445 205.41C236.445 205.076 236.364 204.783 236.204 204.531C236.048 204.275 235.826 204.076 235.54 203.932C235.258 203.789 234.928 203.717 234.55 203.717C234.168 203.717 233.819 203.787 233.502 203.926C233.185 204.06 232.931 204.253 232.74 204.505C232.549 204.757 232.447 205.052 232.434 205.391H229.732C229.745 204.622 229.965 203.945 230.39 203.359C230.815 202.773 231.388 202.316 232.109 201.986C232.834 201.651 233.652 201.484 234.563 201.484C235.483 201.484 236.288 201.651 236.979 201.986C237.669 202.32 238.205 202.771 238.587 203.34C238.973 203.904 239.164 204.538 239.16 205.241C239.164 205.987 238.932 206.61 238.463 207.109C237.998 207.609 237.393 207.925 236.646 208.06V208.164C237.627 208.29 238.374 208.631 238.886 209.186C239.403 209.737 239.659 210.428 239.654 211.257C239.659 212.016 239.439 212.691 238.997 213.281C238.558 213.872 237.953 214.336 237.18 214.674C236.408 215.013 235.522 215.182 234.524 215.182Z" fill="#8491A5"/>
</g>
<defs>
<filter id="filter0_d_1_24649" x="0" y="0" width="424" height="424" filterUnits="userSpaceOnUse" color-interpolation-filters="sRGB">
<feFlood flood-opacity="0" result="BackgroundImageFix"/>
<feColorMatrix in="SourceAlpha" type="matrix" values="0 0 0 0 0 0 0 0 0 0 0 0 0 0 0 0 0 0 127 0" result="hardAlpha"/>
<feOffset dx="4" dy="4"/>
<feGaussianBlur stdDeviation="10"/>
<feComposite in2="hardAlpha" operator="out"/>
<feColorMatrix type="matrix" values="0 0 0 0 0 0 0 0 0 0 0 0 0 0 0 0 0 0 0.06 0"/>
<feBlend mode="normal" in2="BackgroundImageFix" result="effect1_dropShadow_1_24649"/>
<feBlend mode="normal" in="SourceGraphic" in2="effect1_dropShadow_1_24649" result="shape"/>
</filter>
</defs>
</svg>
