<svg width="52" height="49" viewBox="0 0 52 49" fill="none" xmlns="http://www.w3.org/2000/svg">
<rect x="1.52588e-05" y="0.699951" width="52" height="48.2044" rx="9.12329" fill="#00ACA5" fill-opacity="0.1"/>
<g clip-path="url(#clip0_1369_1768)">
<path opacity="0.3" d="M34.7932 16.3885H33.7178V26.0674L30.4915 23.6477L27.2653 26.0674V16.3885H21.8881V29.2937H34.7932V16.3885Z" fill="#00B19B"/>
<path d="M17.5864 35.7462H32.6424V33.5953H17.5864V18.5394H15.4356V33.5953C15.4356 34.7783 16.4035 35.7462 17.5864 35.7462ZM36.9441 29.2936V16.3885C36.9441 15.2056 35.9762 14.2377 34.7932 14.2377H21.8881C20.7052 14.2377 19.7373 15.2056 19.7373 16.3885V29.2936C19.7373 30.4766 20.7052 31.4445 21.8881 31.4445H34.7932C35.9762 31.4445 36.9441 30.4766 36.9441 29.2936ZM29.4161 16.3885H31.567V21.7657L30.4915 20.9591L29.4161 21.7657V16.3885ZM21.8881 16.3885H27.2653V26.0674L30.4915 23.6476L33.7178 26.0674V16.3885H34.7932V29.2936H21.8881V16.3885Z" fill="#00ACA5"/>
</g>
<defs>
<clipPath id="clip0_1369_1768">
<rect width="25.8102" height="25.8102" fill="white" transform="translate(13.2847 12.0868)"/>
</clipPath>
</defs>
</svg>
