<svg width="104" height="104" viewBox="0 0 104 104" fill="none" xmlns="http://www.w3.org/2000/svg">
<circle opacity="0.2" cx="52" cy="52" r="50" fill="#FFA92C"/>
<circle cx="52" cy="52" r="51" stroke="#FFA92C" stroke-width="2"/>
<path d="M49.8574 56.7061H45.2922C45.2922 45.3616 54.4911 36.1627 65.8357 36.1627V40.7279C57.002 40.7279 49.8574 47.8724 49.8574 56.7061ZM65.8357 49.8583V45.2931C59.5357 45.2931 54.4226 50.4061 54.4226 56.7061H58.9878C58.9878 52.917 62.0465 49.8583 65.8357 49.8583ZM40.727 33.88C40.727 31.3464 38.6954 29.3148 36.1617 29.3148C33.628 29.3148 31.5965 31.3464 31.5965 33.88C31.5965 36.4137 33.628 38.4453 36.1617 38.4453C38.6954 38.4453 40.727 36.4137 40.727 33.88ZM50.8846 35.0214H46.3194C45.7715 38.2627 42.9867 40.7279 39.5857 40.7279H32.7378C30.8433 40.7279 29.3139 42.2572 29.3139 44.1518V49.8583H43.0096V44.6996C47.2552 43.3529 50.428 39.6094 50.8846 35.0214ZM68.1183 63.554C70.652 63.554 72.6835 61.5224 72.6835 58.9887C72.6835 56.455 70.652 54.4235 68.1183 54.4235C65.5846 54.4235 63.553 56.455 63.553 58.9887C63.553 61.5224 65.5846 63.554 68.1183 63.554ZM71.5422 65.8366H64.6944C61.2933 65.8366 58.5085 63.3713 57.9607 60.13H53.3954C53.852 64.7181 57.0248 68.4616 61.2704 69.8083V74.967H74.9661V69.2605C74.9661 67.3659 73.4367 65.8366 71.5422 65.8366Z" fill="#FFA92C"/>
</svg>
