<svg width="56" height="49" viewBox="0 0 56 49" fill="none" xmlns="http://www.w3.org/2000/svg">
<path opacity="0.3" d="M36.0557 13.2285H6.93422L5.44336 20.6828H37.5466L36.0557 13.2285Z" fill="#00ACA5"/>
<path d="M40.1331 0.804688H2.86151V5.77423H40.1331V0.804688Z" fill="#007EF2"/>
<path d="M35.1618 33.1055H40.1313V25.6512H42.6161V20.6817L40.1313 8.25781H2.85977L0.375 20.6817V25.6512H2.85977V40.5598H25.2227V25.6512H35.1618V33.1055ZM20.2532 35.5903H7.82931V25.6512H20.2532V35.5903ZM5.44393 20.6817L6.9348 13.2274H36.0563L37.5472 20.6817H5.44393Z" fill="#007EF2"/>
<path d="M47.584 35.592V28.1377H42.6145V35.592H35.1602V40.5616H42.6145V48.0159H47.584V40.5616H55.0383V35.592H47.584Z" fill="#007EF2"/>
</svg>
