<svg width="89" height="89" viewBox="0 0 89 89" fill="none" xmlns="http://www.w3.org/2000/svg">
<circle opacity="0.2" cx="44.5" cy="44.5" r="44.5" fill="#313131" fill-opacity="0.4"/>
<g opacity="0.4" clip-path="url(#clip0_1_23127)">
<path d="M62.1628 28.1585H26.1628C23.9628 28.1585 22.1628 29.9585 22.1628 32.1585V58.1585C22.1628 60.3585 23.9628 62.1585 26.1628 62.1585H62.1628C64.3628 62.1585 66.1628 60.3585 66.1628 58.1585V32.1585C66.1628 29.9585 64.3628 28.1585 62.1628 28.1585ZM62.1628 56.1585C62.1628 57.2585 61.2628 58.1585 60.1628 58.1585H44.1628V32.1585H60.1628C61.2628 32.1585 62.1628 33.0585 62.1628 34.1585V56.1585ZM58.6628 39.1585H47.6628C46.8428 39.1585 46.1628 39.8385 46.1628 40.6585C46.1628 41.4785 46.8428 42.1585 47.6628 42.1585H58.6628C59.4828 42.1585 60.1628 41.4785 60.1628 40.6585C60.1628 39.8385 59.4828 39.1585 58.6628 39.1585ZM58.6628 44.1585H47.6628C46.8428 44.1585 46.1628 44.8385 46.1628 45.6585C46.1628 46.4785 46.8428 47.1585 47.6628 47.1585H58.6628C59.4828 47.1585 60.1628 46.4785 60.1628 45.6585C60.1628 44.8385 59.4828 44.1585 58.6628 44.1585ZM58.6628 49.1585H47.6628C46.8428 49.1585 46.1628 49.8385 46.1628 50.6585C46.1628 51.4785 46.8428 52.1585 47.6628 52.1585H58.6628C59.4828 52.1585 60.1628 51.4785 60.1628 50.6585C60.1628 49.8385 59.4828 49.1585 58.6628 49.1585Z" fill="#313131"/>
</g>
<defs>
<clipPath id="clip0_1_23127">
<rect width="48" height="48" fill="white" transform="translate(20.1621 20.1602)"/>
</clipPath>
</defs>
</svg>
