<svg width="52" height="49" viewBox="0 0 52 49" fill="none" xmlns="http://www.w3.org/2000/svg">
<rect width="52" height="48.2044" rx="9.12329" fill="#FFF6EA"/>
<path d="M35.7819 14.6005H16.4986C15.3201 14.6005 14.356 15.5646 14.356 16.7431V19.9569H16.4986V16.7431H35.7819V31.7412H28.2828V33.8838H35.7819C36.9603 33.8838 37.9244 32.9196 37.9244 31.7412V16.7431C37.9244 15.5646 36.9603 14.6005 35.7819 14.6005ZM14.356 30.6699V33.8838H17.5699C17.5699 32.1054 16.1343 30.6699 14.356 30.6699ZM14.356 26.3847V28.5273C17.3128 28.5273 19.7124 30.927 19.7124 33.8838H21.855C21.855 29.7378 18.5019 26.3847 14.356 26.3847ZM14.356 22.0995V24.2421C19.6803 24.2421 23.9976 28.5594 23.9976 33.8838H26.1402C26.1402 27.3703 20.8587 22.0995 14.356 22.0995ZM25.0689 23.2672V25.4098L28.8184 27.456L32.568 25.4098V23.2672L28.8184 25.3134L25.0689 23.2672ZM28.8184 17.8143L22.9263 21.0282L28.8184 24.2421L34.7106 21.0282L28.8184 17.8143Z" fill="#FFA92C"/>
</svg>
