<svg width="89" height="89" viewBox="0 0 89 89" fill="none" xmlns="http://www.w3.org/2000/svg">
<circle opacity="0.2" cx="44.5" cy="44.5" r="44.5" fill="#313131" fill-opacity="0.4"/>
<g clip-path="url(#clip0_1_23185)">
<path d="M60 44C60 42.48 60.86 41.16 62.12 40.48C63.32 39.82 64 38.46 64 37.08V32C64 29.8 62.2 28 60 28H28C25.8 28 24.02 29.78 24.02 31.98V37.08C24.02 38.46 24.68 39.82 25.9 40.46C27.16 41.16 28 42.48 28 44C28 45.52 27.14 46.86 25.88 47.52C24.68 48.18 24 49.54 24 50.92V55.42C24 58.2 25.8 60 28 60H60C62.2 60 64 58.2 64 56V50.92C64 49.54 63.32 48.18 62.12 47.52C60.86 46.84 60 45.52 60 44ZM49 52.2L44 49L39 52.22C38.24 52.7 37.26 52 37.5 51.12L39 45.36L34.4 41.6C33.7 41.02 34.06 39.88 34.98 39.82L40.9 39.48L43.06 33.98C43.4 33.14 44.6 33.14 44.92 33.98L47.08 39.5L53 39.84C53.9 39.9 54.28 41.04 53.58 41.62L48.98 45.38L50.5 51.1C50.74 52 49.76 52.7 49 52.2Z" fill="#9E9FA3"/>
</g>
<defs>
<clipPath id="clip0_1_23185">
<rect width="48" height="48" fill="white" transform="translate(20 20)"/>
</clipPath>
</defs>
</svg>
