<svg width="52" height="49" viewBox="0 0 52 49" fill="none" xmlns="http://www.w3.org/2000/svg">
<rect x="1.52588e-05" y="0.133301" width="52" height="48.2044" rx="9.12329" fill="#FF635F" fill-opacity="0.1"/>
<path d="M25.0689 26.518H22.9263C22.9263 21.1937 27.2437 16.8764 32.568 16.8764V19.0189C28.4221 19.0189 25.0689 22.3721 25.0689 26.518ZM32.568 23.3041V21.1615C29.6112 21.1615 27.2115 23.5612 27.2115 26.518H29.3541C29.3541 24.7397 30.7896 23.3041 32.568 23.3041ZM20.7838 15.8051C20.7838 14.6159 19.8303 13.6625 18.6412 13.6625C17.452 13.6625 16.4986 14.6159 16.4986 15.8051C16.4986 16.9942 17.452 17.9477 18.6412 17.9477C19.8303 17.9477 20.7838 16.9942 20.7838 15.8051ZM25.551 16.3407H23.4084C23.1513 17.8619 21.8443 19.0189 20.2481 19.0189H17.0342C16.1451 19.0189 15.4273 19.7367 15.4273 20.6259V23.3041H21.855V20.883C23.8477 20.2509 25.3368 18.494 25.551 16.3407ZM33.6393 29.7319C34.8284 29.7319 35.7819 28.7784 35.7819 27.5893C35.7819 26.4002 34.8284 25.4467 33.6393 25.4467C32.4501 25.4467 31.4967 26.4002 31.4967 27.5893C31.4967 28.7784 32.4501 29.7319 33.6393 29.7319ZM35.2462 30.8032H32.0323C30.4361 30.8032 29.1291 29.6462 28.872 28.1249H26.7294C26.9437 30.2782 28.4328 32.0352 30.4254 32.6672V35.0884H36.8532V32.4101C36.8532 31.5209 36.1354 30.8032 35.2462 30.8032Z" fill="#FF635F"/>
</svg>
