<svg width="89" height="89" viewBox="0 0 89 89" fill="none" xmlns="http://www.w3.org/2000/svg">
<circle opacity="0.2" cx="44.5" cy="44.5" r="44.5" fill="#313131" fill-opacity="0.4"/>
<g clip-path="url(#clip0_1_23173)">
<path opacity="0.3" d="M52.22 33.54C51.16 38.74 46.98 42.4 41.66 42.4C38.54 42.4 35.74 41.16 33.72 39.14C32.6 41.92 32 44.94 32 48C32 54.62 37.38 60 44 60C50.62 60 56 54.62 56 48C56 42.88 54.68 37.94 52.22 33.54ZM43.78 55.98C41.04 55.98 38.8 53.82 38.8 51.14C38.8 48.64 40.42 46.88 43.14 46.32C45.88 45.76 48.7 44.46 50.28 42.34C50.88 44.34 51.2 46.44 51.2 48.58C51.2 52.66 47.88 55.98 43.78 55.98Z" fill="#9E9FA3"/>
<path d="M43.14 46.32C40.42 46.88 38.8 48.64 38.8 51.14C38.8 53.82 41.02 55.98 43.78 55.98C47.88 55.98 51.2 52.66 51.2 48.56C51.2 46.42 50.9 44.32 50.28 42.32C48.7 44.46 45.88 45.76 43.14 46.32ZM47 21.34C47 21.34 48.48 26.64 48.48 30.94C48.48 35.06 45.78 38.4 41.66 38.4C37.52 38.4 34.4 35.06 34.4 30.94L34.46 30.22C30.42 35.02 28 41.24 28 48C28 56.84 35.16 64 44 64C52.84 64 60 56.84 60 48C60 37.22 54.82 27.6 47 21.34ZM44 60C37.38 60 32 54.62 32 48C32 44.94 32.6 41.92 33.72 39.14C35.74 41.16 38.54 42.4 41.66 42.4C46.98 42.4 51.16 38.74 52.22 33.54C54.68 37.94 56 42.88 56 48C56 54.62 50.62 60 44 60Z" fill="#9E9FA3"/>
</g>
<defs>
<clipPath id="clip0_1_23173">
<rect width="48" height="48" fill="white" transform="translate(20 20)"/>
</clipPath>
</defs>
</svg>
