<svg width="89" height="89" viewBox="0 0 89 89" fill="none" xmlns="http://www.w3.org/2000/svg">
<circle opacity="0.2" cx="44.5" cy="44.5" r="44.5" fill="#313131" fill-opacity="0.4"/>
<g clip-path="url(#clip0_1_23138)">
<path d="M28 46H40C41.1 46 42 45.1 42 44V28C42 26.9 41.1 26 40 26H28C26.9 26 26 26.9 26 28V44C26 45.1 26.9 46 28 46ZM28 62H40C41.1 62 42 61.1 42 60V52C42 50.9 41.1 50 40 50H28C26.9 50 26 50.9 26 52V60C26 61.1 26.9 62 28 62ZM48 62H60C61.1 62 62 61.1 62 60V44C62 42.9 61.1 42 60 42H48C46.9 42 46 42.9 46 44V60C46 61.1 46.9 62 48 62ZM46 28V36C46 37.1 46.9 38 48 38H60C61.1 38 62 37.1 62 36V28C62 26.9 61.1 26 60 26H48C46.9 26 46 26.9 46 28Z" fill="#9E9FA3"/>
</g>
<defs>
<clipPath id="clip0_1_23138">
<rect width="48" height="48" fill="white" transform="translate(20 20)"/>
</clipPath>
</defs>
</svg>
