<svg width="424" height="424" viewBox="0 0 424 424" fill="none" xmlns="http://www.w3.org/2000/svg">
<g filter="url(#filter0_d_1_24645)">
<rect x="16" y="16" width="384" height="384" rx="10.8936" fill="white"/>
<rect x="43" y="43" width="329.532" height="329.532" rx="10.8936" fill="#007EF2" fill-opacity="0.1"/>
<path d="M183.392 205.501C183.34 204.976 183.116 204.568 182.721 204.277C182.326 203.987 181.79 203.841 181.113 203.841C180.653 203.841 180.265 203.906 179.948 204.036C179.631 204.162 179.388 204.338 179.219 204.564C179.054 204.789 178.971 205.046 178.971 205.332C178.963 205.571 179.013 205.779 179.121 205.957C179.234 206.135 179.388 206.289 179.583 206.419C179.779 206.545 180.004 206.656 180.26 206.751C180.516 206.842 180.79 206.921 181.081 206.986L182.279 207.272C182.86 207.402 183.394 207.576 183.88 207.793C184.366 208.01 184.787 208.277 185.143 208.594C185.499 208.911 185.775 209.284 185.97 209.714C186.17 210.143 186.272 210.636 186.276 211.191C186.272 212.007 186.063 212.715 185.651 213.314C185.243 213.908 184.653 214.371 183.88 214.701C183.112 215.026 182.185 215.189 181.1 215.189C180.024 215.189 179.086 215.024 178.288 214.694C177.493 214.364 176.873 213.876 176.426 213.229C175.983 212.578 175.751 211.773 175.729 210.814H178.457C178.487 211.261 178.615 211.634 178.841 211.934C179.071 212.229 179.377 212.452 179.759 212.604C180.145 212.752 180.582 212.826 181.068 212.826C181.545 212.826 181.96 212.756 182.311 212.617C182.667 212.478 182.943 212.285 183.138 212.038C183.333 211.79 183.431 211.506 183.431 211.185C183.431 210.885 183.342 210.634 183.164 210.43C182.99 210.226 182.734 210.052 182.396 209.909C182.062 209.766 181.651 209.635 181.165 209.518L179.714 209.154C178.589 208.88 177.702 208.453 177.051 207.871C176.4 207.289 176.076 206.506 176.081 205.521C176.076 204.714 176.291 204.008 176.725 203.405C177.164 202.802 177.765 202.331 178.529 201.992C179.293 201.654 180.161 201.484 181.133 201.484C182.122 201.484 182.986 201.654 183.724 201.992C184.466 202.331 185.043 202.802 185.456 203.405C185.868 204.008 186.081 204.707 186.094 205.501H183.392ZM187.848 203.991V201.667H198.798V203.991H194.716V215H191.93V203.991H187.848ZM200.785 215V201.667H209.769V203.991H203.604V207.168H209.307V209.492H203.604V212.676H209.795V215H200.785ZM212.194 215V201.667H217.454C218.466 201.667 219.327 201.86 220.039 202.246C220.751 202.628 221.293 203.16 221.667 203.841C222.044 204.518 222.233 205.299 222.233 206.185C222.233 207.07 222.042 207.852 221.66 208.529C221.278 209.206 220.725 209.733 220 210.111C219.279 210.488 218.407 210.677 217.383 210.677H214.03V208.418H216.927C217.469 208.418 217.917 208.325 218.268 208.138C218.624 207.947 218.889 207.684 219.062 207.35C219.24 207.012 219.329 206.623 219.329 206.185C219.329 205.742 219.24 205.356 219.062 205.026C218.889 204.692 218.624 204.434 218.268 204.251C217.912 204.065 217.461 203.971 216.914 203.971H215.013V215H212.194ZM228.596 215V212.969L233.342 208.574C233.745 208.184 234.084 207.832 234.357 207.52C234.635 207.207 234.846 206.901 234.989 206.602C235.132 206.298 235.204 205.97 235.204 205.618C235.204 205.228 235.115 204.891 234.937 204.609C234.759 204.323 234.516 204.104 234.208 203.952C233.9 203.796 233.55 203.717 233.16 203.717C232.752 203.717 232.396 203.8 232.092 203.965C231.788 204.13 231.554 204.366 231.389 204.674C231.224 204.983 231.141 205.349 231.141 205.775H228.465C228.465 204.902 228.663 204.145 229.058 203.503C229.453 202.86 230.006 202.363 230.718 202.012C231.43 201.66 232.25 201.484 233.179 201.484C234.134 201.484 234.965 201.654 235.673 201.992C236.384 202.326 236.938 202.791 237.333 203.385C237.728 203.98 237.925 204.661 237.925 205.43C237.925 205.933 237.825 206.43 237.626 206.921C237.43 207.411 237.081 207.956 236.577 208.555C236.074 209.149 235.364 209.863 234.449 210.697L232.502 212.604V212.695H238.101V215H228.596Z" fill="#8491A5"/>
</g>
<defs>
<filter id="filter0_d_1_24645" x="0" y="0" width="424" height="424" filterUnits="userSpaceOnUse" color-interpolation-filters="sRGB">
<feFlood flood-opacity="0" result="BackgroundImageFix"/>
<feColorMatrix in="SourceAlpha" type="matrix" values="0 0 0 0 0 0 0 0 0 0 0 0 0 0 0 0 0 0 127 0" result="hardAlpha"/>
<feOffset dx="4" dy="4"/>
<feGaussianBlur stdDeviation="10"/>
<feComposite in2="hardAlpha" operator="out"/>
<feColorMatrix type="matrix" values="0 0 0 0 0 0 0 0 0 0 0 0 0 0 0 0 0 0 0.06 0"/>
<feBlend mode="normal" in2="BackgroundImageFix" result="effect1_dropShadow_1_24645"/>
<feBlend mode="normal" in="SourceGraphic" in2="effect1_dropShadow_1_24645" result="shape"/>
</filter>
</defs>
</svg>
