<svg width="52" height="49" viewBox="0 0 52 49" fill="none" xmlns="http://www.w3.org/2000/svg">
<rect x="1.52588e-05" y="0.56665" width="52" height="48.2044" rx="9.12329" fill="#E5F2FE"/>
<path opacity="0.3" d="M33.6393 30.3045V22.859C31.3896 23.2661 29.3005 24.3053 27.5972 25.8908L26.1402 27.2513L24.6833 25.8908C22.9799 24.3053 20.8909 23.2661 18.6412 22.859V30.3045C21.3515 30.6687 23.9334 31.6972 26.1402 33.3363C28.3578 31.7079 30.9289 30.6687 33.6393 30.3045Z" fill="#00ACA5"/>
<path opacity="0.3" d="M26.1402 19.4523C27.3235 19.4523 28.2828 18.493 28.2828 17.3097C28.2828 16.1264 27.3235 15.1671 26.1402 15.1671C24.9569 15.1671 23.9976 16.1264 23.9976 17.3097C23.9976 18.493 24.9569 19.4523 26.1402 19.4523Z" fill="#007EF2"/>
<path d="M30.4254 17.3097C30.4254 14.9422 28.5078 13.0245 26.1402 13.0245C23.7727 13.0245 21.8551 14.9422 21.8551 17.3097C21.8551 19.6773 23.7727 21.5949 26.1402 21.5949C28.5078 21.5949 30.4254 19.6773 30.4254 17.3097ZM23.9976 17.3097C23.9976 16.1313 24.9618 15.1671 26.1402 15.1671C27.3187 15.1671 28.2828 16.1313 28.2828 17.3097C28.2828 18.4881 27.3187 19.4523 26.1402 19.4523C24.9618 19.4523 23.9976 18.4881 23.9976 17.3097ZM16.4986 32.3078C20.2267 32.3078 23.612 33.7541 26.1402 36.1109C28.6685 33.7648 32.0538 32.3078 35.7819 32.3078V20.5236C32.0538 20.5236 28.6685 21.9698 26.1402 24.3267C23.612 21.9698 20.2267 20.5236 16.4986 20.5236V32.3078ZM18.6412 22.859C20.8909 23.2661 22.9799 24.3053 24.6833 25.8908L26.1402 27.2513L27.5972 25.8908C29.3005 24.3053 31.3896 23.2661 33.6393 22.859V30.3045C30.9289 30.6687 28.3578 31.6972 26.1402 33.3256C23.9334 31.6972 21.3515 30.658 18.6412 30.2938V22.859Z" fill="#007EF2"/>
</svg>
