<svg width="89" height="89" viewBox="0 0 89 89" fill="none" xmlns="http://www.w3.org/2000/svg">
<circle opacity="0.2" cx="44.5" cy="44.5" r="44.5" fill="#313131" fill-opacity="0.4"/>
<g opacity="0.4" clip-path="url(#clip0_1_23179)">
<path d="M62.1628 26.1577H26.1628C23.9628 26.1577 22.1628 27.9577 22.1628 30.1577V54.1577C22.1628 56.3577 23.9628 58.1577 26.1628 58.1577H36.1628V60.1577C36.1628 61.2577 37.0628 62.1577 38.1628 62.1577H50.1628C51.2628 62.1577 52.1628 61.2577 52.1628 60.1577V58.1577H62.1628C64.3628 58.1577 66.1428 56.3577 66.1428 54.1577L66.1628 30.1577C66.1628 27.9377 64.3628 26.1577 62.1628 26.1577ZM60.1628 54.1577H28.1628C27.0628 54.1577 26.1628 53.2577 26.1628 52.1577V32.1577C26.1628 31.0577 27.0628 30.1577 28.1628 30.1577H60.1628C61.2628 30.1577 62.1628 31.0577 62.1628 32.1577V52.1577C62.1628 53.2577 61.2628 54.1577 60.1628 54.1577ZM49.1228 43.8977L41.1628 48.4577C39.8228 49.2177 38.1628 48.2377 38.1628 46.7177V37.5977C38.1628 36.0577 39.8228 35.0977 41.1628 35.8577L49.1228 40.4177C50.4628 41.1977 50.4628 43.1177 49.1228 43.8977Z" fill="#313131"/>
</g>
<defs>
<clipPath id="clip0_1_23179">
<rect width="48" height="48" fill="white" transform="translate(20.1621 20.1602)"/>
</clipPath>
</defs>
</svg>
