<svg width="76" height="76" viewBox="0 0 76 76" fill="none" xmlns="http://www.w3.org/2000/svg">
<circle cx="38" cy="38" r="36" stroke="#007EF2" stroke-width="4"/>
<g clip-path="url(#clip0_1_24897)">
<path d="M49.0833 23.7502H42.465C41.8 21.9135 40.0583 20.5835 38 20.5835C35.9417 20.5835 34.2 21.9135 33.535 23.7502H26.9167C25.175 23.7502 23.75 25.1752 23.75 26.9168V49.0835C23.75 50.8252 25.175 52.2502 26.9167 52.2502H49.0833C50.825 52.2502 52.25 50.8252 52.25 49.0835V26.9168C52.25 25.1752 50.825 23.7502 49.0833 23.7502ZM38 23.3543C38.3483 23.3543 38.6492 23.5127 38.8708 23.7502C39.0608 23.956 39.1875 24.241 39.1875 24.5418C39.1875 25.191 38.6492 25.7293 38 25.7293C37.3508 25.7293 36.8125 25.191 36.8125 24.5418C36.8125 24.241 36.9392 23.956 37.1292 23.7502C37.3508 23.5127 37.6517 23.3543 38 23.3543ZM49.0833 49.0835H26.9167V26.9168H49.0833V49.0835ZM38 28.5002C35.3875 28.5002 33.25 30.6377 33.25 33.2502C33.25 35.8627 35.3875 38.0002 38 38.0002C40.6125 38.0002 42.75 35.8627 42.75 33.2502C42.75 30.6377 40.6125 28.5002 38 28.5002ZM38 34.8335C37.1292 34.8335 36.4167 34.121 36.4167 33.2502C36.4167 32.3793 37.1292 31.6668 38 31.6668C38.8708 31.6668 39.5833 32.3793 39.5833 33.2502C39.5833 34.121 38.8708 34.8335 38 34.8335ZM28.5 45.0777V47.5002H47.5V45.0777C47.5 41.1193 41.2142 39.4093 38 39.4093C34.7858 39.4093 28.5 41.1035 28.5 45.0777ZM32.1575 44.3335C33.25 43.4468 35.9258 42.5602 38 42.5602C40.0742 42.5602 42.7658 43.4468 43.8425 44.3335H32.1575Z" fill="#007EF2"/>
</g>
<defs>
<clipPath id="clip0_1_24897">
<rect width="38" height="38" fill="white" transform="translate(19 19)"/>
</clipPath>
</defs>
</svg>
