<svg width="89" height="89" viewBox="0 0 89 89" fill="none" xmlns="http://www.w3.org/2000/svg">
<circle opacity="0.2" cx="44.5" cy="44.5" r="44.5" fill="#313131" fill-opacity="0.4"/>
<g clip-path="url(#clip0_1_23149)">
<path d="M40 52V36C40 33.8 41.78 32 44 32H62V30C62 27.8 60.2 26 58 26H30C27.78 26 26 27.8 26 30V58C26 60.2 27.78 62 30 62H58C60.2 62 62 60.2 62 58V56H44C41.78 56 40 54.2 40 52ZM46 36C44.9 36 44 36.9 44 38V50C44 51.1 44.9 52 46 52H64V36H46ZM52 47C50.34 47 49 45.66 49 44C49 42.34 50.34 41 52 41C53.66 41 55 42.34 55 44C55 45.66 53.66 47 52 47Z" fill="#9E9FA3"/>
</g>
<defs>
<clipPath id="clip0_1_23149">
<rect width="48" height="48" fill="white" transform="translate(20 20)"/>
</clipPath>
</defs>
</svg>
