<svg width="70" height="70" viewBox="0 0 70 70" fill="none" xmlns="http://www.w3.org/2000/svg">
<g clip-path="url(#clip0_1_27256)">
<path opacity="0.3" d="M55.4173 49.962V29.6912C49.2923 30.7995 43.6048 33.6287 38.9673 37.9453L35.0007 41.6495L31.034 37.9453C26.3965 33.6287 20.709 30.7995 14.584 29.6912V49.962C21.9632 50.9537 28.9923 53.7537 35.0007 58.2162C41.0381 53.7828 48.0382 50.9537 55.4173 49.962Z" fill="#00ACA5"/>
<path opacity="0.3" d="M34.9993 20.4164C38.221 20.4164 40.8327 17.8048 40.8327 14.5831C40.8327 11.3614 38.221 8.74976 34.9993 8.74976C31.7777 8.74976 29.166 11.3614 29.166 14.5831C29.166 17.8048 31.7777 20.4164 34.9993 20.4164Z" fill="#007EF2"/>
<path d="M46.6667 14.5824C46.6667 8.1366 41.4458 2.91577 35 2.91577C28.5542 2.91577 23.3333 8.1366 23.3333 14.5824C23.3333 21.0283 28.5542 26.2491 35 26.2491C41.4458 26.2491 46.6667 21.0283 46.6667 14.5824ZM29.1667 14.5824C29.1667 11.3741 31.7917 8.7491 35 8.7491C38.2083 8.7491 40.8333 11.3741 40.8333 14.5824C40.8333 17.7908 38.2083 20.4158 35 20.4158C31.7917 20.4158 29.1667 17.7908 29.1667 14.5824ZM8.75 55.4158C18.9 55.4158 28.1167 59.3533 35 65.7699C41.8833 59.3824 51.1 55.4158 61.25 55.4158V23.3324C51.1 23.3324 41.8833 27.2699 35 33.6866C28.1167 27.2699 18.9 23.3324 8.75 23.3324V55.4158ZM14.5833 29.6908C20.7083 30.7991 26.3958 33.6283 31.0333 37.9449L35 41.6491L38.9667 37.9449C43.6042 33.6283 49.2917 30.7991 55.4167 29.6908V49.9616C48.0375 50.9533 41.0375 53.7533 35 58.1866C28.9917 53.7533 21.9625 50.9241 14.5833 49.9324V29.6908Z" fill="#007EF2"/>
</g>
<defs>
<clipPath id="clip0_1_27256">
<rect width="70" height="70" fill="white" transform="translate(0 -0.000244141)"/>
</clipPath>
</defs>
</svg>
