<svg width="445" height="164" viewBox="0 0 445 164" fill="none" xmlns="http://www.w3.org/2000/svg">
<path d="M18.6853 151.608L18.6853 156.499L21 157.283L21 160.624L7.896 155.883L7.896 152.187L21 147.446L21 150.824L18.6853 151.608ZM16.2213 152.43L11.424 154.054L16.2213 155.659L16.2213 152.43ZM21 135.027L16.0533 137.752L16.0533 138.517L21 138.517L21 141.709L7.896 141.709L7.896 136.352C7.896 135.319 8.07644 134.442 8.43733 133.72C8.79822 132.986 9.296 132.438 9.93066 132.077C10.5529 131.716 11.2498 131.536 12.0213 131.536C12.8924 131.536 13.6702 131.785 14.3547 132.283C15.0391 132.768 15.5244 133.49 15.8107 134.448L21 131.424L21 135.027ZM13.7947 138.517L13.7947 136.539C13.7947 135.954 13.6516 135.518 13.3653 135.232C13.0791 134.933 12.6747 134.784 12.152 134.784C11.6542 134.784 11.2622 134.933 10.976 135.232C10.6898 135.518 10.5467 135.954 10.5467 136.539L10.5467 138.517L13.7947 138.517ZM10.4533 122.047L13.104 122.047L13.104 117.772L15.568 117.772L15.568 122.047L18.4427 122.047L18.4427 117.212L21 117.212L21 125.239L7.896 125.239L7.896 117.212L10.4533 117.212L10.4533 122.047ZM7.89599 91.3603L16.6693 95.8963L21 95.8963L21 99.0883L16.6693 99.0883L7.89599 103.624L7.89599 100.003L13.384 97.4643L7.89599 94.9443L7.89599 91.3603ZM21.1307 79.5835C21.1307 80.8155 20.8444 81.9479 20.272 82.9808C19.6996 84.0013 18.9031 84.8164 17.8827 85.4262C16.8498 86.0235 15.6924 86.3222 14.4107 86.3222C13.1289 86.3222 11.9778 86.0235 10.9573 85.4262C9.93688 84.8164 9.14044 84.0013 8.56799 82.9808C7.99555 81.9479 7.70933 80.8155 7.70933 79.5835C7.70933 78.3515 7.99555 77.2253 8.56799 76.2048C9.14044 75.1719 9.93688 74.3631 10.9573 73.7782C11.9778 73.1808 13.1289 72.8822 14.4107 72.8822C15.6924 72.8822 16.8498 73.1808 17.8827 73.7782C18.9031 74.3755 19.6996 75.1844 20.272 76.2048C20.8444 77.2253 21.1307 78.3515 21.1307 79.5835ZM18.2187 79.5835C18.2187 78.5382 17.8702 77.7044 17.1733 77.0822C16.4764 76.4475 15.5556 76.1302 14.4107 76.1302C13.2533 76.1302 12.3324 76.4475 11.648 77.0822C10.9511 77.7044 10.6027 78.5382 10.6027 79.5835C10.6027 80.6413 10.9449 81.4875 11.6293 82.1222C12.3138 82.7444 13.2409 83.0555 14.4107 83.0555C15.568 83.0555 16.4951 82.7444 17.192 82.1222C17.8764 81.4875 18.2187 80.6413 18.2187 79.5835ZM7.89599 63.677L15.736 63.677C16.52 63.677 17.1236 63.4841 17.5467 63.0984C17.9698 62.7126 18.1813 62.1464 18.1813 61.3997C18.1813 60.653 17.9698 60.0806 17.5467 59.6824C17.1236 59.2841 16.52 59.085 15.736 59.085L7.89599 59.085L7.89599 55.893L15.7173 55.893C16.8871 55.893 17.8764 56.1419 18.6853 56.6397C19.4942 57.1375 20.104 57.8095 20.5147 58.6557C20.9253 59.4895 21.1307 60.4228 21.1307 61.4557C21.1307 62.4886 20.9316 63.4157 20.5333 64.237C20.1227 65.0459 19.5129 65.6868 18.704 66.1597C17.8827 66.6326 16.8871 66.869 15.7173 66.869L7.89599 66.869L7.89599 63.677ZM18.6853 32.9518L18.6853 37.8425L21 38.6265L21 41.9678L7.89599 37.2265L7.89599 33.5305L21 28.7892L21 32.1678L18.6853 32.9518ZM16.2213 33.7732L11.424 35.3972L16.2213 37.0025L16.2213 33.7732ZM7.16799 10.9771C7.16799 9.64552 7.51643 8.58152 8.21332 7.78507C8.91021 6.97618 9.89332 6.57174 11.1627 6.57174C12.3324 6.57174 13.2471 6.95752 13.9067 7.72907C14.5538 8.48818 14.8835 9.49618 14.896 10.7531L16.296 10.8464L16.296 13.6464L12.824 13.7397L12.824 12.6197C12.824 11.6615 12.7058 10.9335 12.4693 10.4357C12.2329 9.92552 11.8035 9.67041 11.1813 9.67041C10.7458 9.67041 10.4035 9.78863 10.1547 10.0251C9.90577 10.2615 9.78132 10.5913 9.78132 11.0144C9.78132 11.4624 9.91199 11.8109 10.1733 12.0597C10.4222 12.3086 10.7644 12.4331 11.2 12.4331L11.2 15.4384C10.4409 15.4633 9.75644 15.3077 9.14666 14.9717C8.53688 14.6233 8.05777 14.1131 7.70932 13.4411C7.34843 12.7566 7.16799 11.9353 7.16799 10.9771ZM21.1493 12.2091C21.1493 12.7691 20.9875 13.2295 20.664 13.5904C20.328 13.9389 19.9173 14.1131 19.432 14.1131C18.9342 14.1131 18.5173 13.9389 18.1813 13.5904C17.8453 13.2295 17.6773 12.7691 17.6773 12.2091C17.6773 11.6615 17.8453 11.2135 18.1813 10.8651C18.5173 10.5042 18.9342 10.3237 19.432 10.3237C19.9173 10.3237 20.328 10.5042 20.664 10.8651C20.9875 11.2135 21.1493 11.6615 21.1493 12.2091Z" fill="#FF635F"/>
<path d="M57.179 137.552C57.179 135.888 57.539 134.408 58.259 133.112C58.979 131.8 59.979 130.784 61.259 130.064C62.555 129.328 64.019 128.96 65.651 128.96C67.651 128.96 69.363 129.488 70.787 130.544C72.211 131.6 73.163 133.04 73.643 134.864H69.131C68.795 134.16 68.315 133.624 67.691 133.256C67.083 132.888 66.387 132.704 65.603 132.704C64.339 132.704 63.315 133.144 62.531 134.024C61.747 134.904 61.355 136.08 61.355 137.552C61.355 139.024 61.747 140.2 62.531 141.08C63.315 141.96 64.339 142.4 65.603 142.4C66.387 142.4 67.083 142.216 67.691 141.848C68.315 141.48 68.795 140.944 69.131 140.24H73.643C73.163 142.064 72.211 143.504 70.787 144.56C69.363 145.6 67.651 146.12 65.651 146.12C64.019 146.12 62.555 145.76 61.259 145.04C59.979 144.304 58.979 143.288 58.259 141.992C57.539 140.696 57.179 139.216 57.179 137.552ZM82.2522 146.192C80.9402 146.192 79.7562 145.912 78.7002 145.352C77.6602 144.792 76.8362 143.992 76.2282 142.952C75.6362 141.912 75.3402 140.696 75.3402 139.304C75.3402 137.928 75.6442 136.72 76.2522 135.68C76.8602 134.624 77.6922 133.816 78.7482 133.256C79.8042 132.696 80.9882 132.416 82.3002 132.416C83.6122 132.416 84.7962 132.696 85.8522 133.256C86.9082 133.816 87.7402 134.624 88.3482 135.68C88.9562 136.72 89.2602 137.928 89.2602 139.304C89.2602 140.68 88.9482 141.896 88.3242 142.952C87.7162 143.992 86.8762 144.792 85.8042 145.352C84.7482 145.912 83.5642 146.192 82.2522 146.192ZM82.2522 142.64C83.0362 142.64 83.7002 142.352 84.2442 141.776C84.8042 141.2 85.0842 140.376 85.0842 139.304C85.0842 138.232 84.8122 137.408 84.2682 136.832C83.7402 136.256 83.0842 135.968 82.3002 135.968C81.5002 135.968 80.8362 136.256 80.3082 136.832C79.7802 137.392 79.5162 138.216 79.5162 139.304C79.5162 140.376 79.7722 141.2 80.2842 141.776C80.8122 142.352 81.4682 142.64 82.2522 142.64ZM90.6215 139.28C90.6215 137.904 90.8775 136.696 91.3895 135.656C91.9175 134.616 92.6295 133.816 93.5255 133.256C94.4215 132.696 95.4215 132.416 96.5255 132.416C97.4695 132.416 98.2935 132.608 98.9975 132.992C99.7175 133.376 100.269 133.88 100.653 134.504V132.608H104.757V146H100.653V144.104C100.253 144.728 99.6935 145.232 98.9735 145.616C98.2695 146 97.4455 146.192 96.5015 146.192C95.4135 146.192 94.4215 145.912 93.5255 145.352C92.6295 144.776 91.9175 143.968 91.3895 142.928C90.8775 141.872 90.6215 140.656 90.6215 139.28ZM100.653 139.304C100.653 138.28 100.365 137.472 99.7895 136.88C99.2295 136.288 98.5415 135.992 97.7255 135.992C96.9095 135.992 96.2135 136.288 95.6375 136.88C95.0775 137.456 94.7975 138.256 94.7975 139.28C94.7975 140.304 95.0775 141.12 95.6375 141.728C96.2135 142.32 96.9095 142.616 97.7255 142.616C98.5415 142.616 99.2295 142.32 99.7895 141.728C100.365 141.136 100.653 140.328 100.653 139.304ZM106.911 139.304C106.911 137.912 107.191 136.696 107.751 135.656C108.327 134.616 109.119 133.816 110.127 133.256C111.151 132.696 112.319 132.416 113.631 132.416C115.311 132.416 116.711 132.856 117.831 133.736C118.967 134.616 119.711 135.856 120.063 137.456H115.695C115.327 136.432 114.615 135.92 113.559 135.92C112.807 135.92 112.207 136.216 111.759 136.808C111.311 137.384 111.087 138.216 111.087 139.304C111.087 140.392 111.311 141.232 111.759 141.824C112.207 142.4 112.807 142.688 113.559 142.688C114.615 142.688 115.327 142.176 115.695 141.152H120.063C119.711 142.72 118.967 143.952 117.831 144.848C116.695 145.744 115.295 146.192 113.631 146.192C112.319 146.192 111.151 145.912 110.127 145.352C109.119 144.792 108.327 143.992 107.751 142.952C107.191 141.912 106.911 140.696 106.911 139.304ZM130.49 132.464C132.026 132.464 133.258 132.976 134.186 134C135.114 135.008 135.578 136.4 135.578 138.176V146H131.498V138.728C131.498 137.832 131.266 137.136 130.802 136.64C130.338 136.144 129.714 135.896 128.93 135.896C128.146 135.896 127.522 136.144 127.058 136.64C126.594 137.136 126.362 137.832 126.362 138.728V146H122.258V128.24H126.362V134.408C126.778 133.816 127.346 133.344 128.066 132.992C128.786 132.64 129.594 132.464 130.49 132.464ZM140.494 131.216C139.774 131.216 139.182 131.008 138.718 130.592C138.27 130.16 138.046 129.632 138.046 129.008C138.046 128.368 138.27 127.84 138.718 127.424C139.182 126.992 139.774 126.776 140.494 126.776C141.198 126.776 141.774 126.992 142.222 127.424C142.686 127.84 142.918 128.368 142.918 129.008C142.918 129.632 142.686 130.16 142.222 130.592C141.774 131.008 141.198 131.216 140.494 131.216ZM142.534 132.608V146H138.43V132.608H142.534ZM153.668 132.464C155.236 132.464 156.484 132.976 157.412 134C158.356 135.008 158.828 136.4 158.828 138.176V146H154.748V138.728C154.748 137.832 154.516 137.136 154.052 136.64C153.588 136.144 152.964 135.896 152.18 135.896C151.396 135.896 150.772 136.144 150.308 136.64C149.844 137.136 149.612 137.832 149.612 138.728V146H145.508V132.608H149.612V134.384C150.028 133.792 150.588 133.328 151.292 132.992C151.996 132.64 152.788 132.464 153.668 132.464ZM166.768 132.416C167.712 132.416 168.536 132.608 169.24 132.992C169.96 133.376 170.512 133.88 170.896 134.504V132.608H175V145.976C175 147.208 174.752 148.32 174.256 149.312C173.776 150.32 173.032 151.12 172.024 151.712C171.032 152.304 169.792 152.6 168.304 152.6C166.32 152.6 164.712 152.128 163.48 151.184C162.248 150.256 161.544 148.992 161.368 147.392H165.424C165.552 147.904 165.856 148.304 166.336 148.592C166.816 148.896 167.408 149.048 168.112 149.048C168.96 149.048 169.632 148.8 170.128 148.304C170.64 147.824 170.896 147.048 170.896 145.976V144.08C170.496 144.704 169.944 145.216 169.24 145.616C168.536 146 167.712 146.192 166.768 146.192C165.664 146.192 164.664 145.912 163.768 145.352C162.872 144.776 162.16 143.968 161.632 142.928C161.12 141.872 160.864 140.656 160.864 139.28C160.864 137.904 161.12 136.696 161.632 135.656C162.16 134.616 162.872 133.816 163.768 133.256C164.664 132.696 165.664 132.416 166.768 132.416ZM170.896 139.304C170.896 138.28 170.608 137.472 170.032 136.88C169.472 136.288 168.784 135.992 167.968 135.992C167.152 135.992 166.456 136.288 165.88 136.88C165.32 137.456 165.04 138.256 165.04 139.28C165.04 140.304 165.32 141.12 165.88 141.728C166.456 142.32 167.152 142.616 167.968 142.616C168.784 142.616 169.472 142.32 170.032 141.728C170.608 141.136 170.896 140.328 170.896 139.304ZM182.359 137.552C182.359 135.888 182.719 134.408 183.439 133.112C184.159 131.8 185.159 130.784 186.439 130.064C187.735 129.328 189.199 128.96 190.831 128.96C192.831 128.96 194.543 129.488 195.967 130.544C197.391 131.6 198.343 133.04 198.823 134.864H194.311C193.975 134.16 193.495 133.624 192.871 133.256C192.263 132.888 191.567 132.704 190.783 132.704C189.519 132.704 188.495 133.144 187.711 134.024C186.927 134.904 186.535 136.08 186.535 137.552C186.535 139.024 186.927 140.2 187.711 141.08C188.495 141.96 189.519 142.4 190.783 142.4C191.567 142.4 192.263 142.216 192.871 141.848C193.495 141.48 193.975 140.944 194.311 140.24H198.823C198.343 142.064 197.391 143.504 195.967 144.56C194.543 145.6 192.831 146.12 190.831 146.12C189.199 146.12 187.735 145.76 186.439 145.04C185.159 144.304 184.159 143.288 183.439 141.992C182.719 140.696 182.359 139.216 182.359 137.552ZM213.96 139.088C213.96 139.472 213.936 139.872 213.888 140.288H204.6C204.664 141.12 204.928 141.76 205.392 142.208C205.872 142.64 206.456 142.856 207.144 142.856C208.168 142.856 208.88 142.424 209.28 141.56H213.648C213.424 142.44 213.016 143.232 212.424 143.936C211.848 144.64 211.12 145.192 210.24 145.592C209.36 145.992 208.376 146.192 207.288 146.192C205.976 146.192 204.808 145.912 203.784 145.352C202.76 144.792 201.96 143.992 201.384 142.952C200.808 141.912 200.52 140.696 200.52 139.304C200.52 137.912 200.8 136.696 201.36 135.656C201.936 134.616 202.736 133.816 203.76 133.256C204.784 132.696 205.96 132.416 207.288 132.416C208.584 132.416 209.736 132.688 210.744 133.232C211.752 133.776 212.536 134.552 213.096 135.56C213.672 136.568 213.96 137.744 213.96 139.088ZM209.76 138.008C209.76 137.304 209.52 136.744 209.04 136.328C208.56 135.912 207.96 135.704 207.24 135.704C206.552 135.704 205.968 135.904 205.488 136.304C205.024 136.704 204.736 137.272 204.624 138.008H209.76ZM224.285 132.464C225.853 132.464 227.101 132.976 228.029 134C228.973 135.008 229.445 136.4 229.445 138.176V146H225.365V138.728C225.365 137.832 225.133 137.136 224.669 136.64C224.205 136.144 223.581 135.896 222.797 135.896C222.013 135.896 221.389 136.144 220.925 136.64C220.461 137.136 220.229 137.832 220.229 138.728V146H216.125V132.608H220.229V134.384C220.645 133.792 221.205 133.328 221.909 132.992C222.613 132.64 223.405 132.464 224.285 132.464ZM239.761 142.52V146H237.673C236.185 146 235.025 145.64 234.193 144.92C233.361 144.184 232.945 142.992 232.945 141.344V136.016H231.313V132.608H232.945V129.344H237.049V132.608H239.737V136.016H237.049V141.392C237.049 141.792 237.145 142.08 237.337 142.256C237.529 142.432 237.849 142.52 238.297 142.52H239.761ZM254.671 139.088C254.671 139.472 254.647 139.872 254.599 140.288H245.311C245.375 141.12 245.639 141.76 246.103 142.208C246.583 142.64 247.167 142.856 247.855 142.856C248.879 142.856 249.591 142.424 249.991 141.56H254.359C254.135 142.44 253.727 143.232 253.135 143.936C252.559 144.64 251.831 145.192 250.951 145.592C250.071 145.992 249.087 146.192 247.999 146.192C246.687 146.192 245.519 145.912 244.495 145.352C243.471 144.792 242.671 143.992 242.095 142.952C241.519 141.912 241.231 140.696 241.231 139.304C241.231 137.912 241.511 136.696 242.071 135.656C242.647 134.616 243.447 133.816 244.471 133.256C245.495 132.696 246.671 132.416 247.999 132.416C249.295 132.416 250.447 132.688 251.455 133.232C252.463 133.776 253.247 134.552 253.807 135.56C254.383 136.568 254.671 137.744 254.671 139.088ZM250.471 138.008C250.471 137.304 250.231 136.744 249.751 136.328C249.271 135.912 248.671 135.704 247.951 135.704C247.263 135.704 246.679 135.904 246.199 136.304C245.735 136.704 245.447 137.272 245.335 138.008H250.471ZM260.94 134.84C261.42 134.104 262.02 133.528 262.74 133.112C263.46 132.68 264.26 132.464 265.14 132.464V136.808H264.012C262.988 136.808 262.22 137.032 261.708 137.48C261.196 137.912 260.94 138.68 260.94 139.784V146H256.836V132.608H260.94V134.84Z" fill="#007EF2"/>
<path opacity="0.4" d="M53.0002 158H194" stroke="#8491A5" stroke-width="4" stroke-linecap="round"/>
<path d="M53 158H262" stroke="#007EF2" stroke-width="4" stroke-linecap="round"/>
<g opacity="0.6">
<path d="M317.08 129.152V146H312.976V139.064H306.592V146H302.488V129.152H306.592V135.752H312.976V129.152H317.08ZM326.139 146.192C324.827 146.192 323.643 145.912 322.587 145.352C321.547 144.792 320.723 143.992 320.115 142.952C319.523 141.912 319.227 140.696 319.227 139.304C319.227 137.928 319.531 136.72 320.139 135.68C320.747 134.624 321.579 133.816 322.635 133.256C323.691 132.696 324.875 132.416 326.187 132.416C327.499 132.416 328.683 132.696 329.739 133.256C330.795 133.816 331.627 134.624 332.235 135.68C332.843 136.72 333.147 137.928 333.147 139.304C333.147 140.68 332.835 141.896 332.211 142.952C331.603 143.992 330.763 144.792 329.691 145.352C328.635 145.912 327.451 146.192 326.139 146.192ZM326.139 142.64C326.923 142.64 327.587 142.352 328.131 141.776C328.691 141.2 328.971 140.376 328.971 139.304C328.971 138.232 328.699 137.408 328.155 136.832C327.627 136.256 326.971 135.968 326.187 135.968C325.387 135.968 324.723 136.256 324.195 136.832C323.667 137.392 323.403 138.216 323.403 139.304C323.403 140.376 323.659 141.2 324.171 141.776C324.699 142.352 325.355 142.64 326.139 142.64ZM352.412 132.464C354.076 132.464 355.396 132.968 356.372 133.976C357.364 134.984 357.86 136.384 357.86 138.176V146H353.78V138.728C353.78 137.864 353.548 137.2 353.084 136.736C352.636 136.256 352.012 136.016 351.212 136.016C350.412 136.016 349.78 136.256 349.316 136.736C348.868 137.2 348.644 137.864 348.644 138.728V146H344.564V138.728C344.564 137.864 344.332 137.2 343.868 136.736C343.42 136.256 342.796 136.016 341.996 136.016C341.196 136.016 340.564 136.256 340.1 136.736C339.652 137.2 339.428 137.864 339.428 138.728V146H335.324V132.608H339.428V134.288C339.844 133.728 340.388 133.288 341.06 132.968C341.732 132.632 342.492 132.464 343.34 132.464C344.348 132.464 345.244 132.68 346.028 133.112C346.828 133.544 347.452 134.16 347.9 134.96C348.364 134.224 348.996 133.624 349.796 133.16C350.596 132.696 351.468 132.464 352.412 132.464ZM373.354 139.088C373.354 139.472 373.33 139.872 373.282 140.288H363.994C364.058 141.12 364.322 141.76 364.786 142.208C365.266 142.64 365.85 142.856 366.538 142.856C367.562 142.856 368.274 142.424 368.674 141.56H373.042C372.818 142.44 372.41 143.232 371.818 143.936C371.242 144.64 370.514 145.192 369.634 145.592C368.754 145.992 367.77 146.192 366.682 146.192C365.37 146.192 364.202 145.912 363.178 145.352C362.154 144.792 361.354 143.992 360.778 142.952C360.202 141.912 359.914 140.696 359.914 139.304C359.914 137.912 360.194 136.696 360.754 135.656C361.33 134.616 362.13 133.816 363.154 133.256C364.178 132.696 365.354 132.416 366.682 132.416C367.978 132.416 369.13 132.688 370.138 133.232C371.146 133.776 371.93 134.552 372.49 135.56C373.066 136.568 373.354 137.744 373.354 139.088ZM369.154 138.008C369.154 137.304 368.914 136.744 368.434 136.328C367.954 135.912 367.354 135.704 366.634 135.704C365.946 135.704 365.362 135.904 364.882 136.304C364.418 136.704 364.13 137.272 364.018 138.008H369.154ZM392.725 129.152V132.44H388.261V146H384.157V132.44H379.693V129.152H392.725ZM408.009 132.608V146H403.905V144.176C403.489 144.768 402.921 145.248 402.201 145.616C401.497 145.968 400.713 146.144 399.849 146.144C398.825 146.144 397.921 145.92 397.137 145.472C396.353 145.008 395.745 144.344 395.313 143.48C394.881 142.616 394.665 141.6 394.665 140.432V132.608H398.745V139.88C398.745 140.776 398.977 141.472 399.441 141.968C399.905 142.464 400.529 142.712 401.313 142.712C402.113 142.712 402.745 142.464 403.209 141.968C403.673 141.472 403.905 140.776 403.905 139.88V132.608H408.009ZM418.421 142.52V146H416.333C414.845 146 413.685 145.64 412.853 144.92C412.021 144.184 411.605 142.992 411.605 141.344V136.016H409.973V132.608H411.605V129.344H415.709V132.608H418.397V136.016H415.709V141.392C415.709 141.792 415.805 142.08 415.997 142.256C416.189 142.432 416.509 142.52 416.957 142.52H418.421ZM426.803 146.192C425.491 146.192 424.307 145.912 423.251 145.352C422.211 144.792 421.387 143.992 420.779 142.952C420.187 141.912 419.891 140.696 419.891 139.304C419.891 137.928 420.195 136.72 420.803 135.68C421.411 134.624 422.243 133.816 423.299 133.256C424.355 132.696 425.539 132.416 426.851 132.416C428.163 132.416 429.347 132.696 430.403 133.256C431.459 133.816 432.291 134.624 432.899 135.68C433.507 136.72 433.811 137.928 433.811 139.304C433.811 140.68 433.499 141.896 432.875 142.952C432.267 143.992 431.427 144.792 430.355 145.352C429.299 145.912 428.115 146.192 426.803 146.192ZM426.803 142.64C427.587 142.64 428.251 142.352 428.795 141.776C429.355 141.2 429.635 140.376 429.635 139.304C429.635 138.232 429.363 137.408 428.819 136.832C428.291 136.256 427.635 135.968 426.851 135.968C426.051 135.968 425.387 136.256 424.859 136.832C424.331 137.392 424.067 138.216 424.067 139.304C424.067 140.376 424.323 141.2 424.835 141.776C425.363 142.352 426.019 142.64 426.803 142.64ZM440.092 134.84C440.572 134.104 441.172 133.528 441.892 133.112C442.612 132.68 443.412 132.464 444.292 132.464V136.808H443.164C442.14 136.808 441.372 137.032 440.86 137.48C440.348 137.912 440.092 138.68 440.092 139.784V146H435.988V132.608H440.092V134.84Z" fill="#8491A5"/>
<path opacity="0.4" d="M301 162H442" stroke="#8491A5" stroke-width="4" stroke-linecap="round"/>
</g>
<g opacity="0.6">
<path d="M66.608 9.152V12.44H62.144V26H58.04V12.44H53.576V9.152H66.608ZM81.2917 19.088C81.2917 19.472 81.2677 19.872 81.2197 20.288H71.9317C71.9957 21.12 72.2597 21.76 72.7237 22.208C73.2037 22.64 73.7877 22.856 74.4757 22.856C75.4997 22.856 76.2117 22.424 76.6117 21.56H80.9797C80.7557 22.44 80.3477 23.232 79.7557 23.936C79.1797 24.64 78.4517 25.192 77.5717 25.592C76.6917 25.992 75.7077 26.192 74.6197 26.192C73.3077 26.192 72.1397 25.912 71.1157 25.352C70.0917 24.792 69.2917 23.992 68.7157 22.952C68.1397 21.912 67.8517 20.696 67.8517 19.304C67.8517 17.912 68.1317 16.696 68.6917 15.656C69.2677 14.616 70.0677 13.816 71.0917 13.256C72.1157 12.696 73.2917 12.416 74.6197 12.416C75.9157 12.416 77.0677 12.688 78.0757 13.232C79.0837 13.776 79.8677 14.552 80.4277 15.56C81.0037 16.568 81.2917 17.744 81.2917 19.088ZM77.0917 18.008C77.0917 17.304 76.8517 16.744 76.3717 16.328C75.8917 15.912 75.2917 15.704 74.5717 15.704C73.8837 15.704 73.2997 15.904 72.8197 16.304C72.3557 16.704 72.0677 17.272 71.9557 18.008H77.0917ZM82.6408 19.28C82.6408 17.904 82.8968 16.696 83.4088 15.656C83.9368 14.616 84.6488 13.816 85.5448 13.256C86.4408 12.696 87.4408 12.416 88.5448 12.416C89.4888 12.416 90.3128 12.608 91.0168 12.992C91.7368 13.376 92.2888 13.88 92.6728 14.504V12.608H96.7768V26H92.6728V24.104C92.2728 24.728 91.7128 25.232 90.9928 25.616C90.2888 26 89.4648 26.192 88.5208 26.192C87.4328 26.192 86.4408 25.912 85.5448 25.352C84.6488 24.776 83.9368 23.968 83.4088 22.928C82.8968 21.872 82.6408 20.656 82.6408 19.28ZM92.6728 19.304C92.6728 18.28 92.3848 17.472 91.8088 16.88C91.2488 16.288 90.5608 15.992 89.7448 15.992C88.9288 15.992 88.2328 16.288 87.6568 16.88C87.0968 17.456 86.8168 18.256 86.8168 19.28C86.8168 20.304 87.0968 21.12 87.6568 21.728C88.2328 22.32 88.9288 22.616 89.7448 22.616C90.5608 22.616 91.2488 22.32 91.8088 21.728C92.3848 21.136 92.6728 20.328 92.6728 19.304ZM98.9298 19.304C98.9298 17.912 99.2098 16.696 99.7698 15.656C100.346 14.616 101.138 13.816 102.146 13.256C103.17 12.696 104.338 12.416 105.65 12.416C107.33 12.416 108.73 12.856 109.85 13.736C110.986 14.616 111.73 15.856 112.082 17.456H107.714C107.346 16.432 106.634 15.92 105.578 15.92C104.826 15.92 104.226 16.216 103.778 16.808C103.33 17.384 103.106 18.216 103.106 19.304C103.106 20.392 103.33 21.232 103.778 21.824C104.226 22.4 104.826 22.688 105.578 22.688C106.634 22.688 107.346 22.176 107.714 21.152H112.082C111.73 22.72 110.986 23.952 109.85 24.848C108.714 25.744 107.314 26.192 105.65 26.192C104.338 26.192 103.17 25.912 102.146 25.352C101.138 24.792 100.346 23.992 99.7698 22.952C99.2098 21.912 98.9298 20.696 98.9298 19.304ZM122.509 12.464C124.045 12.464 125.277 12.976 126.205 14C127.133 15.008 127.597 16.4 127.597 18.176V26H123.517V18.728C123.517 17.832 123.285 17.136 122.821 16.64C122.357 16.144 121.733 15.896 120.949 15.896C120.165 15.896 119.541 16.144 119.077 16.64C118.613 17.136 118.381 17.832 118.381 18.728V26H114.277V8.24H118.381V14.408C118.797 13.816 119.365 13.344 120.085 12.992C120.805 12.64 121.613 12.464 122.509 12.464ZM143.073 19.088C143.073 19.472 143.049 19.872 143.001 20.288H133.713C133.777 21.12 134.041 21.76 134.505 22.208C134.985 22.64 135.569 22.856 136.257 22.856C137.281 22.856 137.993 22.424 138.393 21.56H142.761C142.537 22.44 142.129 23.232 141.537 23.936C140.961 24.64 140.233 25.192 139.353 25.592C138.473 25.992 137.489 26.192 136.401 26.192C135.089 26.192 133.921 25.912 132.897 25.352C131.873 24.792 131.073 23.992 130.497 22.952C129.921 21.912 129.633 20.696 129.633 19.304C129.633 17.912 129.913 16.696 130.473 15.656C131.049 14.616 131.849 13.816 132.873 13.256C133.897 12.696 135.073 12.416 136.401 12.416C137.697 12.416 138.849 12.688 139.857 13.232C140.865 13.776 141.649 14.552 142.209 15.56C142.785 16.568 143.073 17.744 143.073 19.088ZM138.873 18.008C138.873 17.304 138.633 16.744 138.153 16.328C137.673 15.912 137.073 15.704 136.353 15.704C135.665 15.704 135.081 15.904 134.601 16.304C134.137 16.704 133.849 17.272 133.737 18.008H138.873ZM149.342 14.84C149.822 14.104 150.422 13.528 151.142 13.112C151.862 12.68 152.662 12.464 153.542 12.464V16.808H152.414C151.39 16.808 150.622 17.032 150.11 17.48C149.598 17.912 149.342 18.68 149.342 19.784V26H145.238V12.608H149.342V14.84Z" fill="#8491A5"/>
<path opacity="0.4" d="M53 38H178" stroke="#8491A5" stroke-width="4" stroke-linecap="round"/>
</g>
<g opacity="0.6">
<path d="M61.0293 86.168C59.7973 86.168 58.6933 85.968 57.7173 85.568C56.7413 85.168 55.9573 84.576 55.3653 83.792C54.7893 83.008 54.4853 82.064 54.4533 80.96H58.8213C58.8853 81.584 59.1013 82.064 59.4693 82.4C59.8373 82.72 60.3173 82.88 60.9093 82.88C61.5173 82.88 61.9973 82.744 62.3493 82.472C62.7013 82.184 62.8773 81.792 62.8773 81.296C62.8773 80.88 62.7333 80.536 62.4453 80.264C62.1733 79.992 61.8293 79.768 61.4133 79.592C61.0133 79.416 60.4373 79.216 59.6853 78.992C58.5973 78.656 57.7093 78.32 57.0213 77.984C56.3333 77.648 55.7413 77.152 55.2453 76.496C54.7493 75.84 54.5013 74.984 54.5013 73.928C54.5013 72.36 55.0693 71.136 56.2053 70.256C57.3413 69.36 58.8213 68.912 60.6453 68.912C62.5013 68.912 63.9973 69.36 65.1333 70.256C66.2693 71.136 66.8773 72.368 66.9573 73.952H62.5173C62.4853 73.408 62.2853 72.984 61.9173 72.68C61.5493 72.36 61.0773 72.2 60.5013 72.2C60.0053 72.2 59.6053 72.336 59.3013 72.608C58.9973 72.864 58.8453 73.24 58.8453 73.736C58.8453 74.28 59.1013 74.704 59.6133 75.008C60.1253 75.312 60.9253 75.64 62.0133 75.992C63.1013 76.36 63.9813 76.712 64.6533 77.048C65.3413 77.384 65.9333 77.872 66.4293 78.512C66.9253 79.152 67.1733 79.976 67.1733 80.984C67.1733 81.944 66.9253 82.816 66.4293 83.6C65.9493 84.384 65.2453 85.008 64.3173 85.472C63.3893 85.936 62.2933 86.168 61.0293 86.168ZM68.8829 79.304C68.8829 77.912 69.1629 76.696 69.7229 75.656C70.2989 74.616 71.0909 73.816 72.0989 73.256C73.1229 72.696 74.2909 72.416 75.6029 72.416C77.2829 72.416 78.6829 72.856 79.8029 73.736C80.9389 74.616 81.6829 75.856 82.0349 77.456H77.6669C77.2989 76.432 76.5869 75.92 75.5309 75.92C74.7789 75.92 74.1789 76.216 73.7309 76.808C73.2829 77.384 73.0589 78.216 73.0589 79.304C73.0589 80.392 73.2829 81.232 73.7309 81.824C74.1789 82.4 74.7789 82.688 75.5309 82.688C76.5869 82.688 77.2989 82.176 77.6669 81.152H82.0349C81.6829 82.72 80.9389 83.952 79.8029 84.848C78.6669 85.744 77.2669 86.192 75.6029 86.192C74.2909 86.192 73.1229 85.912 72.0989 85.352C71.0909 84.792 70.2989 83.992 69.7229 82.952C69.1629 81.912 68.8829 80.696 68.8829 79.304ZM92.4622 72.464C93.9982 72.464 95.2302 72.976 96.1582 74C97.0862 75.008 97.5502 76.4 97.5502 78.176V86H93.4702V78.728C93.4702 77.832 93.2382 77.136 92.7742 76.64C92.3102 76.144 91.6862 75.896 90.9022 75.896C90.1182 75.896 89.4942 76.144 89.0302 76.64C88.5662 77.136 88.3342 77.832 88.3342 78.728V86H84.2302V68.24H88.3342V74.408C88.7502 73.816 89.3182 73.344 90.0382 72.992C90.7582 72.64 91.5662 72.464 92.4622 72.464ZM106.498 86.192C105.186 86.192 104.002 85.912 102.946 85.352C101.906 84.792 101.082 83.992 100.474 82.952C99.8821 81.912 99.5861 80.696 99.5861 79.304C99.5861 77.928 99.8901 76.72 100.498 75.68C101.106 74.624 101.938 73.816 102.994 73.256C104.05 72.696 105.234 72.416 106.546 72.416C107.858 72.416 109.042 72.696 110.098 73.256C111.154 73.816 111.986 74.624 112.594 75.68C113.202 76.72 113.506 77.928 113.506 79.304C113.506 80.68 113.194 81.896 112.57 82.952C111.962 83.992 111.122 84.792 110.05 85.352C108.994 85.912 107.81 86.192 106.498 86.192ZM106.498 82.64C107.282 82.64 107.946 82.352 108.49 81.776C109.05 81.2 109.33 80.376 109.33 79.304C109.33 78.232 109.058 77.408 108.514 76.832C107.986 76.256 107.33 75.968 106.546 75.968C105.746 75.968 105.082 76.256 104.554 76.832C104.026 77.392 103.762 78.216 103.762 79.304C103.762 80.376 104.018 81.2 104.53 81.776C105.058 82.352 105.714 82.64 106.498 82.64ZM121.779 86.192C120.467 86.192 119.283 85.912 118.227 85.352C117.187 84.792 116.363 83.992 115.755 82.952C115.163 81.912 114.867 80.696 114.867 79.304C114.867 77.928 115.171 76.72 115.779 75.68C116.387 74.624 117.219 73.816 118.275 73.256C119.331 72.696 120.515 72.416 121.827 72.416C123.139 72.416 124.323 72.696 125.379 73.256C126.435 73.816 127.267 74.624 127.875 75.68C128.483 76.72 128.787 77.928 128.787 79.304C128.787 80.68 128.475 81.896 127.851 82.952C127.243 83.992 126.403 84.792 125.331 85.352C124.275 85.912 123.091 86.192 121.779 86.192ZM121.779 82.64C122.563 82.64 123.227 82.352 123.771 81.776C124.331 81.2 124.611 80.376 124.611 79.304C124.611 78.232 124.339 77.408 123.795 76.832C123.267 76.256 122.611 75.968 121.827 75.968C121.027 75.968 120.363 76.256 119.835 76.832C119.307 77.392 119.043 78.216 119.043 79.304C119.043 80.376 119.299 81.2 119.811 81.776C120.339 82.352 120.995 82.64 121.779 82.64ZM135.069 68.24V86H130.965V68.24H135.069Z" fill="#8491A5"/>
<path opacity="0.4" d="M53 98H178" stroke="#8491A5" stroke-width="4" stroke-linecap="round"/>
</g>
<g opacity="0.6">
<path d="M216.608 69.152V72.44H212.144V86H208.04V72.44H203.576V69.152H216.608ZM222.772 74.84C223.252 74.104 223.852 73.528 224.572 73.112C225.292 72.68 226.092 72.464 226.972 72.464V76.808H225.844C224.82 76.808 224.052 77.032 223.54 77.48C223.028 77.912 222.772 78.68 222.772 79.784V86H218.668V72.608H222.772V74.84ZM228.117 79.28C228.117 77.904 228.373 76.696 228.885 75.656C229.413 74.616 230.125 73.816 231.021 73.256C231.917 72.696 232.917 72.416 234.021 72.416C234.965 72.416 235.789 72.608 236.493 72.992C237.213 73.376 237.765 73.88 238.149 74.504V72.608H242.253V86H238.149V84.104C237.749 84.728 237.189 85.232 236.469 85.616C235.765 86 234.941 86.192 233.997 86.192C232.909 86.192 231.917 85.912 231.021 85.352C230.125 84.776 229.413 83.968 228.885 82.928C228.373 81.872 228.117 80.656 228.117 79.28ZM238.149 79.304C238.149 78.28 237.861 77.472 237.285 76.88C236.725 76.288 236.037 75.992 235.221 75.992C234.405 75.992 233.709 76.288 233.133 76.88C232.573 77.456 232.293 78.256 232.293 79.28C232.293 80.304 232.573 81.12 233.133 81.728C233.709 82.32 234.405 82.616 235.221 82.616C236.037 82.616 236.725 82.32 237.285 81.728C237.861 81.136 238.149 80.328 238.149 79.304ZM247.286 71.216C246.566 71.216 245.974 71.008 245.51 70.592C245.062 70.16 244.838 69.632 244.838 69.008C244.838 68.368 245.062 67.84 245.51 67.424C245.974 66.992 246.566 66.776 247.286 66.776C247.99 66.776 248.566 66.992 249.014 67.424C249.478 67.84 249.71 68.368 249.71 69.008C249.71 69.632 249.478 70.16 249.014 70.592C248.566 71.008 247.99 71.216 247.286 71.216ZM249.326 72.608V86H245.222V72.608H249.326ZM260.461 72.464C262.029 72.464 263.277 72.976 264.205 74C265.149 75.008 265.621 76.4 265.621 78.176V86H261.541V78.728C261.541 77.832 261.309 77.136 260.845 76.64C260.381 76.144 259.757 75.896 258.973 75.896C258.189 75.896 257.565 76.144 257.101 76.64C256.637 77.136 256.405 77.832 256.405 78.728V86H252.301V72.608H256.405V74.384C256.821 73.792 257.381 73.328 258.085 72.992C258.789 72.64 259.581 72.464 260.461 72.464ZM281.096 79.088C281.096 79.472 281.072 79.872 281.024 80.288H271.736C271.8 81.12 272.064 81.76 272.528 82.208C273.008 82.64 273.592 82.856 274.28 82.856C275.304 82.856 276.016 82.424 276.416 81.56H280.784C280.56 82.44 280.152 83.232 279.56 83.936C278.984 84.64 278.256 85.192 277.376 85.592C276.496 85.992 275.512 86.192 274.424 86.192C273.112 86.192 271.944 85.912 270.92 85.352C269.896 84.792 269.096 83.992 268.52 82.952C267.944 81.912 267.656 80.696 267.656 79.304C267.656 77.912 267.936 76.696 268.496 75.656C269.072 74.616 269.872 73.816 270.896 73.256C271.92 72.696 273.096 72.416 274.424 72.416C275.72 72.416 276.872 72.688 277.88 73.232C278.888 73.776 279.672 74.552 280.232 75.56C280.808 76.568 281.096 77.744 281.096 79.088ZM276.896 78.008C276.896 77.304 276.656 76.744 276.176 76.328C275.696 75.912 275.096 75.704 274.376 75.704C273.688 75.704 273.104 75.904 272.624 76.304C272.16 76.704 271.872 77.272 271.76 78.008H276.896ZM287.365 74.84C287.845 74.104 288.445 73.528 289.165 73.112C289.885 72.68 290.685 72.464 291.565 72.464V76.808H290.437C289.413 76.808 288.645 77.032 288.133 77.48C287.621 77.912 287.365 78.68 287.365 79.784V86H283.261V72.608H287.365V74.84Z" fill="#8491A5"/>
<path opacity="0.4" d="M208 98H288" stroke="#8491A5" stroke-width="4" stroke-linecap="round"/>
</g>
</svg>
