<svg width="115" height="115" viewBox="0 0 115 115" fill="none" xmlns="http://www.w3.org/2000/svg">
<g clip-path="url(#clip0_1_6796)">
<path d="M28.75 11.5C25.7 11.5 22.7749 12.7116 20.6183 14.8683C18.4616 17.0249 17.25 19.95 17.25 23V92C15.725 92 14.2625 91.3942 13.1841 90.3159C12.1058 89.2375 11.5 87.775 11.5 86.25V28.75H8.625C6.33751 28.75 4.14371 29.6587 2.5262 31.2762C0.908703 32.8937 0 35.0875 0 37.375L0 94.875C0 97.1625 0.908703 99.3563 2.5262 100.974C4.14371 102.591 6.33751 103.5 8.625 103.5H103.5C106.55 103.5 109.475 102.288 111.632 100.132C113.788 97.9751 115 95.05 115 92V23C115 19.95 113.788 17.0249 111.632 14.8683C109.475 12.7116 106.55 11.5 103.5 11.5H28.75ZM34.5 23H97.75V46H34.5V23ZM34.5 57.5H69V63.25H34.5V57.5ZM34.5 69H69V74.75H34.5V69ZM34.5 80.5H69V86.25H34.5V80.5ZM74.75 57.5H97.75V86.25H74.75V57.5Z" fill="#FFA92C"/>
</g>
<defs>
<clipPath id="clip0_1_6796">
<rect width="115" height="115" fill="white"/>
</clipPath>
</defs>
</svg>
