<svg width="110" height="27" viewBox="0 0 110 27" fill="none" xmlns="http://www.w3.org/2000/svg">
<path d="M17.926 5.578C18.29 7.37 18.29 9.134 17.926 10.87C17.562 12.578 16.848 14.146 15.784 15.574C15.42 16.302 14.93 16.764 14.314 16.96C13.698 17.156 13.026 17.254 12.298 17.254C12.13 17.254 11.892 17.268 11.584 17.296C11.276 17.296 10.954 17.324 10.618 17.38C10.31 17.408 10.002 17.45 9.694 17.506C9.414 17.534 9.19 17.576 9.022 17.632L9.19 20.656C9.19 20.936 9.162 21.23 9.106 21.538C9.05 21.846 8.994 22.126 8.938 22.378C8.882 22.714 8.868 22.994 8.896 23.218C8.924 23.47 8.91 23.764 8.854 24.1C8.798 24.436 8.742 24.786 8.686 25.15C8.658 25.514 8.644 25.892 8.644 26.284C8.28 25.724 7.958 24.954 7.678 23.974C7.398 23.022 7.146 21.958 6.922 20.782C6.726 19.578 6.558 18.332 6.418 17.044C6.278 15.756 6.152 14.51 6.04 13.306C5.956 12.102 5.886 10.996 5.83 9.988C5.802 8.952 5.774 8.126 5.746 7.51C5.214 7.734 4.682 8.014 4.15 8.35C3.618 8.686 3.114 9.008 2.638 9.316C2.498 9.428 2.344 9.442 2.176 9.358C2.036 9.274 1.896 9.274 1.756 9.358C1.644 9.47 1.532 9.526 1.42 9.526C1.336 9.526 1.252 9.498 1.168 9.442C1.084 9.386 1.014 9.33 0.958 9.274C0.902 9.19 0.846 9.148 0.79 9.148C0.734 8.98 0.72 8.868 0.748 8.812C0.776 8.728 0.79 8.63 0.79 8.518C0.818 8.35 0.846 8.196 0.874 8.056C0.874 7.888 0.944 7.748 1.084 7.636C2.764 6.292 4.346 5.284 5.83 4.612C7.314 3.912 8.686 3.408 9.946 3.1C11.29 2.736 12.508 2.638 13.6 2.806C14.692 2.946 15.77 3.506 16.834 4.486C17.142 4.57 17.394 4.696 17.59 4.864C17.814 5.004 17.926 5.242 17.926 5.578ZM15.868 6.418C15.56 5.998 15.14 5.704 14.608 5.536C14.076 5.368 13.474 5.298 12.802 5.326C12.13 5.354 11.43 5.466 10.702 5.662C10.002 5.83 9.33 6.054 8.686 6.334C8.686 6.838 8.686 7.468 8.686 8.224C8.686 8.952 8.686 9.736 8.686 10.576C8.714 11.388 8.742 12.214 8.77 13.054C8.826 13.866 8.882 14.622 8.938 15.322C9.358 15.182 9.834 15.056 10.366 14.944C10.926 14.804 11.472 14.65 12.004 14.482C12.564 14.286 13.082 14.048 13.558 13.768C14.062 13.488 14.468 13.096 14.776 12.592C14.944 12.228 15.126 11.78 15.322 11.248C15.546 10.688 15.728 10.114 15.868 9.526C16.008 8.91 16.078 8.336 16.078 7.804C16.106 7.244 16.036 6.782 15.868 6.418ZM26.8382 9.862L26.1242 10.576C26.3482 10.548 26.6842 10.492 27.1322 10.408C27.6082 10.296 28.0702 10.24 28.5182 10.24C28.8542 10.296 29.1342 10.408 29.3582 10.576C29.5822 10.744 29.7222 11.066 29.7782 11.542C29.8902 12.214 30.0582 12.9 30.2822 13.6C30.5342 14.272 30.7162 14.944 30.8282 15.616C30.9682 16.288 30.9682 16.932 30.8282 17.548C30.6882 18.136 30.3102 18.668 29.6942 19.144C29.0502 20.124 28.3362 20.95 27.5522 21.622C26.7962 22.266 25.9982 22.644 25.1582 22.756C24.5982 22.84 23.9822 22.756 23.3102 22.504C22.6382 22.28 22.1482 21.874 21.8402 21.286C21.7562 21.342 21.6862 21.356 21.6302 21.328C21.5742 21.272 21.5182 21.216 21.4622 21.16C21.4062 21.104 21.3502 21.09 21.2942 21.118C21.2662 21.146 21.2382 21.132 21.2102 21.076C21.1822 20.992 21.1682 20.88 21.1682 20.74V20.656V20.572C21.1962 19.592 21.2802 18.612 21.4202 17.632C21.5882 16.624 21.8262 15.658 22.1342 14.734C22.4702 13.782 22.8902 12.9 23.3942 12.088C23.9262 11.248 24.5982 10.506 25.4102 9.862C25.6902 9.694 25.9982 9.638 26.3342 9.694C26.3902 9.694 26.4602 9.694 26.5442 9.694C26.6282 9.694 26.7262 9.75 26.8382 9.862ZM25.4102 12.718C25.2422 12.69 25.1442 12.634 25.1162 12.55C25.0882 12.466 25.0882 12.368 25.1162 12.256C25.1722 12.116 25.2282 11.962 25.2842 11.794C25.3682 11.626 25.4102 11.458 25.4102 11.29C24.8222 11.822 24.3602 12.466 24.0242 13.222C23.7162 13.978 23.4922 14.762 23.3522 15.574C23.2122 16.358 23.1422 17.128 23.1422 17.884C23.1702 18.64 23.2122 19.298 23.2682 19.858C23.3242 20.334 23.4222 20.726 23.5622 21.034C23.7022 21.314 23.9122 21.482 24.1922 21.538C24.5002 21.622 24.9062 21.538 25.4102 21.286C26.1382 20.922 26.7262 20.418 27.1742 19.774C27.6222 19.13 27.9862 18.444 28.2662 17.716C28.3782 17.324 28.4622 16.862 28.5182 16.33C28.6022 15.77 28.5882 15.252 28.4762 14.776C28.3362 14.132 27.9722 13.67 27.3842 13.39C26.8242 13.082 26.1662 12.858 25.4102 12.718ZM43.8498 10.618C43.7098 11.038 43.5978 11.36 43.5138 11.584C43.4298 11.808 43.3038 11.836 43.1358 11.668C42.7438 11.276 42.2678 10.856 41.7078 10.408C41.1478 9.96 40.4618 9.68 39.6498 9.568C39.1178 9.512 38.5438 9.582 37.9278 9.778C37.3398 9.946 36.8918 10.324 36.5838 10.912C36.3038 11.416 36.2618 12.018 36.4578 12.718C36.6258 13.446 36.9898 13.978 37.5498 14.314C38.1378 14.622 38.7818 14.874 39.4818 15.07C40.2098 15.238 40.9378 15.392 41.6658 15.532C42.4218 15.672 43.0658 15.924 43.5978 16.288C43.7658 16.372 43.8918 16.512 43.9758 16.708C44.0878 16.876 44.1998 17.03 44.3118 17.17C44.4518 17.338 44.5778 17.478 44.6898 17.59C44.8298 17.702 44.9558 17.87 45.0678 18.094C45.1518 18.262 45.2498 18.472 45.3618 18.724C45.4738 18.948 45.5018 19.2 45.4458 19.48C45.3618 19.844 45.0118 20.236 44.3958 20.656C43.0518 21.524 41.6378 22.21 40.1538 22.714C38.6698 23.246 37.1018 23.344 35.4498 23.008C35.2538 22.952 35.0298 22.756 34.7778 22.42C34.5258 22.112 34.3158 21.902 34.1478 21.79C33.6998 21.538 33.3918 21.216 33.2238 20.824C32.9998 20.096 32.8878 19.298 32.8878 18.43C32.8878 18.15 32.9298 18.024 33.0138 18.052C33.1258 18.052 33.2238 18.052 33.3078 18.052C33.4758 18.052 33.6578 18.164 33.8538 18.388C34.0778 18.612 34.3018 18.878 34.5258 19.186C34.7778 19.466 35.0018 19.732 35.1978 19.984C35.4218 20.208 35.6038 20.32 35.7438 20.32C36.2198 20.544 36.7938 20.67 37.4658 20.698C38.1378 20.726 38.8098 20.67 39.4818 20.53C40.1818 20.362 40.8258 20.11 41.4138 19.774C42.0298 19.41 42.5198 18.962 42.8838 18.43C42.8838 18.29 42.7158 18.122 42.3798 17.926C42.0718 17.73 41.6658 17.52 41.1618 17.296C40.6578 17.044 40.0978 16.792 39.4818 16.54C38.8938 16.288 38.3198 16.022 37.7598 15.742C37.2278 15.462 36.7518 15.168 36.3318 14.86C35.9398 14.552 35.6738 14.244 35.5338 13.936C35.4498 13.712 35.3518 13.488 35.2398 13.264C35.1278 13.012 35.0578 12.83 35.0298 12.718C34.8898 12.102 34.8618 11.514 34.9458 10.954C35.0298 10.366 35.1978 9.848 35.4498 9.4C35.7018 8.952 36.0378 8.588 36.4578 8.308C36.8778 8 37.3538 7.804 37.8858 7.72C38.7258 7.608 39.6218 7.608 40.5738 7.72C41.5538 7.804 42.4218 8.126 43.1778 8.686C43.4018 8.882 43.5558 9.064 43.6398 9.232C43.7518 9.4 43.8358 9.596 43.8918 9.82C43.9198 9.96 43.9478 10.1 43.9758 10.24C44.0038 10.352 43.9618 10.478 43.8498 10.618ZM53.0413 8.182C53.2653 8.406 53.3493 8.588 53.2933 8.728C53.2653 8.868 53.1813 8.924 53.0413 8.896C52.6773 8.896 52.2713 8.938 51.8233 9.022C51.4033 9.078 50.9413 9.134 50.4373 9.19C49.9613 9.218 49.4573 9.218 48.9253 9.19C48.3933 9.162 47.8613 9.064 47.3293 8.896C47.1053 8.672 47.1053 8.476 47.3293 8.308C47.5813 8.112 47.7773 7.832 47.9173 7.468C48.0013 7.216 48.1133 7.048 48.2533 6.964C48.4213 6.852 48.5893 6.782 48.7573 6.754C49.0653 6.754 49.4433 6.824 49.8913 6.964C50.3673 7.076 50.7593 7.146 51.0673 7.174C51.5433 7.23 51.9353 7.314 52.2433 7.426C52.5513 7.51 52.8173 7.762 53.0413 8.182ZM52.1593 13.894C52.3273 14.538 52.4533 15.126 52.5373 15.658C52.6493 16.19 52.7193 16.708 52.7473 17.212C52.8033 17.688 52.8313 18.178 52.8313 18.682C52.8593 19.186 52.8733 19.732 52.8733 20.32C52.8733 20.432 52.8033 20.558 52.6633 20.698C52.5513 20.81 52.4673 20.936 52.4113 21.076C52.2993 21.328 52.2013 21.482 52.1173 21.538C52.0613 21.594 51.9493 21.664 51.7813 21.748C51.3893 21.916 51.0393 22.154 50.7313 22.462C50.3673 21.93 50.1153 21.314 49.9753 20.614C49.8633 19.914 49.7793 19.186 49.7233 18.43C49.6953 17.674 49.6533 16.918 49.5973 16.162C49.5693 15.378 49.4713 14.622 49.3033 13.894C49.2193 13.502 49.2473 13.236 49.3873 13.096C49.5273 12.956 49.6813 12.858 49.8493 12.802C50.0453 12.746 50.2553 12.788 50.4793 12.928C50.7313 13.068 50.9693 13.208 51.1933 13.348C51.3893 13.46 51.5713 13.53 51.7393 13.558C51.9353 13.558 52.0753 13.67 52.1593 13.894ZM71.5607 12.718C71.6167 12.774 71.6587 12.802 71.6867 12.802C71.7147 12.802 71.7287 12.83 71.7287 12.886C71.7007 12.942 71.6307 13.012 71.5187 13.096C71.4347 13.152 71.2667 13.194 71.0147 13.222C70.9307 13.25 70.8187 13.306 70.6787 13.39C70.5387 13.446 70.4267 13.488 70.3427 13.516C69.5867 13.684 68.6907 13.838 67.6547 13.978C66.6467 14.118 65.5967 14.244 64.5047 14.356C64.4487 15.336 64.4207 16.246 64.4207 17.086C64.4487 17.926 64.4907 18.654 64.5467 19.27C64.6027 19.746 64.8267 19.984 65.2187 19.984C65.6107 19.956 66.0167 19.872 66.4367 19.732C66.5487 19.704 66.8427 19.578 67.3187 19.354C67.8227 19.102 68.3967 18.822 69.0407 18.514C69.7127 18.178 70.4127 17.828 71.1407 17.464C71.8687 17.072 72.5267 16.722 73.1147 16.414C73.1147 16.806 72.9047 17.184 72.4847 17.548C72.2607 17.744 72.0087 17.926 71.7287 18.094C71.4767 18.262 71.2107 18.444 70.9307 18.64C70.6227 18.836 70.4127 19.046 70.3007 19.27C70.1887 19.494 69.9367 19.732 69.5447 19.984C68.8167 20.46 68.0327 20.894 67.1927 21.286C66.3527 21.678 65.5967 21.958 64.9247 22.126C64.7007 22.182 64.4627 22.21 64.2107 22.21C63.9867 22.21 63.7627 22.252 63.5387 22.336C63.2027 22.476 62.9367 22.448 62.7407 22.252C62.5727 22.056 62.4607 21.776 62.4047 21.412C62.2927 20.376 62.2087 19.27 62.1527 18.094C62.1247 16.918 62.1247 15.728 62.1527 14.524C61.3127 14.58 60.5287 14.608 59.8007 14.608C59.1007 14.58 58.5267 14.524 58.0787 14.44C57.6587 14.384 57.2667 14.3 56.9027 14.188C56.5667 14.048 56.2587 13.838 55.9787 13.558C55.7267 13.558 55.6427 13.446 55.7267 13.222C55.8387 12.97 55.9227 12.76 55.9787 12.592C56.5667 12.564 57.4207 12.536 58.5407 12.508C59.6887 12.452 60.9207 12.396 62.2367 12.34C62.3487 10.016 62.5447 7.86 62.8247 5.872C63.1047 3.884 63.4407 2.4 63.8327 1.42C63.8327 1.168 63.9307 0.999999 64.1267 0.915999C64.3507 0.803998 64.5747 0.677998 64.7987 0.537998C64.9107 0.481999 65.0227 0.411999 65.1347 0.327999C65.2747 0.215998 65.4567 0.159998 65.6807 0.159998C65.9327 0.299998 66.1147 0.425998 66.2267 0.537998C66.3387 0.621999 66.3947 0.733999 66.3947 0.873999C66.3947 1.014 66.3527 1.182 66.2687 1.378C66.1847 1.574 66.0867 1.826 65.9747 2.134C65.9187 2.218 65.8347 2.568 65.7227 3.184C65.6107 3.8 65.4847 4.584 65.3447 5.536C65.2327 6.46 65.1067 7.524 64.9667 8.728C64.8267 9.904 64.7147 11.094 64.6307 12.298C65.5547 12.298 66.4367 12.312 67.2767 12.34C68.1167 12.34 68.8587 12.368 69.5027 12.424L71.5607 12.718ZM79.1272 8.182C79.3512 8.406 79.4352 8.588 79.3792 8.728C79.3512 8.868 79.2672 8.924 79.1272 8.896C78.7632 8.896 78.3572 8.938 77.9092 9.022C77.4892 9.078 77.0272 9.134 76.5232 9.19C76.0472 9.218 75.5432 9.218 75.0112 9.19C74.4792 9.162 73.9472 9.064 73.4152 8.896C73.1912 8.672 73.1912 8.476 73.4152 8.308C73.6672 8.112 73.8632 7.832 74.0032 7.468C74.0872 7.216 74.1992 7.048 74.3392 6.964C74.5072 6.852 74.6752 6.782 74.8432 6.754C75.1512 6.754 75.5292 6.824 75.9772 6.964C76.4532 7.076 76.8452 7.146 77.1532 7.174C77.6292 7.23 78.0212 7.314 78.3292 7.426C78.6372 7.51 78.9032 7.762 79.1272 8.182ZM78.2452 13.894C78.4132 14.538 78.5392 15.126 78.6232 15.658C78.7352 16.19 78.8052 16.708 78.8332 17.212C78.8892 17.688 78.9172 18.178 78.9172 18.682C78.9452 19.186 78.9592 19.732 78.9592 20.32C78.9592 20.432 78.8892 20.558 78.7492 20.698C78.6372 20.81 78.5532 20.936 78.4972 21.076C78.3852 21.328 78.2872 21.482 78.2032 21.538C78.1472 21.594 78.0352 21.664 77.8672 21.748C77.4752 21.916 77.1252 22.154 76.8172 22.462C76.4532 21.93 76.2012 21.314 76.0612 20.614C75.9492 19.914 75.8652 19.186 75.8092 18.43C75.7812 17.674 75.7392 16.918 75.6832 16.162C75.6552 15.378 75.5572 14.622 75.3892 13.894C75.3052 13.502 75.3332 13.236 75.4732 13.096C75.6132 12.956 75.7672 12.858 75.9352 12.802C76.1312 12.746 76.3412 12.788 76.5652 12.928C76.8172 13.068 77.0552 13.208 77.2792 13.348C77.4752 13.46 77.6572 13.53 77.8252 13.558C78.0212 13.558 78.1612 13.67 78.2452 13.894ZM88.2386 9.862L87.5246 10.576C87.7486 10.548 88.0846 10.492 88.5326 10.408C89.0086 10.296 89.4706 10.24 89.9186 10.24C90.2546 10.296 90.5346 10.408 90.7586 10.576C90.9826 10.744 91.1226 11.066 91.1786 11.542C91.2906 12.214 91.4586 12.9 91.6826 13.6C91.9346 14.272 92.1166 14.944 92.2286 15.616C92.3686 16.288 92.3686 16.932 92.2286 17.548C92.0886 18.136 91.7106 18.668 91.0946 19.144C90.4506 20.124 89.7366 20.95 88.9526 21.622C88.1966 22.266 87.3986 22.644 86.5586 22.756C85.9986 22.84 85.3826 22.756 84.7106 22.504C84.0386 22.28 83.5486 21.874 83.2406 21.286C83.1566 21.342 83.0866 21.356 83.0306 21.328C82.9746 21.272 82.9186 21.216 82.8626 21.16C82.8066 21.104 82.7506 21.09 82.6946 21.118C82.6666 21.146 82.6386 21.132 82.6106 21.076C82.5826 20.992 82.5686 20.88 82.5686 20.74V20.656V20.572C82.5966 19.592 82.6806 18.612 82.8206 17.632C82.9886 16.624 83.2266 15.658 83.5346 14.734C83.8706 13.782 84.2906 12.9 84.7946 12.088C85.3266 11.248 85.9986 10.506 86.8106 9.862C87.0906 9.694 87.3986 9.638 87.7346 9.694C87.7906 9.694 87.8606 9.694 87.9446 9.694C88.0286 9.694 88.1266 9.75 88.2386 9.862ZM86.8106 12.718C86.6426 12.69 86.5446 12.634 86.5166 12.55C86.4886 12.466 86.4886 12.368 86.5166 12.256C86.5726 12.116 86.6286 11.962 86.6846 11.794C86.7686 11.626 86.8106 11.458 86.8106 11.29C86.2226 11.822 85.7606 12.466 85.4246 13.222C85.1166 13.978 84.8926 14.762 84.7526 15.574C84.6126 16.358 84.5426 17.128 84.5426 17.884C84.5706 18.64 84.6126 19.298 84.6686 19.858C84.7246 20.334 84.8226 20.726 84.9626 21.034C85.1026 21.314 85.3126 21.482 85.5926 21.538C85.9006 21.622 86.3066 21.538 86.8106 21.286C87.5386 20.922 88.1266 20.418 88.5746 19.774C89.0226 19.13 89.3866 18.444 89.6666 17.716C89.7786 17.324 89.8626 16.862 89.9186 16.33C90.0026 15.77 89.9886 15.252 89.8766 14.776C89.7366 14.132 89.3726 13.67 88.7846 13.39C88.2246 13.082 87.5666 12.858 86.8106 12.718ZM97.9422 16.288C98.4182 15.812 98.8942 15.308 99.3702 14.776C99.8742 14.216 100.392 13.684 100.924 13.18C101.456 12.676 102.002 12.228 102.562 11.836C103.122 11.416 103.71 11.08 104.326 10.828C104.466 10.772 104.592 10.758 104.704 10.786C104.844 10.814 104.984 10.8 105.124 10.744C105.348 10.744 105.544 10.744 105.712 10.744C105.88 10.744 106.034 10.8 106.174 10.912C106.566 11.164 106.874 11.528 107.098 12.004C107.35 12.452 107.56 12.956 107.728 13.516C107.84 13.824 107.896 14.118 107.896 14.398C107.924 14.678 108.008 15 108.148 15.364C108.316 15.896 108.498 16.442 108.694 17.002C108.918 17.534 109.002 18.052 108.946 18.556C108.918 18.696 108.876 18.822 108.82 18.934C108.764 19.018 108.694 19.13 108.61 19.27C108.554 19.382 108.456 19.522 108.316 19.69C108.176 19.858 108.036 19.984 107.896 20.068C107.756 20.18 107.658 20.278 107.602 20.362C107.574 20.418 107.448 20.488 107.224 20.572C106.86 20.04 106.58 19.466 106.384 18.85C106.188 18.234 106.02 17.59 105.88 16.918C105.74 16.246 105.614 15.56 105.502 14.86C105.39 14.16 105.25 13.446 105.082 12.718C105.026 12.522 104.844 12.41 104.536 12.382C104.256 12.354 103.92 12.452 103.528 12.676C103.164 12.872 102.772 13.194 102.352 13.642C101.932 14.09 101.554 14.664 101.218 15.364C100.994 15.868 100.784 16.4 100.588 16.96C100.392 17.492 100.168 18.038 99.9162 18.598C99.6922 19.13 99.4122 19.662 99.0762 20.194C98.7682 20.698 98.3902 21.16 97.9422 21.58C97.8022 21.72 97.7042 21.734 97.6482 21.622C97.5922 21.51 97.4522 21.412 97.2282 21.328C97.0602 21.272 96.9622 21.216 96.9342 21.16C96.9342 21.104 96.8922 20.936 96.8082 20.656C96.6402 20.068 96.4582 19.396 96.2622 18.64C96.0942 17.884 95.8982 17.086 95.6742 16.246C95.4782 15.406 95.2682 14.566 95.0442 13.726C94.8202 12.858 94.5962 12.046 94.3722 11.29L94.1202 10.534C94.1762 10.422 94.2742 10.324 94.4142 10.24C94.5822 10.156 94.7502 10.086 94.9182 10.03C95.0862 9.974 95.2682 9.988 95.4642 10.072C95.6602 10.156 95.8142 10.198 95.9262 10.198C96.2342 10.198 96.5002 10.394 96.7242 10.786C96.9762 11.178 97.1862 11.682 97.3542 12.298C97.5222 12.886 97.6482 13.544 97.7322 14.272C97.8442 14.972 97.9142 15.644 97.9422 16.288Z" fill="#FF635F"/>
</svg>
