<svg width="198" height="27" viewBox="0 0 198 27" fill="none" xmlns="http://www.w3.org/2000/svg">
<path d="M10.264 6.42376C10.2853 6.46642 10.296 6.50909 10.296 6.55175C10.296 6.57309 10.3067 6.60509 10.328 6.64776C10.3707 6.73309 10.36 6.81842 10.296 6.90376C10.232 6.98909 10.168 7.01042 10.104 6.96776C9.89067 6.92509 9.67733 6.86109 9.464 6.77575C9.25067 6.66909 9.03733 6.57309 8.824 6.48775C8.61067 6.40242 8.39733 6.33842 8.184 6.29576C7.97067 6.25309 7.768 6.26376 7.576 6.32775C7.14933 6.45576 6.70133 6.65842 6.232 6.93576C5.784 7.21309 5.336 7.56509 4.888 7.99176C4.46133 8.39709 4.056 8.87709 3.672 9.43176C3.30933 9.98642 3 10.6051 2.744 11.2878C2.424 12.2264 2.328 13.1118 2.456 13.9438C2.584 14.7544 2.872 15.4371 3.32 15.9918C3.78933 16.5464 4.38667 16.9518 5.112 17.2078C5.85867 17.4424 6.70133 17.4638 7.64 17.2718C8.32267 17.1224 8.97333 16.8771 9.592 16.5358C10.2107 16.1944 10.7867 15.8424 11.32 15.4798C11.2133 15.6504 11.1173 15.7998 11.032 15.9278C10.9467 16.0558 10.8187 16.2051 10.648 16.3758C10.5413 16.4824 10.4347 16.6318 10.328 16.8238C10.2213 16.9944 10.1147 17.1331 10.008 17.2398C9.26133 18.0504 8.35467 18.6371 7.288 18.9998C7.05333 19.0851 6.85067 19.1278 6.68 19.1278C6.50933 19.1491 6.30667 19.1811 6.072 19.2238C5.73067 19.2238 5.38933 19.2344 5.048 19.2558C4.70667 19.2771 4.376 19.2344 4.056 19.1278C3.11733 18.8078 2.31733 18.1891 1.656 17.2718C1.35733 16.8664 1.10133 16.3758 0.888 15.7998C0.696 15.2024 0.568 14.5838 0.504 13.9438C0.461333 13.2824 0.482667 12.6318 0.568 11.9918C0.653333 11.3518 0.834667 10.7544 1.112 10.1998C1.688 8.96242 2.37067 7.85309 3.16 6.87176C3.97067 5.89042 4.93067 5.20776 6.04 4.82376C6.78667 4.54642 7.68267 4.52509 8.728 4.75976C8.984 4.86642 9.272 5.07976 9.592 5.39976C9.69867 5.50642 9.80533 5.61309 9.912 5.71976C10.0187 5.82642 10.1253 5.97576 10.232 6.16776C10.2533 6.21042 10.2533 6.25309 10.232 6.29576C10.232 6.33842 10.2427 6.38109 10.264 6.42376ZM23.2275 8.66376C23.2275 8.85576 23.2595 9.10109 23.3235 9.39976C23.3875 9.67709 23.3662 9.90109 23.2595 10.0718C23.2168 10.1144 23.1955 10.1998 23.1955 10.3278C23.1955 10.4344 23.1635 10.5091 23.0995 10.5518L22.6835 10.2958C22.3422 10.1251 21.9582 10.0504 21.5315 10.0718C21.1262 10.0931 20.7102 10.1891 20.2835 10.3598C19.9848 10.4878 19.6862 10.6691 19.3875 10.9038C19.1102 11.1171 18.8435 11.3624 18.5875 11.6398C18.3315 11.9171 18.0968 12.2051 17.8835 12.5038C17.6702 12.8024 17.4888 13.0904 17.3395 13.3678C16.9982 13.9864 16.8275 14.7331 16.8275 15.6078C16.8488 16.4824 17.1688 17.6131 17.7875 18.9998C17.7875 19.1491 17.6808 19.3304 17.4675 19.5438C17.4248 19.5864 17.3715 19.6504 17.3075 19.7358C17.2435 19.8211 17.1902 19.8851 17.1475 19.9278C16.9768 20.0771 16.8702 20.2051 16.8275 20.3118C16.8062 20.4184 16.7422 20.4931 16.6355 20.5358C16.4648 20.5998 16.3048 20.4504 16.1555 20.0878C15.7928 19.4478 15.4408 18.6691 15.0995 17.7518C14.7795 16.8131 14.4702 15.8531 14.1715 14.8718C13.8942 13.8904 13.6382 12.9518 13.4035 12.0558C13.1902 11.1384 13.0195 10.3704 12.8915 9.75176C12.8275 9.58109 12.8168 9.42109 12.8595 9.27176C12.9022 9.10109 12.9662 8.96242 13.0515 8.85576C13.1155 8.77042 13.1902 8.74909 13.2755 8.79176C13.3822 8.83442 13.4675 8.85576 13.5315 8.85576C13.8088 8.85576 13.9795 8.90909 14.0435 9.01576C14.1075 9.12242 14.2142 9.26109 14.3635 9.43176C14.6622 9.77309 14.8968 10.2318 15.0675 10.8078C15.2382 11.3838 15.4515 12.0664 15.7075 12.8558C16.0488 12.2798 16.4862 11.7251 17.0195 11.1918C17.5742 10.6584 18.1715 10.1784 18.8115 9.75176C19.4515 9.30376 20.1128 8.94109 20.7955 8.66376C21.4782 8.38642 22.1395 8.21576 22.7795 8.15176C22.9075 8.13042 23.0142 8.17309 23.0995 8.27976C23.2062 8.36509 23.2488 8.49309 23.2275 8.66376ZM32.0388 9.14375C32.1881 9.29309 32.3268 9.46375 32.4548 9.65576C32.5828 9.82642 32.6894 10.0078 32.7748 10.1998C32.9454 10.6051 33.0308 11.0104 33.0308 11.4158C33.0521 11.7998 32.9028 12.2691 32.5828 12.8238C32.2201 13.4211 31.7508 13.9224 31.1748 14.3278C30.6201 14.7331 30.0121 14.9891 29.3508 15.0958C28.8814 15.1811 28.4121 15.1811 27.9427 15.0958C27.4734 14.9891 27.0254 14.7758 26.5988 14.4558C26.4708 14.5624 26.3641 14.7224 26.2788 14.9358C26.2148 15.1278 26.1934 15.3091 26.2148 15.4798C26.2574 15.7784 26.3641 16.1091 26.5348 16.4718C26.7268 16.8131 26.9294 17.0478 27.1428 17.1758C27.5054 17.3251 28.0068 17.3358 28.6468 17.2078C29.3081 17.0798 30.0014 16.8878 30.7268 16.6318C31.4734 16.3544 32.1988 16.0558 32.9028 15.7358C33.6281 15.3944 34.2468 15.1064 34.7588 14.8718C34.7588 14.9998 34.7268 15.0851 34.6628 15.1278C34.6201 15.1704 34.5561 15.2451 34.4708 15.3518C34.3641 15.4584 34.2468 15.5864 34.1188 15.7358C33.9908 15.8851 33.8414 16.0131 33.6708 16.1198C33.4574 16.2478 33.2974 16.4184 33.1908 16.6318C33.0841 16.8238 32.8814 17.0051 32.5828 17.1758C32.1774 17.3891 31.7614 17.6131 31.3348 17.8478C30.9294 18.0611 30.5241 18.2638 30.1188 18.4558C29.7134 18.6264 29.2974 18.7651 28.8708 18.8718C28.4654 18.9571 28.0601 18.9784 27.6548 18.9358C27.3774 18.8931 27.1428 18.8184 26.9508 18.7118C26.7801 18.6051 26.5668 18.4451 26.3108 18.2318C26.1828 18.1251 26.0334 18.0184 25.8628 17.9118C25.6921 17.8051 25.5641 17.6984 25.4788 17.5918C25.1161 17.0584 24.8708 16.4931 24.7428 15.8958C24.6148 15.2771 24.5828 14.6691 24.6468 14.0718C24.7321 13.4531 24.8921 12.8558 25.1268 12.2798C25.3614 11.6824 25.6708 11.1384 26.0548 10.6478C26.2681 10.3704 26.5241 10.0931 26.8228 9.81576C27.1428 9.51709 27.4841 9.26109 27.8468 9.04776C28.2308 8.81309 28.6254 8.63176 29.0308 8.50376C29.4574 8.37576 29.8841 8.32242 30.3108 8.34376C30.4814 8.36509 30.6308 8.41842 30.7588 8.50376C30.9081 8.56776 31.0681 8.64242 31.2388 8.72776C31.3454 8.77042 31.4734 8.83442 31.6228 8.91975C31.7934 8.98376 31.9321 9.05842 32.0388 9.14375ZM31.1108 11.0318C31.0681 10.8398 30.9508 10.6691 30.7588 10.5198C30.5668 10.3704 30.3534 10.2531 30.1188 10.1678C29.8841 10.0611 29.6494 9.99709 29.4148 9.97576C29.1801 9.95442 29.0094 9.96509 28.9028 10.0078C28.7321 10.0718 28.5294 10.1891 28.2948 10.3598C28.0814 10.5091 27.8681 10.6904 27.6548 10.9038C27.4628 11.1171 27.2708 11.3518 27.0788 11.6078C26.9081 11.8424 26.7801 12.0664 26.6948 12.2798C26.6521 12.3438 26.6094 12.4504 26.5668 12.5998C26.5454 12.7278 26.5561 12.8238 26.5988 12.8878C26.8548 13.2078 27.2388 13.3678 27.7508 13.3678C28.2414 13.3678 28.7641 13.2504 29.3188 13.0158C29.8948 12.7811 30.3001 12.5358 30.5348 12.2798C30.5561 12.2371 30.5988 12.1624 30.6628 12.0558C30.7481 11.9491 30.8228 11.8318 30.8868 11.7038C30.9508 11.5758 31.0041 11.4478 31.0468 11.3198C31.1108 11.1918 31.1321 11.0958 31.1108 11.0318ZM43.3693 9.55976C43.6466 10.2424 43.9026 10.9784 44.1373 11.7678C44.3933 12.5571 44.5639 13.3464 44.6493 14.1358C44.7559 14.9038 44.7559 15.6504 44.6493 16.3758C44.5639 17.1011 44.3186 17.7304 43.9133 18.2638C43.7426 18.4771 43.5399 18.5624 43.3053 18.5198C43.2199 18.4984 43.1453 18.4451 43.0813 18.3598C43.0173 18.2744 42.9319 18.1998 42.8253 18.1358C42.7399 18.0718 42.6439 18.0184 42.5373 17.9758C42.4519 17.9331 42.3666 17.8478 42.2812 17.7198C41.9613 17.8264 41.6413 17.9864 41.3213 18.1998C41.0226 18.3918 40.7133 18.5944 40.3933 18.8078C40.0733 19.0211 39.7426 19.2238 39.4013 19.4158C39.0599 19.6291 38.7079 19.7784 38.3453 19.8638C37.9613 19.9704 37.6733 19.9491 37.4813 19.7998C37.3106 19.6718 37.1186 19.5224 36.9053 19.3518C36.7559 19.2238 36.6599 19.1384 36.6173 19.0958C36.5746 19.0744 36.5319 18.9464 36.4893 18.7118C36.4253 18.2424 36.4146 17.7411 36.4573 17.2078C36.5213 16.6531 36.6493 16.0984 36.8413 15.5438C37.3746 13.9224 38.4626 12.8344 40.1053 12.2798C40.2973 12.2158 40.4893 12.2051 40.6813 12.2478C40.8946 12.2691 41.0973 12.3224 41.2893 12.4078C41.4813 12.4931 41.6626 12.5998 41.8333 12.7278C42.0253 12.8558 42.1959 12.9838 42.3453 13.1118L42.8573 13.5278C42.9639 13.1651 42.9533 12.7811 42.8253 12.3758C42.7186 11.9491 42.5479 11.5544 42.3133 11.1918C42.0786 10.8078 41.8119 10.4664 41.5133 10.1678C41.2146 9.86909 40.9266 9.66642 40.6493 9.55976C39.5613 9.55976 38.5799 9.81576 37.7053 10.3278C36.8519 10.8184 36.0199 11.4691 35.2093 12.2798C35.1666 12.3224 35.1133 12.3544 35.0493 12.3758C35.0066 12.3971 34.9639 12.4184 34.9213 12.4398C34.8573 12.4824 34.7826 12.4931 34.6973 12.4718C34.6333 12.4504 34.6226 12.3864 34.6653 12.2798C34.7933 11.5971 35.0493 10.9891 35.4333 10.4558C35.8173 9.90109 36.2653 9.42109 36.7773 9.01576C37.2893 8.61042 37.8333 8.26909 38.4093 7.99176C38.9853 7.71442 39.5506 7.51176 40.1053 7.38376C40.1906 7.34109 40.2653 7.31976 40.3293 7.31976C40.4146 7.29842 40.5106 7.28776 40.6173 7.28776C40.7666 7.28776 40.9053 7.33042 41.0333 7.41576C41.1613 7.50109 41.3106 7.59709 41.4813 7.70376C41.6946 7.81042 41.9079 7.93842 42.1213 8.08776C42.3346 8.21576 42.5266 8.37576 42.6973 8.56776C42.8466 8.73842 42.9746 8.90909 43.0813 9.07976C43.1879 9.25042 43.2839 9.41042 43.3693 9.55976ZM42.2812 15.2558C42.1533 14.9784 41.9506 14.7224 41.6733 14.4878C41.4173 14.2531 41.1186 14.0824 40.7773 13.9758C40.4359 13.8478 40.0626 13.8158 39.6573 13.8798C39.2733 13.9438 38.8786 14.1358 38.4733 14.4558C38.3453 14.7331 38.2173 15.0424 38.0893 15.3838C37.9613 15.7038 37.8653 16.0344 37.8013 16.3758C37.7373 16.6958 37.7053 17.0264 37.7053 17.3678C37.7266 17.6878 37.8013 17.9864 37.9293 18.2638C38.7399 17.9864 39.5293 17.6664 40.2973 17.3038C41.0653 16.9411 41.7266 16.6211 42.2812 16.3438C42.4093 16.2158 42.4839 16.1091 42.5052 16.0238C42.5266 15.9384 42.5159 15.8638 42.4733 15.7998C42.4519 15.7358 42.4093 15.6611 42.3453 15.5758C42.3026 15.4904 42.2812 15.3838 42.2812 15.2558ZM58.2605 11.9278C58.3032 11.9704 58.3352 11.9918 58.3565 11.9918C58.3778 11.9918 58.3885 12.0131 58.3885 12.0558C58.3672 12.0984 58.3138 12.1518 58.2285 12.2158C58.1645 12.2584 58.0365 12.2904 57.8445 12.3118C57.7805 12.3331 57.6952 12.3758 57.5885 12.4398C57.4818 12.4824 57.3965 12.5144 57.3325 12.5358C56.7565 12.6638 56.0738 12.7811 55.2845 12.8878C54.5165 12.9944 53.7165 13.0904 52.8845 13.1758C52.8418 13.9224 52.8205 14.6158 52.8205 15.2558C52.8418 15.8958 52.8738 16.4504 52.9165 16.9198C52.9592 17.2824 53.1298 17.4638 53.4285 17.4638C53.7272 17.4424 54.0365 17.3784 54.3565 17.2718C54.4418 17.2504 54.6658 17.1544 55.0285 16.9838C55.4125 16.7918 55.8498 16.5784 56.3405 16.3438C56.8525 16.0878 57.3858 15.8211 57.9405 15.5438C58.4952 15.2451 58.9965 14.9784 59.4445 14.7438C59.4445 15.0424 59.2845 15.3304 58.9645 15.6078C58.7938 15.7571 58.6018 15.8958 58.3885 16.0238C58.1965 16.1518 57.9938 16.2904 57.7805 16.4398C57.5458 16.5891 57.3858 16.7491 57.3005 16.9198C57.2152 17.0904 57.0232 17.2718 56.7245 17.4638C56.1698 17.8264 55.5725 18.1571 54.9325 18.4558C54.2925 18.7544 53.7165 18.9678 53.2045 19.0958C53.0338 19.1384 52.8525 19.1598 52.6605 19.1598C52.4898 19.1598 52.3192 19.1918 52.1485 19.2558C51.8925 19.3624 51.6898 19.3411 51.5405 19.1918C51.4125 19.0424 51.3272 18.8291 51.2845 18.5518C51.1992 17.7624 51.1352 16.9198 51.0925 16.0238C51.0712 15.1278 51.0712 14.2211 51.0925 13.3038C50.4525 13.3464 49.8552 13.3678 49.3005 13.3678C48.7672 13.3464 48.3298 13.3038 47.9885 13.2398C47.6685 13.1971 47.3698 13.1331 47.0925 13.0478C46.8365 12.9411 46.6018 12.7811 46.3885 12.5678C46.1965 12.5678 46.1325 12.4824 46.1965 12.3118C46.2818 12.1198 46.3458 11.9598 46.3885 11.8318C46.8365 11.8104 47.4872 11.7891 48.3405 11.7678C49.2152 11.7251 50.1538 11.6824 51.1565 11.6398C51.2418 9.86909 51.3912 8.22642 51.6045 6.71176C51.8178 5.19709 52.0738 4.06642 52.3725 3.31976C52.3725 3.12776 52.4472 2.99976 52.5965 2.93575C52.7672 2.85042 52.9378 2.75442 53.1085 2.64775C53.1938 2.60509 53.2792 2.55176 53.3645 2.48775C53.4712 2.40242 53.6098 2.35975 53.7805 2.35975C53.9725 2.46642 54.1112 2.56242 54.1965 2.64775C54.2818 2.71176 54.3245 2.79709 54.3245 2.90376C54.3245 3.01042 54.2925 3.13842 54.2285 3.28776C54.1645 3.43709 54.0898 3.62909 54.0045 3.86376C53.9618 3.92776 53.8978 4.19442 53.8125 4.66376C53.7272 5.13309 53.6312 5.73042 53.5245 6.45576C53.4392 7.15976 53.3432 7.97042 53.2365 8.88776C53.1298 9.78376 53.0445 10.6904 52.9805 11.6078C53.6845 11.6078 54.3565 11.6184 54.9965 11.6398C55.6365 11.6398 56.2018 11.6611 56.6925 11.7038L58.2605 11.9278ZM67.2575 9.14375C67.4068 9.29309 67.5455 9.46375 67.6735 9.65576C67.8015 9.82642 67.9082 10.0078 67.9935 10.1998C68.1642 10.6051 68.2495 11.0104 68.2495 11.4158C68.2708 11.7998 68.1215 12.2691 67.8015 12.8238C67.4388 13.4211 66.9695 13.9224 66.3935 14.3278C65.8388 14.7331 65.2308 14.9891 64.5695 15.0958C64.1002 15.1811 63.6308 15.1811 63.1615 15.0958C62.6922 14.9891 62.2442 14.7758 61.8175 14.4558C61.6895 14.5624 61.5828 14.7224 61.4975 14.9358C61.4335 15.1278 61.4122 15.3091 61.4335 15.4798C61.4762 15.7784 61.5828 16.1091 61.7535 16.4718C61.9455 16.8131 62.1482 17.0478 62.3615 17.1758C62.7242 17.3251 63.2255 17.3358 63.8655 17.2078C64.5268 17.0798 65.2202 16.8878 65.9455 16.6318C66.6922 16.3544 67.4175 16.0558 68.1215 15.7358C68.8468 15.3944 69.4655 15.1064 69.9775 14.8718C69.9775 14.9998 69.9455 15.0851 69.8815 15.1278C69.8388 15.1704 69.7748 15.2451 69.6895 15.3518C69.5828 15.4584 69.4655 15.5864 69.3375 15.7358C69.2095 15.8851 69.0602 16.0131 68.8895 16.1198C68.6762 16.2478 68.5162 16.4184 68.4095 16.6318C68.3028 16.8238 68.1002 17.0051 67.8015 17.1758C67.3962 17.3891 66.9802 17.6131 66.5535 17.8478C66.1482 18.0611 65.7428 18.2638 65.3375 18.4558C64.9322 18.6264 64.5162 18.7651 64.0895 18.8718C63.6842 18.9571 63.2788 18.9784 62.8735 18.9358C62.5962 18.8931 62.3615 18.8184 62.1695 18.7118C61.9988 18.6051 61.7855 18.4451 61.5295 18.2318C61.4015 18.1251 61.2522 18.0184 61.0815 17.9118C60.9108 17.8051 60.7828 17.6984 60.6975 17.5918C60.3348 17.0584 60.0895 16.4931 59.9615 15.8958C59.8335 15.2771 59.8015 14.6691 59.8655 14.0718C59.9508 13.4531 60.1108 12.8558 60.3455 12.2798C60.5802 11.6824 60.8895 11.1384 61.2735 10.6478C61.4868 10.3704 61.7428 10.0931 62.0415 9.81576C62.3615 9.51709 62.7028 9.26109 63.0655 9.04776C63.4495 8.81309 63.8442 8.63176 64.2495 8.50376C64.6762 8.37576 65.1028 8.32242 65.5295 8.34376C65.7002 8.36509 65.8495 8.41842 65.9775 8.50376C66.1268 8.56776 66.2868 8.64242 66.4575 8.72776C66.5642 8.77042 66.6922 8.83442 66.8415 8.91975C67.0122 8.98376 67.1508 9.05842 67.2575 9.14375ZM66.3295 11.0318C66.2868 10.8398 66.1695 10.6691 65.9775 10.5198C65.7855 10.3704 65.5722 10.2531 65.3375 10.1678C65.1028 10.0611 64.8682 9.99709 64.6335 9.97576C64.3988 9.95442 64.2282 9.96509 64.1215 10.0078C63.9508 10.0718 63.7482 10.1891 63.5135 10.3598C63.3002 10.5091 63.0868 10.6904 62.8735 10.9038C62.6815 11.1171 62.4895 11.3518 62.2975 11.6078C62.1268 11.8424 61.9988 12.0664 61.9135 12.2798C61.8708 12.3438 61.8282 12.4504 61.7855 12.5998C61.7642 12.7278 61.7748 12.8238 61.8175 12.8878C62.0735 13.2078 62.4575 13.3678 62.9695 13.3678C63.4602 13.3678 63.9828 13.2504 64.5375 13.0158C65.1135 12.7811 65.5188 12.5358 65.7535 12.2798C65.7748 12.2371 65.8175 12.1624 65.8815 12.0558C65.9668 11.9491 66.0415 11.8318 66.1055 11.7038C66.1695 11.5758 66.2228 11.4478 66.2655 11.3198C66.3295 11.1918 66.3508 11.0958 66.3295 11.0318ZM86.7248 22.9038C86.6608 23.1598 86.5968 23.3731 86.5328 23.5438C86.4688 23.7358 86.4048 23.9064 86.3408 24.0558C86.2768 24.2051 86.2021 24.3438 86.1168 24.4718C86.0314 24.5998 85.9354 24.7598 85.8288 24.9518C85.7221 25.0371 85.6048 25.1971 85.4768 25.4318C85.3701 25.6878 85.2101 25.8584 84.9968 25.9438C84.4208 26.1784 83.7701 26.3811 83.0448 26.5518C82.3408 26.7224 81.7541 26.7758 81.2848 26.7118C81.2421 26.6904 81.1888 26.6798 81.1248 26.6798C81.0821 26.7011 81.0501 26.6904 81.0288 26.6478C80.9221 26.4344 80.9434 26.2531 81.0928 26.1038C81.2634 25.9758 81.3701 25.8264 81.4128 25.6558C81.4554 25.5491 81.4981 25.4211 81.5408 25.2718C81.5834 25.1438 81.6581 25.0371 81.7648 24.9518C81.9781 24.8451 82.2874 24.7384 82.6927 24.6318C83.0981 24.5464 83.4928 24.4184 83.8768 24.2478C84.2821 24.0771 84.6448 23.8424 84.9648 23.5438C85.3061 23.2664 85.5301 22.8718 85.6368 22.3598C85.7648 21.6984 85.8714 20.9731 85.9568 20.1838C86.0421 19.3944 86.1061 18.5944 86.1488 17.7838C86.2128 16.9731 86.2554 16.1731 86.2768 15.3838C86.3194 14.5944 86.3514 13.8584 86.3728 13.1758C86.2448 13.4318 86.0634 13.7304 85.8288 14.0718C85.5941 14.3918 85.3381 14.7118 85.0608 15.0318C84.7834 15.3518 84.5061 15.6398 84.2288 15.8958C83.9514 16.1518 83.6954 16.3438 83.4608 16.4718C83.1834 16.6211 82.9594 16.7704 82.7888 16.9198C82.6181 17.0478 82.4474 17.1864 82.2768 17.3358C82.1488 17.4424 81.9781 17.4424 81.7648 17.3358C81.5514 17.2291 81.3594 17.0371 81.1888 16.7598C80.9968 16.4184 80.8154 16.0024 80.6448 15.5118C80.4741 14.9998 80.3034 14.4664 80.1328 13.9118C79.9621 13.3358 79.7914 12.7491 79.6208 12.1518C79.4501 11.5331 79.2794 10.9464 79.1088 10.3918C78.9594 9.98642 78.9701 9.69842 79.1408 9.52776C79.2901 9.37842 79.4608 9.30376 79.6528 9.30376C79.8234 9.30376 79.9194 9.35709 79.9408 9.46376C79.9834 9.54909 80.0901 9.60242 80.2608 9.62376C80.4101 9.64509 80.5168 9.69842 80.5807 9.78376C80.6661 9.86909 80.7621 9.94376 80.8688 10.0078C80.9968 10.0931 81.0821 10.1784 81.1248 10.2638C81.1888 10.3491 81.2528 10.4984 81.3168 10.7118C81.4234 11.1171 81.5088 11.5011 81.5728 11.8638C81.6581 12.2051 81.7328 12.5464 81.7968 12.8878C81.8821 13.2291 81.9674 13.5811 82.0528 13.9438C82.1594 14.2851 82.2768 14.6584 82.4048 15.0638C82.9808 14.6798 83.4821 14.2638 83.9088 13.8158C84.3568 13.3464 84.7514 12.8771 85.0928 12.4078C85.4554 11.9171 85.7754 11.4478 86.0528 10.9998C86.3301 10.5304 86.5861 10.0824 86.8208 9.65576C86.9061 9.52776 87.0128 9.34642 87.1408 9.11176C87.2688 8.87709 87.3861 8.70642 87.4928 8.59976C87.5568 8.53576 87.6101 8.47176 87.6528 8.40775C87.6954 8.32242 87.7488 8.25842 87.8128 8.21576C87.8981 8.30109 87.9514 8.39709 87.9728 8.50376C87.9941 8.61042 88.0154 8.72776 88.0368 8.85576C88.0794 9.21842 88.0474 9.61309 87.9408 10.0398C87.8554 10.4451 87.8128 10.7438 87.8128 10.9358C87.8128 11.8958 87.8128 12.8771 87.8128 13.8798C87.8128 14.8824 87.7808 15.8851 87.7168 16.8878C87.6528 17.8904 87.5461 18.8931 87.3968 19.8958C87.2474 20.9198 87.0234 21.9224 86.7248 22.9038ZM94.3113 9.75176L93.7673 10.2958C93.9379 10.2744 94.1939 10.2318 94.5353 10.1678C94.8979 10.0824 95.2499 10.0398 95.5913 10.0398C95.8473 10.0824 96.0606 10.1678 96.2313 10.2958C96.4019 10.4238 96.5086 10.6691 96.5513 11.0318C96.6366 11.5438 96.7646 12.0664 96.9353 12.5998C97.1273 13.1118 97.2659 13.6238 97.3513 14.1358C97.4579 14.6478 97.4579 15.1384 97.3513 15.6078C97.2446 16.0558 96.9566 16.4611 96.4873 16.8238C95.9966 17.5704 95.4526 18.1998 94.8553 18.7118C94.2793 19.2024 93.6713 19.4904 93.0312 19.5758C92.6046 19.6398 92.1353 19.5758 91.6233 19.3838C91.1113 19.2131 90.7379 18.9038 90.5033 18.4558C90.4393 18.4984 90.3859 18.5091 90.3433 18.4878C90.3006 18.4451 90.2579 18.4024 90.2153 18.3598C90.1726 18.3171 90.1299 18.3064 90.0872 18.3278C90.0659 18.3491 90.0446 18.3384 90.0233 18.2958C90.0019 18.2318 89.9913 18.1464 89.9913 18.0398V17.9758V17.9118C90.0126 17.1651 90.0766 16.4184 90.1833 15.6718C90.3113 14.9038 90.4926 14.1678 90.7273 13.4638C90.9833 12.7384 91.3033 12.0664 91.6873 11.4478C92.0926 10.8078 92.6046 10.2424 93.2233 9.75176C93.4366 9.62376 93.6713 9.58109 93.9273 9.62376C93.9699 9.62376 94.0233 9.62376 94.0873 9.62376C94.1513 9.62376 94.2259 9.66642 94.3113 9.75176ZM93.2233 11.9278C93.0953 11.9064 93.0206 11.8638 92.9993 11.7998C92.9779 11.7358 92.9779 11.6611 92.9993 11.5758C93.0419 11.4691 93.0846 11.3518 93.1273 11.2238C93.1913 11.0958 93.2233 10.9678 93.2233 10.8398C92.7753 11.2451 92.4233 11.7358 92.1673 12.3118C91.9326 12.8878 91.7619 13.4851 91.6553 14.1038C91.5486 14.7011 91.4953 15.2878 91.4953 15.8638C91.5166 16.4398 91.5486 16.9411 91.5913 17.3678C91.6339 17.7304 91.7086 18.0291 91.8153 18.2638C91.9219 18.4771 92.0819 18.6051 92.2953 18.6478C92.5299 18.7118 92.8393 18.6478 93.2233 18.4558C93.7779 18.1784 94.2259 17.7944 94.5673 17.3038C94.9086 16.8131 95.1859 16.2904 95.3993 15.7358C95.4846 15.4371 95.5486 15.0851 95.5913 14.6798C95.6553 14.2531 95.6446 13.8584 95.5593 13.4958C95.4526 13.0051 95.1753 12.6531 94.7273 12.4398C94.3006 12.2051 93.7993 12.0344 93.2233 11.9278ZM107.689 10.3918C107.689 11.8851 107.699 13.2718 107.72 14.5518C107.763 15.8318 107.891 17.0904 108.105 18.3278C108.126 18.4558 108.094 18.5944 108.009 18.7438C107.923 18.8931 107.838 19.0211 107.753 19.1278C107.625 19.2771 107.507 19.4158 107.401 19.5438C107.294 19.6931 107.187 19.7891 107.081 19.8318C106.867 19.9384 106.739 19.9598 106.697 19.8958C106.654 19.8318 106.622 19.7464 106.601 19.6398C106.515 19.2344 106.398 18.6904 106.249 18.0078C106.121 17.3038 106.035 16.5998 105.993 15.8958C105.737 16.3224 105.449 16.7598 105.129 17.2078C104.83 17.6344 104.499 18.0291 104.137 18.3918C103.795 18.7544 103.443 19.0744 103.081 19.3518C102.718 19.6504 102.366 19.8638 102.025 19.9918C101.875 20.0558 101.769 20.0664 101.705 20.0238C101.662 19.9811 101.577 19.9384 101.449 19.8958C101.257 19.8104 101.065 19.7251 100.873 19.6398C100.702 19.5758 100.563 19.4691 100.457 19.3198C100.222 18.9144 100.03 18.5198 99.8805 18.1358C99.6458 17.5171 99.4965 16.8664 99.4325 16.1838C99.3898 15.5011 99.3898 14.8184 99.4325 14.1358C99.4752 13.4531 99.5498 12.7918 99.6565 12.1518C99.7632 11.5118 99.8698 10.9251 99.9765 10.3918C99.9978 10.2851 100.051 10.2211 100.137 10.1998C100.222 10.1571 100.275 10.0824 100.297 9.97576C100.339 9.80509 100.414 9.68776 100.521 9.62376C100.649 9.55976 100.777 9.50642 100.905 9.46376C101.075 9.42109 101.203 9.38909 101.289 9.36775C101.395 9.32509 101.534 9.30376 101.705 9.30376C101.513 9.92242 101.363 10.6264 101.257 11.4158C101.15 12.2051 101.097 13.0158 101.097 13.8478C101.118 14.6584 101.193 15.4478 101.321 16.2158C101.47 16.9838 101.683 17.6558 101.961 18.2318C102.366 17.9544 102.761 17.6131 103.145 17.2078C103.55 16.8024 103.923 16.3864 104.265 15.9598C104.606 15.5118 104.905 15.0851 105.161 14.6798C105.438 14.2744 105.641 13.9331 105.769 13.6558C105.897 13.2291 105.971 12.7491 105.993 12.2158C106.035 11.6611 106.057 11.1704 106.057 10.7438C106.035 10.5518 106.046 10.4024 106.089 10.2958C106.153 10.1891 106.217 10.0718 106.281 9.94376C106.323 9.87976 106.345 9.81576 106.345 9.75176C106.366 9.68776 106.409 9.63442 106.473 9.59176C106.515 9.54909 106.558 9.49576 106.601 9.43176C106.665 9.34642 106.729 9.30376 106.793 9.30376C106.921 9.30376 107.006 9.36776 107.049 9.49576C107.091 9.62376 107.155 9.71976 107.241 9.78376C107.347 9.89042 107.443 9.97576 107.529 10.0398C107.635 10.0824 107.689 10.1998 107.689 10.3918ZM120.228 8.66376C120.228 8.85576 120.26 9.10109 120.324 9.39976C120.388 9.67709 120.366 9.90109 120.26 10.0718C120.217 10.1144 120.196 10.1998 120.196 10.3278C120.196 10.4344 120.164 10.5091 120.1 10.5518L119.684 10.2958C119.342 10.1251 118.958 10.0504 118.532 10.0718C118.126 10.0931 117.71 10.1891 117.284 10.3598C116.985 10.4878 116.686 10.6691 116.388 10.9038C116.11 11.1171 115.844 11.3624 115.588 11.6398C115.332 11.9171 115.097 12.2051 114.884 12.5038C114.67 12.8024 114.489 13.0904 114.34 13.3678C113.998 13.9864 113.828 14.7331 113.828 15.6078C113.849 16.4824 114.169 17.6131 114.788 18.9998C114.788 19.1491 114.681 19.3304 114.468 19.5438C114.425 19.5864 114.372 19.6504 114.308 19.7358C114.244 19.8211 114.19 19.8851 114.148 19.9278C113.977 20.0771 113.87 20.2051 113.828 20.3118C113.806 20.4184 113.742 20.4931 113.636 20.5358C113.465 20.5998 113.305 20.4504 113.156 20.0878C112.793 19.4478 112.441 18.6691 112.1 17.7518C111.78 16.8131 111.47 15.8531 111.172 14.8718C110.894 13.8904 110.638 12.9518 110.404 12.0558C110.19 11.1384 110.02 10.3704 109.892 9.75176C109.828 9.58109 109.817 9.42109 109.86 9.27176C109.902 9.10109 109.966 8.96242 110.052 8.85576C110.116 8.77042 110.19 8.74909 110.276 8.79176C110.382 8.83442 110.468 8.85576 110.532 8.85576C110.809 8.85576 110.98 8.90909 111.044 9.01576C111.108 9.12242 111.214 9.26109 111.364 9.43176C111.662 9.77309 111.897 10.2318 112.068 10.8078C112.238 11.3838 112.452 12.0664 112.708 12.8558C113.049 12.2798 113.486 11.7251 114.02 11.1918C114.574 10.6584 115.172 10.1784 115.812 9.75176C116.452 9.30376 117.113 8.94109 117.796 8.66376C118.478 8.38642 119.14 8.21576 119.78 8.15176C119.908 8.13042 120.014 8.17309 120.1 8.27976C120.206 8.36509 120.249 8.49309 120.228 8.66376ZM139.672 10.2958C139.906 10.8504 140.024 11.3838 140.024 11.8958C140.045 12.4078 139.928 12.9624 139.672 13.5598C139.416 14.0078 139.064 14.4131 138.616 14.7758C138.168 15.1171 137.688 15.4158 137.176 15.6718C136.685 15.9278 136.205 16.1411 135.736 16.3118C135.266 16.4824 134.893 16.6211 134.616 16.7278C134.701 17.3678 134.786 18.0718 134.872 18.8398C134.957 19.5864 135.021 20.3438 135.064 21.1118C135.128 21.9011 135.181 22.6691 135.224 23.4158C135.266 24.1838 135.298 24.8878 135.32 25.5278C135.32 25.6558 135.288 25.7304 135.224 25.7518C135.16 25.7731 135.085 25.8371 135 25.9438C134.936 26.0078 134.872 26.0931 134.808 26.1998C134.765 26.3064 134.701 26.3811 134.616 26.4238C134.552 26.4664 134.488 26.5091 134.424 26.5518C134.36 26.5944 134.296 26.6158 134.232 26.6158C133.912 25.5278 133.624 24.3224 133.368 22.9998C133.112 21.6984 132.888 20.3544 132.696 18.9678C132.525 17.5598 132.386 16.1624 132.28 14.7758C132.173 13.3678 132.098 12.0558 132.056 10.8398C131.757 10.8824 131.458 10.9784 131.16 11.1278C130.861 11.2558 130.594 11.3838 130.36 11.5118C130.317 11.5544 130.274 11.5651 130.232 11.5438C130.189 11.5224 130.146 11.5331 130.104 11.5758C130.04 11.6184 129.976 11.6611 129.912 11.7038C129.848 11.7251 129.784 11.7144 129.72 11.6718C129.591 11.6078 129.463 11.5118 129.335 11.3838C129.57 10.6798 129.944 10.1251 130.456 9.71976C130.968 9.31442 131.533 9.02642 132.152 8.85576C132.514 8.77042 133.069 8.70642 133.816 8.66376C134.562 8.59976 135.33 8.61042 136.12 8.69576C136.93 8.75976 137.677 8.91976 138.36 9.17576C139.042 9.41042 139.48 9.78376 139.672 10.2958ZM138.488 11.4478C138.424 11.0424 138.21 10.7331 137.848 10.5198C137.485 10.3064 137.058 10.1678 136.568 10.1038C136.077 10.0398 135.565 10.0398 135.032 10.1038C134.52 10.1464 134.061 10.2318 133.656 10.3598C133.72 10.6371 133.784 10.9784 133.848 11.3838C133.912 11.7891 133.976 12.2051 134.04 12.6318C134.104 13.0584 134.157 13.4851 134.2 13.9118C134.264 14.3384 134.306 14.7011 134.328 14.9998C134.733 14.8931 135.181 14.7438 135.672 14.5518C136.162 14.3384 136.61 14.0824 137.016 13.7838C137.442 13.4851 137.794 13.1438 138.072 12.7598C138.349 12.3544 138.488 11.9171 138.488 11.4478ZM151.915 8.66376C151.915 8.85576 151.947 9.10109 152.011 9.39976C152.075 9.67709 152.054 9.90109 151.947 10.0718C151.904 10.1144 151.883 10.1998 151.883 10.3278C151.883 10.4344 151.851 10.5091 151.787 10.5518L151.371 10.2958C151.03 10.1251 150.646 10.0504 150.219 10.0718C149.814 10.0931 149.398 10.1891 148.971 10.3598C148.672 10.4878 148.374 10.6691 148.075 10.9038C147.798 11.1171 147.531 11.3624 147.275 11.6398C147.019 11.9171 146.784 12.2051 146.571 12.5038C146.358 12.8024 146.176 13.0904 146.027 13.3678C145.686 13.9864 145.515 14.7331 145.515 15.6078C145.536 16.4824 145.856 17.6131 146.475 18.9998C146.475 19.1491 146.368 19.3304 146.155 19.5438C146.112 19.5864 146.059 19.6504 145.995 19.7358C145.931 19.8211 145.878 19.8851 145.835 19.9278C145.664 20.0771 145.558 20.2051 145.515 20.3118C145.494 20.4184 145.43 20.4931 145.323 20.5358C145.152 20.5998 144.992 20.4504 144.843 20.0878C144.48 19.4478 144.128 18.6691 143.787 17.7518C143.467 16.8131 143.158 15.8531 142.859 14.8718C142.582 13.8904 142.326 12.9518 142.091 12.0558C141.878 11.1384 141.707 10.3704 141.579 9.75176C141.515 9.58109 141.504 9.42109 141.547 9.27176C141.59 9.10109 141.654 8.96242 141.739 8.85576C141.803 8.77042 141.878 8.74909 141.963 8.79176C142.07 8.83442 142.155 8.85576 142.219 8.85576C142.496 8.85576 142.667 8.90909 142.731 9.01576C142.795 9.12242 142.902 9.26109 143.051 9.43176C143.35 9.77309 143.584 10.2318 143.755 10.8078C143.926 11.3838 144.139 12.0664 144.395 12.8558C144.736 12.2798 145.174 11.7251 145.707 11.1918C146.262 10.6584 146.859 10.1784 147.499 9.75176C148.139 9.30376 148.8 8.94109 149.483 8.66376C150.166 8.38642 150.827 8.21576 151.467 8.15176C151.595 8.13042 151.702 8.17309 151.787 8.27976C151.894 8.36509 151.936 8.49309 151.915 8.66376ZM157.686 9.75176L157.142 10.2958C157.313 10.2744 157.569 10.2318 157.91 10.1678C158.273 10.0824 158.625 10.0398 158.966 10.0398C159.222 10.0824 159.436 10.1678 159.606 10.2958C159.777 10.4238 159.884 10.6691 159.926 11.0318C160.012 11.5438 160.14 12.0664 160.31 12.5998C160.502 13.1118 160.641 13.6238 160.726 14.1358C160.833 14.6478 160.833 15.1384 160.726 15.6078C160.62 16.0558 160.332 16.4611 159.862 16.8238C159.372 17.5704 158.828 18.1998 158.23 18.7118C157.654 19.2024 157.046 19.4904 156.406 19.5758C155.98 19.6398 155.51 19.5758 154.998 19.3838C154.486 19.2131 154.113 18.9038 153.878 18.4558C153.814 18.4984 153.761 18.5091 153.718 18.4878C153.676 18.4451 153.633 18.4024 153.59 18.3598C153.548 18.3171 153.505 18.3064 153.462 18.3278C153.441 18.3491 153.42 18.3384 153.398 18.2958C153.377 18.2318 153.366 18.1464 153.366 18.0398V17.9758V17.9118C153.388 17.1651 153.452 16.4184 153.558 15.6718C153.686 14.9038 153.868 14.1678 154.102 13.4638C154.358 12.7384 154.678 12.0664 155.062 11.4478C155.468 10.8078 155.98 10.2424 156.598 9.75176C156.812 9.62376 157.046 9.58109 157.302 9.62376C157.345 9.62376 157.398 9.62376 157.462 9.62376C157.526 9.62376 157.601 9.66642 157.686 9.75176ZM156.598 11.9278C156.47 11.9064 156.396 11.8638 156.374 11.7998C156.353 11.7358 156.353 11.6611 156.374 11.5758C156.417 11.4691 156.46 11.3518 156.502 11.2238C156.566 11.0958 156.598 10.9678 156.598 10.8398C156.15 11.2451 155.798 11.7358 155.542 12.3118C155.308 12.8878 155.137 13.4851 155.03 14.1038C154.924 14.7011 154.87 15.2878 154.87 15.8638C154.892 16.4398 154.924 16.9411 154.966 17.3678C155.009 17.7304 155.084 18.0291 155.19 18.2638C155.297 18.4771 155.457 18.6051 155.67 18.6478C155.905 18.7118 156.214 18.6478 156.598 18.4558C157.153 18.1784 157.601 17.7944 157.942 17.3038C158.284 16.8131 158.561 16.2904 158.774 15.7358C158.86 15.4371 158.924 15.0851 158.966 14.6798C159.03 14.2531 159.02 13.8584 158.934 13.4958C158.828 13.0051 158.55 12.6531 158.102 12.4398C157.676 12.2051 157.174 12.0344 156.598 11.9278ZM169.048 12.9838C168.813 12.9838 168.589 12.9944 168.376 13.0158C168.162 13.0158 167.938 13.0264 167.704 13.0478C167.768 13.5811 167.81 14.1464 167.832 14.7438C167.874 15.3411 167.874 15.9491 167.832 16.5678C167.789 17.1651 167.704 17.7624 167.576 18.3598C167.469 18.9358 167.309 19.4691 167.096 19.9598C167.053 20.0451 167.042 20.1091 167.064 20.1518C167.106 20.2158 167.106 20.2904 167.064 20.3758C167 20.4184 166.946 20.4504 166.904 20.4718C166.882 20.4931 166.85 20.5251 166.808 20.5678C166.53 20.7384 166.306 20.8238 166.136 20.8238C166.093 20.8238 166.061 20.7811 166.04 20.6958C166.04 20.6104 166.061 20.5251 166.104 20.4398C166.338 19.5224 166.392 18.4664 166.264 17.2718C166.157 16.0558 165.901 14.6478 165.496 13.0478C164.77 13.0478 164.034 12.9731 163.288 12.8238C163.266 12.8238 163.202 12.8238 163.096 12.8238C163.01 12.8238 162.914 12.8238 162.808 12.8238C162.701 12.8024 162.605 12.7811 162.52 12.7598C162.434 12.7171 162.392 12.6638 162.392 12.5998C162.413 12.4718 162.381 12.3864 162.296 12.3438C162.232 12.2798 162.2 12.2264 162.2 12.1838C162.178 12.0344 162.189 11.9491 162.232 11.9278C162.296 11.8851 162.381 11.8531 162.488 11.8318C162.85 11.7464 163.245 11.6718 163.672 11.6078C164.12 11.5438 164.589 11.4904 165.08 11.4478C165.037 11.3198 165.016 11.2344 165.016 11.1918C164.76 10.4451 164.568 9.63442 164.44 8.75976C164.312 7.88509 164.258 7.01042 164.28 6.13576C164.322 5.26109 164.44 4.42909 164.632 3.63976C164.845 2.82909 165.154 2.12509 165.56 1.52776C165.709 1.31442 165.901 1.16509 166.136 1.07976C166.242 1.03709 166.349 0.994422 166.456 0.951756C166.584 0.909088 166.701 0.898422 166.808 0.919756C167.234 1.00509 167.618 1.15442 167.96 1.36776C168.301 1.55975 168.61 1.80509 168.888 2.10376C169.186 2.38109 169.464 2.70109 169.72 3.06376C169.976 3.40509 170.221 3.75709 170.456 4.11975C170.648 4.35442 170.648 4.53576 170.456 4.66376C170.264 4.79176 170.093 4.90909 169.944 5.01576C169.773 5.14376 169.581 5.20776 169.368 5.20776C169.218 5.16509 169.069 5.06909 168.92 4.91975C168.77 4.77042 168.589 4.64242 168.376 4.53576C168.269 4.42909 168.13 4.30109 167.96 4.15176C167.789 3.98109 167.608 3.83176 167.416 3.70376C167.224 3.57576 167.042 3.46909 166.872 3.38375C166.701 3.29842 166.562 3.27709 166.456 3.31976C166.392 3.36242 166.296 3.49042 166.168 3.70376C166.061 3.91709 165.976 4.10909 165.911 4.27976C165.762 4.74909 165.741 5.18642 165.848 5.59175C166.104 6.61576 166.36 7.61842 166.616 8.59976C166.872 9.55976 167.128 10.4238 167.384 11.1918C167.384 11.2558 167.394 11.3091 167.416 11.3518C168.248 11.3518 169.058 11.4158 169.848 11.5438C170.658 11.6504 171.394 11.8318 172.056 12.0878C172.162 12.1304 172.066 12.2478 171.768 12.4398C171.597 12.5464 171.437 12.5998 171.288 12.5998C171.16 12.5784 171.01 12.5998 170.84 12.6638C170.541 12.7704 170.242 12.8451 169.944 12.8878C169.645 12.9304 169.346 12.9624 169.048 12.9838ZM177.651 8.47176C177.821 8.64242 177.885 8.78109 177.843 8.88776C177.821 8.99442 177.757 9.03709 177.651 9.01576C177.373 9.01576 177.064 9.04776 176.723 9.11176C176.403 9.15442 176.051 9.19709 175.667 9.23976C175.304 9.26109 174.92 9.26109 174.515 9.23976C174.109 9.21842 173.704 9.14376 173.299 9.01576C173.128 8.84509 173.128 8.69576 173.299 8.56776C173.491 8.41842 173.64 8.20509 173.747 7.92776C173.811 7.73576 173.896 7.60776 174.003 7.54376C174.131 7.45842 174.259 7.40509 174.387 7.38376C174.621 7.38376 174.909 7.43709 175.251 7.54376C175.613 7.62909 175.912 7.68242 176.147 7.70376C176.509 7.74642 176.808 7.81042 177.043 7.89576C177.277 7.95976 177.48 8.15176 177.651 8.47176ZM176.979 12.8238C177.107 13.3144 177.203 13.7624 177.266 14.1678C177.352 14.5731 177.405 14.9678 177.427 15.3518C177.469 15.7144 177.491 16.0878 177.491 16.4718C177.512 16.8558 177.523 17.2718 177.523 17.7198C177.523 17.8051 177.469 17.9011 177.363 18.0078C177.277 18.0931 177.213 18.1891 177.171 18.2958C177.085 18.4878 177.011 18.6051 176.947 18.6478C176.904 18.6904 176.819 18.7438 176.691 18.8078C176.392 18.9358 176.125 19.1171 175.891 19.3518C175.613 18.9464 175.421 18.4771 175.315 17.9438C175.229 17.4104 175.165 16.8558 175.123 16.2798C175.101 15.7038 175.069 15.1278 175.027 14.5518C175.005 13.9544 174.931 13.3784 174.803 12.8238C174.739 12.5251 174.76 12.3224 174.867 12.2158C174.973 12.1091 175.091 12.0344 175.219 11.9918C175.368 11.9491 175.528 11.9811 175.699 12.0878C175.891 12.1944 176.072 12.3011 176.243 12.4078C176.392 12.4931 176.531 12.5464 176.659 12.5678C176.808 12.5678 176.915 12.6531 176.979 12.8238ZM182.865 3.76776C183.121 4.91976 183.323 6.07176 183.473 7.22375C183.622 8.37576 183.761 9.52776 183.889 10.6798C184.017 11.8318 184.145 12.9838 184.273 14.1358C184.422 15.2878 184.614 16.4398 184.849 17.5918C184.806 17.8691 184.774 18.0931 184.753 18.2638C184.731 18.4344 184.678 18.5411 184.593 18.5838C184.486 18.6478 184.379 18.7224 184.273 18.8078C184.187 18.8718 184.091 18.9251 183.985 18.9678C183.942 18.9891 183.899 19.0211 183.857 19.0638C183.814 19.1278 183.761 19.1704 183.697 19.1918C183.654 19.2131 183.611 19.2131 183.569 19.1918C183.526 19.1704 183.473 19.1064 183.409 18.9998C183.003 17.7838 182.63 16.5571 182.289 15.3198C181.969 14.0824 181.702 12.8344 181.489 11.5758C181.297 10.3171 181.169 9.04776 181.105 7.76776C181.062 6.46642 181.105 5.13309 181.233 3.76776C181.233 3.44776 181.329 3.24509 181.521 3.15975C181.606 3.11709 181.713 3.14909 181.841 3.25576C181.99 3.36242 182.118 3.43709 182.225 3.47976C182.374 3.54376 182.491 3.58642 182.577 3.60775C182.662 3.60775 182.758 3.66109 182.865 3.76776ZM194.695 9.14375C194.844 9.29309 194.983 9.46375 195.111 9.65576C195.239 9.82642 195.346 10.0078 195.431 10.1998C195.602 10.6051 195.687 11.0104 195.687 11.4158C195.708 11.7998 195.559 12.2691 195.239 12.8238C194.876 13.4211 194.407 13.9224 193.831 14.3278C193.276 14.7331 192.668 14.9891 192.007 15.0958C191.538 15.1811 191.068 15.1811 190.599 15.0958C190.13 14.9891 189.682 14.7758 189.255 14.4558C189.127 14.5624 189.02 14.7224 188.935 14.9358C188.871 15.1278 188.85 15.3091 188.871 15.4798C188.914 15.7784 189.02 16.1091 189.191 16.4718C189.383 16.8131 189.586 17.0478 189.799 17.1758C190.162 17.3251 190.663 17.3358 191.303 17.2078C191.964 17.0798 192.658 16.8878 193.383 16.6318C194.13 16.3544 194.855 16.0558 195.559 15.7358C196.284 15.3944 196.903 15.1064 197.415 14.8718C197.415 14.9998 197.383 15.0851 197.319 15.1278C197.276 15.1704 197.212 15.2451 197.127 15.3518C197.02 15.4584 196.903 15.5864 196.775 15.7358C196.647 15.8851 196.498 16.0131 196.327 16.1198C196.114 16.2478 195.954 16.4184 195.847 16.6318C195.74 16.8238 195.538 17.0051 195.239 17.1758C194.834 17.3891 194.418 17.6131 193.991 17.8478C193.586 18.0611 193.18 18.2638 192.775 18.4558C192.37 18.6264 191.954 18.7651 191.527 18.8718C191.122 18.9571 190.716 18.9784 190.311 18.9358C190.034 18.8931 189.799 18.8184 189.607 18.7118C189.436 18.6051 189.223 18.4451 188.967 18.2318C188.839 18.1251 188.69 18.0184 188.519 17.9118C188.348 17.8051 188.22 17.6984 188.135 17.5918C187.772 17.0584 187.527 16.4931 187.399 15.8958C187.271 15.2771 187.239 14.6691 187.303 14.0718C187.388 13.4531 187.548 12.8558 187.783 12.2798C188.018 11.6824 188.327 11.1384 188.711 10.6478C188.924 10.3704 189.18 10.0931 189.479 9.81576C189.799 9.51709 190.14 9.26109 190.503 9.04776C190.887 8.81309 191.282 8.63176 191.687 8.50376C192.114 8.37576 192.54 8.32242 192.967 8.34376C193.138 8.36509 193.287 8.41842 193.415 8.50376C193.564 8.56776 193.724 8.64242 193.895 8.72776C194.002 8.77042 194.13 8.83442 194.279 8.91975C194.45 8.98376 194.588 9.05842 194.695 9.14375ZM193.767 11.0318C193.724 10.8398 193.607 10.6691 193.415 10.5198C193.223 10.3704 193.01 10.2531 192.775 10.1678C192.54 10.0611 192.306 9.99709 192.071 9.97576C191.836 9.95442 191.666 9.96509 191.559 10.0078C191.388 10.0718 191.186 10.1891 190.951 10.3598C190.738 10.5091 190.524 10.6904 190.311 10.9038C190.119 11.1171 189.927 11.3518 189.735 11.6078C189.564 11.8424 189.436 12.0664 189.351 12.2798C189.308 12.3438 189.266 12.4504 189.223 12.5998C189.202 12.7278 189.212 12.8238 189.255 12.8878C189.511 13.2078 189.895 13.3678 190.407 13.3678C190.898 13.3678 191.42 13.2504 191.975 13.0158C192.551 12.7811 192.956 12.5358 193.191 12.2798C193.212 12.2371 193.255 12.1624 193.319 12.0558C193.404 11.9491 193.479 11.8318 193.543 11.7038C193.607 11.5758 193.66 11.4478 193.703 11.3198C193.767 11.1918 193.788 11.0958 193.767 11.0318Z" fill="#007EF2"/>
</svg>
