<svg width="115" height="27" viewBox="0 0 115 27" fill="none" xmlns="http://www.w3.org/2000/svg">
<path d="M17.926 5.578C18.29 7.37 18.29 9.134 17.926 10.87C17.562 12.578 16.848 14.146 15.784 15.574C15.42 16.302 14.93 16.764 14.314 16.96C13.698 17.156 13.026 17.254 12.298 17.254C12.13 17.254 11.892 17.268 11.584 17.296C11.276 17.296 10.954 17.324 10.618 17.38C10.31 17.408 10.002 17.45 9.694 17.506C9.414 17.534 9.19 17.576 9.022 17.632L9.19 20.656C9.19 20.936 9.162 21.23 9.106 21.538C9.05 21.846 8.994 22.126 8.938 22.378C8.882 22.714 8.868 22.994 8.896 23.218C8.924 23.47 8.91 23.764 8.854 24.1C8.798 24.436 8.742 24.786 8.686 25.15C8.658 25.514 8.644 25.892 8.644 26.284C8.28 25.724 7.958 24.954 7.678 23.974C7.398 23.022 7.146 21.958 6.922 20.782C6.726 19.578 6.558 18.332 6.418 17.044C6.278 15.756 6.152 14.51 6.04 13.306C5.956 12.102 5.886 10.996 5.83 9.988C5.802 8.952 5.774 8.126 5.746 7.51C5.214 7.734 4.682 8.014 4.15 8.35C3.618 8.686 3.114 9.008 2.638 9.316C2.498 9.428 2.344 9.442 2.176 9.358C2.036 9.274 1.896 9.274 1.756 9.358C1.644 9.47 1.532 9.526 1.42 9.526C1.336 9.526 1.252 9.498 1.168 9.442C1.084 9.386 1.014 9.33 0.958 9.274C0.902 9.19 0.846 9.148 0.79 9.148C0.734 8.98 0.72 8.868 0.748 8.812C0.776 8.728 0.79 8.63 0.79 8.518C0.818 8.35 0.846 8.196 0.874 8.056C0.874 7.888 0.944 7.748 1.084 7.636C2.764 6.292 4.346 5.284 5.83 4.612C7.314 3.912 8.686 3.408 9.946 3.1C11.29 2.736 12.508 2.638 13.6 2.806C14.692 2.946 15.77 3.506 16.834 4.486C17.142 4.57 17.394 4.696 17.59 4.864C17.814 5.004 17.926 5.242 17.926 5.578ZM15.868 6.418C15.56 5.998 15.14 5.704 14.608 5.536C14.076 5.368 13.474 5.298 12.802 5.326C12.13 5.354 11.43 5.466 10.702 5.662C10.002 5.83 9.33 6.054 8.686 6.334C8.686 6.838 8.686 7.468 8.686 8.224C8.686 8.952 8.686 9.736 8.686 10.576C8.714 11.388 8.742 12.214 8.77 13.054C8.826 13.866 8.882 14.622 8.938 15.322C9.358 15.182 9.834 15.056 10.366 14.944C10.926 14.804 11.472 14.65 12.004 14.482C12.564 14.286 13.082 14.048 13.558 13.768C14.062 13.488 14.468 13.096 14.776 12.592C14.944 12.228 15.126 11.78 15.322 11.248C15.546 10.688 15.728 10.114 15.868 9.526C16.008 8.91 16.078 8.336 16.078 7.804C16.106 7.244 16.036 6.782 15.868 6.418ZM34.3982 8.434C34.3982 8.686 34.4402 9.008 34.5242 9.4C34.6082 9.764 34.5802 10.058 34.4402 10.282C34.3842 10.338 34.3562 10.45 34.3562 10.618C34.3562 10.758 34.3142 10.856 34.2302 10.912L33.6842 10.576C33.2362 10.352 32.7322 10.254 32.1722 10.282C31.6402 10.31 31.0942 10.436 30.5342 10.66C30.1422 10.828 29.7502 11.066 29.3582 11.374C28.9942 11.654 28.6442 11.976 28.3082 12.34C27.9722 12.704 27.6642 13.082 27.3842 13.474C27.1042 13.866 26.8662 14.244 26.6702 14.608C26.2222 15.42 25.9982 16.4 25.9982 17.548C26.0262 18.696 26.4462 20.18 27.2582 22C27.2582 22.196 27.1182 22.434 26.8382 22.714C26.7822 22.77 26.7122 22.854 26.6282 22.966C26.5442 23.078 26.4742 23.162 26.4182 23.218C26.1942 23.414 26.0542 23.582 25.9982 23.722C25.9702 23.862 25.8862 23.96 25.7462 24.016C25.5222 24.1 25.3122 23.904 25.1162 23.428C24.6402 22.588 24.1782 21.566 23.7302 20.362C23.3102 19.13 22.9042 17.87 22.5122 16.582C22.1482 15.294 21.8122 14.062 21.5042 12.886C21.2242 11.682 21.0002 10.674 20.8322 9.862C20.7482 9.638 20.7342 9.428 20.7902 9.232C20.8462 9.008 20.9302 8.826 21.0422 8.686C21.1262 8.574 21.2242 8.546 21.3362 8.602C21.4762 8.658 21.5882 8.686 21.6722 8.686C22.0362 8.686 22.2602 8.756 22.3442 8.896C22.4282 9.036 22.5682 9.218 22.7642 9.442C23.1562 9.89 23.4642 10.492 23.6882 11.248C23.9122 12.004 24.1922 12.9 24.5282 13.936C24.9762 13.18 25.5502 12.452 26.2502 11.752C26.9782 11.052 27.7622 10.422 28.6022 9.862C29.4422 9.274 30.3102 8.798 31.2062 8.434C32.1022 8.07 32.9702 7.846 33.8102 7.762C33.9782 7.734 34.1182 7.79 34.2302 7.93C34.3702 8.042 34.4262 8.21 34.3982 8.434ZM41.973 9.862L41.259 10.576C41.483 10.548 41.819 10.492 42.267 10.408C42.743 10.296 43.205 10.24 43.653 10.24C43.989 10.296 44.269 10.408 44.493 10.576C44.717 10.744 44.857 11.066 44.913 11.542C45.025 12.214 45.193 12.9 45.417 13.6C45.669 14.272 45.851 14.944 45.963 15.616C46.103 16.288 46.103 16.932 45.963 17.548C45.823 18.136 45.445 18.668 44.829 19.144C44.185 20.124 43.471 20.95 42.687 21.622C41.931 22.266 41.133 22.644 40.293 22.756C39.733 22.84 39.117 22.756 38.445 22.504C37.773 22.28 37.283 21.874 36.975 21.286C36.891 21.342 36.821 21.356 36.765 21.328C36.709 21.272 36.653 21.216 36.597 21.16C36.541 21.104 36.485 21.09 36.429 21.118C36.401 21.146 36.373 21.132 36.345 21.076C36.317 20.992 36.303 20.88 36.303 20.74V20.656V20.572C36.331 19.592 36.415 18.612 36.555 17.632C36.723 16.624 36.961 15.658 37.269 14.734C37.605 13.782 38.025 12.9 38.529 12.088C39.061 11.248 39.733 10.506 40.545 9.862C40.825 9.694 41.133 9.638 41.469 9.694C41.525 9.694 41.595 9.694 41.679 9.694C41.763 9.694 41.861 9.75 41.973 9.862ZM40.545 12.718C40.377 12.69 40.279 12.634 40.251 12.55C40.223 12.466 40.223 12.368 40.251 12.256C40.307 12.116 40.363 11.962 40.419 11.794C40.503 11.626 40.545 11.458 40.545 11.29C39.957 11.822 39.495 12.466 39.159 13.222C38.851 13.978 38.627 14.762 38.487 15.574C38.347 16.358 38.277 17.128 38.277 17.884C38.305 18.64 38.347 19.298 38.403 19.858C38.459 20.334 38.557 20.726 38.697 21.034C38.837 21.314 39.047 21.482 39.327 21.538C39.635 21.622 40.041 21.538 40.545 21.286C41.273 20.922 41.861 20.418 42.309 19.774C42.757 19.13 43.121 18.444 43.401 17.716C43.513 17.324 43.597 16.862 43.653 16.33C43.737 15.77 43.723 15.252 43.611 14.776C43.471 14.132 43.107 13.67 42.519 13.39C41.959 13.082 41.301 12.858 40.545 12.718ZM49.9546 9.148C50.1226 9.876 50.1926 10.632 50.1646 11.416C50.1366 12.2 50.0946 12.998 50.0386 13.81C50.0106 14.594 50.0106 15.392 50.0386 16.204C50.0946 16.988 50.3046 17.73 50.6686 18.43C51.3126 16.834 52.1946 15.392 53.3146 14.104C54.4346 12.788 55.6246 11.612 56.8846 10.576C57.0526 10.436 57.2206 10.352 57.3886 10.324C57.5846 10.268 57.7666 10.212 57.9346 10.156C58.0746 10.1 58.2006 10.058 58.3126 10.03C58.4526 9.974 58.6346 10.002 58.8586 10.114C59.4186 10.422 59.7406 11.01 59.8246 11.878C59.9086 12.746 59.9506 13.978 59.9506 15.574C60.3706 15.154 60.7906 14.692 61.2106 14.188C61.6586 13.656 62.1066 13.152 62.5546 12.676C63.0026 12.2 63.4646 11.78 63.9406 11.416C64.4166 11.052 64.9206 10.786 65.4526 10.618C65.6206 10.562 65.7886 10.562 65.9566 10.618C66.1526 10.646 66.3346 10.66 66.5026 10.66C66.6146 10.66 66.7126 10.646 66.7966 10.618C66.8806 10.562 66.9786 10.548 67.0906 10.576C67.2586 10.604 67.3986 10.688 67.5106 10.828C67.6506 10.968 67.7486 11.122 67.8046 11.29C67.9166 11.71 68.0706 12.298 68.2666 13.054C68.4626 13.782 68.6306 14.538 68.7706 15.322C68.9386 16.078 69.0646 16.792 69.1486 17.464C69.2326 18.136 69.2326 18.612 69.1486 18.892C69.0926 19.144 69.0226 19.312 68.9386 19.396C68.8826 19.48 68.7426 19.634 68.5186 19.858C68.4626 19.858 68.3926 19.9 68.3086 19.984C68.2526 20.068 68.1826 20.152 68.0986 20.236C67.9866 20.348 67.8886 20.46 67.8046 20.572C67.4406 20.04 67.1606 19.466 66.9646 18.85C66.7686 18.234 66.6006 17.59 66.4606 16.918C66.3206 16.246 66.1946 15.56 66.0826 14.86C65.9706 14.16 65.8306 13.446 65.6626 12.718C64.8506 13.138 64.2066 13.628 63.7306 14.188C63.2826 14.72 62.9186 15.294 62.6386 15.91C62.3586 16.498 62.1066 17.1 61.8826 17.716C61.6586 18.332 61.3786 18.92 61.0426 19.48C60.7346 19.956 60.4266 20.334 60.1186 20.614C59.8106 20.894 59.5586 21.02 59.3626 20.992C59.1946 20.964 59.0686 20.81 58.9846 20.53C58.9006 20.25 58.7886 19.83 58.6486 19.27C58.3686 18.122 58.1026 16.89 57.8506 15.574C57.6266 14.258 57.3746 13.068 57.0946 12.004C56.5626 12.172 56.0306 12.48 55.4986 12.928C54.9946 13.348 54.5186 13.852 54.0706 14.44C53.6226 15 53.2166 15.63 52.8526 16.33C52.5166 17.03 52.2646 17.73 52.0966 18.43C52.4606 19.158 52.4746 19.76 52.1386 20.236C51.9986 20.46 51.8026 20.656 51.5506 20.824C51.2986 20.964 51.0046 21.118 50.6686 21.286C50.4726 21.482 50.2626 21.552 50.0386 21.496C49.8146 21.44 49.6326 21.314 49.4926 21.118C49.3526 20.894 49.2686 20.712 49.2406 20.572C49.0726 19.676 48.9046 18.752 48.7366 17.8C48.5686 16.82 48.4566 15.84 48.4006 14.86C48.3726 13.88 48.4146 12.914 48.5266 11.962C48.6386 10.982 48.8766 10.044 49.2406 9.148C49.2966 8.98 49.3526 8.896 49.4086 8.896C49.4646 8.896 49.5206 8.924 49.5766 8.98C49.6326 9.008 49.6886 9.036 49.7446 9.064C49.8006 9.092 49.8286 9.106 49.8286 9.106C49.8566 9.106 49.8986 9.12 49.9546 9.148ZM77.2464 9.862L76.5324 10.576C76.7564 10.548 77.0924 10.492 77.5404 10.408C78.0164 10.296 78.4784 10.24 78.9264 10.24C79.2624 10.296 79.5424 10.408 79.7664 10.576C79.9904 10.744 80.1304 11.066 80.1864 11.542C80.2984 12.214 80.4664 12.9 80.6904 13.6C80.9424 14.272 81.1244 14.944 81.2364 15.616C81.3764 16.288 81.3764 16.932 81.2364 17.548C81.0964 18.136 80.7184 18.668 80.1024 19.144C79.4584 20.124 78.7444 20.95 77.9604 21.622C77.2044 22.266 76.4064 22.644 75.5664 22.756C75.0064 22.84 74.3904 22.756 73.7184 22.504C73.0464 22.28 72.5564 21.874 72.2484 21.286C72.1644 21.342 72.0944 21.356 72.0384 21.328C71.9824 21.272 71.9264 21.216 71.8704 21.16C71.8144 21.104 71.7584 21.09 71.7024 21.118C71.6744 21.146 71.6464 21.132 71.6184 21.076C71.5904 20.992 71.5764 20.88 71.5764 20.74V20.656V20.572C71.6044 19.592 71.6884 18.612 71.8284 17.632C71.9964 16.624 72.2344 15.658 72.5424 14.734C72.8784 13.782 73.2984 12.9 73.8024 12.088C74.3344 11.248 75.0064 10.506 75.8184 9.862C76.0984 9.694 76.4064 9.638 76.7424 9.694C76.7984 9.694 76.8684 9.694 76.9524 9.694C77.0364 9.694 77.1344 9.75 77.2464 9.862ZM75.8184 12.718C75.6504 12.69 75.5524 12.634 75.5244 12.55C75.4964 12.466 75.4964 12.368 75.5244 12.256C75.5804 12.116 75.6364 11.962 75.6924 11.794C75.7764 11.626 75.8184 11.458 75.8184 11.29C75.2304 11.822 74.7684 12.466 74.4324 13.222C74.1244 13.978 73.9004 14.762 73.7604 15.574C73.6204 16.358 73.5504 17.128 73.5504 17.884C73.5784 18.64 73.6204 19.298 73.6764 19.858C73.7324 20.334 73.8304 20.726 73.9704 21.034C74.1104 21.314 74.3204 21.482 74.6004 21.538C74.9084 21.622 75.3144 21.538 75.8184 21.286C76.5464 20.922 77.1344 20.418 77.5824 19.774C78.0304 19.13 78.3944 18.444 78.6744 17.716C78.7864 17.324 78.8704 16.862 78.9264 16.33C79.0104 15.77 78.9964 15.252 78.8844 14.776C78.7444 14.132 78.3804 13.67 77.7924 13.39C77.2324 13.082 76.5744 12.858 75.8184 12.718ZM98.836 12.718C98.892 12.774 98.934 12.802 98.962 12.802C98.99 12.802 99.004 12.83 99.004 12.886C98.976 12.942 98.906 13.012 98.794 13.096C98.71 13.152 98.542 13.194 98.29 13.222C98.206 13.25 98.094 13.306 97.954 13.39C97.814 13.446 97.702 13.488 97.618 13.516C96.862 13.684 95.966 13.838 94.93 13.978C93.922 14.118 92.872 14.244 91.78 14.356C91.724 15.336 91.696 16.246 91.696 17.086C91.724 17.926 91.766 18.654 91.822 19.27C91.878 19.746 92.102 19.984 92.494 19.984C92.886 19.956 93.292 19.872 93.712 19.732C93.824 19.704 94.118 19.578 94.594 19.354C95.098 19.102 95.672 18.822 96.316 18.514C96.988 18.178 97.688 17.828 98.416 17.464C99.144 17.072 99.802 16.722 100.39 16.414C100.39 16.806 100.18 17.184 99.76 17.548C99.536 17.744 99.284 17.926 99.004 18.094C98.752 18.262 98.486 18.444 98.206 18.64C97.898 18.836 97.688 19.046 97.576 19.27C97.464 19.494 97.212 19.732 96.82 19.984C96.092 20.46 95.308 20.894 94.468 21.286C93.628 21.678 92.872 21.958 92.2 22.126C91.976 22.182 91.738 22.21 91.486 22.21C91.262 22.21 91.038 22.252 90.814 22.336C90.478 22.476 90.212 22.448 90.016 22.252C89.848 22.056 89.736 21.776 89.68 21.412C89.568 20.376 89.484 19.27 89.428 18.094C89.4 16.918 89.4 15.728 89.428 14.524C88.588 14.58 87.804 14.608 87.076 14.608C86.376 14.58 85.802 14.524 85.354 14.44C84.934 14.384 84.542 14.3 84.178 14.188C83.842 14.048 83.534 13.838 83.254 13.558C83.002 13.558 82.918 13.446 83.002 13.222C83.114 12.97 83.198 12.76 83.254 12.592C83.842 12.564 84.696 12.536 85.816 12.508C86.964 12.452 88.196 12.396 89.512 12.34C89.624 10.016 89.82 7.86 90.1 5.872C90.38 3.884 90.716 2.4 91.108 1.42C91.108 1.168 91.206 0.999999 91.402 0.915999C91.626 0.803998 91.85 0.677998 92.074 0.537998C92.186 0.481999 92.298 0.411999 92.41 0.327999C92.55 0.215998 92.732 0.159998 92.956 0.159998C93.208 0.299998 93.39 0.425998 93.502 0.537998C93.614 0.621999 93.67 0.733999 93.67 0.873999C93.67 1.014 93.628 1.182 93.544 1.378C93.46 1.574 93.362 1.826 93.25 2.134C93.194 2.218 93.11 2.568 92.998 3.184C92.886 3.8 92.76 4.584 92.62 5.536C92.508 6.46 92.382 7.524 92.242 8.728C92.102 9.904 91.99 11.094 91.906 12.298C92.83 12.298 93.712 12.312 94.552 12.34C95.392 12.34 96.134 12.368 96.778 12.424L98.836 12.718ZM110.645 9.064C110.841 9.26 111.023 9.484 111.191 9.736C111.359 9.96 111.499 10.198 111.611 10.45C111.835 10.982 111.947 11.514 111.947 12.046C111.975 12.55 111.779 13.166 111.359 13.894C110.883 14.678 110.267 15.336 109.511 15.868C108.783 16.4 107.985 16.736 107.117 16.876C106.501 16.988 105.885 16.988 105.269 16.876C104.653 16.736 104.065 16.456 103.505 16.036C103.337 16.176 103.197 16.386 103.085 16.666C103.001 16.918 102.973 17.156 103.001 17.38C103.057 17.772 103.197 18.206 103.421 18.682C103.673 19.13 103.939 19.438 104.219 19.606C104.695 19.802 105.353 19.816 106.193 19.648C107.061 19.48 107.971 19.228 108.923 18.892C109.903 18.528 110.855 18.136 111.779 17.716C112.731 17.268 113.543 16.89 114.215 16.582C114.215 16.75 114.173 16.862 114.089 16.918C114.033 16.974 113.949 17.072 113.837 17.212C113.697 17.352 113.543 17.52 113.375 17.716C113.207 17.912 113.011 18.08 112.787 18.22C112.507 18.388 112.297 18.612 112.157 18.892C112.017 19.144 111.751 19.382 111.359 19.606C110.827 19.886 110.281 20.18 109.721 20.488C109.189 20.768 108.657 21.034 108.125 21.286C107.593 21.51 107.047 21.692 106.487 21.832C105.955 21.944 105.423 21.972 104.891 21.916C104.527 21.86 104.219 21.762 103.967 21.622C103.743 21.482 103.463 21.272 103.127 20.992C102.959 20.852 102.763 20.712 102.539 20.572C102.315 20.432 102.147 20.292 102.035 20.152C101.559 19.452 101.237 18.71 101.069 17.926C100.901 17.114 100.859 16.316 100.943 15.532C101.055 14.72 101.265 13.936 101.573 13.18C101.881 12.396 102.287 11.682 102.791 11.038C103.071 10.674 103.407 10.31 103.799 9.946C104.219 9.554 104.667 9.218 105.143 8.938C105.647 8.63 106.165 8.392 106.697 8.224C107.257 8.056 107.817 7.986 108.377 8.014C108.601 8.042 108.797 8.112 108.965 8.224C109.161 8.308 109.371 8.406 109.595 8.518C109.735 8.574 109.903 8.658 110.099 8.77C110.323 8.854 110.505 8.952 110.645 9.064ZM109.427 11.542C109.371 11.29 109.217 11.066 108.965 10.87C108.713 10.674 108.433 10.52 108.125 10.408C107.817 10.268 107.509 10.184 107.201 10.156C106.893 10.128 106.669 10.142 106.529 10.198C106.305 10.282 106.039 10.436 105.731 10.66C105.451 10.856 105.171 11.094 104.891 11.374C104.639 11.654 104.387 11.962 104.135 12.298C103.911 12.606 103.743 12.9 103.631 13.18C103.575 13.264 103.519 13.404 103.463 13.6C103.435 13.768 103.449 13.894 103.505 13.978C103.841 14.398 104.345 14.608 105.017 14.608C105.661 14.608 106.347 14.454 107.075 14.146C107.831 13.838 108.363 13.516 108.671 13.18C108.699 13.124 108.755 13.026 108.839 12.886C108.951 12.746 109.049 12.592 109.133 12.424C109.217 12.256 109.287 12.088 109.343 11.92C109.427 11.752 109.455 11.626 109.427 11.542Z" fill="#FFA92C"/>
</svg>
