<svg width="95" height="29" viewBox="0 0 95 29" fill="none" xmlns="http://www.w3.org/2000/svg">
<path d="M17.926 7.578C18.29 9.37 18.29 11.134 17.926 12.87C17.562 14.578 16.848 16.146 15.784 17.574C15.42 18.302 14.93 18.764 14.314 18.96C13.698 19.156 13.026 19.254 12.298 19.254C12.13 19.254 11.892 19.268 11.584 19.296C11.276 19.296 10.954 19.324 10.618 19.38C10.31 19.408 10.002 19.45 9.694 19.506C9.414 19.534 9.19 19.576 9.022 19.632L9.19 22.656C9.19 22.936 9.162 23.23 9.106 23.538C9.05 23.846 8.994 24.126 8.938 24.378C8.882 24.714 8.868 24.994 8.896 25.218C8.924 25.47 8.91 25.764 8.854 26.1C8.798 26.436 8.742 26.786 8.686 27.15C8.658 27.514 8.644 27.892 8.644 28.284C8.28 27.724 7.958 26.954 7.678 25.974C7.398 25.022 7.146 23.958 6.922 22.782C6.726 21.578 6.558 20.332 6.418 19.044C6.278 17.756 6.152 16.51 6.04 15.306C5.956 14.102 5.886 12.996 5.83 11.988C5.802 10.952 5.774 10.126 5.746 9.51C5.214 9.734 4.682 10.014 4.15 10.35C3.618 10.686 3.114 11.008 2.638 11.316C2.498 11.428 2.344 11.442 2.176 11.358C2.036 11.274 1.896 11.274 1.756 11.358C1.644 11.47 1.532 11.526 1.42 11.526C1.336 11.526 1.252 11.498 1.168 11.442C1.084 11.386 1.014 11.33 0.958 11.274C0.902 11.19 0.846 11.148 0.79 11.148C0.734 10.98 0.72 10.868 0.748 10.812C0.776 10.728 0.79 10.63 0.79 10.518C0.818 10.35 0.846 10.196 0.874 10.056C0.874 9.888 0.944 9.748 1.084 9.636C2.764 8.292 4.346 7.284 5.83 6.612C7.314 5.912 8.686 5.408 9.946 5.1C11.29 4.736 12.508 4.638 13.6 4.806C14.692 4.946 15.77 5.506 16.834 6.486C17.142 6.57 17.394 6.696 17.59 6.864C17.814 7.004 17.926 7.242 17.926 7.578ZM15.868 8.418C15.56 7.998 15.14 7.704 14.608 7.536C14.076 7.368 13.474 7.298 12.802 7.326C12.13 7.354 11.43 7.466 10.702 7.662C10.002 7.83 9.33 8.054 8.686 8.334C8.686 8.838 8.686 9.468 8.686 10.224C8.686 10.952 8.686 11.736 8.686 12.576C8.714 13.388 8.742 14.214 8.77 15.054C8.826 15.866 8.882 16.622 8.938 17.322C9.358 17.182 9.834 17.056 10.366 16.944C10.926 16.804 11.472 16.65 12.004 16.482C12.564 16.286 13.082 16.048 13.558 15.768C14.062 15.488 14.468 15.096 14.776 14.592C14.944 14.228 15.126 13.78 15.322 13.248C15.546 12.688 15.728 12.114 15.868 11.526C16.008 10.91 16.078 10.336 16.078 9.804C16.106 9.244 16.036 8.782 15.868 8.418ZM32.2142 12.702C32.2142 14.662 32.2282 16.482 32.2562 18.162C32.3122 19.842 32.4802 21.494 32.7602 23.118C32.7882 23.286 32.7462 23.468 32.6342 23.664C32.5222 23.86 32.4102 24.028 32.2982 24.168C32.1302 24.364 31.9762 24.546 31.8362 24.714C31.6962 24.91 31.5562 25.036 31.4162 25.092C31.1362 25.232 30.9682 25.26 30.9122 25.176C30.8562 25.092 30.8142 24.98 30.7862 24.84C30.6742 24.308 30.5202 23.594 30.3242 22.698C30.1562 21.774 30.0442 20.85 29.9882 19.926C29.6522 20.486 29.2742 21.06 28.8542 21.648C28.4622 22.208 28.0282 22.726 27.5522 23.202C27.1042 23.678 26.6422 24.098 26.1662 24.462C25.6902 24.854 25.2282 25.134 24.7802 25.302C24.5842 25.386 24.4442 25.4 24.3602 25.344C24.3042 25.288 24.1922 25.232 24.0242 25.176C23.7722 25.064 23.5202 24.952 23.2682 24.84C23.0442 24.756 22.8622 24.616 22.7222 24.42C22.4142 23.888 22.1622 23.37 21.9662 22.866C21.6582 22.054 21.4622 21.2 21.3782 20.304C21.3222 19.408 21.3222 18.512 21.3782 17.616C21.4342 16.72 21.5322 15.852 21.6722 15.012C21.8122 14.172 21.9522 13.402 22.0922 12.702C22.1202 12.562 22.1902 12.478 22.3022 12.45C22.4142 12.394 22.4842 12.296 22.5122 12.156C22.5682 11.932 22.6662 11.778 22.8062 11.694C22.9742 11.61 23.1422 11.54 23.3102 11.484C23.5342 11.428 23.7022 11.386 23.8142 11.358C23.9542 11.302 24.1362 11.274 24.3602 11.274C24.1082 12.086 23.9122 13.01 23.7722 14.046C23.6322 15.082 23.5622 16.146 23.5622 17.238C23.5902 18.302 23.6882 19.338 23.8562 20.346C24.0522 21.354 24.3322 22.236 24.6962 22.992C25.2282 22.628 25.7462 22.18 26.2502 21.648C26.7822 21.116 27.2722 20.57 27.7202 20.01C28.1682 19.422 28.5602 18.862 28.8962 18.33C29.2602 17.798 29.5262 17.35 29.6942 16.986C29.8622 16.426 29.9602 15.796 29.9882 15.096C30.0442 14.368 30.0722 13.724 30.0722 13.164C30.0442 12.912 30.0582 12.716 30.1142 12.576C30.1982 12.436 30.2822 12.282 30.3662 12.114C30.4222 12.03 30.4502 11.946 30.4502 11.862C30.4782 11.778 30.5342 11.708 30.6182 11.652C30.6742 11.596 30.7302 11.526 30.7862 11.442C30.8702 11.33 30.9542 11.274 31.0382 11.274C31.2062 11.274 31.3182 11.358 31.3742 11.526C31.4302 11.694 31.5142 11.82 31.6262 11.904C31.7662 12.044 31.8922 12.156 32.0042 12.24C32.1442 12.296 32.2142 12.45 32.2142 12.702ZM37.2056 3.252C37.2616 3.308 37.3036 3.35 37.3316 3.378C37.3876 3.406 37.4156 3.462 37.4156 3.546C37.4156 4.414 37.4576 5.324 37.5416 6.276C37.6256 7.228 37.7096 8.194 37.7936 9.174C37.8776 10.126 37.9476 11.078 38.0036 12.03C38.0876 12.982 38.1296 13.878 38.1296 14.718C38.3256 14.438 38.5496 14.116 38.8016 13.752C39.0816 13.388 39.4036 13.052 39.7676 12.744C40.1316 12.436 40.5236 12.184 40.9436 11.988C41.3916 11.764 41.8816 11.638 42.4136 11.61C42.6096 11.414 42.7916 11.316 42.9596 11.316C43.2396 11.288 43.5056 11.386 43.7576 11.61C44.0096 11.806 44.2756 12.044 44.5556 12.324C44.9196 12.688 45.2276 13.122 45.4796 13.626C45.7316 14.13 45.8996 14.648 45.9836 15.18C46.0676 15.712 46.0536 16.23 45.9416 16.734C45.8576 17.238 45.6336 17.672 45.2696 18.036C44.9056 19.1 44.4016 19.996 43.7576 20.724C43.1136 21.424 42.4276 21.956 41.6996 22.32L39.1796 23.58C39.0116 23.664 38.8436 23.776 38.6756 23.916C38.5356 24.028 38.3816 24.126 38.2136 24.21C38.0736 24.266 37.9616 24.238 37.8776 24.126C37.8216 24.042 37.7236 23.972 37.5836 23.916C37.2476 23.776 37.0376 23.566 36.9536 23.286C36.8696 23.034 36.8136 22.824 36.7856 22.656C36.7576 22.488 36.7156 22.25 36.6596 21.942C36.3516 20.57 36.1276 19.058 35.9876 17.406C35.8756 15.754 35.8056 14.116 35.7776 12.492C35.7776 10.84 35.7916 9.258 35.8196 7.746C35.8756 6.206 35.9316 4.876 35.9876 3.756C35.9876 3.392 36.0016 3.154 36.0296 3.042C36.0856 2.93 36.1836 2.846 36.3236 2.79C36.3796 2.762 36.4496 2.734 36.5336 2.706C36.6176 2.678 36.7296 2.692 36.8696 2.748C36.9536 2.776 37.0096 2.846 37.0376 2.958C37.0936 3.042 37.1496 3.14 37.2056 3.252ZM44.5556 15.516C44.5556 15.348 44.4716 15.138 44.3036 14.886C44.1636 14.606 43.9816 14.34 43.7576 14.088C43.5616 13.836 43.3376 13.612 43.0856 13.416C42.8336 13.22 42.6096 13.094 42.4136 13.038C42.1056 13.122 41.7136 13.332 41.2376 13.668C40.7616 13.976 40.3696 14.326 40.0616 14.718C39.2496 15.698 38.8156 16.734 38.7596 17.826C38.7036 18.918 38.8576 19.996 39.2216 21.06C39.4736 20.976 39.7956 20.836 40.1876 20.64C40.6076 20.444 41.0416 20.22 41.4896 19.968C41.9376 19.716 42.3716 19.464 42.7916 19.212C43.2116 18.932 43.5616 18.68 43.8416 18.456C44.1496 18.092 44.3456 17.7 44.4296 17.28C44.5136 16.832 44.5556 16.244 44.5556 15.516ZM51.8456 4.008C52.1816 5.52 52.4476 7.032 52.6436 8.544C52.8396 10.056 53.0216 11.568 53.1896 13.08C53.3576 14.592 53.5256 16.104 53.6936 17.616C53.8896 19.128 54.1416 20.64 54.4496 22.152C54.3936 22.516 54.3516 22.81 54.3236 23.034C54.2956 23.258 54.2256 23.398 54.1136 23.454C53.9736 23.538 53.8336 23.636 53.6936 23.748C53.5816 23.832 53.4556 23.902 53.3156 23.958C53.2596 23.986 53.2036 24.028 53.1476 24.084C53.0916 24.168 53.0216 24.224 52.9376 24.252C52.8816 24.28 52.8256 24.28 52.7696 24.252C52.7136 24.224 52.6436 24.14 52.5596 24C52.0276 22.404 51.5376 20.794 51.0896 19.17C50.6696 17.546 50.3196 15.908 50.0396 14.256C49.7876 12.604 49.6196 10.938 49.5356 9.258C49.4796 7.55 49.5356 5.8 49.7036 4.008C49.7036 3.588 49.8296 3.322 50.0816 3.21C50.1936 3.154 50.3336 3.196 50.5016 3.336C50.6976 3.476 50.8656 3.574 51.0056 3.63C51.2016 3.714 51.3556 3.77 51.4676 3.798C51.5796 3.798 51.7056 3.868 51.8456 4.008ZM63.1311 10.182C63.3551 10.406 63.4391 10.588 63.3831 10.728C63.3551 10.868 63.2711 10.924 63.1311 10.896C62.7671 10.896 62.3611 10.938 61.9131 11.022C61.4931 11.078 61.0311 11.134 60.5271 11.19C60.0511 11.218 59.5471 11.218 59.0151 11.19C58.4831 11.162 57.9511 11.064 57.4191 10.896C57.1951 10.672 57.1951 10.476 57.4191 10.308C57.6711 10.112 57.8671 9.832 58.0071 9.468C58.0911 9.216 58.2031 9.048 58.3431 8.964C58.5111 8.852 58.6791 8.782 58.8471 8.754C59.1551 8.754 59.5331 8.824 59.9811 8.964C60.4571 9.076 60.8491 9.146 61.1571 9.174C61.6331 9.23 62.0251 9.314 62.3331 9.426C62.6411 9.51 62.9071 9.762 63.1311 10.182ZM62.2491 15.894C62.4171 16.538 62.5431 17.126 62.6271 17.658C62.7391 18.19 62.8091 18.708 62.8371 19.212C62.8931 19.688 62.9211 20.178 62.9211 20.682C62.9491 21.186 62.9631 21.732 62.9631 22.32C62.9631 22.432 62.8931 22.558 62.7531 22.698C62.6411 22.81 62.5571 22.936 62.5011 23.076C62.3891 23.328 62.2911 23.482 62.2071 23.538C62.1511 23.594 62.0391 23.664 61.8711 23.748C61.4791 23.916 61.1291 24.154 60.8211 24.462C60.4571 23.93 60.2051 23.314 60.0651 22.614C59.9531 21.914 59.8691 21.186 59.8131 20.43C59.7851 19.674 59.7431 18.918 59.6871 18.162C59.6591 17.378 59.5611 16.622 59.3931 15.894C59.3091 15.502 59.3371 15.236 59.4771 15.096C59.6171 14.956 59.7711 14.858 59.9391 14.802C60.1351 14.746 60.3451 14.788 60.5691 14.928C60.8211 15.068 61.0591 15.208 61.2831 15.348C61.4791 15.46 61.6611 15.53 61.8291 15.558C62.0251 15.558 62.1651 15.67 62.2491 15.894ZM77.0725 12.618C76.9325 13.038 76.8205 13.36 76.7365 13.584C76.6525 13.808 76.5265 13.836 76.3585 13.668C75.9665 13.276 75.4905 12.856 74.9305 12.408C74.3705 11.96 73.6845 11.68 72.8725 11.568C72.3405 11.512 71.7665 11.582 71.1505 11.778C70.5625 11.946 70.1145 12.324 69.8065 12.912C69.5265 13.416 69.4845 14.018 69.6805 14.718C69.8485 15.446 70.2125 15.978 70.7725 16.314C71.3605 16.622 72.0045 16.874 72.7045 17.07C73.4325 17.238 74.1605 17.392 74.8885 17.532C75.6445 17.672 76.2885 17.924 76.8205 18.288C76.9885 18.372 77.1145 18.512 77.1985 18.708C77.3105 18.876 77.4225 19.03 77.5345 19.17C77.6745 19.338 77.8005 19.478 77.9125 19.59C78.0525 19.702 78.1785 19.87 78.2905 20.094C78.3745 20.262 78.4725 20.472 78.5845 20.724C78.6965 20.948 78.7245 21.2 78.6685 21.48C78.5845 21.844 78.2345 22.236 77.6185 22.656C76.2745 23.524 74.8605 24.21 73.3765 24.714C71.8925 25.246 70.3245 25.344 68.6725 25.008C68.4765 24.952 68.2525 24.756 68.0005 24.42C67.7485 24.112 67.5385 23.902 67.3705 23.79C66.9225 23.538 66.6145 23.216 66.4465 22.824C66.2225 22.096 66.1105 21.298 66.1105 20.43C66.1105 20.15 66.1525 20.024 66.2365 20.052C66.3485 20.052 66.4465 20.052 66.5305 20.052C66.6985 20.052 66.8805 20.164 67.0765 20.388C67.3005 20.612 67.5245 20.878 67.7485 21.186C68.0005 21.466 68.2245 21.732 68.4205 21.984C68.6445 22.208 68.8265 22.32 68.9665 22.32C69.4425 22.544 70.0165 22.67 70.6885 22.698C71.3605 22.726 72.0325 22.67 72.7045 22.53C73.4045 22.362 74.0485 22.11 74.6365 21.774C75.2525 21.41 75.7425 20.962 76.1065 20.43C76.1065 20.29 75.9385 20.122 75.6025 19.926C75.2945 19.73 74.8885 19.52 74.3845 19.296C73.8805 19.044 73.3205 18.792 72.7045 18.54C72.1165 18.288 71.5425 18.022 70.9825 17.742C70.4505 17.462 69.9745 17.168 69.5545 16.86C69.1625 16.552 68.8965 16.244 68.7565 15.936C68.6725 15.712 68.5745 15.488 68.4625 15.264C68.3505 15.012 68.2805 14.83 68.2525 14.718C68.1125 14.102 68.0845 13.514 68.1685 12.954C68.2525 12.366 68.4205 11.848 68.6725 11.4C68.9245 10.952 69.2605 10.588 69.6805 10.308C70.1005 10 70.5765 9.804 71.1085 9.72C71.9485 9.608 72.8445 9.608 73.7965 9.72C74.7765 9.804 75.6445 10.126 76.4005 10.686C76.6245 10.882 76.7785 11.064 76.8625 11.232C76.9745 11.4 77.0585 11.596 77.1145 11.82C77.1425 11.96 77.1705 12.1 77.1985 12.24C77.2265 12.352 77.1845 12.478 77.0725 12.618ZM84.5839 15.894C85.2279 14.942 85.9979 14.186 86.8939 13.626C87.7899 13.038 88.8259 12.786 90.0019 12.87C90.1699 12.898 90.3519 12.968 90.5479 13.08C90.7439 13.164 90.9259 13.248 91.0939 13.332C91.5139 13.556 91.9059 13.892 92.2699 14.34C92.6339 14.76 92.9559 15.25 93.2359 15.81C93.5439 16.342 93.7959 16.902 93.9919 17.49C94.1879 18.078 94.3279 18.624 94.4119 19.128C94.4679 19.436 94.5099 19.828 94.5379 20.304C94.5659 20.78 94.5799 21.214 94.5799 21.606C94.5239 21.606 94.4959 21.62 94.4959 21.648C94.4959 21.676 94.4679 21.676 94.4119 21.648C94.1879 21.536 94.0059 21.382 93.8659 21.186C93.8099 21.13 93.7259 21.074 93.6139 21.018C93.5019 20.934 93.4319 20.836 93.4039 20.724C93.3479 20.444 93.2779 20.08 93.1939 19.632C93.1379 19.156 93.0259 18.652 92.8579 18.12C92.6899 17.588 92.4799 17.07 92.2279 16.566C91.9759 16.034 91.6679 15.572 91.3039 15.18C91.1639 15.04 91.0379 14.942 90.9259 14.886C90.8419 14.802 90.7299 14.718 90.5899 14.634C90.4499 14.522 90.2399 14.452 89.9599 14.424C89.6799 14.368 89.4419 14.368 89.2459 14.424C88.7699 14.564 88.2659 14.83 87.7339 15.222C87.2019 15.614 86.7399 16.104 86.3479 16.692C85.9559 17.252 85.6759 17.91 85.5079 18.666C85.3399 19.422 85.4099 20.234 85.7179 21.102C85.8019 21.354 85.8579 21.564 85.8859 21.732C85.9139 21.872 85.9139 22.012 85.8859 22.152C85.8859 22.292 85.8439 22.446 85.7599 22.614C85.6759 22.782 85.5639 23.006 85.4239 23.286C85.1999 23.622 84.9339 23.86 84.6259 24C84.3459 24.14 84.0939 24.294 83.8699 24.462C83.0579 22.138 82.4279 19.814 81.9799 17.49C81.5599 15.166 81.2939 12.968 81.1819 10.896C81.0979 8.824 81.1679 6.934 81.3919 5.226C81.6159 3.49 81.9659 2.048 82.4419 0.899999C82.5259 0.563999 82.7079 0.423999 82.9879 0.48C83.1279 0.508 83.2399 0.563999 83.3239 0.647998C83.4079 0.731998 83.5199 0.843999 83.6599 0.983998C83.7719 1.124 83.8699 1.25 83.9539 1.362C84.0379 1.446 84.0939 1.572 84.1219 1.74C84.1499 1.88 84.2199 1.95 84.3319 1.95C84.4439 1.95 84.4859 2.02 84.4579 2.16C84.2059 3.7 84.0379 5.128 83.9539 6.444C83.8699 7.76 83.8419 8.978 83.8699 10.098C83.9259 11.218 84.0239 12.254 84.1639 13.206C84.3039 14.158 84.4439 15.054 84.5839 15.894Z" fill="#007EF2"/>
</svg>
