<svg width="258" height="258" viewBox="0 0 258 258" fill="none" xmlns="http://www.w3.org/2000/svg">
<path d="M0.294922 83.8252C0.294922 84.8849 1.15427 85.7442 2.2128 85.7442C3.27245 85.7442 4.13193 84.8849 4.13193 83.8252C4.13193 82.7656 3.27245 81.9062 2.2128 81.9062C1.15427 81.9062 0.294922 82.7656 0.294922 83.8252Z" fill="url(#paint0_linear_1_26465)"/>
<path d="M21.4453 83.8252C21.4453 84.8849 22.3047 85.7442 23.3632 85.7442C24.4228 85.7442 25.2822 84.8849 25.2822 83.8252C25.2822 82.7656 24.4228 81.9062 23.3632 81.9062C22.3047 81.9062 21.4453 82.7656 21.4453 83.8252Z" fill="url(#paint1_linear_1_26465)"/>
<path d="M42.5938 83.8252C42.5938 84.8849 43.4531 85.7442 44.5127 85.7442C45.5713 85.7442 46.4306 84.8849 46.4306 83.8252C46.4306 82.7656 45.5713 81.9062 44.5127 81.9062C43.4531 81.9062 42.5938 82.7656 42.5938 83.8252Z" fill="url(#paint2_linear_1_26465)"/>
<path d="M63.7441 83.8252C63.7441 84.8849 64.6035 85.7442 65.6631 85.7442C66.7228 85.7442 67.5811 84.8849 67.5811 83.8252C67.5811 82.7656 66.7228 81.9062 65.6631 81.9062C64.6035 81.9062 63.7441 82.7656 63.7441 83.8252Z" fill="url(#paint3_linear_1_26465)"/>
<path d="M84.8943 83.8252C84.8943 84.8849 85.7537 85.7442 86.8122 85.7442C87.8718 85.7442 88.7312 84.8849 88.7312 83.8252C88.7312 82.7656 87.8718 81.9062 86.8122 81.9062C85.7537 81.9062 84.8943 82.7656 84.8943 83.8252Z" fill="url(#paint4_linear_1_26465)"/>
<path d="M106.045 83.8252C106.045 84.8849 106.904 85.7442 107.963 85.7442C109.022 85.7442 109.882 84.8849 109.882 83.8252C109.882 82.7656 109.022 81.9062 107.963 81.9062C106.904 81.9062 106.045 82.7656 106.045 83.8252Z" fill="url(#paint5_linear_1_26465)"/>
<path d="M127.193 83.8252C127.193 84.8849 128.053 85.7442 129.112 85.7442C130.171 85.7442 131.03 84.8849 131.03 83.8252C131.03 82.7656 130.171 81.9062 129.112 81.9062C128.053 81.9062 127.193 82.7656 127.193 83.8252Z" fill="url(#paint6_linear_1_26465)"/>
<path d="M148.344 83.8252C148.344 84.8849 149.203 85.7442 150.263 85.7442C151.322 85.7442 152.181 84.8849 152.181 83.8252C152.181 82.7656 151.322 81.9062 150.263 81.9062C149.203 81.9062 148.344 82.7656 148.344 83.8252Z" fill="url(#paint7_linear_1_26465)"/>
<path d="M169.494 83.8252C169.494 84.8849 170.352 85.7442 171.412 85.7442C172.472 85.7442 173.331 84.8849 173.331 83.8252C173.331 82.7656 172.472 81.9062 171.412 81.9062C170.352 81.9062 169.494 82.7656 169.494 83.8252Z" fill="url(#paint8_linear_1_26465)"/>
<path d="M190.645 83.8252C190.645 84.8849 191.504 85.7442 192.563 85.7442C193.622 85.7442 194.482 84.8849 194.482 83.8252C194.482 82.7656 193.622 81.9062 192.563 81.9062C191.504 81.9062 190.645 82.7656 190.645 83.8252Z" fill="url(#paint9_linear_1_26465)"/>
<path d="M211.793 83.8252C211.793 84.8849 212.652 85.7442 213.712 85.7442C214.77 85.7442 215.63 84.8849 215.63 83.8252C215.63 82.7656 214.77 81.9062 213.712 81.9062C212.652 81.9062 211.793 82.7656 211.793 83.8252Z" fill="url(#paint10_linear_1_26465)"/>
<path d="M232.943 83.8252C232.943 84.8849 233.802 85.7442 234.862 85.7442C235.922 85.7442 236.78 84.8849 236.78 83.8252C236.78 82.7656 235.922 81.9062 234.862 81.9062C233.802 81.9062 232.943 82.7656 232.943 83.8252Z" fill="url(#paint11_linear_1_26465)"/>
<path d="M254.094 83.8252C254.094 84.8849 254.952 85.7442 256.012 85.7442C257.071 85.7442 257.931 84.8849 257.931 83.8252C257.931 82.7656 257.071 81.9062 256.012 81.9062C254.952 81.9062 254.094 82.7656 254.094 83.8252Z" fill="url(#paint12_linear_1_26465)"/>
<path d="M0.294922 101.846C0.294922 102.905 1.15427 103.765 2.2128 103.765C3.27245 103.765 4.13193 102.905 4.13193 101.846C4.13193 100.787 3.27245 99.9277 2.2128 99.9277C1.15427 99.9277 0.294922 100.787 0.294922 101.846Z" fill="url(#paint13_linear_1_26465)"/>
<path d="M21.4453 101.846C21.4453 102.905 22.3047 103.765 23.3632 103.765C24.4228 103.765 25.2822 102.905 25.2822 101.846C25.2822 100.787 24.4228 99.9277 23.3632 99.9277C22.3047 99.9277 21.4453 100.787 21.4453 101.846Z" fill="url(#paint14_linear_1_26465)"/>
<path d="M42.5938 101.846C42.5938 102.905 43.4531 103.765 44.5127 103.765C45.5713 103.765 46.4306 102.905 46.4306 101.846C46.4306 100.787 45.5713 99.9277 44.5127 99.9277C43.4531 99.9277 42.5938 100.787 42.5938 101.846Z" fill="url(#paint15_linear_1_26465)"/>
<path d="M63.7441 101.846C63.7441 102.905 64.6035 103.765 65.6631 103.765C66.7228 103.765 67.5812 102.905 67.5812 101.846C67.5812 100.787 66.7228 99.9277 65.6631 99.9277C64.6035 99.9277 63.7441 100.787 63.7441 101.846Z" fill="url(#paint16_linear_1_26465)"/>
<path d="M84.8945 101.846C84.8945 102.905 85.7539 103.765 86.8124 103.765C87.8721 103.765 88.7314 102.905 88.7314 101.846C88.7314 100.787 87.8721 99.9277 86.8124 99.9277C85.7539 99.9277 84.8945 100.787 84.8945 101.846Z" fill="url(#paint17_linear_1_26465)"/>
<path d="M106.045 101.846C106.045 102.905 106.904 103.765 107.963 103.765C109.022 103.765 109.882 102.905 109.882 101.846C109.882 100.787 109.022 99.9277 107.963 99.9277C106.904 99.9277 106.045 100.787 106.045 101.846Z" fill="url(#paint18_linear_1_26465)"/>
<path d="M127.193 101.846C127.193 102.905 128.053 103.765 129.112 103.765C130.171 103.765 131.03 102.905 131.03 101.846C131.03 100.787 130.171 99.9277 129.112 99.9277C128.053 99.9277 127.193 100.787 127.193 101.846Z" fill="url(#paint19_linear_1_26465)"/>
<path d="M148.344 101.846C148.344 102.905 149.203 103.765 150.263 103.765C151.322 103.765 152.181 102.905 152.181 101.846C152.181 100.787 151.322 99.9277 150.263 99.9277C149.203 99.9277 148.344 100.787 148.344 101.846Z" fill="url(#paint20_linear_1_26465)"/>
<path d="M169.494 101.846C169.494 102.905 170.352 103.765 171.412 103.765C172.472 103.765 173.331 102.905 173.331 101.846C173.331 100.787 172.472 99.9277 171.412 99.9277C170.352 99.9277 169.494 100.787 169.494 101.846Z" fill="url(#paint21_linear_1_26465)"/>
<path d="M190.645 101.846C190.645 102.905 191.504 103.765 192.563 103.765C193.622 103.765 194.482 102.905 194.482 101.846C194.482 100.787 193.622 99.9277 192.563 99.9277C191.504 99.9277 190.645 100.787 190.645 101.846Z" fill="url(#paint22_linear_1_26465)"/>
<path d="M211.793 101.846C211.793 102.905 212.652 103.765 213.712 103.765C214.77 103.765 215.63 102.905 215.63 101.846C215.63 100.787 214.77 99.9277 213.712 99.9277C212.652 99.9277 211.793 100.787 211.793 101.846Z" fill="url(#paint23_linear_1_26465)"/>
<path d="M232.943 101.846C232.943 102.905 233.803 103.765 234.862 103.765C235.922 103.765 236.78 102.905 236.78 101.846C236.78 100.787 235.922 99.9277 234.862 99.9277C233.803 99.9277 232.943 100.787 232.943 101.846Z" fill="url(#paint24_linear_1_26465)"/>
<path d="M254.094 101.846C254.094 102.905 254.952 103.765 256.012 103.765C257.071 103.765 257.931 102.905 257.931 101.846C257.931 100.787 257.071 99.9277 256.012 99.9277C254.952 99.9277 254.094 100.787 254.094 101.846Z" fill="url(#paint25_linear_1_26465)"/>
<path d="M0.294907 119.866C0.294907 120.926 1.15425 121.785 2.21278 121.785C3.27243 121.785 4.13192 120.926 4.13192 119.866C4.13192 118.807 3.27243 117.947 2.21278 117.947C1.15425 117.947 0.294907 118.807 0.294907 119.866Z" fill="url(#paint26_linear_1_26465)"/>
<path d="M21.4453 119.866C21.4453 120.926 22.3047 121.785 23.3632 121.785C24.4228 121.785 25.2822 120.926 25.2822 119.866C25.2822 118.807 24.4228 117.947 23.3632 117.947C22.3047 117.947 21.4453 118.807 21.4453 119.866Z" fill="url(#paint27_linear_1_26465)"/>
<path d="M42.5938 119.866C42.5938 120.926 43.4531 121.785 44.5127 121.785C45.5713 121.785 46.4306 120.926 46.4306 119.866C46.4306 118.807 45.5713 117.947 44.5127 117.947C43.4531 117.947 42.5938 118.807 42.5938 119.866Z" fill="url(#paint28_linear_1_26465)"/>
<path d="M63.7441 119.866C63.7441 120.926 64.6035 121.785 65.6631 121.785C66.7228 121.785 67.5811 120.926 67.5811 119.866C67.5811 118.807 66.7228 117.947 65.6631 117.947C64.6035 117.947 63.7441 118.807 63.7441 119.866Z" fill="url(#paint29_linear_1_26465)"/>
<path d="M84.8943 119.866C84.8943 120.926 85.7537 121.785 86.8122 121.785C87.8718 121.785 88.7312 120.926 88.7312 119.866C88.7312 118.807 87.8718 117.947 86.8122 117.947C85.7537 117.947 84.8943 118.807 84.8943 119.866Z" fill="url(#paint30_linear_1_26465)"/>
<path d="M106.045 119.866C106.045 120.926 106.904 121.785 107.963 121.785C109.022 121.785 109.882 120.926 109.882 119.866C109.882 118.807 109.022 117.947 107.963 117.947C106.904 117.947 106.045 118.807 106.045 119.866Z" fill="url(#paint31_linear_1_26465)"/>
<path d="M127.193 119.866C127.193 120.926 128.053 121.785 129.112 121.785C130.171 121.785 131.03 120.926 131.03 119.866C131.03 118.807 130.171 117.947 129.112 117.947C128.053 117.947 127.193 118.807 127.193 119.866Z" fill="url(#paint32_linear_1_26465)"/>
<path d="M148.344 119.866C148.344 120.926 149.203 121.785 150.263 121.785C151.322 121.785 152.181 120.926 152.181 119.866C152.181 118.807 151.322 117.947 150.263 117.947C149.203 117.947 148.344 118.807 148.344 119.866Z" fill="url(#paint33_linear_1_26465)"/>
<path d="M169.494 119.866C169.494 120.926 170.352 121.785 171.412 121.785C172.472 121.785 173.331 120.926 173.331 119.866C173.331 118.807 172.472 117.947 171.412 117.947C170.352 117.947 169.494 118.807 169.494 119.866Z" fill="url(#paint34_linear_1_26465)"/>
<path d="M190.645 119.866C190.645 120.926 191.504 121.785 192.563 121.785C193.622 121.785 194.482 120.926 194.482 119.866C194.482 118.807 193.622 117.947 192.563 117.947C191.504 117.947 190.645 118.807 190.645 119.866Z" fill="url(#paint35_linear_1_26465)"/>
<path d="M211.793 119.866C211.793 120.926 212.652 121.785 213.712 121.785C214.77 121.785 215.63 120.926 215.63 119.866C215.63 118.807 214.77 117.947 213.712 117.947C212.652 117.947 211.793 118.807 211.793 119.866Z" fill="url(#paint36_linear_1_26465)"/>
<path d="M232.943 119.866C232.943 120.926 233.802 121.785 234.862 121.785C235.922 121.785 236.78 120.926 236.78 119.866C236.78 118.807 235.922 117.947 234.862 117.947C233.802 117.947 232.943 118.807 232.943 119.866Z" fill="url(#paint37_linear_1_26465)"/>
<path d="M254.094 119.866C254.094 120.926 254.952 121.785 256.012 121.785C257.071 121.785 257.931 120.926 257.931 119.866C257.931 118.807 257.071 117.947 256.012 117.947C254.952 117.947 254.094 118.807 254.094 119.866Z" fill="url(#paint38_linear_1_26465)"/>
<path d="M0.294907 137.888C0.294907 138.946 1.15425 139.806 2.21278 139.806C3.27243 139.806 4.13192 138.946 4.13192 137.888C4.13192 136.828 3.27243 135.969 2.21278 135.969C1.15425 135.969 0.294907 136.828 0.294907 137.888Z" fill="url(#paint39_linear_1_26465)"/>
<path d="M21.4453 137.888C21.4453 138.946 22.3047 139.806 23.3632 139.806C24.4228 139.806 25.2822 138.946 25.2822 137.888C25.2822 136.828 24.4228 135.969 23.3632 135.969C22.3047 135.969 21.4453 136.828 21.4453 137.888Z" fill="url(#paint40_linear_1_26465)"/>
<path d="M42.5938 137.888C42.5938 138.946 43.4531 139.806 44.5127 139.806C45.5713 139.806 46.4306 138.946 46.4306 137.888C46.4306 136.828 45.5713 135.969 44.5127 135.969C43.4531 135.969 42.5938 136.828 42.5938 137.888Z" fill="url(#paint41_linear_1_26465)"/>
<path d="M63.7441 137.888C63.7441 138.946 64.6035 139.806 65.6631 139.806C66.7228 139.806 67.5811 138.946 67.5811 137.888C67.5811 136.828 66.7228 135.969 65.6631 135.969C64.6035 135.969 63.7441 136.828 63.7441 137.888Z" fill="url(#paint42_linear_1_26465)"/>
<path d="M84.8943 137.888C84.8943 138.946 85.7537 139.806 86.8122 139.806C87.8718 139.806 88.7312 138.946 88.7312 137.888C88.7312 136.828 87.8718 135.969 86.8122 135.969C85.7537 135.969 84.8943 136.828 84.8943 137.888Z" fill="url(#paint43_linear_1_26465)"/>
<path d="M106.045 137.888C106.045 138.946 106.904 139.806 107.963 139.806C109.022 139.806 109.882 138.946 109.882 137.888C109.882 136.828 109.022 135.969 107.963 135.969C106.904 135.969 106.045 136.828 106.045 137.888Z" fill="url(#paint44_linear_1_26465)"/>
<path d="M127.193 137.888C127.193 138.946 128.053 139.806 129.112 139.806C130.171 139.806 131.03 138.946 131.03 137.888C131.03 136.828 130.171 135.969 129.112 135.969C128.053 135.969 127.193 136.828 127.193 137.888Z" fill="url(#paint45_linear_1_26465)"/>
<path d="M148.344 137.888C148.344 138.946 149.203 139.806 150.263 139.806C151.322 139.806 152.181 138.946 152.181 137.888C152.181 136.828 151.322 135.969 150.263 135.969C149.203 135.969 148.344 136.828 148.344 137.888Z" fill="url(#paint46_linear_1_26465)"/>
<path d="M169.494 137.888C169.494 138.946 170.352 139.806 171.412 139.806C172.472 139.806 173.331 138.946 173.331 137.888C173.331 136.828 172.472 135.969 171.412 135.969C170.352 135.969 169.494 136.828 169.494 137.888Z" fill="url(#paint47_linear_1_26465)"/>
<path d="M190.645 137.888C190.645 138.946 191.504 139.806 192.563 139.806C193.622 139.806 194.482 138.946 194.482 137.888C194.482 136.828 193.622 135.969 192.563 135.969C191.504 135.969 190.645 136.828 190.645 137.888Z" fill="url(#paint48_linear_1_26465)"/>
<path d="M211.793 137.888C211.793 138.946 212.652 139.806 213.712 139.806C214.77 139.806 215.63 138.946 215.63 137.888C215.63 136.828 214.77 135.969 213.712 135.969C212.652 135.969 211.793 136.828 211.793 137.888Z" fill="url(#paint49_linear_1_26465)"/>
<path d="M232.943 137.888C232.943 138.946 233.802 139.806 234.862 139.806C235.922 139.806 236.78 138.946 236.78 137.888C236.78 136.828 235.922 135.969 234.862 135.969C233.802 135.969 232.943 136.828 232.943 137.888Z" fill="url(#paint50_linear_1_26465)"/>
<path d="M254.094 137.888C254.094 138.946 254.952 139.806 256.012 139.806C257.071 139.806 257.931 138.946 257.931 137.888C257.931 136.828 257.071 135.969 256.012 135.969C254.952 135.969 254.094 136.828 254.094 137.888Z" fill="url(#paint51_linear_1_26465)"/>
<path d="M0.294922 155.907C0.294922 156.967 1.15427 157.826 2.2128 157.826C3.27245 157.826 4.13193 156.967 4.13193 155.907C4.13193 154.848 3.27245 153.988 2.2128 153.988C1.15427 153.988 0.294922 154.848 0.294922 155.907Z" fill="url(#paint52_linear_1_26465)"/>
<path d="M21.4453 155.907C21.4453 156.967 22.3047 157.826 23.3632 157.826C24.4228 157.826 25.2822 156.967 25.2822 155.907C25.2822 154.848 24.4228 153.988 23.3632 153.988C22.3047 153.988 21.4453 154.848 21.4453 155.907Z" fill="url(#paint53_linear_1_26465)"/>
<path d="M42.5938 155.907C42.5938 156.967 43.4531 157.826 44.5127 157.826C45.5713 157.826 46.4306 156.967 46.4306 155.907C46.4306 154.848 45.5713 153.988 44.5127 153.988C43.4531 153.988 42.5938 154.848 42.5938 155.907Z" fill="url(#paint54_linear_1_26465)"/>
<path d="M63.7441 155.907C63.7441 156.967 64.6035 157.826 65.6631 157.826C66.7228 157.826 67.5812 156.967 67.5812 155.907C67.5812 154.848 66.7228 153.988 65.6631 153.988C64.6035 153.988 63.7441 154.848 63.7441 155.907Z" fill="url(#paint55_linear_1_26465)"/>
<path d="M84.8945 155.907C84.8945 156.967 85.7539 157.826 86.8124 157.826C87.8721 157.826 88.7314 156.967 88.7314 155.907C88.7314 154.848 87.8721 153.988 86.8124 153.988C85.7539 153.988 84.8945 154.848 84.8945 155.907Z" fill="url(#paint56_linear_1_26465)"/>
<path d="M106.045 155.907C106.045 156.967 106.904 157.826 107.963 157.826C109.022 157.826 109.882 156.967 109.882 155.907C109.882 154.848 109.022 153.988 107.963 153.988C106.904 153.988 106.045 154.848 106.045 155.907Z" fill="url(#paint57_linear_1_26465)"/>
<path d="M127.193 155.907C127.193 156.967 128.053 157.826 129.112 157.826C130.171 157.826 131.03 156.967 131.03 155.907C131.03 154.848 130.171 153.988 129.112 153.988C128.053 153.988 127.193 154.848 127.193 155.907Z" fill="url(#paint58_linear_1_26465)"/>
<path d="M148.344 155.907C148.344 156.967 149.203 157.826 150.263 157.826C151.322 157.826 152.181 156.967 152.181 155.907C152.181 154.848 151.322 153.988 150.263 153.988C149.203 153.988 148.344 154.848 148.344 155.907Z" fill="url(#paint59_linear_1_26465)"/>
<path d="M169.494 155.907C169.494 156.967 170.352 157.826 171.412 157.826C172.472 157.826 173.331 156.967 173.331 155.907C173.331 154.848 172.472 153.988 171.412 153.988C170.352 153.988 169.494 154.848 169.494 155.907Z" fill="url(#paint60_linear_1_26465)"/>
<path d="M190.645 155.907C190.645 156.967 191.504 157.826 192.563 157.826C193.622 157.826 194.482 156.967 194.482 155.907C194.482 154.848 193.622 153.988 192.563 153.988C191.504 153.988 190.645 154.848 190.645 155.907Z" fill="url(#paint61_linear_1_26465)"/>
<path d="M211.793 155.907C211.793 156.967 212.652 157.826 213.712 157.826C214.77 157.826 215.63 156.967 215.63 155.907C215.63 154.848 214.77 153.988 213.712 153.988C212.652 153.988 211.793 154.848 211.793 155.907Z" fill="url(#paint62_linear_1_26465)"/>
<path d="M232.943 155.907C232.943 156.967 233.803 157.826 234.862 157.826C235.922 157.826 236.78 156.967 236.78 155.907C236.78 154.848 235.922 153.988 234.862 153.988C233.803 153.988 232.943 154.848 232.943 155.907Z" fill="url(#paint63_linear_1_26465)"/>
<path d="M254.094 155.907C254.094 156.967 254.952 157.826 256.012 157.826C257.071 157.826 257.931 156.967 257.931 155.907C257.931 154.848 257.071 153.988 256.012 153.988C254.952 153.988 254.094 154.848 254.094 155.907Z" fill="url(#paint64_linear_1_26465)"/>
<path d="M0.294922 173.929C0.294922 174.988 1.15427 175.848 2.2128 175.848C3.27245 175.848 4.13193 174.988 4.13193 173.929C4.13193 172.869 3.27245 172.01 2.2128 172.01C1.15427 172.01 0.294922 172.869 0.294922 173.929Z" fill="url(#paint65_linear_1_26465)"/>
<path d="M21.4453 173.929C21.4453 174.988 22.3047 175.848 23.3632 175.848C24.4228 175.848 25.2822 174.988 25.2822 173.929C25.2822 172.869 24.4228 172.01 23.3632 172.01C22.3047 172.01 21.4453 172.869 21.4453 173.929Z" fill="url(#paint66_linear_1_26465)"/>
<path d="M42.5938 173.929C42.5938 174.988 43.4531 175.848 44.5127 175.848C45.5713 175.848 46.4306 174.988 46.4306 173.929C46.4306 172.869 45.5713 172.01 44.5127 172.01C43.4531 172.01 42.5938 172.869 42.5938 173.929Z" fill="url(#paint67_linear_1_26465)"/>
<path d="M63.7441 173.929C63.7441 174.988 64.6035 175.848 65.6631 175.848C66.7228 175.848 67.5812 174.988 67.5812 173.929C67.5812 172.869 66.7228 172.01 65.6631 172.01C64.6035 172.01 63.7441 172.869 63.7441 173.929Z" fill="url(#paint68_linear_1_26465)"/>
<path d="M84.8945 173.929C84.8945 174.988 85.7539 175.848 86.8124 175.848C87.8721 175.848 88.7314 174.988 88.7314 173.929C88.7314 172.869 87.8721 172.01 86.8124 172.01C85.7539 172.01 84.8945 172.869 84.8945 173.929Z" fill="url(#paint69_linear_1_26465)"/>
<path d="M106.045 173.929C106.045 174.988 106.904 175.848 107.963 175.848C109.022 175.848 109.882 174.988 109.882 173.929C109.882 172.869 109.022 172.01 107.963 172.01C106.904 172.01 106.045 172.869 106.045 173.929Z" fill="url(#paint70_linear_1_26465)"/>
<path d="M127.193 173.929C127.193 174.988 128.053 175.848 129.112 175.848C130.171 175.848 131.03 174.988 131.03 173.929C131.03 172.869 130.171 172.01 129.112 172.01C128.053 172.01 127.193 172.869 127.193 173.929Z" fill="url(#paint71_linear_1_26465)"/>
<path d="M148.344 173.929C148.344 174.988 149.203 175.848 150.263 175.848C151.322 175.848 152.181 174.988 152.181 173.929C152.181 172.869 151.322 172.01 150.263 172.01C149.203 172.01 148.344 172.869 148.344 173.929Z" fill="url(#paint72_linear_1_26465)"/>
<path d="M169.494 173.929C169.494 174.988 170.352 175.848 171.412 175.848C172.472 175.848 173.331 174.988 173.331 173.929C173.331 172.869 172.472 172.01 171.412 172.01C170.352 172.01 169.494 172.869 169.494 173.929Z" fill="url(#paint73_linear_1_26465)"/>
<path d="M190.645 173.929C190.645 174.988 191.504 175.848 192.563 175.848C193.622 175.848 194.482 174.988 194.482 173.929C194.482 172.869 193.622 172.01 192.563 172.01C191.504 172.01 190.645 172.869 190.645 173.929Z" fill="url(#paint74_linear_1_26465)"/>
<path d="M211.793 173.929C211.793 174.988 212.652 175.848 213.712 175.848C214.77 175.848 215.63 174.988 215.63 173.929C215.63 172.869 214.77 172.01 213.712 172.01C212.652 172.01 211.793 172.869 211.793 173.929Z" fill="url(#paint75_linear_1_26465)"/>
<path d="M232.943 173.929C232.943 174.988 233.803 175.848 234.862 175.848C235.922 175.848 236.78 174.988 236.78 173.929C236.78 172.869 235.922 172.01 234.862 172.01C233.803 172.01 232.943 172.869 232.943 173.929Z" fill="url(#paint76_linear_1_26465)"/>
<path d="M254.094 173.929C254.094 174.988 254.952 175.848 256.012 175.848C257.071 175.848 257.931 174.988 257.931 173.929C257.931 172.869 257.071 172.01 256.012 172.01C254.952 172.01 254.094 172.869 254.094 173.929Z" fill="url(#paint77_linear_1_26465)"/>
<defs>
<linearGradient id="paint0_linear_1_26465" x1="66.4116" y1="151.654" x2="66.4116" y2="409.289" gradientUnits="userSpaceOnUse">
<stop stop-color="#00B19B"/>
<stop offset="0.44" stop-color="#00A4B5"/>
<stop offset="1" stop-color="#0086F0"/>
</linearGradient>
<linearGradient id="paint1_linear_1_26465" x1="87.562" y1="151.654" x2="87.562" y2="409.289" gradientUnits="userSpaceOnUse">
<stop stop-color="#00B19B"/>
<stop offset="0.44" stop-color="#00A4B5"/>
<stop offset="1" stop-color="#0086F0"/>
</linearGradient>
<linearGradient id="paint2_linear_1_26465" x1="108.71" y1="151.654" x2="108.71" y2="409.289" gradientUnits="userSpaceOnUse">
<stop stop-color="#00B19B"/>
<stop offset="0.44" stop-color="#00A4B5"/>
<stop offset="1" stop-color="#0086F0"/>
</linearGradient>
<linearGradient id="paint3_linear_1_26465" x1="129.861" y1="151.654" x2="129.861" y2="409.289" gradientUnits="userSpaceOnUse">
<stop stop-color="#00B19B"/>
<stop offset="0.44" stop-color="#00A4B5"/>
<stop offset="1" stop-color="#0086F0"/>
</linearGradient>
<linearGradient id="paint4_linear_1_26465" x1="151.011" y1="151.654" x2="151.011" y2="409.289" gradientUnits="userSpaceOnUse">
<stop stop-color="#00B19B"/>
<stop offset="0.44" stop-color="#00A4B5"/>
<stop offset="1" stop-color="#0086F0"/>
</linearGradient>
<linearGradient id="paint5_linear_1_26465" x1="172.161" y1="151.654" x2="172.161" y2="409.289" gradientUnits="userSpaceOnUse">
<stop stop-color="#00B19B"/>
<stop offset="0.44" stop-color="#00A4B5"/>
<stop offset="1" stop-color="#0086F0"/>
</linearGradient>
<linearGradient id="paint6_linear_1_26465" x1="193.31" y1="151.654" x2="193.31" y2="409.289" gradientUnits="userSpaceOnUse">
<stop stop-color="#00B19B"/>
<stop offset="0.44" stop-color="#00A4B5"/>
<stop offset="1" stop-color="#0086F0"/>
</linearGradient>
<linearGradient id="paint7_linear_1_26465" x1="214.461" y1="151.654" x2="214.461" y2="409.289" gradientUnits="userSpaceOnUse">
<stop stop-color="#00B19B"/>
<stop offset="0.44" stop-color="#00A4B5"/>
<stop offset="1" stop-color="#0086F0"/>
</linearGradient>
<linearGradient id="paint8_linear_1_26465" x1="235.61" y1="151.654" x2="235.61" y2="409.289" gradientUnits="userSpaceOnUse">
<stop stop-color="#00B19B"/>
<stop offset="0.44" stop-color="#00A4B5"/>
<stop offset="1" stop-color="#0086F0"/>
</linearGradient>
<linearGradient id="paint9_linear_1_26465" x1="256.76" y1="151.654" x2="256.76" y2="409.289" gradientUnits="userSpaceOnUse">
<stop stop-color="#00B19B"/>
<stop offset="0.44" stop-color="#00A4B5"/>
<stop offset="1" stop-color="#0086F0"/>
</linearGradient>
<linearGradient id="paint10_linear_1_26465" x1="277.91" y1="151.654" x2="277.91" y2="409.289" gradientUnits="userSpaceOnUse">
<stop stop-color="#00B19B"/>
<stop offset="0.44" stop-color="#00A4B5"/>
<stop offset="1" stop-color="#0086F0"/>
</linearGradient>
<linearGradient id="paint11_linear_1_26465" x1="299.06" y1="151.654" x2="299.06" y2="409.289" gradientUnits="userSpaceOnUse">
<stop stop-color="#00B19B"/>
<stop offset="0.44" stop-color="#00A4B5"/>
<stop offset="1" stop-color="#0086F0"/>
</linearGradient>
<linearGradient id="paint12_linear_1_26465" x1="320.209" y1="151.654" x2="320.209" y2="409.289" gradientUnits="userSpaceOnUse">
<stop stop-color="#00B19B"/>
<stop offset="0.44" stop-color="#00A4B5"/>
<stop offset="1" stop-color="#0086F0"/>
</linearGradient>
<linearGradient id="paint13_linear_1_26465" x1="66.4121" y1="169.675" x2="66.4121" y2="427.31" gradientUnits="userSpaceOnUse">
<stop stop-color="#00B19B"/>
<stop offset="0.44" stop-color="#00A4B5"/>
<stop offset="1" stop-color="#0086F0"/>
</linearGradient>
<linearGradient id="paint14_linear_1_26465" x1="87.5625" y1="169.675" x2="87.5625" y2="427.31" gradientUnits="userSpaceOnUse">
<stop stop-color="#00B19B"/>
<stop offset="0.44" stop-color="#00A4B5"/>
<stop offset="1" stop-color="#0086F0"/>
</linearGradient>
<linearGradient id="paint15_linear_1_26465" x1="108.711" y1="169.675" x2="108.711" y2="427.31" gradientUnits="userSpaceOnUse">
<stop stop-color="#00B19B"/>
<stop offset="0.44" stop-color="#00A4B5"/>
<stop offset="1" stop-color="#0086F0"/>
</linearGradient>
<linearGradient id="paint16_linear_1_26465" x1="129.861" y1="169.675" x2="129.861" y2="427.31" gradientUnits="userSpaceOnUse">
<stop stop-color="#00B19B"/>
<stop offset="0.44" stop-color="#00A4B5"/>
<stop offset="1" stop-color="#0086F0"/>
</linearGradient>
<linearGradient id="paint17_linear_1_26465" x1="151.012" y1="169.675" x2="151.012" y2="427.31" gradientUnits="userSpaceOnUse">
<stop stop-color="#00B19B"/>
<stop offset="0.44" stop-color="#00A4B5"/>
<stop offset="1" stop-color="#0086F0"/>
</linearGradient>
<linearGradient id="paint18_linear_1_26465" x1="172.162" y1="169.675" x2="172.162" y2="427.31" gradientUnits="userSpaceOnUse">
<stop stop-color="#00B19B"/>
<stop offset="0.44" stop-color="#00A4B5"/>
<stop offset="1" stop-color="#0086F0"/>
</linearGradient>
<linearGradient id="paint19_linear_1_26465" x1="193.31" y1="169.675" x2="193.31" y2="427.31" gradientUnits="userSpaceOnUse">
<stop stop-color="#00B19B"/>
<stop offset="0.44" stop-color="#00A4B5"/>
<stop offset="1" stop-color="#0086F0"/>
</linearGradient>
<linearGradient id="paint20_linear_1_26465" x1="214.461" y1="169.675" x2="214.461" y2="427.31" gradientUnits="userSpaceOnUse">
<stop stop-color="#00B19B"/>
<stop offset="0.44" stop-color="#00A4B5"/>
<stop offset="1" stop-color="#0086F0"/>
</linearGradient>
<linearGradient id="paint21_linear_1_26465" x1="235.611" y1="169.675" x2="235.611" y2="427.31" gradientUnits="userSpaceOnUse">
<stop stop-color="#00B19B"/>
<stop offset="0.44" stop-color="#00A4B5"/>
<stop offset="1" stop-color="#0086F0"/>
</linearGradient>
<linearGradient id="paint22_linear_1_26465" x1="256.761" y1="169.675" x2="256.761" y2="427.31" gradientUnits="userSpaceOnUse">
<stop stop-color="#00B19B"/>
<stop offset="0.44" stop-color="#00A4B5"/>
<stop offset="1" stop-color="#0086F0"/>
</linearGradient>
<linearGradient id="paint23_linear_1_26465" x1="277.91" y1="169.675" x2="277.91" y2="427.31" gradientUnits="userSpaceOnUse">
<stop stop-color="#00B19B"/>
<stop offset="0.44" stop-color="#00A4B5"/>
<stop offset="1" stop-color="#0086F0"/>
</linearGradient>
<linearGradient id="paint24_linear_1_26465" x1="299.06" y1="169.675" x2="299.06" y2="427.31" gradientUnits="userSpaceOnUse">
<stop stop-color="#00B19B"/>
<stop offset="0.44" stop-color="#00A4B5"/>
<stop offset="1" stop-color="#0086F0"/>
</linearGradient>
<linearGradient id="paint25_linear_1_26465" x1="320.211" y1="169.675" x2="320.211" y2="427.31" gradientUnits="userSpaceOnUse">
<stop stop-color="#00B19B"/>
<stop offset="0.44" stop-color="#00A4B5"/>
<stop offset="1" stop-color="#0086F0"/>
</linearGradient>
<linearGradient id="paint26_linear_1_26465" x1="66.4115" y1="187.695" x2="66.4115" y2="445.331" gradientUnits="userSpaceOnUse">
<stop stop-color="#00B19B"/>
<stop offset="0.44" stop-color="#00A4B5"/>
<stop offset="1" stop-color="#0086F0"/>
</linearGradient>
<linearGradient id="paint27_linear_1_26465" x1="87.562" y1="187.695" x2="87.562" y2="445.331" gradientUnits="userSpaceOnUse">
<stop stop-color="#00B19B"/>
<stop offset="0.44" stop-color="#00A4B5"/>
<stop offset="1" stop-color="#0086F0"/>
</linearGradient>
<linearGradient id="paint28_linear_1_26465" x1="108.71" y1="187.695" x2="108.71" y2="445.331" gradientUnits="userSpaceOnUse">
<stop stop-color="#00B19B"/>
<stop offset="0.44" stop-color="#00A4B5"/>
<stop offset="1" stop-color="#0086F0"/>
</linearGradient>
<linearGradient id="paint29_linear_1_26465" x1="129.861" y1="187.695" x2="129.861" y2="445.331" gradientUnits="userSpaceOnUse">
<stop stop-color="#00B19B"/>
<stop offset="0.44" stop-color="#00A4B5"/>
<stop offset="1" stop-color="#0086F0"/>
</linearGradient>
<linearGradient id="paint30_linear_1_26465" x1="151.011" y1="187.695" x2="151.011" y2="445.331" gradientUnits="userSpaceOnUse">
<stop stop-color="#00B19B"/>
<stop offset="0.44" stop-color="#00A4B5"/>
<stop offset="1" stop-color="#0086F0"/>
</linearGradient>
<linearGradient id="paint31_linear_1_26465" x1="172.161" y1="187.695" x2="172.161" y2="445.331" gradientUnits="userSpaceOnUse">
<stop stop-color="#00B19B"/>
<stop offset="0.44" stop-color="#00A4B5"/>
<stop offset="1" stop-color="#0086F0"/>
</linearGradient>
<linearGradient id="paint32_linear_1_26465" x1="193.31" y1="187.695" x2="193.31" y2="445.331" gradientUnits="userSpaceOnUse">
<stop stop-color="#00B19B"/>
<stop offset="0.44" stop-color="#00A4B5"/>
<stop offset="1" stop-color="#0086F0"/>
</linearGradient>
<linearGradient id="paint33_linear_1_26465" x1="214.461" y1="187.695" x2="214.461" y2="445.331" gradientUnits="userSpaceOnUse">
<stop stop-color="#00B19B"/>
<stop offset="0.44" stop-color="#00A4B5"/>
<stop offset="1" stop-color="#0086F0"/>
</linearGradient>
<linearGradient id="paint34_linear_1_26465" x1="235.61" y1="187.695" x2="235.61" y2="445.331" gradientUnits="userSpaceOnUse">
<stop stop-color="#00B19B"/>
<stop offset="0.44" stop-color="#00A4B5"/>
<stop offset="1" stop-color="#0086F0"/>
</linearGradient>
<linearGradient id="paint35_linear_1_26465" x1="256.76" y1="187.695" x2="256.76" y2="445.331" gradientUnits="userSpaceOnUse">
<stop stop-color="#00B19B"/>
<stop offset="0.44" stop-color="#00A4B5"/>
<stop offset="1" stop-color="#0086F0"/>
</linearGradient>
<linearGradient id="paint36_linear_1_26465" x1="277.91" y1="187.695" x2="277.91" y2="445.331" gradientUnits="userSpaceOnUse">
<stop stop-color="#00B19B"/>
<stop offset="0.44" stop-color="#00A4B5"/>
<stop offset="1" stop-color="#0086F0"/>
</linearGradient>
<linearGradient id="paint37_linear_1_26465" x1="299.06" y1="187.695" x2="299.06" y2="445.331" gradientUnits="userSpaceOnUse">
<stop stop-color="#00B19B"/>
<stop offset="0.44" stop-color="#00A4B5"/>
<stop offset="1" stop-color="#0086F0"/>
</linearGradient>
<linearGradient id="paint38_linear_1_26465" x1="320.209" y1="187.695" x2="320.209" y2="445.331" gradientUnits="userSpaceOnUse">
<stop stop-color="#00B19B"/>
<stop offset="0.44" stop-color="#00A4B5"/>
<stop offset="1" stop-color="#0086F0"/>
</linearGradient>
<linearGradient id="paint39_linear_1_26465" x1="66.411" y1="205.716" x2="66.411" y2="463.351" gradientUnits="userSpaceOnUse">
<stop stop-color="#00B19B"/>
<stop offset="0.44" stop-color="#00A4B5"/>
<stop offset="1" stop-color="#0086F0"/>
</linearGradient>
<linearGradient id="paint40_linear_1_26465" x1="87.5614" y1="205.716" x2="87.5614" y2="463.351" gradientUnits="userSpaceOnUse">
<stop stop-color="#00B19B"/>
<stop offset="0.44" stop-color="#00A4B5"/>
<stop offset="1" stop-color="#0086F0"/>
</linearGradient>
<linearGradient id="paint41_linear_1_26465" x1="108.71" y1="205.716" x2="108.71" y2="463.351" gradientUnits="userSpaceOnUse">
<stop stop-color="#00B19B"/>
<stop offset="0.44" stop-color="#00A4B5"/>
<stop offset="1" stop-color="#0086F0"/>
</linearGradient>
<linearGradient id="paint42_linear_1_26465" x1="129.86" y1="205.716" x2="129.86" y2="463.351" gradientUnits="userSpaceOnUse">
<stop stop-color="#00B19B"/>
<stop offset="0.44" stop-color="#00A4B5"/>
<stop offset="1" stop-color="#0086F0"/>
</linearGradient>
<linearGradient id="paint43_linear_1_26465" x1="151.011" y1="205.716" x2="151.011" y2="463.351" gradientUnits="userSpaceOnUse">
<stop stop-color="#00B19B"/>
<stop offset="0.44" stop-color="#00A4B5"/>
<stop offset="1" stop-color="#0086F0"/>
</linearGradient>
<linearGradient id="paint44_linear_1_26465" x1="172.161" y1="205.716" x2="172.161" y2="463.351" gradientUnits="userSpaceOnUse">
<stop stop-color="#00B19B"/>
<stop offset="0.44" stop-color="#00A4B5"/>
<stop offset="1" stop-color="#0086F0"/>
</linearGradient>
<linearGradient id="paint45_linear_1_26465" x1="193.309" y1="205.716" x2="193.309" y2="463.351" gradientUnits="userSpaceOnUse">
<stop stop-color="#00B19B"/>
<stop offset="0.44" stop-color="#00A4B5"/>
<stop offset="1" stop-color="#0086F0"/>
</linearGradient>
<linearGradient id="paint46_linear_1_26465" x1="214.459" y1="205.716" x2="214.459" y2="463.351" gradientUnits="userSpaceOnUse">
<stop stop-color="#00B19B"/>
<stop offset="0.44" stop-color="#00A4B5"/>
<stop offset="1" stop-color="#0086F0"/>
</linearGradient>
<linearGradient id="paint47_linear_1_26465" x1="235.61" y1="205.716" x2="235.61" y2="463.351" gradientUnits="userSpaceOnUse">
<stop stop-color="#00B19B"/>
<stop offset="0.44" stop-color="#00A4B5"/>
<stop offset="1" stop-color="#0086F0"/>
</linearGradient>
<linearGradient id="paint48_linear_1_26465" x1="256.76" y1="205.716" x2="256.76" y2="463.351" gradientUnits="userSpaceOnUse">
<stop stop-color="#00B19B"/>
<stop offset="0.44" stop-color="#00A4B5"/>
<stop offset="1" stop-color="#0086F0"/>
</linearGradient>
<linearGradient id="paint49_linear_1_26465" x1="277.909" y1="205.716" x2="277.909" y2="463.351" gradientUnits="userSpaceOnUse">
<stop stop-color="#00B19B"/>
<stop offset="0.44" stop-color="#00A4B5"/>
<stop offset="1" stop-color="#0086F0"/>
</linearGradient>
<linearGradient id="paint50_linear_1_26465" x1="299.059" y1="205.716" x2="299.059" y2="463.351" gradientUnits="userSpaceOnUse">
<stop stop-color="#00B19B"/>
<stop offset="0.44" stop-color="#00A4B5"/>
<stop offset="1" stop-color="#0086F0"/>
</linearGradient>
<linearGradient id="paint51_linear_1_26465" x1="320.209" y1="205.716" x2="320.209" y2="463.351" gradientUnits="userSpaceOnUse">
<stop stop-color="#00B19B"/>
<stop offset="0.44" stop-color="#00A4B5"/>
<stop offset="1" stop-color="#0086F0"/>
</linearGradient>
<linearGradient id="paint52_linear_1_26465" x1="66.4116" y1="223.736" x2="66.4116" y2="481.371" gradientUnits="userSpaceOnUse">
<stop stop-color="#00B19B"/>
<stop offset="0.44" stop-color="#00A4B5"/>
<stop offset="1" stop-color="#0086F0"/>
</linearGradient>
<linearGradient id="paint53_linear_1_26465" x1="87.562" y1="223.736" x2="87.562" y2="481.371" gradientUnits="userSpaceOnUse">
<stop stop-color="#00B19B"/>
<stop offset="0.44" stop-color="#00A4B5"/>
<stop offset="1" stop-color="#0086F0"/>
</linearGradient>
<linearGradient id="paint54_linear_1_26465" x1="108.71" y1="223.736" x2="108.71" y2="481.371" gradientUnits="userSpaceOnUse">
<stop stop-color="#00B19B"/>
<stop offset="0.44" stop-color="#00A4B5"/>
<stop offset="1" stop-color="#0086F0"/>
</linearGradient>
<linearGradient id="paint55_linear_1_26465" x1="129.861" y1="223.736" x2="129.861" y2="481.371" gradientUnits="userSpaceOnUse">
<stop stop-color="#00B19B"/>
<stop offset="0.44" stop-color="#00A4B5"/>
<stop offset="1" stop-color="#0086F0"/>
</linearGradient>
<linearGradient id="paint56_linear_1_26465" x1="151.011" y1="223.736" x2="151.011" y2="481.371" gradientUnits="userSpaceOnUse">
<stop stop-color="#00B19B"/>
<stop offset="0.44" stop-color="#00A4B5"/>
<stop offset="1" stop-color="#0086F0"/>
</linearGradient>
<linearGradient id="paint57_linear_1_26465" x1="172.161" y1="223.736" x2="172.161" y2="481.371" gradientUnits="userSpaceOnUse">
<stop stop-color="#00B19B"/>
<stop offset="0.44" stop-color="#00A4B5"/>
<stop offset="1" stop-color="#0086F0"/>
</linearGradient>
<linearGradient id="paint58_linear_1_26465" x1="193.31" y1="223.736" x2="193.31" y2="481.371" gradientUnits="userSpaceOnUse">
<stop stop-color="#00B19B"/>
<stop offset="0.44" stop-color="#00A4B5"/>
<stop offset="1" stop-color="#0086F0"/>
</linearGradient>
<linearGradient id="paint59_linear_1_26465" x1="214.461" y1="223.736" x2="214.461" y2="481.371" gradientUnits="userSpaceOnUse">
<stop stop-color="#00B19B"/>
<stop offset="0.44" stop-color="#00A4B5"/>
<stop offset="1" stop-color="#0086F0"/>
</linearGradient>
<linearGradient id="paint60_linear_1_26465" x1="235.61" y1="223.736" x2="235.61" y2="481.371" gradientUnits="userSpaceOnUse">
<stop stop-color="#00B19B"/>
<stop offset="0.44" stop-color="#00A4B5"/>
<stop offset="1" stop-color="#0086F0"/>
</linearGradient>
<linearGradient id="paint61_linear_1_26465" x1="256.76" y1="223.736" x2="256.76" y2="481.371" gradientUnits="userSpaceOnUse">
<stop stop-color="#00B19B"/>
<stop offset="0.44" stop-color="#00A4B5"/>
<stop offset="1" stop-color="#0086F0"/>
</linearGradient>
<linearGradient id="paint62_linear_1_26465" x1="277.91" y1="223.736" x2="277.91" y2="481.371" gradientUnits="userSpaceOnUse">
<stop stop-color="#00B19B"/>
<stop offset="0.44" stop-color="#00A4B5"/>
<stop offset="1" stop-color="#0086F0"/>
</linearGradient>
<linearGradient id="paint63_linear_1_26465" x1="299.06" y1="223.736" x2="299.06" y2="481.371" gradientUnits="userSpaceOnUse">
<stop stop-color="#00B19B"/>
<stop offset="0.44" stop-color="#00A4B5"/>
<stop offset="1" stop-color="#0086F0"/>
</linearGradient>
<linearGradient id="paint64_linear_1_26465" x1="320.209" y1="223.736" x2="320.209" y2="481.371" gradientUnits="userSpaceOnUse">
<stop stop-color="#00B19B"/>
<stop offset="0.44" stop-color="#00A4B5"/>
<stop offset="1" stop-color="#0086F0"/>
</linearGradient>
<linearGradient id="paint65_linear_1_26465" x1="66.4116" y1="241.757" x2="66.4116" y2="499.393" gradientUnits="userSpaceOnUse">
<stop stop-color="#00B19B"/>
<stop offset="0.44" stop-color="#00A4B5"/>
<stop offset="1" stop-color="#0086F0"/>
</linearGradient>
<linearGradient id="paint66_linear_1_26465" x1="87.562" y1="241.757" x2="87.562" y2="499.393" gradientUnits="userSpaceOnUse">
<stop stop-color="#00B19B"/>
<stop offset="0.44" stop-color="#00A4B5"/>
<stop offset="1" stop-color="#0086F0"/>
</linearGradient>
<linearGradient id="paint67_linear_1_26465" x1="108.71" y1="241.757" x2="108.71" y2="499.393" gradientUnits="userSpaceOnUse">
<stop stop-color="#00B19B"/>
<stop offset="0.44" stop-color="#00A4B5"/>
<stop offset="1" stop-color="#0086F0"/>
</linearGradient>
<linearGradient id="paint68_linear_1_26465" x1="129.861" y1="241.757" x2="129.861" y2="499.393" gradientUnits="userSpaceOnUse">
<stop stop-color="#00B19B"/>
<stop offset="0.44" stop-color="#00A4B5"/>
<stop offset="1" stop-color="#0086F0"/>
</linearGradient>
<linearGradient id="paint69_linear_1_26465" x1="151.011" y1="241.757" x2="151.011" y2="499.393" gradientUnits="userSpaceOnUse">
<stop stop-color="#00B19B"/>
<stop offset="0.44" stop-color="#00A4B5"/>
<stop offset="1" stop-color="#0086F0"/>
</linearGradient>
<linearGradient id="paint70_linear_1_26465" x1="172.161" y1="241.757" x2="172.161" y2="499.393" gradientUnits="userSpaceOnUse">
<stop stop-color="#00B19B"/>
<stop offset="0.44" stop-color="#00A4B5"/>
<stop offset="1" stop-color="#0086F0"/>
</linearGradient>
<linearGradient id="paint71_linear_1_26465" x1="193.31" y1="241.757" x2="193.31" y2="499.393" gradientUnits="userSpaceOnUse">
<stop stop-color="#00B19B"/>
<stop offset="0.44" stop-color="#00A4B5"/>
<stop offset="1" stop-color="#0086F0"/>
</linearGradient>
<linearGradient id="paint72_linear_1_26465" x1="214.461" y1="241.757" x2="214.461" y2="499.393" gradientUnits="userSpaceOnUse">
<stop stop-color="#00B19B"/>
<stop offset="0.44" stop-color="#00A4B5"/>
<stop offset="1" stop-color="#0086F0"/>
</linearGradient>
<linearGradient id="paint73_linear_1_26465" x1="235.61" y1="241.757" x2="235.61" y2="499.393" gradientUnits="userSpaceOnUse">
<stop stop-color="#00B19B"/>
<stop offset="0.44" stop-color="#00A4B5"/>
<stop offset="1" stop-color="#0086F0"/>
</linearGradient>
<linearGradient id="paint74_linear_1_26465" x1="256.76" y1="241.757" x2="256.76" y2="499.393" gradientUnits="userSpaceOnUse">
<stop stop-color="#00B19B"/>
<stop offset="0.44" stop-color="#00A4B5"/>
<stop offset="1" stop-color="#0086F0"/>
</linearGradient>
<linearGradient id="paint75_linear_1_26465" x1="277.91" y1="241.757" x2="277.91" y2="499.393" gradientUnits="userSpaceOnUse">
<stop stop-color="#00B19B"/>
<stop offset="0.44" stop-color="#00A4B5"/>
<stop offset="1" stop-color="#0086F0"/>
</linearGradient>
<linearGradient id="paint76_linear_1_26465" x1="299.06" y1="241.757" x2="299.06" y2="499.393" gradientUnits="userSpaceOnUse">
<stop stop-color="#00B19B"/>
<stop offset="0.44" stop-color="#00A4B5"/>
<stop offset="1" stop-color="#0086F0"/>
</linearGradient>
<linearGradient id="paint77_linear_1_26465" x1="320.209" y1="241.757" x2="320.209" y2="499.393" gradientUnits="userSpaceOnUse">
<stop stop-color="#00B19B"/>
<stop offset="0.44" stop-color="#00A4B5"/>
<stop offset="1" stop-color="#0086F0"/>
</linearGradient>
</defs>
</svg>
