<svg width="60" height="60" viewBox="0 0 60 60" fill="none" xmlns="http://www.w3.org/2000/svg">
<g clip-path="url(#clip0_1_26460)">
<path d="M32.6431 3.89143C31.5938 3.77022 30.8391 2.81671 30.9613 1.76113C31.0825 0.711881 32.0425 -0.0428675 33.0916 0.0793938C34.1461 0.2006 34.8945 1.15412 34.7734 2.2097C34.6586 3.18771 33.8326 3.90417 32.8737 3.90417C32.7972 3.90417 32.7206 3.89776 32.6431 3.89143ZM17.7129 4.3262C17.3354 3.33439 17.8277 2.22779 18.8195 1.85037C19.8113 1.47304 20.9179 1.96623 21.3016 2.95698C21.679 3.94879 21.1804 5.0554 20.195 5.43281C19.9644 5.52206 19.7347 5.5614 19.504 5.5614C18.7365 5.5614 18.0073 5.09369 17.7129 4.3262ZM44.3884 8.29872C43.5114 7.70444 43.2882 6.50753 43.8888 5.63158C44.4904 4.76098 45.6863 4.53771 46.5569 5.13937C47.4329 5.74005 47.6572 6.92949 47.0556 7.8065C46.6846 8.34975 46.0828 8.63784 45.4684 8.63784C45.0985 8.63784 44.7201 8.52937 44.3884 8.29872ZM7.1772 12.7645C6.38416 12.0608 6.30765 10.8511 7.01137 10.058C7.70876 9.25864 8.92376 9.18846 9.7168 9.88578C10.5098 10.5896 10.5863 11.7982 9.89002 12.5976C9.50522 13.026 8.9812 13.2439 8.44331 13.2439C7.99572 13.2439 7.5418 13.0834 7.1772 12.7645ZM52.7428 17.664C52.2495 16.7295 52.6077 15.5719 53.5421 15.0734C54.4754 14.5748 55.6405 14.9331 56.1327 15.8664C56.6312 16.8072 56.273 17.9648 55.3397 18.4634C55.0516 18.6175 54.7444 18.6877 54.4436 18.6877C53.7526 18.6877 53.0882 18.3167 52.7428 17.664ZM1.75896 25.1222C0.728935 24.8734 0.0963724 23.837 0.345116 22.8069C0.59499 21.7768 1.63775 21.1443 2.66785 21.393C3.6969 21.6428 4.32404 22.6857 4.07424 23.7158C3.86378 24.5917 3.07715 25.1806 2.21288 25.1806C2.05979 25.1806 1.91205 25.1615 1.75896 25.1222ZM55.7872 29.9398V29.8377C55.7808 28.7757 56.6376 27.9116 57.6996 27.9116C58.7616 27.9051 59.6195 28.763 59.6258 29.8186V29.9398C59.6258 31.0017 58.7679 31.8585 57.7059 31.8585C56.644 31.8585 55.7872 31.0017 55.7872 29.9398ZM0.370669 37.1886C0.121925 36.1574 0.748006 35.1146 1.77811 34.8648C2.8018 34.6096 3.84464 35.2358 4.09971 36.2659C4.35592 37.2896 3.72343 38.3323 2.69974 38.5885C2.54559 38.6279 2.38617 38.646 2.23203 38.646C1.37522 38.646 0.588583 38.0571 0.370669 37.1886ZM53.5995 44.7169C52.6587 44.2172 52.3005 43.0596 52.7937 42.1199C53.2859 41.1855 54.4436 40.822 55.3843 41.313C56.3251 41.8074 56.6834 42.9714 56.1901 43.9037C55.8446 44.5628 55.1792 44.9338 54.4882 44.9338C54.1884 44.9338 53.8812 44.8636 53.5995 44.7169ZM7.08788 49.9108C6.37783 49.1178 6.45434 47.9017 7.24097 47.198C8.03401 46.4953 9.25014 46.5655 9.95386 47.3585C10.6576 48.1515 10.5863 49.3665 9.79331 50.0703C9.42871 50.3966 8.97479 50.5572 8.52087 50.5572C7.98939 50.5572 7.46529 50.3393 7.08788 49.9108ZM43.9845 54.1906C43.3838 53.32 43.6007 52.124 44.4713 51.516C45.3409 50.9154 46.5378 51.1322 47.1385 52.0028C47.7465 52.8724 47.5286 54.0683 46.659 54.6764C46.3199 54.907 45.9426 55.0155 45.5651 55.0155C44.9571 55.0155 44.3565 54.7274 43.9845 54.1906ZM18.9279 58.0738C17.9372 57.6954 17.4375 56.5888 17.8149 55.598C18.1859 54.6062 19.2925 54.1077 20.2843 54.4787C21.2761 54.8549 21.7747 55.9626 21.4037 56.9534C21.1103 57.7209 20.38 58.195 19.6061 58.195C19.3828 58.195 19.1522 58.1567 18.9279 58.0738ZM31.0761 58.1121C30.9486 57.0629 31.6969 56.103 32.7462 55.9754C33.8007 55.8468 34.7542 56.5951 34.8817 57.6507C35.0104 58.6999 34.262 59.6598 33.2128 59.7874C33.1289 59.7938 33.0523 59.8001 32.9758 59.8001C32.0223 59.8001 31.1909 59.0837 31.0761 58.1121Z" fill="url(#paint0_linear_1_26460)"/>
<path d="M32.0863 8.62593C31.222 8.53027 30.6087 7.75005 30.7043 6.88578C30.8064 6.02264 31.5867 5.40824 32.4509 5.51128C33.3077 5.61334 33.9285 6.39357 33.8264 7.25037C33.7297 8.05088 33.0515 8.63874 32.2648 8.63874C32.2075 8.63874 32.1437 8.63874 32.0863 8.62593ZM19.8678 8.98419C19.5543 8.17841 19.9636 7.26952 20.7693 6.95595C21.5825 6.64985 22.4903 7.05274 22.7976 7.86485C23.1111 8.67063 22.7018 9.57952 21.8961 9.89309C21.7101 9.96326 21.5177 9.99515 21.3327 9.99515C20.6992 9.99515 20.1049 9.6114 19.8678 8.98419ZM41.6875 12.2402C40.971 11.748 40.7924 10.769 41.2847 10.0526C41.7768 9.33605 42.7495 9.15748 43.466 9.6497C44.1825 10.1355 44.361 11.1145 43.8752 11.831C43.568 12.2721 43.0758 12.5156 42.5762 12.5156C42.2701 12.5156 41.9628 12.4263 41.6875 12.2402ZM11.2446 15.8865C10.5919 15.3177 10.5345 14.3195 11.1107 13.6732C11.6794 13.0205 12.6712 12.9567 13.3239 13.5329C13.9766 14.108 14.034 15.0997 13.4642 15.7525C13.1506 16.1044 12.7158 16.2829 12.2811 16.2829C11.9164 16.2829 11.5455 16.149 11.2446 15.8865ZM48.526 19.8972C48.1231 19.1297 48.4112 18.1826 49.1787 17.7733C49.9461 17.3704 50.8923 17.6585 51.3025 18.426C51.7118 19.1935 51.4173 20.1471 50.6499 20.5499C50.4192 20.6711 50.1641 20.7359 49.9143 20.7359C49.3572 20.7359 48.8141 20.4287 48.526 19.8972ZM6.8118 26.0001C5.96773 25.796 5.44898 24.9445 5.66057 24.1004H5.65416C5.86461 23.2628 6.70974 22.744 7.55381 22.9492C8.3978 23.1532 8.91021 24.0037 8.71145 24.8488C8.5328 25.5653 7.89285 26.0447 7.1828 26.0447C7.0616 26.0447 6.933 26.032 6.8118 26.0001ZM51.0145 29.9407H51.0209V29.9151C51.0209 29.896 51.0145 29.8769 51.0145 29.8567C51.0145 28.9872 51.7118 28.2834 52.5814 28.2771C53.4509 28.2771 54.1547 28.9744 54.1547 29.845V29.9407C54.1547 30.8102 53.4584 31.514 52.5878 31.514C51.7183 31.514 51.0145 30.8102 51.0145 29.9407ZM5.67964 35.8702C5.46813 35.0262 5.98687 34.1747 6.82454 33.9706C7.66861 33.7591 8.52006 34.2714 8.73052 35.1155C8.93569 35.9531 8.42441 36.811 7.57928 37.0162C7.45175 37.0481 7.33054 37.0608 7.20195 37.0608C6.49823 37.0608 5.85828 36.5867 5.67964 35.8702ZM49.2297 42.0305C48.4622 41.6212 48.1614 40.6741 48.5706 39.9066C48.9735 39.139 49.9207 38.8456 50.6882 39.2485C51.4556 39.6514 51.7501 40.6039 51.3472 41.365C51.0655 41.904 50.5223 42.2112 49.9589 42.2112C49.7091 42.2112 49.4603 42.1527 49.2297 42.0305ZM11.1681 46.2783C10.5919 45.632 10.6504 44.6412 11.302 44.0651C11.9484 43.4889 12.9401 43.5463 13.5163 44.1927C14.0914 44.8389 14.034 45.8308 13.3877 46.4123C13.0868 46.6748 12.7158 46.8088 12.3448 46.8088C11.9101 46.8088 11.4816 46.6302 11.1681 46.2783ZM41.3612 49.7842C40.869 49.0677 41.0476 48.0887 41.7577 47.5954C42.4742 47.1033 43.4468 47.2829 43.9454 47.9929C44.4387 48.702 44.259 49.6874 43.5488 50.1807C43.2746 50.3657 42.961 50.455 42.6538 50.455C42.1553 50.455 41.6684 50.219 41.3612 49.7842ZM20.8596 52.9562C20.0475 52.6501 19.6372 51.7412 19.9507 50.9354C20.2516 50.1222 21.1594 49.713 21.9727 50.0201C22.7848 50.3274 23.1941 51.2363 22.8868 52.042C22.6445 52.6756 22.0492 53.0583 21.4156 53.0583C21.2306 53.0583 21.0446 53.0264 20.8596 52.9562ZM30.8 52.9882C30.6916 52.1314 31.306 51.3447 32.1692 51.2427C33.026 51.1395 33.8126 51.7539 33.9157 52.6107C34.0178 53.475 33.4033 54.2552 32.5466 54.3573C32.4828 54.37 32.419 54.37 32.3542 54.37C31.5739 54.37 30.8957 53.7886 30.8 52.9882Z" fill="url(#paint1_linear_1_26460)"/>
<path d="M31.607 12.6736C30.9096 12.5907 30.4111 11.9572 30.4876 11.2598C30.5705 10.5625 31.2041 10.0639 31.9014 10.1479C32.5988 10.2234 33.0974 10.8569 33.0145 11.5606C32.9443 12.207 32.3937 12.68 31.7548 12.68C31.7027 12.68 31.658 12.68 31.607 12.6736ZM21.7049 12.9617C21.4551 12.3026 21.7878 11.567 22.4405 11.3172C23.0996 11.0685 23.8352 11.3949 24.085 12.0539C24.3338 12.7066 24.0074 13.4422 23.3494 13.6973C23.2017 13.7548 23.0486 13.7802 22.8944 13.7802C22.3831 13.7802 21.9037 13.4677 21.7049 12.9617ZM39.3862 15.597C38.81 15.2004 38.6634 14.4074 39.0598 13.8259C39.4564 13.2498 40.2494 13.102 40.8255 13.4996C41.407 13.8961 41.5548 14.6891 41.1583 15.2653C40.9085 15.6299 40.512 15.8213 40.1091 15.8213C39.8593 15.8213 39.6105 15.7447 39.3862 15.597ZM14.7261 18.5522C14.1947 18.0855 14.1436 17.2861 14.6113 16.762C15.078 16.2305 15.8774 16.1795 16.4089 16.6461C16.933 17.1128 16.984 17.9133 16.5173 18.4437C16.2675 18.7254 15.9157 18.8722 15.5638 18.8722C15.263 18.8722 14.9621 18.7701 14.7261 18.5522ZM44.932 21.8018C44.5993 21.1821 44.8363 20.4146 45.4561 20.0882C46.0769 19.7555 46.8444 19.9915 47.1771 20.6123C47.5035 21.2331 47.2739 22.0006 46.6531 22.3333C46.4606 22.4354 46.2565 22.48 46.0513 22.48C45.5974 22.48 45.1563 22.2377 44.932 21.8018ZM11.131 26.747C10.4464 26.5812 10.0308 25.8902 10.1966 25.212C10.3635 24.5274 11.048 24.1118 11.7327 24.2713C12.4162 24.4445 12.8318 25.1291 12.666 25.8137C12.5257 26.3952 12.0069 26.7853 11.4319 26.7853C11.3351 26.7853 11.233 26.7725 11.131 26.747ZM46.9475 29.9393V29.8691C46.9411 29.1654 47.5098 28.5956 48.2135 28.5956C48.9173 28.5892 49.4871 29.159 49.4934 29.8627C49.4934 29.8755 49.4871 29.8883 49.4871 29.901C49.4871 29.9138 49.4934 29.9265 49.4934 29.9393C49.4934 30.643 48.9173 31.2117 48.2199 31.2117C47.5162 31.2117 46.9475 30.643 46.9475 29.9393ZM10.2157 34.7431C10.0435 34.0585 10.4591 33.3675 11.1438 33.2017C11.8219 33.0348 12.5129 33.4504 12.6852 34.1287C12.852 34.8133 12.4364 35.5042 11.7518 35.6711C11.6486 35.6967 11.5467 35.7094 11.4509 35.7094C10.8748 35.7094 10.3571 35.3257 10.2157 34.7431ZM45.4954 39.733C44.8746 39.4066 44.6312 38.6401 44.9639 38.013C45.2903 37.3911 46.0578 37.1562 46.6786 37.4814C47.2994 37.8078 47.5418 38.5764 47.2154 39.1951C46.9858 39.6309 46.5446 39.8796 46.0832 39.8796C45.8855 39.8796 45.6867 39.8286 45.4954 39.733ZM14.6624 43.174C14.1947 42.6499 14.2393 41.8505 14.7644 41.3827C15.2884 40.9161 16.0953 40.9608 16.562 41.4858C17.0287 42.0099 16.984 42.8157 16.46 43.2834C16.2165 43.4939 15.9157 43.6034 15.6148 43.6034C15.263 43.6034 14.9111 43.462 14.6624 43.174ZM39.1236 46.0143C38.7207 45.4329 38.8675 44.6452 39.4436 44.2423C40.0187 43.8458 40.8128 43.9871 41.2157 44.5623C41.6122 45.1448 41.4708 45.9378 40.8957 46.3343C40.6714 46.4874 40.4226 46.5586 40.1664 46.5586C39.7636 46.5586 39.3671 46.3726 39.1236 46.0143ZM22.5107 48.5858C21.8516 48.3371 21.5263 47.6015 21.7751 46.9488C22.0249 46.2897 22.7541 45.957 23.4132 46.2068C24.0723 46.4555 24.3975 47.1911 24.1552 47.8438C23.9627 48.3562 23.4769 48.6687 22.9657 48.6687C22.8115 48.6687 22.6584 48.6432 22.5107 48.5858ZM30.5642 48.6113C30.4813 47.914 30.9745 47.2815 31.6718 47.1975C32.3681 47.1146 33.0081 47.6067 33.092 48.3105C33.1749 49.0014 32.6753 49.6414 31.9779 49.7243C31.9269 49.7307 31.876 49.7307 31.8249 49.7307C31.1913 49.7307 30.6417 49.2576 30.5642 48.6113Z" fill="url(#paint2_linear_1_26460)"/>
</g>
<defs>
<linearGradient id="paint0_linear_1_26460" x1="0.291044" y1="29.9333" x2="59.6258" y2="29.9333" gradientUnits="userSpaceOnUse">
<stop stop-color="#00B19B"/>
<stop offset="0.44" stop-color="#00A4B5"/>
<stop offset="1" stop-color="#0086F0"/>
</linearGradient>
<linearGradient id="paint1_linear_1_26460" x1="0.290238" y1="29.9342" x2="59.625" y2="29.9342" gradientUnits="userSpaceOnUse">
<stop stop-color="#00B19B"/>
<stop offset="0.44" stop-color="#00A4B5"/>
<stop offset="1" stop-color="#0086F0"/>
</linearGradient>
<linearGradient id="paint2_linear_1_26460" x1="0.291435" y1="29.9328" x2="59.6262" y2="29.9328" gradientUnits="userSpaceOnUse">
<stop stop-color="#00B19B"/>
<stop offset="0.44" stop-color="#00A4B5"/>
<stop offset="1" stop-color="#0086F0"/>
</linearGradient>
<clipPath id="clip0_1_26460">
<rect width="60" height="60" fill="white"/>
</clipPath>
</defs>
</svg>
