<svg width="112" height="112" viewBox="0 0 112 112" fill="none" xmlns="http://www.w3.org/2000/svg">
<path d="M0.126953 36.3897C0.126953 36.8497 0.500002 37.2227 0.959519 37.2227C1.41952 37.2227 1.79263 36.8497 1.79263 36.3897C1.79263 35.9297 1.41952 35.5566 0.959519 35.5566C0.500002 35.5566 0.126953 35.9297 0.126953 36.3897Z" fill="url(#paint0_linear_1_26545)"/>
<path d="M9.30859 36.3897C9.30859 36.8497 9.68164 37.2227 10.1412 37.2227C10.6012 37.2227 10.9742 36.8497 10.9742 36.3897C10.9742 35.9297 10.6012 35.5566 10.1412 35.5566C9.68164 35.5566 9.30859 35.9297 9.30859 36.3897Z" fill="url(#paint1_linear_1_26545)"/>
<path d="M18.4902 36.3897C18.4902 36.8497 18.8633 37.2227 19.3233 37.2227C19.7828 37.2227 20.1559 36.8497 20.1559 36.3897C20.1559 35.9297 19.7828 35.5566 19.3233 35.5566C18.8633 35.5566 18.4902 35.9297 18.4902 36.3897Z" fill="url(#paint2_linear_1_26545)"/>
<path d="M27.6699 36.3897C27.6699 36.8497 28.043 37.2227 28.503 37.2227C28.963 37.2227 29.3356 36.8497 29.3356 36.3897C29.3356 35.9297 28.963 35.5566 28.503 35.5566C28.043 35.5566 27.6699 35.9297 27.6699 36.3897Z" fill="url(#paint3_linear_1_26545)"/>
<path d="M36.8516 36.3897C36.8516 36.8497 37.2246 37.2227 37.6841 37.2227C38.1441 37.2227 38.5172 36.8497 38.5172 36.3897C38.5172 35.9297 38.1441 35.5566 37.6841 35.5566C37.2246 35.5566 36.8516 35.9297 36.8516 36.3897Z" fill="url(#paint4_linear_1_26545)"/>
<path d="M46.0332 36.3897C46.0332 36.8497 46.4062 37.2227 46.8658 37.2227C47.3258 37.2227 47.6988 36.8497 47.6988 36.3897C47.6988 35.9297 47.3258 35.5566 46.8658 35.5566C46.4062 35.5566 46.0332 35.9297 46.0332 36.3897Z" fill="url(#paint5_linear_1_26545)"/>
<path d="M55.2148 36.3897C55.2148 36.8497 55.588 37.2227 56.0479 37.2227C56.5075 37.2227 56.8805 36.8497 56.8805 36.3897C56.8805 35.9297 56.5075 35.5566 56.0479 35.5566C55.588 35.5566 55.2148 35.9297 55.2148 36.3897Z" fill="url(#paint6_linear_1_26545)"/>
<path d="M64.3965 36.3897C64.3965 36.8497 64.7695 37.2227 65.2295 37.2227C65.6895 37.2227 66.0622 36.8497 66.0622 36.3897C66.0622 35.9297 65.6895 35.5566 65.2295 35.5566C64.7695 35.5566 64.3965 35.9297 64.3965 36.3897Z" fill="url(#paint7_linear_1_26545)"/>
<path d="M73.5779 36.3897C73.5779 36.8497 73.9504 37.2227 74.4104 37.2227C74.8704 37.2227 75.2435 36.8497 75.2435 36.3897C75.2435 35.9297 74.8704 35.5566 74.4104 35.5566C73.9504 35.5566 73.5779 35.9297 73.5779 36.3897Z" fill="url(#paint8_linear_1_26545)"/>
<path d="M82.7598 36.3897C82.7598 36.8497 83.1329 37.2227 83.5924 37.2227C84.0524 37.2227 84.4254 36.8497 84.4254 36.3897C84.4254 35.9297 84.0524 35.5566 83.5924 35.5566C83.1329 35.5566 82.7598 35.9297 82.7598 36.3897Z" fill="url(#paint9_linear_1_26545)"/>
<path d="M91.9395 36.3897C91.9395 36.8497 92.3125 37.2227 92.7725 37.2227C93.232 37.2227 93.6051 36.8497 93.6051 36.3897C93.6051 35.9297 93.232 35.5566 92.7725 35.5566C92.3125 35.5566 91.9395 35.9297 91.9395 36.3897Z" fill="url(#paint10_linear_1_26545)"/>
<path d="M101.121 36.3897C101.121 36.8497 101.494 37.2227 101.954 37.2227C102.414 37.2227 102.787 36.8497 102.787 36.3897C102.787 35.9297 102.414 35.5566 101.954 35.5566C101.494 35.5566 101.121 35.9297 101.121 36.3897Z" fill="url(#paint11_linear_1_26545)"/>
<path d="M110.303 36.3897C110.303 36.8497 110.675 37.2227 111.135 37.2227C111.595 37.2227 111.968 36.8497 111.968 36.3897C111.968 35.9297 111.595 35.5566 111.135 35.5566C110.675 35.5566 110.303 35.9297 110.303 36.3897Z" fill="url(#paint12_linear_1_26545)"/>
<path d="M0.126953 44.2115C0.126953 44.6715 0.500002 45.0446 0.959519 45.0446C1.41952 45.0446 1.79263 44.6715 1.79263 44.2115C1.79263 43.752 1.41952 43.3789 0.959519 43.3789C0.500002 43.3789 0.126953 43.752 0.126953 44.2115Z" fill="url(#paint13_linear_1_26545)"/>
<path d="M9.30859 44.2115C9.30859 44.6715 9.68164 45.0446 10.1412 45.0446C10.6012 45.0446 10.9742 44.6715 10.9742 44.2115C10.9742 43.752 10.6012 43.3789 10.1412 43.3789C9.68164 43.3789 9.30859 43.752 9.30859 44.2115Z" fill="url(#paint14_linear_1_26545)"/>
<path d="M18.4902 44.2115C18.4902 44.6715 18.8633 45.0446 19.3233 45.0446C19.7828 45.0446 20.1559 44.6715 20.1559 44.2115C20.1559 43.752 19.7828 43.3789 19.3233 43.3789C18.8633 43.3789 18.4902 43.752 18.4902 44.2115Z" fill="url(#paint15_linear_1_26545)"/>
<path d="M27.6699 44.2115C27.6699 44.6715 28.043 45.0446 28.503 45.0446C28.963 45.0446 29.3356 44.6715 29.3356 44.2115C29.3356 43.752 28.963 43.3789 28.503 43.3789C28.043 43.3789 27.6699 43.752 27.6699 44.2115Z" fill="url(#paint16_linear_1_26545)"/>
<path d="M36.8516 44.2115C36.8516 44.6715 37.2246 45.0446 37.6841 45.0446C38.1441 45.0446 38.5172 44.6715 38.5172 44.2115C38.5172 43.752 38.1441 43.3789 37.6841 43.3789C37.2246 43.3789 36.8516 43.752 36.8516 44.2115Z" fill="url(#paint17_linear_1_26545)"/>
<path d="M46.0332 44.2115C46.0332 44.6715 46.4062 45.0446 46.8658 45.0446C47.3258 45.0446 47.6988 44.6715 47.6988 44.2115C47.6988 43.752 47.3258 43.3789 46.8658 43.3789C46.4062 43.3789 46.0332 43.752 46.0332 44.2115Z" fill="url(#paint18_linear_1_26545)"/>
<path d="M55.2148 44.2115C55.2148 44.6715 55.588 45.0446 56.0479 45.0446C56.5075 45.0446 56.8805 44.6715 56.8805 44.2115C56.8805 43.752 56.5075 43.3789 56.0479 43.3789C55.588 43.3789 55.2148 43.752 55.2148 44.2115Z" fill="url(#paint19_linear_1_26545)"/>
<path d="M64.3965 44.2115C64.3965 44.6715 64.7695 45.0446 65.2295 45.0446C65.6895 45.0446 66.0622 44.6715 66.0622 44.2115C66.0622 43.752 65.6895 43.3789 65.2295 43.3789C64.7695 43.3789 64.3965 43.752 64.3965 44.2115Z" fill="url(#paint20_linear_1_26545)"/>
<path d="M73.5781 44.2115C73.5781 44.6715 73.9507 45.0446 74.4107 45.0446C74.8707 45.0446 75.2437 44.6715 75.2437 44.2115C75.2437 43.752 74.8707 43.3789 74.4107 43.3789C73.9507 43.3789 73.5781 43.752 73.5781 44.2115Z" fill="url(#paint21_linear_1_26545)"/>
<path d="M82.7598 44.2115C82.7598 44.6715 83.1329 45.0446 83.5924 45.0446C84.0524 45.0446 84.4254 44.6715 84.4254 44.2115C84.4254 43.752 84.0524 43.3789 83.5924 43.3789C83.1329 43.3789 82.7598 43.752 82.7598 44.2115Z" fill="url(#paint22_linear_1_26545)"/>
<path d="M91.9395 44.2115C91.9395 44.6715 92.3125 45.0446 92.7725 45.0446C93.232 45.0446 93.6051 44.6715 93.6051 44.2115C93.6051 43.752 93.232 43.3789 92.7725 43.3789C92.3125 43.3789 91.9395 43.752 91.9395 44.2115Z" fill="url(#paint23_linear_1_26545)"/>
<path d="M101.121 44.2115C101.121 44.6715 101.494 45.0446 101.954 45.0446C102.414 45.0446 102.787 44.6715 102.787 44.2115C102.787 43.752 102.414 43.3789 101.954 43.3789C101.494 43.3789 101.121 43.752 101.121 44.2115Z" fill="url(#paint24_linear_1_26545)"/>
<path d="M110.303 44.2115C110.303 44.6715 110.675 45.0446 111.135 45.0446C111.595 45.0446 111.968 44.6715 111.968 44.2115C111.968 43.752 111.595 43.3789 111.135 43.3789C110.675 43.3789 110.303 43.752 110.303 44.2115Z" fill="url(#paint25_linear_1_26545)"/>
<path d="M0.126953 52.0362C0.126953 52.4962 0.500002 52.8692 0.959519 52.8692C1.41952 52.8692 1.79263 52.4962 1.79263 52.0362C1.79263 51.5762 1.41952 51.2031 0.959519 51.2031C0.500002 51.2031 0.126953 51.5762 0.126953 52.0362Z" fill="url(#paint26_linear_1_26545)"/>
<path d="M9.30859 52.0362C9.30859 52.4962 9.68164 52.8692 10.1412 52.8692C10.6012 52.8692 10.9742 52.4962 10.9742 52.0362C10.9742 51.5762 10.6012 51.2031 10.1412 51.2031C9.68164 51.2031 9.30859 51.5762 9.30859 52.0362Z" fill="url(#paint27_linear_1_26545)"/>
<path d="M18.4902 52.0362C18.4902 52.4962 18.8633 52.8692 19.3233 52.8692C19.7828 52.8692 20.1559 52.4962 20.1559 52.0362C20.1559 51.5762 19.7828 51.2031 19.3233 51.2031C18.8633 51.2031 18.4902 51.5762 18.4902 52.0362Z" fill="url(#paint28_linear_1_26545)"/>
<path d="M27.6699 52.0362C27.6699 52.4962 28.043 52.8692 28.503 52.8692C28.963 52.8692 29.3356 52.4962 29.3356 52.0362C29.3356 51.5762 28.963 51.2031 28.503 51.2031C28.043 51.2031 27.6699 51.5762 27.6699 52.0362Z" fill="url(#paint29_linear_1_26545)"/>
<path d="M36.8516 52.0362C36.8516 52.4962 37.2246 52.8692 37.6841 52.8692C38.1441 52.8692 38.5172 52.4962 38.5172 52.0362C38.5172 51.5762 38.1441 51.2031 37.6841 51.2031C37.2246 51.2031 36.8516 51.5762 36.8516 52.0362Z" fill="url(#paint30_linear_1_26545)"/>
<path d="M46.0332 52.0362C46.0332 52.4962 46.4062 52.8692 46.8658 52.8692C47.3258 52.8692 47.6988 52.4962 47.6988 52.0362C47.6988 51.5762 47.3258 51.2031 46.8658 51.2031C46.4062 51.2031 46.0332 51.5762 46.0332 52.0362Z" fill="url(#paint31_linear_1_26545)"/>
<path d="M55.2148 52.0362C55.2148 52.4962 55.588 52.8692 56.0479 52.8692C56.5075 52.8692 56.8805 52.4962 56.8805 52.0362C56.8805 51.5762 56.5075 51.2031 56.0479 51.2031C55.588 51.2031 55.2148 51.5762 55.2148 52.0362Z" fill="url(#paint32_linear_1_26545)"/>
<path d="M64.3965 52.0362C64.3965 52.4962 64.7695 52.8692 65.2295 52.8692C65.6895 52.8692 66.0622 52.4962 66.0622 52.0362C66.0622 51.5762 65.6895 51.2031 65.2295 51.2031C64.7695 51.2031 64.3965 51.5762 64.3965 52.0362Z" fill="url(#paint33_linear_1_26545)"/>
<path d="M73.5781 52.0362C73.5781 52.4962 73.9507 52.8692 74.4107 52.8692C74.8707 52.8692 75.2437 52.4962 75.2437 52.0362C75.2437 51.5762 74.8707 51.2031 74.4107 51.2031C73.9507 51.2031 73.5781 51.5762 73.5781 52.0362Z" fill="url(#paint34_linear_1_26545)"/>
<path d="M82.7598 52.0362C82.7598 52.4962 83.1329 52.8692 83.5924 52.8692C84.0524 52.8692 84.4254 52.4962 84.4254 52.0362C84.4254 51.5762 84.0524 51.2031 83.5924 51.2031C83.1329 51.2031 82.7598 51.5762 82.7598 52.0362Z" fill="url(#paint35_linear_1_26545)"/>
<path d="M91.9395 52.0362C91.9395 52.4962 92.3125 52.8692 92.7725 52.8692C93.232 52.8692 93.6051 52.4962 93.6051 52.0362C93.6051 51.5762 93.232 51.2031 92.7725 51.2031C92.3125 51.2031 91.9395 51.5762 91.9395 52.0362Z" fill="url(#paint36_linear_1_26545)"/>
<path d="M101.121 52.0362C101.121 52.4962 101.494 52.8692 101.954 52.8692C102.414 52.8692 102.787 52.4962 102.787 52.0362C102.787 51.5762 102.414 51.2031 101.954 51.2031C101.494 51.2031 101.121 51.5762 101.121 52.0362Z" fill="url(#paint37_linear_1_26545)"/>
<path d="M110.303 52.0362C110.303 52.4962 110.675 52.8692 111.135 52.8692C111.595 52.8692 111.968 52.4962 111.968 52.0362C111.968 51.5762 111.595 51.2031 111.135 51.2031C110.675 51.2031 110.303 51.5762 110.303 52.0362Z" fill="url(#paint38_linear_1_26545)"/>
<path d="M0.126953 59.8584C0.126953 60.318 0.500002 60.691 0.959519 60.691C1.41952 60.691 1.79263 60.318 1.79263 59.8584C1.79263 59.3984 1.41952 59.0254 0.959519 59.0254C0.500002 59.0254 0.126953 59.3984 0.126953 59.8584Z" fill="url(#paint39_linear_1_26545)"/>
<path d="M9.30859 59.8584C9.30859 60.318 9.68164 60.691 10.1412 60.691C10.6012 60.691 10.9742 60.318 10.9742 59.8584C10.9742 59.3984 10.6012 59.0254 10.1412 59.0254C9.68164 59.0254 9.30859 59.3984 9.30859 59.8584Z" fill="url(#paint40_linear_1_26545)"/>
<path d="M18.4902 59.8584C18.4902 60.318 18.8633 60.691 19.3233 60.691C19.7828 60.691 20.1559 60.318 20.1559 59.8584C20.1559 59.3984 19.7828 59.0254 19.3233 59.0254C18.8633 59.0254 18.4902 59.3984 18.4902 59.8584Z" fill="url(#paint41_linear_1_26545)"/>
<path d="M27.6699 59.8584C27.6699 60.318 28.043 60.691 28.503 60.691C28.963 60.691 29.3356 60.318 29.3356 59.8584C29.3356 59.3984 28.963 59.0254 28.503 59.0254C28.043 59.0254 27.6699 59.3984 27.6699 59.8584Z" fill="url(#paint42_linear_1_26545)"/>
<path d="M36.8516 59.8584C36.8516 60.318 37.2246 60.691 37.6841 60.691C38.1441 60.691 38.5172 60.318 38.5172 59.8584C38.5172 59.3984 38.1441 59.0254 37.6841 59.0254C37.2246 59.0254 36.8516 59.3984 36.8516 59.8584Z" fill="url(#paint43_linear_1_26545)"/>
<path d="M46.0332 59.8584C46.0332 60.318 46.4062 60.691 46.8658 60.691C47.3258 60.691 47.6988 60.318 47.6988 59.8584C47.6988 59.3984 47.3258 59.0254 46.8658 59.0254C46.4062 59.0254 46.0332 59.3984 46.0332 59.8584Z" fill="url(#paint44_linear_1_26545)"/>
<path d="M55.2148 59.8584C55.2148 60.318 55.588 60.691 56.0479 60.691C56.5075 60.691 56.8805 60.318 56.8805 59.8584C56.8805 59.3984 56.5075 59.0254 56.0479 59.0254C55.588 59.0254 55.2148 59.3984 55.2148 59.8584Z" fill="url(#paint45_linear_1_26545)"/>
<path d="M64.3965 59.8584C64.3965 60.318 64.7695 60.691 65.2295 60.691C65.6895 60.691 66.0622 60.318 66.0622 59.8584C66.0622 59.3984 65.6895 59.0254 65.2295 59.0254C64.7695 59.0254 64.3965 59.3984 64.3965 59.8584Z" fill="url(#paint46_linear_1_26545)"/>
<path d="M73.5779 59.8584C73.5779 60.318 73.9504 60.691 74.4104 60.691C74.8704 60.691 75.2435 60.318 75.2435 59.8584C75.2435 59.3984 74.8704 59.0254 74.4104 59.0254C73.9504 59.0254 73.5779 59.3984 73.5779 59.8584Z" fill="url(#paint47_linear_1_26545)"/>
<path d="M82.7598 59.8584C82.7598 60.318 83.1329 60.691 83.5924 60.691C84.0524 60.691 84.4254 60.318 84.4254 59.8584C84.4254 59.3984 84.0524 59.0254 83.5924 59.0254C83.1329 59.0254 82.7598 59.3984 82.7598 59.8584Z" fill="url(#paint48_linear_1_26545)"/>
<path d="M91.9395 59.8584C91.9395 60.318 92.3125 60.691 92.7725 60.691C93.232 60.691 93.6051 60.318 93.6051 59.8584C93.6051 59.3984 93.232 59.0254 92.7725 59.0254C92.3125 59.0254 91.9395 59.3984 91.9395 59.8584Z" fill="url(#paint49_linear_1_26545)"/>
<path d="M101.121 59.8584C101.121 60.318 101.494 60.691 101.954 60.691C102.414 60.691 102.787 60.318 102.787 59.8584C102.787 59.3984 102.414 59.0254 101.954 59.0254C101.494 59.0254 101.121 59.3984 101.121 59.8584Z" fill="url(#paint50_linear_1_26545)"/>
<path d="M110.303 59.8584C110.303 60.318 110.675 60.691 111.135 60.691C111.595 60.691 111.968 60.318 111.968 59.8584C111.968 59.3984 111.595 59.0254 111.135 59.0254C110.675 59.0254 110.303 59.3984 110.303 59.8584Z" fill="url(#paint51_linear_1_26545)"/>
<path d="M0.126953 67.6807C0.126953 68.1407 0.500002 68.5138 0.959519 68.5138C1.41952 68.5138 1.79263 68.1407 1.79263 67.6807C1.79263 67.2207 1.41952 66.8477 0.959519 66.8477C0.500002 66.8477 0.126953 67.2207 0.126953 67.6807Z" fill="url(#paint52_linear_1_26545)"/>
<path d="M9.30859 67.6807C9.30859 68.1407 9.68164 68.5138 10.1412 68.5138C10.6012 68.5138 10.9742 68.1407 10.9742 67.6807C10.9742 67.2207 10.6012 66.8477 10.1412 66.8477C9.68164 66.8477 9.30859 67.2207 9.30859 67.6807Z" fill="url(#paint53_linear_1_26545)"/>
<path d="M18.4902 67.6807C18.4902 68.1407 18.8633 68.5138 19.3233 68.5138C19.7828 68.5138 20.1559 68.1407 20.1559 67.6807C20.1559 67.2207 19.7828 66.8477 19.3233 66.8477C18.8633 66.8477 18.4902 67.2207 18.4902 67.6807Z" fill="url(#paint54_linear_1_26545)"/>
<path d="M27.6699 67.6807C27.6699 68.1407 28.043 68.5138 28.503 68.5138C28.963 68.5138 29.3356 68.1407 29.3356 67.6807C29.3356 67.2207 28.963 66.8477 28.503 66.8477C28.043 66.8477 27.6699 67.2207 27.6699 67.6807Z" fill="url(#paint55_linear_1_26545)"/>
<path d="M36.8516 67.6807C36.8516 68.1407 37.2246 68.5138 37.6841 68.5138C38.1441 68.5138 38.5172 68.1407 38.5172 67.6807C38.5172 67.2207 38.1441 66.8477 37.6841 66.8477C37.2246 66.8477 36.8516 67.2207 36.8516 67.6807Z" fill="url(#paint56_linear_1_26545)"/>
<path d="M46.0332 67.6807C46.0332 68.1407 46.4062 68.5138 46.8658 68.5138C47.3258 68.5138 47.6988 68.1407 47.6988 67.6807C47.6988 67.2207 47.3258 66.8477 46.8658 66.8477C46.4062 66.8477 46.0332 67.2207 46.0332 67.6807Z" fill="url(#paint57_linear_1_26545)"/>
<path d="M55.2148 67.6807C55.2148 68.1407 55.588 68.5138 56.0479 68.5138C56.5075 68.5138 56.8805 68.1407 56.8805 67.6807C56.8805 67.2207 56.5075 66.8477 56.0479 66.8477C55.588 66.8477 55.2148 67.2207 55.2148 67.6807Z" fill="url(#paint58_linear_1_26545)"/>
<path d="M64.3965 67.6807C64.3965 68.1407 64.7695 68.5138 65.2295 68.5138C65.6895 68.5138 66.0622 68.1407 66.0622 67.6807C66.0622 67.2207 65.6895 66.8477 65.2295 66.8477C64.7695 66.8477 64.3965 67.2207 64.3965 67.6807Z" fill="url(#paint59_linear_1_26545)"/>
<path d="M73.5781 67.6807C73.5781 68.1407 73.9507 68.5138 74.4107 68.5138C74.8707 68.5138 75.2437 68.1407 75.2437 67.6807C75.2437 67.2207 74.8707 66.8477 74.4107 66.8477C73.9507 66.8477 73.5781 67.2207 73.5781 67.6807Z" fill="url(#paint60_linear_1_26545)"/>
<path d="M82.7598 67.6807C82.7598 68.1407 83.1329 68.5138 83.5924 68.5138C84.0524 68.5138 84.4254 68.1407 84.4254 67.6807C84.4254 67.2207 84.0524 66.8477 83.5924 66.8477C83.1329 66.8477 82.7598 67.2207 82.7598 67.6807Z" fill="url(#paint61_linear_1_26545)"/>
<path d="M91.9395 67.6807C91.9395 68.1407 92.3125 68.5138 92.7725 68.5138C93.232 68.5138 93.6051 68.1407 93.6051 67.6807C93.6051 67.2207 93.232 66.8477 92.7725 66.8477C92.3125 66.8477 91.9395 67.2207 91.9395 67.6807Z" fill="url(#paint62_linear_1_26545)"/>
<path d="M101.121 67.6807C101.121 68.1407 101.494 68.5138 101.954 68.5138C102.414 68.5138 102.787 68.1407 102.787 67.6807C102.787 67.2207 102.414 66.8477 101.954 66.8477C101.494 66.8477 101.121 67.2207 101.121 67.6807Z" fill="url(#paint63_linear_1_26545)"/>
<path d="M110.303 67.6807C110.303 68.1407 110.675 68.5138 111.135 68.5138C111.595 68.5138 111.968 68.1407 111.968 67.6807C111.968 67.2207 111.595 66.8477 111.135 66.8477C110.675 66.8477 110.303 67.2207 110.303 67.6807Z" fill="url(#paint64_linear_1_26545)"/>
<path d="M0.126953 75.5049C0.126953 75.9649 0.500002 76.338 0.959519 76.338C1.41952 76.338 1.79263 75.9649 1.79263 75.5049C1.79263 75.0449 1.41952 74.6719 0.959519 74.6719C0.500002 74.6719 0.126953 75.0449 0.126953 75.5049Z" fill="url(#paint65_linear_1_26545)"/>
<path d="M9.30859 75.5049C9.30859 75.9649 9.68164 76.338 10.1412 76.338C10.6012 76.338 10.9742 75.9649 10.9742 75.5049C10.9742 75.0449 10.6012 74.6719 10.1412 74.6719C9.68164 74.6719 9.30859 75.0449 9.30859 75.5049Z" fill="url(#paint66_linear_1_26545)"/>
<path d="M18.4902 75.5049C18.4902 75.9649 18.8633 76.338 19.3233 76.338C19.7828 76.338 20.1559 75.9649 20.1559 75.5049C20.1559 75.0449 19.7828 74.6719 19.3233 74.6719C18.8633 74.6719 18.4902 75.0449 18.4902 75.5049Z" fill="url(#paint67_linear_1_26545)"/>
<path d="M27.6699 75.5049C27.6699 75.9649 28.043 76.338 28.503 76.338C28.963 76.338 29.3356 75.9649 29.3356 75.5049C29.3356 75.0449 28.963 74.6719 28.503 74.6719C28.043 74.6719 27.6699 75.0449 27.6699 75.5049Z" fill="url(#paint68_linear_1_26545)"/>
<path d="M36.8516 75.5049C36.8516 75.9649 37.2246 76.338 37.6841 76.338C38.1441 76.338 38.5172 75.9649 38.5172 75.5049C38.5172 75.0449 38.1441 74.6719 37.6841 74.6719C37.2246 74.6719 36.8516 75.0449 36.8516 75.5049Z" fill="url(#paint69_linear_1_26545)"/>
<path d="M46.0332 75.5049C46.0332 75.9649 46.4062 76.338 46.8658 76.338C47.3258 76.338 47.6988 75.9649 47.6988 75.5049C47.6988 75.0449 47.3258 74.6719 46.8658 74.6719C46.4062 74.6719 46.0332 75.0449 46.0332 75.5049Z" fill="url(#paint70_linear_1_26545)"/>
<path d="M55.2148 75.5049C55.2148 75.9649 55.588 76.338 56.0479 76.338C56.5075 76.338 56.8805 75.9649 56.8805 75.5049C56.8805 75.0449 56.5075 74.6719 56.0479 74.6719C55.588 74.6719 55.2148 75.0449 55.2148 75.5049Z" fill="url(#paint71_linear_1_26545)"/>
<path d="M64.3965 75.5049C64.3965 75.9649 64.7695 76.338 65.2295 76.338C65.6895 76.338 66.0622 75.9649 66.0622 75.5049C66.0622 75.0449 65.6895 74.6719 65.2295 74.6719C64.7695 74.6719 64.3965 75.0449 64.3965 75.5049Z" fill="url(#paint72_linear_1_26545)"/>
<path d="M73.5781 75.5049C73.5781 75.9649 73.9507 76.338 74.4107 76.338C74.8707 76.338 75.2437 75.9649 75.2437 75.5049C75.2437 75.0449 74.8707 74.6719 74.4107 74.6719C73.9507 74.6719 73.5781 75.0449 73.5781 75.5049Z" fill="url(#paint73_linear_1_26545)"/>
<path d="M82.7598 75.5049C82.7598 75.9649 83.1329 76.338 83.5924 76.338C84.0524 76.338 84.4254 75.9649 84.4254 75.5049C84.4254 75.0449 84.0524 74.6719 83.5924 74.6719C83.1329 74.6719 82.7598 75.0449 82.7598 75.5049Z" fill="url(#paint74_linear_1_26545)"/>
<path d="M91.9395 75.5049C91.9395 75.9649 92.3125 76.338 92.7725 76.338C93.232 76.338 93.6051 75.9649 93.6051 75.5049C93.6051 75.0449 93.232 74.6719 92.7725 74.6719C92.3125 74.6719 91.9395 75.0449 91.9395 75.5049Z" fill="url(#paint75_linear_1_26545)"/>
<path d="M101.121 75.5049C101.121 75.9649 101.494 76.338 101.954 76.338C102.414 76.338 102.787 75.9649 102.787 75.5049C102.787 75.0449 102.414 74.6719 101.954 74.6719C101.494 74.6719 101.121 75.0449 101.121 75.5049Z" fill="url(#paint76_linear_1_26545)"/>
<path d="M110.303 75.5049C110.303 75.9649 110.675 76.338 111.135 76.338C111.595 76.338 111.968 75.9649 111.968 75.5049C111.968 75.0449 111.595 74.6719 111.135 74.6719C110.675 74.6719 110.303 75.0449 110.303 75.5049Z" fill="url(#paint77_linear_1_26545)"/>
<defs>
<linearGradient id="paint0_linear_1_26545" x1="28.8288" y1="65.8349" x2="28.8288" y2="177.676" gradientUnits="userSpaceOnUse">
<stop stop-color="#00B19B"/>
<stop offset="0.44" stop-color="#00A4B5"/>
<stop offset="1" stop-color="#0086F0"/>
</linearGradient>
<linearGradient id="paint1_linear_1_26545" x1="38.0104" y1="65.8349" x2="38.0104" y2="177.676" gradientUnits="userSpaceOnUse">
<stop stop-color="#00B19B"/>
<stop offset="0.44" stop-color="#00A4B5"/>
<stop offset="1" stop-color="#0086F0"/>
</linearGradient>
<linearGradient id="paint2_linear_1_26545" x1="47.192" y1="65.8349" x2="47.192" y2="177.676" gradientUnits="userSpaceOnUse">
<stop stop-color="#00B19B"/>
<stop offset="0.44" stop-color="#00A4B5"/>
<stop offset="1" stop-color="#0086F0"/>
</linearGradient>
<linearGradient id="paint3_linear_1_26545" x1="56.3717" y1="65.8349" x2="56.3717" y2="177.676" gradientUnits="userSpaceOnUse">
<stop stop-color="#00B19B"/>
<stop offset="0.44" stop-color="#00A4B5"/>
<stop offset="1" stop-color="#0086F0"/>
</linearGradient>
<linearGradient id="paint4_linear_1_26545" x1="65.5532" y1="65.8349" x2="65.5532" y2="177.676" gradientUnits="userSpaceOnUse">
<stop stop-color="#00B19B"/>
<stop offset="0.44" stop-color="#00A4B5"/>
<stop offset="1" stop-color="#0086F0"/>
</linearGradient>
<linearGradient id="paint5_linear_1_26545" x1="74.7347" y1="65.8349" x2="74.7347" y2="177.676" gradientUnits="userSpaceOnUse">
<stop stop-color="#00B19B"/>
<stop offset="0.44" stop-color="#00A4B5"/>
<stop offset="1" stop-color="#0086F0"/>
</linearGradient>
<linearGradient id="paint6_linear_1_26545" x1="83.9168" y1="65.8349" x2="83.9168" y2="177.676" gradientUnits="userSpaceOnUse">
<stop stop-color="#00B19B"/>
<stop offset="0.44" stop-color="#00A4B5"/>
<stop offset="1" stop-color="#0086F0"/>
</linearGradient>
<linearGradient id="paint7_linear_1_26545" x1="93.0984" y1="65.8349" x2="93.0984" y2="177.676" gradientUnits="userSpaceOnUse">
<stop stop-color="#00B19B"/>
<stop offset="0.44" stop-color="#00A4B5"/>
<stop offset="1" stop-color="#0086F0"/>
</linearGradient>
<linearGradient id="paint8_linear_1_26545" x1="102.279" y1="65.8349" x2="102.279" y2="177.676" gradientUnits="userSpaceOnUse">
<stop stop-color="#00B19B"/>
<stop offset="0.44" stop-color="#00A4B5"/>
<stop offset="1" stop-color="#0086F0"/>
</linearGradient>
<linearGradient id="paint9_linear_1_26545" x1="111.461" y1="65.8349" x2="111.461" y2="177.676" gradientUnits="userSpaceOnUse">
<stop stop-color="#00B19B"/>
<stop offset="0.44" stop-color="#00A4B5"/>
<stop offset="1" stop-color="#0086F0"/>
</linearGradient>
<linearGradient id="paint10_linear_1_26545" x1="120.642" y1="65.8349" x2="120.642" y2="177.676" gradientUnits="userSpaceOnUse">
<stop stop-color="#00B19B"/>
<stop offset="0.44" stop-color="#00A4B5"/>
<stop offset="1" stop-color="#0086F0"/>
</linearGradient>
<linearGradient id="paint11_linear_1_26545" x1="129.823" y1="65.8349" x2="129.823" y2="177.676" gradientUnits="userSpaceOnUse">
<stop stop-color="#00B19B"/>
<stop offset="0.44" stop-color="#00A4B5"/>
<stop offset="1" stop-color="#0086F0"/>
</linearGradient>
<linearGradient id="paint12_linear_1_26545" x1="139.004" y1="65.8349" x2="139.004" y2="177.676" gradientUnits="userSpaceOnUse">
<stop stop-color="#00B19B"/>
<stop offset="0.44" stop-color="#00A4B5"/>
<stop offset="1" stop-color="#0086F0"/>
</linearGradient>
<linearGradient id="paint13_linear_1_26545" x1="28.829" y1="73.6569" x2="28.829" y2="185.498" gradientUnits="userSpaceOnUse">
<stop stop-color="#00B19B"/>
<stop offset="0.44" stop-color="#00A4B5"/>
<stop offset="1" stop-color="#0086F0"/>
</linearGradient>
<linearGradient id="paint14_linear_1_26545" x1="38.0106" y1="73.6569" x2="38.0106" y2="185.498" gradientUnits="userSpaceOnUse">
<stop stop-color="#00B19B"/>
<stop offset="0.44" stop-color="#00A4B5"/>
<stop offset="1" stop-color="#0086F0"/>
</linearGradient>
<linearGradient id="paint15_linear_1_26545" x1="47.1922" y1="73.6569" x2="47.1922" y2="185.498" gradientUnits="userSpaceOnUse">
<stop stop-color="#00B19B"/>
<stop offset="0.44" stop-color="#00A4B5"/>
<stop offset="1" stop-color="#0086F0"/>
</linearGradient>
<linearGradient id="paint16_linear_1_26545" x1="56.372" y1="73.6569" x2="56.372" y2="185.498" gradientUnits="userSpaceOnUse">
<stop stop-color="#00B19B"/>
<stop offset="0.44" stop-color="#00A4B5"/>
<stop offset="1" stop-color="#0086F0"/>
</linearGradient>
<linearGradient id="paint17_linear_1_26545" x1="65.5538" y1="73.6569" x2="65.5538" y2="185.498" gradientUnits="userSpaceOnUse">
<stop stop-color="#00B19B"/>
<stop offset="0.44" stop-color="#00A4B5"/>
<stop offset="1" stop-color="#0086F0"/>
</linearGradient>
<linearGradient id="paint18_linear_1_26545" x1="74.7353" y1="73.6569" x2="74.7353" y2="185.498" gradientUnits="userSpaceOnUse">
<stop stop-color="#00B19B"/>
<stop offset="0.44" stop-color="#00A4B5"/>
<stop offset="1" stop-color="#0086F0"/>
</linearGradient>
<linearGradient id="paint19_linear_1_26545" x1="83.9168" y1="73.6569" x2="83.9168" y2="185.498" gradientUnits="userSpaceOnUse">
<stop stop-color="#00B19B"/>
<stop offset="0.44" stop-color="#00A4B5"/>
<stop offset="1" stop-color="#0086F0"/>
</linearGradient>
<linearGradient id="paint20_linear_1_26545" x1="93.0984" y1="73.6569" x2="93.0984" y2="185.498" gradientUnits="userSpaceOnUse">
<stop stop-color="#00B19B"/>
<stop offset="0.44" stop-color="#00A4B5"/>
<stop offset="1" stop-color="#0086F0"/>
</linearGradient>
<linearGradient id="paint21_linear_1_26545" x1="102.28" y1="73.6569" x2="102.28" y2="185.498" gradientUnits="userSpaceOnUse">
<stop stop-color="#00B19B"/>
<stop offset="0.44" stop-color="#00A4B5"/>
<stop offset="1" stop-color="#0086F0"/>
</linearGradient>
<linearGradient id="paint22_linear_1_26545" x1="111.462" y1="73.6569" x2="111.462" y2="185.498" gradientUnits="userSpaceOnUse">
<stop stop-color="#00B19B"/>
<stop offset="0.44" stop-color="#00A4B5"/>
<stop offset="1" stop-color="#0086F0"/>
</linearGradient>
<linearGradient id="paint23_linear_1_26545" x1="120.642" y1="73.6569" x2="120.642" y2="185.498" gradientUnits="userSpaceOnUse">
<stop stop-color="#00B19B"/>
<stop offset="0.44" stop-color="#00A4B5"/>
<stop offset="1" stop-color="#0086F0"/>
</linearGradient>
<linearGradient id="paint24_linear_1_26545" x1="129.823" y1="73.6569" x2="129.823" y2="185.498" gradientUnits="userSpaceOnUse">
<stop stop-color="#00B19B"/>
<stop offset="0.44" stop-color="#00A4B5"/>
<stop offset="1" stop-color="#0086F0"/>
</linearGradient>
<linearGradient id="paint25_linear_1_26545" x1="139.005" y1="73.6569" x2="139.005" y2="185.498" gradientUnits="userSpaceOnUse">
<stop stop-color="#00B19B"/>
<stop offset="0.44" stop-color="#00A4B5"/>
<stop offset="1" stop-color="#0086F0"/>
</linearGradient>
<linearGradient id="paint26_linear_1_26545" x1="28.8288" y1="81.4814" x2="28.8288" y2="193.323" gradientUnits="userSpaceOnUse">
<stop stop-color="#00B19B"/>
<stop offset="0.44" stop-color="#00A4B5"/>
<stop offset="1" stop-color="#0086F0"/>
</linearGradient>
<linearGradient id="paint27_linear_1_26545" x1="38.0104" y1="81.4814" x2="38.0104" y2="193.323" gradientUnits="userSpaceOnUse">
<stop stop-color="#00B19B"/>
<stop offset="0.44" stop-color="#00A4B5"/>
<stop offset="1" stop-color="#0086F0"/>
</linearGradient>
<linearGradient id="paint28_linear_1_26545" x1="47.192" y1="81.4814" x2="47.192" y2="193.323" gradientUnits="userSpaceOnUse">
<stop stop-color="#00B19B"/>
<stop offset="0.44" stop-color="#00A4B5"/>
<stop offset="1" stop-color="#0086F0"/>
</linearGradient>
<linearGradient id="paint29_linear_1_26545" x1="56.3717" y1="81.4814" x2="56.3717" y2="193.323" gradientUnits="userSpaceOnUse">
<stop stop-color="#00B19B"/>
<stop offset="0.44" stop-color="#00A4B5"/>
<stop offset="1" stop-color="#0086F0"/>
</linearGradient>
<linearGradient id="paint30_linear_1_26545" x1="65.5532" y1="81.4814" x2="65.5532" y2="193.323" gradientUnits="userSpaceOnUse">
<stop stop-color="#00B19B"/>
<stop offset="0.44" stop-color="#00A4B5"/>
<stop offset="1" stop-color="#0086F0"/>
</linearGradient>
<linearGradient id="paint31_linear_1_26545" x1="74.7347" y1="81.4814" x2="74.7347" y2="193.323" gradientUnits="userSpaceOnUse">
<stop stop-color="#00B19B"/>
<stop offset="0.44" stop-color="#00A4B5"/>
<stop offset="1" stop-color="#0086F0"/>
</linearGradient>
<linearGradient id="paint32_linear_1_26545" x1="83.9168" y1="81.4814" x2="83.9168" y2="193.323" gradientUnits="userSpaceOnUse">
<stop stop-color="#00B19B"/>
<stop offset="0.44" stop-color="#00A4B5"/>
<stop offset="1" stop-color="#0086F0"/>
</linearGradient>
<linearGradient id="paint33_linear_1_26545" x1="93.0984" y1="81.4814" x2="93.0984" y2="193.323" gradientUnits="userSpaceOnUse">
<stop stop-color="#00B19B"/>
<stop offset="0.44" stop-color="#00A4B5"/>
<stop offset="1" stop-color="#0086F0"/>
</linearGradient>
<linearGradient id="paint34_linear_1_26545" x1="102.279" y1="81.4814" x2="102.279" y2="193.323" gradientUnits="userSpaceOnUse">
<stop stop-color="#00B19B"/>
<stop offset="0.44" stop-color="#00A4B5"/>
<stop offset="1" stop-color="#0086F0"/>
</linearGradient>
<linearGradient id="paint35_linear_1_26545" x1="111.461" y1="81.4814" x2="111.461" y2="193.323" gradientUnits="userSpaceOnUse">
<stop stop-color="#00B19B"/>
<stop offset="0.44" stop-color="#00A4B5"/>
<stop offset="1" stop-color="#0086F0"/>
</linearGradient>
<linearGradient id="paint36_linear_1_26545" x1="120.642" y1="81.4814" x2="120.642" y2="193.323" gradientUnits="userSpaceOnUse">
<stop stop-color="#00B19B"/>
<stop offset="0.44" stop-color="#00A4B5"/>
<stop offset="1" stop-color="#0086F0"/>
</linearGradient>
<linearGradient id="paint37_linear_1_26545" x1="129.823" y1="81.4814" x2="129.823" y2="193.323" gradientUnits="userSpaceOnUse">
<stop stop-color="#00B19B"/>
<stop offset="0.44" stop-color="#00A4B5"/>
<stop offset="1" stop-color="#0086F0"/>
</linearGradient>
<linearGradient id="paint38_linear_1_26545" x1="139.004" y1="81.4814" x2="139.004" y2="193.323" gradientUnits="userSpaceOnUse">
<stop stop-color="#00B19B"/>
<stop offset="0.44" stop-color="#00A4B5"/>
<stop offset="1" stop-color="#0086F0"/>
</linearGradient>
<linearGradient id="paint39_linear_1_26545" x1="28.8285" y1="89.3034" x2="28.8285" y2="201.145" gradientUnits="userSpaceOnUse">
<stop stop-color="#00B19B"/>
<stop offset="0.44" stop-color="#00A4B5"/>
<stop offset="1" stop-color="#0086F0"/>
</linearGradient>
<linearGradient id="paint40_linear_1_26545" x1="38.0101" y1="89.3034" x2="38.0101" y2="201.145" gradientUnits="userSpaceOnUse">
<stop stop-color="#00B19B"/>
<stop offset="0.44" stop-color="#00A4B5"/>
<stop offset="1" stop-color="#0086F0"/>
</linearGradient>
<linearGradient id="paint41_linear_1_26545" x1="47.1918" y1="89.3034" x2="47.1918" y2="201.145" gradientUnits="userSpaceOnUse">
<stop stop-color="#00B19B"/>
<stop offset="0.44" stop-color="#00A4B5"/>
<stop offset="1" stop-color="#0086F0"/>
</linearGradient>
<linearGradient id="paint42_linear_1_26545" x1="56.3716" y1="89.3034" x2="56.3716" y2="201.145" gradientUnits="userSpaceOnUse">
<stop stop-color="#00B19B"/>
<stop offset="0.44" stop-color="#00A4B5"/>
<stop offset="1" stop-color="#0086F0"/>
</linearGradient>
<linearGradient id="paint43_linear_1_26545" x1="65.5532" y1="89.3034" x2="65.5532" y2="201.145" gradientUnits="userSpaceOnUse">
<stop stop-color="#00B19B"/>
<stop offset="0.44" stop-color="#00A4B5"/>
<stop offset="1" stop-color="#0086F0"/>
</linearGradient>
<linearGradient id="paint44_linear_1_26545" x1="74.7347" y1="89.3034" x2="74.7347" y2="201.145" gradientUnits="userSpaceOnUse">
<stop stop-color="#00B19B"/>
<stop offset="0.44" stop-color="#00A4B5"/>
<stop offset="1" stop-color="#0086F0"/>
</linearGradient>
<linearGradient id="paint45_linear_1_26545" x1="83.9162" y1="89.3034" x2="83.9162" y2="201.145" gradientUnits="userSpaceOnUse">
<stop stop-color="#00B19B"/>
<stop offset="0.44" stop-color="#00A4B5"/>
<stop offset="1" stop-color="#0086F0"/>
</linearGradient>
<linearGradient id="paint46_linear_1_26545" x1="93.0978" y1="89.3034" x2="93.0978" y2="201.145" gradientUnits="userSpaceOnUse">
<stop stop-color="#00B19B"/>
<stop offset="0.44" stop-color="#00A4B5"/>
<stop offset="1" stop-color="#0086F0"/>
</linearGradient>
<linearGradient id="paint47_linear_1_26545" x1="102.279" y1="89.3034" x2="102.279" y2="201.145" gradientUnits="userSpaceOnUse">
<stop stop-color="#00B19B"/>
<stop offset="0.44" stop-color="#00A4B5"/>
<stop offset="1" stop-color="#0086F0"/>
</linearGradient>
<linearGradient id="paint48_linear_1_26545" x1="111.461" y1="89.3034" x2="111.461" y2="201.145" gradientUnits="userSpaceOnUse">
<stop stop-color="#00B19B"/>
<stop offset="0.44" stop-color="#00A4B5"/>
<stop offset="1" stop-color="#0086F0"/>
</linearGradient>
<linearGradient id="paint49_linear_1_26545" x1="120.641" y1="89.3034" x2="120.641" y2="201.145" gradientUnits="userSpaceOnUse">
<stop stop-color="#00B19B"/>
<stop offset="0.44" stop-color="#00A4B5"/>
<stop offset="1" stop-color="#0086F0"/>
</linearGradient>
<linearGradient id="paint50_linear_1_26545" x1="129.822" y1="89.3034" x2="129.822" y2="201.145" gradientUnits="userSpaceOnUse">
<stop stop-color="#00B19B"/>
<stop offset="0.44" stop-color="#00A4B5"/>
<stop offset="1" stop-color="#0086F0"/>
</linearGradient>
<linearGradient id="paint51_linear_1_26545" x1="139.004" y1="89.3034" x2="139.004" y2="201.145" gradientUnits="userSpaceOnUse">
<stop stop-color="#00B19B"/>
<stop offset="0.44" stop-color="#00A4B5"/>
<stop offset="1" stop-color="#0086F0"/>
</linearGradient>
<linearGradient id="paint52_linear_1_26545" x1="28.8288" y1="97.1257" x2="28.8288" y2="208.967" gradientUnits="userSpaceOnUse">
<stop stop-color="#00B19B"/>
<stop offset="0.44" stop-color="#00A4B5"/>
<stop offset="1" stop-color="#0086F0"/>
</linearGradient>
<linearGradient id="paint53_linear_1_26545" x1="38.0104" y1="97.1257" x2="38.0104" y2="208.967" gradientUnits="userSpaceOnUse">
<stop stop-color="#00B19B"/>
<stop offset="0.44" stop-color="#00A4B5"/>
<stop offset="1" stop-color="#0086F0"/>
</linearGradient>
<linearGradient id="paint54_linear_1_26545" x1="47.192" y1="97.1257" x2="47.192" y2="208.967" gradientUnits="userSpaceOnUse">
<stop stop-color="#00B19B"/>
<stop offset="0.44" stop-color="#00A4B5"/>
<stop offset="1" stop-color="#0086F0"/>
</linearGradient>
<linearGradient id="paint55_linear_1_26545" x1="56.3717" y1="97.1257" x2="56.3717" y2="208.967" gradientUnits="userSpaceOnUse">
<stop stop-color="#00B19B"/>
<stop offset="0.44" stop-color="#00A4B5"/>
<stop offset="1" stop-color="#0086F0"/>
</linearGradient>
<linearGradient id="paint56_linear_1_26545" x1="65.5532" y1="97.1257" x2="65.5532" y2="208.967" gradientUnits="userSpaceOnUse">
<stop stop-color="#00B19B"/>
<stop offset="0.44" stop-color="#00A4B5"/>
<stop offset="1" stop-color="#0086F0"/>
</linearGradient>
<linearGradient id="paint57_linear_1_26545" x1="74.7347" y1="97.1257" x2="74.7347" y2="208.967" gradientUnits="userSpaceOnUse">
<stop stop-color="#00B19B"/>
<stop offset="0.44" stop-color="#00A4B5"/>
<stop offset="1" stop-color="#0086F0"/>
</linearGradient>
<linearGradient id="paint58_linear_1_26545" x1="83.9168" y1="97.1257" x2="83.9168" y2="208.967" gradientUnits="userSpaceOnUse">
<stop stop-color="#00B19B"/>
<stop offset="0.44" stop-color="#00A4B5"/>
<stop offset="1" stop-color="#0086F0"/>
</linearGradient>
<linearGradient id="paint59_linear_1_26545" x1="93.0984" y1="97.1257" x2="93.0984" y2="208.967" gradientUnits="userSpaceOnUse">
<stop stop-color="#00B19B"/>
<stop offset="0.44" stop-color="#00A4B5"/>
<stop offset="1" stop-color="#0086F0"/>
</linearGradient>
<linearGradient id="paint60_linear_1_26545" x1="102.279" y1="97.1257" x2="102.279" y2="208.967" gradientUnits="userSpaceOnUse">
<stop stop-color="#00B19B"/>
<stop offset="0.44" stop-color="#00A4B5"/>
<stop offset="1" stop-color="#0086F0"/>
</linearGradient>
<linearGradient id="paint61_linear_1_26545" x1="111.461" y1="97.1257" x2="111.461" y2="208.967" gradientUnits="userSpaceOnUse">
<stop stop-color="#00B19B"/>
<stop offset="0.44" stop-color="#00A4B5"/>
<stop offset="1" stop-color="#0086F0"/>
</linearGradient>
<linearGradient id="paint62_linear_1_26545" x1="120.642" y1="97.1257" x2="120.642" y2="208.967" gradientUnits="userSpaceOnUse">
<stop stop-color="#00B19B"/>
<stop offset="0.44" stop-color="#00A4B5"/>
<stop offset="1" stop-color="#0086F0"/>
</linearGradient>
<linearGradient id="paint63_linear_1_26545" x1="129.823" y1="97.1257" x2="129.823" y2="208.967" gradientUnits="userSpaceOnUse">
<stop stop-color="#00B19B"/>
<stop offset="0.44" stop-color="#00A4B5"/>
<stop offset="1" stop-color="#0086F0"/>
</linearGradient>
<linearGradient id="paint64_linear_1_26545" x1="139.004" y1="97.1257" x2="139.004" y2="208.967" gradientUnits="userSpaceOnUse">
<stop stop-color="#00B19B"/>
<stop offset="0.44" stop-color="#00A4B5"/>
<stop offset="1" stop-color="#0086F0"/>
</linearGradient>
<linearGradient id="paint65_linear_1_26545" x1="28.8288" y1="104.95" x2="28.8288" y2="216.792" gradientUnits="userSpaceOnUse">
<stop stop-color="#00B19B"/>
<stop offset="0.44" stop-color="#00A4B5"/>
<stop offset="1" stop-color="#0086F0"/>
</linearGradient>
<linearGradient id="paint66_linear_1_26545" x1="38.0104" y1="104.95" x2="38.0104" y2="216.792" gradientUnits="userSpaceOnUse">
<stop stop-color="#00B19B"/>
<stop offset="0.44" stop-color="#00A4B5"/>
<stop offset="1" stop-color="#0086F0"/>
</linearGradient>
<linearGradient id="paint67_linear_1_26545" x1="47.192" y1="104.95" x2="47.192" y2="216.792" gradientUnits="userSpaceOnUse">
<stop stop-color="#00B19B"/>
<stop offset="0.44" stop-color="#00A4B5"/>
<stop offset="1" stop-color="#0086F0"/>
</linearGradient>
<linearGradient id="paint68_linear_1_26545" x1="56.3717" y1="104.95" x2="56.3717" y2="216.792" gradientUnits="userSpaceOnUse">
<stop stop-color="#00B19B"/>
<stop offset="0.44" stop-color="#00A4B5"/>
<stop offset="1" stop-color="#0086F0"/>
</linearGradient>
<linearGradient id="paint69_linear_1_26545" x1="65.5532" y1="104.95" x2="65.5532" y2="216.792" gradientUnits="userSpaceOnUse">
<stop stop-color="#00B19B"/>
<stop offset="0.44" stop-color="#00A4B5"/>
<stop offset="1" stop-color="#0086F0"/>
</linearGradient>
<linearGradient id="paint70_linear_1_26545" x1="74.7347" y1="104.95" x2="74.7347" y2="216.792" gradientUnits="userSpaceOnUse">
<stop stop-color="#00B19B"/>
<stop offset="0.44" stop-color="#00A4B5"/>
<stop offset="1" stop-color="#0086F0"/>
</linearGradient>
<linearGradient id="paint71_linear_1_26545" x1="83.9168" y1="104.95" x2="83.9168" y2="216.792" gradientUnits="userSpaceOnUse">
<stop stop-color="#00B19B"/>
<stop offset="0.44" stop-color="#00A4B5"/>
<stop offset="1" stop-color="#0086F0"/>
</linearGradient>
<linearGradient id="paint72_linear_1_26545" x1="93.0984" y1="104.95" x2="93.0984" y2="216.792" gradientUnits="userSpaceOnUse">
<stop stop-color="#00B19B"/>
<stop offset="0.44" stop-color="#00A4B5"/>
<stop offset="1" stop-color="#0086F0"/>
</linearGradient>
<linearGradient id="paint73_linear_1_26545" x1="102.279" y1="104.95" x2="102.279" y2="216.792" gradientUnits="userSpaceOnUse">
<stop stop-color="#00B19B"/>
<stop offset="0.44" stop-color="#00A4B5"/>
<stop offset="1" stop-color="#0086F0"/>
</linearGradient>
<linearGradient id="paint74_linear_1_26545" x1="111.461" y1="104.95" x2="111.461" y2="216.792" gradientUnits="userSpaceOnUse">
<stop stop-color="#00B19B"/>
<stop offset="0.44" stop-color="#00A4B5"/>
<stop offset="1" stop-color="#0086F0"/>
</linearGradient>
<linearGradient id="paint75_linear_1_26545" x1="120.642" y1="104.95" x2="120.642" y2="216.792" gradientUnits="userSpaceOnUse">
<stop stop-color="#00B19B"/>
<stop offset="0.44" stop-color="#00A4B5"/>
<stop offset="1" stop-color="#0086F0"/>
</linearGradient>
<linearGradient id="paint76_linear_1_26545" x1="129.823" y1="104.95" x2="129.823" y2="216.792" gradientUnits="userSpaceOnUse">
<stop stop-color="#00B19B"/>
<stop offset="0.44" stop-color="#00A4B5"/>
<stop offset="1" stop-color="#0086F0"/>
</linearGradient>
<linearGradient id="paint77_linear_1_26545" x1="139.004" y1="104.95" x2="139.004" y2="216.792" gradientUnits="userSpaceOnUse">
<stop stop-color="#00B19B"/>
<stop offset="0.44" stop-color="#00A4B5"/>
<stop offset="1" stop-color="#0086F0"/>
</linearGradient>
</defs>
</svg>
