<svg width="60" height="60" viewBox="0 0 60 60" fill="none" xmlns="http://www.w3.org/2000/svg">
<path d="M18.257 8.71484C20.3877 8.71484 22.5175 9.43345 24.5016 10.8698C27.965 13.3785 31.937 13.3785 35.4004 10.8698C39.3685 7.99702 43.92 7.99702 47.8888 10.8698C51.3523 13.3785 55.3251 13.3785 58.7885 10.8698C59.1177 10.6323 59.5625 10.7285 59.7825 11.0866C60.001 11.4446 59.9125 11.9291 59.5825 12.1675C55.6144 15.0421 51.0629 15.0421 47.0949 12.1675C43.6307 9.6588 39.6586 9.65967 36.1952 12.1675C32.2264 15.0421 27.6748 15.0421 23.7068 12.1675C20.2434 9.65967 16.2706 9.65967 12.8071 12.1675C8.83912 15.0421 4.28766 15.0412 0.319639 12.1675C-0.0104482 11.9291 -0.0988784 11.4446 0.120279 11.0866C0.339523 10.7285 0.785075 10.6332 1.11351 10.8698C4.57694 13.3777 8.54897 13.3785 12.0132 10.8698C13.9972 9.43345 16.1271 8.71484 18.257 8.71484Z" fill="url(#paint0_linear_1_27217)"/>
<path d="M18.257 21.0256C20.3877 21.0256 22.5175 21.7442 24.5016 23.1806C27.965 25.6894 31.937 25.6894 35.4004 23.1806C39.3685 20.307 43.92 20.307 47.8888 23.1806C51.3523 25.6894 55.3251 25.6894 58.7885 23.1806C59.1177 22.9431 59.5625 23.0393 59.7825 23.3973C60.001 23.7553 59.9125 24.2399 59.5825 24.4783C55.6144 27.3529 51.0629 27.3529 47.0949 24.4783C43.6307 21.9696 39.6586 21.9705 36.1952 24.4783C32.2264 27.3529 27.6748 27.3529 23.7068 24.4783C20.2434 21.9705 16.2706 21.9705 12.8071 24.4783C8.83912 27.3529 4.28766 27.352 0.319639 24.4783C-0.0104482 24.2399 -0.0988784 23.7553 0.120279 23.3973C0.339523 23.0393 0.785075 22.9431 1.11351 23.1806C4.57694 25.6885 8.54897 25.6894 12.0132 23.1806C13.9972 21.7442 16.1271 21.0256 18.257 21.0256Z" fill="url(#paint1_linear_1_27217)"/>
<path d="M18.257 33.3381C20.3877 33.3381 22.5175 34.0567 24.5016 35.4931C27.965 38.0018 31.937 38.0018 35.4004 35.4931C39.3685 32.6195 43.92 32.6195 47.8888 35.4931C51.3523 38.0009 55.3251 38.0009 58.7885 35.4931C59.1177 35.2556 59.5625 35.3518 59.7825 35.7098C60.001 36.0678 59.9125 36.5524 59.5825 36.7908C55.6144 39.6653 51.0629 39.6653 47.0949 36.7908C43.6307 34.2821 39.6586 34.2829 36.1952 36.7908C32.2264 39.6653 27.6748 39.6653 23.7068 36.7908C20.2434 34.2829 16.2706 34.2829 12.8071 36.7908C8.83912 39.6653 4.28766 39.6644 0.319639 36.7908C-0.0104482 36.5524 -0.0988784 36.0678 0.120279 35.7098C0.339523 35.3518 0.785075 35.2556 1.11351 35.4931C4.57694 38.0009 8.54897 38.0009 12.0132 35.4931C13.9972 34.0567 16.1271 33.3381 18.257 33.3381Z" fill="url(#paint2_linear_1_27217)"/>
<path d="M18.257 45.6486C20.3877 45.6486 22.5175 46.3673 24.5016 47.8037C27.965 50.3124 31.937 50.3124 35.4004 47.8037C39.3685 44.93 43.92 44.93 47.8888 47.8037C51.3523 50.3115 55.3251 50.3115 58.7885 47.8037C59.1177 47.5662 59.5625 47.6624 59.7825 48.0204C60.001 48.3785 59.9125 48.863 59.5825 49.1014C55.6144 51.9751 51.0629 51.9751 47.0949 49.1014C43.6307 46.5927 39.6586 46.5935 36.1952 49.1014C32.2264 51.9751 27.6748 51.9751 23.7068 49.1014C20.2434 46.5935 16.2706 46.5935 12.8071 49.1014C8.83912 51.9751 4.28766 51.9751 0.319639 49.1014C-0.0104482 48.863 -0.0988784 48.3785 0.120279 48.0204C0.339523 47.6624 0.785075 47.5662 1.11351 47.8037C4.57694 50.3115 8.54897 50.3115 12.0132 47.8037C13.9972 46.3673 16.1271 45.6486 18.257 45.6486Z" fill="url(#paint3_linear_1_27217)"/>
<defs>
<linearGradient id="paint0_linear_1_27217" x1="339.996" y1="321.902" x2="399.898" y2="321.902" gradientUnits="userSpaceOnUse">
<stop stop-color="#00B19B"/>
<stop offset="0.44" stop-color="#00A4B5"/>
<stop offset="1" stop-color="#0086F0"/>
</linearGradient>
<linearGradient id="paint1_linear_1_27217" x1="339.996" y1="334.212" x2="399.898" y2="334.212" gradientUnits="userSpaceOnUse">
<stop stop-color="#00B19B"/>
<stop offset="0.44" stop-color="#00A4B5"/>
<stop offset="1" stop-color="#0086F0"/>
</linearGradient>
<linearGradient id="paint2_linear_1_27217" x1="339.996" y1="346.524" x2="399.898" y2="346.524" gradientUnits="userSpaceOnUse">
<stop stop-color="#00B19B"/>
<stop offset="0.44" stop-color="#00A4B5"/>
<stop offset="1" stop-color="#0086F0"/>
</linearGradient>
<linearGradient id="paint3_linear_1_27217" x1="339.996" y1="358.834" x2="399.898" y2="358.834" gradientUnits="userSpaceOnUse">
<stop stop-color="#00B19B"/>
<stop offset="0.44" stop-color="#00A4B5"/>
<stop offset="1" stop-color="#0086F0"/>
</linearGradient>
</defs>
</svg>
