<svg width="70" height="70" viewBox="0 0 70 70" fill="none" xmlns="http://www.w3.org/2000/svg">
<g clip-path="url(#clip0_1_27267)">
<path opacity="0.3" d="M35.0009 44.918L24.0342 51.5388L26.9509 39.0555L17.2676 30.6555L30.0426 29.5471L35.0009 17.793L39.9884 29.5763L52.7634 30.6846L43.0801 39.0846L45.9967 51.568L35.0009 44.918Z" fill="#00ACA5"/>
<path d="M64.1673 26.9507L43.1965 25.1423L35.0006 5.83398L26.8048 25.1715L5.83398 26.9507L21.759 40.7465L16.9757 61.2507L35.0006 50.3715L53.0257 61.2507L48.2715 40.7465L64.1673 26.9507ZM35.0006 44.9173L24.034 51.5382L26.9506 39.0548L17.2673 30.6548L30.0423 29.5465L35.0006 17.7923L39.9881 29.5757L52.7631 30.684L43.0798 39.084L45.9965 51.5673L35.0006 44.9173Z" fill="#007EF2"/>
</g>
<defs>
<clipPath id="clip0_1_27267">
<rect width="70" height="70" fill="white"/>
</clipPath>
</defs>
</svg>
