<svg width="48" height="48" viewBox="0 0 48 48" fill="none" xmlns="http://www.w3.org/2000/svg">
<g clip-path="url(#clip0_1_26043)">
<path d="M24 4C12.96 4 4 12.96 4 24C4 35.04 12.96 44 24 44C35.04 44 44 35.04 44 24C44 12.96 35.04 4 24 4ZM31.22 16.68C33.36 16.68 35.08 18.4 35.08 20.54C35.08 22.68 33.36 24.4 31.22 24.4C29.08 24.4 27.36 22.68 27.36 20.54C27.34 18.4 29.08 16.68 31.22 16.68ZM19.22 13.52C21.82 13.52 23.94 15.64 23.94 18.24C23.94 20.84 21.82 22.96 19.22 22.96C16.62 22.96 14.5 20.84 14.5 18.24C14.5 15.62 16.6 13.52 19.22 13.52ZM19.22 31.78V39.28C14.42 37.78 10.62 34.08 8.94 29.36C11.04 27.12 16.28 25.98 19.22 25.98C20.28 25.98 21.62 26.14 23.02 26.42C19.74 28.16 19.22 30.46 19.22 31.78ZM24 40C23.46 40 22.94 39.98 22.42 39.92V31.78C22.42 28.94 28.3 27.52 31.22 27.52C33.36 27.52 37.06 28.3 38.9 29.82C36.56 35.76 30.78 40 24 40Z" fill="white"/>
</g>
<defs>
<clipPath id="clip0_1_26043">
<rect width="48" height="48" fill="white"/>
</clipPath>
</defs>
</svg>
