<svg width="763" height="417" viewBox="0 0 763 417" fill="none" xmlns="http://www.w3.org/2000/svg">
<path fill-rule="evenodd" clip-rule="evenodd" d="M381 0V10.4C381 11.5046 381.895 12.4 383 12.4C384.105 12.4 385 11.5046 385 10.4V0H384H382H381ZM385 31.2C385 30.0954 384.105 29.2 383 29.2C381.895 29.2 381 30.0954 381 31.2V52C381 53.1046 381.895 54 383 54C384.105 54 385 53.1046 385 52V31.2ZM385 72.8C385 71.6954 384.105 70.8 383 70.8C381.895 70.8 381 71.6954 381 72.8V93.6C381 94.7046 381.895 95.6 383 95.6C384.105 95.6 385 94.7046 385 93.6V72.8ZM385 114.4C385 113.295 384.105 112.4 383 112.4C381.895 112.4 381 113.295 381 114.4V135.2C381 136.305 381.895 137.2 383 137.2C384.105 137.2 385 136.305 385 135.2V114.4ZM385 156C385 154.895 384.105 154 383 154C381.895 154 381 154.895 381 156V176.8C381 177.905 381.895 178.8 383 178.8C384.105 178.8 385 177.905 385 176.8V156ZM385 197.6C385 196.495 384.105 195.6 383 195.6C381.895 195.6 381 196.495 381 197.6V218.4C381 219.505 381.895 220.4 383 220.4C384.105 220.4 385 219.505 385 218.4V197.6ZM385 239.2C385 238.095 384.105 237.2 383 237.2C381.895 237.2 381 238.095 381 239.2V260C381 261.105 381.895 262 383 262C384.105 262 385 261.105 385 260V239.2ZM385 280.8C385 279.695 384.105 278.8 383 278.8C381.895 278.8 381 279.695 381 280.8V301.6C381 302.705 381.895 303.6 383 303.6C384.105 303.6 385 302.705 385 301.6V280.8ZM385 322.4C385 321.295 384.105 320.4 383 320.4C381.895 320.4 381 321.295 381 322.4V343.2C381 344.305 381.895 345.2 383 345.2C384.105 345.2 385 344.305 385 343.2V322.4ZM385 364C385 362.895 384.105 362 383 362C381.895 362 381 362.895 381 364V384.8C381 385.905 381.895 386.8 383 386.8C384.105 386.8 385 385.905 385 384.8V364ZM385 405.6C385 404.495 384.105 403.6 383 403.6C381.895 403.6 381 404.495 381 405.6V416H382H384H385V405.6ZM761 137H751.013C749.909 137 749.013 137.895 749.013 139C749.013 140.105 749.909 141 751.013 141H759V148.911C759 150.015 759.895 150.911 761 150.911C762.105 150.911 763 150.015 763 148.911V139H762H761V138V137ZM731.039 141C732.144 141 733.039 140.105 733.039 139C733.039 137.895 732.144 137 731.039 137H711.066C709.961 137 709.066 137.895 709.066 139C709.066 140.105 709.961 141 711.066 141H731.039ZM691.092 141C692.197 141 693.092 140.105 693.092 139C693.092 137.895 692.197 137 691.092 137H671.118C670.014 137 669.118 137.895 669.118 139C669.118 140.105 670.014 141 671.118 141H691.092ZM651.145 141C652.249 141 653.145 140.105 653.145 139C653.145 137.895 652.249 137 651.145 137H631.171C630.066 137 629.171 137.895 629.171 139C629.171 140.105 630.066 141 631.171 141H651.145ZM611.197 141C612.302 141 613.197 140.105 613.197 139C613.197 137.895 612.302 137 611.197 137H591.224C590.119 137 589.224 137.895 589.224 139C589.224 140.105 590.119 141 591.224 141H611.197ZM571.25 141C572.355 141 573.25 140.105 573.25 139C573.25 137.895 572.355 137 571.25 137H551.276C550.172 137 549.276 137.895 549.276 139C549.276 140.105 550.172 141 551.276 141H571.25ZM531.303 141C532.407 141 533.303 140.105 533.303 139C533.303 137.895 532.407 137 531.303 137H511.329C510.224 137 509.329 137.895 509.329 139C509.329 140.105 510.224 141 511.329 141H531.303ZM491.355 141C492.46 141 493.355 140.105 493.355 139C493.355 137.895 492.46 137 491.355 137H471.382C470.277 137 469.382 137.895 469.382 139C469.382 140.105 470.277 141 471.382 141H491.355ZM451.408 141C452.512 141 453.408 140.105 453.408 139C453.408 137.895 452.512 137 451.408 137H431.434C430.33 137 429.434 137.895 429.434 139C429.434 140.105 430.33 141 431.434 141H451.408ZM411.461 141C412.565 141 413.461 140.105 413.461 139C413.461 137.895 412.565 137 411.461 137H391.487C390.382 137 389.487 137.895 389.487 139C389.487 140.105 390.382 141 391.487 141H411.461ZM371.513 141C372.618 141 373.513 140.105 373.513 139C373.513 137.895 372.618 137 371.513 137H351.539C350.435 137 349.539 137.895 349.539 139C349.539 140.105 350.435 141 351.539 141H371.513ZM331.566 141C332.67 141 333.566 140.105 333.566 139C333.566 137.895 332.67 137 331.566 137H311.592C310.487 137 309.592 137.895 309.592 139C309.592 140.105 310.487 141 311.592 141H331.566ZM291.618 141C292.723 141 293.618 140.105 293.618 139C293.618 137.895 292.723 137 291.618 137H271.645C270.54 137 269.645 137.895 269.645 139C269.645 140.105 270.54 141 271.645 141H291.618ZM251.671 141C252.776 141 253.671 140.105 253.671 139C253.671 137.895 252.776 137 251.671 137H231.697C230.593 137 229.697 137.895 229.697 139C229.697 140.105 230.593 141 231.697 141H251.671ZM211.724 141C212.828 141 213.724 140.105 213.724 139C213.724 137.895 212.828 137 211.724 137H191.75C190.645 137 189.75 137.895 189.75 139C189.75 140.105 190.645 141 191.75 141H211.724ZM171.776 141C172.881 141 173.776 140.105 173.776 139C173.776 137.895 172.881 137 171.776 137H151.802C150.698 137 149.802 137.895 149.802 139C149.802 140.105 150.698 141 151.802 141H171.776ZM131.829 141C132.933 141 133.829 140.105 133.829 139C133.829 137.895 132.933 137 131.829 137H111.855C110.751 137 109.855 137.895 109.855 139C109.855 140.105 110.751 141 111.855 141H131.829ZM91.8814 141C92.986 141 93.8814 140.105 93.8814 139C93.8814 137.895 92.986 137 91.8814 137H71.9077C70.8032 137 69.9077 137.895 69.9077 139C69.9077 140.105 70.8032 141 71.9077 141H91.8814ZM51.934 141C53.0386 141 53.934 140.105 53.934 139C53.934 137.895 53.0386 137 51.934 137H31.9603C30.8558 137 29.9603 137.895 29.9603 139C29.9603 140.105 30.8558 141 31.9603 141H51.934ZM11.9866 141C13.0912 141 13.9866 140.105 13.9866 139C13.9866 137.895 13.0912 137 11.9866 137H2V138V139H1H0V148.911C0 150.015 0.89543 150.911 2 150.911C3.10457 150.911 4 150.015 4 148.911V141H11.9866ZM2 166.732C3.10457 166.732 4 167.628 4 168.732V188.554C4 189.658 3.10457 190.554 2 190.554C0.89543 190.554 0 189.658 0 188.554V168.732C0 167.628 0.89543 166.732 2 166.732ZM2 206.375C3.10457 206.375 4 207.27 4 208.375V228.196C4 229.301 3.10457 230.196 2 230.196C0.89543 230.196 0 229.301 0 228.196V208.375C0 207.27 0.89543 206.375 2 206.375ZM2 246.018C3.10457 246.018 4 246.913 4 248.018V267.839C4 268.944 3.10457 269.839 2 269.839C0.89543 269.839 0 268.944 0 267.839V248.018C0 246.913 0.89543 246.018 2 246.018ZM2 285.661C3.10457 285.661 4 286.556 4 287.661V307.482C4 308.587 3.10457 309.482 2 309.482C0.89543 309.482 0 308.587 0 307.482V287.661C0 286.556 0.89543 285.661 2 285.661ZM2 325.304C3.10457 325.304 4 326.199 4 327.304V347.125C4 348.23 3.10457 349.125 2 349.125C0.89543 349.125 0 348.23 0 347.125V327.304C0 326.199 0.89543 325.304 2 325.304ZM2 364.946C3.10457 364.946 4 365.842 4 366.946V386.768C4 387.872 3.10457 388.768 2 388.768C0.89543 388.768 0 387.872 0 386.768V366.946C0 365.842 0.89543 364.946 2 364.946ZM2 404.589C3.10457 404.589 4 405.485 4 406.589V416.5H3H1H0V406.589C0 405.485 0.89543 404.589 2 404.589ZM763 168.732C763 167.628 762.105 166.732 761 166.732C759.895 166.732 759 167.628 759 168.732V188.554C759 189.658 759.895 190.554 761 190.554C762.105 190.554 763 189.658 763 188.554V168.732ZM763 208.375C763 207.27 762.105 206.375 761 206.375C759.895 206.375 759 207.27 759 208.375V228.196C759 229.301 759.895 230.196 761 230.196C762.105 230.196 763 229.301 763 228.196V208.375ZM763 248.018C763 246.913 762.105 246.018 761 246.018C759.895 246.018 759 246.913 759 248.018V267.839C759 268.944 759.895 269.839 761 269.839C762.105 269.839 763 268.944 763 267.839V248.018ZM763 287.661C763 286.556 762.105 285.661 761 285.661C759.895 285.661 759 286.556 759 287.661V307.482C759 308.587 759.895 309.482 761 309.482C762.105 309.482 763 308.587 763 307.482V287.661ZM763 327.304C763 326.199 762.105 325.304 761 325.304C759.895 325.304 759 326.199 759 327.304V347.125C759 348.23 759.895 349.125 761 349.125C762.105 349.125 763 348.23 763 347.125V327.304ZM763 366.946C763 365.842 762.105 364.946 761 364.946C759.895 364.946 759 365.842 759 366.946V386.768C759 387.872 759.895 388.768 761 388.768C762.105 388.768 763 387.872 763 386.768V366.946ZM763 406.589C763 405.485 762.105 404.589 761 404.589C759.895 404.589 759 405.485 759 406.589V416.5H760H762H763V406.589Z" fill="#8491A5"/>
</svg>
