<svg width="17" height="17" viewBox="0 0 17 17" fill="none" xmlns="http://www.w3.org/2000/svg">
<path fill-rule="evenodd" clip-rule="evenodd" d="M3.85446 10.9341C4.45794 10.3307 5.27643 9.99164 6.12988 9.99164H11.2785C12.132 9.99164 12.9505 10.3307 13.554 10.9341C14.1574 11.5376 14.4965 12.3561 14.4965 13.2096V14.4967C14.4965 14.8522 14.2083 15.1403 13.8529 15.1403C13.4974 15.1403 13.2093 14.8522 13.2093 14.4967V13.2096C13.2093 12.6975 13.0059 12.2064 12.6438 11.8443C12.2817 11.4822 11.7906 11.2788 11.2785 11.2788H6.12988C5.61781 11.2788 5.12671 11.4822 4.76463 11.8443C4.40254 12.2064 4.19912 12.6975 4.19912 13.2096V14.4967C4.19912 14.8522 3.91098 15.1403 3.55554 15.1403C3.2001 15.1403 2.91196 14.8522 2.91196 14.4967V13.2096C2.91196 12.3561 3.25099 11.5376 3.85446 10.9341Z" fill="white"/>
<path fill-rule="evenodd" clip-rule="evenodd" d="M8.7042 3.55578C7.63788 3.55578 6.77345 4.42021 6.77345 5.48653C6.77345 6.55286 7.63788 7.41729 8.7042 7.41729C9.77053 7.41729 10.635 6.55286 10.635 5.48653C10.635 4.42021 9.77053 3.55578 8.7042 3.55578ZM5.48628 5.48653C5.48628 3.70933 6.92699 2.26862 8.7042 2.26862C10.4814 2.26862 11.9221 3.70933 11.9221 5.48653C11.9221 7.26374 10.4814 8.70445 8.7042 8.70445C6.92699 8.70445 5.48628 7.26374 5.48628 5.48653Z" fill="white"/>
</svg>
