<svg width="105" height="101" viewBox="0 0 105 101" fill="none" xmlns="http://www.w3.org/2000/svg">
<path d="M47.5 18.3438C47.5 23.1094 45.6069 27.6798 42.2371 31.0496C38.8673 34.4194 34.2969 36.3125 29.5312 36.3125C24.7656 36.3125 20.1952 34.4194 16.8254 31.0496C13.4556 27.6798 11.5625 23.1094 11.5625 18.3438C11.5625 13.5781 13.4556 9.00772 16.8254 5.63793C20.1952 2.26813 24.7656 0.375 29.5312 0.375C34.2969 0.375 38.8673 2.26813 42.2371 5.63793C45.6069 9.00772 47.5 13.5781 47.5 18.3438ZM72.6562 29.125C68.8154 29.1221 64.9946 29.679 61.3144 30.7781C59.6594 28.6546 58.6341 26.1091 58.3551 23.4313C58.076 20.7536 58.5546 18.0513 59.7363 15.6323C60.9179 13.2132 62.7552 11.1746 65.0387 9.74863C67.3223 8.32265 69.9604 7.56661 72.6527 7.56661C75.3449 7.56661 77.983 8.32265 80.2666 9.74863C82.5502 11.1746 84.3874 13.2132 85.569 15.6323C86.7507 18.0513 87.2293 20.7536 86.9503 23.4313C86.6713 26.1091 85.6459 28.6546 83.9909 30.7781C80.313 29.6797 76.4947 29.1228 72.6562 29.125ZM11.5625 43.5H42.1597C36.3069 50.5754 33.111 59.4739 33.125 68.6562C33.125 71.0569 33.3406 73.4 33.7503 75.6784C32.3467 75.7902 30.9393 75.8453 29.5312 75.8438C0.78125 75.8438 0.78125 54.8203 0.78125 54.8203V54.2812C0.78125 51.4219 1.91713 48.6796 3.93901 46.6578C5.96088 44.6359 8.70313 43.5 11.5625 43.5ZM105 68.6562C105 77.2343 101.592 85.4611 95.5267 91.5267C89.4611 97.5924 81.2343 101 72.6562 101C64.0782 101 55.8514 97.5924 49.7858 91.5267C43.7201 85.4611 40.3125 77.2343 40.3125 68.6562C40.3125 60.0782 43.7201 51.8514 49.7858 45.7858C55.8514 39.7201 64.0782 36.3125 72.6562 36.3125C81.2343 36.3125 89.4611 39.7201 95.5267 45.7858C101.592 51.8514 105 60.0782 105 68.6562ZM89.5756 55.3306C89.2418 54.996 88.8452 54.7304 88.4086 54.5493C87.972 54.3681 87.504 54.2748 87.0312 54.2748C86.5585 54.2748 86.0905 54.3681 85.6539 54.5493C85.2173 54.7304 84.8207 54.996 84.4869 55.3306L65.4688 74.3559L60.8256 69.7056C60.1508 69.0308 59.2356 68.6517 58.2812 68.6517C57.3269 68.6517 56.4117 69.0308 55.7369 69.7056C55.0621 70.3804 54.683 71.2957 54.683 72.25C54.683 73.2043 55.0621 74.1196 55.7369 74.7944L62.9244 81.9819C63.2582 82.3166 63.6548 82.5821 64.0914 82.7632C64.528 82.9444 64.996 83.0377 65.4688 83.0377C65.9415 83.0377 66.4095 82.9444 66.8461 82.7632C67.2827 82.5821 67.6793 82.3166 68.0131 81.9819L89.5756 60.4194C89.9103 60.0855 90.1758 59.689 90.357 59.2524C90.5382 58.8158 90.6314 58.3477 90.6314 57.875C90.6314 57.4023 90.5382 56.9342 90.357 56.4976C90.1758 56.061 89.9103 55.6645 89.5756 55.3306Z" fill="#FF635F"/>
</svg>
