<svg width="19" height="48" viewBox="0 0 19 48" fill="none" xmlns="http://www.w3.org/2000/svg">
<path opacity="0.6" d="M1.67661 46.8036C8.55458 43.0104 13.7259 39.9298 14.452 31.6215C14.7985 27.6558 12.8781 24.3038 9.05755 22.8418C2.10517 20.1813 3.15762 32.0938 9.03683 31.2675C19.8147 29.7528 18.7321 15.6738 14.5869 8.69607C13.3789 6.66262 11.9669 4.37203 10.5568 2.50027C9.33365 0.876715 11.2916 2.38022 11.9632 2.78219C13.2075 3.52688 14.5251 3.85524 15.7414 4.58316C17.8696 5.85692 15.7207 4.85701 14.7792 4.22084C12.0786 2.39596 10.161 0.203763 9.66049 4.56859C9.55977 5.44697 8.6861 9.89414 9.22612 9.53947C10.7572 8.53391 13.0773 8.15066 14.4452 7.13333C16.3176 5.74075 17.8143 5.52985 14.4352 6.3374C13.3327 6.6009 12.3555 6.98874 11.2906 7.29495C9.53578 7.79958 11.7292 6.72471 11.977 6.71889C12.6967 6.70199 14.0138 5.87284 12.4489 6.32285C12.046 6.43871 10.5051 7.14998 10.8946 6.82307C12.1245 5.79085 14.7737 5.66097 13.6209 5.19293C12.6522 4.79961 12.0743 5.09771 11.3427 5.78891C11.0937 6.02418 10.776 7.58066 11.2186 7.20914" stroke="white" stroke-width="1.57514" stroke-linecap="round"/>
</svg>
