<svg width="60" height="60" viewBox="0 0 60 60" fill="none" xmlns="http://www.w3.org/2000/svg">
<rect width="60" height="60" rx="30" fill="#FFA92C" fill-opacity="0.1"/>
<g clip-path="url(#clip0_3692_2886)">
<path d="M36.25 25H23.75C22.375 25 21.25 26.125 21.25 27.5V40C21.25 41.375 22.375 42.5 23.75 42.5H36.25C37.625 42.5 38.75 41.375 38.75 40V27.5C38.75 26.125 37.625 25 36.25 25ZM30 40.625C29.3125 40.625 28.75 40.0625 28.75 39.375V38.75H31.25V39.375C31.25 40.0625 30.6875 40.625 30 40.625ZM31.25 37.5H28.75C28.75 35.625 25.625 33.75 25.625 31.25C25.625 28.8375 27.5875 26.875 30 26.875C32.4125 26.875 34.375 28.8375 34.375 31.25C34.375 33.75 31.25 35.625 31.25 37.5ZM37.5 23.125H22.5C22.5 22.0875 23.3375 21.25 24.375 21.25H35.625C36.6625 21.25 37.5 22.0875 37.5 23.125ZM36.25 19.375H23.75C23.75 18.3375 24.5875 17.5 25.625 17.5H34.375C35.4125 17.5 36.25 18.3375 36.25 19.375Z" fill="#FFA92C"/>
</g>
<defs>
<clipPath id="clip0_3692_2886">
<rect width="30" height="30" fill="white" transform="translate(15 15)"/>
</clipPath>
</defs>
</svg>
