<svg width="60" height="60" viewBox="0 0 60 60" fill="none" xmlns="http://www.w3.org/2000/svg">
<rect width="60" height="60" rx="30" fill="#FFA92C" fill-opacity="0.1"/>
<g clip-path="url(#clip0_3692_2920)">
<path d="M30 29.4375C27.725 27.3125 24.85 25.825 21.65 25.25C20.1375 24.9875 18.75 26.1875 18.75 27.725V35.525C18.75 37.625 19.65 38.725 20.8875 38.8875C24.0125 39.2875 26.85 40.575 29.175 42.475C29.6125 42.8375 30.325 42.875 30.7625 42.525C33.1 40.6125 35.9625 39.3 39.1125 38.9C40.2875 38.7375 41.25 37.575 41.25 36.375V27.725C41.25 26.1875 39.8625 24.9875 38.35 25.25C35.15 25.825 32.275 27.3125 30 29.4375ZM30 25C32.075 25 33.75 23.325 33.75 21.25C33.75 19.175 32.075 17.5 30 17.5C27.925 17.5 26.25 19.175 26.25 21.25C26.25 23.325 27.925 25 30 25Z" fill="#FFA92C"/>
</g>
<defs>
<clipPath id="clip0_3692_2920">
<rect width="30" height="30" fill="white" transform="translate(15 15)"/>
</clipPath>
</defs>
</svg>
