<svg width="60" height="60" viewBox="0 0 60 60" fill="none" xmlns="http://www.w3.org/2000/svg">
<rect width="60" height="60" rx="30" fill="#007EF2" fill-opacity="0.1"/>
<path d="M18.75 22.5C18.0625 22.5 17.5 23.0625 17.5 23.75V40C17.5 41.375 18.625 42.5 20 42.5H36.25C36.9375 42.5 37.5 41.9375 37.5 41.25C37.5 40.5625 36.9375 40 36.25 40H21.25C20.5625 40 20 39.4375 20 38.75V23.75C20 23.0625 19.4375 22.5 18.75 22.5ZM40 17.5H25C23.625 17.5 22.5 18.625 22.5 20V35C22.5 36.375 23.625 37.5 25 37.5H40C41.375 37.5 42.5 36.375 42.5 35V20C42.5 18.625 41.375 17.5 40 17.5ZM37.5 28.75H33.75V32.5C33.75 33.1875 33.1875 33.75 32.5 33.75C31.8125 33.75 31.25 33.1875 31.25 32.5V28.75H27.5C26.8125 28.75 26.25 28.1875 26.25 27.5C26.25 26.8125 26.8125 26.25 27.5 26.25H31.25V22.5C31.25 21.8125 31.8125 21.25 32.5 21.25C33.1875 21.25 33.75 21.8125 33.75 22.5V26.25H37.5C38.1875 26.25 38.75 26.8125 38.75 27.5C38.75 28.1875 38.1875 28.75 37.5 28.75Z" fill="#007EF2"/>
</svg>
