<svg width="60" height="60" viewBox="0 0 60 60" fill="none" xmlns="http://www.w3.org/2000/svg">
<rect width="60" height="60" rx="30" fill="#FF635F" fill-opacity="0.1"/>
<g clip-path="url(#clip0_3692_2878)">
<path d="M27.5 35V25C27.5 23.625 28.6125 22.5 30 22.5H41.25V21.25C41.25 19.875 40.125 18.75 38.75 18.75H21.25C19.8625 18.75 18.75 19.875 18.75 21.25V38.75C18.75 40.125 19.8625 41.25 21.25 41.25H38.75C40.125 41.25 41.25 40.125 41.25 38.75V37.5H30C28.6125 37.5 27.5 36.375 27.5 35ZM31.25 25C30.5625 25 30 25.5625 30 26.25V33.75C30 34.4375 30.5625 35 31.25 35H42.5V25H31.25ZM35 31.875C33.9625 31.875 33.125 31.0375 33.125 30C33.125 28.9625 33.9625 28.125 35 28.125C36.0375 28.125 36.875 28.9625 36.875 30C36.875 31.0375 36.0375 31.875 35 31.875Z" fill="#FF635F"/>
</g>
<defs>
<clipPath id="clip0_3692_2878">
<rect width="30" height="30" fill="white" transform="translate(15 15)"/>
</clipPath>
</defs>
</svg>
