<svg width="60" height="60" viewBox="0 0 60 60" fill="none" xmlns="http://www.w3.org/2000/svg">
<rect width="60" height="60" rx="30" fill="#007EF2" fill-opacity="0.1"/>
<g clip-path="url(#clip0_3692_2936)">
<path d="M23.75 20C23.75 18.6125 22.6375 17.5 21.25 17.5C19.8625 17.5 18.75 18.6125 18.75 20C18.75 21.3875 19.8625 22.5 21.25 22.5C22.6375 22.5 23.75 21.3875 23.75 20ZM27.7375 20.625C27.225 20.625 26.7875 20.9375 26.5875 21.4125C26.0375 22.7875 24.7 23.75 23.125 23.75H19.375C18.3375 23.75 17.5 24.5875 17.5 25.625V28.75H25V25.925C26.7875 25.3625 28.225 24.0125 28.9 22.2875C29.225 21.4875 28.6 20.625 27.7375 20.625ZM38.75 36.25C40.1375 36.25 41.25 35.1375 41.25 33.75C41.25 32.3625 40.1375 31.25 38.75 31.25C37.3625 31.25 36.25 32.3625 36.25 33.75C36.25 35.1375 37.3625 36.25 38.75 36.25ZM40.625 37.5H36.875C35.3 37.5 33.9625 36.5375 33.4125 35.1625C33.225 34.6875 32.775 34.375 32.2625 34.375C31.4 34.375 30.775 35.2375 31.0875 36.0375C31.775 37.7625 33.2 39.1125 34.9875 39.675V42.5H42.4875V39.375C42.5 38.3375 41.6625 37.5 40.625 37.5ZM36.5625 28.8625C36.5625 28.8625 36.5625 28.85 36.575 28.8625C35.25 29.2 34.2 30.25 33.8625 31.575V31.5625C33.725 32.1 33.225 32.5 32.6375 32.5C31.95 32.5 31.3875 31.9375 31.3875 31.25C31.3875 31.1875 31.4125 31.075 31.4125 31.075C31.95 28.7625 33.775 26.9375 36.1 26.4125C36.15 26.4125 36.2 26.4 36.25 26.4C36.9375 26.4 37.5 26.9625 37.5 27.65C37.5 28.225 37.1 28.725 36.5625 28.8625ZM37.5 22.575C37.5 23.2125 37.0375 23.725 36.425 23.8125C32.4375 24.3 29.3 27.45 28.8125 31.4375C28.725 32.0375 28.2 32.5 27.575 32.5C26.8875 32.5 26.325 31.9375 26.325 31.25C26.325 31.225 26.325 31.2 26.325 31.175C26.325 31.1625 26.325 31.15 26.325 31.1375C26.95 25.9875 31.0625 21.9125 36.225 21.325H36.2375C36.9375 21.325 37.5 21.8875 37.5 22.575Z" fill="#007EF2"/>
</g>
<defs>
<clipPath id="clip0_3692_2936">
<rect width="30" height="30" fill="white" transform="translate(15 15)"/>
</clipPath>
</defs>
</svg>
