<svg width="60" height="60" viewBox="0 0 60 60" fill="none" xmlns="http://www.w3.org/2000/svg">
<rect width="60" height="60" rx="30" fill="#EFF3FD"/>
<g clip-path="url(#clip0_3692_2903)">
<path d="M35 27.5H25C24.3125 27.5 23.75 28.0625 23.75 28.75C23.75 29.4375 24.3125 30 25 30H35C35.6875 30 36.25 29.4375 36.25 28.75C36.25 28.0625 35.6875 27.5 35 27.5ZM38.75 18.75H37.5V17.5C37.5 16.8125 36.9375 16.25 36.25 16.25C35.5625 16.25 35 16.8125 35 17.5V18.75H25V17.5C25 16.8125 24.4375 16.25 23.75 16.25C23.0625 16.25 22.5 16.8125 22.5 17.5V18.75H21.25C19.8625 18.75 18.75 19.875 18.75 21.25V38.75C18.75 40.125 19.8625 41.25 21.25 41.25H38.75C40.125 41.25 41.25 40.125 41.25 38.75V21.25C41.25 19.875 40.125 18.75 38.75 18.75ZM37.5 38.75H22.5C21.8125 38.75 21.25 38.1875 21.25 37.5V25H38.75V37.5C38.75 38.1875 38.1875 38.75 37.5 38.75ZM31.25 32.5H25C24.3125 32.5 23.75 33.0625 23.75 33.75C23.75 34.4375 24.3125 35 25 35H31.25C31.9375 35 32.5 34.4375 32.5 33.75C32.5 33.0625 31.9375 32.5 31.25 32.5Z" fill="#007EF2"/>
</g>
<defs>
<clipPath id="clip0_3692_2903">
<rect width="30" height="30" fill="white" transform="translate(15 15)"/>
</clipPath>
</defs>
</svg>
