<svg width="666" height="444" viewBox="0 0 666 444" fill="none" xmlns="http://www.w3.org/2000/svg">
<path d="M167.158 63.5742H85.6924V181.66H167.158V63.5742Z" fill="#E0E0E0"/>
<path d="M163.071 63.5742H81.6055V181.66H163.071V63.5742Z" fill="#F5F5F5"/>
<path d="M152.957 76.3594H91.7295V168.862H152.957V76.3594Z" fill="white"/>
<path d="M152.958 168.873C152.958 168.873 152.958 168.713 152.958 168.42C152.958 168.127 152.958 167.674 152.958 167.106C152.958 165.942 152.958 164.238 152.958 162.035C152.958 157.595 152.958 151.14 152.896 142.979C152.896 126.666 152.842 103.561 152.798 76.3788L153.002 76.5831H91.7836L92.0056 76.3611C92.0056 111.259 92.0056 143.432 92.0056 168.873L91.828 168.695L136.397 168.784L148.704 168.828H151.937H153.056H151.972H148.775H136.503L91.828 168.917H91.6504V168.74C91.6504 143.299 91.6504 111.126 91.6504 76.2279V76.0059H91.8813H153.1H153.304V76.3699C153.304 103.632 153.224 126.773 153.207 143.121C153.207 151.264 153.162 157.702 153.144 162.124C153.144 164.317 153.144 166.005 153.144 167.159C153.144 167.719 153.144 168.154 153.144 168.447C153.144 168.74 152.958 168.873 152.958 168.873Z" fill="#E0E0E0"/>
<path d="M163.312 63.5742C162.891 64.3293 162.403 65.0455 161.855 65.7143C160.914 66.9753 159.564 68.698 158.037 70.5628C156.51 72.4276 155.071 74.0704 154.005 75.2425C153.47 75.9047 152.876 76.517 152.229 77.0718C152.689 76.3515 153.209 75.6713 153.783 75.0383L157.708 70.2786L161.616 65.4923C162.126 64.8061 162.693 64.1644 163.312 63.5742Z" fill="#E0E0E0"/>
<path d="M153.268 168.568C156.308 173.395 159.882 177.863 163.924 181.888L153.268 168.568Z" fill="white"/>
<path d="M163.951 181.924C163.268 181.43 162.642 180.861 162.086 180.228C160.667 178.784 159.321 177.27 158.055 175.69C156.581 173.834 155.347 172.067 154.503 170.762C154.018 170.073 153.601 169.338 153.26 168.568C153.809 169.202 154.311 169.876 154.76 170.584C155.648 171.845 156.927 173.568 158.392 175.406C159.858 177.244 161.278 178.86 162.308 180.015C162.901 180.611 163.45 181.249 163.951 181.924Z" fill="#E0E0E0"/>
<path d="M81.5977 181.561L92.2537 168.4L81.5977 181.561Z" fill="white"/>
<path d="M92.2714 168.4C90.6641 170.728 88.9392 172.971 87.1033 175.123C85.3852 177.366 83.5474 179.515 81.5977 181.561C83.2049 179.233 84.9299 176.99 86.7658 174.838C88.4838 172.595 90.3217 170.446 92.2714 168.4Z" fill="#E0E0E0"/>
<path d="M81.6055 63.5742C83.4463 65.55 85.1775 67.6251 86.7914 69.7902C88.5197 71.8574 90.1324 74.0185 91.6221 76.2637C89.7844 74.2876 88.0562 72.2125 86.4451 70.0477C84.7144 67.9802 83.0988 65.8191 81.6055 63.5742Z" fill="#E0E0E0"/>
<path d="M133.884 95.1406H113.38V153.349H133.884V95.1406Z" fill="#E0E0E0"/>
<path d="M276.993 46.3633V98.0804H202.721L200.048 46.7274L276.993 46.3633Z" fill="#E0E0E0"/>
<path d="M200.039 46.7272V97.9648H274.311V46.7272L200.039 46.7272Z" fill="white"/>
<path d="M274.667 98.3191H199.693V46.3711H274.667V98.3191ZM200.404 97.6176H273.966V47.0637H200.404V97.6176Z" fill="#E0E0E0"/>
<path d="M266.275 53.0957H208.093V91.5994H266.275V53.0957Z" fill="white"/>
<path d="M266.275 53.0965H265.156H261.959H249.971L208.093 53.2829L208.262 53.1142C208.262 64.8802 208.262 77.9161 208.262 91.6179L208.084 91.4403H266.266L266.115 91.5824C266.115 79.8697 266.177 70.2704 266.195 63.566C266.195 60.2271 266.195 57.6164 266.195 55.8226C266.195 54.9346 266.195 54.2597 266.195 53.7891C266.195 53.3185 266.195 53.0787 266.195 53.0787C266.195 53.0787 266.195 53.3007 266.195 53.7536C266.195 54.2065 266.195 54.8902 266.195 55.7605C266.195 57.5365 266.195 60.1472 266.239 63.4772C266.239 70.1905 266.283 79.8341 266.31 91.5824V91.7333H266.168H207.986H207.8V91.5469C207.8 77.845 207.8 64.8092 207.8 53.0432V52.9277H207.969L249.962 53.0077L261.915 53.0609H265.076H266.15L266.275 53.0965Z" fill="#E0E0E0"/>
<path d="M200.048 46.5859C200.507 46.8067 200.937 47.0841 201.327 47.4118C202.081 47.9623 203.103 48.7438 204.239 49.6318C205.376 50.5198 206.335 51.4078 207.028 52.0027C207.424 52.3244 207.781 52.6909 208.093 53.095C206.678 52.1056 205.315 51.0445 204.008 49.9159C202.619 48.891 201.296 47.7788 200.048 46.5859Z" fill="#E0E0E0"/>
<path d="M274.32 46.7266C273.098 47.9282 271.793 49.0411 270.412 50.0566C269.106 51.165 267.724 52.1798 266.274 53.0935C267.496 51.8918 268.802 50.779 270.182 49.7635C271.486 48.6527 272.869 47.6378 274.32 46.7266Z" fill="#E0E0E0"/>
<path d="M274.258 97.975L265.973 91.2617L274.258 97.975Z" fill="white"/>
<path d="M265.973 91.2617C267.462 92.2386 268.886 93.3124 270.235 94.4763C271.653 95.551 272.997 96.7199 274.258 97.975C272.767 97.0039 271.345 95.9298 270.004 94.7604C268.58 93.6902 267.233 92.521 265.973 91.2617Z" fill="#E0E0E0"/>
<path d="M200.048 97.9639C201.254 96.7769 202.545 95.6788 203.911 94.6783C205.203 93.5796 206.57 92.5736 208.004 91.668C206.802 92.8618 205.51 93.9631 204.142 94.9624C202.851 96.0602 201.483 97.0633 200.048 97.9639Z" fill="#E0E0E0"/>
<path d="M219.903 65.0906V77.9844H256.516V65.0906H219.903Z" fill="#E0E0E0"/>
<path d="M579.588 278.093C579.588 278.093 572.919 274.985 567.689 290.614C562.459 306.243 560.905 315.043 560.905 315.043C560.905 315.043 559.404 318.382 557.015 316.704C554.627 315.025 550.924 309.813 547.523 311.376C544.122 312.939 543.393 317.272 545.001 323.213C546.608 329.153 549.654 342.287 549.92 343.477C550.187 344.667 549.769 346.487 547.967 345.608C546.164 344.729 535.135 335.627 531.095 341.106C527.054 346.585 534.283 362.418 535.037 364.141C535.792 365.863 535.552 366.716 534.753 367.293C533.954 367.87 530.553 364.46 527.312 361.965C524.071 359.47 519.888 357.223 517.837 360.58C515.786 363.936 516.851 376.448 531.654 394.812L539.069 402.866L549.84 400.637C572.6 394.466 580.805 384.964 581.116 381.039C581.426 377.114 576.676 376.51 572.635 376.599C568.595 376.688 563.809 377.443 563.507 376.502C563.205 375.56 563.507 374.726 565.123 373.838C566.739 372.95 581.862 364.292 581.844 357.498C581.826 350.705 567.556 351.611 565.576 351.282C563.595 350.954 564.341 349.196 565.238 348.405C566.135 347.615 576.329 338.753 581.116 334.89C585.902 331.027 587.944 327.2 586.026 323.834C584.108 320.469 578.123 322.627 575.211 322.582C572.298 322.538 573.035 318.95 573.035 318.95C573.035 318.95 576.942 310.958 581.915 295.196C586.888 279.434 579.446 278.076 579.446 278.076" fill="#EBEBEB"/>
<path d="M537.665 405.1C541.341 393.556 548.214 373.176 554.031 355.638C559.847 338.1 565.095 322.232 568.834 310.723C570.69 304.969 572.191 300.316 573.274 297.083C573.798 295.485 574.162 294.233 574.482 293.372C574.618 292.963 574.724 292.643 574.801 292.413C574.872 292.191 574.917 292.084 574.917 292.084C574.917 292.084 574.917 292.199 574.828 292.421C574.739 292.643 574.668 292.972 574.544 293.389C574.277 294.277 573.895 295.512 573.398 297.119C572.404 300.36 570.938 305.031 569.091 310.794C565.415 322.338 560.211 338.216 554.395 355.745C548.579 373.274 541.661 393.662 537.923 405.171" fill="#E0E0E0"/>
<path d="M552.416 318.863C552.564 319.082 552.691 319.314 552.798 319.556C553.029 320.009 553.34 320.684 553.686 321.51C554.441 323.17 555.462 325.488 556.448 328.063C557.433 330.638 558.366 332.903 559.112 334.661C559.422 335.451 559.698 336.126 559.911 336.659C560.032 336.895 560.122 337.145 560.177 337.405C560.029 337.186 559.902 336.954 559.795 336.712C559.564 336.259 559.254 335.593 558.907 334.759C558.17 333.089 557.22 330.762 556.19 328.187C555.16 325.612 554.236 323.357 553.526 321.607L552.709 319.609C552.58 319.374 552.482 319.123 552.416 318.863Z" fill="#E0E0E0"/>
<path d="M561.215 337.441C561.171 337.352 565.859 335.132 571.685 332.468C577.51 329.804 582.252 327.726 582.341 327.815C582.429 327.904 577.688 330.124 571.862 332.779C566.037 335.434 561.215 337.539 561.215 337.441Z" fill="#E0E0E0"/>
<path d="M551.039 363.973C551.298 363.89 551.567 363.836 551.838 363.814L554.014 363.494C555.843 363.227 558.383 362.846 561.162 362.313C563.942 361.78 566.437 361.238 568.266 360.812L570.406 360.324C570.666 360.243 570.934 360.195 571.206 360.182C570.96 360.293 570.704 360.383 570.442 360.448C569.945 360.599 569.225 360.812 568.328 361.052C566.552 361.531 564.031 362.126 561.224 362.65C558.418 363.174 555.896 363.538 554.041 363.734C553.153 363.84 552.371 363.911 551.847 363.947C551.579 363.979 551.309 363.988 551.039 363.973Z" fill="#E0E0E0"/>
<path d="M539.406 348.904C539.598 349.064 539.771 349.246 539.921 349.446L541.227 351.009C542.319 352.332 543.802 354.179 545.427 356.23C547.052 358.282 548.517 360.146 549.556 361.514L550.773 363.139C550.932 363.332 551.072 363.54 551.19 363.761C550.995 363.603 550.822 363.421 550.675 363.219L549.37 361.665C548.277 360.333 546.794 358.495 545.16 356.443C543.527 354.392 542.079 352.518 541.04 351.16L539.824 349.535C539.66 349.342 539.52 349.13 539.406 348.904Z" fill="#E0E0E0"/>
<path d="M527.472 371.186C527.712 371.396 527.929 371.631 528.12 371.887C528.564 372.402 529.123 373.077 529.798 373.876C531.21 375.563 533.128 377.917 535.242 380.527C537.355 383.138 539.247 385.509 540.57 387.241L542.168 389.292C542.372 389.539 542.553 389.803 542.71 390.082C542.476 389.866 542.259 389.631 542.062 389.381L540.383 387.392C538.98 385.695 537.053 383.351 534.94 380.74C532.826 378.13 530.935 375.759 529.612 374.027C528.972 373.201 528.431 372.509 528.022 371.967C527.814 371.725 527.629 371.463 527.472 371.186Z" fill="#E0E0E0"/>
<path d="M542.567 389.523C542.893 389.424 543.225 389.35 543.562 389.301L546.306 388.804C548.624 388.377 551.82 387.774 555.328 387.028C558.836 386.282 561.997 385.5 564.279 384.923L566.987 384.248C567.316 384.15 567.651 384.079 567.991 384.035C567.679 384.177 567.355 384.29 567.023 384.373C566.392 384.568 565.478 384.843 564.359 385.154C562.086 385.793 558.933 386.601 555.417 387.356C551.9 388.111 548.695 388.688 546.368 389.052C545.205 389.239 544.255 389.372 543.606 389.452C543.263 389.509 542.915 389.533 542.567 389.523Z" fill="#E0E0E0"/>
<path d="M599.4 404.776C599.4 404.9 477.397 405.007 326.943 405.007C176.49 405.007 54.4873 404.927 54.4873 404.776C54.4873 404.625 176.463 404.545 326.979 404.545C477.495 404.545 599.4 404.651 599.4 404.776Z" fill="#263238"/>
<path d="M432.773 95.7481L424.323 102.975L435.602 116.162L444.051 108.935L432.773 95.7481Z" fill="#263238"/>
<path d="M440.075 94.7236L422.688 109.66L410.496 95.4518C415.291 88.7207 421.01 83.6414 427.857 80.5156L440.075 94.7236Z" fill="#455A64"/>
<path d="M425.618 107.154C425.521 107.243 422.581 104.011 419.047 99.9527C415.513 95.8945 412.725 92.5379 412.831 92.4491C412.938 92.3603 415.868 95.5926 419.402 99.6507C422.937 103.709 425.716 107.074 425.618 107.154Z" fill="#263238"/>
<path d="M428.905 104.313C428.202 103.63 427.549 102.897 426.951 102.12C425.779 100.743 424.189 98.8342 422.44 96.703L418 91.2329L416.668 89.5724C416.348 89.1639 416.18 88.9774 416.18 88.9508C416.357 88.7909 419.314 92.1565 422.813 96.41C424.589 98.5412 426.116 100.486 427.253 101.916C427.873 102.665 428.426 103.467 428.905 104.313Z" fill="#263238"/>
<path d="M433.344 100.521C432.631 99.8396 431.969 99.1065 431.364 98.3277C430.183 96.9335 428.585 94.9888 426.827 92.8309L422.387 87.2721L421.055 85.576C420.882 85.3738 420.727 85.1569 420.593 84.9277C421.356 85.5581 422.041 86.2764 422.635 87.0678C423.834 88.4442 425.45 90.3801 427.199 92.5379C428.949 94.6957 430.521 96.676 431.639 98.1234C432.274 98.8733 432.844 99.6754 433.344 100.521Z" fill="#263238"/>
<path d="M437.348 96.9695C437.251 97.0494 434.329 93.7905 430.821 89.6879C427.314 85.5854 424.561 82.1843 424.659 82.0955C424.756 82.0067 427.669 85.2746 431.177 89.386C434.684 93.4974 437.446 96.8896 437.348 96.9695Z" fill="#263238"/>
<path d="M581.566 104.723L573.885 96.6855L561.34 108.673L569.021 116.711L581.566 104.723Z" fill="#263238"/>
<path d="M581.933 112.634L566.108 96.0727L579.633 83.1523C586.595 87.5923 591.976 93.0358 595.448 99.7135L581.933 112.634Z" fill="#455A64"/>
<path d="M568.756 98.8497C568.667 98.752 571.731 95.644 575.602 91.9055C579.474 88.1671 582.706 85.21 582.768 85.2988C582.831 85.3876 579.794 88.4956 575.922 92.243C572.05 95.9903 568.845 98.9385 568.756 98.8497Z" fill="#263238"/>
<path d="M571.774 102.004C572.405 101.258 573.094 100.564 573.835 99.9261C575.14 98.6829 576.969 96.9868 579.003 95.122L584.233 90.389L585.823 88.9682C586.204 88.6307 586.391 88.462 586.418 88.4531C586.586 88.6218 583.381 91.7565 579.314 95.4683C577.28 97.3242 575.415 99.0203 574.048 100.166C573.339 100.837 572.579 101.452 571.774 102.004Z" fill="#263238"/>
<path d="M575.788 106.204C576.427 105.452 577.125 104.751 577.875 104.109C579.198 102.857 581.054 101.152 583.123 99.287L588.451 94.545L590.076 93.1242C590.274 92.9477 590.482 92.7817 590.698 92.627C590.11 93.4238 589.431 94.1481 588.673 94.7848C587.359 96.0546 585.503 97.7685 583.443 99.6333C581.383 101.498 579.482 103.185 578.115 104.357C577.388 105.032 576.61 105.649 575.788 106.204Z" fill="#263238"/>
<path d="M579.545 110.032C579.456 109.934 582.564 106.853 586.48 103.132C590.396 99.4113 593.646 96.4809 593.735 96.5785C593.824 96.6762 590.716 99.7576 586.8 103.469C582.884 107.181 579.634 110.112 579.545 110.032Z" fill="#263238"/>
<path d="M510.672 66.3516H497.512V86.891H510.672V66.3516Z" fill="#263238"/>
<path d="M517.704 72.4966H490.62V50.3588C500.113 48.0145 509.17 47.8724 517.731 50.3588L517.704 72.4966Z" fill="#455A64"/>
<path d="M518.05 50.4483C517.733 50.6468 517.397 50.8133 517.047 50.9455C516.12 51.3539 515.168 51.7039 514.197 51.9934C512.742 52.4415 511.258 52.7916 509.757 53.0412C507.932 53.3307 506.089 53.4851 504.242 53.503C502.396 53.5057 500.553 53.3692 498.728 53.0945C497.226 52.8617 495.743 52.5264 494.288 52.0911C493.315 51.8066 492.361 51.4656 491.428 51.0699C491.075 50.9476 490.739 50.7836 490.425 50.5815C490.425 50.5015 491.917 51.1143 494.376 51.7714C495.82 52.1529 497.285 52.4494 498.763 52.6594C500.57 52.9039 502.392 53.0285 504.215 53.0323C506.04 53.0116 507.862 52.8692 509.668 52.6061C511.14 52.3932 512.598 52.0967 514.037 51.7181C516.559 50.9988 518.015 50.3683 518.05 50.4483Z" fill="#263238"/>
<path d="M499.571 72.4327C499.446 72.4327 499.34 68.1792 499.34 62.94C499.34 57.7008 499.446 53.4473 499.571 53.4473C499.695 53.4473 499.802 57.6919 499.802 62.94C499.802 68.1881 499.704 72.4327 499.571 72.4327Z" fill="#263238"/>
<path d="M504.73 72.5575C504.606 72.5575 504.499 68.2863 504.499 63.0204C504.499 57.7546 504.606 53.4922 504.73 53.4922C504.854 53.4922 504.961 57.7546 504.961 63.0204C504.961 68.2863 504.863 72.5575 504.73 72.5575Z" fill="#263238"/>
<path d="M509.889 72.4766C509.765 72.4766 509.658 68.2053 509.658 62.9395C509.658 57.6736 509.765 53.4023 509.889 53.4023C510.013 53.4023 510.12 57.6736 510.12 62.9395C510.12 68.2053 510.022 72.4766 509.889 72.4766Z" fill="#263238"/>
<path d="M514.152 72.4787C514.019 72.4787 513.921 67.8611 513.921 62.1691C513.921 56.477 514.019 51.8594 514.152 51.8594C514.285 51.8594 514.383 56.477 514.383 62.1691C514.383 67.8611 514.312 72.4787 514.152 72.4787Z" fill="#263238"/>
<path d="M494.696 72.3459C494.571 72.3459 494.465 67.7283 494.465 62.0362C494.465 56.3442 494.571 51.7266 494.696 51.7266C494.82 51.7266 494.927 56.3442 494.927 62.0362C494.927 67.7283 494.829 72.3459 494.696 72.3459Z" fill="#263238"/>
<path d="M570.209 243.997C607.603 206.603 607.603 145.975 570.209 108.581C532.815 71.1875 472.187 71.1875 434.794 108.581C397.4 145.975 397.4 206.603 434.794 243.997C472.187 281.391 532.815 281.391 570.209 243.997Z" fill="#FFA217"/>
<path d="M502.502 255.948C546.915 255.948 582.92 219.944 582.92 175.531C582.92 131.117 546.915 95.1133 502.502 95.1133C458.089 95.1133 422.085 131.117 422.085 175.531C422.085 219.944 458.089 255.948 502.502 255.948Z" fill="#FAFAFA"/>
<path d="M582.919 175.531C582.919 175.531 582.919 175.096 582.857 174.235C582.795 173.373 582.857 172.086 582.688 170.408C582.371 165.511 581.604 160.654 580.397 155.898C579.527 152.465 578.426 149.095 577.103 145.81C575.547 141.894 573.676 138.11 571.508 134.497C566.205 125.669 559.274 117.928 551.084 111.684C541.144 104.122 529.573 98.9884 517.296 96.6947C506.89 94.78 496.211 94.9036 485.852 97.0587C482.214 97.8484 478.631 98.8717 475.125 100.122C460.205 105.557 447.228 115.287 437.829 128.085C435.376 131.418 433.191 134.94 431.293 138.617C430.307 140.455 429.464 142.364 428.629 144.283C427.794 146.201 427.048 148.19 426.418 150.214C425.055 154.266 424.033 158.425 423.363 162.646C422.689 166.915 422.336 171.228 422.306 175.549C422.338 179.873 422.688 184.188 423.354 188.461C424.034 192.68 425.056 196.838 426.409 200.893C427.048 202.908 427.848 204.862 428.62 206.816C429.393 208.769 430.325 210.652 431.284 212.49C433.182 216.169 435.37 219.691 437.829 223.022C447.225 235.824 460.203 245.558 475.125 250.994C478.631 252.244 482.214 253.267 485.852 254.057C489.399 254.798 492.991 255.3 496.605 255.558C503.522 256.081 510.478 255.699 517.296 254.421C529.573 252.127 541.144 246.994 551.084 239.432C559.277 233.191 566.208 225.449 571.508 216.619C573.674 213.005 575.545 209.221 577.103 205.306C580.257 197.455 582.142 189.152 582.688 180.708C582.839 179.03 582.812 177.742 582.857 176.881C582.901 176.02 582.919 175.576 582.919 175.576C582.919 175.576 582.919 176.02 582.919 176.881C582.919 177.742 582.919 179.03 582.795 180.708C582.309 189.175 580.458 197.509 577.316 205.386C575.769 209.32 573.904 213.122 571.739 216.752C566.448 225.625 559.517 233.409 551.315 239.689C541.34 247.298 529.723 252.468 517.394 254.785C510.545 256.079 503.556 256.473 496.605 255.957C492.974 255.7 489.363 255.199 485.798 254.457C482.139 253.67 478.535 252.643 475.009 251.384C460.001 245.929 446.945 236.149 437.491 223.279C435.024 219.931 432.826 216.391 430.92 212.694C429.925 210.847 429.073 208.911 428.203 206.984C427.333 205.057 426.622 203.059 425.983 201.026C424.621 196.955 423.593 192.779 422.91 188.54C421.501 179.943 421.501 171.173 422.91 162.575C423.596 158.355 424.624 154.197 425.983 150.143C426.631 148.11 427.43 146.147 428.212 144.185C428.993 142.222 429.925 140.331 430.92 138.484C432.833 134.789 435.033 131.249 437.5 127.899C446.95 115.031 460.003 105.253 475.009 99.8027C478.532 98.5449 482.133 97.5186 485.79 96.7302C489.357 95.989 492.971 95.4876 496.605 95.2295C503.553 94.7134 510.539 95.1075 517.385 96.4016C529.718 98.7092 541.336 103.88 551.306 111.498C559.508 117.782 566.439 125.569 571.73 134.444C575.708 141.143 578.699 148.38 580.61 155.933C581.795 160.706 582.535 165.578 582.821 170.487C582.955 172.166 582.91 173.453 582.946 174.315C582.981 175.176 582.919 175.531 582.919 175.531Z" fill="#263238"/>
<path d="M571.117 172.617C568.568 172.724 566.49 172.617 566.481 172.395C566.473 172.173 568.524 171.871 571.072 171.729C573.621 171.587 575.699 171.676 575.717 171.942C575.734 172.209 573.648 172.511 571.117 172.617Z" fill="#263238"/>
<path d="M569.403 191.132C566.916 190.546 564.963 189.898 564.963 189.676C564.963 189.454 567.076 189.72 569.572 190.262C572.067 190.804 574.012 191.461 574.012 191.718C574.012 191.976 571.872 191.71 569.403 191.132Z" fill="#263238"/>
<path d="M562.771 208.494C560.524 207.269 558.801 206.105 558.908 205.91C559.015 205.715 560.933 206.523 563.188 207.686C565.444 208.849 567.175 210.048 567.051 210.279C566.927 210.51 565.009 209.728 562.771 208.494Z" fill="#263238"/>
<path d="M551.716 223.446C549.886 221.67 548.528 220.09 548.688 219.894C548.847 219.699 550.464 221.022 552.328 222.78C554.193 224.538 555.534 226.11 555.356 226.332C555.179 226.554 553.536 225.231 551.716 223.446Z" fill="#263238"/>
<path d="M537.063 234.902C535.784 232.691 534.896 230.809 535.091 230.693C535.287 230.578 536.512 232.265 537.826 234.449C539.141 236.634 540.029 238.516 539.807 238.658C539.585 238.801 538.35 237.096 537.063 234.902Z" fill="#263238"/>
<path d="M519.88 241.997C519.24 239.52 518.894 237.468 519.116 237.415C519.338 237.362 520.057 239.307 520.741 241.766C521.425 244.226 521.762 246.277 521.505 246.348C521.247 246.419 520.519 244.466 519.88 241.997Z" fill="#263238"/>
<path d="M501.418 244.199C501.418 241.641 501.676 239.572 501.898 239.572C502.12 239.572 502.306 241.65 502.306 244.199C502.306 246.747 502.084 248.825 501.827 248.825C501.569 248.825 501.374 246.765 501.418 244.199Z" fill="#263238"/>
<path d="M483.072 241.419C483.801 238.968 484.564 237.041 484.786 237.103C485.008 237.165 484.618 239.208 483.898 241.667C483.179 244.127 482.442 246.107 482.184 245.983C481.927 245.859 482.3 243.87 483.072 241.419Z" fill="#263238"/>
<path d="M466.084 233.775C467.443 231.617 468.695 229.957 468.891 230.072C469.086 230.188 468.162 232.061 466.839 234.246C465.516 236.43 464.255 238.082 464.033 237.949C463.811 237.815 464.726 235.942 466.084 233.775Z" fill="#263238"/>
<path d="M451.796 221.875C453.688 220.152 455.348 218.891 455.491 219.06C455.633 219.229 454.265 220.774 452.4 222.523C450.535 224.273 448.893 225.534 448.706 225.347C448.52 225.161 449.914 223.598 451.796 221.875Z" fill="#263238"/>
<path d="M441.211 206.585C443.493 205.439 445.429 204.667 445.527 204.862C445.625 205.058 443.884 206.185 441.62 207.375C439.355 208.565 437.428 209.338 437.304 209.098C437.18 208.858 438.938 207.739 441.211 206.585Z" fill="#263238"/>
<path d="M435.121 189.021C437.634 188.524 439.703 188.302 439.747 188.524C439.792 188.746 437.802 189.358 435.307 189.891C432.812 190.424 430.734 190.646 430.681 190.388C430.627 190.131 432.634 189.518 435.121 189.021Z" fill="#263238"/>
<path d="M433.993 170.495C436.542 170.681 438.593 171.019 438.584 171.241C438.575 171.463 436.488 171.525 433.94 171.374C431.391 171.223 429.331 170.895 429.349 170.628C429.367 170.362 431.444 170.264 433.993 170.495Z" fill="#263238"/>
<path d="M437.855 152.265C440.262 153.153 442.144 154.041 442.073 154.227C442.002 154.414 439.978 153.934 437.562 153.1C435.147 152.265 433.264 151.395 433.344 151.146C433.424 150.897 435.458 151.395 437.855 152.265Z" fill="#263238"/>
<path d="M446.478 135.792C448.556 137.275 450.136 138.625 450.03 138.811C449.923 138.998 448.094 137.967 445.99 136.52C443.885 135.073 442.304 133.723 442.438 133.501C442.571 133.279 444.391 134.309 446.478 135.792Z" fill="#263238"/>
<path d="M459.185 122.225C460.792 124.205 461.955 125.927 461.787 126.078C461.618 126.229 460.135 124.746 458.501 122.784C456.867 120.821 455.695 119.108 455.899 118.939C456.103 118.77 457.577 120.244 459.185 122.225Z" fill="#263238"/>
<path d="M475.08 112.547C476.092 114.891 476.758 116.863 476.545 116.987C476.332 117.111 475.32 115.264 474.272 112.938C473.224 110.611 472.558 108.64 472.798 108.498C473.038 108.356 474.041 110.212 475.08 112.547Z" fill="#263238"/>
<path d="M492.964 107.508C493.31 110.038 493.417 112.116 493.186 112.152C492.955 112.187 492.466 110.163 492.085 107.641C491.703 105.119 491.596 103.032 491.854 102.997C492.111 102.961 492.617 104.977 492.964 107.508Z" fill="#263238"/>
<path d="M511.56 107.447C511.222 109.978 510.769 112.012 510.547 111.985C510.325 111.958 510.379 109.872 510.68 107.341C510.982 104.81 511.435 102.768 511.693 102.803C511.95 102.839 511.897 104.908 511.56 107.447Z" fill="#263238"/>
<path d="M529.488 112.357C528.484 114.711 527.499 116.54 527.286 116.451C527.072 116.362 527.703 114.382 528.671 112.011C529.639 109.64 530.633 107.82 530.873 107.926C531.113 108.033 530.5 110.013 529.488 112.357Z" fill="#263238"/>
<path d="M545.436 121.922C543.838 123.92 542.399 125.421 542.222 125.279C542.044 125.137 543.172 123.388 544.743 121.372C546.315 119.356 547.745 117.82 547.958 118.024C548.171 118.228 547.008 119.933 545.436 121.922Z" fill="#263238"/>
<path d="M558.25 135.401C556.172 136.893 554.387 137.958 554.254 137.772C554.121 137.585 555.675 136.209 557.726 134.681C559.777 133.154 561.562 132.097 561.722 132.311C561.882 132.524 560.328 133.909 558.25 135.401Z" fill="#263238"/>
<path d="M566.979 151.847C564.581 152.735 562.539 153.259 562.486 153.055C562.432 152.85 564.262 151.927 566.668 151.012C569.074 150.098 571.055 149.556 571.152 149.805C571.25 150.053 569.376 150.959 566.979 151.847Z" fill="#263238"/>
<path d="M570.984 169.98C568.436 170.184 566.358 170.167 566.34 169.98C566.322 169.794 568.365 169.385 570.904 169.092C573.444 168.799 575.531 168.87 575.549 169.137C575.566 169.403 573.506 169.776 570.984 169.98Z" fill="#263238"/>
<path d="M471.27 88.5332L470.995 88.6575L470.178 88.9861C469.468 89.288 468.402 89.6521 467.043 90.247C463.215 91.8474 459.498 93.7015 455.917 95.797C453.643 97.1113 451.237 98.683 448.706 100.45C446.175 102.217 443.591 104.277 441.007 106.595C429.662 116.595 420.996 129.272 415.797 143.474C414.58 146.724 413.666 149.903 412.875 152.878C412.085 155.852 411.552 158.694 411.153 161.287C410.504 165.384 410.127 169.519 410.025 173.666C409.954 175.14 410.025 176.276 410.025 177.049C410.025 177.422 410.025 177.706 410.025 177.937C410.033 178.038 410.033 178.138 410.025 178.239C410.013 178.142 410.013 178.043 410.025 177.946C410.025 177.724 410.025 177.431 410.025 177.058C410.025 176.285 409.927 175.149 409.972 173.675C410.003 169.512 410.333 165.358 410.957 161.243C411.33 158.632 411.907 155.799 412.627 152.789C413.429 149.589 414.395 146.432 415.522 143.332C420.695 129.035 429.412 116.285 440.856 106.275C443.458 103.958 446.104 101.96 448.608 100.139C451.113 98.319 453.581 96.8094 455.881 95.5129C459.487 93.439 463.235 91.6229 467.097 90.0783C468.455 89.51 469.547 89.1903 470.276 88.8973L471.11 88.6131C471.162 88.5826 471.215 88.5559 471.27 88.5332Z" fill="white"/>
<path d="M497.999 83.3479C497.086 83.5375 496.16 83.6592 495.229 83.712C493.506 83.8896 491.144 84.1471 488.533 84.4845C485.922 84.822 483.569 85.1772 481.864 85.4436C480.951 85.6314 480.025 85.7501 479.094 85.7988C479.977 85.491 480.886 85.265 481.811 85.1239C483.507 84.7776 485.86 84.3691 488.471 84.0317C491.082 83.6942 493.47 83.4811 495.202 83.3834C496.131 83.2841 497.068 83.2722 497.999 83.3479Z" fill="white"/>
<g opacity="0.4">
<path d="M438.229 223.873C438.229 223.873 479.902 289.638 544.549 255.956C612.037 220.791 574.741 140.188 574.741 140.188C574.741 140.188 606.496 204.425 540.713 246.304C524.329 256.738 506.489 256.746 492.885 255.379C458.12 251.898 438.229 223.873 438.229 223.873Z" fill="black"/>
</g>
<path d="M524.915 132.791C525.315 144.585 524.959 156.393 523.849 168.142C523.441 172.396 522.961 176.694 521.318 180.645C519.676 184.597 516.878 188.22 512.936 189.889C508.993 191.559 503.949 190.866 501.205 187.598L524.915 132.791Z" fill="#E0E0E0"/>
<path d="M500.752 169.19L529.976 119.977L512.34 175.539L503.327 178.229L500.752 169.19Z" fill="#FF635F"/>
<g opacity="0.4">
<path d="M529.977 119.977L508.301 170.264L512.341 175.539L529.977 119.977Z" fill="black"/>
</g>
<path d="M503.328 187.632C508.521 187.632 512.732 183.422 512.732 178.228C512.732 173.035 508.521 168.824 503.328 168.824C498.134 168.824 493.924 173.035 493.924 178.228C493.924 183.422 498.134 187.632 503.328 187.632Z" fill="#FAFAFA"/>
<path d="M512.731 178.23C512.647 177.466 512.519 176.707 512.349 175.957C511.805 173.931 510.598 172.146 508.922 170.886C507.69 169.96 506.246 169.356 504.721 169.131C503.196 168.906 501.639 169.067 500.193 169.599C499.36 169.893 498.578 170.316 497.875 170.851C497.126 171.394 496.47 172.053 495.93 172.804C494.776 174.378 494.153 176.279 494.153 178.23C494.153 180.182 494.776 182.082 495.93 183.656C497.008 185.119 498.49 186.236 500.193 186.87C501.408 187.316 502.703 187.503 503.994 187.419C505.286 187.334 506.545 186.981 507.693 186.382C508.84 185.782 509.849 184.95 510.655 183.937C511.462 182.925 512.048 181.755 512.376 180.503C512.547 179.754 512.675 178.995 512.758 178.23C512.813 179.009 512.744 179.791 512.553 180.548C512.068 182.665 510.863 184.548 509.144 185.876C507.965 186.791 506.586 187.415 505.121 187.696C503.435 188.018 501.693 187.883 500.077 187.305C499.199 187.002 498.375 186.562 497.635 186C496.85 185.432 496.16 184.743 495.593 183.958C494.37 182.312 493.71 180.316 493.71 178.266C493.71 176.215 494.37 174.219 495.593 172.573C496.163 171.79 496.852 171.101 497.635 170.531C498.378 169.977 499.202 169.54 500.077 169.235C501.692 168.652 503.435 168.517 505.121 168.844C506.912 169.188 508.565 170.041 509.883 171.301C511.202 172.561 512.129 174.175 512.553 175.948C512.731 176.695 512.791 177.465 512.731 178.23Z" fill="#263238"/>
<path d="M510.217 179.639C510.983 175.851 508.533 172.16 504.745 171.394C500.957 170.628 497.266 173.078 496.5 176.866C495.734 180.654 498.184 184.345 501.972 185.111C505.76 185.877 509.451 183.427 510.217 179.639Z" fill="#455A64"/>
<path d="M429.189 403.941H475.454L453.885 218.047L429.189 403.941Z" fill="#E0E0E0"/>
<path d="M201.542 218.047L171.421 406.134L428.453 409.482L453.885 218.047H201.542Z" fill="#FAFAFA"/>
<path d="M442.438 304.212H187.742L193.283 269.58H447.038L442.438 304.212Z" fill="#EBEBEB"/>
<path d="M442.455 304.237H187.715L193.265 269.605H447.064L442.455 304.237ZM187.768 304.193H442.42L447.011 269.561H193.309L187.768 304.193Z" fill="#263238"/>
<path d="M201.542 218.047L193.283 269.577H447.038L453.885 218.047H201.542Z" fill="#007EF2"/>
<path d="M201.577 218.047L453.92 217.834H454.159V218.074C446.727 274.115 438.291 337.67 429.375 404.794V404.998H426.285L171.633 404.927H171.385V404.705L201.577 218.047C201.328 219.592 189.855 291.707 171.855 404.794L171.669 404.572H426.223H429.109L428.887 404.767C437.811 337.643 446.265 274.098 453.751 218.056L453.955 218.287L201.577 218.047Z" fill="#263238"/>
<path d="M447.038 269.58C447.038 269.705 390.206 269.811 320.17 269.811C250.133 269.811 193.283 269.705 193.283 269.58C193.283 269.456 250.115 269.35 320.17 269.35C390.224 269.35 447.038 269.447 447.038 269.58Z" fill="#263238"/>
<path d="M442.438 304.211C442.438 304.345 385.304 304.442 314.85 304.442C244.396 304.442 187.253 304.345 187.253 304.211C187.253 304.078 244.369 303.98 314.85 303.98C385.33 303.98 442.438 304.087 442.438 304.211Z" fill="#263238"/>
<path d="M437.252 336.08C437.252 336.214 380.127 336.311 309.673 336.311C239.219 336.311 182.041 336.214 182.041 336.08C182.041 335.947 239.157 335.85 309.638 335.85C380.118 335.85 437.252 335.956 437.252 336.08Z" fill="#263238"/>
<path d="M432.075 367.952C432.075 368.076 374.941 368.182 304.487 368.182C234.033 368.182 176.891 368.076 176.891 367.952C176.891 367.827 234.007 367.721 304.487 367.721C374.968 367.721 432.075 367.827 432.075 367.952Z" fill="#263238"/>
<path d="M207.499 405.053C207.375 405.053 212.037 374.684 217.925 337.281C223.812 299.879 228.669 269.553 228.794 269.58C228.918 269.607 224.256 299.932 218.378 337.352C212.499 374.773 207.633 405.071 207.499 405.053Z" fill="#263238"/>
<path d="M246.775 405.053C246.642 405.053 251.313 374.684 257.191 337.281C263.07 299.879 267.936 269.553 268.069 269.58C268.203 269.607 263.532 299.932 257.644 337.352C251.757 374.773 246.864 405.071 246.775 405.053Z" fill="#263238"/>
<path d="M283.273 403.695C283.149 403.695 287.766 373.636 293.583 336.606C299.399 299.577 304.239 269.553 304.354 269.58C304.47 269.607 299.861 299.63 294.044 336.677C288.228 373.725 283.388 403.712 283.273 403.695Z" fill="#263238"/>
<path d="M319.37 404.769C319.245 404.769 323.898 374.462 329.768 337.139C335.638 299.817 340.495 269.553 340.619 269.58C340.744 269.607 336.091 299.87 330.221 337.21C324.351 374.551 319.494 404.787 319.37 404.769Z" fill="#263238"/>
<path d="M355.645 404.769C355.521 404.769 360.174 374.462 366.043 337.139C371.913 299.817 376.771 269.553 376.895 269.58C377.019 269.607 372.375 299.87 366.505 337.21C360.636 374.551 355.778 404.787 355.645 404.769Z" fill="#263238"/>
<path d="M391.893 404.927C391.769 404.927 396.431 374.585 402.309 337.2C408.188 299.815 413.045 269.516 413.178 269.543C413.312 269.57 408.641 299.877 402.762 337.271C396.884 374.664 392.017 404.981 391.893 404.927Z" fill="#263238"/>
<g opacity="0.2">
<path d="M369.071 271.995C373.44 270.06 376.175 265.513 377.303 260.869C378.431 256.224 378.253 251.376 378.422 246.59C378.59 241.803 379.159 236.875 381.601 232.764C383.048 230.339 385.082 228.324 386.689 225.988C388.296 223.653 389.486 220.811 388.891 217.996L361.559 218.138L369.071 271.995Z" fill="black"/>
</g>
<path d="M255.745 306.775C255.672 306.894 255.582 307.002 255.479 307.095L254.662 307.983C253.942 308.72 252.886 309.759 251.554 311.056C248.89 313.613 245.187 317.094 240.969 320.824C236.751 324.553 232.843 327.803 229.975 330.112C228.537 331.266 227.365 332.19 226.548 332.776L225.597 333.486C225.492 333.579 225.372 333.654 225.242 333.708C225.242 333.708 225.34 333.593 225.535 333.415L226.423 332.634L229.753 329.819C232.577 327.448 236.449 324.154 240.658 320.442C244.867 316.73 248.65 313.284 251.314 310.789L254.52 307.832L255.408 307.042C255.508 306.939 255.622 306.85 255.745 306.775Z" fill="#263238"/>
<path d="M253.693 334.066C253.316 333.737 252.963 333.381 252.637 333.001L249.857 330.035C247.46 327.486 244.245 324.058 240.702 320.267L231.449 310.587L228.643 307.648C228.289 307.299 227.959 306.925 227.657 306.529C228.059 306.826 228.434 307.159 228.776 307.524C229.469 308.181 230.463 309.149 231.68 310.357C234.113 312.772 237.434 316.155 241.031 319.956C244.627 323.756 247.824 327.255 250.097 329.822C251.234 331.1 252.148 332.148 252.761 332.876C253.108 333.243 253.42 333.642 253.693 334.066Z" fill="#263238"/>
<path d="M263.178 314.937C263.178 314.937 263.266 314.706 263.453 314.253C263.747 313.596 264.104 312.969 264.519 312.38C266.152 310.098 268.454 308.382 271.107 307.469C273.008 306.782 275.035 306.515 277.048 306.687C279.446 306.92 281.756 307.708 283.797 308.987C286.153 310.439 288.143 312.414 289.613 314.759C291.314 317.377 292.161 320.458 292.038 323.577C291.936 325.26 291.414 326.89 290.519 328.319C289.582 329.801 288.334 331.062 286.861 332.013C283.724 334.025 280.031 334.991 276.311 334.775C274.363 334.67 272.444 334.254 270.628 333.541C268.738 332.803 267.039 331.649 265.655 330.166C264.968 329.386 264.388 328.517 263.932 327.582C263.498 326.628 263.199 325.618 263.044 324.581C262.75 322.456 262.935 320.293 263.586 318.249C264.944 313.988 267.888 310.411 271.809 308.259C273.842 307.143 276.103 306.507 278.42 306.401C280.737 306.294 283.047 306.721 285.173 307.646C287.376 308.575 289.305 310.051 290.777 311.936C292.25 313.871 293.171 316.169 293.441 318.587C293.748 321.039 293.351 323.527 292.295 325.762C291.753 326.883 291.04 327.914 290.182 328.816C289.308 329.706 288.323 330.479 287.251 331.116C285.089 332.307 282.704 333.04 280.246 333.269C277.788 333.498 275.309 333.219 272.963 332.448C270.654 331.739 268.531 330.526 266.747 328.896C264.979 327.266 263.77 325.118 263.293 322.76C262.793 320.442 263.123 318.022 264.225 315.923C264.785 314.888 265.553 313.981 266.481 313.259C267.395 312.569 268.414 312.032 269.5 311.669C271.633 310.985 273.87 310.685 276.107 310.781C278.285 310.797 280.452 311.095 282.554 311.669C284.631 312.216 286.551 313.244 288.157 314.671C289.696 316.106 290.745 317.988 291.159 320.052C291.566 322.046 291.447 324.112 290.812 326.046C290.184 327.911 289.122 329.6 287.713 330.974C285.038 333.59 281.496 335.132 277.759 335.308C276.009 335.4 274.259 335.147 272.608 334.562C271.023 333.993 269.598 333.052 268.452 331.818C267.368 330.64 266.548 329.244 266.046 327.724C265.551 326.298 265.331 324.792 265.398 323.284C265.524 320.492 266.638 317.836 268.541 315.789C270.168 314.009 272.226 312.679 274.517 311.927C276.44 311.3 278.478 311.106 280.485 311.358C283.258 311.703 285.893 312.765 288.13 314.44C288.711 314.867 289.26 315.336 289.773 315.843C290.12 316.189 290.288 316.376 290.288 316.376C290.288 316.376 290.093 316.207 289.747 315.878C289.219 315.388 288.661 314.932 288.077 314.511C285.836 312.886 283.216 311.862 280.467 311.536C278.299 311.285 276.103 311.557 274.062 312.33C272.021 313.102 270.195 314.352 268.737 315.976C266.883 317.978 265.803 320.576 265.691 323.302C265.63 324.78 265.85 326.257 266.339 327.653C266.834 329.128 267.636 330.481 268.692 331.622C269.805 332.818 271.187 333.732 272.724 334.286C274.334 334.846 276.038 335.088 277.741 334.997C281.388 334.817 284.842 333.303 287.447 330.743C288.807 329.413 289.833 327.779 290.439 325.975C291.047 324.105 291.157 322.11 290.759 320.185C290.359 318.204 289.35 316.397 287.873 315.017C286.311 313.643 284.45 312.652 282.438 312.122C280.372 311.556 278.241 311.258 276.098 311.234C273.914 311.151 271.732 311.452 269.651 312.122C267.529 312.772 265.732 314.203 264.625 316.127C263.574 318.135 263.26 320.447 263.737 322.663C264.197 324.928 265.363 326.989 267.067 328.55C268.795 330.147 270.858 331.336 273.105 332.031C275.388 332.782 277.801 333.055 280.194 332.831C282.586 332.608 284.907 331.895 287.012 330.734C288.051 330.124 289.004 329.378 289.844 328.514C290.669 327.648 291.355 326.66 291.878 325.584C292.9 323.428 293.285 321.025 292.988 318.658C292.734 316.324 291.853 314.102 290.439 312.229C289.017 310.407 287.152 308.98 285.022 308.082C282.959 307.18 280.717 306.764 278.467 306.866C276.218 306.967 274.022 307.584 272.049 308.668C268.238 310.766 265.377 314.246 264.057 318.391C263.424 320.374 263.239 322.473 263.515 324.536C263.675 325.538 263.974 326.512 264.403 327.431C264.843 328.329 265.398 329.164 266.055 329.918C267.394 331.354 269.039 332.47 270.868 333.185C272.644 333.888 274.52 334.301 276.427 334.411C280.067 334.633 283.684 333.701 286.763 331.747C288.186 330.876 289.384 329.683 290.262 328.264C291.14 326.845 291.672 325.239 291.816 323.577C291.94 320.526 291.118 317.512 289.462 314.946C288.025 312.63 286.075 310.677 283.761 309.236C281.758 307.968 279.487 307.18 277.128 306.936C275.145 306.748 273.144 306.996 271.267 307.664C268.638 308.553 266.345 310.227 264.696 312.459C264.271 313.039 263.902 313.657 263.595 314.306C263.293 314.715 263.178 314.937 263.178 314.937Z" fill="#007EF2"/>
<path d="M287.233 339.454C287.313 339.552 280.271 345.573 271.498 352.908C262.724 360.242 255.514 366.094 255.46 365.997C255.407 365.899 262.422 359.878 271.196 352.552C279.969 345.226 287.153 339.357 287.233 339.454Z" fill="#263238"/>
<path d="M288.77 365.207C288.352 364.962 287.957 364.679 287.589 364.364L284.463 361.93C281.844 359.853 278.247 356.958 274.287 353.743C270.326 350.529 266.765 347.598 264.199 345.458L261.171 342.901C260.787 342.608 260.431 342.281 260.105 341.924C260.522 342.172 260.916 342.454 261.286 342.767L264.403 345.201C267.023 347.278 270.619 350.173 274.58 353.388C278.54 356.602 282.101 359.533 284.676 361.673L287.696 364.222C288.077 364.524 288.436 364.853 288.77 365.207Z" fill="#263238"/>
<path d="M361.364 339.802C361.435 339.9 354.704 345.059 346.312 351.346C337.92 357.634 331.065 362.597 330.985 362.491C330.905 362.384 337.645 357.234 346.037 350.947C354.428 344.66 361.284 339.696 361.364 339.802Z" fill="#263238"/>
<path d="M363.975 361.645C363.912 361.751 356.755 357.32 347.991 351.735C339.226 346.149 332.202 341.549 332.264 341.434C332.326 341.318 339.484 345.767 348.248 351.344C357.013 356.921 364.081 361.538 363.975 361.645Z" fill="#263238"/>
<path d="M288.388 404.777C288.29 404.688 295.287 397.353 304.008 388.411C312.728 379.469 319.876 372.267 319.992 372.356C320.107 372.445 313.092 379.78 304.372 388.731C295.652 397.682 288.477 404.866 288.388 404.777Z" fill="#007EF2"/>
<path d="M317.967 404.768C317.967 404.768 317.852 404.671 317.674 404.457L316.928 403.569C316.236 402.681 315.312 401.536 314.184 400.133C311.867 397.238 308.581 393.304 304.772 389.122C300.962 384.939 297.348 381.307 294.684 378.732L291.523 375.624L290.635 374.789C290.532 374.696 290.44 374.592 290.359 374.479C290.359 374.479 290.493 374.55 290.697 374.718L291.585 375.491C292.375 376.166 293.494 377.169 294.862 378.43C297.579 380.952 301.237 384.557 305.065 388.749C308.892 392.94 312.169 396.918 314.389 399.866C315.525 401.341 316.422 402.53 317.053 403.418L317.736 404.395C317.828 404.51 317.906 404.635 317.967 404.768Z" fill="#007EF2"/>
<path d="M245.276 367.419C245.276 367.419 245.56 389.238 240.055 402.3L206.497 396.581C206.497 396.581 216.603 375.909 213.85 364.418L245.276 367.419Z" fill="#EBEBEB"/>
<path d="M245.267 366.602C245.267 366.602 241.057 393.384 238.482 401.376L205.129 394.751C205.129 394.751 211.993 368.857 211.904 361.646L245.267 366.602Z" fill="#FF635F"/>
<path d="M215.288 373.653C215.288 373.778 220.243 374.932 226.415 376.229C232.586 377.525 237.604 378.475 237.63 378.36C237.657 378.244 232.675 377.081 226.504 375.785C220.332 374.488 215.315 373.529 215.288 373.653Z" fill="white"/>
<path d="M214.436 379.326C214.436 379.45 219.391 380.596 225.562 381.901C231.734 383.206 236.751 384.148 236.778 384.032C236.804 383.917 231.823 382.754 225.651 381.457C219.479 380.161 214.462 379.175 214.436 379.326Z" fill="white"/>
<path d="M219.337 385.748C219.906 385.995 220.502 386.174 221.113 386.281C222.258 386.556 223.848 386.92 225.597 387.293C227.347 387.666 228.954 387.968 230.117 388.181C230.739 388.337 231.377 388.415 232.018 388.412C231.427 388.163 230.81 387.982 230.179 387.87C229.043 387.586 227.453 387.222 225.695 386.858C223.937 386.494 222.338 386.174 221.184 385.97C220.579 385.822 219.959 385.747 219.337 385.748Z" fill="white"/>
<path d="M404.042 306.154C404.042 306.154 407.478 327.413 403.997 340.973L370.396 340.254C370.396 340.254 377.269 318.604 372.909 307.779L404.042 306.154Z" fill="#EBEBEB"/>
<path d="M403.89 305.355C403.89 305.355 403.668 332.093 402.309 340.254L368.77 338.664C368.77 338.664 371.709 312.38 370.546 305.355H403.89Z" fill="#455A64"/>
<path d="M375.305 317.256C375.305 317.38 380.349 317.487 386.573 317.495C392.798 317.504 397.851 317.415 397.851 317.291C397.851 317.167 392.807 317.06 386.573 317.051C380.34 317.043 375.305 317.131 375.305 317.256Z" fill="white"/>
<path d="M375.625 322.91C375.625 323.034 380.669 323.141 386.894 323.15C393.119 323.159 398.171 323.07 398.171 322.945C398.171 322.821 393.127 322.715 386.894 322.706C380.66 322.697 375.625 322.786 375.625 322.91Z" fill="white"/>
<path d="M381.636 328.124C382.254 328.257 382.886 328.314 383.518 328.293C384.682 328.293 386.289 328.355 388.065 328.364C389.841 328.373 391.439 328.364 392.603 328.302C393.234 328.327 393.866 328.277 394.485 328.151C393.867 328.019 393.234 327.965 392.603 327.991C391.439 327.947 389.841 327.92 388.065 327.911C386.289 327.902 384.682 327.911 383.518 327.973C382.887 327.948 382.255 327.999 381.636 328.124Z" fill="white"/>
<path d="M411.144 244.857C404.875 244.857 398.561 240.923 395.24 234.734C392.012 228.57 391.011 221.481 392.407 214.665C394.245 205.785 400.124 198.503 407.388 196.177C413.559 194.196 424.588 195.289 429.792 204C432.271 208.26 433.502 213.131 433.344 218.057C433.321 218.407 433.229 218.749 433.073 219.063C432.918 219.377 432.702 219.658 432.438 219.889C432.174 220.119 431.868 220.296 431.536 220.408C431.203 220.521 430.852 220.567 430.503 220.543C429.796 220.496 429.137 220.17 428.671 219.637C428.205 219.105 427.969 218.408 428.016 217.702C428.064 213.856 427.076 210.068 425.157 206.735C421.143 200.03 412.343 200.164 408.951 201.247C402.735 203.236 398.757 209.958 397.558 215.739C396.407 221.336 397.225 227.158 399.875 232.22C402.495 237.104 407.796 240.141 412.494 239.422C413.187 239.326 413.891 239.506 414.452 239.924C415.014 240.342 415.388 240.965 415.494 241.657C415.601 242.349 415.43 243.055 415.02 243.622C414.61 244.189 413.992 244.572 413.302 244.688C412.588 244.799 411.867 244.855 411.144 244.857Z" fill="#263238"/>
<path d="M239.156 244.858C232.878 244.858 226.573 240.924 223.252 234.735C220.021 228.572 219.017 221.483 220.411 214.666C221.965 207.171 227.222 198.54 235.507 196.16C239.501 195.078 243.736 195.293 247.601 196.773L245.683 201.745C242.902 200.688 239.86 200.524 236.981 201.275C230.871 203.051 226.893 209.817 225.668 215.74C224.517 221.337 225.335 227.16 227.985 232.222C230.605 237.115 235.915 240.143 240.604 239.423L241.412 244.689C240.666 244.805 239.911 244.861 239.156 244.858Z" fill="#263238"/>
<path d="M408.951 218.189L406.5 231.607H442.562L445.767 218.323L408.951 218.189Z" fill="#007EF2"/>
<path d="M248.294 242.735C248.296 243.871 247.961 244.981 247.331 245.926C246.702 246.871 245.806 247.607 244.757 248.042C243.709 248.478 242.554 248.592 241.441 248.371C240.327 248.15 239.304 247.603 238.501 246.801C237.699 245.998 237.152 244.975 236.931 243.861C236.71 242.748 236.824 241.594 237.26 240.545C237.695 239.496 238.432 238.601 239.376 237.971C240.321 237.341 241.431 237.006 242.567 237.008C244.085 237.01 245.54 237.614 246.614 238.688C247.688 239.762 248.292 241.217 248.294 242.735Z" fill="#263238"/>
<path d="M420.131 242.735C420.133 243.871 419.798 244.981 419.168 245.926C418.538 246.871 417.643 247.607 416.594 248.042C415.545 248.478 414.391 248.592 413.278 248.371C412.164 248.15 411.141 247.603 410.338 246.801C409.536 245.998 408.989 244.975 408.768 243.861C408.547 242.748 408.661 241.594 409.097 240.545C409.532 239.496 410.269 238.601 411.213 237.971C412.158 237.341 413.268 237.006 414.404 237.008C415.922 237.01 417.377 237.614 418.451 238.688C419.525 239.762 420.129 241.217 420.131 242.735Z" fill="#263238"/>
<path d="M325.497 131.709L316.067 167.478L283.513 170.976V176.748L329.254 178.356L337.849 138.227L325.497 131.709Z" fill="#FFBE9D"/>
<path d="M339.217 179.304C339.217 179.304 288.352 176.88 273.869 188.184C259.385 199.488 266.401 218.047 266.401 218.047L348.257 217.834L355.485 176.338L339.217 179.304Z" fill="#263238"/>
<path d="M347.874 206.684C347.627 206.69 347.38 206.672 347.137 206.63C346.658 206.577 345.956 206.506 345.05 206.391C343.274 206.169 340.61 205.796 337.413 205.254C329.02 203.827 320.718 201.908 312.549 199.509C307.772 198.097 303.252 196.676 299.078 195.637C295.394 194.684 291.626 194.089 287.828 193.861C285.265 193.717 282.693 193.866 280.164 194.305C279.276 194.412 278.592 194.642 278.113 194.722C277.876 194.781 277.636 194.825 277.394 194.856C277.619 194.758 277.854 194.684 278.095 194.634C278.763 194.426 279.442 194.257 280.129 194.127C282.664 193.615 285.253 193.415 287.836 193.532C291.69 193.716 295.516 194.284 299.256 195.229C303.456 196.241 307.985 197.662 312.745 199.074C320.869 201.452 329.112 203.406 337.44 204.925C340.646 205.512 343.248 205.929 345.05 206.213L347.128 206.542C347.38 206.568 347.63 206.616 347.874 206.684Z" fill="#455A64"/>
<path d="M300.598 195.36C299.185 194.195 297.679 193.147 296.096 192.226C294.436 191.449 292.717 190.808 290.954 190.308C291.501 190.26 292.052 190.314 292.579 190.468C293.878 190.747 295.132 191.201 296.309 191.817C297.484 192.437 298.571 193.21 299.541 194.117C299.967 194.463 300.325 194.884 300.598 195.36Z" fill="#455A64"/>
<path d="M344.607 289.869L345.29 311.243L340.992 328.311C340.923 328.603 340.914 328.906 340.967 329.202C341.019 329.498 341.133 329.78 341.3 330.03C341.466 330.28 341.683 330.493 341.935 330.655C342.188 330.818 342.472 330.927 342.768 330.975C343.112 331.037 343.465 331.017 343.799 330.915C344.132 330.813 344.437 330.632 344.686 330.389C347.919 327.227 359.782 315.541 359.632 313.987C359.472 312.211 360.404 291.379 360.404 291.379L344.607 289.869Z" fill="#EB996E"/>
<g opacity="0.6">
<path d="M342.688 331.009L359.56 312.574V313.462C359.571 314.247 359.3 315.009 358.797 315.611C357.456 317.218 353.646 321.579 344.686 330.405C344.43 330.659 344.116 330.845 343.77 330.947C343.424 331.049 343.059 331.065 342.706 330.991L342.688 331.009Z" fill="white"/>
</g>
<g opacity="0.6">
<path d="M355.085 305.712C354.814 305.91 354.628 306.203 354.564 306.532C354.499 306.861 354.562 307.202 354.738 307.488C354.925 307.754 355.207 307.938 355.525 308.004C355.843 308.07 356.175 308.013 356.452 307.843C356.731 307.636 356.922 307.333 356.987 306.993C357.053 306.653 356.989 306.3 356.807 306.005C356.586 305.744 356.273 305.58 355.933 305.547C355.593 305.514 355.254 305.614 354.987 305.827" fill="white"/>
</g>
<path d="M347.493 321.617C347.369 321.679 346.871 320.569 345.601 319.974C344.816 319.666 343.977 319.515 343.133 319.53C343.133 319.477 343.381 319.308 343.879 319.228C344.538 319.148 345.206 319.259 345.804 319.547C346.402 319.835 346.905 320.288 347.253 320.854C347.502 321.289 347.537 321.599 347.493 321.617Z" fill="#263238"/>
<path d="M345.992 324.501C345.378 324.166 344.743 323.869 344.092 323.613C343.398 323.491 342.699 323.408 341.996 323.364C342.323 323.154 342.695 323.026 343.081 322.991C343.468 322.955 343.857 323.013 344.216 323.16C345.477 323.497 346.099 324.439 345.992 324.501Z" fill="#263238"/>
<path d="M350.29 317.903C349.383 317.305 348.433 316.774 347.449 316.314C346.409 315.996 345.346 315.758 344.27 315.603C345.388 315.369 346.55 315.461 347.618 315.869C348.685 316.277 349.613 316.983 350.29 317.903Z" fill="#263238"/>
<path d="M350.628 311.406C350.575 311.539 349.385 311.051 347.849 311.015C346.313 310.98 345.096 311.353 345.043 311.219C345.904 310.745 346.878 310.511 347.861 310.544C348.845 310.577 349.801 310.875 350.628 311.406Z" fill="#263238"/>
<path d="M350.583 305.127C349.648 304.833 348.677 304.669 347.697 304.639C346.726 304.751 345.775 304.999 344.873 305.376C344.873 305.331 345.068 305.056 345.557 304.772C346.21 304.402 346.942 304.193 347.692 304.161C348.442 304.128 349.189 304.274 349.872 304.585C350.361 304.825 350.618 305.074 350.583 305.127Z" fill="#263238"/>
<path d="M347.723 303.439C347.668 303.173 347.668 302.898 347.723 302.631C347.79 301.889 348.004 301.167 348.354 300.509C348.561 300.002 348.934 299.58 349.41 299.31C349.575 299.236 349.759 299.214 349.937 299.248C350.115 299.281 350.278 299.368 350.405 299.496C350.634 299.763 350.757 300.104 350.751 300.455C350.709 301.171 350.421 301.85 349.936 302.378C349.45 302.906 348.797 303.249 348.087 303.35C347.379 303.429 346.663 303.296 346.03 302.967C345.398 302.638 344.878 302.128 344.535 301.503C344.449 301.346 344.398 301.171 344.386 300.992C344.373 300.812 344.4 300.632 344.464 300.464C344.547 300.305 344.677 300.175 344.835 300.091C344.994 300.007 345.174 299.973 345.352 299.994C345.88 300.106 346.37 300.354 346.773 300.713C347.356 301.175 347.855 301.733 348.247 302.365C348.404 302.588 348.518 302.837 348.585 303.102C348.02 302.299 347.341 301.584 346.569 300.979C346.209 300.684 345.782 300.479 345.326 300.384C345.227 300.368 345.126 300.383 345.036 300.427C344.947 300.472 344.874 300.544 344.828 300.633C344.797 300.747 344.788 300.866 344.804 300.984C344.819 301.101 344.857 301.215 344.917 301.317C345.228 301.846 345.685 302.274 346.233 302.551C346.781 302.828 347.397 302.942 348.007 302.88C348.613 302.802 349.174 302.519 349.596 302.078C350.017 301.637 350.275 301.064 350.325 300.455C350.337 300.212 350.261 299.973 350.112 299.781C350.045 299.705 349.955 299.652 349.856 299.632C349.757 299.611 349.653 299.622 349.561 299.665C349.172 299.903 348.862 300.253 348.673 300.669C348.201 301.531 347.88 302.468 347.723 303.439Z" fill="#263238"/>
<path d="M355.441 176.337C355.441 176.337 333.445 217.922 333.143 225.177C332.841 232.432 333.143 299.308 333.143 299.308H367.189C368.077 299.308 373.183 269.178 372.144 262.243C371.105 255.307 367.438 218.029 367.438 218.029H387.027C387.027 218.029 392.399 212.284 392.204 204.993C392.088 200.971 389.46 192.748 386.876 188.388C385.198 185.59 374.444 170.947 374.444 170.947L355.441 176.337Z" fill="#263238"/>
<path d="M353.967 179.155C353.943 179.238 353.91 179.319 353.869 179.395C353.789 179.573 353.683 179.795 353.549 180.07L352.271 182.663C351.693 183.791 351.01 185.158 350.21 186.748L348.932 189.296L347.591 192.2L340.993 206.488C339.741 209.152 338.427 212.002 337.059 214.924L334.99 219.364C334.321 220.899 333.816 222.5 333.481 224.141C333.143 225.787 332.968 227.461 332.957 229.141C332.903 230.801 332.868 232.444 332.841 234.051C332.841 237.284 332.779 240.392 332.788 243.358C332.788 249.289 332.859 254.635 332.921 259.12C332.983 263.604 333.037 267.2 333.081 269.776C333.081 271.001 333.081 271.969 333.081 272.662C333.081 272.972 333.081 273.221 333.081 273.416C333.081 273.612 333.081 273.674 333.081 273.674C333.066 273.589 333.066 273.502 333.081 273.416C333.081 273.221 333.081 272.972 333.081 272.67C333.081 271.969 333.01 271.01 332.957 269.776C332.868 267.271 332.752 263.64 332.655 259.12C332.557 254.6 332.45 249.298 332.424 243.358C332.424 240.392 332.424 237.275 332.424 234.051C332.424 232.435 332.477 230.792 332.539 229.123C332.548 227.417 332.723 225.716 333.063 224.044C333.407 222.372 333.925 220.741 334.608 219.177L336.686 214.737L340.647 206.319L347.378 192.067L348.745 189.172C349.216 188.284 349.633 187.396 350.059 186.641L352.182 182.592C352.759 181.5 353.221 180.647 353.54 180.034C353.691 179.768 353.816 179.555 353.905 179.377C353.993 179.2 353.958 179.146 353.967 179.155Z" fill="#455A64"/>
<path d="M346.844 193.317C346.138 191.627 345.545 189.891 345.068 188.122C344.445 186.4 343.937 184.638 343.55 182.848C344.378 184.489 345.032 186.212 345.503 187.989C346.132 189.714 346.581 191.5 346.844 193.317Z" fill="#455A64"/>
<path d="M372.215 260.939C372.158 260.787 372.122 260.629 372.109 260.468C372.067 260.107 372.005 259.654 371.922 259.109C371.762 257.857 371.558 256.152 371.3 254.083C370.812 249.785 370.155 243.951 369.427 237.504C368.699 231.057 368.104 225.152 367.74 220.899C367.571 218.821 367.429 217.116 367.322 215.864C367.322 215.304 367.251 214.851 367.225 214.487C367.213 214.328 367.213 214.167 367.225 214.008C367.28 214.159 367.313 214.318 367.322 214.478C367.367 214.843 367.429 215.295 367.5 215.846C367.642 217.098 367.837 218.794 368.068 220.872C368.539 225.17 369.178 231.013 369.844 237.46C370.51 243.907 371.141 249.741 371.62 254.048C371.815 256.126 371.984 257.831 372.1 259.083C372.144 259.633 372.18 260.095 372.206 260.459C372.223 260.618 372.226 260.779 372.215 260.939Z" fill="#455A64"/>
<path d="M363.565 64.9664C363.041 61.4144 366.087 57.9956 369.603 57.5782C373.12 57.1609 376.663 59.3542 378.279 62.5599C379.031 64.1721 379.443 65.9219 379.489 67.7003C379.535 69.4787 379.213 71.2475 378.545 72.8962C377.657 75.1429 376.015 77.4162 373.626 77.5938C371.237 77.7714 369.408 75.951 367.827 74.2726" fill="#263238"/>
<path d="M338.569 82.5852C331.465 67.0185 348.337 59.1953 357.51 61.7882C366.141 64.2302 369.826 68.5281 371.247 74.3001C372.803 80.091 372.493 86.2253 370.359 91.8293C369.24 94.5465 367.233 97.2993 364.321 97.6368" fill="#263238"/>
<path d="M363.015 70.4275C363.745 70.5032 364.421 70.8514 364.906 71.4027C365.392 71.954 365.652 72.6679 365.634 73.4023L363.974 113.025C363.912 117.705 357.083 120.351 352.066 120.244C347.013 120.138 346.844 117.651 346.738 113.202C346.622 105.77 346.622 102.973 346.622 103.017C346.622 103.061 340.229 101.951 338.906 93.6132C338.24 89.4662 338.453 82.6641 338.799 77.1052C339.119 72.1058 342.431 65.9608 347.422 66.4492L363.015 70.4275Z" fill="#FFBE9D"/>
<path d="M342.068 81.8461C342.063 82.1258 342.168 82.3961 342.361 82.5988C342.553 82.8014 342.818 82.9202 343.098 82.9295C343.234 82.9404 343.371 82.9238 343.501 82.8806C343.631 82.8375 343.75 82.7688 343.853 82.6785C343.956 82.5883 344.039 82.4783 344.099 82.3551C344.158 82.232 344.192 82.0982 344.199 81.9616C344.201 81.6826 344.095 81.4136 343.903 81.2114C343.711 81.0092 343.447 80.8897 343.169 80.8782C343.032 80.8674 342.895 80.884 342.766 80.9271C342.636 80.9702 342.516 81.0389 342.413 81.1292C342.311 81.2195 342.227 81.3294 342.168 81.4526C342.108 81.5758 342.074 81.7096 342.068 81.8461Z" fill="#263238"/>
<path d="M340.3 80.6494C340.434 80.7826 341.251 80.1876 342.396 80.1876C343.542 80.1876 344.394 80.7648 344.518 80.6227C344.643 80.4807 344.447 80.3119 344.074 80.0455C343.576 79.7013 342.984 79.5184 342.378 79.5216C341.781 79.5158 341.197 79.7061 340.718 80.0633C340.363 80.3297 340.238 80.5872 340.3 80.6494Z" fill="#263238"/>
<path d="M353.317 81.8478C353.314 82.121 353.416 82.3851 353.6 82.5863C353.785 82.7876 354.04 82.9109 354.312 82.9312C354.448 82.9421 354.585 82.9255 354.715 82.8823C354.845 82.8392 354.965 82.7705 355.067 82.6802C355.17 82.59 355.254 82.48 355.313 82.3568C355.372 82.2337 355.406 82.0999 355.413 81.9633C355.416 81.6843 355.31 81.4153 355.117 81.2131C354.925 81.0109 354.662 80.8914 354.383 80.8799C354.114 80.8679 353.85 80.9629 353.651 81.1442C353.451 81.3255 353.331 81.5785 353.317 81.8478Z" fill="#263238"/>
<path d="M351.649 80.8622C351.782 80.9954 352.591 80.4005 353.736 80.4005C354.882 80.4005 355.734 80.9777 355.858 80.8445C355.983 80.7113 355.787 80.5248 355.414 80.2584C354.917 79.9126 354.324 79.7296 353.718 79.7345C353.121 79.7344 352.54 79.9241 352.058 80.2762C351.649 80.5426 351.552 80.8089 351.649 80.8622Z" fill="#263238"/>
<path d="M347.439 89.3962C346.834 89.2095 346.207 89.0962 345.575 89.0587C345.282 89.0587 344.997 88.9699 344.953 88.7746C344.925 88.4655 344.994 88.1554 345.148 87.8866C345.424 87.1762 345.708 86.4302 346.036 85.6488C346.841 83.7529 347.495 81.7961 347.99 79.7969C347.028 81.622 346.217 83.5227 345.566 85.4801L344.731 87.7356C344.548 88.091 344.494 88.4994 344.58 88.89C344.624 88.9932 344.691 89.0851 344.776 89.1589C344.86 89.2327 344.96 89.2865 345.068 89.3162C345.231 89.3592 345.398 89.383 345.566 89.3873C346.188 89.4677 346.817 89.4707 347.439 89.3962Z" fill="#263238"/>
<path d="M346.649 103.008C350.592 103.08 354.476 102.05 357.865 100.033C357.865 100.033 355.148 105.77 346.8 104.988L346.649 103.008Z" fill="#EB996E"/>
<path d="M347.928 92.1657C348.148 91.8921 348.433 91.6785 348.758 91.545C349.082 91.4115 349.435 91.3623 349.784 91.4021C350.039 91.4234 350.287 91.4967 350.513 91.6173C350.739 91.7379 350.938 91.9034 351.098 92.1036C351.251 92.2951 351.341 92.5289 351.357 92.7734C351.373 93.0179 351.314 93.2614 351.187 93.4711C351.003 93.6787 350.76 93.8261 350.491 93.8942C350.222 93.9623 349.938 93.9479 349.677 93.8529C349.131 93.6605 348.629 93.3583 348.203 92.9649C348.074 92.8732 347.963 92.7589 347.875 92.6275C347.834 92.5641 347.812 92.4901 347.812 92.4144C347.812 92.3387 347.834 92.2647 347.875 92.2013" fill="#EB996E"/>
<path d="M350.832 90.1955C350.645 90.1955 350.636 91.4298 349.571 92.3178C348.505 93.2058 347.173 93.0637 347.164 93.2058C347.155 93.3479 347.457 93.4456 348.052 93.4633C348.785 93.4717 349.498 93.2236 350.068 92.7618C350.609 92.3168 350.959 91.6811 351.045 90.9858C351.054 90.4974 350.912 90.1866 350.832 90.1955Z" fill="#263238"/>
<path d="M351.097 78.8464C351.212 79.1572 352.367 79.0063 353.716 79.175C355.066 79.3437 356.158 79.6989 356.336 79.4236C356.416 79.2904 356.221 78.9974 355.786 78.6866C355.2 78.3102 354.533 78.0789 353.841 78.0117C353.151 77.9255 352.45 78.0078 351.798 78.2515C351.301 78.4468 351.052 78.6955 351.097 78.8464Z" fill="#263238"/>
<path d="M340.726 77.3095C340.93 77.5759 341.721 77.3095 342.68 77.3095C343.639 77.3095 344.456 77.4871 344.624 77.2118C344.704 77.0786 344.624 76.8122 344.225 76.5725C343.757 76.2649 343.204 76.1126 342.644 76.1374C342.085 76.1489 341.542 76.3318 341.09 76.6613C340.753 76.9188 340.637 77.1852 340.726 77.3095Z" fill="#263238"/>
<path d="M351.587 63.7142C348.756 63.8586 346.008 64.7137 343.595 66.2006C342.242 66.9018 341.041 67.8626 340.06 69.0282C339.078 70.1938 338.336 71.5414 337.876 72.9938C337.759 73.2959 337.705 73.6187 337.718 73.9424C337.73 74.2661 337.808 74.584 337.947 74.8764C338.211 75.2108 338.584 75.4427 339 75.5318C339.417 75.621 339.852 75.5619 340.229 75.3648C340.982 74.9555 341.623 74.3669 342.094 73.651C342.282 74.4338 342.73 75.1297 343.365 75.6245C344 76.1194 344.784 76.3838 345.589 76.3745C346.394 76.3653 347.172 76.0828 347.796 75.5734C348.419 75.0641 348.851 74.358 349.021 73.571C349.084 74.371 349.454 75.1157 350.053 75.6499C350.651 76.1842 351.433 76.4669 352.235 76.4393C353.035 76.37 353.798 76.0683 354.429 75.5714C355.06 75.0744 355.532 74.4038 355.787 73.6421C355.983 75.086 356.482 76.4721 357.252 77.7091C357.647 78.3231 358.22 78.8008 358.896 79.0772C359.571 79.3537 360.315 79.4155 361.026 79.2542C360.728 80.4819 360.746 81.7652 361.08 82.9838C361.524 84.156 363.291 104.216 364.481 103.807C365.671 103.399 365.626 82.9394 365.893 81.7495C366.483 79.467 366.782 77.1187 366.781 74.761C366.86 72.3321 366.073 69.9541 364.56 68.0524C363.047 66.1506 360.907 64.849 358.522 64.3802C356.142 63.8342 353.699 63.6102 351.258 63.7142" fill="#263238"/>
<path d="M368.298 100.247C368.298 100.247 368.218 100.3 368.041 100.362C367.791 100.453 367.532 100.516 367.268 100.548C366.033 100.705 364.779 100.508 363.652 99.9798C362.525 99.4516 361.571 98.6141 360.901 97.5647C359.993 95.9839 359.611 94.1555 359.809 92.3433C359.942 90.4341 360.386 88.6936 360.59 87.0952C360.791 85.6762 360.916 84.2474 360.963 82.8151C360.963 81.5896 360.963 80.6039 360.963 79.9113C360.925 79.5571 360.925 79.1999 360.963 78.8457C361.069 79.195 361.131 79.5558 361.15 79.9202C361.247 80.891 361.294 81.8661 361.292 82.8417C361.29 84.2875 361.198 85.7319 361.017 87.1663C360.821 88.8002 360.404 90.5495 360.271 92.3877C360.081 94.1082 360.428 95.8453 361.265 97.3605C361.995 98.5668 363.117 99.4854 364.444 99.9623C365.336 100.302 366.289 100.448 367.241 100.389C367.925 100.344 368.289 100.202 368.298 100.247Z" fill="#263238"/>
<path d="M348.647 62.6406C348.97 63.2487 349.12 63.9334 349.082 64.6209C349.113 66.3035 348.477 67.93 347.312 69.1448C346.147 70.3595 344.549 71.0636 342.866 71.1033C342.183 71.1688 341.495 71.0459 340.877 70.7481C340.877 70.6681 341.641 70.8813 342.848 70.7481C344.427 70.6409 345.909 69.9508 347.007 68.8118C348.105 67.6729 348.74 66.1665 348.789 64.5853C348.816 63.4043 348.567 62.6584 348.647 62.6406Z" fill="#455A64"/>
<path d="M349.873 72.4608C349.917 72.4608 349.811 73.0291 349.171 73.6507C348.747 74.0324 348.249 74.3244 347.709 74.509C347.169 74.6937 346.597 74.7672 346.028 74.7252C344.911 74.6256 343.836 74.2569 342.893 73.6507C342.174 73.1979 341.783 72.8515 341.819 72.7627C342.249 72.8981 342.66 73.086 343.044 73.3222C343.981 73.8091 345.003 74.1106 346.054 74.2102C347.097 74.2717 348.128 73.9565 348.958 73.3222C349.606 72.9137 349.82 72.4253 349.873 72.4608Z" fill="#455A64"/>
<path d="M369.986 69.9121C370.046 70.6766 369.992 71.4455 369.827 72.1943C369.575 74.0491 368.874 75.8142 367.784 77.3358C367.215 78.0903 366.498 78.7206 365.676 79.1879C364.855 79.6552 363.946 79.9496 363.007 80.0531C362.436 80.1045 361.86 80.0472 361.311 79.8843C360.929 79.7689 360.742 79.6535 360.751 79.6268C361.484 79.7579 362.23 79.7907 362.971 79.7245C364.738 79.4378 366.327 78.4842 367.411 77.0605C368.452 75.5893 369.163 73.9115 369.498 72.141C369.615 71.3887 369.778 70.6443 369.986 69.9121Z" fill="#455A64"/>
<path d="M371.513 73.9551C371.594 74.1834 371.639 74.4231 371.646 74.6655C371.706 75.3119 371.721 75.9617 371.69 76.6102C371.644 78.7953 370.861 80.9008 369.47 82.5864C368.685 83.5132 367.663 84.2098 366.513 84.6022C365.571 84.9106 364.565 84.9718 363.592 84.7798C362.938 84.655 362.318 84.3949 361.771 84.0161C361.398 83.7408 361.238 83.5366 361.256 83.5188C361.985 83.9824 362.796 84.3019 363.645 84.4601C364.561 84.5918 365.496 84.5035 366.371 84.2026C367.438 83.809 368.385 83.1486 369.124 82.2845C370.443 80.6613 371.227 78.6701 371.371 76.5836C371.513 74.9763 371.433 73.964 371.513 73.9551Z" fill="#455A64"/>
<path d="M254.466 181.285L238.349 218.146H260.54L276.346 180.992L254.466 181.285Z" fill="#455A64"/>
<path d="M242.744 142.08L260.921 177.831H318.251L315.933 173.16L299.327 172.663L285.785 142.524C285.374 141.606 284.706 140.826 283.861 140.279C283.017 139.733 282.032 139.442 281.026 139.443H244.36C244.046 139.431 243.734 139.504 243.457 139.653C243.179 139.801 242.947 140.021 242.782 140.289C242.618 140.558 242.528 140.865 242.521 141.18C242.514 141.494 242.591 141.805 242.744 142.08Z" fill="#E0E0E0"/>
<path d="M271.453 158.107C271.453 158.541 271.325 158.965 271.083 159.326C270.842 159.687 270.5 159.968 270.099 160.134C269.698 160.3 269.257 160.343 268.832 160.259C268.406 160.174 268.016 159.965 267.709 159.658C267.402 159.352 267.193 158.961 267.109 158.535C267.024 158.11 267.067 157.669 267.233 157.268C267.399 156.867 267.681 156.525 268.041 156.284C268.402 156.043 268.826 155.914 269.26 155.914C269.841 155.916 270.397 156.148 270.808 156.559C271.219 156.97 271.451 157.526 271.453 158.107Z" fill="#263238"/>
<path d="M324.36 177.902H254.279V181.321H324.36V177.902Z" fill="#455A64"/>
<path d="M302.773 179.615L324.094 218.181H334.289L336.509 213.768L338.551 209.123L324.361 181.32L302.773 179.615Z" fill="#455A64"/>
<path d="M339.82 113.496C339.82 113.496 327.441 117.856 324.777 131.709L337.849 138.227L339.82 113.496Z" fill="#007EF2"/>
<path d="M339.82 113.495C339.82 113.495 331.162 132.907 331.491 143.51C331.606 147.195 334.021 156.83 334.021 156.83L338.524 180.681C338.524 180.681 372.987 176.019 373.751 176.019C374.514 176.019 372.596 156.439 372.596 156.439L378.217 118.814C378.217 118.814 375.642 113.691 364.009 111.915C357.038 110.822 339.82 113.495 339.82 113.495Z" fill="#007EF2"/>
<path d="M336.552 124.764C336.632 124.808 335.726 126.256 334.634 128.76C334.001 130.226 333.467 131.733 333.036 133.271C332.517 135.155 332.14 137.076 331.908 139.016C331.704 140.96 331.641 142.915 331.722 144.868C331.802 146.462 331.989 148.049 332.281 149.619C332.778 152.283 333.347 153.917 333.258 153.943C333.072 153.59 332.923 153.218 332.814 152.833C332.655 152.394 332.519 151.946 332.405 151.492C332.263 150.96 332.077 150.365 331.952 149.716C331.619 148.136 331.4 146.533 331.295 144.921C331.189 142.943 331.239 140.96 331.446 138.989C331.683 137.022 332.077 135.077 332.627 133.173C333.084 131.625 333.657 130.114 334.341 128.653C334.591 128.086 334.869 127.531 335.176 126.993C335.388 126.575 335.622 126.169 335.877 125.776C336.067 125.417 336.294 125.077 336.552 124.764Z" fill="#263238"/>
<path d="M344.012 113.318L344.509 107.99C344.563 107.436 344.82 106.922 345.229 106.545C345.639 106.168 346.173 105.955 346.729 105.947L363.734 105.69C364.25 105.683 364.749 105.874 365.13 106.222C365.511 106.569 365.745 107.049 365.785 107.563L366.221 113.309C364.797 116.326 362.389 118.769 359.392 120.235C354.392 122.659 346.622 122.739 346.622 122.739L344.012 113.318Z" fill="#007EF2"/>
<path d="M348.461 105.991C348.514 105.991 348.266 106.338 348.159 106.879C348.063 107.664 348.063 108.457 348.159 109.242C348.308 110.385 348.308 111.543 348.159 112.687C347.854 111.573 347.698 110.423 347.697 109.268C347.579 108.446 347.615 107.609 347.804 106.8C348.097 106.187 348.434 105.947 348.461 105.991Z" fill="#263238"/>
<path d="M352.537 112.58C352.24 111.492 352.097 110.368 352.111 109.241C352.045 108.443 352.045 107.641 352.111 106.843C352.2 106.204 352.457 105.875 352.511 105.955C352.564 106.035 352.431 106.328 352.44 106.914C352.449 107.5 352.537 108.335 352.537 109.223C352.687 110.337 352.687 111.466 352.537 112.58Z" fill="#263238"/>
<path d="M357.643 112.44C357.276 111.404 357.052 110.322 356.977 109.225C356.758 108.139 356.689 107.027 356.773 105.922C357.144 106.966 357.368 108.057 357.439 109.163C357.655 110.241 357.724 111.343 357.643 112.44Z" fill="#263238"/>
<path d="M362.046 112.776C361.641 111.635 361.425 110.435 361.407 109.224C361.236 108.016 361.266 106.789 361.496 105.592C361.728 106.762 361.853 107.951 361.868 109.144C362.041 110.346 362.1 111.562 362.046 112.776Z" fill="#263238"/>
<g opacity="0.3">
<path d="M365.422 133.121C364.739 139.097 365.192 149.398 367.305 155.037L377.233 138.636L365.422 133.121Z" fill="black"/>
</g>
<path d="M377.293 117.582L377.347 117.635C380.162 120.59 382.221 124.182 383.35 128.105L385.179 136.443L365.643 139.462C364.567 135.926 364.312 132.19 364.897 128.54C365.856 122.253 377.293 117.582 377.293 117.582Z" fill="#007EF2"/>
<path d="M385.179 136.441C385.052 136.486 384.921 136.519 384.788 136.539L383.669 136.743L379.487 137.427L365.332 139.576H365.083V139.318C365.039 138.137 365.003 136.912 364.977 135.651C364.932 132.374 364.977 129.239 365.172 126.389C365.307 123.835 366.09 121.356 367.445 119.187C368.356 117.728 369.605 116.51 371.086 115.635C371.486 115.398 371.908 115.201 372.347 115.049C372.493 114.982 372.649 114.937 372.809 114.916C372.809 114.916 372.187 115.156 371.175 115.804C369.766 116.707 368.584 117.922 367.721 119.356C366.434 121.512 365.702 123.952 365.589 126.46C365.385 129.284 365.394 132.41 365.447 135.686C365.447 136.93 365.51 138.164 365.536 139.336L365.279 139.114L379.487 137.116L383.687 136.574L384.824 136.441C384.941 136.426 385.061 136.426 385.179 136.441Z" fill="#263238"/>
<path d="M343.914 124.196C342.92 123.617 342.006 122.909 341.197 122.092C340.284 121.388 339.472 120.563 338.781 119.641C340.688 120.923 342.414 122.455 343.914 124.196Z" fill="#FAFAFA"/>
<path d="M341.276 134.469C340.58 135.184 339.773 135.784 338.888 136.245C338.075 136.834 337.176 137.295 336.224 137.612C337.731 136.317 339.429 135.263 341.259 134.487L341.276 134.469Z" fill="#FAFAFA"/>
<path d="M352.172 136.999C352.014 135.737 352.014 134.461 352.172 133.199C352.178 131.93 352.333 130.666 352.634 129.434C352.789 130.693 352.789 131.966 352.634 133.225C352.631 134.497 352.476 135.764 352.172 136.999Z" fill="#FAFAFA"/>
<path d="M362.767 147.275C361.883 146.446 361.058 145.556 360.298 144.611C359.425 143.779 358.609 142.889 357.856 141.947C358.922 142.566 359.864 143.375 360.636 144.336C361.515 145.182 362.236 146.177 362.767 147.275Z" fill="#FAFAFA"/>
<path d="M364.259 125.795C363.497 126.588 362.627 127.269 361.675 127.82C360.803 128.491 359.844 129.04 358.824 129.453C359.588 128.659 360.461 127.978 361.417 127.429C362.288 126.761 363.244 126.212 364.259 125.795Z" fill="#FAFAFA"/>
<path d="M354.686 118.025C353.844 118.845 352.894 119.547 351.863 120.112C350.917 120.812 349.884 121.385 348.79 121.817C349.634 120.996 350.583 120.291 351.614 119.721C352.563 119.03 353.595 118.46 354.686 118.025Z" fill="#FAFAFA"/>
<path d="M363.317 121.114C362.735 120.254 362.28 119.315 361.967 118.325C361.53 117.384 361.231 116.386 361.079 115.359C361.668 116.218 362.123 117.161 362.429 118.157C362.871 119.092 363.17 120.089 363.317 121.114Z" fill="#FAFAFA"/>
<path d="M375.189 125.015C373.769 124.03 372.536 122.8 371.548 121.383C372.3 121.813 372.97 122.372 373.528 123.034C374.197 123.588 374.76 124.259 375.189 125.015Z" fill="#FAFAFA"/>
<path d="M370.296 133.671C370.014 132.794 369.885 131.875 369.915 130.954C369.782 130.044 369.809 129.119 369.994 128.219C370.403 130.006 370.505 131.85 370.296 133.671Z" fill="#FAFAFA"/>
<path d="M380.162 131.878C379.129 132.042 378.074 132.006 377.054 131.771C376.014 131.686 374.998 131.406 374.062 130.945C375.093 130.956 376.121 131.081 377.125 131.318C378.154 131.396 379.173 131.584 380.162 131.878Z" fill="#FAFAFA"/>
<path d="M340.38 149.772C339.656 148.769 339.059 147.68 338.604 146.53C338.009 145.445 337.55 144.291 337.236 143.094C337.96 144.096 338.557 145.185 339.012 146.335C339.609 147.419 340.069 148.574 340.38 149.772Z" fill="#FAFAFA"/>
<path d="M353.424 163.783C352.59 163.025 351.864 162.155 351.266 161.199C350.553 160.327 349.956 159.366 349.49 158.34C350.326 159.099 351.055 159.968 351.657 160.924C352.374 161.792 352.968 162.754 353.424 163.783Z" fill="#FAFAFA"/>
<path d="M364.205 157.902C363.291 158.498 362.299 158.964 361.257 159.288C360.269 159.754 359.219 160.074 358.14 160.238C360.039 159.173 362.082 158.386 364.205 157.902Z" fill="#FAFAFA"/>
<path d="M337.645 169.251C338.071 167.576 338.789 165.989 339.767 164.562C339.617 165.422 339.316 166.249 338.879 167.004C338.602 167.82 338.185 168.581 337.645 169.251Z" fill="#FAFAFA"/>
<path d="M329.288 129.124C328.775 128.474 328.466 127.686 328.4 126.86C328.191 126.059 328.228 125.215 328.507 124.436C328.69 125.206 328.808 125.99 328.862 126.78C329.067 127.548 329.21 128.333 329.288 129.124Z" fill="#FAFAFA"/>
<path d="M344.127 160.266C343.179 160.016 342.279 159.611 341.463 159.067C340.579 158.665 339.763 158.126 339.048 157.469C339.994 157.723 340.894 158.127 341.712 158.668C342.593 159.076 343.407 159.615 344.127 160.266Z" fill="#FAFAFA"/>
<path d="M352.697 145.473C351.241 147.217 349.549 148.75 347.671 150.028C348.345 149.109 349.139 148.285 350.033 147.577C350.821 146.758 351.717 146.05 352.697 145.473Z" fill="#FAFAFA"/>
<g opacity="0.3">
<path d="M347.449 145.197C347.88 148.293 349.261 151.178 351.401 153.456C353.621 155.622 357.057 156.715 359.943 155.587C360.259 155.5 360.548 155.339 360.788 155.116C361.028 154.893 361.21 154.616 361.32 154.308C361.369 153.929 361.285 153.546 361.082 153.222C360.88 152.898 360.572 152.654 360.21 152.532C359.49 152.301 358.737 152.193 357.981 152.212C355.828 152.071 353.746 151.382 351.934 150.21C350.122 149.038 348.639 147.423 347.627 145.517" fill="black"/>
</g>
<path d="M358.991 152.355C358.991 152.355 358.787 152.426 358.396 152.461C357.847 152.517 357.294 152.517 356.744 152.461C355.929 152.366 355.127 152.175 354.356 151.893C352.452 151.208 350.762 150.036 349.454 148.492C348.923 147.866 348.467 147.181 348.095 146.45C347.834 145.962 347.628 145.447 347.483 144.913C347.411 144.723 347.372 144.522 347.367 144.318C347.456 144.318 347.696 145.118 348.38 146.29C348.78 146.974 349.247 147.616 349.774 148.208C350.426 148.928 351.156 149.574 351.949 150.135C352.751 150.678 353.608 151.133 354.507 151.493C355.244 151.783 356.008 151.997 356.789 152.133C358.13 152.328 358.991 152.266 358.991 152.355Z" fill="#263238"/>
<path d="M310.109 166.669L322.967 165.168L332.033 171.109L366.665 162.797L367.482 139.07L382.871 137.045V165.772C382.785 169.259 381.32 172.57 378.796 174.979C376.273 177.388 372.897 178.697 369.409 178.621L318.651 177.209L316.493 172.893L305.598 172.565L310.109 166.669Z" fill="#FFBE9D"/>
<path d="M366.257 162.754C366.043 162.839 365.824 162.907 365.6 162.958L363.717 163.447L356.764 165.169L333.783 170.737L331.643 171.252H331.554H331.483L322.425 165.294H322.549L309.682 166.785L309.771 166.732L306.361 171.057L305.473 172.193C305.375 172.329 305.261 172.455 305.136 172.566C305.218 172.421 305.31 172.282 305.411 172.149L306.299 170.977L309.602 166.59H309.656L322.505 164.983H322.576H322.629L331.705 170.915H331.545L333.685 170.4L356.693 164.947L363.682 163.34L365.582 162.923C365.802 162.849 366.028 162.792 366.257 162.754Z" fill="#EB996E"/>
<path d="M317.131 170.355C315.472 170.549 313.801 170.614 312.132 170.55H311.244L311.368 170.506C310.364 171.429 309.279 172.261 308.127 172.992C309.043 171.982 310.041 171.049 311.111 170.204L311.164 170.151H312.15C313.813 170.082 315.479 170.151 317.131 170.355Z" fill="#EB996E"/>
<path d="M372.641 166.633C371.979 165.588 371.119 164.683 370.11 163.969C369.039 163.364 367.859 162.977 366.638 162.832C366.997 162.707 367.382 162.677 367.757 162.743C368.663 162.839 369.536 163.143 370.306 163.631C371.076 164.119 371.723 164.779 372.197 165.558C372.436 165.871 372.589 166.242 372.641 166.633Z" fill="#EB996E"/>
<path d="M150.562 356.326H92.5752V364.292H150.562V356.326Z" fill="#263238"/>
<path d="M150.659 364.396H92.4775V356.227H150.659V364.396ZM92.6729 364.192H150.464V356.422H92.6729V364.192Z" fill="#263238"/>
<path d="M97.957 361.646L106.295 402.823H137.18L145.252 364.302L97.957 361.646Z" fill="#263238"/>
<path d="M97.957 398.922L102.406 405.049H139.942L145.252 398.922H97.957Z" fill="#455A64"/>
<path d="M119.393 362.844C119.277 362.844 119.135 343.769 119.064 320.22C118.993 296.67 119.064 277.596 119.153 277.596C119.242 277.596 119.41 296.67 119.482 320.22C119.553 343.769 119.508 362.844 119.393 362.844Z" fill="#263238"/>
<path d="M132.313 315.105C132.274 315.258 132.22 315.407 132.153 315.549C132.02 315.878 131.842 316.286 131.638 316.784C131.522 317.059 131.398 317.352 131.256 317.672C131.114 317.991 131.007 318.373 130.874 318.755L130.421 319.998C130.27 320.442 130.146 320.886 129.995 321.419C129.306 323.751 128.763 326.124 128.37 328.523C127.924 331.466 127.628 334.43 127.482 337.403C127.272 342.812 127.426 348.23 127.944 353.618C128.13 355.696 128.317 357.365 128.459 358.52C128.512 359.061 128.565 359.505 128.601 359.852C128.613 360.008 128.613 360.166 128.601 360.322C128.545 360.174 128.509 360.019 128.494 359.861C128.432 359.514 128.361 359.079 128.272 358.546C128.086 357.392 127.846 355.723 127.624 353.654C127.02 348.253 126.827 342.815 127.047 337.385C127.178 334.397 127.475 331.417 127.935 328.461C128.345 326.056 128.921 323.683 129.657 321.357C129.817 320.86 129.95 320.38 130.11 319.945L130.59 318.702L131.016 317.627C131.158 317.299 131.3 317.015 131.425 316.739L132.02 315.532C132.094 315.375 132.193 315.231 132.313 315.105Z" fill="#263238"/>
<path d="M130.83 299.68C130.781 299.893 130.718 300.104 130.643 300.31C130.492 300.745 130.288 301.34 130.039 302.086L129.595 303.365C129.453 303.844 129.293 304.359 129.125 304.91C128.787 306.011 128.397 307.263 128.05 308.675L127.464 310.886C127.287 311.659 127.109 312.467 126.922 313.293C126.514 314.953 126.221 316.756 125.848 318.621C125.209 322.404 124.649 326.613 124.258 331.008C123.868 335.404 123.735 339.657 123.681 343.502C123.628 347.348 123.681 350.811 123.877 353.714C123.921 355.171 124.019 356.476 124.09 357.631C124.161 358.785 124.232 359.78 124.303 360.588C124.374 361.396 124.409 361.991 124.445 362.461C124.457 362.677 124.457 362.894 124.445 363.11C124.388 362.901 124.352 362.686 124.338 362.47C124.285 362 124.214 361.387 124.116 360.605C124.019 359.824 123.921 358.829 123.832 357.648C123.743 356.467 123.628 355.189 123.557 353.732C123.362 350.82 123.282 347.356 123.273 343.502C123.264 339.649 123.45 335.413 123.823 330.982C124.196 326.551 124.791 322.35 125.448 318.55C125.83 316.658 126.141 314.856 126.558 313.222C126.754 312.387 126.949 311.579 127.127 310.806L127.739 308.604C128.103 307.192 128.521 305.94 128.885 304.839C129.063 304.288 129.231 303.782 129.382 303.303C129.533 302.823 129.711 302.415 129.862 302.033L130.537 300.257C130.612 300.054 130.711 299.86 130.83 299.68Z" fill="#263238"/>
<path d="M115.725 366.218C115.715 366.144 115.715 366.069 115.725 365.996C115.725 365.827 115.725 365.614 115.671 365.339C115.627 364.735 115.574 363.891 115.503 362.817C115.361 360.588 115.165 357.426 114.917 353.519C114.419 345.678 113.691 334.871 112.368 322.928C111.693 316.96 110.912 311.304 110.095 306.171C109.669 303.614 109.278 301.181 108.825 298.907C108.372 296.634 107.937 294.529 107.582 292.602C107.227 290.675 106.774 288.953 106.427 287.434C106.081 285.916 105.77 284.602 105.539 283.536C105.309 282.47 105.087 281.671 104.936 281.076C104.882 280.819 104.829 280.606 104.793 280.437C104.78 280.363 104.78 280.288 104.793 280.215C104.83 280.282 104.857 280.354 104.873 280.428L105.051 281.058C105.22 281.645 105.442 282.461 105.735 283.5C106.028 284.539 106.374 285.854 106.738 287.381C107.102 288.908 107.546 290.622 107.946 292.549C108.345 294.476 108.834 296.572 109.242 298.845C109.651 301.118 110.13 303.551 110.557 306.118C111.391 311.25 112.182 316.916 112.857 322.874C114.18 334.809 114.863 345.652 115.29 353.501C115.503 357.435 115.654 360.605 115.743 362.808C115.743 363.882 115.814 364.726 115.831 365.339C115.831 365.605 115.831 365.827 115.831 365.996C115.807 366.075 115.771 366.149 115.725 366.218Z" fill="#263238"/>
<path d="M118.923 286.821C118.665 284.157 115.939 282.079 113.222 282.053C111.863 282.113 110.535 282.481 109.34 283.13C108.144 283.78 107.112 284.693 106.322 285.8C104.759 288.029 103.629 290.533 102.992 293.179C101.163 299.546 100.168 306.233 100.95 312.813C101.731 319.393 104.395 325.867 109.119 330.511C109.883 331.275 110.895 332.029 111.934 331.798C112.496 331.634 113.007 331.329 113.417 330.91C118.041 326.677 121.706 321.503 124.165 315.737C126.625 309.971 127.823 303.745 127.678 297.477C127.607 294.982 127.279 292.371 125.902 290.293C124.526 288.215 121.285 285.995 118.932 286.83" fill="#00B19B"/>
<path d="M98.6484 265.155L94.83 272.081C94.7412 272.241 94.6258 272.427 94.4393 272.436C94.2528 272.445 94.0841 272.267 93.9775 272.099L83.8721 256.63L86.1986 255.307L98.6484 265.155Z" fill="#00B19B"/>
<g opacity="0.2">
<path d="M98.6484 265.155L94.83 272.081C94.7412 272.241 94.6258 272.427 94.4393 272.436C94.2528 272.445 94.0841 272.267 93.9775 272.099L83.8721 256.63L86.1986 255.307L98.6484 265.155Z" fill="black"/>
</g>
<path d="M119.153 277.631L84.6807 257.287C84.4845 257.211 84.3051 257.098 84.1527 256.953C84.0004 256.809 83.878 256.635 83.7927 256.443C83.6595 255.937 84.0414 255.44 84.4055 255.058C86.7775 252.6 89.6508 250.681 92.8302 249.433C96.0097 248.184 99.4207 247.634 102.831 247.821C106.241 248.066 109.539 249.138 112.442 250.943C115.344 252.749 117.763 255.234 119.49 258.184C122.811 264.124 122.927 271.992 119.109 277.631" fill="#00B19B"/>
<path d="M89.6885 250.796C89.8358 250.755 89.9886 250.737 90.1414 250.742C90.4344 250.742 90.8784 250.671 91.4467 250.68C93.0472 250.659 94.6464 250.783 96.2242 251.053C98.5747 251.456 100.866 252.151 103.044 253.122C106.803 254.814 110.142 257.316 112.821 260.449C115.5 263.582 117.453 267.27 118.54 271.246C118.984 272.789 119.282 274.371 119.428 275.97C119.499 276.53 119.481 276.974 119.499 277.276C119.514 277.426 119.514 277.578 119.499 277.729C119.499 277.729 119.419 277.107 119.277 275.953C119.08 274.375 118.756 272.816 118.309 271.291C116.863 266.229 114.028 261.674 110.124 258.142C106.22 254.61 101.405 252.244 96.2242 251.311C94.6628 251.014 93.0799 250.845 91.4911 250.804C90.2746 250.813 89.6885 250.831 89.6885 250.796Z" fill="#263238"/>
<path d="M114.482 263.592C113.926 263.93 113.329 264.196 112.706 264.382C111.605 264.817 110.042 265.368 108.355 265.918C106.668 266.469 105.069 266.895 103.915 267.179C103.302 267.367 102.671 267.486 102.032 267.535C102.6 267.26 103.195 267.046 103.808 266.895L108.195 265.519L112.573 264.107C113.191 263.872 113.83 263.7 114.482 263.592Z" fill="#263238"/>
<path d="M109.056 249.012C109.364 250.269 109.502 251.563 109.464 252.857C109.565 254.148 109.494 255.447 109.251 256.72C109.085 255.442 109.019 254.153 109.056 252.866C108.954 251.583 108.954 250.294 109.056 249.012Z" fill="#263238"/>
<path d="M84.3604 256.905C85.1669 256.535 86.0049 256.237 86.8645 256.017C88.4274 255.528 90.6119 254.916 93.0805 254.33C95.5492 253.744 97.7336 253.3 99.2965 253.015C100.172 252.82 101.064 252.701 101.961 252.66C101.118 252.931 100.257 253.145 99.3853 253.3C97.7869 253.655 95.5847 254.188 93.1693 254.738C90.7539 255.289 88.5606 255.884 86.9533 256.292C86.1035 256.553 85.2373 256.758 84.3604 256.905Z" fill="#263238"/>
<path d="M103.258 280.41C100.292 278.163 97.1571 277.746 93.4363 277.861C89.715 278.098 86.0708 279.029 82.6915 280.605C76.8751 283.145 71.4139 286.901 67.9419 292.211C64.4698 297.521 63.2532 304.554 65.8551 310.344C66.0598 310.95 66.4802 311.459 67.0361 311.774C67.6819 311.954 68.3705 311.9 68.9808 311.623C75.5964 309.465 82.2475 307.289 88.3303 303.915C94.4131 300.541 99.9454 295.843 103.204 289.707C104.039 288.275 104.576 286.689 104.785 285.045C104.874 284.213 104.784 283.372 104.523 282.577C104.261 281.782 103.833 281.052 103.267 280.436" fill="#00B19B"/>
<path d="M103.311 279.719C103.162 279.803 103.004 279.869 102.84 279.914L101.455 280.394L100.451 280.722C100.087 280.855 99.6964 281.015 99.279 281.184C98.4443 281.521 97.503 281.859 96.4463 282.356L94.8302 283.093C94.2618 283.351 93.7024 283.67 93.1074 283.981C91.9086 284.567 90.701 285.322 89.4045 286.086C83.867 289.519 78.9393 293.849 74.8235 298.9C73.9355 300.081 73.0031 301.191 72.2661 302.309C71.8842 302.86 71.5024 303.375 71.1649 303.899L70.2769 305.409C69.6553 306.359 69.1936 307.282 68.7496 308.073C68.5365 308.463 68.3233 308.827 68.1457 309.174C67.9681 309.52 67.8261 309.831 67.6929 310.124L67.0357 311.438C66.9739 311.597 66.8902 311.746 66.7871 311.882C66.8304 311.717 66.8899 311.556 66.9647 311.403L67.5419 310.053C67.6751 309.76 67.8172 309.44 67.9682 309.085C68.1191 308.73 68.3411 308.366 68.5454 307.966C68.9716 307.158 69.4333 306.19 70.0194 305.258C70.3213 304.769 70.6233 304.254 70.9074 303.721C71.1916 303.189 71.6178 302.674 71.9908 302.114C72.7189 300.977 73.6158 299.859 74.5305 298.66C76.6001 296.116 78.8687 293.74 81.3148 291.556C83.7882 289.407 86.4312 287.462 89.218 285.739C90.5234 284.976 91.7488 284.23 92.9565 283.653C93.5603 283.351 94.1286 283.04 94.7325 282.765L96.3753 282.054C97.4142 281.566 98.391 281.246 99.2435 280.926C99.6698 280.775 100.06 280.625 100.433 280.5L101.446 280.198L102.858 279.799C103.006 279.761 103.158 279.734 103.311 279.719Z" fill="#263238"/>
<path d="M80.1519 292.256C77.791 293.155 75.3841 293.929 72.9413 294.574C70.5353 295.356 68.0863 295.999 65.6064 296.5C67.9673 295.601 70.3742 294.827 72.817 294.183C75.2245 293.406 77.6732 292.762 80.1519 292.256Z" fill="#263238"/>
<path d="M79.8497 308.133C79.7286 307.39 79.6751 306.638 79.6899 305.886C79.6899 304.501 79.6899 302.574 79.6899 300.46C79.6899 298.347 79.8675 296.42 79.9829 295.035C80.001 294.281 80.0962 293.531 80.2671 292.797C80.3269 293.548 80.3269 294.302 80.2671 295.052C80.2138 296.571 80.1605 298.418 80.0984 300.469C80.0362 302.52 80.0007 304.368 79.9563 305.886C79.9895 306.637 79.9539 307.389 79.8497 308.133Z" fill="#263238"/>
<path d="M93.49 301.226C93.3746 301.226 93.0105 297.327 92.682 292.505C92.3534 287.684 92.1669 283.768 92.2824 283.768C92.3978 283.768 92.753 287.657 93.0904 292.479C93.4279 297.301 93.6055 301.217 93.49 301.226Z" fill="#263238"/>
<path d="M76.5205 283.387C77.2861 283.29 78.0592 283.267 78.8293 283.316C80.2501 283.316 82.2215 283.369 84.3971 283.44C86.5727 283.511 88.5352 283.6 89.956 283.68C90.7274 283.69 91.4967 283.764 92.2559 283.902C91.4903 283.999 90.7172 284.023 89.9471 283.973C88.5263 283.973 86.5549 283.929 84.3793 283.849C82.2037 283.769 80.2412 283.689 78.8115 283.609C78.043 283.6 77.2765 283.526 76.5205 283.387Z" fill="#263238"/>
<path d="M110.601 332.359C110.562 332.202 110.544 332.041 110.548 331.879C110.548 331.533 110.548 331.08 110.486 330.529C110.432 329.348 110.424 327.652 110.486 325.539C110.548 323.425 110.663 320.93 110.912 318.16C111.161 315.389 111.569 312.343 112.129 309.173C112.688 306.003 113.381 303.028 114.082 300.293C114.784 297.558 115.547 295.205 116.24 293.189C116.933 291.173 117.519 289.637 118.016 288.518C118.229 288.003 118.398 287.63 118.54 287.266C118.594 287.118 118.663 286.975 118.744 286.84C118.725 286.997 118.68 287.15 118.611 287.293L118.105 288.598C117.696 289.699 117.137 291.262 116.489 293.304C115.84 295.347 115.13 297.744 114.428 300.408C113.727 303.072 113.07 306.074 112.502 309.235C111.933 312.396 111.551 315.451 111.267 318.177C110.983 320.904 110.823 323.434 110.752 325.53C110.681 327.626 110.637 329.331 110.637 330.512C110.637 331.062 110.637 331.506 110.637 331.861C110.637 332.028 110.625 332.194 110.601 332.359Z" fill="#263238"/>
<path d="M112.413 308.836C112.009 309.387 111.548 309.893 111.036 310.346C110.148 311.234 108.878 312.423 107.44 313.693C106.001 314.963 104.643 316.055 103.639 316.828C103.126 317.274 102.566 317.664 101.97 317.991C102.422 317.48 102.921 317.013 103.462 316.597L107.165 313.382L110.841 310.132C111.322 309.651 111.849 309.217 112.413 308.836Z" fill="#263238"/>
<path d="M123.326 317.62C122.786 316.984 122.296 316.307 121.861 315.595L118.46 310.622L114.979 305.703C114.463 305.046 113.997 304.352 113.585 303.625C114.186 304.205 114.73 304.842 115.21 305.525C116.169 306.742 117.448 308.447 118.762 310.392C120.076 312.336 121.266 314.121 122.074 315.435C122.559 316.123 122.978 316.854 123.326 317.62Z" fill="#263238"/>
<path d="M117.608 289.973C117.67 290.071 114.056 292.513 109.519 295.426C104.981 298.338 101.26 300.629 101.198 300.532C101.136 300.434 104.75 297.992 109.297 295.079C113.843 292.167 117.555 289.884 117.608 289.973Z" fill="#263238"/>
<path d="M127.873 301.029C125.959 299.436 124.131 297.744 122.394 295.959C120.566 294.28 118.831 292.501 117.199 290.631C119.12 292.22 120.952 293.912 122.687 295.701C124.517 297.376 126.248 299.155 127.873 301.029Z" fill="#263238"/>
<path d="M130.404 300.789L133.512 300.532C135.722 300.351 137.867 299.694 139.799 298.605C140.745 298.054 141.724 297.562 142.73 297.131C146.575 295.595 150.873 295.87 155.011 295.657C161.791 295.315 168.434 293.618 174.547 290.666C174.914 290.504 175.223 290.235 175.435 289.894C176.074 288.73 174.884 287.691 173.863 287.061C168.615 283.829 163.278 280.561 157.337 278.954C151.397 277.346 144.639 277.622 139.577 281.111C133.628 285.214 131.452 293.632 130.449 300.789" fill="#00B19B"/>
<path d="M175.462 289.484C175.283 289.41 175.108 289.327 174.938 289.235L173.464 288.462C172.185 287.788 170.347 286.793 168.011 285.683C165.306 284.347 162.486 283.259 159.584 282.433C156.036 281.413 152.319 281.111 148.653 281.545C144.981 281.953 141.513 283.443 138.69 285.825C136.484 287.875 134.719 290.352 133.504 293.107C132.411 295.442 131.728 297.431 131.248 298.781L130.689 300.353C130.634 300.539 130.562 300.72 130.476 300.894C130.501 300.701 130.546 300.511 130.609 300.326C130.733 299.927 130.893 299.394 131.088 298.737C131.681 296.797 132.387 294.893 133.202 293.036C134.398 290.217 136.171 287.679 138.405 285.585C141.269 283.119 144.809 281.572 148.564 281.145C152.28 280.696 156.049 280.998 159.646 282.033C162.564 282.89 165.397 284.014 168.109 285.39C170.427 286.544 172.247 287.574 173.508 288.294L174.947 289.137C175.132 289.231 175.305 289.347 175.462 289.484Z" fill="#263238"/>
<path d="M167.993 293.526C167.931 293.615 163.855 290.987 158.9 287.648C153.945 284.309 149.976 281.521 150.02 281.432C150.064 281.343 154.149 283.972 159.104 287.31C164.059 290.649 168.055 293.429 167.993 293.526Z" fill="#263238"/>
<path d="M164.085 281.032C162.012 281.684 159.823 281.887 157.665 281.627C158.72 281.408 159.793 281.283 160.871 281.254C161.934 281.088 163.009 281.013 164.085 281.032Z" fill="#263238"/>
<path d="M145.838 277.766C145.061 279.604 144.043 281.33 142.81 282.898C143.127 281.953 143.576 281.056 144.142 280.234C144.587 279.335 145.158 278.504 145.838 277.766Z" fill="#263238"/>
<path d="M149.478 295.924C148.791 295.638 148.137 295.28 147.524 294.858C146.343 294.148 144.754 293.082 143.084 291.865C141.415 290.649 139.897 289.468 138.813 288.615C138.207 288.187 137.642 287.702 137.126 287.168C137.786 287.512 138.41 287.919 138.991 288.385L143.333 291.537C145.02 292.762 146.574 293.837 147.711 294.618C148.337 295.001 148.928 295.438 149.478 295.924Z" fill="#263238"/>
<path d="M134.976 314.011C132.01 313.221 128.467 316.107 127.872 319.117C127.277 322.128 128.396 325.2 129.71 327.997C132.538 334.208 136.733 339.7 141.982 344.061C147.276 348.403 153.882 350.828 160.728 350.943C159.476 345.118 161.056 339.026 160.364 333.103C159.745 327.886 157.375 323.034 153.641 319.338C149.907 315.643 145.03 313.324 139.807 312.759C137.915 312.555 135.722 312.262 134.967 314.011" fill="#00B19B"/>
<path d="M160.728 350.943C160.579 350.894 160.437 350.828 160.302 350.748C159.913 350.528 159.542 350.279 159.192 350.002C157.948 348.919 156.949 347.584 156.262 346.086C155.791 345.198 155.258 344.167 154.743 343.057C154.228 341.947 153.713 340.775 153.145 339.505C152.575 338.205 151.92 336.945 151.182 335.731C150.392 334.438 149.501 333.209 148.518 332.055C146.494 329.675 144.309 327.615 142.418 325.635C140.708 323.912 139.151 322.043 137.765 320.049C136.836 318.698 136.073 317.24 135.491 315.707C135.305 315.165 135.163 314.73 135.092 314.437C135.043 314.291 135.013 314.139 135.003 313.984C135.003 313.984 135.207 314.588 135.642 315.654C136.276 317.146 137.067 318.566 138.004 319.89C139.417 321.839 140.985 323.672 142.693 325.369C144.593 327.322 146.787 329.382 148.838 331.789C149.843 332.958 150.755 334.205 151.564 335.518C152.298 336.751 152.954 338.03 153.527 339.346L155.089 342.898C155.587 343.999 156.102 345.011 156.564 345.926C157.212 347.411 158.154 348.749 159.334 349.86C160.187 350.623 160.773 350.907 160.728 350.943Z" fill="#263238"/>
<path d="M145.394 346.106C145.411 345.432 145.504 344.762 145.669 344.108C145.9 342.882 146.282 341.204 146.797 339.375C147.312 337.546 147.862 335.92 148.306 334.757C148.501 334.111 148.772 333.491 149.114 332.91C148.994 333.57 148.816 334.218 148.581 334.846C148.209 336.036 147.693 337.67 147.196 339.49C146.699 341.311 146.308 342.962 145.953 344.17C145.831 344.832 145.643 345.481 145.394 346.106Z" fill="#263238"/>
<path d="M160.188 331.8C159.477 331.695 158.776 331.532 158.092 331.311C156.814 330.983 155.046 330.521 153.084 330.077C151.121 329.633 149.328 329.296 148.031 329.047C147.32 328.956 146.619 328.801 145.936 328.585C146.653 328.567 147.371 328.627 148.076 328.763C149.39 328.932 151.201 329.233 153.173 329.651C155.144 330.068 156.911 330.601 158.172 331.009C158.87 331.202 159.545 331.467 160.188 331.8Z" fill="#263238"/>
<path d="M134.382 335.956C134.415 335.175 134.522 334.399 134.702 333.639C134.968 332.227 135.376 330.273 135.936 328.151C136.495 326.028 137.081 324.119 137.543 322.752C137.771 322.001 138.068 321.272 138.431 320.576C138.302 321.345 138.112 322.102 137.863 322.841C137.472 324.226 136.922 326.135 136.371 328.248C135.82 330.362 135.359 332.307 135.03 333.701C134.879 334.47 134.662 335.224 134.382 335.956Z" fill="#263238"/>
<path d="M153.376 319.331C153.376 319.438 149.655 319.145 145.1 318.657C140.545 318.168 136.85 317.689 136.868 317.582C139.637 317.662 142.399 317.884 145.144 318.248C147.905 318.469 150.652 318.83 153.376 319.331Z" fill="#263238"/>
<path d="M150.659 364.265C150.659 364.38 137.632 364.469 121.568 364.469C105.504 364.469 92.4775 364.38 92.4775 364.265C92.4775 364.149 105.504 364.061 121.568 364.061C137.632 364.061 150.659 364.149 150.659 364.265Z" fill="#455A64"/>
<path d="M141.602 381.021C141.602 381.136 132.819 381.234 121.995 381.234C111.17 381.234 102.396 381.136 102.396 381.021C102.396 380.905 111.17 380.816 121.995 380.816C132.819 380.816 141.602 380.95 141.602 381.021Z" fill="#455A64"/>
<path d="M141.939 383.419C141.939 383.535 133.166 383.623 122.341 383.623C111.517 383.623 102.743 383.535 102.743 383.419C102.743 383.304 111.517 383.215 122.341 383.215C133.166 383.215 141.939 383.304 141.939 383.419Z" fill="#455A64"/>
<path d="M141.939 379.05C141.939 379.165 132.863 379.254 121.666 379.254C110.468 379.254 101.393 379.165 101.393 379.05C101.393 378.934 110.468 378.846 121.666 378.846C132.863 378.846 141.939 378.934 141.939 379.05Z" fill="#455A64"/>
</svg>
