<svg width="34" height="25" viewBox="0 0 34 25" fill="none" xmlns="http://www.w3.org/2000/svg">
<path d="M26.0426 24.0452C25.6245 24.0452 25.2743 23.9035 24.9919 23.6202C24.7086 23.3379 24.5669 22.9876 24.5669 22.5695V18.1425C24.5669 17.7244 24.7086 17.3737 24.9919 17.0904C25.2743 16.8081 25.6245 16.6669 26.0426 16.6669V15.1912C26.0426 14.3796 26.3313 13.6846 26.9088 13.1061C27.4873 12.5286 28.1823 12.2399 28.9939 12.2399C29.8055 12.2399 30.5006 12.5286 31.079 13.1061C31.6565 13.6846 31.9453 14.3796 31.9453 15.1912V16.6669C32.3634 16.6669 32.7136 16.8081 32.9959 17.0904C33.2793 17.3737 33.4209 17.7244 33.4209 18.1425V22.5695C33.4209 22.9876 33.2793 23.3379 32.9959 23.6202C32.7136 23.9035 32.3634 24.0452 31.9453 24.0452H26.0426ZM27.5183 16.6669H30.4696V15.1912C30.4696 14.7731 30.3279 14.4224 30.0446 14.1391C29.7623 13.8567 29.412 13.7156 28.9939 13.7156C28.5758 13.7156 28.2256 13.8567 27.9433 14.1391C27.6599 14.4224 27.5183 14.7731 27.5183 15.1912V16.6669ZM3.90763 24.0452C3.09601 24.0452 2.40147 23.7565 1.82399 23.179C1.24553 22.6005 0.956299 21.9055 0.956299 21.0939V3.3859C0.956299 2.57428 1.24553 1.87974 1.82399 1.30226C2.40147 0.7238 3.09601 0.43457 3.90763 0.43457H27.5183C28.3299 0.43457 29.0249 0.7238 29.6034 1.30226C30.1809 1.87974 30.4696 2.57428 30.4696 3.3859V9.28856H28.9939C26.9526 9.28856 25.2123 10.0077 23.773 11.446C22.3347 12.8852 21.6156 14.6255 21.6156 16.6669V24.0452H3.90763ZM15.7129 13.4573C15.8359 13.4573 15.9648 13.4386 16.0996 13.4012C16.2353 13.3648 16.3647 13.3097 16.4877 13.236L26.928 6.70615C27.1248 6.58317 27.2723 6.42971 27.3707 6.24574C27.4691 6.06079 27.5183 5.85764 27.5183 5.63629C27.5183 5.1444 27.3092 4.77549 26.8911 4.52954C26.473 4.2836 26.0426 4.29589 25.5999 4.56643L15.7129 10.7642L5.82599 4.56643C5.38329 4.29589 4.95289 4.2895 4.53479 4.54725C4.11668 4.80598 3.90763 5.169 3.90763 5.63629C3.90763 5.88223 3.95682 6.09719 4.0552 6.28115C4.15357 6.4661 4.30114 6.60777 4.4979 6.70615L14.9382 13.236C15.0612 13.3097 15.1906 13.3648 15.3263 13.4012C15.4611 13.4386 15.59 13.4573 15.7129 13.4573Z" fill="#FF635F"/>
</svg>
