<svg width="29" height="28" viewBox="0 0 29 28" fill="none" xmlns="http://www.w3.org/2000/svg">
<path d="M23.1242 4.43896H5.94031C5.48457 4.43896 5.04749 4.62001 4.72523 4.94227C4.40297 5.26453 4.22192 5.70161 4.22192 6.15736V12.4617C4.22192 22.0632 12.3628 25.253 13.9953 25.79C14.3441 25.9047 14.7205 25.9047 15.0693 25.79C16.7017 25.253 24.8426 22.0632 24.8426 12.4617V6.15736C24.8426 5.70161 24.6616 5.26453 24.3393 4.94227C24.017 4.62001 23.58 4.43896 23.1242 4.43896ZM19.8485 11.9354L13.5549 17.9498C13.3922 18.1029 13.1769 18.1875 12.9535 18.1861C12.7334 18.1869 12.5216 18.1022 12.3628 17.9498L9.216 14.9426C9.12872 14.8665 9.05773 14.7735 9.00732 14.6692C8.9569 14.5649 8.92809 14.4515 8.92261 14.3358C8.91714 14.2201 8.93511 14.1045 8.97546 13.9959C9.01581 13.8873 9.07769 13.788 9.15739 13.704C9.2371 13.6199 9.33297 13.5529 9.43925 13.5068C9.54553 13.4608 9.66003 13.4367 9.77586 13.436C9.89169 13.4353 10.0065 13.4581 10.1133 13.5029C10.2201 13.5477 10.3167 13.6137 10.3974 13.6968L12.9535 16.1348L18.6671 10.6896C18.8342 10.5439 19.0511 10.4683 19.2726 10.4788C19.4941 10.4893 19.7029 10.585 19.8554 10.7458C20.008 10.9067 20.0925 11.1203 20.0912 11.342C20.0899 11.5637 20.003 11.7764 19.8485 11.9354Z" fill="rgb(255,99,95)"/>
</svg>
