<svg width="500" height="500" viewBox="0 0 500 500" fill="none" xmlns="http://www.w3.org/2000/svg">
<path d="M427.4 72.0312H453.88V60.8412H427.4V72.0312Z" fill="#EBEBEB"/>
<path d="M442.18 57.9199H468.66V46.7299H442.18V57.9199Z" fill="#EBEBEB"/>
<path d="M107.15 240.211H133.63V229.021H107.15V240.211Z" fill="#EBEBEB"/>
<path d="M121.91 226.1H148.39V214.91H121.91V226.1Z" fill="#EBEBEB"/>
<path d="M136.629 240.211H163.109V229.021H136.629V240.211Z" fill="#EBEBEB"/>
<path d="M31.3403 57.9199H57.8203V46.7299H31.3403V57.9199Z" fill="#EBEBEB"/>
<path d="M46.1196 341.041H72.5996V329.851H46.1196V341.041Z" fill="#EBEBEB"/>
<path d="M31.3403 326.93H57.8203V315.74H31.3403V326.93Z" fill="#EBEBEB"/>
<path d="M427.4 341.041H453.88V329.851H427.4V341.041Z" fill="#EBEBEB"/>
<path d="M366.75 73.1699H288.17V168.48H366.75V73.1699Z" fill="#EBEBEB"/>
<path d="M357.769 81.8711H297.149V159.791H357.769V81.8711Z" fill="white"/>
<path d="M299.519 81.8711H297.149V159.791H299.519V81.8711Z" fill="#DBDBDB"/>
<path d="M369.12 73.1699H366.75V168.48H369.12V73.1699Z" fill="#DBDBDB"/>
<path d="M334.6 99.541H320.31V142.131H334.6V99.541Z" fill="#DBDBDB"/>
<path d="M346.999 131.76H307.899V109.9H346.999V131.76ZM308.879 130.76H345.999V110.9H308.899L308.879 130.76Z" fill="#EBEBEB"/>
<path d="M444.42 191.451H365.84V286.761H444.42V191.451Z" fill="#EBEBEB"/>
<path d="M435.43 200.15H374.81V278.07H435.43V200.15Z" fill="white"/>
<path d="M377.18 200.15H374.81V278.07H377.18V200.15Z" fill="#DBDBDB"/>
<path d="M446.78 191.451H444.41V286.761H446.78V191.451Z" fill="#DBDBDB"/>
<path d="M411.51 220.291H399.26V251.251H411.51V220.291Z" fill="#EBEBEB"/>
<path d="M422.07 261.001H388.18V238.611H422.07V261.001ZM389.18 260.001H421.07V239.611H389.18V260.001Z" fill="#DBDBDB"/>
<path d="M53.6598 125.611L228.3 125.611V117.951L53.6598 117.951V125.611Z" fill="#EBEBEB"/>
<path d="M218.519 125.621H210.859V150.951H218.519V125.621Z" fill="#EBEBEB"/>
<path d="M218.519 125.621H210.859V133.451H218.519V125.621Z" fill="#DBDBDB"/>
<path d="M71.1102 125.621H63.4502V150.951H71.1102V125.621Z" fill="#EBEBEB"/>
<path d="M71.1102 125.621H63.4502V133.451H71.1102V125.621Z" fill="#DBDBDB"/>
<path d="M195.71 117.96V69.1504H183.42V117.96H195.71Z" fill="#C7C7C7"/>
<path d="M195.71 71.901V66.541H183.42V71.901H195.71Z" fill="#DBDBDB"/>
<path d="M195.71 80.7712V78.7812H183.42V80.7712H195.71Z" fill="#DBDBDB"/>
<path d="M195.71 111.561V106.201H181.89V111.561H195.71Z" fill="#DBDBDB"/>
<path d="M183.42 117.96V61.0195H174.83V117.96H183.42Z" fill="#DBDBDB"/>
<path d="M181.729 88.2711V66.3711H176.579V88.2711H181.729Z" fill="#EBEBEB"/>
<path d="M119.753 117.983L160.247 77.9531L154.208 71.8442L113.714 111.874L119.753 117.983Z" fill="#C7C7C7"/>
<path d="M128.027 107.34L143.602 91.9434L139.974 88.2737L124.399 103.67L128.027 107.34Z" fill="#DBDBDB"/>
<path d="M174.83 117.971V74.7207H160.24V117.971H174.83Z" fill="#A6A6A6"/>
<path d="M174.84 113.38V109.35H160.25V113.38H174.84Z" fill="#C7C7C7"/>
<path d="M174.83 106.701V105.141H160.24V106.701H174.83Z" fill="#C7C7C7"/>
<path d="M205.78 117.97V77.3301H195.7V117.97H205.78Z" fill="#A6A6A6"/>
<path d="M205.78 113.661V109.871H195.7V113.661H205.78Z" fill="#C7C7C7"/>
<path d="M205.78 89.4912V85.7012H195.7V89.4912H205.78Z" fill="#C7C7C7"/>
<path d="M205.79 93.5501V92.0801H195.71V93.5501H205.79Z" fill="#C7C7C7"/>
<path d="M89.0002 65.8905C97.6002 74.3105 99.0002 87.3305 97.2302 98.7305C97.2302 98.9905 96.7802 98.9205 96.7802 98.7305C96.7802 96.1305 96.8602 93.5605 96.8502 91.0005C96.8502 90.8805 96.7702 90.7705 96.7202 90.6505C94.4024 89.128 92.485 87.0701 91.1301 84.6505C89.7001 81.8305 89.1302 78.6505 88.0402 75.6505C87.9302 75.3705 88.2302 75.4505 88.4302 75.6505C93.6602 79.5005 95.3302 83.6505 96.8302 89.2005C96.8 86.3015 96.4953 83.412 95.9202 80.5705C94.9163 75.204 92.4408 70.222 88.7701 66.1805C88.6101 66.0005 88.8302 65.7405 89.0002 65.8905Z" fill="#A6A6A6"/>
<path d="M87.3599 66.8712C85.8899 66.8712 84.9599 69.2912 83.8099 69.9812C83.688 70.0793 83.547 70.1507 83.3958 70.191C83.2447 70.2312 83.0867 70.2394 82.9322 70.2149C82.7777 70.1904 82.6301 70.1338 82.4988 70.0488C82.3675 69.9637 82.2554 69.8521 82.1699 69.7212C81.0299 68.1312 82.5999 66.1612 84.0699 65.0612C83.0962 65.6324 82.0677 66.1048 80.9999 66.4712C80.8541 66.5177 80.7 66.5327 80.5479 66.5152C80.3958 66.4977 80.2492 66.4481 80.1177 66.3696C79.9863 66.2911 79.8731 66.1856 79.7855 66.06C79.6979 65.9344 79.6381 65.7916 79.6099 65.6412C79.1099 63.4712 81.8399 62.5012 83.7099 62.4612C82.7999 61.8312 80.2099 60.1112 81.5899 59.2712C82.9699 58.4312 85.9999 60.8712 86.9999 61.6812C88.4599 62.8712 90.1999 64.6812 90.2699 66.4912C90.3999 68.6612 88.4999 67.3312 87.3599 66.8712Z" fill="#DBDBDB"/>
<path d="M87.7894 67.2401C85.8994 66.3801 82.2694 67.6201 81.9594 66.9001C81.3294 65.4401 84.2394 64.4401 85.7994 64.2501C84.3594 63.8601 81.5994 63.2501 81.6794 61.8501C81.7794 60.1501 85.9194 61.6101 88.0194 63.2101C90.6494 65.2101 90.6394 67.2101 90.1994 67.5801C89.5994 68.1101 88.0994 67.3801 87.7894 67.2401Z" fill="#EBEBEB"/>
<path d="M108.56 65.0608C99.6495 73.1408 97.7095 86.0608 99.0895 97.5608C99.0895 97.8208 99.5295 97.7708 99.5395 97.5608C99.6395 94.9608 99.6495 92.3908 99.7595 89.8308L99.9095 89.4908C102.28 88.0517 104.272 86.0665 105.72 83.7008C107.26 80.9308 107.94 77.7708 109.15 74.8708C109.27 74.5908 108.96 74.6608 108.76 74.8008C103.39 78.4508 101.56 82.5408 99.8495 88.0208C99.9912 85.1248 100.406 82.2487 101.09 79.4308C102.294 74.1052 104.957 69.2197 108.78 65.3208C108.92 65.1508 108.71 64.9208 108.56 65.0608Z" fill="#A6A6A6"/>
<path d="M110.14 66.1005C111.61 66.2105 112.45 68.6005 113.57 69.3405C113.689 69.4433 113.827 69.5201 113.977 69.566C114.127 69.6119 114.284 69.6259 114.44 69.607C114.595 69.5882 114.745 69.5369 114.879 69.4566C115.014 69.3762 115.13 69.2686 115.22 69.1405C116.42 67.5905 114.93 65.5705 113.5 64.4105C114.444 65.0247 115.449 65.5375 116.5 65.9405C116.644 65.9942 116.798 66.0162 116.952 66.005C117.105 65.9938 117.254 65.9497 117.389 65.8757C117.524 65.8016 117.641 65.6994 117.733 65.576C117.824 65.4526 117.888 65.3109 117.92 65.1605C118.5 63.0105 115.81 61.9405 113.92 61.8305C114.85 61.2305 117.51 59.6205 116.16 58.7205C114.81 57.8205 111.65 60.1605 110.63 60.9205C109.12 62.0505 107.31 63.7605 107.18 65.6105C107 67.7705 109 66.5105 110.14 66.1005Z" fill="#DBDBDB"/>
<path d="M109.69 66.4509C111.62 65.6609 115.2 67.0409 115.54 66.3309C116.22 64.9009 113.35 63.7909 111.8 63.5409C113.25 63.2009 116.04 62.6909 116.01 61.2909C116.01 59.5909 111.78 60.8909 109.63 62.4209C106.91 64.3409 106.85 66.2909 107.28 66.7009C107.85 67.2609 109.38 66.5809 109.69 66.4509Z" fill="#EBEBEB"/>
<path d="M99.4495 86.4098C98.8428 90.7323 97.9169 95.004 96.6795 99.1898C96.6531 99.2621 96.6016 99.3225 96.5343 99.3599C96.467 99.3973 96.3885 99.4092 96.3132 99.3934C96.2378 99.3776 96.1707 99.3352 96.1241 99.2739C96.0775 99.2126 96.0546 99.1366 96.0595 99.0598C96.6395 95.1198 97.7095 91.2598 98.2995 87.3198C98.9421 83.334 99.1766 79.2931 98.9995 75.2598C98.6195 68.6298 96.8195 61.5698 92.4895 56.3698C92.3995 56.2498 92.5995 56.0798 92.6995 56.1898C101.349 66.2998 99.9995 78.6998 99.9995 79.8098C101.229 75.6198 102.489 70.8098 107.139 66.5598C107.339 66.3798 107.489 66.4698 107.459 66.7798C106.629 74.5398 104.459 78.5898 99.9695 82.7798C99.7995 83.9998 99.6395 85.1998 99.4495 86.4098Z" fill="#A6A6A6"/>
<path d="M92.3903 57.5401C90.8303 56.8401 88.6803 58.8301 87.1403 58.9601C86.9655 59.0023 86.7838 59.0073 86.6071 58.9746C86.4303 58.9419 86.2624 58.8724 86.1143 58.7705C85.9661 58.6686 85.8411 58.5367 85.7474 58.3833C85.6537 58.2299 85.5933 58.0584 85.5703 57.8801C85.1903 55.6501 87.8103 54.4001 89.8903 54.0001C88.5803 53.9201 87.2903 54.2701 86.0003 53.9201C85.8274 53.8928 85.6623 53.8291 85.5157 53.7334C85.3692 53.6376 85.2446 53.5119 85.1502 53.3646C85.0557 53.2172 84.9935 53.0515 84.9677 52.8784C84.9418 52.7053 84.953 52.5286 85.0003 52.3601C85.5803 49.8501 88.8903 50.2201 90.8603 51.1201C90.2303 50.0101 88.4003 46.9201 90.2503 46.7401C92.1003 46.5601 94.0003 50.6501 94.6703 52.0001C95.5903 54.0001 96.5103 56.6901 95.6703 58.6501C94.6403 60.9201 93.3503 58.5801 92.3903 57.5401Z" fill="#DBDBDB"/>
<path d="M92.6498 58.1309C91.1198 56.2909 86.7298 55.7409 86.7698 54.8409C86.8598 53.0209 90.3698 53.4409 92.0898 54.0309C90.7898 52.9009 88.2398 50.8609 89.0298 49.4609C90.0298 47.7509 93.5498 51.3509 94.9098 54.0709C96.6298 57.4909 95.6298 59.5109 94.9798 59.6909C94.0898 60.0009 92.9098 58.4309 92.6498 58.1309Z" fill="#EBEBEB"/>
<path d="M105.15 88.7402L109 118H85.71C86.18 115.41 90.52 88.7502 90.52 88.7502L105.15 88.7402Z" fill="#DBDBDB"/>
<path d="M362.17 457.051C411.66 457.051 451.78 452.22 451.78 446.261C451.78 440.302 411.66 435.471 362.17 435.471C312.679 435.471 272.56 440.302 272.56 446.261C272.56 452.22 312.679 457.051 362.17 457.051Z" fill="#EBEBEB"/>
<path d="M453.01 420.551L402.26 420.791L351.5 420.881L250 421.051L148.5 420.881L97.7402 420.791L46.9902 420.551L97.7402 420.301L148.5 420.211L250 420.051L351.5 420.211L402.26 420.301L453.01 420.551Z" fill="#263238"/>
<path d="M281.551 272.119C283.578 272.119 285.221 270.476 285.221 268.449C285.221 266.422 283.578 264.779 281.551 264.779C279.524 264.779 277.881 266.422 277.881 268.449C277.881 270.476 279.524 272.119 281.551 272.119Z" fill="white"/>
<path d="M337.54 272.119C339.567 272.119 341.21 270.476 341.21 268.449C341.21 266.422 339.567 264.779 337.54 264.779C335.513 264.779 333.87 266.422 333.87 268.449C333.87 270.476 335.513 272.119 337.54 272.119Z" fill="white"/>
<path d="M393.53 272.119C395.557 272.119 397.2 270.476 397.2 268.449C397.2 266.422 395.557 264.779 393.53 264.779C391.503 264.779 389.86 266.422 389.86 268.449C389.86 270.476 391.503 272.119 393.53 272.119Z" fill="white"/>
<path d="M203.811 228.249C245.001 268.519 301.18 362.069 308.521 376.659C313.521 386.569 261.741 414.039 259.371 406.809C256.371 397.549 203.321 299.359 190.671 244.039C185.131 219.809 195.491 220.119 203.811 228.249Z" fill="#F7A9A0"/>
<path d="M256.761 400.001C258.691 404.941 265.341 426.001 269.761 428.531C274.181 431.061 296.951 430.031 308.441 429.791C319.931 429.551 322.121 426.301 321.851 422.351C321.581 418.401 297.451 418.151 297.451 418.151C297.451 418.151 329.821 426.691 338.001 428.001C346.181 429.311 364.891 433.661 367.451 426.891C368.611 423.831 363.451 420.891 363.451 420.891C363.451 420.891 371.331 423.011 372.451 419.091C373.781 414.631 367.501 412.321 367.501 412.321C367.501 412.321 372.421 413.211 372.451 409.591C372.541 401.521 341.831 398.191 341.831 398.191C341.831 398.191 365.521 409.121 366.131 402.521C366.991 393.381 318.721 384.391 313.641 380.521C310.312 377.826 307.52 374.528 305.411 370.801L256.761 400.001Z" fill="#F7A9A0"/>
<path d="M321.701 424.34C321.76 423.784 321.685 423.222 321.483 422.7C321.282 422.178 320.959 421.712 320.541 421.34C319.7 420.597 318.74 420.002 317.701 419.58C315.56 418.711 313.344 418.042 311.081 417.58C306.521 416.58 301.871 415.81 297.221 414.71C301.997 414.538 306.775 414.975 311.441 416.01C313.821 416.504 316.12 417.328 318.271 418.46C319.381 419.043 320.358 419.85 321.141 420.83C321.524 421.32 321.776 421.899 321.874 422.513C321.972 423.127 321.912 423.756 321.701 424.34Z" fill="#263238"/>
<path d="M363.38 420.9C360.05 420.16 356.77 419.29 353.49 418.42C350.21 417.55 346.95 416.61 343.68 415.7L333.92 412.86C330.67 411.92 327.41 410.98 324.12 410.08C327.519 410.376 330.893 410.903 334.22 411.66C337.56 412.35 340.85 413.23 344.13 414.15C347.41 415.07 350.64 416.15 353.85 417.24C357.06 418.33 360.26 419.53 363.38 420.9Z" fill="#263238"/>
<path d="M331.73 401.869C334.859 402.007 337.974 402.371 341.05 402.959C344.134 403.511 347.185 404.229 350.19 405.109C353.199 405.978 356.157 407.012 359.05 408.209C361.95 409.384 364.764 410.761 367.47 412.329C364.47 411.329 361.58 410.329 358.62 409.379C355.66 408.429 352.71 407.499 349.74 406.659C346.77 405.819 343.74 404.979 340.74 404.169C337.74 403.359 334.77 402.629 331.73 401.869Z" fill="#263238"/>
<path d="M336.311 394.09C346.44 394.755 356.254 397.882 364.901 403.2C360.101 401.61 355.441 399.91 350.671 398.43C345.901 396.95 341.151 395.53 336.311 394.09Z" fill="#263238"/>
<path d="M307.46 369.56L246.79 406C246.79 406 196.79 281.59 190.33 249C183.87 216.41 195.63 215.27 214.52 235.34C236.61 258.82 307.46 369.56 307.46 369.56Z" fill="#407BFF"/>
<path d="M246 390.67C250.56 388.49 254.85 385.67 259.17 383.02C263.49 380.37 267.66 377.81 271.89 375.16C280.41 369.83 289.13 364.66 297.29 358.77C297.322 358.74 297.344 358.701 297.35 358.657C297.356 358.614 297.348 358.57 297.325 358.532C297.303 358.495 297.269 358.466 297.227 358.451C297.186 358.436 297.141 358.436 297.1 358.45C288.02 362.96 279.37 368.45 270.74 373.76C266.42 376.427 262.133 379.157 257.88 381.95C253.687 384.525 249.64 387.333 245.76 390.36C245.6 390.51 245.83 390.76 246 390.67Z" fill="#263238"/>
<path d="M246.29 379.1C245.62 379.36 245.042 379.814 244.629 380.403C244.216 380.992 243.987 381.69 243.97 382.41C243.978 382.888 243.864 383.36 243.638 383.782C243.412 384.204 243.083 384.561 242.68 384.82C242.237 385.105 241.727 385.27 241.2 385.3C240.62 385.4 240.02 385.48 239.42 385.64C240.6 385.84 241.79 386.31 243.16 385.78C243.819 385.499 244.381 385.031 244.776 384.434C245.17 383.836 245.381 383.136 245.38 382.42C245.387 381.947 245.515 381.484 245.754 381.076C245.992 380.667 246.332 380.328 246.74 380.09C247.194 379.815 247.71 379.66 248.24 379.64C248.83 379.54 249.43 379.46 250.02 379.31C248.83 379.1 247.7 378.64 246.29 379.1ZM283.62 332.9C283.255 333.231 282.961 333.633 282.757 334.082C282.552 334.531 282.441 335.017 282.43 335.51C282.438 335.987 282.325 336.458 282.101 336.88C281.877 337.301 281.55 337.659 281.15 337.92C280.702 338.203 280.19 338.369 279.66 338.4C279.08 338.5 278.48 338.58 277.88 338.74C279.07 338.94 280.25 339.41 281.62 338.88C282.28 338.6 282.842 338.132 283.237 337.535C283.632 336.937 283.842 336.236 283.84 335.52C283.836 334.969 284.011 334.432 284.34 333.99L283.62 332.9ZM241.29 328.64C240.615 328.905 240.036 329.367 239.627 329.967C239.219 330.566 239 331.274 239 332C239.006 332.478 238.891 332.949 238.666 333.371C238.44 333.792 238.111 334.15 237.71 334.41C237.266 334.693 236.756 334.859 236.23 334.89C235.64 334.99 235.05 335.07 234.45 335.23C235.63 335.43 236.81 335.9 238.19 335.37C238.849 335.09 239.41 334.622 239.803 334.024C240.196 333.426 240.404 332.725 240.4 332.01C240.411 331.538 240.542 331.077 240.78 330.669C241.018 330.262 241.355 329.921 241.76 329.68C242.215 329.407 242.731 329.253 243.26 329.23C243.86 329.13 244.46 329.05 245.04 328.9C243.83 328.64 242.69 328.18 241.29 328.64ZM241.04 285.64C240.381 285.368 239.656 285.299 238.958 285.441C238.26 285.584 237.62 285.931 237.12 286.44C236.777 286.769 236.355 287.005 235.895 287.125C235.434 287.246 234.951 287.248 234.49 287.13C233.978 287.001 233.509 286.738 233.13 286.37C232.63 286.02 232.13 285.67 231.62 285.37C232.32 286.37 232.8 287.5 234.13 288.15C234.788 288.454 235.522 288.553 236.236 288.431C236.95 288.31 237.611 287.974 238.13 287.47C238.46 287.124 238.874 286.869 239.331 286.729C239.788 286.589 240.273 286.568 240.74 286.67C241.257 286.775 241.735 287.02 242.12 287.38C242.61 287.72 243.12 288.08 243.62 288.38C242.9 287.39 242.4 286.21 241 285.63L241.04 285.64ZM218.28 263.32C218 262.665 217.532 262.107 216.936 261.715C216.341 261.324 215.643 261.117 214.93 261.12C214.453 261.115 213.986 260.986 213.574 260.746C213.162 260.505 212.82 260.162 212.58 259.75C212.311 259.295 212.166 258.778 212.16 258.25C212.03 257.65 211.97 257.07 211.8 256.47C211.62 257.65 211.14 258.8 211.62 260.21C211.872 260.88 212.319 261.46 212.904 261.873C213.489 262.287 214.184 262.515 214.9 262.53C215.645 262.521 216.364 262.804 216.904 263.318C217.444 263.831 217.762 264.535 217.79 265.28C217.91 265.88 217.97 266.46 218.13 267.06C218.33 265.9 218.82 264.69 218.28 263.31V263.32ZM298.12 372.38C297.847 371.721 297.383 371.16 296.787 370.768C296.192 370.376 295.493 370.171 294.78 370.18C294.306 370.17 293.841 370.04 293.43 369.802C293.019 369.565 292.675 369.227 292.43 368.82C292.165 368.352 292.018 367.827 292 367.29C291.88 366.73 291.82 366.13 291.67 365.53C291.46 366.71 290.98 367.85 291.46 369.25C291.709 369.924 292.157 370.507 292.745 370.921C293.332 371.335 294.031 371.562 294.75 371.57C295.23 371.564 295.704 371.681 296.126 371.911C296.548 372.14 296.904 372.474 297.16 372.88C297.462 373.309 297.635 373.816 297.66 374.34C297.72 374.68 297.77 375.01 297.83 375.34L298.19 375.12C298.456 374.218 298.431 373.256 298.12 372.37V372.38ZM266.64 311C266.366 310.342 265.901 309.782 265.306 309.39C264.711 308.998 264.013 308.792 263.3 308.8C262.825 308.791 262.361 308.662 261.949 308.424C261.538 308.186 261.194 307.847 260.95 307.44C260.676 306.976 260.528 306.448 260.52 305.91C260.4 305.34 260.34 304.75 260.19 304.15C259.98 305.33 259.5 306.47 259.98 307.87C260.229 308.544 260.677 309.127 261.265 309.541C261.852 309.955 262.551 310.182 263.27 310.19C264.015 310.196 264.73 310.486 265.268 311.001C265.807 311.515 266.13 312.216 266.17 312.96C266.28 313.56 266.35 314.16 266.5 314.73C266.7 313.56 267.19 312.38 266.64 311ZM215.25 309.76C214.973 309.104 214.508 308.545 213.914 308.153C213.319 307.762 212.622 307.555 211.91 307.56C211.435 307.554 210.969 307.426 210.557 307.187C210.146 306.949 209.802 306.609 209.56 306.2C209.288 305.739 209.139 305.215 209.13 304.68C209.01 304.11 208.95 303.51 208.8 302.91C208.544 303.815 208.407 304.749 208.39 305.69C208.421 306.013 208.489 306.331 208.59 306.64C208.699 306.951 208.854 307.244 209.05 307.51C209.382 307.949 209.809 308.308 210.299 308.559C210.789 308.81 211.33 308.947 211.88 308.96C212.624 308.966 213.337 309.255 213.875 309.767C214.414 310.28 214.737 310.978 214.78 311.72C214.89 312.32 214.96 312.92 215.11 313.49C215.31 312.33 215.8 311.14 215.25 309.75V309.76ZM265.5 359.67C265.224 359.015 264.761 358.457 264.168 358.066C263.576 357.675 262.88 357.467 262.17 357.47C261.697 357.461 261.233 357.332 260.824 357.094C260.414 356.856 260.072 356.517 259.83 356.11C259.554 355.653 259.399 355.133 259.38 354.6C259.28 354.02 259.2 353.42 259.04 352.83C258.85 354 258.38 355.15 258.85 356.56C259.103 357.232 259.554 357.812 260.143 358.222C260.732 358.633 261.432 358.855 262.15 358.86C262.629 358.862 263.099 358.983 263.52 359.212C263.94 359.44 264.298 359.769 264.56 360.17C264.854 360.608 265.014 361.122 265.02 361.65C265.16 362.23 265.22 362.81 265.37 363.41C265.58 362.24 266.06 361.05 265.5 359.66V359.67ZM191 239.23C190.308 238.904 189.525 238.823 188.78 239C188.78 239.44 188.87 239.88 188.92 240.34C189.468 240.141 190.063 240.106 190.63 240.24C191.143 240.376 191.614 240.637 192 241C192.49 241.33 192.95 241.71 193.48 242C192.82 241 192.34 239.9 191 239.23Z" fill="white"/>
<path opacity="0.1" d="M272.551 390.511L246.791 406.001C246.791 406.001 196.791 281.591 190.331 249.001C187.201 233.231 188.331 224.821 192.501 222.631L272.551 390.511Z" fill="black"/>
<path d="M221.111 420.749H61.0006C58.6706 417.999 89.5305 272.199 154.861 226.349C175.601 211.799 202.171 217.879 206.601 235.779C225.491 312.199 223.241 418.299 221.111 420.749Z" fill="#407BFF"/>
<path d="M162.88 256.66C162.209 256.916 161.63 257.368 161.216 257.955C160.803 258.543 160.575 259.241 160.56 259.96C160.571 260.439 160.458 260.912 160.232 261.334C160.006 261.757 159.675 262.113 159.27 262.37C158.828 262.657 158.317 262.823 157.79 262.85C157.21 262.96 156.61 263.03 156.01 263.2C157.19 263.39 158.38 263.87 159.75 263.33C160.411 263.057 160.977 262.596 161.377 262.003C161.777 261.411 161.994 260.714 162 260C162.006 259.527 162.134 259.063 162.372 258.655C162.611 258.247 162.951 257.907 163.36 257.67C163.809 257.391 164.323 257.236 164.85 257.22C165.45 257.11 166.05 257.04 166.64 256.89C165.42 256.66 164.29 256.19 162.88 256.66ZM151.43 334.24C150.761 334.49 150.182 334.935 149.768 335.518C149.354 336.101 149.125 336.795 149.11 337.51C149.121 337.989 149.01 338.463 148.788 338.888C148.566 339.313 148.24 339.675 147.84 339.94C147.392 340.223 146.88 340.389 146.35 340.42C145.76 340.52 145.18 340.6 144.58 340.76C145.75 340.95 146.93 341.43 148.32 340.89C148.973 340.606 149.528 340.138 149.917 339.543C150.306 338.947 150.513 338.251 150.51 337.54C150.524 337.068 150.657 336.606 150.897 336.199C151.136 335.792 151.475 335.452 151.88 335.21C152.336 334.931 152.857 334.78 153.39 334.77C153.99 334.66 154.56 334.58 155.16 334.43C154 334.24 152.84 333.76 151.43 334.24ZM221.2 407.51C220.759 407.806 220.242 407.973 219.71 407.99C219.12 408.11 218.54 408.17 217.94 408.34C219.11 408.53 220.29 409.02 221.68 408.49C221.87 408.417 222.051 408.323 222.22 408.21C222.22 407.55 222.27 406.86 222.29 406.15C222.077 406.705 221.696 407.18 221.2 407.51ZM123.67 393.16C122.995 393.405 122.411 393.85 121.997 394.436C121.582 395.023 121.356 395.722 121.35 396.44C121.357 396.918 121.243 397.39 121.017 397.812C120.791 398.233 120.462 398.59 120.06 398.85C119.621 399.145 119.109 399.315 118.58 399.34C117.99 399.45 117.4 399.52 116.81 399.69C117.96 399.88 119.15 400.36 120.54 399.82C121.196 399.54 121.755 399.073 122.146 398.477C122.538 397.881 122.744 397.183 122.74 396.47C122.755 395.996 122.886 395.533 123.124 395.123C123.361 394.713 123.697 394.368 124.1 394.12C124.564 393.847 125.092 393.702 125.63 393.7C126.21 393.57 126.79 393.51 127.38 393.36C126.21 393.16 125.07 392.67 123.67 393.16ZM195.05 278.43C194.377 278.68 193.795 279.128 193.381 279.715C192.967 280.303 192.74 281.001 192.73 281.72C192.741 282.199 192.628 282.672 192.402 283.094C192.176 283.517 191.845 283.873 191.44 284.13C191.007 284.422 190.502 284.591 189.98 284.62C189.38 284.72 188.78 284.8 188.2 284.95C189.36 285.16 190.55 285.64 191.92 285.08C192.579 284.808 193.142 284.346 193.538 283.753C193.933 283.16 194.143 282.463 194.14 281.75C194.143 281.274 194.27 280.807 194.509 280.394C194.747 279.982 195.089 279.64 195.5 279.4C195.961 279.147 196.475 279.01 197 279C197.58 278.88 198.18 278.82 198.76 278.66C197.59 278.43 196.46 278 195.05 278.43ZM71.7904 396.22C71.1169 396.47 70.5348 396.918 70.1207 397.505C69.7066 398.093 69.48 398.791 69.4704 399.51C69.4783 399.988 69.364 400.46 69.1382 400.882C68.9125 401.304 68.5828 401.661 68.1804 401.92C67.7379 402.207 67.2274 402.373 66.7004 402.4C66.1204 402.52 65.5204 402.58 64.9404 402.74C66.0904 402.94 67.2704 403.43 68.6604 402.89C69.3163 402.61 69.8749 402.143 70.2663 401.547C70.6577 400.951 70.8644 400.253 70.8604 399.54C70.8755 399.066 71.0076 398.604 71.2449 398.194C71.4823 397.784 71.8174 397.439 72.2204 397.19C72.6835 396.914 73.2114 396.765 73.7504 396.76C74.3304 396.64 74.9204 396.56 75.5204 396.41C74.3304 396.22 73.2004 395.76 71.7904 396.22ZM96.4404 334.22C95.7669 334.47 95.1848 334.918 94.7707 335.505C94.3567 336.093 94.13 336.791 94.1204 337.51C94.1283 337.988 94.014 338.46 93.7882 338.882C93.5625 339.304 93.2328 339.661 92.8304 339.92C92.3879 340.207 91.8774 340.373 91.3504 340.4C90.7704 340.52 90.1704 340.58 89.5904 340.74C90.7404 340.94 91.9204 341.43 93.3104 340.89C93.9663 340.61 94.5249 340.143 94.9163 339.547C95.3077 338.951 95.5144 338.253 95.5104 337.54C95.5247 337.066 95.6564 336.603 95.8938 336.193C96.1312 335.783 96.4668 335.438 96.8704 335.19C97.3335 334.914 97.8614 334.765 98.4004 334.76C98.9804 334.64 99.5704 334.56 100.17 334.41C99.0004 334.23 97.8504 333.76 96.4404 334.23V334.22ZM215.82 355.06C215.147 355.31 214.565 355.758 214.151 356.345C213.737 356.933 213.51 357.631 213.5 358.35C213.508 358.828 213.394 359.3 213.168 359.722C212.942 360.144 212.613 360.501 212.21 360.76C211.768 361.047 211.257 361.213 210.73 361.24C210.15 361.36 209.55 361.42 208.97 361.58C210.12 361.78 211.3 362.27 212.69 361.73C213.346 361.45 213.905 360.983 214.296 360.387C214.688 359.791 214.894 359.093 214.89 358.38C214.905 357.906 215.036 357.443 215.274 357.033C215.511 356.623 215.847 356.278 216.25 356.03C216.713 355.754 217.241 355.605 217.78 355.6C218.36 355.48 218.95 355.4 219.55 355.25C218.36 355.07 217.23 354.6 215.82 355.07V355.06ZM129.92 314.36C129.261 314.089 128.535 314.021 127.837 314.166C127.138 314.31 126.499 314.66 126 315.17C125.654 315.497 125.23 315.732 124.769 315.853C124.307 315.973 123.823 315.976 123.36 315.86C122.847 315.728 122.378 315.462 122 315.09C121.51 314.75 121 314.39 120.49 314.09C121.19 315.09 121.67 316.21 123 316.87C123.658 317.175 124.393 317.272 125.108 317.149C125.823 317.025 126.483 316.687 127 316.18C127.332 315.834 127.748 315.58 128.207 315.441C128.666 315.303 129.153 315.285 129.62 315.39C130.133 315.493 130.607 315.735 130.99 316.09C131.49 316.44 131.99 316.8 132.49 317.09C131.77 316.14 131.28 315 129.92 314.37V314.36ZM194.58 389.36C193.918 389.098 193.193 389.037 192.496 389.185C191.798 389.332 191.16 389.682 190.66 390.19C190.316 390.515 189.896 390.747 189.438 390.866C188.98 390.985 188.499 390.986 188.04 390.87C187.518 390.751 187.04 390.488 186.66 390.11C186.17 389.78 185.66 389.41 185.16 389.11C185.85 390.11 186.35 391.22 187.66 391.88C188.319 392.183 189.053 392.28 189.768 392.156C190.482 392.033 191.142 391.696 191.66 391.19C191.994 390.846 192.409 390.594 192.868 390.457C193.327 390.32 193.813 390.304 194.28 390.41C194.797 390.501 195.274 390.745 195.65 391.11C196.16 391.44 196.65 391.82 197.15 392.11C196.45 391.18 195.94 390 194.58 389.4V389.36ZM192.58 325.57C191.916 325.305 191.189 325.241 190.489 325.385C189.789 325.529 189.146 325.875 188.64 326.38C188.299 326.709 187.879 326.945 187.42 327.066C186.962 327.186 186.48 327.188 186.02 327.07C185.507 326.936 185.036 326.674 184.65 326.31C184.15 325.98 183.65 325.6 183.15 325.31C183.85 326.31 184.33 327.42 185.65 328.08C186.308 328.387 187.044 328.486 187.759 328.363C188.474 328.239 189.134 327.9 189.65 327.39C189.982 327.05 190.394 326.799 190.849 326.661C191.304 326.523 191.786 326.502 192.25 326.6C192.774 326.708 193.258 326.957 193.65 327.32C194.14 327.65 194.65 328.02 195.14 328.32C194.4 327.39 193.91 326.21 192.55 325.61L192.58 325.57ZM97.1704 414.22C96.5109 413.948 95.7849 413.879 95.0862 414.024C94.3875 414.168 93.7481 414.518 93.2504 415.03C92.9068 415.355 92.4862 415.589 92.0281 415.707C91.5699 415.826 91.089 415.827 90.6304 415.71C90.1145 415.582 89.6417 415.32 89.2604 414.95C88.7504 414.61 88.2604 414.25 87.7604 413.95C88.4504 414.95 88.9304 416.08 90.2604 416.74C90.9125 417.032 91.6371 417.123 92.3411 417C93.045 416.877 93.6961 416.546 94.2104 416.05C94.5447 415.707 94.9604 415.455 95.4186 415.317C95.8768 415.179 96.3625 415.159 96.8304 415.26C97.3515 415.354 97.8342 415.597 98.2204 415.96C98.7304 416.3 99.2204 416.66 99.7204 416.96C99.0004 416 98.5304 414.8 97.1704 414.22ZM103.44 291.66C103.28 291.96 103.13 292.26 102.98 292.57C103.435 292.687 103.853 292.914 104.2 293.23C104.71 293.58 105.2 293.94 105.69 294.23C105.17 293.197 104.396 292.312 103.44 291.66ZM154.22 377.66C153.561 377.389 152.835 377.321 152.137 377.466C151.438 377.61 150.799 377.96 150.3 378.47C149.957 378.796 149.537 379.029 149.079 379.15C148.621 379.271 148.14 379.274 147.68 379.16C147.163 379.029 146.688 378.767 146.3 378.4C145.79 378.05 145.3 377.69 144.81 377.4C145.49 378.4 145.97 379.52 147.3 380.18C147.952 380.476 148.677 380.569 149.382 380.446C150.087 380.323 150.738 379.989 151.25 379.49C151.779 378.966 152.489 378.665 153.233 378.648C153.977 378.632 154.699 378.9 155.25 379.4C155.76 379.75 156.25 380.11 156.75 380.4C156.07 379.4 155.58 378.22 154.22 377.63V377.66ZM158.45 227.51C158.246 227.029 157.937 226.6 157.546 226.254C157.155 225.908 156.692 225.654 156.19 225.51C155.75 225.79 155.3 226.09 154.86 226.4L154.47 226.68C154.671 226.72 154.876 226.74 155.08 226.74C155.556 226.734 156.025 226.849 156.444 227.073C156.864 227.296 157.22 227.622 157.48 228.02C157.78 228.46 157.946 228.977 157.96 229.51C158.09 230.09 158.15 230.69 158.3 231.27C158.5 230.05 159 228.87 158.45 227.48V227.51ZM123.68 359.66C123.396 359.007 122.928 358.451 122.333 358.06C121.738 357.67 121.042 357.461 120.33 357.46C119.859 357.449 119.398 357.318 118.99 357.08C118.583 356.842 118.242 356.505 118 356.1C117.724 355.643 117.569 355.123 117.55 354.59C117.45 354.01 117.37 353.41 117.22 352.82C117.03 353.99 116.55 355.14 117.03 356.55C117.281 357.22 117.728 357.798 118.314 358.208C118.899 358.619 119.595 358.843 120.31 358.85C120.791 358.851 121.263 358.971 121.686 359.199C122.108 359.428 122.467 359.758 122.73 360.16C123.018 360.602 123.183 361.113 123.21 361.64C123.31 362.22 123.39 362.8 123.55 363.4C123.74 362.24 124.22 361.05 123.68 359.66ZM132.37 281.6C132.092 280.943 131.625 280.384 131.029 279.992C130.433 279.601 129.734 279.394 129.02 279.4C128.546 279.395 128.081 279.267 127.671 279.029C127.261 278.79 126.919 278.45 126.68 278.04C126.406 277.584 126.257 277.062 126.25 276.53C126.13 275.95 126.07 275.35 125.9 274.75C125.71 275.95 125.23 277.08 125.71 278.49C125.962 279.163 126.41 279.744 126.997 280.158C127.584 280.572 128.282 280.799 129 280.81C129.478 280.802 129.949 280.915 130.371 281.139C130.792 281.363 131.15 281.69 131.41 282.09C131.7 282.528 131.865 283.036 131.89 283.56C132.01 284.16 132.07 284.76 132.23 285.34C132.43 284.19 132.92 283 132.37 281.6ZM211.44 258.36C211.36 258.979 211.421 259.608 211.62 260.2C211.69 260.402 211.78 260.596 211.89 260.78C211.75 260 211.6 259.16 211.44 258.36ZM166.37 301.19C166.088 300.533 165.617 299.974 165.017 299.584C164.417 299.194 163.716 298.991 163 299C162.524 298.988 162.058 298.855 161.647 298.614C161.236 298.372 160.893 298.03 160.65 297.62C160.384 297.164 160.243 296.647 160.24 296.12C160.1 295.53 160.04 294.94 159.88 294.34C159.7 295.53 159.22 296.68 159.7 298.08C159.947 298.752 160.392 299.333 160.975 299.747C161.559 300.162 162.255 300.389 162.97 300.4C163.447 300.393 163.919 300.506 164.34 300.73C164.761 300.954 165.119 301.281 165.38 301.68C165.68 302.116 165.847 302.63 165.86 303.16C165.98 303.76 166.04 304.34 166.21 304.94C166.41 303.78 166.9 302.56 166.37 301.19ZM215.25 309.75C214.974 309.094 214.509 308.535 213.914 308.143C213.32 307.752 212.622 307.545 211.91 307.55C211.435 307.544 210.969 307.416 210.557 307.177C210.146 306.939 209.802 306.599 209.56 306.19C209.288 305.729 209.14 305.205 209.13 304.67C209.01 304.1 208.95 303.5 208.8 302.9C208.59 304.08 208.11 305.22 208.59 306.63C208.842 307.303 209.29 307.884 209.877 308.298C210.464 308.712 211.162 308.939 211.88 308.95C212.624 308.956 213.337 309.245 213.875 309.757C214.414 310.27 214.737 310.968 214.78 311.71C214.89 312.31 214.96 312.91 215.11 313.48C215.31 312.33 215.8 311.14 215.25 309.75ZM159.31 419.12C159.036 418.462 158.571 417.902 157.976 417.51C157.381 417.118 156.683 416.913 155.97 416.92C155.498 416.908 155.036 416.775 154.628 416.536C154.221 416.296 153.881 415.957 153.64 415.55C153.364 415.093 153.209 414.573 153.19 414.04C153.09 413.46 153.01 412.86 152.85 412.28C152.65 413.44 152.19 414.6 152.65 416C152.906 416.673 153.358 417.254 153.949 417.666C154.539 418.078 155.24 418.302 155.96 418.31C156.438 418.312 156.908 418.432 157.328 418.659C157.748 418.885 158.106 419.212 158.37 419.61C158.597 419.952 158.741 420.342 158.79 420.75H159.56C159.607 420.194 159.521 419.636 159.31 419.12ZM94.6204 382C94.3458 381.342 93.8813 380.782 93.2863 380.39C92.6913 379.998 91.9929 379.792 91.2804 379.8C90.8169 379.782 90.3653 379.648 89.9669 379.411C89.5685 379.173 89.2362 378.839 89.0004 378.44C88.7186 377.986 88.5632 377.464 88.5504 376.93C88.4404 376.35 88.3704 375.75 88.2104 375.17C88.0104 376.33 87.5504 377.49 88.0104 378.89C88.2647 379.564 88.7169 380.145 89.3076 380.557C89.8984 380.97 90.6001 381.194 91.3204 381.2C91.798 381.202 92.2676 381.322 92.6879 381.549C93.1082 381.775 93.4662 382.102 93.7304 382.5C94.0175 382.941 94.1768 383.453 94.1904 383.98C94.3304 384.56 94.3904 385.15 94.5304 385.75C94.6904 384.58 95.1704 383.4 94.6204 382ZM178.89 359.65C178.613 358.995 178.147 358.436 177.553 358.045C176.959 357.654 176.262 357.446 175.55 357.45C175.079 357.44 174.617 357.309 174.209 357.071C173.802 356.833 173.461 356.496 173.22 356.09C172.939 355.636 172.783 355.114 172.77 354.58C172.66 354 172.59 353.4 172.43 352.81C172.23 353.98 171.77 355.13 172.23 356.54C172.485 357.213 172.938 357.793 173.529 358.203C174.119 358.614 174.821 358.836 175.54 358.84C176.019 358.842 176.49 358.963 176.91 359.192C177.331 359.42 177.688 359.749 177.95 360.15C178.24 360.59 178.4 361.103 178.41 361.63C178.55 362.21 178.61 362.79 178.75 363.39C179 362.24 179.44 361.05 178.89 359.66V359.65ZM191 239.23C190.343 238.925 189.609 238.827 188.895 238.948C188.181 239.07 187.52 239.405 187 239.91C186.478 240.443 185.769 240.752 185.023 240.773C184.276 240.793 183.551 240.523 183 240.02C182.5 239.68 182 239.3 181.49 239.02C182.18 240.02 182.69 241.16 184.05 241.76C184.71 242.029 185.436 242.096 186.134 241.952C186.832 241.808 187.471 241.459 187.97 240.95C188.312 240.621 188.732 240.385 189.191 240.264C189.649 240.143 190.131 240.142 190.59 240.26C191.115 240.384 191.6 240.638 192 241C192.49 241.33 192.95 241.71 193.48 242C192.82 241 192.34 239.9 191 239.23Z" fill="white"/>
<path d="M196 251.669C187.3 251.669 176.05 235.859 172.81 224.379C172.6 223.589 181.96 196.289 183.25 190.689C183.51 189.529 216.47 207.339 216.47 207.339C216.47 207.339 210.3 218.279 208.11 228.059C207.93 228.879 204.41 251.619 196 251.669Z" fill="#F7A9A0"/>
<path d="M216.471 207.33C216.471 207.33 210.301 218.28 208.101 228.06C208.101 228.26 207.831 229.68 207.401 231.73C191.041 226.33 182.761 213.62 178.881 204.96C180.881 198.77 182.731 192.96 183.251 190.69C183.521 189.54 216.471 207.33 216.471 207.33Z" fill="#263238"/>
<path d="M236.601 147.58C236.601 147.58 246.251 155.97 244.511 168.04C242.771 180.11 236.181 191.18 235.001 191.43C233.821 191.68 236.601 147.58 236.601 147.58Z" fill="#263238"/>
<path d="M187.9 147.34C179.9 158.07 173.9 195.13 179.68 205.94C188.1 221.62 208.07 229.94 222.97 218.45C237.41 207.29 244.44 158.86 237.37 148.39C227 133 199.69 131.49 187.9 147.34Z" fill="#F7A9A0"/>
<path d="M227.121 184.421C227.121 184.331 227.281 184.591 227.261 184.691C226.541 187.151 226.141 190.091 228.181 191.491C228.241 191.491 228.181 191.651 228.121 191.621C225.481 190.541 226.051 186.641 227.121 184.421Z" fill="#263238"/>
<path d="M230 182.399C234.06 183.109 232.33 191.199 228.57 190.529C224.81 189.859 226.59 181.799 230 182.399Z" fill="#263238"/>
<path d="M205 203.19C205.42 203.93 205.77 204.9 206.64 205.24C207.559 205.488 208.52 205.543 209.46 205.4C209.48 205.397 209.501 205.4 209.518 205.41C209.536 205.419 209.55 205.434 209.558 205.453C209.566 205.471 209.568 205.492 209.563 205.511C209.558 205.53 209.546 205.548 209.53 205.56C209.038 205.948 208.449 206.194 207.827 206.272C207.205 206.349 206.573 206.255 206 206C205.539 205.722 205.17 205.313 204.941 204.825C204.711 204.338 204.631 203.793 204.71 203.26C204.69 203.07 204.89 203.08 205 203.19Z" fill="#263238"/>
<path d="M220.62 195.11C220.62 195.11 220.271 198.95 219.851 200.71C219.851 200.87 214.92 199.28 209.36 199.81C208.53 199.89 208.69 199.24 209.68 198.92C211.68 198.29 214.13 197.77 218.68 198.83C218.92 198.37 219.131 192.9 219.411 192.95C220.746 193.391 222.017 194.006 223.19 194.78C224.19 186.78 223.86 178.72 224.95 170.78C224.962 170.724 224.993 170.673 225.037 170.637C225.082 170.6 225.138 170.58 225.196 170.58C225.253 170.58 225.309 170.6 225.354 170.637C225.398 170.673 225.429 170.724 225.441 170.78C226.361 179.22 225.441 188.44 224.631 196.71C224.561 197.74 221.26 195.57 220.62 195.11Z" fill="#263238"/>
<path d="M214.05 176.68C212.91 176.83 211.84 176.77 210.71 176.81C209.42 176.81 208.41 177.01 207.27 176.29C206.982 176.056 206.776 175.735 206.685 175.375C206.593 175.014 206.619 174.634 206.76 174.29C207.5 172.83 209.06 172.4 210.6 172.29C212.15 172.127 213.705 172.548 214.96 173.47C215.226 173.699 215.42 173.999 215.521 174.335C215.622 174.671 215.624 175.028 215.529 175.365C215.433 175.703 215.243 176.005 214.981 176.238C214.72 176.471 214.397 176.625 214.05 176.68Z" fill="#263238"/>
<path d="M234.411 172.611C233.423 172.095 232.464 171.524 231.541 170.901C230.451 170.231 229.541 169.811 228.941 168.601C228.816 168.238 228.817 167.844 228.942 167.482C229.067 167.12 229.309 166.809 229.631 166.601C231.041 165.791 232.631 166.271 233.931 167.021C235.316 167.735 236.385 168.94 236.931 170.401C237.038 170.74 237.044 171.102 236.949 171.445C236.853 171.787 236.66 172.094 236.393 172.329C236.125 172.563 235.795 172.715 235.444 172.765C235.092 172.815 234.733 172.761 234.411 172.611Z" fill="#263238"/>
<path d="M205.101 180.52C205.87 180.32 206.666 180.239 207.461 180.28C208.28 180.323 209.088 180.484 209.861 180.76C210.668 181.071 211.41 181.528 212.051 182.11C212.706 182.751 213.212 183.53 213.531 184.39L214.111 185.95L212.531 185.56C211.418 185.276 210.278 185.119 209.131 185.09C207.937 185.029 206.748 185.281 205.681 185.82C206.481 184.742 207.674 184.024 209.001 183.82C210.308 183.573 211.652 183.597 212.951 183.89L212.001 185C211.469 183.756 210.527 182.732 209.331 182.1C207.996 181.39 206.574 180.858 205.101 180.52Z" fill="#263238"/>
<path d="M208.841 187.74C210.084 187.604 211.304 187.308 212.471 186.86C212.741 186.72 213.811 186.12 213.781 185.86C213.734 185.222 213.603 184.594 213.391 183.99C213.769 184.555 214.027 185.192 214.151 185.86C214.033 186.201 213.841 186.512 213.589 186.77C213.336 187.028 213.03 187.226 212.691 187.35C211.467 187.83 210.136 187.965 208.841 187.74Z" fill="#263238"/>
<path d="M216.56 199.68C216.56 199.68 213.17 203.39 209.82 203.46C205.97 203.54 205.98 200.09 210.4 198.71C212.71 198 216.56 199.68 216.56 199.68Z" fill="#263238"/>
<path d="M209.83 203.45C211.281 203.341 212.67 202.817 213.83 201.94C213.22 200.67 211.58 199.14 207.25 200.78C206.5 202.16 207.4 203.51 209.83 203.45Z" fill="#FF99BA"/>
<path d="M180.35 182.15C184.51 184.15 191.51 171.8 193.69 166.97C195.62 162.72 199.19 148.85 199.55 147.92C199.91 146.99 216.67 163.27 228.14 161.72C239.61 160.17 248.45 151.43 249.3 146.85C250.15 142.27 238.3 128.52 226.57 126.13C214.84 123.74 196.57 136.33 196.57 136.33C196.57 136.33 202.98 130.67 202.88 130.11C202.78 129.55 194.68 131.44 192.46 136.66C192.46 136.66 195 130.07 194.46 129.85C193.92 129.63 187.09 134.58 187.76 139.21C187.76 139.21 180 144.11 178.38 150.53C176.76 156.95 175.47 179.8 180.35 182.15Z" fill="#263238"/>
<path d="M236.3 160.61C232.72 161.61 229.12 162.83 225.3 162.75C221.23 162.67 217.3 161.04 213.75 159.06C210.197 157.015 207.002 154.404 204.29 151.33C201.88 148.65 199.86 145.56 197.23 143.09C196.58 142.48 195.56 143.41 195.91 144.15C199.35 151.51 206.39 158.29 213.62 161.85C221.23 165.6 229.02 164.95 236.28 160.71C236.37 160.68 236.36 160.6 236.3 160.61Z" fill="#263238"/>
<path d="M185.161 180.23C185.161 180.23 181.021 166.23 174.931 167.36C168.841 168.49 169.311 186.87 174.601 191.14C175.242 191.734 175.996 192.193 176.819 192.488C177.642 192.783 178.515 192.909 179.388 192.857C180.261 192.806 181.114 192.579 181.896 192.189C182.679 191.799 183.374 191.255 183.941 190.59L185.161 180.23Z" fill="#F7A9A0"/>
<path d="M175.2 172.629C175.181 172.623 175.16 172.624 175.141 172.631C175.123 172.638 175.107 172.651 175.096 172.669C175.086 172.686 175.082 172.706 175.084 172.726C175.087 172.746 175.096 172.765 175.11 172.779C178.77 175.909 179.69 180.579 179.89 185.169C179.16 183.169 177.73 181.749 175.13 182.549C174.99 182.549 175.04 182.799 175.13 182.809C175.954 182.823 176.753 183.09 177.419 183.575C178.085 184.061 178.585 184.739 178.85 185.519C179.281 186.817 179.569 188.159 179.71 189.519C179.79 189.959 180.54 189.989 180.54 189.519V189.419C182.49 184.069 180.81 175.109 175.2 172.629Z" fill="#263238"/>
<path d="M220.131 209.22C216.96 214.995 214.313 221.043 212.221 227.29C211.721 228.88 211.271 230.47 210.921 232.04C210.921 232.1 210.921 232.25 210.841 232.49C210.841 232.58 210.841 232.69 210.781 232.81C210.661 233.45 210.481 234.44 210.231 235.66C210.226 235.723 210.226 235.787 210.231 235.85C210.226 235.873 210.226 235.897 210.231 235.92C210.236 235.894 210.236 235.867 210.231 235.84C204.771 224.744 202.27 212.426 202.971 200.08L205.311 201.31L206.921 202.16L208.491 202.99L209.901 203.73L210.741 204.17L212.091 204.89L213.441 205.61L214.701 206.28L215.861 206.9L220.131 209.22Z" fill="#F7A9A0"/>
<path d="M220.131 209.21C216.96 214.986 214.313 221.033 212.221 227.28C211.721 228.87 211.271 230.46 210.921 232.03C210.921 232.09 210.921 232.24 210.841 232.48C210.841 232.57 210.841 232.68 210.781 232.8C210.661 233.44 210.481 234.43 210.231 235.65C210.235 235.71 210.235 235.77 210.231 235.83C204.771 224.735 202.27 212.417 202.971 200.07L205.311 201.3C205.851 201.58 206.391 201.86 206.921 202.15L208.491 202.98L209.901 203.72L210.751 204.18L212.101 204.9C212.574 205.14 213.024 205.38 213.451 205.62L214.711 206.29L215.871 206.91L220.131 209.21Z" fill="#263238"/>
<path d="M242.301 143.42C242.301 143.42 252.931 152.66 251.001 165.95C249.071 179.24 241.831 191.42 240.541 191.7C239.251 191.98 242.301 143.42 242.301 143.42Z" fill="#263238"/>
<path d="M242.82 188.82C239.6 202.92 234.22 216.08 227.29 221.43C222.965 224.841 217.715 226.876 212.22 227.27C210.342 227.399 208.457 227.342 206.59 227.1C203.649 218.418 202.406 209.251 202.93 200.1C203.27 194.22 204.327 188.403 206.08 182.78C206.998 179.84 208.101 176.961 209.38 174.16C209.233 173.718 209.254 173.237 209.44 172.81C209.728 172.245 210.163 171.768 210.7 171.43C212.819 167.279 215.341 163.347 218.23 159.69C218.8 158.95 219.39 158.23 219.99 157.53C220.31 157.15 220.64 156.78 220.99 156.41C226.54 150.186 233.128 144.972 240.46 141C241.376 141.973 242.218 143.012 242.98 144.11L243.14 144.35C244.55 146.44 245.45 149.92 245.88 154.28C246.81 163.41 245.64 176.47 242.82 188.82Z" fill="#F7A9A0"/>
<path d="M231.86 184C231.86 183.9 232.04 184.18 232.01 184.29C231.22 187 230.78 190.24 233.01 191.77C233.08 191.82 233.01 191.96 232.95 191.92C230.05 190.72 230.68 186.43 231.86 184Z" fill="#263238"/>
<path d="M235 181.759C239.47 182.539 237.57 191.439 233.42 190.759C229.27 190.079 231.27 181.099 235 181.759Z" fill="#263238"/>
<path d="M207.45 204.65C207.91 205.47 208.3 206.53 209.26 206.9C210.269 207.18 211.326 207.241 212.36 207.08C212.383 207.074 212.407 207.077 212.428 207.087C212.449 207.097 212.466 207.115 212.476 207.136C212.485 207.158 212.487 207.182 212.481 207.204C212.474 207.227 212.46 207.247 212.44 207.26C211.896 207.677 211.249 207.939 210.567 208.018C209.886 208.098 209.196 207.991 208.57 207.71C208.065 207.405 207.66 206.958 207.408 206.424C207.155 205.89 207.065 205.294 207.15 204.71C207.16 204.52 207.38 204.52 207.45 204.65Z" fill="#263238"/>
<path d="M224.711 195.75C224.711 195.75 224.311 199.98 223.861 201.92C223.811 202.1 218.421 200.34 212.311 200.92C211.391 201 211.561 200.29 212.651 199.92C214.831 199.22 217.561 198.65 222.591 199.82C222.851 199.31 223.081 193.29 223.391 193.34C224.86 193.819 226.259 194.492 227.551 195.34C228.631 186.55 228.291 177.66 229.491 168.92C229.491 168.849 229.519 168.78 229.57 168.729C229.62 168.679 229.689 168.65 229.761 168.65C229.832 168.65 229.901 168.679 229.952 168.729C230.002 168.78 230.031 168.849 230.031 168.92C231.031 178.22 230.031 188.36 229.141 197.47C229.001 198.65 225.401 196.26 224.711 195.75Z" fill="#263238"/>
<path d="M217.461 175.451C216.241 175.566 215.016 175.616 213.791 175.601C212.371 175.601 211.251 175.821 210.011 175.031C209.705 174.815 209.482 174.501 209.381 174.141C209.234 173.699 209.255 173.218 209.441 172.791C209.728 172.225 210.164 171.749 210.701 171.411C211.619 170.896 212.649 170.615 213.701 170.591C215.408 170.415 217.119 170.882 218.501 171.901C218.81 172.149 219.039 172.483 219.158 172.861C219.277 173.239 219.281 173.644 219.17 174.024C219.058 174.405 218.837 174.743 218.532 174.997C218.228 175.251 217.855 175.409 217.461 175.451Z" fill="#263238"/>
<path d="M239.89 171.001C238.803 170.433 237.748 169.805 236.73 169.121C235.52 168.381 234.48 167.921 233.87 166.581C233.735 166.186 233.736 165.757 233.872 165.362C234.008 164.967 234.271 164.629 234.62 164.401C236.17 163.501 237.87 164.031 239.36 164.861C240.888 165.641 242.069 166.964 242.67 168.571C242.796 168.945 242.808 169.348 242.704 169.729C242.601 170.11 242.387 170.452 242.09 170.712C241.793 170.972 241.425 171.138 241.034 171.189C240.642 171.241 240.244 171.175 239.89 171.001Z" fill="#263238"/>
<path d="M207.61 179.68C209.345 179.244 211.17 179.338 212.85 179.95C213.744 180.29 214.565 180.795 215.27 181.44C215.999 182.16 216.556 183.035 216.9 184L217.54 185.71L215.8 185.28C214.571 184.982 213.314 184.812 212.05 184.77C210.736 184.704 209.427 184.979 208.25 185.57C209.132 184.375 210.445 183.571 211.91 183.33C213.347 183.052 214.825 183.079 216.25 183.41L215.16 184.69C214.569 183.319 213.529 182.191 212.21 181.49C210.759 180.695 209.214 180.087 207.61 179.68Z" fill="#263238"/>
<path d="M211.74 187.631C213.113 187.479 214.458 187.143 215.74 186.631C216.04 186.491 217.21 185.821 217.18 185.631C217.129 184.925 216.985 184.228 216.75 183.561C217.16 184.187 217.446 184.886 217.59 185.621C217.459 185.996 217.247 186.337 216.968 186.62C216.69 186.904 216.353 187.122 215.98 187.261C214.627 187.768 213.161 187.896 211.74 187.631Z" fill="#263238"/>
<path d="M220.231 200.791C220.231 200.791 216.501 204.871 212.811 204.951C208.571 205.041 208.581 201.231 213.441 199.721C216.001 198.921 220.231 200.791 220.231 200.791Z" fill="#263238"/>
<path d="M212.82 204.94C214.434 204.822 215.981 204.246 217.28 203.28C216.6 201.87 214.8 200.19 210.03 202C209.16 203.52 210.15 205 212.82 204.94Z" fill="#FF99BA"/>
<path d="M256.28 142.619C255.81 145.189 253.04 148.959 248.76 152.259C247.842 152.979 246.884 153.647 245.89 154.259C244.497 155.143 243.035 155.916 241.52 156.569C238.808 157.775 235.94 158.593 233 158.999C229.29 159.499 225.08 158.309 221 156.399C226.548 150.179 233.132 144.969 240.46 140.999C244.578 138.755 248.91 136.926 253.39 135.539C255.47 138.399 256.58 140.999 256.28 142.619Z" fill="#263238"/>
<path d="M242 157.87L241.44 158.19C233.98 162.37 226.04 163.1 218.24 159.67C218.81 158.93 219.4 158.21 220 157.51C223.084 159.073 226.466 159.963 229.92 160.12C233.92 160.2 237.69 159.01 241.45 157.92L241.96 157.77C242 157.75 242 157.84 242 157.87Z" fill="#263238"/>
<path d="M221.066 341.914L240.607 348.008L259.479 287.492L239.937 281.398L221.066 341.914Z" fill="#EBEBEB"/>
<path d="M300.48 121.52C284.139 116.424 266.652 116.288 250.233 121.13C233.814 125.972 219.2 135.574 208.238 148.722C197.276 161.869 190.459 177.973 188.649 194.995C186.839 212.017 190.118 229.193 198.07 244.352C206.022 259.511 218.291 271.971 233.325 280.158C248.358 288.344 265.482 291.888 282.53 290.342C299.578 288.796 315.785 282.23 329.101 271.473C342.417 260.716 352.245 246.252 357.34 229.91C360.725 219.06 361.939 207.649 360.913 196.329C359.888 185.009 356.642 174.002 351.362 163.937C346.082 153.872 338.871 144.945 330.14 137.667C321.41 130.389 311.332 124.903 300.48 121.52ZM343.35 225.52C339.123 239.097 330.964 251.116 319.905 260.055C308.846 268.995 295.385 274.454 281.223 275.742C267.061 277.031 252.836 274.09 240.345 267.292C227.855 260.495 217.661 250.145 211.054 237.554C204.446 224.962 201.721 210.694 203.223 196.553C204.725 182.412 210.388 169.035 219.494 158.113C228.6 147.191 240.74 139.214 254.38 135.193C268.02 131.171 282.545 131.285 296.12 135.52C314.32 141.198 329.52 153.872 338.377 170.755C347.234 187.639 349.023 207.348 343.35 225.55V225.52Z" fill="#455A64"/>
<path d="M193.98 411.11L223.53 420.32L251.16 331.71L221.61 322.5L193.98 411.11Z" fill="#263238"/>
<g opacity="0.3">
<path d="M206.09 182.76C201.859 196.336 201.749 210.861 205.774 224.499C209.798 238.138 217.777 250.276 228.701 259.379C239.625 268.482 253.003 274.142 267.143 275.641C281.283 277.14 295.551 274.413 308.141 267.803C320.731 261.193 331.078 250.998 337.873 238.508C344.669 226.017 347.608 211.791 346.318 197.63C345.028 183.469 339.567 170.009 330.627 158.952C321.686 147.894 309.667 139.737 296.09 135.51C277.89 129.845 258.184 131.64 241.307 140.501C224.43 149.361 211.762 164.562 206.09 182.76Z" fill="white"/>
<path d="M202.82 202.84C202.507 221.784 209.674 240.087 222.766 253.783C235.859 267.478 253.822 275.46 272.76 276L202.82 202.84Z" fill="#EBEBEB"/>
<path d="M240.591 140.88L336.381 241.14C339.325 236.243 341.675 231.013 343.381 225.56C345.346 219.314 346.434 212.825 346.611 206.28L275.901 132.28C263.588 132.071 251.429 135.033 240.591 140.88Z" fill="#EBEBEB"/>
<path d="M208.57 176L299.81 271.5C304.223 269.845 308.466 267.769 312.48 265.3L215.32 163.6C212.653 167.492 210.391 171.647 208.57 176Z" fill="#EBEBEB"/>
<path d="M232.271 146.141L330.74 249.221C331.29 248.541 331.831 247.861 332.351 247.161L234.351 144.641C233.681 145.121 233.001 145.611 232.271 146.141Z" fill="#EBEBEB"/>
<path d="M299.54 136.67L343.25 182.42C342.61 180.42 341.86 178.34 341.02 176.36L305.47 139.15C303.563 138.243 301.587 137.417 299.54 136.67Z" fill="#EBEBEB"/>
</g>
<path d="M322.22 219.53C322.22 219.44 322.22 219.35 322.3 219.26C322.63 217.96 322.02 220.55 322.2 219.67C322.42 218.67 322.63 217.58 322.8 216.52C323.387 212.826 323.664 209.09 323.63 205.35C323.63 204.82 323.63 204.35 323.63 203.77C323.63 203.6 323.69 205.02 323.63 203.89C323.63 203.56 323.63 203.24 323.57 202.89C323.5 201.65 323.38 200.41 323.23 199.17C322.91 196.443 322.409 193.741 321.73 191.08C321.56 190.45 321.38 189.82 321.2 189.18C320.97 188.33 321.52 190.18 321.15 189.01C321.02 188.63 320.9 188.26 320.78 187.88C320.29 186.46 319.78 185.06 319.15 183.68C318.52 182.3 317.8 180.68 317.03 179.3C316.68 178.64 316.31 177.99 315.93 177.3C315.28 176.19 316.24 177.75 315.73 176.97C315.48 176.6 315.24 176.22 315 175.84C312.743 172.518 310.168 169.423 307.31 166.6C307.25 166.54 306.73 166.04 307.16 166.45C307.59 166.86 306.92 166.24 306.85 166.16L305.52 164.98C304.65 164.23 303.77 163.5 302.87 162.79C300.96 161.3 298.97 159.92 296.92 158.62C294.57 157.13 294.24 153.56 295.81 151.42C296.635 150.342 297.845 149.624 299.187 149.417C300.529 149.21 301.899 149.53 303.01 150.31C316.01 158.54 326.22 170.75 330.79 185.53C333.859 195.471 334.702 205.966 333.26 216.27C332.957 218.579 332.496 220.864 331.88 223.11C331.15 225.71 327.64 227.11 325.24 226.11C323.984 225.597 322.972 224.621 322.414 223.383C321.856 222.146 321.794 220.742 322.24 219.46L322.22 219.53Z" fill="white"/>
<path d="M316.54 233.76C316.184 234.698 316.113 235.72 316.338 236.698C316.562 237.676 317.072 238.565 317.802 239.253C318.532 239.941 319.45 240.397 320.44 240.563C321.429 240.729 322.446 240.598 323.36 240.186C324.275 239.774 325.047 239.1 325.579 238.249C326.11 237.398 326.378 236.409 326.347 235.406C326.315 234.403 325.988 233.432 325.404 232.616C324.821 231.8 324.009 231.175 323.07 230.82C322.449 230.584 321.786 230.473 321.122 230.493C320.457 230.512 319.802 230.663 319.196 230.936C318.589 231.209 318.043 231.599 317.587 232.084C317.131 232.568 316.776 233.138 316.54 233.76Z" fill="white"/>
<path d="M141 235.1C83.23 274.37 37.84 363.47 58.35 378.1C77.08 391.43 162.61 402.52 190.92 401.96C199.24 401.79 206.46 332.58 197.57 332.74C186.82 332.94 124.99 326.84 123.95 326.54C121.73 325.89 151.95 271.74 165.31 247.12C184 212.76 162.68 220.35 141 235.1Z" fill="#F7A9A0"/>
<path d="M273.87 351.001C275.15 357.771 268.87 361.141 268.87 361.141C268.87 361.141 272.71 365.081 272.72 370.371C272.72 376.421 263.25 379.101 263.25 379.101C265.114 382.225 265.992 385.839 265.77 389.471C265.19 395.271 256 399.331 256 399.331C256.126 403.147 254.873 406.882 252.47 409.851C245.74 417.521 230.35 415.011 220.55 413.511C210.75 412.011 184.37 398.591 179.08 396.511L188.16 333.511C188.16 333.511 234 327.731 245.27 331.121C254.75 334.001 272.43 343.371 273.87 351.001Z" fill="#F7A9A0"/>
<path d="M268.57 359.999C259.21 354.529 248.74 352.139 238.42 349.149C238.376 349.145 238.332 349.157 238.296 349.182C238.259 349.208 238.233 349.245 238.221 349.288C238.209 349.33 238.212 349.376 238.231 349.416C238.249 349.457 238.281 349.49 238.321 349.509C248.621 352.359 258.21 357.219 268.32 360.509C268.354 360.526 268.39 360.535 268.428 360.538C268.465 360.54 268.502 360.535 268.537 360.523C268.573 360.511 268.605 360.492 268.633 360.467C268.661 360.443 268.684 360.413 268.701 360.379C268.717 360.346 268.727 360.309 268.729 360.272C268.731 360.235 268.726 360.198 268.714 360.162C268.702 360.127 268.683 360.094 268.659 360.066C268.634 360.038 268.604 360.016 268.57 359.999Z" fill="#263238"/>
<path d="M263.151 378.209C260.922 377.178 258.569 376.442 256.151 376.019C253.598 375.419 251.038 374.859 248.471 374.339C243.331 373.339 238.171 372.389 232.981 371.619C232.751 371.619 232.641 371.929 232.881 371.979C238.001 372.979 243.111 374.139 248.181 375.399C250.721 376.026 253.254 376.692 255.781 377.399C258.125 378.165 260.546 378.668 263.001 378.899C263.079 378.892 263.154 378.86 263.213 378.808C263.272 378.756 263.313 378.686 263.329 378.609C263.346 378.532 263.338 378.452 263.306 378.38C263.274 378.308 263.219 378.248 263.151 378.209Z" fill="#263238"/>
<path d="M255.781 399.25C253.951 398.16 251.391 397.99 249.321 397.62C246.974 397.2 244.641 396.764 242.321 396.31C237.631 395.41 232.941 394.51 228.321 393.44C228.081 393.39 227.981 393.75 228.221 393.8C232.951 394.91 237.661 396.07 242.401 397.14C244.721 397.66 247.054 398.167 249.401 398.66C251.401 399.08 253.821 399.84 255.851 399.49C255.875 399.475 255.893 399.453 255.903 399.426C255.913 399.4 255.914 399.371 255.906 399.344C255.898 399.317 255.882 399.293 255.859 399.276C255.836 399.259 255.809 399.25 255.781 399.25Z" fill="#263238"/>
<path d="M125.47 324.361C124.93 323.751 155 271.791 168.4 243.951C181.8 216.111 167.89 214.771 141.23 233.741C112.67 254.071 54.0004 315.001 49.3504 372.441C47.8604 391.051 179.73 406.211 179.73 406.211L185.67 329.541C185.67 329.541 126.3 325.301 125.47 324.361Z" fill="#407BFF"/>
<path d="M178.89 359.659C178.612 359.004 178.147 358.446 177.552 358.054C176.958 357.663 176.262 357.456 175.55 357.459C175.078 357.449 174.617 357.319 174.209 357.081C173.801 356.843 173.461 356.505 173.22 356.099C172.938 355.645 172.783 355.124 172.77 354.589C172.66 354.009 172.59 353.409 172.43 352.819C172.23 353.989 171.77 355.139 172.23 356.549C172.485 357.222 172.937 357.802 173.528 358.213C174.119 358.623 174.82 358.845 175.54 358.849C176.019 358.852 176.489 358.973 176.91 359.201C177.33 359.43 177.688 359.759 177.95 360.159C178.24 360.599 178.399 361.112 178.41 361.639C178.55 362.219 178.61 362.799 178.75 363.399C179 362.239 179.44 361.049 178.89 359.659ZM74.67 320.319C74.3954 319.662 73.9308 319.101 73.3358 318.709C72.7408 318.317 72.0424 318.112 71.33 318.119C70.8585 318.107 70.3977 317.976 69.9904 317.738C69.583 317.5 69.2424 317.164 69 316.759C68.8283 316.491 68.7095 316.192 68.65 315.879C68.42 316.279 68.2 316.679 67.98 317.079C67.9754 317.119 67.9754 317.159 67.98 317.199C68.233 317.874 68.6849 318.456 69.2759 318.869C69.867 319.281 70.5693 319.504 71.29 319.509C71.7675 319.511 72.2371 319.631 72.6574 319.858C73.0777 320.085 73.4358 320.411 73.7 320.809C73.9871 321.25 74.1463 321.763 74.16 322.289C74.3 322.879 74.36 323.459 74.51 324.059C74.75 322.889 75.22 321.709 74.67 320.319ZM94.67 382.009C94.3954 381.352 93.9308 380.791 93.3358 380.399C92.7408 380.007 92.0424 379.802 91.33 379.809C90.8569 379.799 90.3944 379.667 89.9865 379.428C89.5786 379.188 89.239 378.847 89 378.439C88.7181 377.985 88.5627 377.464 88.55 376.929C88.44 376.349 88.37 375.749 88.21 375.169C88.01 376.329 87.55 377.489 88.01 378.889C88.2642 379.563 88.7164 380.144 89.3072 380.557C89.8979 380.969 90.5996 381.193 91.32 381.199C91.7975 381.201 92.2671 381.321 92.6874 381.548C93.1077 381.775 93.4658 382.101 93.73 382.499C94.0171 382.94 94.1763 383.453 94.19 383.979C94.33 384.559 94.39 385.149 94.53 385.749C94.69 384.579 95.17 383.399 94.62 381.999L94.67 382.009ZM132.37 281.599C132.091 280.942 131.625 280.383 131.028 279.991C130.432 279.6 129.733 279.394 129.02 279.399C128.546 279.394 128.08 279.267 127.67 279.028C127.26 278.79 126.919 278.449 126.68 278.039C126.405 277.583 126.257 277.062 126.25 276.529C126.13 275.949 126.07 275.349 125.9 274.749C125.71 275.949 125.23 277.079 125.71 278.489C125.961 279.162 126.41 279.743 126.997 280.157C127.584 280.571 128.282 280.798 129 280.809C129.477 280.801 129.949 280.914 130.37 281.138C130.792 281.362 131.149 281.689 131.41 282.089C131.699 282.527 131.865 283.035 131.89 283.559C132.01 284.159 132.07 284.759 132.23 285.339C132.43 284.189 132.92 282.999 132.37 281.599ZM123.68 359.659C123.396 359.006 122.928 358.451 122.333 358.06C121.738 357.669 121.042 357.46 120.33 357.459C119.858 357.448 119.397 357.317 118.99 357.079C118.582 356.842 118.242 356.504 118 356.099C117.724 355.642 117.569 355.123 117.55 354.589C117.45 354.009 117.37 353.409 117.22 352.819C117.03 353.989 116.55 355.139 117.03 356.549C117.28 357.219 117.728 357.797 118.313 358.208C118.899 358.618 119.595 358.842 120.31 358.849C120.79 358.85 121.263 358.97 121.685 359.199C122.108 359.427 122.467 359.757 122.73 360.159C123.017 360.602 123.183 361.112 123.21 361.639C123.31 362.219 123.39 362.799 123.55 363.399C123.74 362.239 124.22 361.049 123.68 359.659ZM158.45 227.479C158.169 226.825 157.702 226.269 157.105 225.881C156.509 225.493 155.811 225.291 155.1 225.299H154.74L153.18 226.119C153.746 226.488 154.404 226.693 155.08 226.709C155.555 226.704 156.024 226.818 156.444 227.042C156.863 227.266 157.22 227.591 157.48 227.989C157.779 228.43 157.946 228.947 157.96 229.479C158.09 230.059 158.15 230.659 158.3 231.239C158.5 230.049 159 228.869 158.45 227.479ZM154.22 377.629C153.56 377.358 152.835 377.291 152.136 377.435C151.438 377.579 150.798 377.929 150.3 378.439C149.956 378.765 149.536 378.999 149.078 379.119C148.62 379.24 148.139 379.243 147.68 379.129C147.163 378.998 146.687 378.736 146.3 378.369C145.79 378.019 145.3 377.659 144.81 377.369C145.49 378.369 145.97 379.489 147.3 380.149C147.951 380.446 148.677 380.538 149.382 380.415C150.087 380.292 150.738 379.959 151.25 379.459C151.779 378.935 152.488 378.634 153.232 378.618C153.976 378.601 154.698 378.87 155.25 379.369C155.76 379.719 156.25 380.079 156.75 380.369C156.07 379.399 155.58 378.219 154.22 377.629ZM103.15 291.509C102.49 291.24 101.765 291.173 101.067 291.317C100.368 291.461 99.7291 291.81 99.23 292.319C98.8868 292.646 98.4667 292.88 98.0086 293.001C97.5506 293.121 97.0694 293.124 96.61 293.009C96.093 292.879 95.6201 292.613 95.24 292.239C94.73 291.899 94.24 291.539 93.74 291.239C94.43 292.239 94.91 293.359 96.24 294.019C96.8979 294.324 97.633 294.421 98.3476 294.298C99.0621 294.175 99.7222 293.837 100.24 293.329C100.574 292.986 100.989 292.733 101.448 292.595C101.906 292.457 102.392 292.438 102.86 292.539C103.379 292.64 103.86 292.882 104.25 293.239C104.76 293.589 105.25 293.949 105.74 294.239C105 293.279 104.51 292.089 103.15 291.509ZM68.37 355.809C67.7098 355.541 66.9848 355.475 66.287 355.619C65.5892 355.763 64.9498 356.111 64.45 356.619C64.1068 356.946 63.6867 357.18 63.2286 357.301C62.7706 357.421 62.2894 357.424 61.83 357.309C61.314 357.182 60.8412 356.919 60.46 356.549C59.95 356.199 59.46 355.839 58.96 355.549C59.65 356.549 60.13 357.669 61.46 358.329C62.1112 358.626 62.8368 358.718 63.5417 358.595C64.2466 358.472 64.8978 358.139 65.41 357.639C65.7448 357.297 66.1605 357.046 66.6185 356.908C67.0766 356.77 67.5621 356.749 68.03 356.849C68.5468 356.956 69.0263 357.198 69.42 357.549C69.93 357.899 70.42 358.259 70.91 358.549C70.23 357.579 69.73 356.399 68.37 355.809ZM129.92 314.369C129.26 314.098 128.535 314.031 127.836 314.175C127.138 314.319 126.498 314.669 126 315.179C125.653 315.506 125.23 315.741 124.768 315.862C124.307 315.982 123.823 315.985 123.36 315.869C122.847 315.737 122.377 315.471 122 315.099C121.51 314.759 121 314.399 120.49 314.099C121.19 315.099 121.67 316.219 123 316.879C123.658 317.184 124.393 317.281 125.108 317.158C125.822 317.035 126.482 316.697 127 316.189C127.332 315.843 127.748 315.589 128.206 315.451C128.665 315.312 129.152 315.295 129.62 315.399C129.771 315.427 129.918 315.471 130.06 315.529L130.52 314.689C130.332 314.561 130.131 314.453 129.92 314.369ZM96.44 334.229C95.7664 334.479 95.1843 334.927 94.7703 335.515C94.3562 336.102 94.1295 336.801 94.12 337.519C94.1279 337.997 94.0135 338.47 93.7878 338.891C93.562 339.313 93.2323 339.67 92.83 339.929C92.3874 340.216 91.8769 340.382 91.35 340.409C90.77 340.529 90.17 340.589 89.59 340.749C90.74 340.949 91.92 341.439 93.31 340.899C93.9658 340.619 94.5245 340.152 94.9159 339.556C95.3072 338.96 95.5139 338.262 95.51 337.549C95.5242 337.075 95.6559 336.613 95.8933 336.202C96.1307 335.792 96.4663 335.447 96.87 335.199C97.333 334.923 97.8609 334.775 98.4 334.769C98.98 334.649 99.57 334.569 100.17 334.419C99 334.229 97.85 333.759 96.44 334.229ZM128 246.639C127.326 246.888 126.743 247.336 126.329 247.923C125.914 248.511 125.688 249.21 125.68 249.929C125.681 250.675 125.393 251.393 124.876 251.931C124.36 252.47 123.655 252.788 122.91 252.819C122.33 252.939 121.73 252.999 121.15 253.159C122.3 253.359 123.48 253.849 124.87 253.309C125.527 253.03 126.086 252.564 126.478 251.967C126.869 251.371 127.075 250.672 127.07 249.959C127.086 249.486 127.218 249.024 127.456 248.614C127.693 248.204 128.028 247.859 128.43 247.609C128.893 247.333 129.421 247.185 129.96 247.179C130.54 247.059 131.13 246.989 131.72 246.839C130.58 246.639 129.44 246.179 128 246.639ZM123.63 393.159C122.955 393.404 122.371 393.849 121.956 394.436C121.541 395.022 121.316 395.721 121.31 396.439C121.321 396.838 121.242 397.234 121.08 397.599L122.43 397.839C122.617 397.407 122.709 396.94 122.7 396.469C122.714 395.995 122.846 395.533 123.083 395.122C123.321 394.712 123.656 394.367 124.06 394.119C124.524 393.847 125.052 393.702 125.59 393.699C126.17 393.569 126.75 393.509 127.34 393.359C126.21 393.159 125.07 392.669 123.67 393.159H123.63ZM151.39 334.239C150.72 334.489 150.141 334.935 149.728 335.518C149.314 336.101 149.085 336.794 149.07 337.509C149.081 337.988 148.97 338.463 148.748 338.887C148.526 339.312 148.2 339.674 147.8 339.939C147.352 340.223 146.839 340.388 146.31 340.419C145.72 340.519 145.14 340.599 144.54 340.759C145.71 340.949 146.89 341.429 148.28 340.889C148.932 340.606 149.487 340.137 149.877 339.542C150.266 338.947 150.472 338.25 150.47 337.539C150.484 337.067 150.617 336.606 150.856 336.199C151.096 335.791 151.434 335.451 151.84 335.209C152.295 334.931 152.816 334.779 153.35 334.769C153.95 334.659 154.52 334.579 155.12 334.429C154 334.239 152.84 333.759 151.43 334.239H151.39ZM160.59 259.329C160.91 258.719 161.23 258.119 161.53 257.519C161.067 258.027 160.755 258.654 160.63 259.329H160.59ZM157.75 262.849C157.17 262.959 156.57 263.029 155.97 263.199C156.758 263.394 157.561 263.521 158.37 263.579C158.54 263.239 158.72 262.899 158.9 262.579C158.549 262.733 158.173 262.824 157.79 262.849H157.75Z" fill="white"/>
<path d="M99.5008 325.201C102.021 325.551 171.081 327.841 185.631 330.091C185.861 330.091 185.891 329.341 185.631 329.311C140.631 323.311 102.041 323.561 99.0208 323.781C95.4608 324.001 94.7908 324.551 99.5008 325.201Z" fill="#263238"/>
<path d="M125.9 325.13C125.9 324.99 136.9 304.94 138.08 303.84C139.26 302.74 141.93 300.15 143.08 298.94C145.37 296.48 147.5 293.94 149.7 291.38C149.88 291.17 149.57 290.87 149.39 291.07C147.13 293.47 144.65 295.68 142.18 297.84L138.48 301C138.39 301.06 149.02 281.33 150.75 277.82C150.88 277.56 150.61 277.39 150.45 277.59C148.08 280.93 126.45 320.34 123.79 324.64C123.79 324.67 124.59 324.9 125.9 325.13Z" fill="#263238"/>
<path d="M71.4808 386.38C92.7308 392.68 175.001 405.3 179.251 406C179.33 404.487 179.547 402.984 179.901 401.51C179.901 401.35 180.261 401.33 180.271 401.51C180.444 403.609 180.504 405.715 180.451 407.82C180.451 408.17 99.4508 397.1 71.4508 386.59C71.3308 386.54 71.3508 386.34 71.4808 386.38Z" fill="#263238"/>
<path d="M162.48 398.29C163.345 393.04 163.946 387.75 164.28 382.44C164.774 377.24 165.23 372.04 165.65 366.84C166.49 356.35 167.6 345.84 167.76 335.26C167.76 335.21 167.74 335.162 167.705 335.126C167.669 335.09 167.621 335.07 167.57 335.07C167.52 335.07 167.472 335.09 167.436 335.126C167.4 335.162 167.38 335.21 167.38 335.26C165.49 345.71 164.67 356.4 163.75 366.97C163.29 372.27 162.904 377.577 162.59 382.89C162.127 388.023 161.954 393.178 162.07 398.33C162.08 398.53 162.43 398.5 162.48 398.29Z" fill="#263238"/>
<path d="M417.66 360.849C417.678 372.83 413.885 384.506 406.83 394.189C401.125 402.044 393.5 408.303 384.684 412.368C375.868 416.432 366.156 418.166 356.478 417.403C346.8 416.64 337.48 413.406 329.41 408.01C321.34 402.614 314.789 395.237 310.386 386.585C305.983 377.934 303.874 368.296 304.261 358.596C304.648 348.896 307.519 339.457 312.598 331.184C317.677 322.911 324.794 316.079 333.269 311.344C341.744 306.609 351.292 304.128 361 304.139C362.547 304.139 364.087 304.199 365.62 304.319C374.401 305.014 382.897 307.754 390.43 312.319C398.011 316.935 404.41 323.256 409.12 330.779C414.738 339.799 417.698 350.222 417.66 360.849Z" fill="#455A64"/>
<path d="M373.19 387.62C372.48 389.53 373.67 389.62 373.75 390.4C373.83 391.18 373.75 392.7 371.45 395.01C369.15 397.32 365.33 396.83 364.53 397.79C363.73 398.75 362.39 402.79 360.53 404.14C358.67 405.49 358.31 404.7 355.61 405.25C352.91 405.8 350.84 409.31 350.05 410.97C349.26 412.63 350.21 415.42 348.3 415.5C346.39 415.58 345.52 411.45 343.77 409.23C342.26 407.228 341.277 404.88 340.91 402.4C340.36 399.77 341.23 394.29 340.91 392.15C340.59 390.01 334.91 386.15 332.81 383.57C330.71 380.99 327.89 375.71 328.05 373.96C328.286 372.262 329.132 370.709 330.43 369.59C331.38 368.87 330.98 368.48 331.14 367.84C331.3 367.2 332.14 367.05 332.26 366.25C332.38 365.45 331.78 363.08 330.98 362.68C330.18 362.28 329.63 363.63 329.16 363.39C328.69 363.15 327.25 361.49 326.7 361.33C326.15 361.17 326.3 362.33 325.5 360.85C324.7 359.37 324.31 355.53 323.68 354.85C323.05 354.17 322.56 355.97 321.06 354.85C319.56 353.73 318.91 351.6 318.28 351.28C317.65 350.96 316.77 351.36 316.11 350.09C315.45 348.82 316.69 346.51 316.11 346.75C315.53 346.99 314.3 348.82 313.99 347.07C313.68 345.32 315.57 339.44 315.26 336.27C314.998 332.92 316.077 329.604 318.26 327.05C318.26 327.05 318.57 325.31 318.89 324.19C319.21 323.07 326.04 318.63 326.83 317.36C327.162 316.65 327.352 315.882 327.39 315.1C337.121 307.934 348.895 304.079 360.98 304.1C362.526 304.1 364.066 304.16 365.6 304.28C365.645 304.356 365.698 304.426 365.76 304.49C366.44 305.37 367.19 305.92 369.2 306.67C371.21 307.42 371.69 308.36 371.26 309.15C371.071 309.48 370.792 309.749 370.455 309.926C370.119 310.103 369.739 310.181 369.36 310.15C368.56 310.2 367.82 309.78 366.97 310.31C366.12 310.84 365.28 313.7 364.17 313.86C363.06 314.02 361.1 311.31 360.67 310.52C360.24 309.73 361.67 308.03 360.98 307.24C360.29 306.45 359.19 306.6 357.39 306.44C355.59 306.28 351.39 306.97 351.56 307.66C351.73 308.35 357.71 307.55 357.87 308.93C358.03 310.31 353.47 312.64 352.68 312.43C351.89 312.22 350.82 310.84 349.68 310.68C348.54 310.52 347.56 311.47 346.83 311.58C346.1 311.69 345.23 310.79 344.12 311C343.01 311.21 342.74 312.16 342.12 312.53C341.5 312.9 340.12 312.9 340 313.75C339.88 314.6 341.75 315.08 342.22 315.6C342.69 316.12 341.64 317.94 342.12 318.31C342.6 318.68 345.56 316.08 346.3 315.45C347.04 314.82 347.68 312.06 349.3 312.11C350.92 312.16 351.42 314.86 351.94 315.11C352.46 315.36 353.64 314.47 355.39 314.84C357.14 315.21 358.39 319.03 358.67 320.19C358.95 321.35 359.73 322.52 359.09 323C358.45 323.48 355.6 322.68 355.23 321.94C354.86 321.2 357.13 320.09 356.98 319.82C356.663 319.605 356.298 319.473 355.917 319.435C355.537 319.396 355.153 319.453 354.8 319.6C354.12 320.02 353.8 320.88 353.06 321.09C352.32 321.3 350.36 319.09 349.83 319.71C349.3 320.33 350.36 322.36 350.89 322.84C351.42 323.32 353.37 323.58 353.53 324.11C353.69 324.64 352.21 325.8 350.41 325.7C348.61 325.6 347.13 324.22 346.41 324.8C345.69 325.38 346.09 326.92 345.61 327.45C345.13 327.98 342.54 327.61 341.27 328.98C340 330.35 339.42 332.42 338.15 333.59C336.88 334.76 336.29 333.27 334.6 334.91C332.91 336.55 332.6 340.21 332.6 341.48C332.6 342.75 332.6 343.76 332.17 343.6C331.571 343.081 331.163 342.377 331.01 341.6C330.85 340.91 331.38 339.74 331.38 339.32C331.38 338.9 328.94 336.73 327.51 336.51C326.08 336.29 324.81 337.51 323.75 338.31C322.69 339.11 320.75 339 320.1 339.69C319.45 340.38 318.88 346.47 319.41 347.9C319.94 349.33 320.63 349.33 322.32 348.59C324.01 347.85 323.06 346.42 324.07 346.73C324.523 346.899 324.914 347.204 325.19 347.603C325.465 348.002 325.612 348.475 325.61 348.96C325.61 349.81 323.61 351.82 323.86 352.4C324.11 352.98 325.86 352.3 326.72 352.56C327.58 352.82 327.99 353.35 327.72 355.56C327.45 357.77 327.61 359.42 328.88 360.14C330.15 360.86 330.88 359.14 331.42 359.34C331.96 359.54 332.77 360.85 333.57 360.77C334.37 360.69 333.96 359.98 335.47 359.5C336.98 359.02 336.47 358.71 336.74 357.75C336.793 357.506 336.898 357.276 337.047 357.076C337.197 356.876 337.387 356.71 337.606 356.59C337.825 356.47 338.067 356.398 338.316 356.379C338.565 356.36 338.815 356.394 339.05 356.48C340.05 356.96 339.36 357.67 339.44 358.48C339.52 359.29 341.35 359.35 342.78 359.83C344.21 360.31 345 359.83 347.86 360.83C350.72 361.83 350.86 364.64 352.07 365.12C353.28 365.6 357.24 364.8 360.07 366.87C362.9 368.94 362.13 372.75 363.56 373.87C364.99 374.99 370.31 376.49 372.38 376.87C374.45 377.25 374.76 375.87 376.43 376.23C378.1 376.59 379.05 377.11 379.61 379.41C380.12 381.47 373.91 385.71 373.19 387.62Z" fill="#407BFF"/>
<path d="M330.51 346.999C330.56 347.449 331.89 347.639 333.51 348.539C335.13 349.439 335.68 352.089 336.51 352.029C337.34 351.969 337.09 350.759 337.41 350.449C337.554 350.36 337.674 350.234 337.756 350.086C337.839 349.937 337.883 349.769 337.883 349.599C337.883 349.429 337.839 349.262 337.756 349.113C337.674 348.964 337.554 348.839 337.41 348.749C336.56 348.059 335.73 346.579 334.19 346.369C332.65 346.159 332.37 345.519 331.69 345.569C331.512 345.569 331.337 345.608 331.177 345.683C331.016 345.759 330.875 345.869 330.762 346.005C330.649 346.142 330.568 346.302 330.524 346.474C330.481 346.646 330.476 346.825 330.51 346.999Z" fill="#407BFF"/>
<path d="M339.25 351.45C339.01 352.1 339.25 352.56 340.94 352.99C342.63 353.42 344.23 352.56 343.7 352.22C343.17 351.88 342.37 352.03 342.7 351.45C343.03 350.87 342.91 350.02 341.53 350.18C340.15 350.34 339.46 350.87 339.25 351.45Z" fill="#407BFF"/>
<path d="M345.179 351.629C344.599 351.719 344.279 352.719 344.859 353.359C345.439 353.999 345.439 353.889 346.129 353.359C346.819 352.829 347.879 352.569 347.619 352.039C347.359 351.509 345.759 351.549 345.179 351.629Z" fill="#407BFF"/>
<path d="M349.79 353.799C350.05 352.999 351.38 353.799 351.96 354.629C352.188 355.096 352.307 355.609 352.307 356.129C352.307 356.649 352.188 357.162 351.96 357.629C351.64 358.539 351.43 359.629 350.69 359.169C349.95 358.709 350.74 357.479 350.63 356.729C350.52 355.979 349.57 354.449 349.79 353.799Z" fill="#407BFF"/>
<path d="M372.61 309.619C372.33 310.279 373.61 310.519 374.36 310.939C375.11 311.359 375.68 311.629 376.11 310.939C376.187 310.784 376.228 310.614 376.231 310.441C376.234 310.268 376.198 310.097 376.126 309.94C376.054 309.783 375.948 309.643 375.815 309.532C375.683 309.422 375.527 309.342 375.36 309.299C374.78 309.139 372.88 308.999 372.61 309.619Z" fill="#407BFF"/>
<path d="M382.62 315.809C383.11 316.329 383.94 316.239 384.53 316.979C385.12 317.719 384.9 318.979 385.64 319.359C386.38 319.739 386.91 319.359 386.96 318.829C387.01 318.299 385.9 316.979 386.01 316.709C386.12 316.439 387.54 317.079 387.86 317.879C388.18 318.679 387.54 319.779 388.29 319.999C389.04 320.219 388.87 319.259 389.19 318.999C389.51 318.739 390.19 318.899 390.14 318.259C389.885 317.283 389.329 316.411 388.55 315.769C387.861 315.175 387.048 314.741 386.17 314.499C385.69 314.364 385.187 314.332 384.693 314.406C384.2 314.48 383.729 314.659 383.31 314.929C382.72 315.439 382.32 315.499 382.62 315.809Z" fill="#407BFF"/>
<path d="M405.53 325.789C405.5 326.006 405.394 326.205 405.23 326.349C404.12 327.149 402.79 324.349 401.23 323.859C399.67 323.369 399.01 321.369 398.69 321.799C398.37 322.229 398.48 322.799 398 323.489C397.52 324.179 396.83 324.019 396.52 325.349C396.21 326.679 398 329.109 397.58 329.899C397.16 330.689 396.58 330.429 395.77 330.379C394.96 330.329 395.09 331.059 393.98 330.749C392.87 330.439 393.82 329.049 392.07 327.409C390.32 325.769 389.74 325.409 390.07 324.709C390.4 324.009 389.91 322.909 390.7 322.799C391.49 322.689 392.13 323.859 392.7 324.179C393.27 324.499 393.92 323.549 393.97 322.699C394.02 321.849 392.12 320.699 391.43 320.029C390.74 319.359 390.69 317.029 390.96 316.499C391.23 315.969 392.02 316.179 392.23 315.019C392.35 314.329 391.23 313.189 390.35 312.359C396.169 315.897 401.309 320.445 405.53 325.789Z" fill="#407BFF"/>
<path d="M413.44 373.269C413.6 371.579 412.75 371.469 413.6 368.349C413.858 367.116 413.854 365.842 413.589 364.611C413.323 363.379 412.803 362.217 412.06 361.199C411.43 360.509 410.06 360.719 408.94 361.409C407.82 362.099 408.62 362.629 407.88 362.889C407.14 363.149 406.4 362.729 405.71 362.789C405.02 362.849 404.38 364.579 402.9 364.529C401.42 364.479 400.47 362.359 399.35 360.849C398.23 359.339 395.96 358.389 395.22 356.539C394.48 354.689 395.91 351.819 395.59 349.649C395.27 347.479 393.85 347.959 393.59 346.739C393.33 345.519 393.8 346.099 394.17 344.939C394.54 343.779 393.75 343.139 394.49 341.129C395.23 339.119 396.56 338.129 396.24 337.209C395.92 336.289 394.92 334.819 394.86 333.769C394.8 332.719 395.86 332.769 397.86 331.279C399.86 329.789 400.4 329.899 401.94 330.429C403.042 330.837 404.176 331.155 405.33 331.379C406.23 331.539 407.45 333.869 407.82 333.769C408.19 333.669 408.24 332.969 408.4 331.969C408.501 331.529 408.731 331.129 409.06 330.819C415.034 340.406 418.013 351.557 417.614 362.846C417.215 374.135 413.456 385.048 406.82 394.189C412.23 385.999 413.28 374.999 413.44 373.269Z" fill="#407BFF"/>
<path d="M296.05 360.849C296.05 366.629 296.3 372.539 297.89 378.189L298.38 380.329L299.07 382.409L300.48 386.589L302.29 390.589C302.6 391.249 302.88 391.939 303.22 392.589L304.31 394.509C307.22 399.673 310.816 404.419 315 408.619L318.24 411.669C319.3 412.669 320.55 413.519 321.7 414.449C324.061 416.266 326.533 417.936 329.1 419.449C330.39 420.179 331.75 420.799 333.1 421.449L335.1 422.449C335.78 422.759 336.49 422.989 337.18 423.269L341.36 424.839L345.68 425.999L347.84 426.569L350.05 426.929L354.47 427.639L358.94 427.909L361.18 428.039C361.92 428.039 362.67 428.039 363.41 427.959L367.89 427.769C369.38 427.609 370.89 427.349 372.33 427.139C375.286 426.657 378.208 425.989 381.08 425.139C382.5 424.689 383.89 424.139 385.3 423.639L387.41 422.869C388.1 422.579 388.77 422.239 389.41 421.919L393.46 419.979L397.3 417.659C398.591 416.899 399.827 416.05 401 415.119C402.18 414.199 403.42 413.359 404.55 412.379C406.821 410.431 408.965 408.34 410.97 406.119C415.023 401.711 418.442 396.76 421.13 391.409L423.04 387.359C423.62 385.979 424.04 384.549 424.58 383.159L425.33 381.049C425.56 380.339 425.71 379.599 425.9 378.879L426.98 374.539C428.066 368.685 428.408 362.718 428 356.779C427.166 344.962 423.113 333.598 416.281 323.92C409.448 314.243 400.096 306.62 389.24 301.879C399.514 307.215 408.214 315.144 414.48 324.879C420.683 334.492 424.24 345.571 424.79 356.999C424.984 362.651 424.517 368.305 423.4 373.849L422.31 377.939C422.11 378.619 421.97 379.309 421.74 379.939L420.99 381.939C420.48 383.249 420.04 384.599 419.47 385.879L417.61 389.669C416.994 390.933 416.295 392.156 415.52 393.329C414.76 394.509 414.12 395.779 413.26 396.889C411.641 399.19 409.866 401.379 407.95 403.439C406.057 405.517 404.033 407.471 401.89 409.289C400.82 410.209 399.65 410.989 398.53 411.839L396.84 413.099C396.27 413.509 395.65 413.839 395.06 414.209C376.16 426.629 350.58 427.289 330.61 416.619C325.63 413.893 321.006 410.565 316.84 406.709C312.653 402.809 309.007 398.366 306 393.499L304.84 391.699C304.47 391.089 304.18 390.429 303.84 389.799L301.84 385.979L300.25 381.979L299.46 379.979L298.87 377.909C298.48 376.529 298.06 375.149 297.7 373.749L296.93 369.489C296.8 368.779 296.65 368.069 296.54 367.359L296.36 365.199L296.05 360.849Z" fill="#263238"/>
<path d="M383.729 309.52L391.399 313.17L396.819 296.98L392.869 295.1L383.729 309.52Z" fill="#263238"/>
<path d="M355.949 446.279H364.189V426.099H355.949V446.279Z" fill="#263238"/>
<path d="M329.87 446.26H390.27V438.77H329.87V446.26Z" fill="#263238"/>
<path d="M85.1507 127.18C85.8272 133.657 88.2901 139.819 92.2646 144.977C96.2391 150.136 101.569 154.088 107.659 156.394C113.749 158.699 120.36 159.267 126.755 158.034C133.149 156.801 139.075 153.815 143.871 149.41L161.451 152L152.651 136.8C154.671 131.852 155.536 126.507 155.18 121.174C154.824 115.841 153.256 110.659 150.596 106.023C147.936 101.386 144.254 97.4178 139.829 94.4189C135.405 91.4199 130.354 89.4695 125.062 88.7161C119.771 87.9627 114.377 88.4261 109.291 90.0711C104.205 91.7161 99.5614 94.4992 95.7131 98.2089C91.8648 101.919 88.9132 106.457 87.0829 111.479C85.2526 116.501 84.5918 121.875 85.1507 127.19V127.18Z" fill="white"/>
<path d="M95.6704 98.1606C99.4967 94.3791 104.143 91.5306 109.249 89.8361C114.355 88.1417 119.782 87.6471 125.11 88.3906C130.473 89.0974 135.604 91.0196 140.11 94.0106C144.611 97.0407 148.371 101.047 151.11 105.731C153.845 110.437 155.462 115.709 155.836 121.139C156.211 126.569 155.333 132.013 153.27 137.051V136.451L162 151.681L162.65 152.801L161.38 152.611L143.81 149.911L144.23 149.781C139.342 154.2 133.321 157.174 126.84 158.371C125.236 158.667 123.611 158.834 121.98 158.871C113.783 159.24 105.713 156.74 99.1604 151.801C97.8584 150.834 96.6192 149.785 95.4504 148.661C94.3096 147.507 93.2409 146.285 92.2504 145.001C86.9824 138.13 84.4204 129.565 85.0509 120.93C85.6813 112.295 89.4603 104.193 95.6704 98.1606ZM92.3504 144.921C93.3442 146.193 94.4127 147.405 95.5504 148.551C96.7199 149.659 97.9591 150.691 99.2604 151.641C101.843 153.579 104.701 155.119 107.74 156.211C110.756 157.332 113.913 158.029 117.12 158.281C118.722 158.396 120.329 158.396 121.93 158.281C123.533 158.208 125.127 158.014 126.7 157.701C133.007 156.421 138.832 153.408 143.52 149.001L143.7 148.841H143.94L161.54 151.301L160.91 152.231L152.06 137.061L151.89 136.781L152.02 136.461C153.974 131.605 154.818 126.374 154.49 121.151C154.123 115.946 152.588 110.891 150 106.361C147.371 101.82 143.785 97.9059 139.49 94.8906C135.161 91.8986 130.205 89.9353 125 89.1506C119.771 88.3588 114.431 88.7622 109.38 90.3306C104.011 92.0033 99.1273 94.9551 95.1505 98.9323C91.1736 102.909 88.2222 107.793 86.5499 113.163C84.8776 118.533 84.5345 124.229 85.5502 129.761C86.5658 135.292 88.9097 140.495 92.3804 144.921H92.3504Z" fill="#382826"/>
<path d="M121.34 128.361V132.061C121.35 132.43 121.284 132.798 121.147 133.14C121.011 133.483 120.805 133.795 120.544 134.056C120.283 134.317 119.972 134.522 119.629 134.659C119.286 134.796 118.919 134.861 118.55 134.851C117.81 134.851 117.101 134.558 116.577 134.034C116.054 133.511 115.76 132.801 115.76 132.061V126.151C115.76 126.091 115.82 126.091 115.82 126.031C115.82 125.971 115.76 125.971 115.76 125.921C115.78 125.188 116.081 124.49 116.6 123.971C117.119 123.452 117.817 123.152 118.55 123.131C119.409 123.165 120.265 123.026 121.068 122.721C121.871 122.416 122.604 121.952 123.224 121.356C123.843 120.761 124.336 120.047 124.673 119.256C125.009 118.466 125.183 117.616 125.183 116.756C125.183 115.897 125.009 115.047 124.673 114.257C124.336 113.466 123.843 112.752 123.224 112.157C122.604 111.561 121.871 111.097 121.068 110.792C120.265 110.487 119.409 110.347 118.55 110.381C117.444 110.377 116.356 110.664 115.396 111.213C114.435 111.763 113.637 112.555 113.08 113.511C112.894 113.834 112.646 114.116 112.35 114.341C112.053 114.567 111.715 114.731 111.355 114.824C110.995 114.917 110.619 114.937 110.251 114.884C109.883 114.83 109.529 114.703 109.21 114.511C108.892 114.329 108.613 114.086 108.39 113.795C108.167 113.504 108.004 113.171 107.911 112.816C107.818 112.462 107.796 112.092 107.848 111.729C107.899 111.366 108.022 111.016 108.21 110.701C109.198 108.967 110.602 107.507 112.297 106.452C113.991 105.398 115.922 104.783 117.914 104.662C119.906 104.542 121.897 104.921 123.705 105.763C125.514 106.606 127.085 107.887 128.274 109.49C129.463 111.092 130.234 112.966 130.516 114.942C130.799 116.917 130.584 118.932 129.892 120.804C129.2 122.676 128.051 124.345 126.551 125.661C125.051 126.977 123.246 127.899 121.3 128.341L121.34 128.361ZM121.34 140.831V141.831C121.35 142.2 121.284 142.568 121.147 142.91C121.011 143.253 120.805 143.565 120.544 143.826C120.283 144.087 119.972 144.292 119.629 144.429C119.286 144.565 118.919 144.631 118.55 144.621C117.81 144.621 117.101 144.328 116.577 143.804C116.054 143.281 115.76 142.571 115.76 141.831V140.831C115.77 140.095 116.068 139.391 116.589 138.87C117.11 138.349 117.813 138.052 118.55 138.041C118.918 138.037 119.282 138.107 119.623 138.246C119.963 138.384 120.272 138.59 120.532 138.85C120.792 139.11 120.997 139.419 121.136 139.759C121.275 140.099 121.344 140.464 121.34 140.831Z" fill="#FF6E40"/>
</svg>
