<svg width="637" height="425" viewBox="0 0 637 425" fill="none" xmlns="http://www.w3.org/2000/svg">
<path d="M186.755 103.841L91.459 167.588L185.325 307.909L280.621 244.162L186.755 103.841Z" fill="#F5F5F5"/>
<path d="M231.376 237.524L230.298 244.217L182.922 237.388L184.001 230.695L231.376 237.524Z" fill="#E0E0E0"/>
<path d="M207.519 213.65L214.313 214.627L206.78 261.273L199.977 260.287L207.519 213.65Z" fill="#E0E0E0"/>
<path d="M163.923 154.366C163.991 154.46 154.444 160.974 142.596 168.89C130.748 176.806 121.091 183.159 121.023 183.057C120.955 182.955 130.501 176.449 142.35 168.525C154.198 160.601 163.812 154.265 163.923 154.366Z" fill="#E0E0E0"/>
<path d="M198.931 145.567C198.999 145.669 183.117 156.405 163.463 169.552C143.81 182.7 127.791 193.274 127.74 193.181C127.689 193.087 143.538 182.335 163.217 169.187C182.896 156.039 198.864 145.465 198.931 145.567Z" fill="#E0E0E0"/>
<path d="M205.956 156.065C206.024 156.167 190.141 166.911 170.488 180.059C150.834 193.207 134.816 203.781 134.765 203.679C134.714 203.577 150.579 192.841 170.241 179.685C189.903 166.529 205.888 155.963 205.956 156.065Z" fill="#E0E0E0"/>
<path d="M212.979 166.571C213.047 166.673 197.164 177.417 177.511 190.556C157.857 203.695 141.839 214.287 141.839 214.185C141.839 214.083 157.645 203.339 177.307 190.191C196.969 177.043 212.911 166.469 212.979 166.571Z" fill="#E0E0E0"/>
<path d="M219.979 177.077C220.047 177.179 204.164 187.914 184.51 201.062C164.857 214.21 148.838 224.784 148.796 224.682C148.754 224.58 164.628 213.845 184.307 200.697C203.986 187.549 219.979 176.975 219.979 177.077Z" fill="#E0E0E0"/>
<path d="M505.413 197.863L425.38 251.4L504.21 369.244L584.243 315.707L505.413 197.863Z" fill="#F5F5F5"/>
<path d="M542.894 310.159L541.986 315.781L502.194 310.048L503.112 304.426L542.894 310.159Z" fill="#E0E0E0"/>
<path d="M522.859 290.107L528.567 290.931L522.239 330.103L516.523 329.279L522.859 290.107Z" fill="#E0E0E0"/>
<path d="M486.21 240.36C486.278 240.462 478.269 245.94 468.315 252.591C458.361 259.241 450.241 264.558 450.173 264.481C450.105 264.405 458.123 258.91 468.069 252.251C478.014 245.592 486.143 240.216 486.21 240.36Z" fill="#E0E0E0"/>
<path d="M515.64 232.929C515.708 233.031 502.382 242.067 485.913 253.1C469.445 264.133 455.966 273.017 455.898 272.915C455.83 272.813 469.156 263.776 485.624 252.735C502.093 241.694 515.546 232.827 515.64 232.929Z" fill="#E0E0E0"/>
<path d="M521.542 241.745C521.61 241.847 508.284 250.884 491.816 261.925C475.347 272.966 461.868 281.833 461.8 281.731C461.732 281.63 475.016 272.635 491.527 261.594C508.038 250.552 521.491 241.651 521.542 241.745Z" fill="#E0E0E0"/>
<path d="M527.437 250.553C527.505 250.655 514.17 259.692 497.71 270.734C481.25 281.775 467.763 290.642 467.695 290.54C467.627 290.438 480.953 281.41 497.421 270.36C513.89 259.31 527.377 250.468 527.437 250.553Z" fill="#E0E0E0"/>
<path d="M533.382 259.395C533.45 259.497 520.124 268.526 503.655 279.567C487.187 290.608 473.708 299.475 473.64 299.382C473.572 299.289 486.898 290.243 503.367 279.202C519.835 268.161 533.272 259.293 533.382 259.395Z" fill="#E0E0E0"/>
<path d="M378.796 109.003L291.47 62.2969L222.696 190.882L310.022 237.589L378.796 109.003Z" fill="#F5F5F5"/>
<path d="M295.076 197.359L289.539 199.253L275.474 160.379L281.02 158.477L295.076 197.359Z" fill="#E0E0E0"/>
<path d="M303.57 169.467L305.591 175.047L266.98 188.271L264.959 182.691L303.57 169.467Z" fill="#E0E0E0"/>
<path d="M331.003 112.111C330.935 112.239 322.085 107.635 311.222 101.835C300.359 96.0336 291.619 91.2179 291.687 91.0905C291.755 90.9631 300.613 95.5665 311.476 101.367C322.339 107.168 331.071 111.976 331.003 112.111Z" fill="#E0E0E0"/>
<path d="M351.964 135.24C351.896 135.367 337.237 127.655 319.223 118.024C301.208 108.392 286.668 100.477 286.736 100.349C286.804 100.222 301.455 107.925 319.469 117.565C337.483 127.205 352.032 135.112 351.964 135.24Z" fill="#E0E0E0"/>
<path d="M346.818 144.863C346.75 144.99 332.09 137.287 314.076 127.647C296.062 118.007 281.521 110.1 281.589 109.972C281.657 109.845 296.308 117.557 314.322 127.188C332.337 136.82 346.886 144.735 346.818 144.863Z" fill="#E0E0E0"/>
<path d="M341.671 154.484C341.603 154.611 326.944 146.908 308.93 137.276C290.915 127.645 276.375 119.755 276.443 119.602C276.511 119.449 291.162 127.178 309.176 136.809C327.19 146.441 341.739 154.357 341.671 154.484Z" fill="#E0E0E0"/>
<path d="M336.524 164.108C336.456 164.236 321.797 156.532 303.782 146.901C285.768 137.269 271.219 129.354 271.295 129.226C271.372 129.099 286.014 136.802 304.029 146.434C322.043 156.065 336.592 163.981 336.524 164.108Z" fill="#E0E0E0"/>
<path d="M563.677 373.565C563.677 373.683 453.901 373.785 318.509 373.785C183.117 373.785 73.3232 373.709 73.3232 373.565C73.3232 373.42 183.083 373.344 318.509 373.344C453.935 373.344 563.677 373.437 563.677 373.565Z" fill="#263238"/>
<path d="M100.467 320.37C101.903 320.473 103.304 320.865 104.585 321.522C105.866 322.179 107.002 323.087 107.925 324.192C109.759 326.415 111.058 329.031 111.721 331.836C113.157 337.204 112.273 343.548 110.744 348.89C104.935 346.81 101.342 340.609 99.7031 337.348C97.1551 332.201 95.6348 321.33 100.442 320.361" fill="#00ACA5"/>
<path d="M119.111 355.405C118.238 354.052 117.74 352.493 117.665 350.885C117.59 349.276 117.943 347.677 118.686 346.249C119.453 344.835 120.494 343.588 121.748 342.58C123.002 341.572 124.444 340.825 125.99 340.381C127.409 339.939 129.057 339.76 130.288 340.584C130.843 341.004 131.276 341.565 131.54 342.209C131.804 342.853 131.891 343.556 131.791 344.245C131.568 345.625 130.982 346.921 130.093 347.999C127.264 351.83 123.833 355.015 119.051 355.405" fill="#00ACA5"/>
<path d="M119.757 373.35C119.631 372.989 119.542 372.616 119.493 372.237C119.34 371.439 119.137 370.411 118.89 369.18C118.128 365.808 117.916 362.334 118.262 358.894C118.662 355.438 119.979 352.151 122.075 349.373C122.716 348.543 123.454 347.793 124.275 347.14C124.498 346.963 124.73 346.798 124.971 346.647C125.048 346.583 125.134 346.532 125.226 346.494C124.152 347.412 123.17 348.433 122.296 349.543C120.31 352.323 119.06 355.561 118.661 358.954C118.117 362.912 118.788 366.538 119.179 369.146C119.383 370.445 119.553 371.499 119.646 372.229C119.713 372.599 119.75 372.974 119.757 373.35Z" fill="#263238"/>
<path d="M102.336 328.549C102.433 328.683 102.513 328.828 102.574 328.982C102.727 329.322 102.93 329.746 103.168 330.281C103.686 331.411 104.408 333.05 105.283 335.08C107.033 339.149 109.377 344.805 111.823 351.107C114.269 357.409 116.35 363.159 117.768 367.346C118.499 369.436 119.068 371.134 119.467 372.315C119.645 372.876 119.781 373.326 119.892 373.674C119.952 373.83 119.995 373.992 120.019 374.158C119.933 374.014 119.864 373.86 119.815 373.699C119.688 373.36 119.526 372.918 119.314 372.366L117.522 367.44C116.002 363.287 113.878 357.545 111.441 351.252C109.003 344.958 106.693 339.284 105.011 335.191C104.162 333.178 103.508 331.538 103.024 330.341C102.803 329.797 102.625 329.364 102.489 329.016C102.425 328.865 102.374 328.709 102.336 328.549Z" fill="#263238"/>
<path d="M112.851 361.477C111.104 358.567 108.688 356.115 105.806 354.324C102.923 352.532 99.6549 351.453 96.2722 351.174C94.5735 351.055 92.4842 351.344 91.7198 352.873C90.9554 354.402 91.9746 356.27 93.1467 357.51C95.637 360.115 98.8428 361.925 102.36 362.711C105.877 363.497 109.548 363.224 112.911 361.927" fill="#00ACA5"/>
<path d="M98.8887 355.779C99.2488 355.761 99.6098 355.775 99.9674 355.821C100.386 355.844 100.803 355.892 101.216 355.966C101.7 356.059 102.269 356.11 102.864 356.28C103.528 356.421 104.183 356.602 104.826 356.824C105.57 357.063 106.298 357.346 107.008 357.673C108.641 358.404 110.186 359.319 111.612 360.399C113.021 361.505 114.298 362.771 115.417 364.17C115.9 364.78 116.345 365.418 116.75 366.081C117.116 366.654 117.451 367.247 117.752 367.856C118.008 368.353 118.234 368.863 118.432 369.385C118.602 369.772 118.747 370.169 118.865 370.574C118.991 370.913 119.085 371.263 119.145 371.619C119.052 371.619 118.644 370.158 117.498 367.984C117.185 367.4 116.842 366.833 116.47 366.285C116.056 365.642 115.608 365.021 115.128 364.425C112.906 361.68 110.073 359.493 106.855 358.038C106.117 357.715 105.412 357.41 104.724 357.189C104.092 356.959 103.448 356.763 102.796 356.603C100.418 355.949 98.8802 355.872 98.8887 355.779Z" fill="#263238"/>
<path d="M484.426 89.5869C481.929 90.156 480.714 93.0352 480.476 95.5832C480.239 98.1312 480.561 100.832 479.491 103.159C478.285 105.775 475.406 107.712 475.312 110.591C475.253 112.349 476.298 113.988 476.247 115.763C476.162 118.651 473.223 120.859 473.062 123.713C472.951 125.794 474.336 127.781 474.004 129.837C473.75 131.434 472.501 132.691 471.975 134.219C470.93 137.277 473.028 140.632 475.754 142.348C477.281 143.308 479 143.923 480.79 144.15C482.58 144.377 484.398 144.211 486.116 143.662C487.835 143.114 489.414 142.197 490.741 140.975C492.069 139.753 493.113 138.256 493.802 136.589C495.314 132.92 494.983 128.784 494.652 124.834C493.633 112.513 492.874 100.175 492.375 87.8203" fill="#263238"/>
<path d="M477.173 133.056C477.687 132.737 478.088 132.265 478.319 131.706C478.564 131.041 478.663 130.331 478.608 129.625C478.515 128.688 478.307 127.767 477.988 126.881C477.582 125.768 477.431 124.578 477.547 123.399C477.759 122.074 478.71 120.987 479.568 119.917C480.03 119.393 480.416 118.807 480.715 118.176C481.014 117.537 481.062 116.81 480.85 116.137C480.409 114.753 479.05 113.734 478.43 112.129C478.138 111.334 478.091 110.47 478.294 109.648C478.487 108.878 478.772 108.134 479.143 107.432C479.86 106.167 480.43 104.825 480.842 103.431C481.437 100.739 481.156 98.1655 481.564 96.0506C481.79 94.3568 482.542 92.7766 483.713 91.5322C484.044 91.197 484.422 90.911 484.834 90.6829C484.976 90.6088 485.127 90.5545 485.284 90.5215C484.752 90.8145 484.263 91.1804 483.832 91.6086C482.747 92.8655 482.063 94.4186 481.87 96.0676C481.721 97.1941 481.641 98.3287 481.632 99.465C481.629 100.802 481.498 102.136 481.241 103.448C480.836 104.874 480.266 106.248 479.542 107.542C478.905 108.876 478.319 110.438 478.88 111.899C479.441 113.36 480.791 114.371 481.309 115.934C481.543 116.706 481.486 117.537 481.148 118.269C480.817 118.964 480.388 119.608 479.874 120.18C479.024 121.25 478.099 122.27 477.895 123.459C477.776 124.586 477.909 125.727 478.285 126.797C478.589 127.709 478.777 128.657 478.846 129.616C478.888 130.355 478.757 131.094 478.464 131.774C478.281 132.2 477.988 132.569 477.615 132.844C477.482 132.941 477.332 133.013 477.173 133.056Z" fill="#455A64"/>
<path d="M470.531 153.193L462.887 175.276L430.918 176.975L425.584 188.865L458.963 192.263C460.54 192.91 462.232 193.231 463.936 193.206C465.641 193.182 467.323 192.811 468.88 192.118C470.438 191.425 471.839 190.424 472.998 189.174C474.158 187.925 475.052 186.453 475.627 184.848L484.536 159.98L470.531 153.193Z" fill="#B78876"/>
<path d="M536.617 361.56C536.617 361.56 513.193 287.141 512.692 284.729C512.241 282.538 521.185 228.988 522.323 215.084L490.668 216.265V216.579L477.215 217.326L489.258 369.459H503.824L502.381 318.966C511.367 343.078 524.242 367.658 524.242 367.658L536.617 361.56Z" fill="#B78876"/>
<path d="M502.975 337.083C502.975 336.624 502.797 320.164 502.797 320.164C502.618 321.149 497.217 305.878 497.344 304.953C497.412 304.468 502.975 337.083 502.975 337.083Z" fill="#A36957"/>
<path d="M496.732 297.715C496.657 298.017 496.626 298.329 496.639 298.641C496.592 299.489 496.592 300.34 496.639 301.189C496.639 301.724 496.715 302.301 496.783 302.93C496.851 303.558 496.945 304.221 497.089 304.909C497.391 306.411 497.791 307.892 498.286 309.342C499.34 312.425 500.512 315.118 501.336 317.071C501.726 317.92 502.066 318.727 502.355 319.373C502.459 319.673 502.602 319.959 502.779 320.222C502.734 319.929 502.648 319.643 502.525 319.373C502.329 318.812 502.032 318.005 501.675 317.012C500.928 315.024 499.807 312.306 498.762 309.257C498.268 307.828 497.862 306.37 497.548 304.892C497.395 304.212 497.293 303.558 497.199 302.947C497.106 302.335 497.038 301.758 496.995 301.248C496.894 300.195 496.851 299.346 496.826 298.751C496.842 298.403 496.81 298.054 496.732 297.715Z" fill="#A36957"/>
<path d="M488.986 370.232V368.865L503.909 368.211L503.952 373.859L503.034 373.918C498.932 374.156 482.183 374.853 479.448 374.029C476.382 373.112 488.986 370.232 488.986 370.232Z" fill="#455A64"/>
<path d="M504.147 373.518C504.062 373.523 503.977 373.523 503.893 373.518L503.162 373.569L500.461 373.687C498.185 373.781 495.034 373.866 491.56 373.883C488.086 373.9 484.927 373.84 482.642 373.772L479.95 373.662H479.211H478.956C479.041 373.655 479.126 373.655 479.211 373.662H479.95L482.651 373.713C484.927 373.713 488.078 373.781 491.552 373.764C495.025 373.747 498.185 373.687 500.461 373.628L503.162 373.56H504.147V373.518Z" fill="#263238"/>
<path d="M484.12 373.994C483.996 373.549 483.825 373.12 483.61 372.711C483.342 372.335 483.031 371.99 482.685 371.684C483.148 371.849 483.533 372.183 483.763 372.618C484.044 373.019 484.171 373.507 484.12 373.994Z" fill="#263238"/>
<path d="M488.52 371.761C488.52 371.761 488.273 371.531 488.052 371.192C487.832 370.852 487.696 370.555 487.738 370.529C487.781 370.504 487.985 370.75 488.205 371.09C488.426 371.429 488.562 371.735 488.52 371.761Z" fill="#263238"/>
<path d="M489.725 371.159C489.725 371.201 489.454 371.04 489.199 370.81C488.944 370.581 488.757 370.369 488.791 370.335C488.825 370.301 489.063 370.454 489.318 370.683C489.572 370.912 489.759 371.082 489.725 371.159Z" fill="#263238"/>
<path d="M490.482 369.713C490.232 369.805 489.965 369.84 489.701 369.815C489.441 369.85 489.176 369.823 488.928 369.739C489.175 369.648 489.439 369.613 489.701 369.637C489.964 369.601 490.231 369.627 490.482 369.713Z" fill="#263238"/>
<path d="M490.737 368.729C490.484 368.893 490.189 368.982 489.887 368.984C489.599 369.022 489.305 368.981 489.038 368.865C489.319 368.818 489.603 368.795 489.887 368.797C490.168 368.747 490.452 368.724 490.737 368.729Z" fill="#263238"/>
<path d="M488.019 370.461C487.702 370.521 487.376 370.521 487.059 370.461C486.716 370.42 486.378 370.346 486.048 370.24C485.845 370.184 485.648 370.104 485.462 370.003C485.349 369.936 485.265 369.83 485.225 369.705C485.209 369.634 485.214 369.561 485.24 369.493C485.266 369.425 485.31 369.366 485.369 369.323C485.604 369.209 485.862 369.149 486.123 369.147C486.384 369.144 486.643 369.2 486.88 369.31C487.118 369.419 487.328 369.58 487.495 369.781C487.663 369.981 487.783 370.217 487.849 370.47C487.866 370.554 487.866 370.64 487.849 370.725C487.753 370.418 487.603 370.13 487.407 369.875C487.181 369.621 486.886 369.438 486.558 369.349C486.182 369.227 485.774 369.258 485.42 369.434C485.276 369.544 485.335 369.722 485.496 369.824C485.67 369.918 485.852 369.995 486.04 370.054C486.359 370.159 486.686 370.241 487.017 370.3C487.654 370.436 488.019 370.436 488.019 370.461Z" fill="#263238"/>
<path d="M487.773 370.514C487.649 370.317 487.606 370.079 487.654 369.851C487.685 369.601 487.775 369.363 487.917 369.155C487.997 369.013 488.111 368.893 488.249 368.807C488.387 368.721 488.544 368.671 488.707 368.662C488.803 368.685 488.887 368.743 488.942 368.824C488.998 368.906 489.02 369.006 489.004 369.104C488.983 369.256 488.928 369.401 488.843 369.528C488.714 369.739 488.563 369.936 488.393 370.114C488.245 370.284 488.058 370.415 487.849 370.497C487.849 370.497 488.036 370.327 488.299 370.021C488.452 369.846 488.586 369.655 488.698 369.452C488.826 369.248 488.919 368.883 488.698 368.84C488.478 368.798 488.223 369.061 488.078 369.248C487.943 369.432 487.851 369.644 487.807 369.868C487.772 370.081 487.761 370.298 487.773 370.514Z" fill="#263238"/>
<path d="M503.833 369.459C503.833 369.459 503.409 369.459 502.738 369.502C501.864 369.606 501.037 369.954 500.351 370.505C499.665 371.056 499.147 371.788 498.856 372.619C498.635 373.256 498.618 373.689 498.584 373.68C498.55 373.672 498.584 373.57 498.584 373.383C498.606 373.11 498.657 372.839 498.737 372.576C499.008 371.707 499.527 370.936 500.232 370.36C500.946 369.794 501.812 369.454 502.721 369.383C503.003 369.349 503.288 369.349 503.57 369.383C503.661 369.397 503.749 369.423 503.833 369.459Z" fill="#263238"/>
<path d="M496.691 372.33C495.978 372.496 495.247 372.567 494.516 372.542C493.789 372.579 493.061 372.516 492.351 372.355C492.351 372.305 493.319 372.355 494.516 372.355C495.714 372.355 496.682 372.279 496.691 372.33Z" fill="#263238"/>
<path d="M499.595 372.305C499.595 372.305 499.518 372.509 499.416 372.73C499.314 372.95 499.264 373.154 499.213 373.146C499.162 373.137 499.136 372.916 499.255 372.653C499.374 372.39 499.561 372.262 499.595 372.305Z" fill="#263238"/>
<path d="M500.691 370.938C500.691 370.938 500.632 371.125 500.479 371.278C500.326 371.431 500.173 371.532 500.131 371.499C500.088 371.465 500.19 371.312 500.343 371.15C500.496 370.989 500.649 370.895 500.691 370.938Z" fill="#263238"/>
<path d="M502.253 370.309C502.253 370.36 502.049 370.36 501.828 370.436C501.608 370.513 501.455 370.632 501.412 370.598C501.37 370.564 501.497 370.36 501.769 370.266C502.041 370.173 502.27 370.258 502.253 370.309Z" fill="#263238"/>
<path d="M503.367 370.003C503.367 370.054 503.307 370.13 503.18 370.172C503.052 370.215 502.942 370.223 502.925 370.172C502.908 370.121 502.993 370.045 503.112 370.003C503.231 369.96 503.35 369.96 503.367 370.003Z" fill="#263238"/>
<path d="M523.946 368.917L523.385 367.668L536.728 360.967L539.081 366.063L538.232 366.496C534.588 368.39 519.597 375.881 516.76 376.255C513.626 376.705 523.946 368.917 523.946 368.917Z" fill="#455A64"/>
<path d="M539.131 365.697L538.91 365.833L538.256 366.173L535.844 367.396C533.806 368.407 530.969 369.774 527.801 371.218C524.633 372.662 521.728 373.893 519.622 374.768L517.116 375.779L516.437 376.042C516.358 376.078 516.276 376.104 516.19 376.119L516.42 376.008L517.091 375.711L519.571 374.649C521.669 373.749 524.556 372.492 527.724 371.048C530.892 369.604 533.738 368.262 535.793 367.277L538.222 366.113L538.893 365.799L539.131 365.697Z" fill="#263238"/>
<path d="M521.083 374.334C520.789 373.975 520.456 373.65 520.09 373.365C519.691 373.13 519.267 372.941 518.824 372.805C519.312 372.798 519.79 372.941 520.194 373.215C520.598 373.488 520.908 373.879 521.083 374.334Z" fill="#263238"/>
<path d="M524.149 370.495C524.149 370.495 523.826 370.393 523.486 370.172C523.146 369.952 522.9 369.739 522.926 369.697C522.951 369.654 523.248 369.799 523.588 370.02C523.928 370.24 524.174 370.453 524.149 370.495Z" fill="#263238"/>
<path d="M524.982 369.458C524.982 369.501 524.693 369.458 524.362 369.356C524.031 369.254 523.785 369.127 523.793 369.076C524.008 369.056 524.224 369.091 524.422 369.178C524.744 369.254 524.999 369.373 524.982 369.458Z" fill="#263238"/>
<path d="M525.1 367.828C525.1 367.879 524.82 368.057 524.429 368.244C524.204 368.38 523.952 368.464 523.69 368.491C523.69 368.44 523.971 368.261 524.353 368.074C524.581 367.94 524.836 367.856 525.1 367.828Z" fill="#263238"/>
<path d="M524.931 366.827C524.931 366.827 524.685 367.167 524.243 367.413C523.993 367.583 523.696 367.672 523.394 367.668C523.637 367.504 523.896 367.365 524.166 367.252C524.583 367.023 524.888 366.785 524.931 366.827Z" fill="#263238"/>
<path d="M523.189 369.526C522.93 369.704 522.643 369.836 522.34 369.917C522.006 370.014 521.665 370.085 521.321 370.129C521.112 370.155 520.901 370.155 520.692 370.129C520.561 370.12 520.439 370.059 520.352 369.96C520.313 369.899 520.292 369.828 520.292 369.756C520.292 369.683 520.313 369.613 520.352 369.552C520.611 369.239 520.97 369.026 521.368 368.948C521.766 368.871 522.179 368.934 522.535 369.127C522.746 369.238 522.931 369.391 523.079 369.577C523.181 369.713 523.223 369.798 523.215 369.807C523.006 369.573 522.755 369.38 522.476 369.238C522.177 369.097 521.843 369.047 521.516 369.093C521.321 369.113 521.133 369.172 520.961 369.265C520.789 369.358 520.637 369.485 520.514 369.637C520.42 369.798 520.514 369.934 520.743 369.96C520.938 369.976 521.134 369.976 521.329 369.96C521.667 369.926 522.002 369.866 522.331 369.781C522.816 369.645 523.189 369.501 523.189 369.526Z" fill="#263238"/>
<path d="M522.951 369.671C522.762 369.537 522.629 369.337 522.578 369.111C522.503 368.872 522.485 368.619 522.527 368.372C522.541 368.209 522.597 368.052 522.689 367.917C522.782 367.782 522.907 367.672 523.053 367.599C523.266 367.531 523.758 367.964 523.792 368.126C523.826 368.287 523.546 368.202 523.529 368.338C523.501 368.579 523.444 368.816 523.359 369.043C523.297 369.261 523.18 369.46 523.019 369.62C523.019 369.62 523.121 369.391 523.24 369.009C523.301 368.783 523.344 368.553 523.367 368.321C523.367 368.083 523.367 367.718 523.096 367.777C522.824 367.837 522.747 368.168 522.688 368.406C522.636 368.627 522.636 368.856 522.688 369.077C522.758 369.282 522.846 369.481 522.951 369.671Z" fill="#263238"/>
<path d="M537.178 362.121C537.178 362.121 536.771 362.265 536.193 362.614C535.438 363.065 534.823 363.718 534.418 364.499C534.025 365.288 533.858 366.17 533.934 367.047C533.985 367.727 534.146 368.117 534.112 368.134C534.057 368.05 534.015 367.959 533.985 367.863C533.901 367.603 533.841 367.335 533.807 367.064C533.685 366.16 533.842 365.24 534.256 364.426C534.67 363.613 535.322 362.945 536.125 362.512C536.366 362.379 536.619 362.271 536.881 362.189C536.976 362.152 537.077 362.129 537.178 362.121Z" fill="#263238"/>
<path d="M531.836 367.674C530.639 368.507 529.301 369.117 527.887 369.475C527.887 369.424 528.778 369.084 529.866 368.625C530.953 368.167 531.811 367.632 531.836 367.674Z" fill="#263238"/>
<path d="M534.477 366.461C534.52 366.461 534.477 366.673 534.477 366.92C534.477 367.166 534.477 367.37 534.477 367.387C534.477 367.404 534.308 367.2 534.308 366.92C534.308 366.64 534.435 366.436 534.477 366.461Z" fill="#263238"/>
<path d="M534.91 364.763C534.953 364.763 534.91 364.958 534.859 365.162C534.808 365.366 534.681 365.519 534.638 365.502C534.596 365.485 534.638 365.307 534.689 365.103C534.74 364.899 534.859 364.746 534.91 364.763Z" fill="#263238"/>
<path d="M536.082 363.514C536.082 363.565 535.913 363.641 535.743 363.802C535.573 363.964 535.479 364.134 535.437 364.117C535.395 364.1 535.437 363.862 535.624 363.667C535.811 363.471 536.074 363.514 536.082 363.514Z" fill="#263238"/>
<path d="M536.975 362.817C536.975 362.817 536.975 362.953 536.873 363.047C536.771 363.14 536.678 363.191 536.644 363.157C536.61 363.123 536.644 363.021 536.746 362.928C536.847 362.834 536.941 362.783 536.975 362.817Z" fill="#263238"/>
<path d="M520.268 189.943L517.788 159.622L530.528 159.851C530.528 159.851 531.114 155.375 529.237 145.574C528.082 139.561 524.082 135.875 519.589 133.683V133.598L519.198 133.496C515.5 131.836 511.55 130.805 507.511 130.447L491.841 130.626C491.841 130.626 479.874 129.097 473.275 137.667C470.727 140.954 462.819 163.452 462.819 163.452L481.632 172.506L479.874 160.03C479.874 160.03 480.231 169.075 481.386 171.92C482.023 173.517 483.934 178.477 483.934 178.477L483.687 193.442L520.268 189.943Z" fill="#407BFF"/>
<path d="M511.631 155.223L509.304 165.127H531.242L529.798 148.514L511.631 155.223Z" fill="#407BFF"/>
<path d="M531.242 165.125C530.283 164.949 529.311 164.852 528.337 164.837C526.536 164.735 524.09 164.641 521.304 164.658C518.519 164.675 516.064 164.794 514.263 164.93C513.289 164.964 512.32 165.083 511.367 165.287C512.34 165.364 513.317 165.364 514.289 165.287C516.081 165.227 518.536 165.159 521.304 165.151C524.073 165.142 526.528 165.151 528.328 165.193C529.3 165.248 530.274 165.225 531.242 165.125Z" fill="#263238"/>
<path d="M510.679 148.438C510.575 149.283 510.552 150.136 510.611 150.986C510.611 152.54 510.679 154.68 510.773 157.05C510.866 159.419 510.977 161.568 511.078 163.114C511.083 163.97 511.174 164.824 511.35 165.662C511.455 164.817 511.477 163.964 511.418 163.114C511.418 161.56 511.35 159.411 511.257 157.041C511.163 154.672 511.053 152.531 510.951 150.977C510.948 150.123 510.856 149.272 510.679 148.438Z" fill="#263238"/>
<g opacity="0.3">
<path d="M490.72 157.016C490.72 157.016 495.595 193.172 509.303 192.212C509.303 192.212 515.478 192.144 517.457 188.042V186.428L490.72 157.016Z" fill="black"/>
</g>
<g opacity="0.3">
<path d="M510.679 150.568L508.055 168.294L509.753 171.403L512.556 165.321L511.367 165.287L510.679 150.568Z" fill="black"/>
</g>
<path d="M483.857 178.495C483.694 178.231 483.568 177.945 483.483 177.646C483.271 177.094 482.991 176.287 482.634 175.276C481.783 172.643 481.083 169.963 480.536 167.25C479.991 164.536 479.645 161.785 479.5 159.02C479.449 157.958 479.432 157.1 479.449 156.472C479.427 156.165 479.447 155.856 479.508 155.555C479.576 155.555 479.627 156.863 479.806 158.952C480.045 161.692 480.433 164.417 480.969 167.114C481.598 170.274 482.354 173.102 482.931 175.132C483.203 176.075 483.432 176.881 483.619 177.544C483.736 177.851 483.816 178.17 483.857 178.495Z" fill="#263238"/>
<path d="M489.395 188.882C489.276 188.882 488.937 188.143 488.639 187.183C488.383 186.595 488.27 185.955 488.308 185.314C488.683 185.833 488.941 186.427 489.064 187.056C489.308 187.632 489.421 188.256 489.395 188.882Z" fill="#263238"/>
<path d="M491.288 188.747C490.646 187.043 490.619 185.169 491.212 183.447C491.278 184.329 491.278 185.215 491.212 186.097C491.304 186.977 491.33 187.863 491.288 188.747Z" fill="#263238"/>
<path d="M482.014 172.924C481.955 173.026 477.58 170.954 472.238 168.287C466.896 165.62 462.607 163.361 462.658 163.25C462.709 163.14 467.091 165.221 472.434 167.888C477.776 170.555 482.065 172.814 482.014 172.924Z" fill="#263238"/>
<path d="M489.726 133.557C489.819 129.259 489.845 124.741 489.845 124.741C489.845 124.741 484.333 123.679 483.373 116.426C482.456 109.512 485.021 93.2817 485.021 93.2817C493.072 90.2411 501.438 93.0014 506.95 99.5243L505.583 134.406C505.422 138.458 501.812 141.549 497.48 141.345C493.098 141.133 489.633 137.651 489.726 133.557Z" fill="#B78876"/>
<path d="M484.596 106.251C484.589 106.489 484.672 106.721 484.83 106.899C484.988 107.078 485.208 107.189 485.445 107.211C485.566 107.222 485.688 107.209 485.803 107.172C485.918 107.135 486.025 107.075 486.116 106.996C486.208 106.916 486.282 106.819 486.335 106.71C486.387 106.601 486.417 106.482 486.422 106.361C486.43 106.124 486.346 105.893 486.187 105.716C486.029 105.539 485.809 105.429 485.573 105.41C485.452 105.392 485.328 105.4 485.211 105.433C485.093 105.467 484.984 105.526 484.891 105.606C484.799 105.686 484.724 105.785 484.673 105.896C484.622 106.007 484.596 106.128 484.596 106.251Z" fill="#263238"/>
<path d="M484.256 105.037C484.366 105.156 485.105 104.655 486.082 104.689C487.058 104.723 487.78 105.232 487.899 105.113C488.018 104.994 487.848 104.842 487.534 104.595C487.109 104.287 486.598 104.118 486.073 104.111C485.556 104.091 485.046 104.24 484.621 104.536C484.307 104.765 484.196 104.977 484.256 105.037Z" fill="#263238"/>
<path d="M494.711 106.878C494.701 107.116 494.784 107.35 494.942 107.528C495.101 107.707 495.322 107.818 495.56 107.838C495.682 107.856 495.806 107.848 495.924 107.813C496.043 107.779 496.152 107.72 496.245 107.639C496.338 107.558 496.412 107.458 496.462 107.346C496.513 107.233 496.538 107.111 496.537 106.988C496.546 106.75 496.463 106.518 496.304 106.341C496.146 106.163 495.925 106.054 495.687 106.037C495.566 106.019 495.443 106.027 495.325 106.06C495.208 106.094 495.099 106.153 495.006 106.233C494.913 106.313 494.839 106.412 494.788 106.523C494.737 106.634 494.711 106.755 494.711 106.878Z" fill="#263238"/>
<path d="M494.644 105.665C494.754 105.793 495.493 105.291 496.47 105.317C497.447 105.342 498.168 105.861 498.296 105.742C498.423 105.623 498.236 105.47 497.922 105.232C497.504 104.916 496.994 104.743 496.47 104.739C495.95 104.724 495.439 104.872 495.009 105.164C494.703 105.393 494.593 105.606 494.644 105.665Z" fill="#263238"/>
<path d="M490.839 112.961C490.317 112.782 489.775 112.671 489.225 112.63C488.97 112.63 488.732 112.537 488.698 112.367C488.678 112.101 488.743 111.836 488.885 111.611L489.683 109.7C490.426 108.076 491.037 106.394 491.51 104.672C490.64 106.232 489.896 107.86 489.284 109.539C489.021 110.21 488.758 110.855 488.511 111.467C488.347 111.77 488.292 112.121 488.358 112.46C488.392 112.552 488.446 112.635 488.517 112.703C488.587 112.771 488.673 112.822 488.766 112.851C488.907 112.892 489.053 112.915 489.199 112.919C489.742 113.002 490.293 113.017 490.839 112.961Z" fill="#263238"/>
<path d="M489.845 124.74C493.243 124.876 496.612 124.068 499.578 122.404C499.578 122.404 497.107 127.305 489.896 126.447L489.845 124.74Z" fill="#A36957"/>
<path d="M497.838 102.77C497.634 103.084 496.869 102.948 496.02 102.77C495.171 102.591 494.423 102.447 494.321 102.082C494.22 101.716 495.111 101.232 496.249 101.462C497.388 101.691 498.042 102.498 497.838 102.77Z" fill="#263238"/>
<path d="M487.926 101.324C487.849 101.689 487.034 101.825 486.1 101.868C485.165 101.91 484.341 101.868 484.231 101.494C484.121 101.12 484.91 100.594 486.04 100.543C487.17 100.492 488.002 100.976 487.926 101.324Z" fill="#263238"/>
<path d="M490.856 115.347C490.748 115.322 490.636 115.333 490.536 115.379C490.436 115.425 490.354 115.504 490.304 115.602C490.255 115.688 490.23 115.786 490.231 115.885C490.233 115.984 490.259 116.082 490.31 116.167C490.36 116.253 490.432 116.324 490.518 116.373C490.604 116.422 490.701 116.448 490.8 116.448C490.9 116.448 490.997 116.422 491.083 116.373C491.169 116.324 491.241 116.253 491.291 116.167C491.341 116.082 491.368 115.984 491.37 115.885C491.371 115.786 491.346 115.688 491.297 115.602C491.236 115.488 491.138 115.398 491.02 115.347C490.901 115.296 490.768 115.287 490.643 115.321" fill="#A36957"/>
<path d="M491.085 115.449C491.085 115.406 490.923 115.16 490.49 115.253C490.361 115.287 490.242 115.354 490.147 115.448C490.051 115.542 489.982 115.66 489.947 115.788C489.901 115.951 489.905 116.124 489.958 116.284C490.011 116.444 490.11 116.585 490.244 116.689C490.385 116.786 490.552 116.837 490.724 116.837C490.895 116.837 491.062 116.786 491.204 116.689C491.317 116.613 491.405 116.506 491.459 116.381C491.514 116.256 491.531 116.118 491.509 115.984C491.424 115.534 491.093 115.466 491.076 115.525C491.059 115.585 491.195 115.738 491.17 116.001C491.164 116.066 491.142 116.129 491.107 116.183C491.071 116.238 491.023 116.283 490.966 116.315C490.9 116.353 490.825 116.373 490.749 116.373C490.673 116.373 490.598 116.353 490.533 116.315C490.473 116.265 490.428 116.2 490.401 116.127C490.375 116.054 490.367 115.976 490.38 115.899C490.389 115.832 490.415 115.768 490.455 115.713C490.495 115.659 490.548 115.614 490.609 115.585C490.847 115.44 491.059 115.508 491.085 115.449Z" fill="#263238"/>
<path d="M503.655 108.043C502.806 110.031 500.699 111.568 500.988 113.717C501.175 115.101 502.067 116.392 501.897 117.785C501.676 119.484 499.867 120.741 499.604 122.482C499.289 124.614 501.37 126.27 502.194 128.258C503.409 131.162 501.863 134.424 501.82 137.6C501.87 140.012 502.793 142.324 504.417 144.107C506.041 145.891 508.257 147.025 510.653 147.3C512.59 147.461 514.773 146.875 515.749 145.21C516.599 143.834 516.412 142.085 516.904 140.564C517.652 138.288 519.818 136.623 520.302 134.279C521.151 130.033 515.97 126.465 516.31 122.117C516.454 120.257 517.601 118.643 518.085 116.843C518.393 115.659 518.417 114.42 518.154 113.225C517.892 112.031 517.35 110.916 516.573 109.971C515.291 108.451 513.439 107.423 512.327 105.793C511.095 103.916 511.053 101.546 510.628 99.3292C510.058 96.6348 508.814 94.129 507.012 92.0459C505.21 89.9628 502.91 88.3705 500.326 87.4178C497.742 86.4651 494.958 86.1831 492.236 86.5982C489.513 87.0132 486.94 88.1118 484.757 89.7912C484.757 89.7912 483.526 95.3883 489.276 96.3311C495.026 97.2739 497.684 96.1867 498.33 98.4884C498.177 99.4366 498.252 100.407 498.547 101.321C498.843 102.235 499.35 103.066 500.028 103.746C502.372 106.277 504.606 105.733 503.655 108.043Z" fill="#263238"/>
<path d="M512.786 146.867C512.609 146.873 512.432 146.856 512.259 146.816C511.761 146.728 511.272 146.594 510.798 146.417C509.044 145.744 507.506 144.608 506.348 143.13C505.535 142.11 504.898 140.962 504.462 139.732C503.966 138.333 503.705 136.86 503.689 135.375C503.672 133.739 503.877 132.107 504.301 130.526C504.532 129.691 504.816 128.871 505.15 128.071C505.501 127.275 505.81 126.462 506.076 125.634C506.31 124.818 506.31 123.952 506.076 123.136C505.827 122.333 505.506 121.554 505.116 120.809C504.722 120.071 504.39 119.301 504.122 118.508C503.861 117.723 503.8 116.885 503.944 116.07C504.284 114.473 505.252 113.284 505.83 112.07C506.38 110.945 506.642 109.702 506.594 108.452C506.517 106.621 505.853 104.864 504.7 103.44C504.254 102.942 503.774 102.474 503.265 102.039C503.86 102.374 504.392 102.811 504.836 103.33C506.073 104.752 506.802 106.545 506.908 108.426C506.979 109.731 506.722 111.033 506.161 112.214C505.575 113.471 504.632 114.669 504.343 116.129C504.055 117.59 504.742 119.128 505.498 120.605C505.911 121.372 506.246 122.177 506.501 123.009C506.751 123.898 506.751 124.838 506.501 125.727C506.218 126.584 505.892 127.426 505.524 128.249C505.19 129.032 504.906 129.835 504.675 130.653C504.253 132.194 504.044 133.786 504.055 135.384C504.028 138.105 504.907 140.758 506.552 142.926C507.652 144.386 509.116 145.531 510.798 146.247C512.064 146.739 512.794 146.816 512.786 146.867Z" fill="#455A64"/>
<path d="M511.936 104.008C511.522 104.116 511.098 104.178 510.67 104.195C509.505 104.32 508.328 104.289 507.171 104.102C506.294 103.972 505.452 103.669 504.693 103.209C503.935 102.75 503.276 102.144 502.755 101.427C502.269 100.519 501.882 99.5625 501.6 98.5728C501.237 97.5842 500.556 96.7445 499.663 96.1861C497.803 95.0056 495.62 94.8612 493.718 94.6318C491.963 94.5444 490.259 94.0125 488.766 93.0861C487.766 92.4235 487.044 91.4172 486.736 90.2578C486.662 89.9436 486.642 89.619 486.677 89.298C486.677 89.0772 486.728 88.9668 486.745 88.9668C486.755 89.3875 486.809 89.8059 486.906 90.2153C487.258 91.2994 487.979 92.2254 488.944 92.8313C490.41 93.6863 492.064 94.1649 493.76 94.2242C495.663 94.445 497.922 94.5554 499.909 95.8124C500.882 96.4232 501.623 97.3407 502.016 98.4199C502.282 99.3845 502.649 100.318 503.111 101.206C504.1 102.563 505.583 103.478 507.239 103.754C508.359 103.962 509.499 104.039 510.636 103.983C511.07 103.959 511.504 103.967 511.936 104.008Z" fill="#455A64"/>
<path d="M509.83 97.0954C509.51 97.2024 509.173 97.2513 508.836 97.2397C507.253 97.2504 505.728 96.6406 504.589 95.5411C504.07 95.0201 503.626 94.4282 503.273 93.783C502.508 92.492 501.769 90.9037 500.181 90.2412C498.651 89.7279 497.021 89.5852 495.425 89.8251C494.078 90.0142 492.712 90.0142 491.365 89.8251C490.428 89.6951 489.546 89.3069 488.817 88.7039C488.629 88.5397 488.463 88.3512 488.324 88.1434C488.222 87.9962 488.18 87.9197 488.197 87.9141C488.197 87.9141 488.435 88.1858 488.927 88.568C489.654 89.0846 490.497 89.4116 491.382 89.5193C492.704 89.6684 494.04 89.6456 495.357 89.4514C497.023 89.1793 498.73 89.3252 500.326 89.876C501.146 90.2446 501.848 90.8324 502.355 91.5747C502.803 92.2368 503.214 92.923 503.587 93.6301C503.922 94.2474 504.336 94.8184 504.818 95.3287C505.245 95.7603 505.735 96.124 506.271 96.4074C507.061 96.8199 507.929 97.0602 508.819 97.1123C509.473 97.1038 509.821 97.0529 509.83 97.0954Z" fill="#455A64"/>
<path d="M515.317 145.032C515.274 145.032 515.546 144.471 515.86 143.418C516.286 141.94 516.475 140.403 516.421 138.866C516.359 136.59 515.738 134.364 514.612 132.385C513.992 131.273 513.049 130.279 512.276 129.056C511.867 128.433 511.579 127.738 511.427 127.009C511.293 126.241 511.357 125.452 511.614 124.716C512.089 123.246 512.939 122.015 513.125 120.664C513.312 119.314 512.667 118.116 512.021 116.987C511.688 116.437 511.385 115.87 511.112 115.288C510.864 114.724 510.701 114.125 510.628 113.513C510.548 112.434 510.583 111.349 510.73 110.277C511.002 108.762 510.861 107.201 510.323 105.759C510.082 105.253 509.741 104.802 509.32 104.434C509.32 104.434 509.363 104.434 509.422 104.485C509.523 104.535 509.615 104.6 509.694 104.68C510.026 104.957 510.296 105.301 510.484 105.691C511.098 107.145 511.29 108.744 511.036 110.302C510.919 111.355 510.905 112.416 510.994 113.471C511.203 114.657 511.673 115.783 512.369 116.766C512.732 117.34 513.042 117.945 513.295 118.575C513.563 119.255 513.651 119.992 513.55 120.715C513.346 122.202 512.471 123.459 512.03 124.843C511.798 125.511 511.737 126.226 511.851 126.924C512 127.599 512.27 128.241 512.65 128.818C513.372 129.999 514.348 131.009 514.968 132.173C516.106 134.218 516.714 136.516 516.735 138.857C516.762 140.424 516.521 141.984 516.022 143.469C515.886 143.871 515.721 144.263 515.529 144.641C515.477 144.781 515.406 144.912 515.317 145.032Z" fill="#455A64"/>
<path d="M480.724 303.287C480.724 303.287 474.999 249.066 474.668 229.03C474.337 208.994 483.679 189.221 483.679 189.221L520.268 187.701C520.268 187.701 527.505 208.026 527.632 216.579C527.887 233.174 523.224 249.558 523.759 262.723L524.982 303.321" fill="#263238"/>
<path d="M526.213 236.623C526.022 236.789 525.821 236.942 525.61 237.082L525.279 237.311L524.922 237.659C524.607 237.931 524.323 238.236 524.073 238.568C522.892 240.012 522.034 242.602 521.21 245.821C520.789 247.607 520.168 249.339 519.359 250.985C519.113 251.436 518.829 251.865 518.509 252.268C518.357 252.472 518.212 252.692 518.034 252.888L517.473 253.448C516.67 254.199 515.738 254.797 514.721 255.215C512.675 256.115 510.356 256.54 508.25 257.602C506.092 258.763 504.424 260.662 503.553 262.952C502.517 265.254 501.854 267.666 501.005 269.925C500.155 272.185 499.009 274.342 497.183 275.718C495.437 276.931 493.364 277.586 491.237 277.595C489.267 277.714 487.441 277.654 485.802 277.901C484.326 278.054 482.916 278.586 481.708 279.446C480.825 280.136 480.164 281.069 479.805 282.13C479.578 282.8 479.528 283.517 479.661 284.211C479.763 284.687 479.89 284.916 479.865 284.925C479.728 284.711 479.63 284.476 479.576 284.228C479.397 283.52 479.42 282.775 479.644 282.079C479.981 280.966 480.648 279.98 481.555 279.251C482.794 278.316 484.26 277.73 485.802 277.552C487.5 277.281 489.309 277.315 491.254 277.187C493.318 277.174 495.329 276.534 497.021 275.353C498.738 273.853 500.005 271.907 500.682 269.73C501.531 267.496 502.151 265.076 503.23 262.732C504.144 260.347 505.887 258.372 508.139 257.168C510.33 256.081 512.649 255.665 514.645 254.799C515.622 254.394 516.519 253.819 517.295 253.1L517.83 252.565C518 252.378 518.144 252.166 518.297 251.971C518.597 251.584 518.861 251.172 519.087 250.739C519.901 249.116 520.53 247.406 520.964 245.643C521.813 242.432 522.739 239.808 523.988 238.356C524.236 238.025 524.521 237.723 524.837 237.455C524.973 237.336 525.092 237.218 525.211 237.124L525.559 236.903C525.771 236.797 525.989 236.703 526.213 236.623Z" fill="#FAFAFA"/>
<path d="M526.435 211.535C526.474 211.774 526.491 212.015 526.486 212.257C526.483 212.958 526.397 213.657 526.231 214.338C525.499 216.822 524.063 219.041 522.095 220.725C520.796 221.919 519.372 222.97 517.848 223.859C516.209 224.827 514.4 225.753 512.54 226.806C510.586 227.854 508.766 229.134 507.121 230.62C505.433 232.295 504.043 234.245 503.01 236.387C501.968 238.558 500.779 240.655 499.451 242.663C498.776 243.599 497.995 244.454 497.124 245.211C496.265 245.942 495.321 246.566 494.313 247.071C492.488 247.968 490.587 248.698 488.631 249.254C486.813 249.815 485.115 250.316 483.637 250.953C482.296 251.486 481.019 252.17 479.832 252.991C478.939 253.611 478.135 254.351 477.445 255.191C476.867 255.919 476.385 256.718 476.01 257.569C476.07 257.334 476.15 257.104 476.248 256.881C476.526 256.239 476.883 255.635 477.309 255.08C477.987 254.205 478.788 253.433 479.687 252.787C480.88 251.937 482.165 251.225 483.518 250.664C485.154 249.997 486.824 249.416 488.52 248.923C490.448 248.354 492.324 247.621 494.126 246.732C495.082 246.233 495.979 245.629 496.801 244.931C497.639 244.185 498.392 243.347 499.044 242.434C500.354 240.435 501.531 238.353 502.568 236.2C503.634 234.01 505.071 232.022 506.815 230.322C508.49 228.815 510.344 227.52 512.336 226.466C514.204 225.422 516.013 224.513 517.653 223.553C519.172 222.694 520.596 221.674 521.899 220.513C523.851 218.879 525.299 216.727 526.078 214.304C526.296 213.397 526.416 212.468 526.435 211.535Z" fill="#FAFAFA"/>
<path d="M474.854 231.868C474.821 231.816 474.795 231.758 474.778 231.698C474.714 231.535 474.66 231.367 474.617 231.197C474.471 230.522 474.5 229.82 474.701 229.159C475.177 227.46 477.054 225.277 480.078 224.199C481.59 223.681 483.297 223.349 485.08 222.908C486.562 222.662 487.963 222.066 489.167 221.17C490.371 220.273 491.343 219.101 492.002 217.752C492.485 216.762 492.908 215.744 493.268 214.703C493.932 212.442 494.834 210.259 495.96 208.189C497.251 206.154 499.208 204.632 501.498 203.883C503.581 203.207 505.706 202.668 507.86 202.269C509.781 201.9 511.642 201.265 513.389 200.383C514.868 199.538 516.144 198.379 517.126 196.986C518.576 194.976 519.403 192.583 519.504 190.107C519.508 189.198 519.448 188.289 519.326 187.389C519.582 188.271 519.7 189.188 519.674 190.107C519.641 192.637 518.841 195.098 517.38 197.164C516.386 198.603 515.083 199.801 513.567 200.672C511.797 201.587 509.907 202.248 507.953 202.634C505.82 203.039 503.715 203.581 501.651 204.256C499.452 204.977 497.573 206.439 496.334 208.393C495.226 210.434 494.335 212.586 493.676 214.814C493.309 215.873 492.875 216.909 492.376 217.914C491.873 218.879 491.232 219.766 490.474 220.547C488.982 221.907 487.146 222.832 485.165 223.222C483.365 223.681 481.666 223.969 480.18 224.462C477.233 225.464 475.364 227.528 474.863 229.176C474.657 229.811 474.602 230.486 474.701 231.146C474.773 231.382 474.825 231.624 474.854 231.868Z" fill="#FAFAFA"/>
<path d="M523.292 277.73C523.326 277.907 523.346 278.086 523.351 278.266C523.367 278.78 523.313 279.294 523.19 279.794C522.656 281.636 521.527 283.249 519.979 284.381C518.946 285.204 517.802 285.879 516.582 286.385C515.282 286.937 513.847 287.379 512.335 287.846C510.766 288.305 509.23 288.872 507.74 289.545C506.192 290.284 504.804 291.32 503.655 292.594C502.415 293.885 501.345 295.303 500.156 296.56C499.018 297.778 497.697 298.809 496.24 299.618C493.761 300.971 490.987 301.694 488.163 301.724C486.272 301.745 484.391 301.431 482.608 300.798C482.125 300.632 481.653 300.43 481.199 300.195C481.033 300.127 480.876 300.038 480.731 299.932C480.903 299.979 481.07 300.039 481.233 300.11C481.699 300.31 482.175 300.486 482.659 300.637C484.439 301.195 486.299 301.456 488.163 301.41C490.925 301.338 493.629 300.601 496.045 299.261C497.456 298.462 498.737 297.451 499.841 296.263C501.005 295.023 502.067 293.613 503.332 292.288C504.549 290.967 506.016 289.899 507.647 289.146C509.159 288.47 510.717 287.903 512.31 287.447C513.804 286.988 515.231 286.598 516.556 286.037C517.741 285.552 518.856 284.909 519.869 284.126C521.391 283.051 522.525 281.514 523.105 279.743C523.23 279.08 523.292 278.406 523.292 277.73Z" fill="#FAFAFA"/>
<path d="M519.121 165.159L512.038 165.329C511.765 166.757 511.224 168.121 510.441 169.346C504.496 159.069 499.935 145.31 498.797 139.781C498.967 139.229 499.162 138.618 499.408 137.938C499.585 136.906 499.553 135.849 499.315 134.83C499.111 133.598 498.771 131.942 498.669 131.177C498.355 128.833 497.973 128.468 497.158 128.731C496.053 129.097 497.616 135.297 496.707 135.433C496.215 135.5 495.62 133.377 495.45 131.636C495.281 129.895 494.482 124.527 493.913 124.17C493.064 123.644 492.325 124.476 492.546 126.209C492.767 127.941 493.03 133.207 492.113 133.284C491.195 133.36 490.414 124.459 490.414 124.459C490.414 124.459 490.558 122.523 489.488 122.565C487.569 122.65 489.072 132.027 489.233 132.919C489.352 133.53 488.384 133.649 488.265 132.978C488.146 132.307 487.705 124.085 485.717 124.153C484.205 124.153 486.881 131.874 486.031 133.657C485.182 135.441 484.604 127.61 483.169 127.712C482.634 127.755 482.235 127.856 483.22 132.282C484.164 135.797 485.298 139.259 486.617 142.652C488.894 154.925 498.882 194.189 514.535 187.004C523.3 182.978 526.85 165.159 526.85 165.159H519.121Z" fill="#B78876"/>
<path d="M488.927 133.515C488.994 133.532 489.064 133.532 489.131 133.515C489.234 133.484 489.322 133.417 489.379 133.327C489.437 133.236 489.46 133.129 489.446 133.022C489.446 132.496 489.344 131.731 489.225 130.738C489.026 129.54 488.895 128.332 488.834 127.12C488.834 126.406 488.834 125.642 488.877 124.835C488.889 124.425 488.932 124.016 489.004 123.612C489.072 123.23 489.327 122.762 489.624 122.839H489.675C489.972 122.839 490.21 123.06 490.303 123.416C490.408 123.786 490.449 124.171 490.422 124.555C490.597 126.933 490.901 129.301 491.331 131.647C491.399 131.961 491.467 132.284 491.569 132.606C491.614 132.771 491.671 132.933 491.739 133.09C491.782 133.178 491.83 133.263 491.883 133.345C491.921 133.407 491.973 133.46 492.035 133.498C492.097 133.536 492.167 133.56 492.24 133.566C492.364 133.552 492.481 133.502 492.576 133.422C492.671 133.342 492.74 133.235 492.775 133.116C492.848 132.95 492.902 132.776 492.936 132.598C493.002 132.255 493.048 131.909 493.072 131.562C493.15 130.146 493.13 128.727 493.013 127.315C492.905 126.61 492.877 125.895 492.928 125.183C492.959 124.876 493.108 124.592 493.344 124.393C493.398 124.361 493.459 124.34 493.522 124.333C493.585 124.326 493.649 124.332 493.709 124.351C493.781 124.368 493.85 124.397 493.913 124.436C493.956 124.468 493.989 124.512 494.007 124.563C494.274 125.252 494.47 125.966 494.593 126.695C494.745 127.442 494.873 128.215 494.992 128.988C495.111 129.761 495.221 130.542 495.314 131.332C495.387 132.147 495.518 132.956 495.705 133.753C495.806 134.16 495.933 134.56 496.087 134.95C496.174 135.169 496.294 135.372 496.444 135.553C496.501 135.629 496.579 135.686 496.668 135.719C496.756 135.752 496.853 135.76 496.945 135.74C497.031 135.712 497.108 135.662 497.169 135.595C497.23 135.528 497.273 135.446 497.293 135.358C497.394 134.924 497.425 134.477 497.387 134.033C497.387 133.608 497.336 133.184 497.293 132.776C497.234 132.063 497.166 131.358 497.141 130.661C497.119 130.319 497.119 129.976 497.141 129.634C497.157 129.482 497.195 129.334 497.251 129.192C497.269 129.145 497.294 129.102 497.327 129.065H497.438C497.998 128.835 498.185 129.617 498.338 130.245C498.491 130.874 498.55 131.587 498.686 132.258C498.907 133.591 499.196 134.925 499.34 136.199C499.439 136.809 499.415 137.432 499.272 138.034C499.069 138.645 498.865 139.248 498.669 139.851V139.911V139.961C499.664 144.134 500.932 148.237 502.466 152.243C503.808 155.87 505.158 159.038 506.339 161.586C507.519 164.134 508.59 166.129 509.32 167.471L510.169 168.992C510.261 169.173 510.372 169.344 510.501 169.501C510.429 169.313 510.341 169.131 510.237 168.958L509.388 167.403C508.691 166.036 507.689 164.006 506.534 161.458C505.379 158.91 504.071 155.742 502.763 152.115C501.266 148.115 500.024 144.025 499.043 139.868V139.987C499.238 139.392 499.434 138.789 499.638 138.186C499.814 137.524 499.849 136.833 499.74 136.156C499.587 134.823 499.306 133.532 499.086 132.19C498.958 131.528 498.873 130.848 498.737 130.152C498.729 129.794 498.669 129.439 498.559 129.099C498.462 128.891 498.297 128.723 498.092 128.623C497.874 128.552 497.639 128.552 497.421 128.623H497.285C497.213 128.646 497.146 128.684 497.09 128.733C496.995 128.813 496.922 128.915 496.877 129.031C496.799 129.214 496.751 129.409 496.733 129.608C496.708 129.976 496.708 130.345 496.733 130.712C496.733 131.426 496.835 132.139 496.894 132.853C496.894 133.269 496.962 133.702 496.979 134.084C497.013 134.467 496.993 134.853 496.92 135.231C496.92 135.316 496.852 135.299 496.92 135.341L496.869 135.29C496.761 135.151 496.675 134.997 496.614 134.832C496.466 134.464 496.344 134.087 496.249 133.702C496.062 132.928 495.934 132.142 495.867 131.349C495.776 130.551 495.666 129.761 495.535 128.98C495.416 128.198 495.281 127.434 495.128 126.669C495 125.891 494.783 125.131 494.482 124.402C494.424 124.28 494.333 124.177 494.219 124.104C494.12 124.047 494.014 124.001 493.905 123.969C493.784 123.937 493.657 123.929 493.533 123.947C493.409 123.964 493.29 124.006 493.183 124.07C493.008 124.201 492.861 124.367 492.753 124.557C492.645 124.747 492.577 124.957 492.554 125.175C492.499 125.561 492.499 125.952 492.554 126.338C492.554 126.703 492.639 127.06 492.665 127.417C492.783 128.807 492.808 130.202 492.741 131.596C492.721 131.926 492.679 132.256 492.614 132.581C492.589 132.733 492.546 132.881 492.486 133.022C492.464 133.078 492.433 133.13 492.393 133.175C492.393 133.252 492.333 133.175 492.342 133.277C492.342 133.192 492.342 133.277 492.342 133.167C492.304 133.109 492.27 133.05 492.24 132.988C492.18 132.853 492.129 132.7 492.079 132.555C491.985 132.25 491.917 131.935 491.849 131.63C491.406 129.304 491.086 126.956 490.889 124.597C490.915 124.17 490.866 123.742 490.745 123.332C490.689 123.118 490.574 122.923 490.414 122.771C490.331 122.691 490.232 122.628 490.124 122.587C490.016 122.546 489.901 122.528 489.785 122.533H489.836C489.692 122.512 489.546 122.534 489.414 122.596C489.283 122.658 489.173 122.757 489.097 122.881C488.971 123.084 488.885 123.309 488.843 123.544C488.771 123.965 488.731 124.391 488.724 124.818C488.724 125.667 488.724 126.406 488.724 127.128C488.804 128.348 488.96 129.562 489.191 130.763C489.335 131.748 489.446 132.513 489.497 133.031C489.513 133.122 489.497 133.215 489.452 133.296C489.407 133.376 489.336 133.439 489.25 133.473C488.995 133.498 488.919 133.507 488.927 133.515Z" fill="#A36957"/>
<path d="M433.61 176.856C431.953 176.82 430.298 177.012 428.693 177.425C424.302 178.58 416.734 183.166 416.42 188.831H421.924C421.924 188.831 418.841 195.388 419.741 194.777C422.093 193.197 426.765 188.449 426.765 188.449L433.61 176.856Z" fill="#B78876"/>
<path d="M508.632 78.1379C508.505 78.1379 508.012 73.6025 507.52 67.9459C507.027 62.2893 506.721 57.7539 506.84 57.7539C506.959 57.7539 507.46 62.2893 507.953 67.9459C508.445 73.6025 508.751 78.1379 508.632 78.1379Z" fill="#263238"/>
<path d="M532.762 58.1022C532.856 58.1702 529.144 63.5634 524.464 70.1458C519.784 76.7281 515.903 82.0364 515.801 81.9345C515.699 81.8326 519.419 76.4733 524.099 69.891C528.779 63.3086 532.66 58.0343 532.762 58.1022Z" fill="#263238"/>
<path d="M542.784 82.5449C542.784 82.6638 538.469 83.6576 533.101 84.7617C527.733 85.8658 523.351 86.6642 523.325 86.5453C523.3 86.4264 527.631 85.4327 533.008 84.3285C538.384 83.2244 542.724 82.426 542.784 82.5449Z" fill="#263238"/>
<path d="M253.951 199.201L223.884 353.61L219.978 373.824L420.42 372.856C429.423 372.813 437.407 364.821 440.286 352.948L475.839 207.176C478.039 198.165 473.215 188.788 466.386 188.797L263.463 189.009C259.047 189.001 255.089 193.179 253.951 199.201Z" fill="#407BFF"/>
<g opacity="0.5">
<path d="M253.951 199.201L223.884 353.61L219.978 373.824L420.42 372.856C429.423 372.813 437.407 364.821 440.286 352.948L475.839 207.176C478.039 198.165 473.215 188.788 466.386 188.797L263.463 189.009C259.047 189.001 255.089 193.179 253.951 199.201Z" fill="black"/>
</g>
<path d="M401.217 343.129L379.984 172.065C379.134 165.058 373.537 159.826 366.938 159.852L320.395 159.996C318.665 160.016 316.957 160.387 315.376 161.088C313.794 161.789 312.372 162.804 311.196 164.073L289.114 187.574L159.675 188.27C151.768 188.313 145.687 195.804 146.731 204.212L166.444 362.316C167.294 369.314 172.891 374.538 179.473 374.529L405.099 374.079C430.222 374.597 432.625 367.182 432.625 367.182C403.782 373.561 401.217 343.172 401.217 343.129Z" fill="#407BFF"/>
<g opacity="0.5">
<path d="M303.926 308.92L296.316 317.091L237.712 264.364L245.322 256.193L303.926 308.92Z" fill="white"/>
<path d="M293.131 254.383L301.539 261.95L248.516 318.898L240.099 311.331L293.131 254.383Z" fill="white"/>
</g>
<path d="M433.431 88.144C433.156 88.0282 432.92 87.8365 432.75 87.5913C432.58 87.3461 432.484 87.0577 432.472 86.7596L432.132 78.8778C432.12 78.6329 432.165 78.3886 432.264 78.1641C432.363 77.9397 432.512 77.7414 432.701 77.5848C432.89 77.4282 433.112 77.3177 433.351 77.2621C433.59 77.2064 433.838 77.2071 434.077 77.2641C434.735 77.406 435.414 77.4121 436.074 77.2821C436.734 77.1521 437.361 76.8888 437.916 76.5082C438.427 76.1848 438.866 75.7603 439.206 75.2607C439.546 74.7611 439.781 74.1971 439.895 73.6034C439.972 73.0023 439.927 72.3919 439.764 71.8083C439.6 71.2247 439.321 70.6799 438.944 70.2061C438.546 69.667 438.045 69.2118 437.471 68.8664C436.897 68.521 436.26 68.2922 435.597 68.1932C434.261 68.1189 432.938 68.4977 431.844 69.2684C430.75 70.0391 429.947 71.1565 429.567 72.4398C429.44 72.8287 429.168 73.1536 428.808 73.3469C428.447 73.5402 428.026 73.587 427.632 73.4775C427.238 73.368 426.901 73.1108 426.692 72.7592C426.483 72.4077 426.417 71.9891 426.509 71.5905C427.087 69.572 428.342 67.814 430.064 66.6122C431.786 65.4103 433.868 64.8379 435.962 64.9912C437.052 65.1364 438.102 65.4992 439.049 66.058C439.996 66.6168 440.821 67.3602 441.475 68.2441C442.111 69.0634 442.576 70.0019 442.843 71.0041C443.11 72.0063 443.173 73.052 443.029 74.0791C442.836 75.1047 442.435 76.0799 441.85 76.9446C441.266 77.8094 440.511 78.5453 439.632 79.1071C438.357 79.965 436.869 80.4503 435.334 80.5085L435.597 86.5897C435.607 86.8569 435.549 87.1223 435.429 87.3612C435.309 87.6001 435.131 87.8049 434.911 87.9565C434.69 88.1081 434.436 88.2017 434.17 88.2285C433.903 88.2553 433.635 88.2146 433.389 88.11L433.431 88.144Z" fill="#407BFF"/>
<path d="M435.759 91.3717C435.777 91.6282 435.718 91.8843 435.591 92.1074C435.463 92.3306 435.272 92.5109 435.042 92.6255C434.812 92.7401 434.553 92.7838 434.297 92.7511C434.042 92.7185 433.803 92.6109 433.609 92.442C433.415 92.2731 433.276 92.0505 433.208 91.8024C433.141 91.5542 433.149 91.2917 433.231 91.048C433.313 90.8043 433.465 90.5903 433.669 90.4333C433.872 90.2762 434.118 90.1831 434.374 90.1657C434.545 90.153 434.716 90.1742 434.878 90.2281C435.04 90.282 435.19 90.3675 435.318 90.4797C435.447 90.5919 435.552 90.7285 435.628 90.8816C435.704 91.0347 435.748 91.2013 435.759 91.3717Z" fill="#407BFF"/>
<path d="M406.142 77.0257C406.179 76.8577 406.204 76.6875 406.219 76.5161C406.219 76.1424 406.312 75.6668 406.38 74.9958C406.464 74.172 406.603 73.3548 406.796 72.5498C406.907 72.0741 406.966 71.5475 407.136 71.0125C407.306 70.4774 407.476 69.8998 407.663 69.3138C408.646 66.4102 410.079 63.6789 411.909 61.2196C414.308 58.0352 417.349 55.3904 420.836 53.4567C422.82 52.3379 424.934 51.4651 427.129 50.8578C429.499 50.2297 431.94 49.9099 434.391 49.9065C435.682 49.8858 436.974 49.9539 438.256 50.1104C438.91 50.1783 439.555 50.3482 440.209 50.4586C440.87 50.5719 441.523 50.7308 442.163 50.9342C444.84 51.6823 447.386 52.8367 449.713 54.357C454.887 57.713 458.829 62.6619 460.941 68.456C462.079 71.5596 462.654 74.8413 462.64 78.1469C462.675 81.5522 462.073 84.934 460.865 88.118L460.483 89.0863L460.432 89.2137L460.483 89.3411C462.615 94.2417 464.729 99.0574 466.725 103.72L467.082 103.313L454.342 98.4289L454.189 98.3695L454.062 98.4884C450.692 101.754 446.566 104.135 442.052 105.419C438.195 106.481 434.157 106.713 430.204 106.099C426.252 105.486 422.474 104.041 419.12 101.86C416.373 100.059 413.952 97.8046 411.96 95.193C409.073 91.381 407.203 86.8977 406.525 82.1642C406.423 81.3149 406.338 80.6014 406.261 79.9559C406.185 79.3104 406.261 78.7839 406.219 78.3337C406.176 77.8836 406.219 77.5863 406.219 77.34C406.261 77.3336 406.3 77.3114 406.326 77.2779C406.353 77.2444 406.366 77.202 406.363 77.1593C406.359 77.1166 406.34 77.0766 406.309 77.0475C406.277 77.0184 406.236 77.0022 406.193 77.0022C406.15 77.0022 406.109 77.0184 406.078 77.0475C406.046 77.0766 406.027 77.1166 406.024 77.1593C406.021 77.202 406.034 77.2444 406.06 77.2779C406.087 77.3114 406.125 77.3336 406.168 77.34C406.168 77.5863 406.168 77.9175 406.168 78.3337C406.168 78.7499 406.168 79.3274 406.168 79.9729C406.168 80.6184 406.312 81.3573 406.397 82.1982C406.677 84.2411 407.163 86.2502 407.85 88.1945C408.822 90.7621 410.13 93.1897 411.739 95.4138C413.74 98.0719 416.178 100.37 418.95 102.208C422.345 104.444 426.177 105.931 430.19 106.573C434.204 107.214 438.308 106.994 442.231 105.929C446.798 104.631 450.976 102.227 454.393 98.93L454.113 98.9895L466.853 103.899L467.49 104.145L467.209 103.491C465.188 98.8281 463.099 94.0209 460.975 89.1118V89.3581L461.366 88.3643C462.605 85.111 463.222 81.6536 463.184 78.1723C463.21 74.7966 462.635 71.443 461.485 68.2691C459.327 62.3596 455.298 57.3165 450.01 53.9069C447.625 52.3511 445.012 51.1763 442.264 50.4246C441.615 50.219 440.95 50.0628 440.277 49.9575C439.615 49.8386 438.961 49.6687 438.298 49.6093C436.999 49.448 435.691 49.3742 434.383 49.3884C431.892 49.399 429.414 49.7359 427.01 50.3906C424.786 51.0224 422.644 51.9178 420.632 53.0576C417.111 55.0387 414.051 57.7455 411.655 60.9988C409.83 63.4988 408.416 66.2743 407.467 69.2204C407.289 69.8319 407.119 70.4179 406.966 70.919C406.831 71.431 406.723 71.9499 406.643 72.4733C406.461 73.2839 406.342 74.1074 406.287 74.9364C406.236 75.5904 406.202 76.0915 406.176 76.4652C406.141 76.6498 406.129 76.8382 406.142 77.0257Z" fill="#263238"/>
</svg>
