<svg width="39" height="86" viewBox="0 0 39 86" fill="none" xmlns="http://www.w3.org/2000/svg">
<path d="M54.4054 6.46488C52.6567 6.26287 51.3988 4.67368 51.6025 2.91438C51.8045 1.16564 53.4044 -0.0922792 55.153 0.11149C56.9106 0.3135 58.1578 1.9027 57.9559 3.66199C57.7646 5.29202 56.388 6.48611 54.7898 6.48611C54.6623 6.48611 54.5347 6.47543 54.4054 6.46488ZM29.5218 7.1895C28.8927 5.53649 29.7131 3.69214 31.3661 3.06312C33.0191 2.43423 34.8635 3.25621 35.503 4.90747C36.1321 6.56048 35.301 8.40483 33.6587 9.03385C33.2743 9.1826 32.8915 9.24817 32.507 9.24817C31.2279 9.24817 30.0125 8.46865 29.5218 7.1895ZM73.981 13.8104C72.5194 12.8199 72.1473 10.8251 73.1483 9.36513C74.151 7.91413 76.1442 7.54202 77.5952 8.54478C79.0552 9.54591 79.429 11.5283 78.4263 12.99C77.8079 13.8954 76.805 14.3756 75.7811 14.3756C75.1645 14.3756 74.5338 14.1948 73.981 13.8104ZM11.9623 21.2533C10.6406 20.0805 10.5131 18.0643 11.6859 16.7425C12.8483 15.4102 14.8733 15.2933 16.195 16.4555C17.5166 17.6285 17.6442 19.6428 16.4837 20.9752C15.8424 21.6891 14.969 22.0523 14.0725 22.0523C13.3265 22.0523 12.57 21.7849 11.9623 21.2533ZM87.9049 29.4192C87.0828 27.8617 87.6798 25.9323 89.2372 25.1014C90.7927 24.2705 92.7346 24.8676 93.5548 26.4232C94.3857 27.9911 93.7887 29.9205 92.2332 30.7514C91.753 31.0083 91.241 31.1253 90.7396 31.1253C89.588 31.1253 88.4807 30.507 87.9049 29.4192ZM2.93193 41.8494C1.21522 41.4349 0.160946 39.7075 0.575519 37.9906C0.991976 36.2738 2.72992 35.2197 4.44675 35.6342C6.16183 36.0506 7.20705 37.7886 6.79072 39.5055C6.43997 40.9654 5.12891 41.9468 3.68846 41.9468C3.43331 41.9468 3.18708 41.915 2.93193 41.8494ZM92.979 49.8788V49.7087C92.9684 47.9387 94.3964 46.4984 96.1664 46.4984C97.9363 46.4877 99.3661 47.9175 99.3767 49.6768V49.8788C99.3767 51.6487 97.9469 53.0767 96.1769 53.0767C94.4071 53.0767 92.979 51.6487 92.979 49.8788ZM0.618107 61.9601C0.203534 60.2415 1.247 58.5034 2.96384 58.0871C4.66999 57.6619 6.40806 58.7055 6.83318 60.4223C7.26019 62.1284 6.20605 63.8664 4.49989 64.2934C4.24298 64.359 3.97728 64.3891 3.72037 64.3891C2.29235 64.3891 0.981298 63.4076 0.618107 61.9601ZM89.3328 74.5073C87.7648 73.6746 87.1679 71.7452 87.9898 70.1791C88.8102 68.6217 90.7396 68.0158 92.3076 68.8342C93.8755 69.6581 94.4726 71.5982 93.6505 73.1519C93.0746 74.2504 91.9656 74.8688 90.814 74.8688C90.3143 74.8688 89.8024 74.7518 89.3328 74.5073ZM11.8135 83.1639C10.63 81.8421 10.7576 79.8154 12.0686 78.6425C13.3903 77.4714 15.4172 77.5884 16.5901 78.91C17.763 80.2317 17.6442 82.2567 16.3225 83.4296C15.7148 83.9736 14.9583 84.2411 14.2018 84.2411C13.316 84.2411 12.4425 83.878 11.8135 83.1639ZM73.3078 90.2968C72.3067 88.8458 72.6681 86.8526 74.1192 85.8391C75.5685 84.8381 77.5633 85.1996 78.5645 86.6506C79.5778 88.0998 79.2146 90.093 77.7653 91.1065C77.2001 91.4909 76.5713 91.6717 75.9422 91.6717C74.9289 91.6717 73.9279 91.1915 73.3078 90.2968ZM31.5468 96.7688C29.8956 96.1381 29.0628 94.2938 29.6919 92.6425C30.3102 90.9895 32.1545 90.1586 33.8076 90.7769C35.4606 91.4041 36.2915 93.2502 35.6731 94.9014C35.1842 96.1806 33.967 96.9708 32.6772 96.9708C32.305 96.9708 31.9206 96.907 31.5468 96.7688ZM51.7939 96.8326C51.5813 95.084 52.8285 93.4841 54.5773 93.2715C56.3348 93.0571 57.924 94.3043 58.1366 96.0636C58.351 97.8124 57.1037 99.4122 55.355 99.6248C55.2151 99.6355 55.0875 99.646 54.9599 99.646C53.3707 99.646 51.9852 98.452 51.7939 96.8326Z" fill="url(#paint0_linear_4063_2979)"/>
<path d="M53.4791 14.3544C52.0386 14.195 51.0164 12.8946 51.1758 11.4542C51.3459 10.0156 52.6464 8.9916 54.0867 9.16333C55.5147 9.33343 56.5494 10.6338 56.3793 12.0618C56.2181 13.396 55.0877 14.3758 53.7767 14.3758C53.6811 14.3758 53.5748 14.3758 53.4791 14.3544ZM33.115 14.9515C32.5924 13.6086 33.2745 12.0937 34.6175 11.5711C35.9728 11.0609 37.4859 11.7324 37.9979 13.0859C38.5205 14.4289 37.8384 15.9437 36.4955 16.4663C36.1855 16.5833 35.8647 16.6364 35.5565 16.6364C34.5006 16.6364 33.5101 15.9969 33.115 14.9515ZM69.4811 20.3783C68.287 19.5579 67.9894 17.9263 68.8097 16.7322C69.63 15.538 71.2511 15.2403 72.4453 16.0607C73.6394 16.8704 73.937 18.502 73.1273 19.6962C72.6152 20.4314 71.795 20.8372 70.9622 20.8372C70.4521 20.8372 69.94 20.6883 69.4811 20.3783ZM18.743 26.4553C17.6551 25.5074 17.5595 23.8437 18.5198 22.7666C19.4676 21.6787 21.1207 21.5724 22.2085 22.5327C23.2963 23.4912 23.3919 25.1441 22.4423 26.232C21.9196 26.8185 21.195 27.1161 20.4704 27.1161C19.8626 27.1161 19.2444 26.8929 18.743 26.4553ZM80.8786 33.1398C80.2071 31.8607 80.6872 30.2822 81.9664 29.6C83.2455 28.9285 84.8224 29.4087 85.5062 30.6878C86.1884 31.967 85.6975 33.5563 84.4184 34.2278C84.034 34.4297 83.6087 34.5377 83.1924 34.5377C82.264 34.5377 81.3587 34.0258 80.8786 33.1398ZM11.3549 43.3113C9.94817 42.9711 9.08359 41.552 9.43623 40.1452H9.42555C9.77631 38.7491 11.1848 37.8846 12.5916 38.2265C13.9983 38.5666 14.8523 39.9841 14.521 41.3925C14.2233 42.5867 13.1567 43.3857 11.9733 43.3857C11.7713 43.3857 11.557 43.3645 11.3549 43.3113ZM85.0261 49.879H85.0367V49.8364C85.0367 49.8045 85.0261 49.7728 85.0261 49.7391C85.0261 48.2898 86.1884 47.1169 87.6376 47.1063C89.0869 47.1063 90.2597 48.2685 90.2597 49.7196V49.879C90.2597 51.3283 89.0993 52.5011 87.6483 52.5011C86.199 52.5011 85.0261 51.3283 85.0261 49.879ZM9.46801 59.7616C9.1155 58.3549 9.98007 56.9357 11.3762 56.5955C12.783 56.243 14.2021 57.0969 14.5528 58.5037C14.8948 59.8998 14.0426 61.3295 12.6341 61.6715C12.4215 61.7246 12.2195 61.7459 12.0052 61.7459C10.8323 61.7459 9.76575 60.9557 9.46801 59.7616ZM82.0514 70.0287C80.7723 69.3465 80.2709 67.768 80.9529 66.4888C81.6244 65.2096 83.2031 64.7206 84.4822 65.3921C85.7614 66.0636 86.2522 67.651 85.5807 68.9195C85.1111 69.8179 84.2058 70.3298 83.2668 70.3298C82.8504 70.3298 82.4359 70.2324 82.0514 70.0287ZM18.6154 77.1084C17.6551 76.0312 17.7526 74.3799 18.8386 73.4197C19.9159 72.4594 21.5688 72.555 22.5291 73.6323C23.4876 74.7094 23.3919 76.3625 22.3147 77.3317C21.8134 77.7692 21.195 77.9925 20.5767 77.9925C19.8521 77.9925 19.138 77.6949 18.6154 77.1084ZM68.9372 82.9515C68.1169 81.7573 68.4146 80.1256 69.598 79.3035C70.7923 78.4833 72.4134 78.7827 73.2443 79.9661C74.0664 81.1479 73.7669 82.7902 72.5833 83.6123C72.1263 83.9206 71.6037 84.0695 71.0916 84.0695C70.2607 84.0695 69.4493 83.6761 68.9372 82.9515ZM34.768 88.2382C33.4145 87.728 32.7306 86.2132 33.2532 84.8702C33.7547 83.5148 35.2676 82.8328 36.623 83.3447C37.9767 83.8568 38.6587 85.3716 38.1467 86.7146C37.7428 87.7705 36.7506 88.4083 35.6946 88.4083C35.3864 88.4083 35.0763 88.3552 34.768 88.2382ZM51.3354 88.2915C51.1546 86.8635 52.1787 85.5524 53.6173 85.3823C55.0453 85.2104 56.3563 86.2344 56.5282 87.6625C56.6983 89.1029 55.6742 90.4033 54.2463 90.5734C54.1399 90.5946 54.0336 90.5946 53.9256 90.5946C52.6251 90.5946 51.4948 89.6255 51.3354 88.2915Z" fill="url(#paint1_linear_4063_2979)"/>
<path d="M52.6784 21.1019C51.5161 20.9637 50.6852 19.9078 50.8127 18.7455C50.9509 17.5833 52.0069 16.7524 53.1691 16.8923C54.3313 17.0181 55.1623 18.074 55.0241 19.2469C54.9071 20.3241 53.9894 21.1126 52.9246 21.1126C52.8378 21.1126 52.7634 21.1126 52.6784 21.1019ZM36.1748 21.582C35.7585 20.4835 36.313 19.2575 37.4009 18.8412C38.4993 18.4266 39.7253 18.9706 40.1417 20.069C40.5562 21.1568 40.0124 22.3828 38.9157 22.808C38.6694 22.9038 38.4143 22.9462 38.1574 22.9462C37.3052 22.9462 36.5061 22.4254 36.1748 21.582ZM65.6437 25.9741C64.6834 25.3132 64.4389 23.9916 65.0997 23.0224C65.7607 22.0622 67.0823 21.8158 68.0426 22.4785C69.0117 23.1393 69.258 24.4611 68.5971 25.4214C68.1808 26.029 67.5199 26.348 66.8485 26.348C66.4321 26.348 66.0174 26.2203 65.6437 25.9741ZM24.5436 30.8995C23.6578 30.1216 23.5727 28.7893 24.3522 27.9158C25.13 27.03 26.4623 26.945 27.3482 27.7227C28.2217 28.5005 28.3066 29.8347 27.5289 30.7187C27.1125 31.1882 26.5261 31.4328 25.9397 31.4328C25.4383 31.4328 24.9369 31.2627 24.5436 30.8995ZM74.8867 36.3156C74.3321 35.2827 74.7272 34.0035 75.7601 33.4595C76.7948 32.905 78.074 33.2984 78.6285 34.333C79.1725 35.3677 78.7898 36.6469 77.7551 37.2014C77.4344 37.3715 77.0942 37.4459 76.7522 37.4459C75.9957 37.4459 75.2605 37.042 74.8867 36.3156ZM18.5516 44.5575C17.4106 44.2812 16.7179 43.1295 16.9943 41.9992C17.2725 40.8582 18.4134 40.1655 19.5545 40.4313C20.6937 40.72 21.3864 41.8609 21.11 43.002C20.8761 43.9711 20.0115 44.6214 19.0531 44.6214C18.8918 44.6214 18.7217 44.6 18.5516 44.5575ZM78.2458 49.878V49.7611C78.2351 48.5882 79.183 47.6386 80.3559 47.6386C81.5289 47.6279 82.4785 48.5775 82.489 49.7504C82.489 49.7717 82.4785 49.793 82.4785 49.8142C82.4785 49.8354 82.489 49.8567 82.489 49.878C82.489 51.0509 81.5289 51.9987 80.3666 51.9987C79.1937 51.9987 78.2458 51.0509 78.2458 49.878ZM17.0262 57.8843C16.7392 56.7433 17.4319 55.5917 18.573 55.3153C19.7032 55.0372 20.8549 55.7299 21.1419 56.8603C21.4201 58.0013 20.7274 59.1529 19.5863 59.431C19.4144 59.4736 19.2444 59.4948 19.0849 59.4948C18.1247 59.4948 17.2619 58.8553 17.0262 57.8843ZM75.8257 66.2008C74.791 65.6568 74.3853 64.3794 74.9398 63.3342C75.4838 62.2976 76.7629 61.9062 77.7976 62.4482C78.8323 62.9922 79.2363 64.2731 78.6923 65.3043C78.3096 66.0307 77.5743 66.4452 76.8054 66.4452C76.4759 66.4452 76.1446 66.3602 75.8257 66.2008ZM24.4373 71.9358C23.6578 71.0623 23.7321 69.73 24.6074 68.9504C25.4807 68.1726 26.8255 68.2471 27.6034 69.1222C28.3811 69.9957 28.3066 71.3387 27.4333 72.1182C27.0275 72.469 26.5261 72.6515 26.0247 72.6515C25.4383 72.6515 24.8519 72.4158 24.4373 71.9358ZM65.206 76.6697C64.5345 75.7006 64.7791 74.3878 65.7393 73.7163C66.6978 73.0555 68.0213 73.2911 68.6928 74.2496C69.3536 75.2205 69.1179 76.5422 68.1595 77.203C67.7856 77.4582 67.3711 77.5769 66.9441 77.5769C66.2726 77.5769 65.6118 77.2668 65.206 76.6697ZM37.5178 80.9555C36.4193 80.541 35.8772 79.3149 36.2918 78.2271C36.7081 77.1286 37.9235 76.5741 39.022 76.9904C40.1204 77.405 40.6625 78.631 40.2586 79.7188C39.9379 80.5729 39.1282 81.0937 38.2761 81.0937C38.0192 81.0937 37.764 81.0513 37.5178 80.9555ZM50.9403 80.998C50.8021 79.8358 51.6241 78.7817 52.7864 78.6417C53.9468 78.5035 55.0134 79.3237 55.1534 80.4966C55.2916 81.6482 54.4589 82.7148 53.2966 82.853C53.2115 82.8637 53.1266 82.8637 53.0416 82.8637C51.9855 82.8637 51.0696 82.0752 50.9403 80.998Z" fill="url(#paint2_linear_4063_2979)"/>
<defs>
<linearGradient id="paint0_linear_4063_2979" x1="0.485398" y1="49.868" x2="99.3766" y2="49.868" gradientUnits="userSpaceOnUse">
<stop stop-color="#00B19B"/>
<stop offset="0.44" stop-color="#00A4B5"/>
<stop offset="1" stop-color="#0086F0"/>
</linearGradient>
<linearGradient id="paint1_linear_4063_2979" x1="0.485683" y1="49.8682" x2="99.3769" y2="49.8682" gradientUnits="userSpaceOnUse">
<stop stop-color="#00B19B"/>
<stop offset="0.44" stop-color="#00A4B5"/>
<stop offset="1" stop-color="#0086F0"/>
</linearGradient>
<linearGradient id="paint2_linear_4063_2979" x1="0.485725" y1="49.8672" x2="99.3769" y2="49.8672" gradientUnits="userSpaceOnUse">
<stop stop-color="#00B19B"/>
<stop offset="0.44" stop-color="#00A4B5"/>
<stop offset="1" stop-color="#0086F0"/>
</linearGradient>
</defs>
</svg>
