<svg width="149" height="213" viewBox="0 0 149 213" fill="none" xmlns="http://www.w3.org/2000/svg">
<path d="M11.034 59.542L11.3555 60.0967C11.7159 60.7181 12.2416 61.2188 12.8697 61.5391L13.4325 61.8257L12.8965 62.1631C12.295 62.5361 11.8098 63.08 11.4985 63.7303L11.2216 64.3081L10.9 63.758C10.5381 63.1352 10.011 62.6329 9.38132 62.3111L8.823 62.0245L9.35899 61.6916C9.95947 61.3168 10.4432 60.7712 10.7526 60.1198L11.034 59.542Z" fill="#FFD600"/>
<path d="M126.973 120.42L127.294 120.975C127.656 121.596 128.181 122.098 128.808 122.422L129.371 122.708L128.835 123.041C128.233 123.416 127.748 123.961 127.437 124.613L127.16 125.191L126.839 124.636C126.476 124.016 125.951 123.514 125.324 123.189L124.762 122.902L125.298 122.57C125.899 122.197 126.384 121.653 126.696 121.002L126.973 120.42Z" fill="#FFD600"/>
<path d="M63.9987 6.10645L64.3203 6.66119C64.6806 7.28372 65.2062 7.78597 65.8344 8.10813L66.3972 8.39475L65.8612 8.72759C65.2645 9.09423 64.7799 9.62784 64.4632 10.267L64.1863 10.8495L63.8647 10.2947C63.5028 9.67187 62.9757 9.16965 62.346 8.84778L61.7877 8.56117L62.3237 8.22832C62.9231 7.85411 63.4066 7.31037 63.7173 6.66119L63.9987 6.10645Z" fill="#FFD600"/>
<path d="M139.386 58.3438L139.707 58.8985C140.069 59.5214 140.596 60.0236 141.226 60.3454L141.784 60.6321L141.248 60.9649C140.649 61.3391 140.165 61.8828 139.855 62.532L139.578 63.1145L139.256 62.5598C138.894 61.9369 138.367 61.4347 137.738 61.1128L137.179 60.8262L137.711 60.4934C138.311 60.1192 138.796 59.5756 139.109 58.9262L139.386 58.3438Z" fill="#FFD600"/>
<path d="M23.2452 80.9043L23.4775 81.3065C23.7419 81.7601 24.1263 82.1258 24.5852 82.3605L24.9961 82.5685L24.6031 82.8135C24.1648 83.0872 23.8114 83.485 23.5847 83.96L23.3837 84.3807L23.147 83.9785C22.8826 83.5249 22.4982 83.1591 22.0393 82.9245L21.6328 82.7164L22.0214 82.4714C22.4608 82.1992 22.8146 81.801 23.0398 81.325L23.2452 80.9043Z" fill="#FFD600"/>
<path d="M33.9113 132.708L34.148 133.115C34.4125 133.564 34.7952 133.927 35.2512 134.16L35.6622 134.368L35.2691 134.613C34.8308 134.886 34.4774 135.284 34.2507 135.759L34.0497 136.18L33.813 135.778C33.5498 135.325 33.167 134.959 32.7098 134.724L32.2988 134.511L32.6919 134.271C33.1302 133.997 33.4836 133.599 33.7103 133.124L33.9113 132.708Z" fill="#FFD600"/>
<path d="M135.883 42.627L136.116 43.0291C136.379 43.4839 136.763 43.85 137.223 44.0831L137.634 44.2958L137.241 44.5362C136.803 44.8098 136.45 45.2077 136.223 45.6826L136.022 46.1079L135.785 45.7011C135.521 45.2475 135.136 44.8818 134.677 44.6471L134.271 44.4391L134.66 44.1941C135.099 43.9219 135.453 43.5236 135.678 43.0476L135.883 42.627Z" fill="#FFD600"/>
<path d="M2.33265 69.9756L2.56491 70.3778C2.82866 70.8331 3.21311 71.2005 3.67263 71.4364L4.08355 71.6444L3.69049 71.8848C3.25409 72.1608 2.90126 72.558 2.67211 73.0313L2.47111 73.4566L2.23439 73.0498C1.96998 72.5962 1.58559 72.2304 1.12667 71.9958L0.720215 71.7877L1.10881 71.5427C1.54821 71.2705 1.90195 70.8723 2.12719 70.3963L2.33265 69.9756Z" fill="#FFD600"/>
<path d="M147.176 45.1318L147.31 45.363C147.461 45.6219 147.681 45.8304 147.944 45.9639L148.18 46.0841L147.957 46.2228C147.701 46.3769 147.495 46.6051 147.363 46.8793L147.247 47.1243L147.113 46.8931C146.963 46.6319 146.742 46.4215 146.479 46.2875L146.246 46.1674L146.47 46.0287C146.72 45.8717 146.921 45.6439 147.05 45.3722L147.176 45.1318Z" fill="#FFD600"/>
<path d="M138.827 111.683L138.961 111.918C139.113 112.177 139.333 112.386 139.595 112.519L139.827 112.64L139.604 112.778C139.353 112.935 139.15 113.163 139.019 113.435L138.903 113.68L138.769 113.444C138.617 113.185 138.397 112.976 138.135 112.843L137.902 112.723L138.126 112.584C138.377 112.427 138.58 112.2 138.711 111.928L138.827 111.683Z" fill="#FFD600"/>
<path d="M81.065 0.896484L81.199 1.12763C81.3506 1.38651 81.5707 1.59505 81.8332 1.72859L82.0699 1.84879L81.8466 1.9921C81.5927 2.14496 81.3877 2.3716 81.257 2.64391L81.1409 2.88893L81.0069 2.65778C80.8531 2.3962 80.6298 2.18597 80.3637 2.05219L80.1404 1.94587L80.3682 1.80718C80.6183 1.65023 80.8198 1.42244 80.9488 1.15074L81.065 0.896484Z" fill="#FFD600"/>
<path d="M55.485 12.7002L55.619 12.9313C55.768 13.1903 55.9848 13.4003 56.2443 13.5369L56.4766 13.6571L56.2533 13.7958C56.0031 13.9528 55.8017 14.1805 55.6726 14.4522L55.5565 14.6926L55.418 14.4615C55.2684 14.2014 55.0499 13.9912 54.7882 13.8559L54.5515 13.7357L54.7748 13.597C55.024 13.4402 55.224 13.2123 55.351 12.9406L55.485 12.7002Z" fill="#FFD600"/>
<path d="M36.7879 138.781L36.9219 139.012C37.0732 139.273 37.2933 139.483 37.5561 139.618L37.7884 139.738L37.565 139.877C37.3149 140.034 37.1134 140.262 36.9844 140.533L36.8683 140.774L36.7343 140.543C36.5817 140.283 36.362 140.073 36.1 139.937L35.8633 139.817L36.0866 139.678C36.339 139.523 36.5423 139.295 36.6717 139.022L36.7879 138.781Z" fill="#FFD600"/>
<path d="M102.51 172.91L47.1241 172.776C44.8283 172.776 42.9702 171.098 42.9746 169.041C42.9746 166.989 44.8461 165.343 47.1419 165.343L102.528 165.477C104.823 165.477 106.677 167.15 106.673 169.207C106.668 171.251 104.805 172.915 102.51 172.91Z" fill="#455A64"/>
<path d="M102.51 163.868L47.1241 163.738C44.8283 163.738 42.9702 162.06 42.9746 160.003C42.9746 157.946 44.8461 156.305 47.1419 156.305L102.528 156.434C104.823 156.434 106.677 158.112 106.673 160.169C106.668 162.213 104.805 163.872 102.51 163.868Z" fill="#455A64"/>
<path d="M100.285 174.26L49.5808 174.14C48.6189 174.208 47.7179 174.652 47.0599 175.381C46.4019 176.11 46.0359 177.071 46.0359 178.069C46.0359 179.067 46.4019 180.028 47.0599 180.757C47.7179 181.486 48.6189 181.93 49.5808 181.998H55.1462L62.4982 196.593C62.9126 197.408 63.5333 198.092 64.2941 198.571C65.0549 199.05 65.927 199.305 66.8174 199.311L84.9383 199.353C85.8384 199.356 86.7218 199.101 87.491 198.617C88.2603 198.134 88.8855 197.439 89.2977 196.611L96.5067 182.128H100.29C101.252 182.06 102.153 181.616 102.811 180.887C103.469 180.157 103.835 179.196 103.835 178.198C103.835 177.201 103.469 176.24 102.811 175.51C102.153 174.781 101.252 174.337 100.29 174.269L100.285 174.26Z" fill="#455A64"/>
<path d="M117.701 113.201C117.701 113.201 117.562 113.423 117.29 113.835L116.084 115.684L115.204 117.052C114.882 117.556 114.565 118.134 114.199 118.744L113.038 120.732C112.613 121.435 112.247 122.234 111.809 123.043C111.595 123.459 111.363 123.885 111.148 124.319C111.037 124.541 110.925 124.782 110.809 124.985C110.693 125.188 110.599 125.447 110.492 125.683C110.045 126.631 109.598 127.62 109.152 128.66L107.838 131.984C107.423 133.154 107.012 134.383 106.588 135.654C105.728 138.397 105.025 141.189 104.484 144.017C103.874 147.206 103.574 150.451 103.591 153.702V153.781H103.519L44.4041 153.813H44.3103V153.716C43.6895 146.555 41.8856 139.558 38.9772 133.029C37.4544 129.566 35.6976 126.218 33.72 123.011C32.7195 121.379 31.6565 119.775 30.5264 118.199C29.3964 116.622 28.1636 115.12 26.9532 113.576L26.8058 113.391H27.0425L26.9576 113.576C21.4203 106.207 17.6418 97.5887 15.9296 88.423C15.6884 87.2488 15.541 86.0561 15.3624 84.8634C15.2909 84.2625 15.2373 83.6615 15.1748 83.0605L15.0855 82.136L15.0274 81.2114C14.9961 80.6058 14.9425 80.0002 14.9247 79.39C14.9068 78.7798 14.9247 78.1696 14.8889 77.5409C14.8532 76.9122 14.8889 76.3204 14.8889 75.6917C14.8889 75.063 14.8889 74.4621 14.9425 73.8426C15.2129 68.8825 16.0679 63.9752 17.4885 59.2298C21.6122 45.8468 30.1681 34.4 41.6482 26.907C44.3831 25.1233 47.256 23.5771 50.2375 22.2842C53.1652 21.024 56.191 20.0234 59.2823 19.2932C65.2734 17.8647 71.4465 17.4355 77.5685 18.0219C80.5135 18.3106 83.4337 18.8251 86.3051 19.5613C89.0948 20.3049 91.8306 21.2503 94.4924 22.3905C97.0613 23.5353 99.5546 24.8541 101.956 26.3384C104.264 27.807 106.476 29.43 108.58 31.197C112.556 34.5794 116.078 38.4956 119.054 42.8419C121.804 46.848 124.055 51.1969 125.754 55.7858C126.201 56.8676 126.509 57.977 126.875 59.0588C127.241 60.1405 127.483 61.2408 127.768 62.2948C128.005 63.3858 128.264 64.4536 128.47 65.5307C128.559 66.067 128.653 66.594 128.742 67.121C128.831 67.648 128.93 68.1704 128.983 68.6974C129.534 72.6287 129.706 76.6069 129.497 80.5734C129.133 86.9442 127.775 93.2121 125.477 99.1341C124.636 101.285 123.678 103.386 122.609 105.426C121.663 107.192 120.796 108.662 120.055 109.79L119.067 111.292L118.308 112.342L117.687 113.201L118.286 112.342L119.036 111.274L120.019 109.762C120.751 108.616 121.609 107.159 122.547 105.393C123.607 103.351 124.557 101.249 125.392 99.0971C129.08 89.4492 130.27 78.972 128.845 68.702C128.791 68.175 128.693 67.6572 128.604 67.1302C128.514 66.6032 128.421 66.0762 128.327 65.5446C128.126 64.4814 127.88 63.4181 127.625 62.3086C127.371 61.1992 127.054 60.1498 126.732 59.0727C126.411 57.9955 126.053 56.8861 125.611 55.8089C123.912 51.2373 121.661 46.9067 118.911 42.9205C115.939 38.5976 112.424 34.7034 108.459 31.3403C106.359 29.5846 104.152 27.9695 101.853 26.5048C99.4601 25.0264 96.9741 23.7152 94.412 22.58C91.7603 21.4451 89.035 20.5044 86.256 19.7647C83.3939 19.0294 80.4824 18.5179 77.5461 18.2346C71.4477 17.6521 65.2984 18.0828 59.3314 19.5105C56.252 20.2376 53.238 21.2351 50.3223 22.4922C47.3526 23.7858 44.4916 25.3321 41.7688 27.115C30.3202 34.604 21.799 46.0417 17.7118 59.4055C16.2964 64.1329 15.4444 69.0215 15.1748 73.9628C15.1435 74.573 15.1391 75.1832 15.1212 75.8119C15.1033 76.4406 15.0721 77.0277 15.0989 77.6379C15.1257 78.2482 15.1212 78.8537 15.1346 79.4593C15.148 80.0649 15.2016 80.6705 15.2373 81.2715L15.2909 82.1961L15.3803 83.1206C15.4428 83.717 15.5008 84.3179 15.5723 84.9143C15.7465 86.1023 15.8939 87.2904 16.1306 88.46C17.8347 97.5896 21.5962 106.174 27.1095 113.516L27.2524 113.705H27.0202L27.1095 113.516C28.3289 115.046 29.584 116.544 30.6828 118.139C31.7815 119.733 32.8803 121.333 33.8808 122.969C35.8658 126.183 37.6257 129.54 39.1469 133.015C42.0689 139.567 43.8818 146.589 44.5068 153.776L44.4086 153.679L103.524 153.711L103.452 153.79C103.444 150.53 103.752 147.278 104.372 144.082C104.911 141.247 105.609 138.447 106.463 135.696C106.909 134.425 107.307 133.195 107.727 132.026C108.147 130.856 108.62 129.76 109.067 128.697C109.513 127.634 109.991 126.668 110.407 125.725L110.724 125.027L111.068 124.361C111.296 123.926 111.514 123.501 111.733 123.085C112.18 122.267 112.546 121.467 112.971 120.774L114.141 118.79C114.507 118.18 114.829 117.602 115.155 117.103C115.481 116.604 115.785 116.151 116.048 115.749L117.272 113.899L117.719 113.275L117.701 113.201Z" fill="white"/>
<path d="M23.0717 96.9891C23.0491 96.9488 23.0325 96.9052 23.0225 96.8597C22.9868 96.758 22.9466 96.6286 22.893 96.4668C22.7769 96.1062 22.6205 95.6023 22.4195 94.9597L22.0801 93.8687C21.9684 93.4665 21.8701 93.0227 21.754 92.5512C21.5307 91.5989 21.2314 90.5264 21.0394 89.3152C20.9322 88.7096 20.8205 88.0763 20.6999 87.4153C20.5793 86.7542 20.5257 86.0561 20.4319 85.335C20.222 83.9019 20.155 82.3579 20.0523 80.7121C19.919 77.1798 20.0684 73.642 20.4989 70.1351C20.9822 66.6355 21.7426 63.183 22.7724 59.8123C23.2905 58.2729 23.755 56.8029 24.3268 55.4761C24.6037 54.8104 24.8404 54.154 25.1218 53.5484L25.9392 51.8102C26.435 50.6915 27.0023 49.7392 27.4578 48.884C27.6946 48.4633 27.9045 48.0611 28.1144 47.7051L28.7219 46.7436L29.5661 45.4215L29.7894 45.084C29.843 45.0054 29.8698 44.9684 29.8743 44.973C29.8787 44.9777 29.8743 45.0146 29.8117 45.0979L29.6063 45.4492L28.7978 46.7944L28.2082 47.7606C28.0028 48.1212 27.8018 48.528 27.574 48.9533C27.1273 49.8131 26.569 50.7654 26.0866 51.8888L25.2826 53.627C25.0102 54.2326 24.7779 54.889 24.5054 55.5547C23.9426 56.8768 23.4871 58.3284 22.9779 59.8817C21.9686 63.2429 21.2218 66.6825 20.7446 70.1675C20.3128 73.6604 20.153 77.1835 20.2666 80.7029C20.3649 82.3209 20.423 83.8649 20.624 85.2934C20.7133 86.0099 20.7669 86.708 20.8786 87.369C20.9902 88.0301 21.0974 88.6588 21.2046 89.2644C21.3788 90.4802 21.6513 91.5758 21.8791 92.5004C21.9907 92.9627 22.0845 93.4249 22.1873 93.8225C22.29 94.2201 22.4106 94.5853 22.5044 94.9181C22.6875 95.5653 22.8349 96.0738 22.9511 96.4344L23.0583 96.832C23.0705 96.8833 23.075 96.9363 23.0717 96.9891Z" fill="#FFD600"/>
<path d="M40.1341 34.7666C39.1619 35.7918 38.136 36.761 37.0611 37.6697C36.0363 38.641 34.958 39.5501 33.8318 40.3926C34.805 39.3667 35.8324 38.3975 36.9093 37.4894C37.9335 36.5193 39.0102 35.6102 40.1341 34.7666V34.7666Z" fill="#FFD600"/>
<path d="M118.331 103.697C118.331 103.697 118.331 103.66 118.371 103.59L118.505 103.29L119.037 102.153L119.425 101.334C119.564 101.034 119.698 100.696 119.872 100.34C120.167 99.624 120.537 98.8242 120.863 97.9043L121.399 96.4666C121.582 95.9673 121.739 95.4357 121.917 94.8902C122.293 93.8038 122.601 92.6157 122.945 91.3676C123.633 88.65 124.149 85.8889 124.49 83.102C124.799 80.3093 124.935 77.499 124.897 74.6884C124.848 73.394 124.825 72.1597 124.709 70.9901C124.66 70.4169 124.629 69.8622 124.566 69.3305C124.504 68.7989 124.437 68.2904 124.379 67.805C124.276 66.8296 124.102 65.9559 123.981 65.1931C123.914 64.8094 123.86 64.4488 123.798 64.1206C123.735 63.7924 123.664 63.5012 123.606 63.233L123.351 61.9941C123.329 61.8647 123.307 61.7583 123.293 61.6705C123.287 61.6338 123.287 61.5963 123.293 61.5596C123.308 61.5938 123.32 61.6294 123.329 61.6659C123.351 61.7537 123.378 61.8554 123.409 61.9849C123.485 62.2854 123.584 62.6922 123.709 63.2099L123.919 64.0975C123.99 64.4257 124.048 64.7817 124.119 65.1654C124.253 65.9328 124.441 66.8065 124.566 67.7819L124.772 69.3074C124.839 69.8437 124.874 70.3984 124.928 70.9763C125.053 72.1227 125.084 73.3617 125.138 74.6745C125.275 80.3246 124.616 85.9652 123.182 91.4184C122.829 92.6666 122.512 93.8593 122.127 94.9456C121.94 95.4911 121.783 96.0228 121.591 96.522L121.042 97.9551C120.707 98.8797 120.327 99.6748 120.019 100.387C119.858 100.743 119.72 101.076 119.573 101.376L119.162 102.185L118.59 103.304L118.438 103.59C118.409 103.633 118.373 103.669 118.331 103.697V103.697Z" fill="#FFD600"/>
<path d="M99.7943 47.1035C96.7392 45.2914 93.5411 43.641 90.1063 42.8552C89.6296 42.7202 89.1332 42.6763 88.6413 42.7257C88.3959 42.7549 88.1607 42.8439 87.955 42.9853C87.7492 43.1267 87.5788 43.3166 87.4576 43.5393C87.1628 44.1727 87.4576 44.9262 87.8194 45.5133C88.6457 46.8077 89.883 47.7461 91.1292 48.6013C94.5461 50.9451 98.2132 52.8543 101.849 54.7589C101.402 52.0592 100.473 49.7432 99.772 47.1035" fill="#FFD361"/>
<path d="M123.217 54.0702C124.218 57.5651 125.419 61.0414 127.376 64.0694C127.631 64.5092 127.963 64.8963 128.354 65.2112C128.55 65.3676 128.779 65.4728 129.022 65.5179C129.266 65.5629 129.516 65.5465 129.752 65.4701C130.386 65.2251 130.69 64.4762 130.806 63.7874C131.074 62.2618 130.806 60.6947 130.48 59.1877C129.587 55.0271 128.202 51.0469 126.831 47.0527C125.361 49.3318 124.472 51.6756 123.217 54.0702" fill="#FFD361"/>
<path d="M99.7493 47.0296C99.7493 47.0296 99.986 71.2301 113.109 71.7063C126.232 72.1824 126.781 47.2053 126.781 47.0296C126.781 47.0296 125.231 43.4238 113.265 43.5625C101.299 43.7012 99.7493 47.0296 99.7493 47.0296Z" fill="#FFD361"/>
<path d="M117.178 56.64C117.113 57.5638 116.785 58.4469 116.235 59.1776C115.685 59.9083 114.937 60.4536 114.088 60.7448C113.238 61.0359 112.324 61.0597 111.461 60.8131C110.599 60.5666 109.826 60.0608 109.241 59.3597C108.656 58.6585 108.285 57.7936 108.175 56.8743C108.065 55.955 108.221 55.0227 108.624 54.1951C109.026 53.3676 109.656 52.682 110.434 52.2252C111.213 51.7684 112.105 51.5609 112.998 51.6288C114.194 51.7199 115.306 52.2989 116.09 53.2386C116.874 54.1783 117.266 55.4018 117.178 56.64V56.64Z" fill="#263238"/>
<path d="M115.955 56.5479C115.907 57.2209 115.667 57.8641 115.267 58.3962C114.866 58.9283 114.321 59.3255 113.702 59.5374C113.083 59.7493 112.418 59.7665 111.789 59.5868C111.161 59.4071 110.598 59.0386 110.172 58.5278C109.746 58.017 109.476 57.387 109.396 56.7173C109.316 56.0476 109.429 55.3684 109.722 54.7656C110.015 54.1628 110.474 53.6634 111.041 53.3306C111.608 52.9978 112.258 52.8465 112.908 52.8959C113.78 52.9633 114.59 53.3856 115.161 54.0702C115.732 54.7548 116.017 55.6458 115.955 56.5479V56.5479Z" fill="white"/>
<path d="M114.364 57.1722C114.339 56.9854 114.329 56.7968 114.333 56.6083C114.333 56.2523 114.333 55.753 114.333 55.1382L114.369 55.2029L112.658 54.1813H112.752L111.041 55.1752C110.996 55.2584 111.104 55.0689 111.095 55.0873V55.6097C111.095 55.7808 111.095 55.9564 111.095 56.1275C111.095 56.4649 111.095 56.7932 111.095 57.1121L111.05 57.0243L112.725 58.0829H112.649C113.172 57.7917 113.605 57.5606 113.909 57.3988C114.066 57.3062 114.23 57.2273 114.4 57.163C114.259 57.2731 114.11 57.3705 113.953 57.4542C113.667 57.6345 113.239 57.9165 112.703 58.217L112.667 58.2401L112.631 58.217L110.934 57.1954L110.885 57.1676V57.1075C110.885 56.7885 110.885 56.4603 110.885 56.1229C110.885 55.9518 110.885 55.7808 110.885 55.6051V55.1058C110.885 55.1058 110.983 54.9348 110.934 55.0134L112.654 54.0287L112.703 54.001L112.747 54.0287L114.422 55.092H114.463V55.1336C114.463 55.7715 114.427 56.2847 114.409 56.636C114.41 56.8158 114.395 56.9953 114.364 57.1722V57.1722Z" fill="#008CFF"/>
<path d="M99.6913 47.0117C99.6913 47.0117 99.7181 47.0117 99.7628 47.0117L99.9593 47.081L100.723 47.3584L101.268 47.5618L101.934 47.7744C102.407 47.9224 102.943 48.1119 103.555 48.2367L104.506 48.4863C104.837 48.5742 105.185 48.6389 105.547 48.7175C106.262 48.8885 107.043 49.0041 107.856 49.1428C111.411 49.672 115.021 49.672 118.576 49.1428C119.393 49.0087 120.171 48.8932 120.885 48.7221C121.247 48.6389 121.595 48.5742 121.926 48.491L122.877 48.2367C123.489 48.0888 124.025 47.8992 124.503 47.7744C124.74 47.7005 124.95 47.6357 125.164 47.5664L125.714 47.363L126.473 47.0856L126.669 47.0163L126.741 46.9932C126.741 46.9932 126.719 46.9932 126.674 47.0255L126.477 47.1041L125.723 47.3954L125.178 47.608C124.977 47.682 124.731 47.7467 124.517 47.8299C124.043 47.9778 123.507 48.172 122.895 48.3245L121.944 48.5834C121.613 48.6713 121.265 48.7406 120.903 48.8238C120.184 48.9949 119.407 49.115 118.589 49.2537C115.025 49.7961 111.403 49.7961 107.838 49.2537C107.016 49.115 106.239 48.9948 105.52 48.8192C105.163 48.7406 104.81 48.6713 104.479 48.5834L103.528 48.3245C102.916 48.172 102.385 47.9778 101.907 47.8253L101.246 47.608L100.701 47.3954L99.9459 47.0995L99.7494 47.0209L99.6913 47.0117Z" fill="#263238"/>
<g opacity="0.3">
<path d="M99.7493 47.0299C99.7493 47.0299 101.299 43.7061 113.265 43.5627C125.231 43.4194 126.781 47.0299 126.781 47.0299C126.781 47.0299 114.712 53.1921 99.7493 47.0299Z" fill="black"/>
</g>
<path d="M103.863 64.254C103.854 64.2428 103.847 64.2304 103.841 64.2171L103.783 64.1107L103.564 63.6854L103.412 63.3803L103.243 63.0059C103.122 62.7377 102.988 62.4326 102.854 62.0813L102.64 61.5404L102.43 60.9487C102.273 60.5419 102.144 60.0935 101.983 59.6266C101.702 58.702 101.429 57.6434 101.188 56.5339C100.947 55.4244 100.773 54.3612 100.63 53.3858C100.487 52.4103 100.393 51.5366 100.339 50.7923C100.304 50.4225 100.281 50.0897 100.263 49.7938C100.245 49.498 100.232 49.2437 100.223 49.0357V48.5734V48.4023C100.223 48.4023 100.223 48.4023 100.223 48.4486V48.5688C100.223 48.689 100.223 48.8461 100.259 49.031C100.295 49.216 100.286 49.4933 100.312 49.7846C100.339 50.0758 100.362 50.4133 100.397 50.7831C100.464 51.5228 100.576 52.3965 100.71 53.3719C100.844 54.3473 101.041 55.4013 101.273 56.5108C101.505 57.6203 101.786 58.6558 102.059 59.5942C102.211 60.0565 102.336 60.5188 102.506 60.9164L102.711 61.5127L102.921 62.0536C103.046 62.4003 103.18 62.7054 103.296 62.9781L103.457 63.3572L103.604 63.6669L103.805 64.0969L103.854 64.2078L103.863 64.254Z" fill="white"/>
<path d="M110.188 70.0749C110.117 70.0724 110.047 70.0631 109.978 70.0472C109.789 70.016 109.602 69.9696 109.42 69.9085C109.147 69.8242 108.882 69.7191 108.624 69.5941C108.313 69.4367 108.015 69.2543 107.731 69.0486C107.447 68.84 107.18 68.6081 106.932 68.3552C106.729 68.147 106.542 67.9229 106.373 67.6849C106.257 67.5284 106.153 67.363 106.061 67.1903C106.021 67.1292 105.989 67.0642 105.962 66.9961C105.962 66.9961 106.128 67.255 106.409 67.6433C106.583 67.8712 106.771 68.0873 106.972 68.2905C107.221 68.5365 107.486 68.7636 107.767 68.97C108.051 69.1739 108.349 69.3547 108.66 69.5109C108.912 69.6388 109.172 69.75 109.437 69.8438C109.893 70.0009 110.188 70.0564 110.188 70.0749Z" fill="white"/>
<path d="M112.922 61.536H112.796C112.716 61.536 112.591 61.536 112.435 61.536C111.992 61.5282 111.553 61.455 111.13 61.3187C110.498 61.1204 109.908 60.7987 109.393 60.371C108.75 59.8569 108.243 59.1831 107.919 58.4122C107.595 57.6412 107.464 56.798 107.539 55.9608C107.569 55.5965 107.632 55.2358 107.727 54.8837C107.815 54.5809 107.925 54.2857 108.057 54.0008C108.252 53.5861 108.501 53.2017 108.799 52.8589C108.878 52.7667 108.961 52.6788 109.049 52.5954C109.112 52.5353 109.143 52.5076 109.147 52.5122C109.152 52.5168 109.027 52.6417 108.826 52.8867C108.541 53.2319 108.303 53.6161 108.12 54.0285C107.99 54.3115 107.884 54.6053 107.803 54.9068C107.713 55.2532 107.654 55.6077 107.629 55.9655C107.557 56.7879 107.686 57.6158 108.004 58.3734C108.321 59.1309 108.817 59.7939 109.447 60.3017C109.718 60.5253 110.008 60.7233 110.313 60.8934C110.583 61.0342 110.862 61.1547 111.148 61.254C111.567 61.3924 112.001 61.4747 112.439 61.499C112.747 61.536 112.922 61.5267 112.922 61.536Z" fill="white"/>
<path d="M112.354 21.8676C112.354 21.8676 100.911 21.7243 99.1243 31.9916C97.3377 42.2589 106.99 42.4346 109.773 42.6241C111.037 42.7119 113.735 42.7212 116.115 42.6749C121.39 42.5825 125.115 41.5239 126.388 36.4619C126.54 35.8672 126.636 35.2588 126.674 34.6451C126.982 29.0977 123.351 21.5948 112.354 21.8676Z" fill="#FFD361"/>
<path d="M120.653 37.4875L104.033 37.7556C103.617 37.7623 103.204 37.6838 102.817 37.5245C102.431 37.3652 102.079 37.1284 101.781 36.8276C101.483 36.5268 101.246 36.168 101.083 35.7719C100.92 35.3758 100.834 34.9502 100.83 34.5196V34.5196C100.817 33.6535 101.137 32.8175 101.719 32.1951C102.301 31.5728 103.098 31.215 103.935 31.2004L120.564 30.9554C120.98 30.9493 121.393 31.0282 121.779 31.1877C122.166 31.3471 122.518 31.5839 122.816 31.8845C123.114 32.1851 123.352 32.5436 123.516 32.9395C123.679 33.3354 123.766 33.7608 123.771 34.1914V34.1914C123.778 35.0558 123.454 35.888 122.87 36.5058C122.285 37.1235 121.488 37.4765 120.653 37.4875V37.4875Z" fill="#263238"/>
<path d="M107.481 34.1878C107.443 34.3918 107.347 34.5793 107.205 34.7267C107.064 34.8741 106.883 34.9747 106.686 35.0157C106.489 35.0566 106.285 35.0362 106.1 34.957C105.914 34.8777 105.755 34.7432 105.644 34.5705C105.532 34.3978 105.472 34.1946 105.472 33.9868C105.472 33.779 105.532 33.5759 105.644 33.4032C105.755 33.2305 105.914 33.096 106.1 33.0168C106.285 32.9375 106.49 32.9171 106.686 32.9581C106.949 33.0129 107.18 33.1729 107.329 33.4033C107.478 33.6337 107.533 33.9157 107.481 34.1878Z" fill="white"/>
<path d="M119.094 33.9936C119.056 34.1974 118.96 34.3849 118.819 34.5324C118.678 34.6799 118.497 34.7806 118.301 34.8219C118.104 34.8632 117.9 34.8432 117.714 34.7645C117.529 34.6857 117.37 34.5517 117.258 34.3794C117.146 34.2071 117.086 34.0043 117.085 33.7966C117.085 33.589 117.144 33.3858 117.255 33.2128C117.366 33.0399 117.524 32.9049 117.709 32.825C117.894 32.745 118.098 32.7238 118.295 32.7639C118.558 32.8176 118.79 32.9771 118.94 33.2077C119.09 33.4382 119.146 33.7208 119.094 33.9936Z" fill="white"/>
<path d="M110.394 33.7014C110.47 33.7014 110.429 34.0758 110.653 34.5658C110.781 34.845 110.963 35.0937 111.189 35.2962C111.456 35.5375 111.788 35.689 112.14 35.7308C112.495 35.7575 112.849 35.6703 113.154 35.4811C113.412 35.3242 113.636 35.1132 113.811 34.8617C114.114 34.4225 114.141 34.0573 114.217 34.0619C114.293 34.0666 114.275 34.1544 114.275 34.3301C114.265 34.5769 114.203 34.8184 114.092 35.0374C113.926 35.368 113.682 35.6496 113.382 35.8556C113.005 36.1197 112.554 36.2451 112.1 36.2116C111.647 36.1616 111.225 35.9528 110.903 35.6198C110.643 35.3662 110.451 35.0478 110.345 34.6953C110.272 34.4595 110.252 34.2097 110.287 33.9649C110.318 33.7799 110.362 33.6967 110.394 33.7014Z" fill="white"/>
<path d="M110.907 22.6357H110.867H110.746C110.639 22.6357 110.483 22.6357 110.3 22.6727C109.731 22.7312 109.167 22.8285 108.611 22.964C107.787 23.1659 106.985 23.454 106.217 23.8238C105.275 24.2799 104.393 24.8577 103.591 25.5435C102.14 26.799 100.983 28.3799 100.21 30.1663C99.975 30.7047 99.7766 31.2593 99.6156 31.8259C99.5531 32.0293 99.5218 32.1865 99.4906 32.2882L99.4548 32.4084V32.45C99.4548 32.45 99.4548 32.45 99.4548 32.4084L99.4816 32.2836C99.504 32.1773 99.5308 32.0155 99.5888 31.8213C99.7296 31.2486 99.9118 30.6877 100.134 30.1432C100.471 29.3286 100.892 28.5537 101.389 27.8318C103.118 25.3323 105.677 23.5808 108.576 22.9131C109.14 22.7829 109.714 22.6963 110.291 22.6542C110.492 22.6542 110.653 22.6542 110.737 22.6542H110.898L110.907 22.6357Z" fill="white"/>
<path d="M99.7141 36.8409C99.6406 36.7274 99.5849 36.6026 99.5488 36.4711C99.445 36.1707 99.3673 35.8613 99.3166 35.5466C99.2695 35.2238 99.2501 34.8974 99.2585 34.5711C99.256 34.4356 99.271 34.3003 99.3032 34.1689C99.3344 34.1689 99.3032 34.7884 99.4104 35.5558C99.5176 36.3232 99.7409 36.8317 99.7141 36.8409Z" fill="white"/>
<path d="M117.907 30.3549C117.907 30.3827 115.718 30.4058 113.02 30.4058C110.323 30.4058 108.13 30.4058 108.13 30.3549C108.13 30.3041 110.318 30.3087 113.02 30.3087C115.723 30.3087 117.907 30.3318 117.907 30.3549Z" fill="white"/>
<path d="M109.563 41.8934C109.563 41.8934 109.536 41.8934 109.483 41.8934H109.246C109.139 41.8934 109.014 41.8934 108.866 41.8934C108.719 41.8934 108.549 41.8934 108.361 41.8934C107.926 41.8896 107.49 41.8618 107.057 41.8102C106.527 41.7464 106.001 41.6523 105.48 41.5282C104.961 41.406 104.45 41.2517 103.948 41.0659C103.539 40.9126 103.138 40.7367 102.747 40.5389C102.577 40.4557 102.43 40.3725 102.3 40.2985C102.171 40.2246 102.059 40.1645 101.97 40.109L101.764 39.9796L101.697 39.9287C101.697 39.9287 101.724 39.9287 101.773 39.9611L101.988 40.072C102.077 40.1229 102.189 40.1876 102.323 40.2523C102.457 40.317 102.604 40.4002 102.769 40.4742C103.104 40.636 103.511 40.8117 103.971 40.9827C104.472 41.1636 104.982 41.3178 105.498 41.445C106.016 41.5686 106.539 41.6643 107.066 41.7316C107.548 41.7917 107.991 41.8241 108.361 41.8333C108.545 41.8333 108.714 41.8333 108.862 41.8333H109.558L109.563 41.8934Z" fill="white"/>
<path d="M123.552 48.5097H123.512L123.382 48.5606L122.887 48.7455C122.672 48.8241 122.409 48.9165 122.096 49.0136C121.783 49.1107 121.431 49.2309 121.037 49.3326L120.417 49.5036L119.738 49.6654C119.291 49.781 118.764 49.8734 118.232 49.9798C117.074 50.1824 115.907 50.3243 114.735 50.4051C113.564 50.4671 112.391 50.4671 111.22 50.4051C110.679 50.3681 110.166 50.3403 109.688 50.2849L108.996 50.2109L108.357 50.1184C107.95 50.0676 107.589 49.9936 107.267 49.9382C106.945 49.8827 106.673 49.8226 106.45 49.7717L105.936 49.6515L105.802 49.6192H105.757C105.757 49.6192 105.757 49.6192 105.806 49.6192L105.94 49.6423L106.459 49.744C106.682 49.7902 106.954 49.8457 107.276 49.8919C107.598 49.9382 107.959 50.0167 108.366 50.063L109.005 50.1462C109.223 50.1739 109.451 50.1924 109.692 50.2155C110.17 50.2664 110.684 50.2941 111.22 50.3265C112.301 50.3727 113.489 50.3727 114.731 50.2987C115.972 50.2248 117.152 50.063 118.215 49.8827C118.746 49.781 119.251 49.6931 119.72 49.5776C119.952 49.5221 120.167 49.4759 120.399 49.4204L121.02 49.2586C121.417 49.1615 121.77 49.046 122.078 48.9535C122.386 48.861 122.659 48.7732 122.878 48.6992L123.378 48.5328L123.508 48.4912L123.552 48.5097Z" fill="white"/>
<path d="M87.4613 94.1328L89.2971 111.593L100.16 115.342L100.606 120.779L85.2771 119.716C85.2771 119.716 80.5515 119.836 79.5242 113.392L79.274 96.4535L87.4613 94.1328Z" fill="#FFBE9D"/>
<path d="M110.004 120.687C109.908 120.806 109.779 120.891 109.635 120.932C109.491 120.974 109.338 120.969 109.196 120.918C109.134 120.898 109.075 120.869 109.022 120.83C108.638 120.581 108.901 119.707 108.901 119.707L106.99 118.824C106.99 118.824 103.939 119.85 102.719 120.747C101.5 121.644 99.374 120.068 99.374 120.068L99.6822 115.445L104.247 113.004C104.247 113.004 103.97 113.147 104.39 112.569C104.81 111.991 105.904 112.569 105.904 112.569C106.163 112.301 106.949 112.394 106.949 112.394L110.076 113.66C110.393 113.791 110.678 113.993 110.91 114.252C111.142 114.511 111.315 114.821 111.416 115.158L112.211 117.77C112.211 117.77 112.524 119.582 112.314 119.924C112.223 120.067 112.084 120.171 111.924 120.214C111.764 120.258 111.594 120.238 111.447 120.16C111.447 120.16 111.001 121.172 110.737 121.14C110.464 121.049 110.209 120.907 109.987 120.719L110.004 120.687Z" fill="#FFBE9D"/>
<path d="M103.59 120.229C103.671 120.203 103.748 120.169 103.822 120.127L104.484 119.826C105.302 119.467 106.14 119.158 106.994 118.902H106.945L108.856 119.803L108.807 119.697C108.759 119.864 108.729 120.036 108.718 120.21C108.697 120.404 108.731 120.6 108.816 120.774C108.874 120.861 108.955 120.93 109.048 120.973C109.134 121.022 109.228 121.054 109.325 121.065C109.527 121.087 109.729 121.035 109.897 120.917C109.94 120.887 109.981 120.853 110.018 120.816L110.044 120.788H109.919L109.973 120.834L110.21 120.996C110.291 121.052 110.376 121.102 110.464 121.144C110.511 121.168 110.561 121.187 110.612 121.199C110.674 121.222 110.742 121.222 110.804 121.199C110.911 121.154 111.004 121.079 111.072 120.982C111.134 120.9 111.191 120.813 111.241 120.723C111.347 120.546 111.441 120.363 111.523 120.173L111.384 120.224C111.512 120.292 111.656 120.322 111.799 120.311C111.942 120.301 112.08 120.25 112.197 120.164C112.318 120.071 112.404 119.937 112.439 119.785C112.482 119.648 112.511 119.507 112.523 119.364C112.506 118.814 112.449 118.265 112.354 117.723V117.723C112.22 117.261 112.077 116.798 111.929 116.336C111.84 116.036 111.751 115.744 111.661 115.449C111.584 115.148 111.477 114.857 111.34 114.58C111.19 114.306 110.986 114.068 110.741 113.881C110.505 113.705 110.243 113.569 109.964 113.479L107.007 112.291H106.985C106.795 112.273 106.603 112.273 106.413 112.291C106.213 112.3 106.02 112.374 105.864 112.504H105.984C105.839 112.382 105.667 112.298 105.483 112.26C105.3 112.221 105.11 112.229 104.93 112.282C104.609 112.414 104.347 112.667 104.198 112.989L104.233 112.952L101.107 114.621L100.254 115.083C100.151 115.131 100.054 115.19 99.9634 115.259C100.07 115.222 100.175 115.177 100.276 115.125L101.143 114.7L104.318 113.096H104.341V113.068C104.474 112.788 104.703 112.571 104.984 112.458C105.137 112.415 105.298 112.41 105.454 112.445C105.609 112.479 105.754 112.552 105.877 112.656L105.94 112.707L105.998 112.652C106.128 112.556 106.284 112.504 106.444 112.504C106.621 112.485 106.799 112.485 106.976 112.504H106.954L109.902 113.71C110.161 113.798 110.407 113.926 110.63 114.089C110.85 114.258 111.034 114.472 111.17 114.718C111.299 114.984 111.4 115.263 111.474 115.55C111.559 115.842 111.652 116.137 111.742 116.433C111.885 116.896 112.032 117.358 112.166 117.82C112.26 118.35 112.319 118.886 112.34 119.424C112.343 119.55 112.334 119.675 112.313 119.799C112.288 119.903 112.228 119.994 112.144 120.058C112.057 120.118 111.956 120.154 111.852 120.16C111.747 120.167 111.643 120.144 111.55 120.095L111.451 120.053L111.411 120.15C111.333 120.331 111.245 120.507 111.148 120.677C111.073 120.832 110.962 120.965 110.826 121.065C110.798 121.072 110.769 121.072 110.741 121.065C110.7 121.054 110.659 121.039 110.621 121.019C110.541 120.981 110.463 120.937 110.388 120.89C110.312 120.839 110.237 120.788 110.165 120.732L110.111 120.691C110.228 120.691 109.951 120.691 109.977 120.691L109.955 120.714C109.927 120.744 109.895 120.77 109.861 120.793C109.731 120.887 109.573 120.93 109.415 120.913C109.339 120.904 109.266 120.879 109.2 120.839C109.133 120.816 109.075 120.77 109.035 120.709C108.928 120.411 108.928 120.083 109.035 119.785V119.711L108.968 119.678L107.047 118.805H107.021H106.998C106.144 119.079 105.308 119.412 104.497 119.803C104.211 119.942 103.997 120.058 103.854 120.141C103.762 120.156 103.673 120.186 103.59 120.229V120.229Z" fill="#EB996E"/>
<path d="M106.15 113.864C106.438 114.113 106.76 114.317 107.106 114.47C107.937 114.892 108.816 115.203 109.723 115.394L109.634 115.293C109.634 115.468 109.661 115.658 109.683 115.852C109.814 116.934 110.144 117.979 110.657 118.931C110.809 119.218 110.982 119.493 111.175 119.754C111.313 119.939 111.398 120.031 111.407 120.022C111.416 120.013 111.148 119.587 110.791 118.857C110.334 117.904 110.032 116.879 109.897 115.824C109.875 115.635 109.862 115.45 109.848 115.279V115.205H109.763C108.872 115.02 108.002 114.736 107.168 114.359C106.534 114.049 106.168 113.818 106.15 113.864Z" fill="#EB996E"/>
<path d="M108.722 116.656C108.667 118.096 109.163 119.499 110.102 120.563C110.156 120.526 109.624 119.754 109.249 118.672C108.874 117.59 108.789 116.647 108.722 116.656Z" fill="#EB996E"/>
<path d="M99.0792 118.547C99.0792 118.547 99.106 118.584 99.1686 118.64C99.2577 118.719 99.3533 118.79 99.4544 118.852C99.8299 119.103 100.248 119.277 100.687 119.365C101.361 119.5 102.057 119.436 102.697 119.181C103.508 118.849 104.186 118.241 104.618 117.456L104.479 117.502C105.484 118.003 106.573 118.293 107.686 118.358C107.985 118.39 108.287 118.371 108.58 118.302C108.744 118.264 108.889 118.164 108.986 118.02C109.03 117.947 109.06 117.866 109.072 117.781C109.084 117.696 109.079 117.609 109.058 117.526C109.015 117.36 108.91 117.219 108.767 117.133L108.419 116.934C107.499 116.421 106.632 116.009 105.927 115.672C105.221 115.334 104.587 115.103 104.193 114.946C103.982 114.852 103.762 114.781 103.537 114.733C103.738 114.847 103.947 114.946 104.162 115.029C104.569 115.21 105.149 115.492 105.864 115.815C106.579 116.139 107.414 116.596 108.321 117.119L108.665 117.318C108.711 117.345 108.752 117.383 108.784 117.427C108.816 117.472 108.839 117.522 108.852 117.576C108.866 117.631 108.87 117.689 108.862 117.745C108.854 117.802 108.836 117.856 108.807 117.905C108.738 118.001 108.636 118.065 108.522 118.085C108.252 118.145 107.974 118.161 107.7 118.131C106.616 118.063 105.555 117.782 104.573 117.304L104.484 117.257L104.435 117.35C104.036 118.094 103.406 118.677 102.648 119.005C102.04 119.262 101.376 119.34 100.727 119.231C100.301 119.159 99.8886 119.014 99.508 118.801C99.2222 118.64 99.0882 118.533 99.0792 118.547Z" fill="#EB996E"/>
<path d="M112.184 183.794C112.217 183.651 112.217 183.502 112.184 183.359C112.119 182.963 111.975 182.585 111.76 182.25C111.69 182.131 111.605 182.024 111.506 181.931C111.443 181.87 111.367 181.828 111.283 181.808C111.2 181.789 111.113 181.793 111.032 181.82C110.983 181.838 110.939 181.867 110.903 181.906C110.866 181.944 110.839 181.991 110.822 182.042C110.792 182.136 110.792 182.238 110.822 182.333C110.883 182.494 110.958 182.648 111.046 182.795C111.206 183.082 111.345 183.368 111.555 183.692C111.618 183.784 111.704 183.857 111.804 183.903C111.904 183.949 112.013 183.968 112.122 183.955C112.321 183.919 112.508 183.834 112.667 183.706C112.961 183.483 113.229 183.225 113.466 182.938C113.58 182.803 113.686 182.661 113.784 182.513C113.892 182.367 113.973 182.201 114.02 182.023C114.046 181.919 114.036 181.81 113.992 181.713C113.948 181.616 113.873 181.537 113.779 181.492C113.691 181.465 113.599 181.463 113.51 181.484C113.42 181.505 113.338 181.549 113.27 181.612C113.068 181.796 112.889 182.005 112.738 182.236C112.516 182.561 112.338 182.918 112.211 183.294C112.152 183.426 112.122 183.57 112.122 183.715C112.33 183.228 112.585 182.764 112.881 182.328C113.03 182.119 113.202 181.93 113.395 181.764C113.435 181.727 113.483 181.7 113.535 181.686C113.587 181.672 113.642 181.672 113.694 181.686C113.738 181.713 113.772 181.754 113.79 181.804C113.808 181.854 113.809 181.908 113.792 181.958C113.75 182.102 113.68 182.236 113.587 182.351C113.493 182.49 113.39 182.624 113.283 182.754C113.054 183.021 112.798 183.262 112.519 183.475C112.389 183.579 112.235 183.648 112.073 183.678C112.007 183.687 111.939 183.677 111.879 183.648C111.818 183.62 111.766 183.574 111.729 183.516C111.555 183.253 111.389 182.925 111.224 182.656C111.146 182.529 111.076 182.396 111.014 182.259C110.97 182.134 111.014 182.051 111.077 182.019C111.269 181.935 111.456 182.162 111.586 182.351C111.873 182.788 112.076 183.278 112.184 183.794V183.794Z" fill="#263238"/>
<path d="M101.281 184.182L95.868 196.326L87.1313 192.147L92.728 177.118L101.281 184.182Z" fill="#FFBE9D"/>
<path d="M96.8904 195.513L93.7236 201.758C93.7236 201.758 101.804 210.435 101.062 212.358L82.0256 202.914L87.256 190.391L96.8904 195.513Z" fill="#3860EC"/>
<path d="M88.2342 197.981C88.0247 197.948 87.811 197.997 87.6339 198.117C87.4568 198.237 87.3286 198.421 87.2739 198.632C87.2321 198.848 87.2725 199.071 87.3866 199.257C87.5006 199.442 87.6795 199.574 87.8858 199.626C88.1088 199.666 88.338 199.616 88.527 199.487C88.716 199.359 88.8508 199.16 88.9042 198.933C88.9232 198.703 88.8558 198.475 88.7159 198.296C88.576 198.117 88.3746 198 88.1538 197.971" fill="#E0E0E0"/>
<g opacity="0.6">
<path d="M82.0256 202.914L82.8207 201.342L100.772 210.99C100.772 210.99 101.446 211.789 101.062 212.377L82.0256 202.914Z" fill="white"/>
</g>
<path d="M94.0809 201.809C94.0318 201.906 93.5494 201.716 92.9464 201.809C92.3434 201.901 91.9146 202.174 91.8476 202.095C91.7806 202.017 92.1782 201.527 92.9062 201.439C93.6343 201.351 94.1435 201.73 94.0809 201.809Z" fill="#263238"/>
<path d="M95.6797 203.658C95.6574 203.76 95.1795 203.723 94.6748 203.972C94.17 204.222 93.8797 204.61 93.7814 204.559C93.6832 204.508 93.8842 203.935 94.5184 203.635C95.1527 203.334 95.7199 203.561 95.6797 203.658Z" fill="#263238"/>
<path d="M95.6712 206.69C95.5774 206.69 95.6712 206.126 96.1536 205.715C96.636 205.303 97.1675 205.313 97.1675 205.414C97.1675 205.516 96.77 205.664 96.3814 206.001C95.9928 206.339 95.765 206.736 95.6712 206.69Z" fill="#263238"/>
<path d="M94.9874 199.405C94.907 199.474 94.5407 199.127 94.0003 198.905C93.4598 198.683 92.9685 198.651 92.9596 198.545C92.9506 198.438 93.5 198.291 94.1388 198.545C94.7775 198.799 95.0678 199.34 94.9874 199.405Z" fill="#263238"/>
<path d="M98.6774 193.895L112.948 156.912C112.948 156.912 112.627 150.606 111.505 148.614C110.384 146.622 76.3847 135.004 76.3847 135.004C76.3847 135.004 67.724 132.846 61.9532 135.004C56.1824 137.163 51.8498 144.629 52.6493 148.78C53.4488 152.932 57.1382 156.306 57.1382 156.306L81.8384 156.769L95.4615 161.895L86.2827 189.119L98.6774 193.895Z" fill="#263238"/>
<path d="M111.367 168.63L111.688 182.004L102.067 182.244L100.683 166.203L111.367 168.63Z" fill="#FFBE9D"/>
<path d="M112.26 180.806L112.077 187.856C112.077 187.856 123.038 191.934 123.181 194.019L102.072 194.24L101.424 180.612L112.26 180.806Z" fill="#3860EC"/>
<path d="M105.547 186.978C105.344 187.045 105.173 187.186 105.065 187.376C104.957 187.565 104.92 187.789 104.962 188.005C105.019 188.217 105.152 188.398 105.334 188.511C105.516 188.625 105.733 188.662 105.94 188.615C106.157 188.547 106.34 188.397 106.454 188.194C106.567 187.992 106.602 187.752 106.552 187.524C106.472 187.309 106.314 187.136 106.113 187.039C105.911 186.943 105.681 186.931 105.471 187.006" fill="#E0E0E0"/>
<g opacity="0.6">
<path d="M102.081 194.254L102.122 192.483L122.346 192.946C122.346 192.946 123.293 193.357 123.19 194.046L102.081 194.254Z" fill="white"/>
</g>
<path d="M112.425 187.741C112.425 187.847 111.907 187.903 111.407 188.25C110.907 188.596 110.634 189.049 110.54 189.008C110.446 188.966 110.594 188.351 111.21 187.94C111.827 187.528 112.448 187.644 112.425 187.741Z" fill="#263238"/>
<path d="M114.65 188.665C114.676 188.767 114.23 188.956 113.886 189.409C113.542 189.862 113.439 190.334 113.341 190.334C113.243 190.334 113.167 189.728 113.604 189.169C114.042 188.61 114.645 188.563 114.65 188.665Z" fill="#263238"/>
<path d="M115.936 191.393C115.842 191.421 115.69 190.889 115.936 190.302C116.182 189.715 116.678 189.475 116.722 189.563C116.767 189.65 116.472 189.969 116.276 190.455C116.079 190.94 116.034 191.384 115.936 191.393Z" fill="#263238"/>
<path d="M112.215 185.171C112.175 185.268 111.697 185.125 111.116 185.171C110.536 185.217 110.08 185.411 110.027 185.323C109.973 185.236 110.406 184.861 111.094 184.801C111.782 184.741 112.264 185.083 112.215 185.171Z" fill="#263238"/>
<path d="M105.748 131.509C105.748 131.509 111.514 131.047 112.153 137.519C112.792 143.991 113.417 174.187 113.417 174.187L99.9457 175.352L97.8598 144.481L76.3711 135.018C76.3711 135.018 101.898 130.682 105.748 131.509Z" fill="#263238"/>
<path d="M81.9901 122.777C81.9901 122.777 85.4875 132.948 84.8219 134.062C84.1564 135.176 75.1562 139.845 75.1562 139.845L52.6447 148.795C52.6447 148.795 50.3354 144.99 50.3354 139.142C50.3354 133.294 58.1654 122.777 58.1654 122.777H81.9901Z" fill="#263238"/>
<path d="M75.3171 134.5C75.3171 134.5 75.3484 134.523 75.4199 134.56L75.7415 134.713L76.9876 135.286L81.6686 137.394L97.8242 144.592L97.7483 144.485C97.9538 147.536 98.1726 150.832 98.4049 154.239C98.9498 162.205 99.4546 169.546 99.8565 175.357V175.463H99.9593L109.786 174.571L112.466 174.312L113.171 174.233C113.253 174.228 113.333 174.216 113.413 174.196H113.171L112.461 174.242L109.754 174.451L99.928 175.25L100.035 175.347C99.6511 169.536 99.1642 162.191 98.6372 154.226C98.4049 150.819 98.1905 147.523 97.9716 144.476V144.397L97.9046 144.37L81.7133 137.255L77.0055 135.212L75.7459 134.676L75.4154 134.542L75.3171 134.5Z" fill="#455A64"/>
<path d="M57.4099 135.516C57.626 135.475 57.8382 135.415 58.0442 135.336L59.737 134.772C61.5871 134.124 63.4839 133.627 65.4096 133.288C67.3344 132.962 69.2996 132.987 71.2161 133.362C72.0028 133.554 72.7795 133.787 73.5432 134.06C73.3604 133.935 73.164 133.833 72.9581 133.755C72.4083 133.514 71.8388 133.323 71.2563 133.187C69.3229 132.748 67.3265 132.695 65.3738 133.029C63.4334 133.375 61.5283 133.907 59.6834 134.62C58.9732 134.878 58.4015 135.105 58.0129 135.262C57.8041 135.326 57.6021 135.411 57.4099 135.516Z" fill="#455A64"/>
<path d="M60.5952 130.164C61.2497 130.122 61.906 130.122 62.5605 130.164C63.168 130.206 63.9005 130.303 64.6955 130.4C65.4906 130.497 66.375 130.608 67.2862 130.788C68.8502 131.047 70.3498 131.622 71.6991 132.48C72.2362 132.868 72.7466 133.295 73.2267 133.756C73.1399 133.594 73.03 133.445 72.9006 133.317C72.5686 132.947 72.1987 132.615 71.7974 132.328C70.4498 131.406 68.9266 130.794 67.3308 130.534C66.4062 130.349 65.5174 130.247 64.7134 130.159C63.9094 130.072 63.1858 129.998 62.5694 129.979C62.0817 129.957 61.593 129.979 61.1089 130.044C60.9328 130.057 60.7596 130.098 60.5952 130.164V130.164Z" fill="#455A64"/>
<path d="M70.5375 48.5847C67.9469 48.1224 65.6689 49.158 63.4848 50.6696C61.3058 52.2258 59.6382 54.4339 58.7055 56.9983C57.6683 59.6798 57.5021 62.6378 58.2321 65.4257C58.6067 66.8077 59.2479 68.0969 60.1168 69.2155C60.9858 70.3341 62.0646 71.2591 63.2882 71.9346C66.656 73.7052 70.9663 73.0904 73.9812 70.7327C76.9962 68.3751 78.7203 64.4734 78.8632 60.5625C79.0002 57.8505 78.3095 55.1626 76.889 52.8793C76.1717 51.7507 75.2377 50.7869 74.145 50.0481C73.0523 49.3092 71.8243 48.8111 70.5375 48.5847" fill="#263238"/>
<path d="M63.1728 57.7012C63.5525 56.6749 63.4051 55.5285 63.5525 54.4421C63.883 52.0475 65.7456 50.129 67.9029 49.1952C69.9084 48.3261 72.3695 48.5156 74.7725 49.3246C76.4486 49.8521 77.9451 50.8622 79.0872 52.237C79.815 53.1696 80.3164 54.269 80.5495 55.4432C80.7827 56.6174 80.7407 57.8323 80.4272 58.9864L68.5952 57.2066C67.4875 58.1542 66.3619 59.1158 65.022 59.6474C64.6349 59.8242 64.2102 59.8942 63.7892 59.8508C63.579 59.8254 63.3803 59.7378 63.2171 59.5984C63.0539 59.459 62.933 59.2737 62.8691 59.0649C62.7395 58.6027 63.0075 58.145 63.1728 57.7012Z" fill="#263238"/>
<path d="M75.0041 52.705L64.6729 54.9701C64.1935 55.008 63.7449 55.2292 63.4146 55.5907C63.0843 55.9522 62.8959 56.4281 62.8862 56.9256L63.0113 80.0675C63.0208 81.6467 63.5325 83.1787 64.4674 84.4268L65.4545 85.7443C67.6878 88.7445 72.2482 88.4394 73.9634 85.0879C74.0682 84.8974 74.1493 84.6939 74.2046 84.4823C74.2358 84.2743 74.2894 84.1356 74.2983 83.9599L74.4993 81.704C74.5976 79.6422 74.611 77.5434 74.611 77.5712C74.611 77.5989 78.8409 77.0164 79.9218 71.3766C80.4622 68.5751 80.498 63.9431 80.4086 60.1523C80.3372 56.7407 78.3138 52.4784 75.0041 52.705Z" fill="#FFBE9D"/>
<path d="M78.6754 64.8802C78.6696 65.0699 78.5927 65.2498 78.461 65.3818C78.3293 65.5139 78.1531 65.5876 77.9697 65.5875C77.88 65.5912 77.7905 65.5764 77.7064 65.5438C77.6224 65.5113 77.5454 65.4617 77.4801 65.398C77.4148 65.3343 77.3624 65.2577 77.3261 65.1728C77.2897 65.0878 77.2701 64.9962 77.2684 64.9034C77.2731 64.7133 77.3497 64.5327 77.4816 64.4004C77.6136 64.2682 77.7904 64.1948 77.9741 64.1961C78.064 64.1917 78.1537 64.2061 78.2381 64.2384C78.3224 64.2708 78.3996 64.3203 78.465 64.3842C78.5305 64.448 78.5828 64.5248 78.619 64.6101C78.6551 64.6953 78.6743 64.7872 78.6754 64.8802Z" fill="#263238"/>
<path d="M79.3549 62.5038C79.2656 62.5963 78.7475 62.1664 77.9926 62.1386C77.2378 62.1109 76.6526 62.4807 76.5857 62.3836C76.5187 62.2866 76.6437 62.171 76.8938 61.9953C77.2296 61.7754 77.6225 61.6673 78.0194 61.6856C78.413 61.6995 78.7918 61.8437 79.1003 62.097C79.3281 62.305 79.3996 62.5038 79.3549 62.5038Z" fill="#263238"/>
<path d="M71.6857 64.505C71.6799 64.6947 71.603 64.8746 71.4713 65.0066C71.3396 65.1387 71.1634 65.2124 70.98 65.2123C70.8907 65.2154 70.8017 65.2001 70.7181 65.1673C70.6346 65.1344 70.5582 65.0847 70.4933 65.0211C70.4285 64.9574 70.3765 64.8811 70.3405 64.7964C70.3044 64.7118 70.2849 64.6206 70.2832 64.5282C70.2879 64.3381 70.3644 64.1575 70.4964 64.0252C70.6284 63.893 70.8052 63.8196 70.9889 63.8209C71.0784 63.8172 71.1677 63.832 71.2515 63.8646C71.3353 63.8972 71.4119 63.9469 71.4769 64.0107C71.5419 64.0745 71.5938 64.1511 71.6297 64.236C71.6655 64.3209 71.6846 64.4124 71.6857 64.505Z" fill="#263238"/>
<path d="M72.1726 62.3284C72.0832 62.4208 71.5651 61.9909 70.8058 61.9632C70.0465 61.9354 69.4658 62.3053 69.4033 62.2036C69.3407 62.1019 69.4613 61.9909 69.707 61.8199C70.0438 61.5984 70.4385 61.4903 70.837 61.5101C71.2306 61.524 71.6095 61.6683 71.918 61.9216C72.1458 62.1157 72.2172 62.2868 72.1726 62.3284Z" fill="#263238"/>
<path d="M74.4414 68.2831C74.8453 68.1715 75.2607 68.111 75.6787 68.1028C75.8707 68.1028 76.0583 68.0566 76.0941 67.9225C76.1193 67.717 76.0818 67.5085 75.9869 67.3262C75.8261 66.8362 75.6519 66.3184 75.4732 65.7821C74.763 63.5817 74.2538 61.7742 74.3387 61.7464C74.4236 61.7187 75.0712 63.4754 75.7859 65.6758C75.9556 66.2167 76.1209 66.7345 76.2727 67.2291C76.3875 67.4752 76.4129 67.7558 76.3442 68.0196C76.3143 68.0888 76.2693 68.1498 76.2127 68.198C76.1561 68.2461 76.0895 68.28 76.0181 68.297C75.9099 68.3234 75.7989 68.3359 75.6876 68.334C75.2718 68.3719 74.8531 68.3548 74.4414 68.2831Z" fill="#263238"/>
<path d="M74.6159 77.5702C72.035 77.5104 69.5208 76.7102 67.3533 75.2588C67.3533 75.2588 69.0506 79.2622 74.5579 78.9571L74.6159 77.5702Z" fill="#EB996E"/>
<path d="M74.0533 70.1596C73.9177 69.9639 73.7352 69.8081 73.5237 69.7076C73.3123 69.6071 73.0792 69.5653 72.8474 69.5864C72.6757 69.5955 72.5077 69.6413 72.354 69.7208C72.2003 69.8004 72.0641 69.912 71.954 70.0486C71.849 70.1744 71.7838 70.3304 71.767 70.4957C71.7502 70.661 71.7828 70.8276 71.8602 70.9732C71.975 71.1208 72.1308 71.2283 72.3066 71.2812C72.4823 71.3341 72.6695 71.3299 72.8429 71.2691C73.2043 71.154 73.5399 70.9654 73.83 70.7143C73.9181 70.6547 73.9939 70.5777 74.0533 70.4878C74.0816 70.4449 74.0967 70.3941 74.0967 70.3422C74.0967 70.2903 74.0816 70.2395 74.0533 70.1966" fill="#EB996E"/>
<path d="M72.1947 68.7356C72.3198 68.7356 72.2885 69.5816 72.9674 70.215C73.6464 70.8483 74.5263 70.7882 74.5263 70.9084C74.5263 70.9592 74.3253 71.0656 73.959 71.0609C73.4774 71.0482 73.0155 70.86 72.6548 70.5293C72.3077 70.2122 72.0931 69.768 72.0563 69.2904C72.0384 68.9344 72.1411 68.7264 72.1947 68.7356Z" fill="#263238"/>
<path d="M72.1279 60.0086C72.0475 60.2166 71.2971 60.0871 70.4038 60.1611C69.5105 60.2351 68.7869 60.457 68.6752 60.2628C68.6261 60.1657 68.7601 59.9716 69.0549 59.7774C69.4504 59.5405 69.8928 59.3999 70.3487 59.3663C70.8045 59.3327 71.2617 59.4068 71.6857 59.5833C72.0073 59.7312 72.1681 59.9069 72.1279 60.0086Z" fill="#263238"/>
<path d="M79.2654 59.0871C79.1224 59.2582 78.6088 59.0548 77.9834 59.0224C77.3581 58.9901 76.8221 59.0918 76.706 58.9022C76.6569 58.8098 76.7462 58.6341 76.9874 58.4769C77.3035 58.2822 77.6706 58.1949 78.037 58.2273C78.4051 58.2489 78.7577 58.3877 79.0465 58.6249C79.2609 58.8052 79.3279 59.0039 79.2654 59.0871Z" fill="#263238"/>
<path d="M61.2783 56.0326C62.3503 52.7966 67.0268 48.3402 70.3366 48.6361L75.5625 52.0292C75.3733 52.9609 74.9442 53.8222 74.3206 54.5221C73.6971 55.2219 72.9023 55.7343 72.0205 56.0049C71.078 56.2776 69.9524 56.3377 69.3762 57.1606C68.8 57.9834 69.1038 59.2408 68.5544 60.1099C67.7995 61.3073 65.7985 61.2102 65.2223 62.5138C64.9722 63.0824 65.0839 63.7712 64.8203 64.3398C64.4719 65.0887 62.587 66.0133 61.8367 65.7267C61.0863 65.4401 61.0952 64.1087 60.8585 63.4153C60.5562 62.6083 60.5341 61.7178 60.7959 60.8958C61.1577 59.3194 60.7647 57.5997 61.2783 56.0326Z" fill="#263238"/>
<path d="M64.0882 66.4884C64.0882 66.0677 63.6683 65.0553 63.2708 64.9721C62.1988 64.7548 60.2559 64.7687 60.1442 67.5932C59.9745 71.4626 63.7621 70.8292 63.7711 70.7322C63.78 70.6351 64.0391 67.9492 64.0882 66.4884Z" fill="#FFBE9D"/>
<path d="M62.6815 69.2114C62.6815 69.2114 62.6145 69.2576 62.5028 69.3039C62.3465 69.3684 62.1722 69.3684 62.0159 69.3039C61.6273 69.1375 61.3236 68.4718 61.337 67.7737C61.3405 67.4414 61.4169 67.1142 61.5603 66.8168C61.6009 66.6975 61.6688 66.5901 61.7583 66.504C61.8477 66.4178 61.9561 66.3554 62.074 66.3221C62.1496 66.3061 62.2282 66.3176 62.2966 66.3547C62.365 66.3918 62.4189 66.4521 62.4492 66.5255C62.4939 66.6365 62.4492 66.7151 62.4849 66.7197C62.5207 66.7243 62.5698 66.6596 62.5475 66.4978C62.5281 66.4015 62.4796 66.314 62.409 66.2482C62.3107 66.1631 62.1839 66.1216 62.0561 66.1326C61.9015 66.1575 61.7555 66.2227 61.632 66.3222C61.5085 66.4217 61.4116 66.5521 61.3504 66.7012C61.1748 67.0283 61.0797 67.395 61.0735 67.7691C61.0735 68.5504 61.4174 69.2946 61.9668 69.4842C62.0657 69.5183 62.1706 69.5294 62.2741 69.5166C62.3776 69.5039 62.477 69.4675 62.5653 69.4102C62.6725 69.3039 62.6949 69.2207 62.6815 69.2114Z" fill="#EB996E"/>
<path d="M60.4796 55.0437C60.4796 53.8371 59.0324 53.0466 57.8934 52.7692C56.73 52.5624 55.5336 52.7989 54.5256 53.4349C53.9226 53.777 53.3197 54.2578 53.1857 54.9558C53.0517 55.6539 53.6993 56.4767 54.338 56.2271C54.016 56.326 53.7196 56.4988 53.4711 56.7327C53.2225 56.9666 53.0281 57.2554 52.9023 57.5779C52.7766 57.9003 52.7228 58.2479 52.7448 58.5948C52.7669 58.9417 52.8643 59.2791 53.0297 59.5816C53.1952 59.8842 53.4245 60.1442 53.7006 60.3424C53.9766 60.5405 54.2923 60.6717 54.6241 60.726C54.9559 60.7804 55.2953 60.7566 55.6169 60.6564C55.9386 60.5562 56.2343 60.3821 56.482 60.1473C56.1564 61.2654 55.4707 62.2344 54.539 62.8932C55.5069 63.0364 56.4941 62.9129 57.4012 62.5352C58.3082 62.1575 59.103 61.539 59.7054 60.7421C60.3079 59.9451 60.6967 58.9978 60.8326 57.9958C60.9685 56.9937 60.8467 55.9722 60.4796 55.0344V55.0437Z" fill="#263238"/>
<path d="M57.8839 61.196C57.775 60.82 57.7282 60.4278 57.7454 60.0357C57.7277 58.1243 58.3336 56.2626 59.4651 54.7518C59.6808 54.43 59.9464 54.1473 60.2512 53.915C60.3226 53.9659 59.0675 55.251 58.4109 57.3267C57.7544 59.4023 57.9687 61.196 57.8839 61.196Z" fill="#008CFF"/>
<path d="M74.4772 50.8874C74.8211 52.4638 77.1348 54.484 78.1487 55.709C80.0872 58.0482 80.4669 58.8248 80.449 64.0301C81.3423 62.2226 82.0615 60.452 81.99 58.418C81.9486 56.3576 81.1796 54.3842 79.8282 52.8706C79.1475 52.1271 78.3084 51.5586 77.3779 51.2102C76.4473 50.8619 75.4509 50.7434 74.4683 50.8643" fill="#263238"/>
<path d="M90.3247 93.9104C90.3247 93.9104 86.3048 86.9762 85.1792 85.557C84.2804 84.4714 83.1526 83.6142 81.8828 83.0514C81.3796 82.834 80.8534 82.6789 80.3151 82.5891L74.5085 81.2624C74.5085 81.2624 74.5085 85.349 70.3591 85.6032C66.2096 85.8575 62.7301 79.8848 62.7301 79.8848C62.7301 79.8848 56.0303 80.9573 54.4357 81.8079C52.8411 82.6585 50.322 83.7448 48.9373 90.9195L47.9636 97.9369L59.5142 99.0233L60.6174 116.766L66.3391 120.889C66.3391 120.889 82.2 125.156 83.2139 125.438C84.2278 125.72 84.5539 99.0233 84.5539 99.0233C84.5539 99.0233 88.6363 96.3004 90.3247 93.9104Z" fill="white"/>
<path d="M82.7313 90.9307C82.824 91.091 82.8989 91.2615 82.9547 91.4392C83.0842 91.7766 83.2539 92.2667 83.4415 92.8861C84.4095 96.1098 84.8089 99.4874 84.6207 102.858C84.5805 103.5 84.5358 104.023 84.4822 104.378C84.4702 104.565 84.4387 104.749 84.3884 104.929C84.367 104.743 84.367 104.555 84.3884 104.369C84.4108 104.009 84.4376 103.491 84.451 102.848C84.4945 101.176 84.4199 99.5028 84.2276 97.8418C84.0264 96.1839 83.7099 94.5432 83.2807 92.9324C83.1155 92.3129 82.9681 91.8136 82.8653 91.4715C82.8028 91.2965 82.7579 91.1152 82.7313 90.9307V90.9307Z" fill="#263238"/>
<path d="M82.2403 119.989L60.5193 115.098L59.5143 99.0242L49.8575 98.0996C49.8575 98.0996 50.2149 109.083 50.5856 112.352C51.1171 117.049 53.8015 123.447 55.3693 124.736C56.9371 126.026 83.214 125.439 83.214 125.439L82.2403 119.989Z" fill="#FFBE9D"/>
<path d="M94.5681 122.901C94.4956 123.057 94.3801 123.187 94.2361 123.274C94.0921 123.361 93.9262 123.402 93.7597 123.391C93.6882 123.384 93.6177 123.369 93.5497 123.345C93.0673 123.188 93.1031 122.176 93.1031 122.176L90.8028 121.787C90.8028 121.787 87.8102 123.784 86.7427 125.106C85.6752 126.429 82.9639 125.361 82.9639 125.361L82.0215 120.276L86.2603 116.309C86.2603 116.309 85.9967 116.55 86.2915 115.805C86.5863 115.061 87.9129 115.343 87.9129 115.343C88.1228 114.978 88.9894 114.844 88.9894 114.844L92.7056 115.306C93.0838 115.351 93.4474 115.483 93.7697 115.693C94.0921 115.902 94.3649 116.184 94.5681 116.517L96.1404 119.092C96.1404 119.092 96.9711 120.941 96.8371 121.38C96.7778 121.56 96.6566 121.711 96.4968 121.804C96.3369 121.896 96.1496 121.925 95.9706 121.884C95.9706 121.884 95.7875 123.105 95.4793 123.146C95.1614 123.129 94.8493 123.051 94.5592 122.915L94.5681 122.901Z" fill="#FFBE9D"/>
<path d="M86.6576 119.253C86.6576 119.295 87.1579 119.253 87.9484 119.285C88.981 119.333 90.002 119.53 90.9812 119.873C91.5204 120.059 92.0446 120.29 92.549 120.561C92.9957 120.825 93.4647 121.024 93.6076 121.38C93.6409 121.453 93.6547 121.535 93.6476 121.616C93.6406 121.698 93.6129 121.775 93.5674 121.842C93.5003 121.952 93.402 122.037 93.286 122.087C93.1808 122.122 93.0706 122.14 92.9599 122.138C92.9599 122.138 93.0761 122.244 93.3173 122.175C93.4599 122.132 93.5853 122.043 93.6746 121.92C93.7385 121.837 93.7804 121.738 93.7961 121.632C93.8117 121.527 93.8006 121.419 93.7639 121.319C93.6712 121.097 93.5155 120.908 93.3173 120.779C93.1163 120.64 92.9063 120.501 92.6696 120.367C92.1596 120.077 91.626 119.835 91.075 119.641C90.0748 119.292 89.0263 119.114 87.9708 119.114C87.5288 119.093 87.0863 119.14 86.6576 119.253V119.253Z" fill="#EB996E"/>
<path d="M86.3983 121.707C86.3983 121.781 87.917 121.707 89.775 121.828C91.6331 121.948 93.1295 122.174 93.1384 122.105C92.829 121.979 92.5044 121.896 92.1736 121.86C91.3842 121.721 90.5879 121.628 89.7884 121.583C88.9881 121.536 88.1858 121.536 87.3854 121.583C87.0524 121.577 86.7202 121.619 86.3983 121.707V121.707Z" fill="#EB996E"/>
<path d="M94.5456 122.804C94.5794 122.672 94.5959 122.535 94.5947 122.398C94.6175 122.022 94.6175 121.645 94.5947 121.27C94.582 121.007 94.5477 120.745 94.492 120.488C94.4252 120.187 94.3007 119.902 94.1257 119.652C93.7617 119.07 93.2895 118.568 92.7366 118.177C92.1862 117.783 91.5847 117.472 90.95 117.252C90.4266 117.098 89.8862 117.014 89.342 117.003C88.8954 117.003 88.5113 117.003 88.2567 117.003C88.1228 116.994 87.9885 117.008 87.8591 117.044C88.3479 117.114 88.8399 117.156 89.3331 117.169C89.859 117.206 90.379 117.305 90.883 117.465C91.4889 117.693 92.0628 118.004 92.5892 118.39C93.1154 118.761 93.5698 119.232 93.9292 119.776C94.2189 120.223 94.3857 120.742 94.4116 121.279C94.5188 122.217 94.4965 122.809 94.5456 122.804Z" fill="#EB996E"/>
<path d="M89.177 115.829C89.177 115.866 89.7353 115.88 90.6242 115.986C91.513 116.092 92.8575 116.185 93.6257 117.405C94.3827 118.317 95.014 119.333 95.5017 120.424C95.6608 120.891 95.7789 121.372 95.8545 121.862C95.8858 121.729 95.8934 121.591 95.8769 121.455C95.8543 121.082 95.7806 120.715 95.658 120.364C95.2082 119.23 94.5837 118.179 93.8088 117.253C93.6016 116.97 93.3599 116.717 93.0897 116.499C92.8218 116.298 92.5183 116.153 92.1964 116.074C91.6806 115.933 91.1523 115.846 90.6197 115.815C90.1403 115.754 89.6552 115.759 89.177 115.829Z" fill="#EB996E"/>
<path d="M87.5639 124.288C87.6449 124.239 87.7199 124.18 87.7872 124.112C87.948 123.983 88.1535 123.807 88.4081 123.594C89.1897 122.967 90.0055 122.387 90.8513 121.856H90.7977L93.098 122.263L93.0176 122.161C93.0126 122.356 93.0276 122.552 93.0622 122.744C93.093 122.957 93.183 123.156 93.3213 123.317C93.4087 123.394 93.5157 123.444 93.6295 123.46C93.7355 123.483 93.8451 123.483 93.9511 123.46C94.1737 123.426 94.3767 123.309 94.5228 123.132C94.5619 123.09 94.5964 123.043 94.6255 122.993L94.6479 122.956V122.933L94.5139 122.984L94.5853 123.012L94.8801 123.123C94.9829 123.155 95.0856 123.183 95.1973 123.206C95.2537 123.211 95.3105 123.211 95.367 123.206C95.4408 123.212 95.5148 123.198 95.5814 123.164C95.683 123.082 95.7603 122.971 95.8047 122.845C95.8512 122.741 95.89 122.633 95.9208 122.522C95.9836 122.3 96.0329 122.075 96.0683 121.847L95.9342 121.944C96.0905 121.977 96.2524 121.966 96.4032 121.912C96.554 121.859 96.6882 121.764 96.7918 121.639C96.8951 121.509 96.9505 121.345 96.9482 121.177C96.9405 121.02 96.9134 120.864 96.8678 120.714C96.6966 120.128 96.4846 119.554 96.2335 118.999V118.999C95.97 118.56 95.6841 118.098 95.3983 117.612L94.8667 116.743C94.7023 116.44 94.506 116.156 94.2816 115.897C94.0454 115.65 93.7626 115.455 93.4508 115.324C93.1451 115.208 92.8245 115.14 92.4995 115.121L88.9976 114.714H88.9708C88.761 114.75 88.5547 114.806 88.3545 114.88C88.1416 114.947 87.9552 115.083 87.8229 115.269L87.9525 115.227C87.7625 115.137 87.5542 115.096 87.3457 115.109C87.1371 115.121 86.9345 115.185 86.7554 115.296C86.4458 115.532 86.2349 115.881 86.1658 116.272L86.1971 116.221L83.276 118.939C82.9454 119.249 82.6864 119.499 82.4898 119.688C82.3934 119.77 82.3051 119.861 82.2263 119.961C82.3319 119.893 82.4307 119.814 82.5211 119.725L83.3385 119.013L86.3132 116.355V116.323C86.3781 115.984 86.5629 115.682 86.8314 115.477C86.9841 115.387 87.1555 115.336 87.3312 115.329C87.5068 115.321 87.6816 115.358 87.8408 115.435L87.9212 115.467L87.9703 115.393C88.0869 115.25 88.2426 115.147 88.417 115.098C88.603 115.031 88.7943 114.981 88.9887 114.95H88.9619L92.4592 115.375C92.7647 115.393 93.0658 115.459 93.3526 115.569C93.6363 115.685 93.8934 115.862 94.1074 116.087C94.3177 116.334 94.5019 116.604 94.6568 116.891L95.1883 117.76L96.0281 119.147C96.2724 119.69 96.4813 120.249 96.6534 120.821C96.6925 120.953 96.7179 121.089 96.7293 121.227C96.7348 121.348 96.6947 121.465 96.6176 121.556C96.5417 121.648 96.4429 121.717 96.3319 121.755C96.221 121.793 96.102 121.799 95.9879 121.773H95.8717V121.888C95.8372 122.107 95.791 122.323 95.7333 122.536C95.6965 122.725 95.6135 122.902 95.4921 123.049C95.4625 123.054 95.4323 123.054 95.4027 123.049C95.3552 123.053 95.3073 123.053 95.2598 123.049C95.1617 123.03 95.0647 123.006 94.9695 122.975C94.8757 122.947 94.7819 122.91 94.6881 122.873L94.6211 122.845L94.4871 122.896V122.924C94.4659 122.965 94.4405 123.004 94.4112 123.04C94.2959 123.177 94.138 123.269 93.9645 123.298C93.8803 123.315 93.7941 123.315 93.7099 123.298C93.6324 123.291 93.5591 123.258 93.5 123.206C93.3046 122.916 93.2158 122.564 93.2498 122.212V122.124H93.1739L90.8691 121.75H90.8379H90.8155C89.9702 122.295 89.1628 122.9 88.3991 123.562C88.1356 123.793 87.9525 123.983 87.8006 124.112C87.7162 124.162 87.6369 124.221 87.5639 124.288V124.288Z" fill="#EB996E"/>
<path d="M118.357 108.132L89.7482 108.372C88.8191 108.372 87.9348 108.835 87.7963 109.759L84.6697 131.343H69.93C69.7025 131.343 69.4844 131.437 69.3236 131.603C69.1627 131.769 69.0724 131.995 69.0724 132.231C69.0724 132.466 69.1627 132.692 69.3236 132.858C69.4844 133.025 69.7025 133.118 69.93 133.118H116.99L120.206 110.342C120.243 110.067 120.223 109.788 120.147 109.523C120.071 109.257 119.941 109.012 119.766 108.802C119.591 108.593 119.374 108.425 119.131 108.309C118.888 108.194 118.624 108.133 118.357 108.132V108.132Z" fill="#E0E0E0"/>
<path d="M118.357 108.132C118.507 108.121 118.658 108.135 118.803 108.173C119.244 108.281 119.632 108.548 119.898 108.927C120.093 109.197 120.214 109.516 120.251 109.851C120.261 110.261 120.226 110.67 120.148 111.072L119.732 114.077C119.103 118.598 118.196 125.121 117.079 133.137V133.215H116.99L71.3282 133.243H70.0909C69.8665 133.267 69.6401 133.223 69.4388 133.118C69.2313 133.002 69.0724 132.811 68.9921 132.582C68.9122 132.356 68.9133 132.107 68.9953 131.881C69.0772 131.656 69.2346 131.468 69.4388 131.352C69.6371 131.247 69.8604 131.204 70.082 131.227H84.6475L84.5358 131.325L87.6624 109.916C87.6913 109.484 87.8801 109.08 88.1895 108.788C88.5023 108.52 88.8813 108.347 89.2838 108.289C89.6669 108.252 90.0516 108.239 90.4362 108.247H91.5618L95.8675 108.22L103.523 108.169L114.422 108.113H117.338H118.089H118.343C118.343 108.113 118.259 108.113 118.089 108.113H117.338L114.422 108.16L103.523 108.284L95.8675 108.363L91.5618 108.405H90.4407C90.065 108.397 89.6893 108.411 89.3151 108.446C88.9459 108.499 88.5988 108.659 88.3146 108.908C88.0436 109.173 87.8833 109.536 87.8679 109.921C86.9344 116.393 85.8981 123.6 84.7815 131.329V131.431H70.0909C69.9088 131.407 69.724 131.439 69.5594 131.523C69.4078 131.613 69.291 131.754 69.2291 131.922C69.1671 132.091 69.1639 132.277 69.2199 132.448C69.2826 132.62 69.401 132.763 69.5549 132.855C69.7216 132.943 69.9095 132.978 70.0954 132.956H71.3237L116.986 132.984L116.896 133.063L119.625 114.007C119.791 112.884 119.933 111.881 120.072 111.007C120.151 110.613 120.19 110.212 120.188 109.81C120.159 109.477 120.045 109.158 119.858 108.885C119.601 108.513 119.227 108.246 118.799 108.132C118.652 108.119 118.504 108.119 118.357 108.132Z" fill="#263238"/>
<path d="M101.049 120.363C101.049 120.729 101.154 121.086 101.35 121.39C101.546 121.694 101.825 121.931 102.152 122.071C102.478 122.211 102.837 122.248 103.184 122.176C103.531 122.105 103.849 121.929 104.099 121.67C104.349 121.412 104.519 121.082 104.588 120.724C104.657 120.365 104.621 119.993 104.486 119.655C104.351 119.317 104.122 119.028 103.828 118.825C103.534 118.622 103.189 118.514 102.835 118.514C102.362 118.514 101.907 118.708 101.572 119.055C101.237 119.402 101.049 119.872 101.049 120.363Z" fill="white"/>
<path d="M85.8268 132.942C85.867 132.942 86.7782 127.455 87.8591 120.669C88.94 113.882 89.7887 108.377 89.7485 108.372C89.7083 108.367 88.7971 113.859 87.7162 120.646C86.6353 127.432 85.7866 132.938 85.8268 132.942Z" fill="#263238"/>
</svg>
