<svg width="173" height="176" viewBox="0 0 173 176" fill="none" xmlns="http://www.w3.org/2000/svg">
<g opacity="0.4">
<path d="M33.568 80.264L35.0403 83.3437C35.0786 83.422 35.1348 83.4894 35.2042 83.5402C35.2735 83.5909 35.3539 83.6234 35.4383 83.6348L38.7331 84.1269C38.8289 84.1411 38.9188 84.1826 38.9928 84.2468C39.0667 84.311 39.1217 84.3953 39.1516 84.4901C39.1814 84.5849 39.1849 84.6864 39.1615 84.7831C39.1382 84.8798 39.0891 84.9679 39.0196 85.0373L36.6321 87.4321C36.5714 87.4919 36.5262 87.5663 36.5005 87.6487C36.4748 87.731 36.4694 87.8186 36.4848 87.9036L37.0459 91.2867C37.0619 91.3844 37.0511 91.4847 37.0148 91.5764C36.9785 91.6682 36.9181 91.7477 36.8404 91.806C36.7627 91.8643 36.6708 91.8992 36.575 91.9067C36.4791 91.9142 36.3831 91.8941 36.2978 91.8485L33.3491 90.2533C33.2749 90.2131 33.1922 90.1921 33.1084 90.1921C33.0245 90.1921 32.9419 90.2131 32.8676 90.2533L29.9189 91.8485C29.8336 91.8941 29.7376 91.9142 29.6418 91.9067C29.5459 91.8992 29.454 91.8643 29.3763 91.806C29.2986 91.7477 29.2382 91.6682 29.202 91.5764C29.1657 91.4847 29.1549 91.3844 29.1708 91.2867L29.7319 87.9036C29.7456 87.8186 29.7393 87.7315 29.7137 87.6495C29.6881 87.5675 29.6439 87.4929 29.5847 87.4321L27.1971 85.0373C27.1277 84.9679 27.0785 84.8798 27.0552 84.7831C27.0319 84.6864 27.0353 84.5849 27.0652 84.4901C27.095 84.3953 27.15 84.311 27.224 84.2468C27.2979 84.1826 27.3879 84.1411 27.4836 84.1269L30.7825 83.6348C30.8669 83.6238 30.9474 83.5914 31.0168 83.5406C31.0862 83.4899 31.1424 83.4222 31.1804 83.3437L32.6567 80.264C32.701 80.1792 32.7667 80.1083 32.8469 80.0589C32.9272 80.0095 33.0189 79.9834 33.1123 79.9834C33.2058 79.9834 33.2975 80.0095 33.3778 80.0589C33.458 80.1083 33.5237 80.1792 33.568 80.264Z" fill="#E0E0E0"/>
<path d="M20.0699 62.4754L21.0886 64.6036C21.1137 64.6579 21.1516 64.7048 21.1989 64.7399C21.2462 64.775 21.3014 64.7973 21.3592 64.8046L23.6394 65.149C23.7051 65.1591 23.7669 65.1879 23.8176 65.2321C23.8684 65.2764 23.9063 65.3343 23.9269 65.3994C23.9476 65.4645 23.9502 65.5343 23.9346 65.6009C23.9189 65.6675 23.8856 65.7283 23.8383 65.7764L22.1869 67.4167C22.1453 67.4588 22.1142 67.5106 22.0962 67.5677C22.0782 67.6248 22.0738 67.6855 22.0835 67.7448L22.4814 70.0822C22.4925 70.1497 22.4851 70.2192 22.4601 70.2827C22.435 70.3462 22.3933 70.4013 22.3396 70.4417C22.2859 70.4822 22.2223 70.5064 22.156 70.5117C22.0897 70.517 22.0232 70.5032 21.9641 70.4717L19.9227 69.3686C19.8713 69.3403 19.8139 69.3254 19.7556 69.3254C19.6973 69.3254 19.6398 69.3403 19.5884 69.3686L17.551 70.4717C17.4918 70.5043 17.4249 70.519 17.3579 70.5143C17.2909 70.5095 17.2266 70.4855 17.1722 70.4449C17.1179 70.4042 17.0757 70.3487 17.0505 70.2846C17.0253 70.2204 17.0181 70.1503 17.0297 70.0822L17.4277 67.7448C17.4384 67.6855 17.4345 67.6245 17.4164 67.5672C17.3984 67.5099 17.3667 67.4581 17.3242 67.4167L15.6609 65.7846C15.6136 65.7365 15.5803 65.6757 15.5646 65.6091C15.549 65.5425 15.5516 65.4727 15.5723 65.4076C15.5929 65.3425 15.6308 65.2846 15.6816 65.2403C15.7323 65.1961 15.7941 65.1673 15.8598 65.1572L18.14 64.8128C18.1971 64.8048 18.2515 64.7823 18.298 64.7472C18.3446 64.7121 18.3819 64.6656 18.4066 64.6118L19.4293 62.4836C19.4583 62.4219 19.5034 62.3697 19.5595 62.333C19.6157 62.2962 19.6806 62.2763 19.7471 62.2754C19.8137 62.2746 19.8791 62.2928 19.9361 62.3281C19.9931 62.3635 20.0395 62.4144 20.0699 62.4754V62.4754Z" fill="#E0E0E0"/>
<path d="M93.8464 7.45974L94.5508 8.93599C94.5691 8.97277 94.5956 9.00456 94.6281 9.02879C94.6606 9.05302 94.6982 9.06899 94.7378 9.07541L96.3295 9.30915C96.3755 9.31629 96.4186 9.33645 96.4541 9.36738C96.4896 9.3983 96.516 9.43878 96.5304 9.48429C96.5449 9.52981 96.5468 9.57856 96.5359 9.62511C96.525 9.67167 96.5018 9.71419 96.4688 9.74793L95.3228 10.8961C95.2946 10.9253 95.2738 10.961 95.262 11.0003C95.2502 11.0396 95.2478 11.0812 95.2551 11.1217L95.5217 12.7619C95.5301 12.8089 95.5255 12.8574 95.5084 12.9018C95.4913 12.9462 95.4624 12.9847 95.425 13.0129C95.3876 13.0412 95.3433 13.058 95.297 13.0615C95.2508 13.065 95.2046 13.0549 95.1636 13.0326L93.7509 12.2658C93.715 12.2476 93.6755 12.2382 93.6355 12.2382C93.5955 12.2382 93.5561 12.2476 93.5201 12.2658L92.1075 13.0326C92.0662 13.0544 92.02 13.064 91.9738 13.0604C91.9276 13.0567 91.8832 13.04 91.8457 13.0119C91.8082 12.9839 91.7789 12.9457 91.7612 12.9016C91.7435 12.8574 91.738 12.8091 91.7454 12.7619L92.016 11.1217C92.0234 11.0809 92.0208 11.0388 92.0083 10.9994C91.9957 10.96 91.9738 10.9244 91.9443 10.8961L90.8023 9.74793C90.7693 9.71446 90.7461 9.67226 90.735 9.626C90.7239 9.57974 90.7254 9.53123 90.7394 9.48582C90.7534 9.4404 90.7794 9.39987 90.8143 9.36869C90.8493 9.33751 90.8919 9.31691 90.9376 9.30915L92.5293 9.07541C92.5684 9.06903 92.6055 9.05302 92.6373 9.02876C92.6692 9.00449 92.6949 8.97267 92.7123 8.93599L93.4207 7.45974C93.4424 7.42146 93.4735 7.38971 93.5108 7.36765C93.5482 7.34559 93.5905 7.33398 93.6335 7.33398C93.6766 7.33398 93.7189 7.34559 93.7562 7.36765C93.7936 7.38971 93.8247 7.42146 93.8464 7.45974V7.45974Z" fill="#E0E0E0"/>
<path d="M155.542 83.5276L156.25 84.9997C156.267 85.0379 156.293 85.0711 156.326 85.0962C156.359 85.1212 156.397 85.1374 156.437 85.1433L158.029 85.377C158.075 85.3839 158.118 85.4039 158.153 85.4346C158.188 85.4653 158.214 85.5056 158.228 85.5509C158.242 85.5962 158.244 85.6446 158.233 85.6907C158.221 85.7368 158.198 85.7787 158.164 85.8117L157.022 86.964C156.993 86.9925 156.971 87.0281 156.959 87.0674C156.946 87.1068 156.944 87.1487 156.951 87.1895L157.221 88.8298C157.229 88.8769 157.223 88.9253 157.205 88.9694C157.188 89.0135 157.159 89.0517 157.121 89.0798C157.084 89.1078 157.039 89.1246 156.993 89.1282C156.947 89.1319 156.9 89.1223 156.859 89.1004L155.447 88.3336C155.411 88.3155 155.371 88.3061 155.331 88.3061C155.291 88.3061 155.252 88.3155 155.216 88.3336L153.803 89.1004C153.762 89.1228 153.716 89.1328 153.67 89.1293C153.623 89.1259 153.579 89.109 153.542 89.0808C153.504 89.0525 153.475 89.014 153.458 88.9696C153.441 88.9252 153.437 88.8768 153.445 88.8298L153.716 87.1895C153.722 87.1488 153.718 87.1071 153.706 87.0679C153.693 87.0287 153.672 86.9931 153.644 86.964L152.498 85.8117C152.465 85.7784 152.441 85.7362 152.43 85.6898C152.419 85.6434 152.421 85.5947 152.435 85.5493C152.45 85.504 152.476 85.4637 152.512 85.4332C152.548 85.4028 152.591 85.3833 152.637 85.377L154.229 85.1433C154.269 85.1368 154.307 85.1203 154.34 85.0953C154.372 85.0703 154.398 85.0375 154.416 84.9997L155.12 83.5276C155.142 83.4903 155.173 83.4594 155.21 83.438C155.247 83.4165 155.289 83.4053 155.331 83.4053C155.374 83.4053 155.415 83.4165 155.452 83.438C155.489 83.4594 155.52 83.4903 155.542 83.5276V83.5276Z" fill="#E0E0E0"/>
<path d="M139.207 76.7283L140.373 79.1641C140.401 79.2256 140.444 79.2789 140.498 79.3189C140.551 79.359 140.614 79.3848 140.679 79.3938L143.286 79.7833C143.363 79.7903 143.437 79.8208 143.499 79.8708C143.56 79.9209 143.605 79.9884 143.629 80.0649C143.653 80.1413 143.655 80.2235 143.635 80.301C143.614 80.3786 143.571 80.4481 143.512 80.501L141.626 82.3955C141.579 82.4437 141.544 82.5025 141.523 82.5674C141.503 82.6322 141.497 82.7012 141.507 82.7686L141.953 85.4464C141.97 85.5248 141.965 85.6067 141.937 85.682C141.91 85.7573 141.861 85.8226 141.798 85.8698C141.735 85.917 141.66 85.944 141.582 85.9475C141.504 85.951 141.427 85.9307 141.36 85.8893L139.02 84.6468C138.962 84.6145 138.897 84.5975 138.831 84.5975C138.765 84.5975 138.7 84.6145 138.642 84.6468L136.318 85.877C136.251 85.9184 136.174 85.9387 136.096 85.9352C136.018 85.9317 135.942 85.9047 135.879 85.8575C135.816 85.8103 135.768 85.745 135.74 85.6697C135.713 85.5944 135.708 85.5125 135.725 85.4341L136.171 82.7563C136.181 82.6889 136.175 82.6199 136.154 82.5551C136.133 82.4902 136.098 82.4313 136.051 82.3832L134.165 80.4887C134.106 80.4358 134.064 80.3663 134.043 80.2887C134.022 80.2112 134.024 80.129 134.048 80.0525C134.072 79.9761 134.118 79.9086 134.179 79.8585C134.24 79.8085 134.314 79.778 134.392 79.771L136.998 79.3815C137.064 79.3725 137.126 79.3467 137.18 79.3066C137.233 79.2665 137.276 79.2133 137.305 79.1518L138.471 76.716C138.502 76.6413 138.554 76.5778 138.62 76.5336C138.686 76.4894 138.764 76.4665 138.843 76.4678C138.922 76.4691 138.998 76.4946 139.063 76.541C139.128 76.5874 139.178 76.6526 139.207 76.7283Z" fill="#E0E0E0"/>
<path d="M20.3725 106.471L21.232 108.227C21.2536 108.271 21.285 108.309 21.3238 108.338C21.3625 108.368 21.4075 108.387 21.4549 108.395L23.3331 108.674C23.3876 108.682 23.4388 108.706 23.4809 108.743C23.5231 108.779 23.5545 108.827 23.5718 108.881C23.5891 108.935 23.5916 108.993 23.579 109.048C23.5663 109.103 23.5391 109.154 23.5003 109.194L22.1393 110.56C22.1044 110.593 22.0781 110.635 22.0628 110.682C22.0475 110.728 22.0437 110.778 22.0518 110.826L22.3741 112.758C22.3837 112.814 22.3778 112.872 22.357 112.925C22.3362 112.977 22.3014 113.023 22.2565 113.057C22.2117 113.09 22.1586 113.11 22.1034 113.113C22.0482 113.117 21.9931 113.105 21.9443 113.078L20.2651 112.167C20.2226 112.145 20.1755 112.133 20.1278 112.133C20.0801 112.133 20.033 112.145 19.9905 112.167L18.3073 113.078C18.2588 113.105 18.2037 113.118 18.1485 113.115C18.0932 113.111 18.0401 113.091 17.9953 113.058C17.9506 113.024 17.9161 112.978 17.8959 112.925C17.8757 112.872 17.8707 112.814 17.8815 112.758L18.1998 110.826C18.2095 110.778 18.2069 110.728 18.1923 110.682C18.1776 110.635 18.1514 110.593 18.1162 110.56L16.7553 109.194C16.7151 109.155 16.6864 109.105 16.6727 109.049C16.659 108.994 16.6608 108.935 16.6778 108.881C16.6949 108.827 16.7265 108.778 16.7691 108.741C16.8117 108.705 16.8635 108.681 16.9185 108.674L18.8007 108.395C18.8481 108.387 18.8931 108.368 18.9318 108.338C18.9706 108.309 19.002 108.271 19.0235 108.227L19.8632 106.471C19.8891 106.425 19.9262 106.387 19.9709 106.361C20.0156 106.334 20.0663 106.32 20.1178 106.32C20.1694 106.32 20.2201 106.334 20.2648 106.361C20.3095 106.387 20.3466 106.425 20.3725 106.471Z" fill="#E0E0E0"/>
<path d="M60.5342 9.11503L55.9659 9.16211L56.1932 32.5853L60.7615 32.5382L60.5342 9.11503Z" fill="#E0E0E0"/>
<path d="M28.1171 9.51705L16.2867 9.58301L16.3546 22.5123L28.185 22.4463L28.1171 9.51705Z" fill="#EBEBEB"/>
<path d="M39.9974 9.21012L28.1669 9.33203L28.2923 22.2615L40.1228 22.1396L39.9974 9.21012Z" fill="#F5F5F5"/>
<path d="M16.3012 13.1555C24.1604 13.2211 32.0434 13.1555 39.9025 13.0406C39.932 13.0352 39.9586 13.0193 39.9778 12.9957C39.997 12.9721 40.0075 12.9423 40.0075 12.9115C40.0075 12.8807 39.997 12.8509 39.9778 12.8272C39.9586 12.8036 39.932 12.7877 39.9025 12.7823C32.0434 12.7372 24.1643 12.7823 16.3052 12.934C16.2767 12.934 16.2494 12.9457 16.2292 12.9664C16.2091 12.9872 16.1978 13.0154 16.1978 13.0447C16.1978 13.0741 16.2091 13.1023 16.2292 13.123C16.2494 13.1438 16.2767 13.1555 16.3052 13.1555H16.3012Z" fill="#E0E0E0"/>
<path d="M30.4045 22.2288L8.91248 22.3486L8.96781 32.8873L30.4598 32.7674L30.4045 22.2288Z" fill="#EBEBEB"/>
<path d="M51.7926 22.1106L30.3007 22.2305L30.356 32.7691L51.848 32.6493L51.7926 22.1106Z" fill="#F5F5F5"/>
<path d="M8.92416 25.2821C23.198 25.4503 37.5275 25.2821 51.8013 25.0648C51.8307 25.0594 51.8574 25.0435 51.8765 25.0198C51.8957 24.9962 51.9062 24.9664 51.9062 24.9356C51.9062 24.9048 51.8957 24.875 51.8765 24.8514C51.8574 24.8278 51.8307 24.8119 51.8013 24.8064C37.5235 24.7285 23.198 24.7367 8.92019 25.0607C8.89169 25.0607 8.86436 25.0724 8.84421 25.0931C8.82406 25.1139 8.81274 25.142 8.81274 25.1714C8.81274 25.2008 8.82406 25.2289 8.84421 25.2497C8.86436 25.2705 8.89169 25.2821 8.92019 25.2821H8.92416Z" fill="#E0E0E0"/>
<path d="M84.145 32.8887H0.885742V36.6654H84.145V32.8887Z" fill="#E0E0E0"/>
<path d="M17.8971 34.7051H14.5187V47.5854H17.8971V34.7051Z" fill="#E0E0E0"/>
<path d="M68.3509 34.7051H64.9724V47.5854H68.3509V34.7051Z" fill="#E0E0E0"/>
<path d="M64.9546 0.359174L60.3864 0.40625L60.699 32.6213L65.2672 32.5742L64.9546 0.359174Z" fill="#EBEBEB"/>
<path d="M72.0177 6.71335L64.9187 6.75293L65.0558 32.8576L72.1548 32.818L72.0177 6.71335Z" fill="#F5F5F5"/>
<path d="M71.9682 11.7482C71.9682 11.8179 70.3765 11.8753 68.4187 11.8753C66.4609 11.8753 64.8691 11.8179 64.8691 11.7482C64.8691 11.6785 66.4609 11.6211 68.4187 11.6211C70.3765 11.6211 71.9682 11.6785 71.9682 11.7482Z" fill="#E0E0E0"/>
<path d="M71.9682 10.6504C71.9682 10.7242 70.3765 10.7775 68.4187 10.7775C66.4609 10.7775 64.8691 10.7242 64.8691 10.6504C64.8691 10.5766 66.4609 10.5273 68.4187 10.5273C70.3765 10.5273 71.9682 10.5807 71.9682 10.6504Z" fill="#E0E0E0"/>
<path d="M71.9682 28.8996C71.9682 28.9693 70.3765 29.0267 68.4187 29.0267C66.4609 29.0267 64.8691 28.9693 64.8691 28.8996C64.8691 28.8299 66.4609 28.7725 68.4187 28.7725C70.3765 28.7725 71.9682 28.8299 71.9682 28.8996Z" fill="#E0E0E0"/>
<path d="M71.9682 27.8C71.9682 27.8697 70.3765 27.9271 68.4187 27.9271C66.4609 27.9271 64.8691 27.8697 64.8691 27.8C64.8691 27.7303 66.4609 27.6729 68.4187 27.6729C70.3765 27.6729 71.9682 27.7303 71.9682 27.8Z" fill="#E0E0E0"/>
<path d="M68.5339 25.4094C68.4662 25.4094 68.4105 22.7727 68.4105 19.5249C68.4105 16.2772 68.4662 13.6445 68.5339 13.6445C68.6015 13.6445 68.6572 16.2772 68.6572 19.5249C68.6572 22.7727 68.5856 25.4094 68.5339 25.4094Z" fill="#E0E0E0"/>
<path d="M79.7678 13.1318H72.0439V32.8357H79.7678V13.1318Z" fill="#EBEBEB"/>
<path d="M63.8385 6.22238C63.8385 6.49019 63.7614 6.75199 63.6169 6.97461C63.4725 7.19724 63.2671 7.37068 63.0269 7.47298C62.7868 7.57528 62.5225 7.60184 62.2677 7.54929C62.0128 7.49675 61.7789 7.36746 61.5954 7.17779C61.4119 6.98813 61.2871 6.74662 61.2369 6.48385C61.1867 6.22108 61.2133 5.94887 61.3133 5.70167C61.4133 5.45447 61.5822 5.24341 61.7987 5.09521C62.0151 4.94701 62.2694 4.86834 62.5293 4.86915C62.7016 4.86915 62.8721 4.90418 63.0312 4.97223C63.1903 5.04029 63.3348 5.14003 63.4565 5.26575C63.5781 5.39146 63.6744 5.54067 63.74 5.70483C63.8056 5.86898 63.839 6.04486 63.8385 6.22238V6.22238Z" fill="#E0E0E0"/>
<path d="M62.9351 9.94434H62.1233V29.1069H62.9351V9.94434Z" fill="#E0E0E0"/>
<path d="M171.463 16.7441H115.299V68.5236H171.463V16.7441Z" fill="#FAFAFA"/>
<path d="M171.463 68.5237C171.463 68.5237 171.463 68.1916 171.463 67.5642C171.463 66.9368 171.463 65.9977 171.463 64.788C171.463 62.3563 171.463 58.8051 171.431 54.2779C171.431 45.2318 171.392 32.3023 171.368 16.7443L171.495 16.8755H115.335L115.482 16.7238C115.482 35.5624 115.482 53.2897 115.482 68.5033L115.351 68.3679L155.972 68.4376L167.428 68.4704H170.46H171.256H171.527H171.272H170.504H167.496L156.067 68.5033L115.299 68.655H115.164V68.5197C115.164 53.3061 115.164 35.5788 115.164 16.7402V16.5762H115.319L171.479 16.6008H171.606V16.732C171.579 32.3146 171.555 45.281 171.539 54.3477C171.539 58.8584 171.515 62.4055 171.507 64.829C171.507 66.0319 171.507 66.9491 171.507 67.5806C171.471 68.2121 171.463 68.5237 171.463 68.5237Z" fill="#E0E0E0"/>
<path d="M136.831 25.9418C136.831 26.0279 133.874 26.0976 130.229 26.0976C126.584 26.0976 123.628 26.0279 123.628 25.9418C123.628 25.8556 126.584 25.79 130.229 25.79C133.874 25.79 136.831 25.8597 136.831 25.9418Z" fill="#E0E0E0"/>
<path d="M160.632 29.8295C160.632 29.9156 152.51 29.9853 142.494 29.9853C132.478 29.9853 124.352 29.9156 124.352 29.8295C124.352 29.7433 132.474 29.6777 142.494 29.6777C152.514 29.6777 160.632 29.7474 160.632 29.8295Z" fill="#E0E0E0"/>
<path d="M126.091 36.4199H123.723V38.8598H126.091V36.4199Z" fill="#E0E0E0"/>
<path d="M131.917 36.4199H129.549V38.8598H131.917V36.4199Z" fill="#E0E0E0"/>
<path d="M137.85 36.3086H135.482V38.7485H137.85V36.3086Z" fill="#E0E0E0"/>
<path d="M143.564 36.4199H141.197V38.8598H143.564V36.4199Z" fill="#E0E0E0"/>
<path d="M149.39 36.4199H147.022V38.8598H149.39V36.4199Z" fill="#E0E0E0"/>
<path d="M155.215 36.4199H152.848V38.8598H155.215V36.4199Z" fill="#E0E0E0"/>
<path d="M161.037 36.4199H158.67V38.8598H161.037V36.4199Z" fill="#EBEBEB"/>
<path d="M126.091 41.6035H123.723V44.0434H126.091V41.6035Z" fill="#EBEBEB"/>
<path d="M131.917 41.6035H129.549V44.0434H131.917V41.6035Z" fill="#E0E0E0"/>
<path d="M137.743 41.6035H135.375V44.0434H137.743V41.6035Z" fill="#EBEBEB"/>
<path d="M143.564 41.6035H141.197V44.0434H143.564V41.6035Z" fill="#E0E0E0"/>
<path d="M149.39 41.6035H147.022V44.0434H149.39V41.6035Z" fill="#E0E0E0"/>
<path d="M155.323 41.4922H152.955V43.9321H155.323V41.4922Z" fill="#E0E0E0"/>
<path d="M161.037 41.6035H158.67V44.0434H161.037V41.6035Z" fill="#E0E0E0"/>
<path d="M126.091 46.7861H123.723V49.226H126.091V46.7861Z" fill="#E0E0E0"/>
<path d="M132.024 46.6748H129.657V49.1147H132.024V46.6748Z" fill="#E0E0E0"/>
<path d="M137.743 46.7861H135.375V49.226H137.743V46.7861Z" fill="#E0E0E0"/>
<path d="M143.564 46.7861H141.197V49.226H143.564V46.7861Z" fill="#EBEBEB"/>
<path d="M149.39 46.7861H147.022V49.226H149.39V46.7861Z" fill="#E0E0E0"/>
<path d="M155.215 46.7861H152.848V49.226H155.215V46.7861Z" fill="#E0E0E0"/>
<path d="M161.037 46.7861H158.67V49.226H161.037V46.7861Z" fill="#E0E0E0"/>
<path d="M126.091 51.9697H123.723V54.4096H126.091V51.9697Z" fill="#E0E0E0"/>
<path d="M131.917 51.9697H129.549V54.4096H131.917V51.9697Z" fill="#E0E0E0"/>
<path d="M137.743 51.9697H135.375V54.4096H137.743V51.9697Z" fill="#E0E0E0"/>
<path d="M143.672 51.8584H141.304V54.2983H143.672V51.8584Z" fill="#E0E0E0"/>
<path d="M149.39 51.9697H147.022V54.4096H149.39V51.9697Z" fill="#E0E0E0"/>
<path d="M155.215 51.9697H152.848V54.4096H155.215V51.9697Z" fill="#EBEBEB"/>
<path d="M161.037 51.9697H158.67V54.4096H161.037V51.9697Z" fill="#E0E0E0"/>
<path d="M126.091 57.1523H123.723V59.5923H126.091V57.1523Z" fill="#E0E0E0"/>
<path d="M131.917 57.1523H129.549V59.5923H131.917V57.1523Z" fill="#EBEBEB"/>
<path d="M137.743 57.1523H135.375V59.5923H137.743V57.1523Z" fill="#E0E0E0"/>
<path d="M143.564 57.1523H141.197V59.5923H143.564V57.1523Z" fill="#E0E0E0"/>
<path d="M149.39 57.1523H147.022V59.5923H149.39V57.1523Z" fill="#E0E0E0"/>
<path d="M155.323 57.042H152.955V59.4819H155.323V57.042Z" fill="#E0E0E0"/>
<path d="M161.037 57.1523H158.67V59.5923H161.037V57.1523Z" fill="#E0E0E0"/>
<path d="M8.29548 148.885V163.963H5.85217V165.603H8.29548V175.683H53.9581V166.497H50.5757V164.5H53.9581V161.499H55.4544V160.141H53.6677V148.885H8.29548Z" fill="#EBEBEB"/>
<path d="M41.833 148.926V175.523H53.958V166.337H50.5756V164.508L53.958 164.57V161.568L55.49 161.572L55.4622 160.022L53.6755 159.973V148.885L41.833 148.926Z" fill="#E0E0E0"/>
<path d="M42.6965 165.382C42.6965 165.472 34.4354 165.55 24.2444 165.55C14.0534 165.55 5.78833 165.472 5.78833 165.382C5.78833 165.292 14.0494 165.214 24.2444 165.214C34.4394 165.214 42.6965 165.288 42.6965 165.382Z" fill="#E0E0E0"/>
<path d="M42.6965 163.848C42.6965 163.942 34.4354 164.016 24.2444 164.016C14.0534 164.016 5.78833 163.942 5.78833 163.848C5.78833 163.753 14.0494 163.684 24.2444 163.684C34.4394 163.684 42.6965 163.757 42.6965 163.848Z" fill="#E0E0E0"/>
<path d="M45.068 159.728C45.068 159.822 36.8029 159.896 26.6119 159.896C16.4209 159.896 8.15979 159.822 8.15979 159.728C8.15979 159.633 16.4209 159.56 26.6119 159.56C36.8029 159.56 45.068 159.637 45.068 159.728Z" fill="#E0E0E0"/>
<path d="M45.295 170.959C45.295 171.053 37.03 171.127 26.8429 171.127C16.6559 171.127 8.38684 171.053 8.38684 170.959C8.38684 170.865 16.6479 170.795 26.8429 170.795C37.0379 170.795 45.295 170.869 45.295 170.959Z" fill="#E0E0E0"/>
<path d="M14.2201 123.759V138.05H11.9042V139.596H14.2201V149.158H57.4952V140.461H54.3118V138.566H57.4952V135.725H58.9198V134.433H57.2286V123.771L14.2201 123.759Z" fill="#F5F5F5"/>
<path d="M46.0033 123.804V149.007H57.4956V140.305H54.2922V138.566L57.4956 138.624V135.782L58.948 135.786L58.9202 134.314L57.229 134.273V123.759L46.0033 123.804Z" fill="#E0E0E0"/>
<path d="M46.8232 139.396C46.8232 139.486 38.9919 139.556 29.3341 139.556C19.6763 139.556 11.845 139.486 11.845 139.396C11.845 139.306 19.6723 139.24 29.354 139.24C39.0357 139.24 46.8232 139.31 46.8232 139.396Z" fill="#E0E0E0"/>
<path d="M46.8232 137.958C46.8232 138.048 38.9919 138.118 29.3341 138.118C19.6763 138.118 11.845 138.048 11.845 137.958C11.845 137.867 19.6723 137.802 29.354 137.802C39.0357 137.802 46.8232 137.859 46.8232 137.958Z" fill="#E0E0E0"/>
<path d="M49.0868 134.04C49.0868 134.126 41.2595 134.196 31.6016 134.196C21.9438 134.196 14.0927 134.126 14.0927 134.04C14.0927 133.954 21.9239 133.88 31.6016 133.88C41.2793 133.88 49.0868 133.95 49.0868 134.04Z" fill="#E0E0E0"/>
<path d="M49.2862 144.686C49.2862 144.772 41.4549 144.842 31.7971 144.842C22.1393 144.842 14.308 144.772 14.308 144.686C14.308 144.6 22.1353 144.526 31.7971 144.526C41.4589 144.526 49.2862 144.596 49.2862 144.686Z" fill="#E0E0E0"/>
<path d="M146.254 129.985C143.887 128.73 141.081 128.566 138.471 129.013C137.058 129.251 135.586 129.689 134.627 130.78C133.668 131.871 133.485 133.798 134.587 134.737C135.244 135.295 136.159 135.381 137.01 135.369C139.068 135.344 141.352 134.959 142.979 136.246C143.915 136.972 144.539 138.186 145.661 138.543C146.784 138.9 147.993 138.227 148.578 137.206C149.112 136.144 149.23 134.911 148.909 133.761C148.777 132.964 148.469 132.209 148.009 131.554C147.549 130.899 146.948 130.362 146.254 129.985Z" fill="#EBEBEB"/>
<path d="M151.674 119.2C150.229 121.328 147.416 120.623 146.103 119.323C144.789 118.023 144.248 116.141 143.747 114.341C142.597 110.24 141.443 105.93 142.294 101.748C142.499 100.48 143.039 99.2957 143.854 98.3236C144.71 97.3968 146.019 96.8432 147.217 97.1713C148.637 97.5568 149.517 98.9879 150.154 100.349C152.031 104.37 153.015 108.772 153.035 113.234C153.035 115.309 152.804 117.486 151.666 119.2" fill="#EBEBEB"/>
<path d="M155.65 122.256C154.058 120.333 153.779 117.532 154.48 115.125C155.18 112.718 156.76 110.667 158.578 108.994C160.721 107.03 163.215 105.514 165.92 104.533C166.968 104.096 168.094 103.899 169.223 103.955C169.789 103.986 170.339 104.16 170.824 104.461C171.31 104.762 171.716 105.181 172.009 105.681C172.781 107.198 172.04 109.044 171.241 110.544C169.826 113.192 168.214 115.721 166.418 118.11C164.973 120.029 163.318 121.924 161.113 122.793C158.909 123.662 156.625 123.56 155.455 121.973" fill="#EBEBEB"/>
<path d="M151.774 151.332C151.696 151.015 151.652 150.691 151.642 150.364C151.575 149.659 151.491 148.773 151.392 147.723C151.265 146.422 151.073 145.129 150.815 143.848C150.48 142.289 150.023 140.76 149.45 139.276C148.888 137.794 148.126 136.401 147.185 135.138C146.418 134.11 145.44 133.27 144.32 132.678C143.56 132.29 142.745 132.029 141.905 131.903C141.589 131.892 141.276 131.845 140.97 131.764C141.286 131.727 141.605 131.727 141.921 131.764C142.792 131.835 143.645 132.064 144.44 132.44C145.617 133.01 146.651 133.852 147.46 134.901C148.442 136.179 149.233 137.601 149.808 139.12C150.392 140.626 150.846 142.182 151.165 143.77C151.41 145.065 151.578 146.374 151.666 147.691C151.746 148.814 151.778 149.72 151.793 150.352C151.821 150.678 151.815 151.007 151.774 151.332V151.332Z" fill="#E0E0E0"/>
<path d="M151.598 149.298C151.569 149.151 151.56 149.001 151.57 148.851C151.57 148.511 151.57 148.088 151.57 147.567C151.57 146.452 151.57 144.836 151.515 142.848C151.419 138.862 151.085 134.576 150.444 128.532C149.835 122.848 149.02 116.23 148.156 111.932C147.968 110.951 147.786 110.075 147.611 109.304C147.44 108.529 147.301 107.865 147.161 107.327C147.022 106.79 146.946 106.405 146.871 106.077C146.826 105.933 146.801 105.784 146.795 105.634C146.86 105.764 146.911 105.902 146.946 106.044L147.308 107.274C147.468 107.807 147.631 108.467 147.818 109.238C148.005 110.009 148.216 110.879 148.423 111.859C149.495 116.955 150.3 122.108 150.834 127.294C151.479 133.35 151.769 138.866 151.793 142.876C151.817 144.873 151.773 146.489 151.726 147.604C151.694 148.129 151.67 148.552 151.65 148.892C151.645 149.029 151.627 149.165 151.598 149.298Z" fill="#E0E0E0"/>
<path d="M151.571 138.662C151.535 138.216 151.535 137.767 151.571 137.321C151.644 136.104 151.777 134.891 151.969 133.688C152.251 131.9 152.634 130.131 153.115 128.39C153.675 126.248 154.393 124.153 155.263 122.124C157.046 117.765 159.466 114.201 161.575 111.995C162.039 111.489 162.535 111.016 163.059 110.576C163.286 110.375 163.489 110.166 163.692 110.023L164.269 109.613C164.617 109.343 164.984 109.1 165.367 108.887C165.427 108.977 163.811 109.957 161.785 112.192C159.191 115.17 157.109 118.583 155.629 122.284C154.778 124.302 154.056 126.376 153.469 128.492C152.908 130.436 152.534 132.228 152.247 133.733C151.961 135.238 151.825 136.48 151.73 137.333C151.712 137.78 151.659 138.224 151.571 138.662Z" fill="#E0E0E0"/>
<path d="M161.547 157.427L160.512 172.029H142.311L141.276 157.427H161.547Z" fill="#E0E0E0"/>
<path d="M163.306 151.669H139.103V157.426H163.306V151.669Z" fill="#E0E0E0"/>
<path d="M163.306 171.471V173.066H162.167H139.501V171.471H163.306Z" fill="#EBEBEB"/>
<path d="M161.053 175.876L162.168 173.067H140.369L141.67 175.876H161.053Z" fill="#E0E0E0"/>
<path d="M141.614 162.2C141.636 162.249 141.664 162.295 141.698 162.335L141.968 162.705L143.031 164.103L143.078 164.168L143.122 164.103C143.791 163.152 144.678 161.88 145.729 160.388H145.577L148.144 164.132L148.224 164.246L148.315 164.14L151.355 160.408H151.18L151.347 160.625C152.291 161.856 153.206 163.024 154.069 164.14L154.157 164.259L154.244 164.136L156.807 160.396H156.66L159.819 164.086L159.875 164.152L159.919 164.078L160.91 162.364L161.164 161.909C161.196 161.859 161.221 161.805 161.24 161.749C161.199 161.792 161.163 161.841 161.133 161.893L160.854 162.331L159.815 164.013H159.915L156.803 160.256L156.723 160.162L156.656 160.265L154.065 163.988H154.24L151.526 160.47L151.359 160.252L151.272 160.142L151.184 160.248L148.148 163.988H148.319L145.729 160.265L145.653 160.158L145.577 160.265L143.027 164.021H143.122L142.016 162.659C141.897 162.516 141.801 162.397 141.721 162.307C141.642 162.217 141.618 162.196 141.614 162.2Z" fill="#F5F5F5"/>
<path d="M141.009 157.332C141.009 157.393 145.569 157.447 151.196 157.447C156.823 157.447 161.383 157.393 161.383 157.332C161.383 157.27 156.823 157.213 151.196 157.213C145.569 157.213 141.009 157.266 141.009 157.332Z" fill="#F5F5F5"/>
<path d="M140.102 173.223C140.102 173.289 145.06 173.342 151.173 173.342C157.285 173.342 162.247 173.289 162.247 173.223C162.247 173.158 157.289 173.108 151.173 173.108C145.056 173.108 140.102 173.162 140.102 173.223Z" fill="#F5F5F5"/>
</g>
<path d="M167.297 175.806C167.297 175.867 132.009 175.912 88.5069 175.912C45.005 175.912 9.6886 175.867 9.6886 175.806C9.6886 175.744 44.9493 175.683 88.4831 175.683C132.017 175.683 167.297 175.748 167.297 175.806Z" fill="#263238"/>
<path d="M95.4432 23.3798C95.6143 20.3002 97.4528 18.4057 100.031 16.8187C101.33 16.0401 102.792 15.5963 104.292 15.5249C105.793 15.4535 107.288 15.7567 108.651 16.4086C110.461 17.2944 112.045 18.8116 114.031 19.0741C117.302 19.5087 120.398 16.384 123.609 17.1672C124.577 17.3927 125.438 17.9598 126.043 18.7703C126.648 19.5808 126.959 20.5838 126.922 21.6057C126.885 22.6276 126.503 23.6041 125.841 24.3661C125.179 25.1282 124.28 25.6279 123.298 25.7787C125.439 26.1027 126.653 28.8911 125.861 30.9702C125.069 33.0492 122.821 34.2507 120.656 34.2999C118.491 34.3491 116.41 33.4347 114.54 32.3152C112.67 31.1957 110.919 29.8548 108.969 28.887C107.019 27.9193 104.771 27.3616 102.678 27.9357C99.8483 28.7107 97.8388 31.4664 97.1066 34.3902C96.3744 37.3139 96.6848 40.4018 97.1265 43.3871C97.5682 46.3724 98.1253 49.3823 97.8467 52.4086C97.8567 52.5852 97.8259 52.7616 97.7567 52.9235C97.6875 53.0853 97.582 53.2279 97.4488 53.3395C97.015 53.5855 96.5176 53.1631 96.1953 52.7695C92.5582 48.3296 89.8028 43.1968 88.0854 37.6625C87.0986 34.4599 86.5534 31.3474 87.7392 28.2309C88.9251 25.1144 92.9124 22.1209 95.4392 23.3921" fill="#263238"/>
<path d="M92.6859 38.274L97.4611 68.7176C98.3564 74.4011 101.942 79.892 110.593 78.0262C117.982 75.8241 117.433 70.3456 116.47 63.5876C116.47 63.5876 124.604 61.4061 123.876 52.8848C123.522 48.7841 122.129 40.3449 120.78 32.7422C120.08 28.8037 117.968 25.2809 114.862 22.8752C111.756 20.4694 107.885 19.357 104.019 19.7594L103.223 19.8414C94.6955 21.248 91.0862 29.5109 92.6859 38.274Z" fill="#FFBF9D"/>
<path d="M116.49 63.5868C116.49 63.5868 111.317 64.4398 105.415 61.4258C105.415 61.4258 108.659 67.7573 116.828 66.1334L116.49 63.5868Z" fill="#FF9A6C"/>
<path d="M117.998 41.2673C118.029 41.5831 117.94 41.8989 117.75 42.1488C117.56 42.3987 117.284 42.5633 116.979 42.6083C116.831 42.6364 116.678 42.6335 116.53 42.5998C116.383 42.5661 116.243 42.5023 116.12 42.4121C115.997 42.3218 115.893 42.207 115.813 42.0745C115.734 41.942 115.681 41.7944 115.658 41.6405C115.626 41.3247 115.714 41.0084 115.903 40.7577C116.092 40.507 116.368 40.3414 116.673 40.2955C116.822 40.2673 116.975 40.2703 117.123 40.3042C117.271 40.3381 117.411 40.4023 117.535 40.4929C117.658 40.5835 117.763 40.6987 117.842 40.8317C117.922 40.9648 117.975 41.1129 117.998 41.2673Z" fill="#263238"/>
<path d="M119.435 37.0998C119.303 37.272 118.34 36.6897 117.071 36.8209C115.801 36.9521 114.938 37.7067 114.783 37.559C114.711 37.4975 114.83 37.1941 115.204 36.8496C115.716 36.4006 116.35 36.1243 117.019 36.0582C117.678 35.9862 118.342 36.1296 118.917 36.4683C119.339 36.7471 119.498 37.0219 119.435 37.0998Z" fill="#263238"/>
<path d="M106.104 42.0491C106.136 42.3649 106.048 42.6812 105.859 42.9319C105.67 43.1826 105.394 43.3482 105.089 43.3941C104.939 43.4222 104.785 43.4188 104.636 43.3841C104.488 43.3494 104.347 43.2842 104.224 43.1923C104.1 43.1004 103.995 42.9838 103.917 42.8494C103.838 42.715 103.786 42.5655 103.764 42.41C103.732 42.0935 103.82 41.7767 104.01 41.5259C104.2 41.2751 104.477 41.1099 104.783 41.0649C104.933 41.0375 105.086 41.0414 105.234 41.0763C105.383 41.1113 105.523 41.1766 105.646 41.2684C105.769 41.3603 105.873 41.4767 105.952 41.6108C106.031 41.7449 106.082 41.894 106.104 42.0491V42.0491Z" fill="#263238"/>
<path d="M106.979 38.6384C106.848 38.8107 105.889 38.2284 104.619 38.3596C103.35 38.4908 102.482 39.2453 102.331 39.0977C102.256 39.0321 102.375 38.7328 102.753 38.3842C103.264 37.9348 103.898 37.6597 104.568 37.5969C105.226 37.5234 105.891 37.667 106.466 38.0069C106.884 38.2858 107.043 38.5605 106.979 38.6384Z" fill="#263238"/>
<path d="M112.535 47.8601C112.535 47.7863 113.295 47.5649 114.556 47.2655C114.878 47.1958 115.177 47.0974 115.209 46.8554C115.205 46.5075 115.097 46.1694 114.898 45.8877C114.514 45.114 114.116 44.2939 113.705 43.4273C112.017 39.9458 110.764 37.0671 110.899 36.9974C111.034 36.9277 112.515 39.6956 114.198 43.1812C114.596 44.0383 114.994 44.8584 115.368 45.6416C115.609 46.0251 115.714 46.4834 115.662 46.9375C115.628 47.0605 115.566 47.1735 115.482 47.2675C115.398 47.3615 115.293 47.4338 115.177 47.4788C115.003 47.5488 114.821 47.5957 114.636 47.6182C113.342 47.8437 112.547 47.9339 112.535 47.8601Z" fill="#263238"/>
<path d="M106.808 33.4791C106.716 33.844 105.431 33.8071 103.963 34.1475C102.494 34.4878 101.329 35.0291 101.098 34.7339C100.994 34.5904 101.173 34.2336 101.623 33.8358C102.226 33.3399 102.936 32.9996 103.692 32.8435C104.444 32.6707 105.226 32.6834 105.972 32.8804C106.541 33.0526 106.844 33.3027 106.808 33.4791Z" fill="#263238"/>
<path d="M118.595 33.3646C118.404 33.6844 117.496 33.4671 116.446 33.5614C115.395 33.6557 114.524 33.9715 114.289 33.6721C114.182 33.5286 114.289 33.217 114.655 32.8971C115.145 32.5058 115.737 32.2731 116.355 32.2286C116.974 32.184 117.591 32.3296 118.129 32.647C118.527 32.9135 118.682 33.2087 118.595 33.3646Z" fill="#263238"/>
<path d="M93.9751 44.5066C93.8278 44.4574 88.1334 43.3625 88.8816 49.1649C89.6297 54.9674 95.1251 52.995 95.1132 52.8269C95.1012 52.6587 93.9751 44.5066 93.9751 44.5066Z" fill="#FFBF9D"/>
<path d="M93.111 50.8668C93.0831 50.8668 93.0194 50.9488 92.8642 51.0514C92.6453 51.1859 92.384 51.2271 92.136 51.1662C91.5113 51.0226 90.8825 50.1164 90.7234 49.0748C90.6445 48.5795 90.6744 48.0722 90.8109 47.5904C90.8393 47.4021 90.9122 47.2239 91.0233 47.0716C91.1343 46.9193 91.2801 46.7975 91.4476 46.7169C91.5571 46.6686 91.6799 46.6628 91.7932 46.7005C91.9066 46.7381 92.0029 46.8168 92.0644 46.922C92.1639 47.0737 92.14 47.1926 92.1718 47.2008C92.2037 47.209 92.2793 47.086 92.2037 46.8522C92.1548 46.7131 92.0605 46.5957 91.9371 46.5201C91.7667 46.4203 91.5651 46.3938 91.376 46.4463C91.151 46.525 90.9492 46.6617 90.7898 46.8432C90.6303 47.0247 90.5184 47.2452 90.4647 47.4837C90.2911 48.0196 90.2461 48.5909 90.3334 49.1486C90.5204 50.3132 91.2447 51.3261 92.0883 51.4573C92.2455 51.482 92.406 51.4701 92.5582 51.4226C92.7103 51.375 92.8503 51.293 92.9677 51.1826C93.1189 51.0226 93.1309 50.8709 93.111 50.8668Z" fill="#FF9A6C"/>
<path d="M120.127 24.8028C119.228 23.2076 117.787 22.0061 116.255 21.0466C112.95 18.9282 109.08 17.9381 105.197 18.2171C101.303 18.5299 97.6795 20.3882 95.0894 23.4004C93.1101 25.8735 91.8774 28.8902 91.5438 32.0774C91.2236 35.2495 91.5185 38.4555 92.4113 41.509C92.7813 42.8541 93.2827 44.236 94.3134 45.1463C94.958 45.7122 95.9966 46.0239 96.6134 45.4252C96.9355 45.028 97.1203 44.5318 97.1387 44.0145C97.7873 39.4095 98.3882 34.4722 96.3707 30.31C97.2625 28.7086 98.4638 27.3128 99.9003 26.2093C100.622 25.666 101.441 25.2754 102.309 25.0601C103.178 24.8447 104.08 24.8088 104.962 24.9545C107.557 25.4958 109.339 27.8578 111.536 29.4038C113.108 30.4997 114.91 31.1947 116.794 31.4315C118.678 31.6682 120.59 31.4398 122.372 30.7652L120.127 24.8028Z" fill="#263238"/>
<path d="M113.649 51.3947C113.585 51.9462 113.443 52.485 113.227 52.994C113.119 53.2483 112.959 53.4758 112.759 53.6611C112.559 53.8465 112.322 53.9853 112.065 54.0683C111.784 54.1312 111.493 54.1194 111.218 54.0341C110.943 53.9487 110.693 53.7925 110.493 53.5804C110.093 53.1504 109.837 52.6002 109.761 52.0098C109.677 51.4808 109.785 50.8083 110.274 50.6402C110.484 50.5848 110.705 50.5848 110.915 50.6402L113.788 51.1732" fill="#FF9A6C"/>
<path d="M113.048 53.8692C113.02 53.7872 112.487 54.1522 111.6 53.9923C111.099 53.9067 110.647 53.6336 110.33 53.2254C110.148 52.9734 110.018 52.6851 109.95 52.3787C109.881 52.0723 109.875 51.7546 109.932 51.4457C109.963 51.2879 110.014 51.1349 110.083 50.9905C110.163 50.8552 110.147 50.8634 110.262 50.8552C110.378 50.847 110.569 50.9085 110.72 50.9372L111.194 51.0234C111.806 51.1382 112.364 51.2325 112.829 51.3063C113.764 51.4539 114.349 51.5113 114.361 51.4457C114.373 51.3801 113.816 51.1997 112.897 50.9618C112.439 50.847 111.89 50.7117 111.281 50.5764L110.812 50.4698C110.638 50.426 110.463 50.3917 110.286 50.3672C110.147 50.3534 110.007 50.388 109.888 50.4657C109.783 50.5416 109.7 50.6449 109.646 50.765C109.558 50.95 109.494 51.1457 109.455 51.3473C109.38 51.7254 109.388 52.1159 109.479 52.4904C109.569 52.8649 109.739 53.2141 109.976 53.5125C110.176 53.7508 110.419 53.9459 110.692 54.0867C110.965 54.2275 111.263 54.311 111.568 54.3326C111.963 54.3772 112.363 54.3076 112.722 54.1317C112.96 54.0128 113.064 53.8938 113.048 53.8692Z" fill="#263238"/>
<path d="M125.491 18.3682C125.544 18.4911 125.582 18.6207 125.602 18.7536C125.671 19.1295 125.683 19.514 125.638 19.8936C125.546 20.5978 125.317 21.2759 124.967 21.8878C124.616 22.4998 124.15 23.0333 123.597 23.4571C122.212 24.593 120.016 25.0482 117.767 24.6873C115.519 24.3265 113.195 23.2316 110.807 22.2269C108.42 21.2222 105.992 20.5251 103.776 20.9434C101.83 21.3242 100.064 22.365 98.758 23.9C97.8585 24.9205 97.1333 26.0908 96.6132 27.361C96.251 28.2672 96.1277 28.7962 96.0879 28.788C96.0966 28.649 96.1206 28.5114 96.1595 28.378C96.2463 28.01 96.3526 27.6472 96.4779 27.2913C96.9576 25.9756 97.664 24.7601 98.563 23.7032C99.8882 22.0915 101.705 20.9912 103.716 20.5825C106.012 20.1274 108.551 20.8327 110.951 21.8579C113.35 22.883 115.606 23.9984 117.819 24.3183C120.031 24.6381 122.109 24.265 123.446 23.2152C124.517 22.4133 125.249 21.2186 125.491 19.8772C125.553 19.3762 125.553 18.8691 125.491 18.3682Z" fill="#455A64"/>
<path d="M88.5349 36.0422C88.5037 35.4981 88.5781 34.953 88.7537 34.4389C89.2887 32.4602 90.3999 30.6983 91.9372 29.3909C92.378 28.99 92.9085 28.7082 93.4812 28.5708C93.8832 28.4816 94.3025 28.5306 94.675 28.7102C94.9257 28.8414 95.0212 28.9767 95.0052 28.9931C94.5533 28.7693 94.0404 28.7129 93.5528 28.8332C92.6694 29.0669 91.6746 30.0634 90.7673 31.1952C90.0102 32.2016 89.4187 33.3292 89.0164 34.5332C88.6861 35.4394 88.5946 36.0504 88.5349 36.0422Z" fill="#455A64"/>
<path d="M90.0277 41.0612C90.0383 40.5139 90.1462 39.9732 90.3461 39.466C91.188 36.9394 92.9054 34.822 95.169 33.52C95.6186 33.2275 96.1162 33.0218 96.6374 32.9131C96.2066 33.2093 95.7617 33.4831 95.3043 33.7332C93.1842 35.1176 91.5359 37.1487 90.5888 39.5439C90.4275 40.0594 90.2402 40.5658 90.0277 41.0612Z" fill="#455A64"/>
<path d="M120.35 73.9121C120.35 73.9121 126.387 81.9372 127.839 84.9512C129.292 87.9652 139.702 121.267 139.702 121.267L135.185 123.223L120.35 73.9121Z" fill="#455A64"/>
<path d="M96.0634 66.4007V62.3779L117.997 69.7305L123.871 79.4204L128.399 92.9568L115.705 73.294L96.0634 66.4007Z" fill="#EBEBEB"/>
<path d="M94.7586 70.2669C94.7586 70.2669 85.4549 81.7488 85.6539 89.1957C85.8529 96.54 95.5186 141.168 95.5186 141.168L93.1788 149.144L90.644 175.724H143.37L139.701 121.267C139.116 121.234 128.161 90.0568 128.161 90.0568L115.877 72.5099L95.6818 65.0098L94.7586 70.2669Z" fill="#455A64"/>
<path d="M134.938 108.296C134.938 108.296 138.626 108.149 140.552 109.034C142.478 109.92 144.106 109.477 145.467 112.221C146.828 114.964 148.42 116.207 148.754 120.369C149.088 124.531 144.727 134.176 141.846 135.541C138.965 136.907 134.938 108.296 134.938 108.296Z" fill="#455A64"/>
<g opacity="0.3">
<path d="M93.6921 107.92C93.6921 107.92 115.248 128.772 117.99 130.765C120.732 132.758 121.137 145.367 124.516 145.609C127.894 145.851 138.841 137.506 138.841 137.506L106.414 106.025L93.6921 107.92Z" fill="black"/>
</g>
<path d="M124.046 126.589C124.046 126.589 119.359 132.769 118.822 134.319C118.284 135.869 117.763 136.898 118.336 137.415C118.542 137.64 118.81 137.795 119.103 137.859C119.397 137.923 119.703 137.892 119.98 137.771C120.744 137.468 124.512 132.346 124.512 132.346C124.512 132.346 119.514 139.691 119.287 140.958C119.06 142.225 120.039 142.84 121.185 142.618C122.331 142.397 124.512 139.08 124.512 139.08C124.512 139.08 121.42 142.77 122.073 143.394C122.725 144.017 123.477 144.095 124.337 143.652C125.196 143.209 127.377 140.297 127.377 140.297C127.377 140.297 125.873 141.938 126.697 142.348C127.52 142.758 127.592 142.799 128.308 142.188C129.025 141.577 135.344 135.217 135.344 135.217L131.364 132.404L124.046 126.589Z" fill="#FFBF9D"/>
<path d="M125.968 130.367C125.749 130.73 125.504 131.075 125.236 131.401L123.405 133.861C122.689 134.816 122.017 135.665 121.507 136.264C121.251 136.601 120.963 136.912 120.648 137.191C120.872 136.83 121.122 136.487 121.396 136.166L123.242 133.73C123.959 132.774 124.623 131.917 125.12 131.31C125.373 130.969 125.657 130.653 125.968 130.367V130.367Z" fill="#FF9A6C"/>
<path d="M129.292 133.327C128.512 134.439 127.678 135.51 126.793 136.534C125.958 137.602 125.07 138.626 124.134 139.601C124.912 138.488 125.747 137.418 126.633 136.394C127.468 135.326 128.356 134.302 129.292 133.327V133.327Z" fill="#FF9A6C"/>
<path d="M131.953 135.186C131.133 136.266 130.259 137.302 129.335 138.29C128.458 139.326 127.528 140.315 126.549 141.25C127.371 140.171 128.245 139.135 129.168 138.146C130.044 137.108 130.974 136.12 131.953 135.186V135.186Z" fill="#FF9A6C"/>
<path d="M97.6119 77.406C100.64 76.7458 104.484 76.471 107.413 78.181L123.406 93.0501C123.406 93.0501 145.949 119.11 146.832 120.562C147.715 122.013 148.905 130.592 145.491 134.963C142.077 139.335 138.225 137.653 133.848 136.624C130.382 135.804 106.144 117.453 96.1794 109.83C92.7168 107.203 90.22 103.445 89.0962 99.1684C88.336 96.4172 88.0664 93.5467 88.3003 90.6963" fill="#455A64"/>
<path d="M88.3041 90.7175C88.3041 90.7175 88.3041 90.8651 88.2762 91.1481C88.2484 91.431 88.2364 91.8493 88.2285 92.4029C88.2284 94.0157 88.3857 95.6244 88.698 97.2048C88.9142 98.3465 89.2067 99.4714 89.5735 100.571C90.0219 101.877 90.6077 103.129 91.3204 104.303C92.1368 105.649 93.1082 106.888 94.2134 107.994C95.3713 109.191 96.8119 110.2 98.2723 111.323C104.146 115.781 111.145 121.075 119.028 126.795C121.018 128.222 123.032 129.666 125.121 131.126C127.21 132.586 129.359 134.054 131.623 135.407C132.188 135.743 132.772 136.047 133.37 136.317C133.672 136.445 133.985 136.543 134.305 136.608L135.276 136.85C136.566 137.224 137.882 137.498 139.211 137.67C140.555 137.842 141.917 137.586 143.115 136.936C144.305 136.232 145.3 135.226 146.004 134.013C147.154 131.962 147.576 129.584 147.652 127.275C147.696 126.121 147.651 124.965 147.516 123.818C147.449 123.252 147.357 122.687 147.242 122.133C147.142 121.584 146.961 121.054 146.705 120.562C146.052 119.677 145.312 118.824 144.615 117.971L142.498 115.453L138.34 110.565L123.346 93.1041L107.373 78.2104C106.108 77.5067 104.712 77.0874 103.278 76.9802C102.234 76.8928 101.185 76.9024 100.143 77.0089C99.3029 77.095 98.6662 77.2057 98.2404 77.2795L97.7629 77.3697C97.6555 77.3902 97.5998 77.3943 97.5998 77.3943C97.5998 77.3943 97.8147 77.341 98.2365 77.2508C98.6583 77.1606 99.295 77.0499 100.139 76.9556C101.184 76.8392 102.238 76.8214 103.286 76.9023C104.735 77.0062 106.145 77.4255 107.425 78.1325V78.1325L123.441 92.9729C127.93 98.1521 132.992 104.024 138.463 110.409L142.626 115.297L144.743 117.815C145.451 118.672 146.171 119.504 146.852 120.427C146.931 120.557 146.999 120.694 147.055 120.837C147.11 120.972 147.15 121.108 147.198 121.247C147.289 121.522 147.349 121.801 147.417 122.067C147.536 122.629 147.628 123.199 147.695 123.773C147.832 124.931 147.878 126.098 147.835 127.263C147.755 129.592 147.333 132.003 146.155 134.103C145.434 135.349 144.413 136.383 143.191 137.105C141.957 137.771 140.555 138.034 139.172 137.859C137.827 137.69 136.497 137.416 135.192 137.039L134.221 136.797C133.892 136.729 133.57 136.628 133.258 136.498C132.651 136.221 132.06 135.909 131.488 135.563C129.211 134.201 127.071 132.721 124.977 131.273C122.884 129.826 120.855 128.362 118.885 126.931C111.002 121.19 104.01 115.896 98.1489 111.422C96.6965 110.294 95.252 109.277 94.086 108.068C92.9759 106.948 92.0018 105.693 91.1851 104.332C90.4751 103.148 89.892 101.889 89.4461 100.576C89.0819 99.4687 88.7933 98.3369 88.5826 97.1884C88.2774 95.602 88.1334 93.9872 88.1529 92.3701C88.1704 91.8165 88.2209 91.2646 88.3041 90.7175V90.7175Z" fill="#263238"/>
<path d="M128.854 91.9678L128.762 91.9104L128.507 91.7135C128.293 91.5372 127.95 91.3035 127.552 90.9385C126.729 90.2496 125.603 89.1793 124.254 87.8138C122.905 86.4482 121.345 84.7711 119.57 82.9586C118.679 82.0605 117.743 81.1132 116.721 80.1947C115.682 79.2283 114.578 78.3389 113.418 77.5333C112.932 77.1725 112.407 76.8977 111.918 76.5902L111.846 76.5451V76.4713C111.93 76.0981 112.013 75.729 112.093 75.3682L112.16 75.4912L99.928 71.5258L96.3029 70.3284L95.3319 69.9963L95.0772 69.906L94.9937 69.8691C94.9937 69.8691 95.0255 69.8691 95.0852 69.8691L95.3399 69.943L96.3267 70.2382L99.9718 71.3782L112.24 75.2821L112.328 75.3108L112.308 75.4051C112.228 75.7659 112.149 76.135 112.065 76.5082L112.013 76.3933C112.511 76.705 113.044 76.9838 113.529 77.3447C114.699 78.1544 115.809 79.0507 116.852 80.0266C117.879 80.9533 118.814 81.9047 119.705 82.8109C121.472 84.6357 123.02 86.317 124.357 87.6948C125.694 89.0727 126.8 90.1553 127.604 90.8647C128.002 91.2338 128.324 91.4839 128.535 91.6848L128.778 91.894C128.806 91.9158 128.831 91.9405 128.854 91.9678V91.9678Z" fill="#263238"/>
<path d="M136.769 108.756C136.6 108.487 136.45 108.206 136.319 107.915L135.169 105.561C134.206 103.564 132.893 100.805 131.452 97.7455C130.012 94.6864 128.723 91.9102 127.799 89.8968C127.354 88.9044 126.984 88.0966 126.717 87.5061C126.602 87.2395 126.506 87.0222 126.434 86.8499C126.396 86.7761 126.367 86.6976 126.347 86.6162C126.397 86.6829 126.438 86.7559 126.47 86.8335C126.554 86.9976 126.661 87.2108 126.789 87.4692C127.071 88.0515 127.461 88.8511 127.931 89.8312C128.894 91.8528 130.199 94.6085 131.639 97.6512L135.3 105.496L136.395 107.878C136.534 108.164 136.659 108.457 136.769 108.756V108.756Z" fill="#263238"/>
<path d="M99.5096 153.74H99.6529L100.051 153.769L101.643 153.9L107.46 154.417L127.082 156.233L126.971 156.36L125.694 151.079C125.495 150.258 125.296 149.438 125.105 148.618L125.196 148.7L103.23 146.072L103.298 146.035C102.009 148.393 101.014 150.291 100.365 151.616C100.043 152.276 99.8081 152.793 99.6648 153.149C99.6103 153.283 99.5651 153.42 99.5295 153.56C99.5157 153.606 99.509 153.654 99.5096 153.703C99.496 153.505 99.5374 153.307 99.629 153.133C99.7603 152.768 99.9872 152.243 100.302 151.575C100.93 150.242 101.893 148.331 103.179 145.961L103.202 145.92H103.246L125.22 148.475H125.292V148.548L125.881 151.009C126.31 152.813 126.736 154.581 127.142 156.274L127.178 156.418H127.035L107.373 154.523L101.575 153.945L100.023 153.781L99.625 153.736C99.587 153.743 99.5481 153.744 99.5096 153.74Z" fill="#263238"/>
<g opacity="0.3">
<path d="M100.222 153.811L101.165 156.337L127.058 157.928V156.337L100.222 153.811Z" fill="black"/>
</g>
<path d="M64.6075 26.6461C64.5279 25.2191 63.3779 24.0258 62.0568 23.5952C60.7356 23.1646 59.2712 23.382 57.97 23.8331C55.1009 24.8131 52.6894 26.8225 50.3496 28.7949C46.7165 31.8499 43.1868 36.049 41.802 40.6869C40.7555 44.1643 40.453 46.4279 41.5275 50.1185C42.4745 53.3991 43.2266 56.5607 43.0396 59.3C42.7412 63.6262 42.2437 64.6309 41.1534 68.8874C40.4809 71.5405 42.777 78.483 42.777 78.483L57.2975 72.742C62.4706 70.2324 73.6366 65.5494 73.6366 65.5494L64.6075 26.6461Z" fill="#263238"/>
<path d="M56.4536 77.3834C56.4775 73.742 56.5133 71.2078 56.5093 71.2324C56.5053 71.257 50.1703 69.7233 48.8929 60.4065C48.1498 54.3743 47.9872 48.2811 48.4074 42.2159C48.8412 36.6471 52.5419 29.8687 57.922 30.5494L74.6829 35.2324C76.3184 35.4415 76.8635 36.8727 76.8038 38.5745L76.9272 39.37L75.6976 65.9753L76.2268 77.2891C76.0119 82.3453 71.1612 86.9421 66.2547 87.1718C64.9771 87.2341 63.7007 87.026 62.5042 86.5602C61.3078 86.0945 60.2166 85.3809 59.2982 84.4637C58.3798 83.5464 57.6535 82.4449 57.1642 81.2272C56.675 80.0094 56.4331 78.7012 56.4536 77.3834V77.3834Z" fill="#B56760"/>
<path d="M52.2032 49.6388C52.1934 49.9505 52.3025 50.2538 52.507 50.4838C52.7115 50.7137 52.9953 50.852 53.2976 50.869C53.4432 50.8813 53.5898 50.8637 53.7289 50.8173C53.8679 50.7709 53.9967 50.6965 54.1077 50.5985C54.2187 50.5005 54.3098 50.3808 54.3756 50.2464C54.4415 50.1119 54.4808 49.9653 54.4914 49.8151C54.5012 49.5033 54.3921 49.2 54.1876 48.9701C53.9831 48.7401 53.6993 48.6019 53.397 48.5849C53.2514 48.5726 53.1048 48.5901 52.9657 48.6365C52.8267 48.683 52.6979 48.7573 52.5869 48.8553C52.4759 48.9533 52.3848 49.073 52.319 49.2075C52.2531 49.3419 52.2138 49.4885 52.2032 49.6388V49.6388Z" fill="#263238"/>
<path d="M50.6798 46.4129C50.8191 46.5687 51.7065 45.9167 52.952 45.9413C54.1975 45.9659 55.0968 46.6262 55.2361 46.4703C55.3038 46.4006 55.1605 46.1177 54.7666 45.8142C54.2358 45.4191 53.5988 45.2041 52.944 45.1991C52.2961 45.1833 51.6602 45.3816 51.1295 45.765C50.7475 46.0603 50.6122 46.3391 50.6798 46.4129Z" fill="#263238"/>
<path d="M63.8507 49.4998C63.8409 49.8115 63.9499 50.1149 64.1545 50.3448C64.359 50.5747 64.6428 50.713 64.945 50.73C65.0907 50.7423 65.2373 50.7248 65.3763 50.6783C65.5154 50.6319 65.6442 50.5576 65.7552 50.4596C65.8662 50.3616 65.9572 50.2419 66.0231 50.1074C66.0889 49.9729 66.1283 49.8264 66.1388 49.6761C66.1507 49.3645 66.0429 49.0605 65.8388 48.8302C65.6347 48.6 65.3507 48.4619 65.0485 48.4459C64.9024 48.4325 64.7551 48.4492 64.6154 48.4951C64.4757 48.5411 64.3462 48.6153 64.2347 48.7134C64.1231 48.8116 64.0317 48.9317 63.9658 49.0667C63.8998 49.2018 63.8607 49.349 63.8507 49.4998V49.4998Z" fill="#263238"/>
<path d="M62.6176 46.3747C62.7609 46.5305 63.6483 45.8785 64.8938 45.9031C66.1393 45.9277 67.0387 46.5879 67.178 46.4321C67.2456 46.3624 67.1023 46.0794 66.7084 45.776C66.1776 45.3808 65.5406 45.1658 64.8859 45.1609C64.2381 45.1468 63.6028 45.3449 63.0713 45.7267C62.6853 46.022 62.55 46.3008 62.6176 46.3747Z" fill="#263238"/>
<path d="M57.6232 56.0743C57.6232 56.0046 56.8591 55.8528 55.6056 55.6642C55.2913 55.6232 54.9889 55.5535 54.9411 55.3279C54.9184 54.9903 54.9976 54.6537 55.1679 54.3643L56.1508 51.8834C57.5157 48.3568 58.5066 45.4535 58.3673 45.4002C58.228 45.3469 57.0143 48.1599 55.6494 51.6865C55.3191 52.5559 55.0048 53.3842 54.7063 54.1797C54.4989 54.5699 54.4326 55.0233 54.5193 55.4592C54.5627 55.5761 54.6316 55.6813 54.7205 55.7666C54.8095 55.8519 54.9163 55.9151 55.0326 55.9512C55.2089 56.0026 55.3907 56.0315 55.5738 56.0374C56.8353 56.1276 57.6152 56.1481 57.6232 56.0743Z" fill="#263238"/>
<path d="M56.5096 71.2372C60.7551 71.3778 64.9551 70.3018 68.6425 68.1289C68.6425 68.1289 65.4869 74.6367 56.4738 73.6074L56.5096 71.2372Z" fill="#8A4A43"/>
<path d="M62.2194 41.8404C62.3667 42.1808 63.5923 41.9266 65.0646 42.0045C66.537 42.0824 67.7387 42.4145 67.9099 42.0824C67.9855 41.9266 67.7586 41.6149 67.2612 41.3115C66.5998 40.9441 65.8659 40.7365 65.1151 40.7045C64.3644 40.6726 63.6164 40.817 62.9278 41.1269C62.4065 41.3853 62.1558 41.6764 62.2194 41.8404Z" fill="#263238"/>
<path d="M50.3336 42.41C50.5883 42.7052 51.607 42.41 52.8247 42.41C54.0423 42.41 55.077 42.6437 55.3197 42.3443C55.4271 42.1967 55.268 41.9015 54.8223 41.6185C54.2054 41.2636 53.5071 41.0865 52.8008 41.1059C52.1016 41.1006 51.414 41.2905 50.8111 41.6554C50.3694 41.963 50.2222 42.2623 50.3336 42.41Z" fill="#263238"/>
<path d="M57.918 59.2219C58.1834 58.8263 58.5476 58.5119 58.972 58.3119C59.3965 58.112 59.8655 58.0339 60.3295 58.086H60.417C60.6692 58.0857 60.9161 58.1612 61.1273 58.3033C61.3385 58.4453 61.505 58.6477 61.6063 58.8857C61.7077 59.1237 61.7395 59.387 61.6979 59.6434C61.6563 59.8997 61.543 60.138 61.3721 60.3291C61.0599 60.7015 60.6424 60.9639 60.1783 61.0795C59.8859 61.1768 59.5768 61.2088 59.2714 61.1735C58.9661 61.1381 58.6716 61.0362 58.4075 60.8745C58.1481 60.7044 57.9562 60.4444 57.8665 60.1414C57.7767 59.8384 57.795 59.5123 57.918 59.2219V59.2219Z" fill="#8A4A43"/>
<path d="M61.3996 57.292C61.34 57.292 61.2644 57.6159 61.0336 58.1121C60.7452 58.7327 60.3053 59.2653 59.757 59.6578C59.2086 60.0503 58.5707 60.2892 57.9058 60.3511C57.3925 60.4085 57.0622 60.3511 57.0503 60.429C57.0383 60.5069 57.3567 60.6259 57.9177 60.6464C58.6572 60.6624 59.3825 60.4364 59.9895 60.001C60.5966 59.5655 61.054 58.943 61.2962 58.2229C61.4753 57.6611 61.4474 57.2961 61.3996 57.292Z" fill="#263238"/>
<path d="M48.1764 52.952L46.3101 45.1606C44.6308 42.774 45.94 38.8784 47.1298 36.2006C48.3197 33.5229 50.5879 31.4684 53.0988 30.0824C55.6098 28.6964 58.4112 27.9131 61.1888 27.2119C60.0417 30.8274 57.6775 33.9008 54.5234 35.8767C54.5234 35.8767 49.9353 39.1285 49.0877 42.9422C48.1963 47.1208 48.1764 52.952 48.1764 52.952Z" fill="#263238"/>
<path d="M58.6656 32.1286L71.8252 40.2767C72.1918 44.4588 73.1365 48.5654 74.6307 52.4721C77.058 50.3316 78.5582 54.4568 79.2865 51.287C79.3262 51.1189 78.6179 57.9342 76.0751 58.1475L75.6772 65.5574L88.228 62.3753C88.228 62.3753 87.5515 53.3948 85.4106 47.945C84.0776 44.5578 83.3732 41.716 82.06 38.3206C81.0612 35.7495 79.2944 31.9071 77.9653 30.0782C75.1161 26.1539 64.559 25.9775 64.559 25.9775C59.9072 27.1093 63.0389 26.5721 59.1193 29.3975L57.7822 33.0881" fill="#263238"/>
<path d="M74.6272 52.4186C74.6272 50.4626 76.6527 49.0396 78.3797 49.9213C79.3268 50.4093 80.0908 51.4467 80.1187 53.5258C80.1903 59.0699 74.675 58.0078 74.663 57.8479C74.6511 57.688 74.6391 54.7109 74.6272 52.4186Z" fill="#B56760"/>
<path d="M76.3067 55.7237C76.3306 55.7237 76.4062 55.7893 76.5654 55.8631C76.7958 55.9552 77.0513 55.9552 77.2817 55.8631C77.8587 55.6376 78.3322 54.7026 78.3441 53.702C78.3517 53.2267 78.2551 52.7558 78.0616 52.3242C78.0056 52.1514 77.9103 51.995 77.7836 51.868C77.6569 51.741 77.5025 51.6472 77.3334 51.5943C77.2235 51.5661 77.1075 51.5781 77.0051 51.6282C76.9028 51.6783 76.8205 51.7634 76.7723 51.869C76.7007 52.0249 76.7365 52.1315 76.7086 52.1438C76.6808 52.1561 76.5893 52.0536 76.6291 51.8239C76.6595 51.6855 76.7337 51.5615 76.84 51.4713C76.9898 51.3535 77.1782 51.3006 77.3652 51.3236C77.5897 51.3637 77.8005 51.4624 77.9774 51.6103C78.1544 51.7582 78.2916 51.9503 78.376 52.1684C78.6145 52.6432 78.7348 53.1716 78.7262 53.7062C78.7262 54.8256 78.1571 55.8795 77.3652 56.1215C77.2187 56.167 77.0641 56.1786 76.9128 56.1552C76.7614 56.1318 76.6169 56.074 76.4898 55.9861C76.3187 55.859 76.2908 55.736 76.3067 55.7237Z" fill="#8A4A43"/>
<path d="M64.9415 25.9655C64.8804 26.0861 64.8042 26.1978 64.7147 26.2977C64.5515 26.4986 64.3167 26.7775 63.9825 27.1178C63.3458 27.7781 62.4266 28.6515 61.4079 29.607C60.3892 30.5624 59.4739 31.4318 58.8213 32.0674C58.4854 32.4298 58.1322 32.7747 57.7628 33.1008C57.8258 32.9819 57.9049 32.8728 57.9976 32.7768C58.1607 32.5759 58.3955 32.297 58.7179 31.9567C59.3466 31.28 60.2499 30.3902 61.2686 29.4347L63.883 26.9743C64.5515 26.3756 64.9176 25.945 64.9415 25.9655Z" fill="#455A64"/>
<path d="M50.3015 30.6615C50.4044 30.5129 50.5217 30.3755 50.6517 30.2514C50.9922 29.882 51.3579 29.538 51.746 29.2222C53.0321 28.1737 54.512 27.4063 56.0954 26.9668C56.9713 26.6883 57.9066 26.6755 58.7894 26.9299C59.1526 27.0368 59.4896 27.2219 59.7784 27.4728C60.0672 27.7237 60.3011 28.0348 60.4647 28.3856C60.6726 28.8669 60.6995 29.4105 60.5403 29.9111C60.4976 30.0454 60.4359 30.1725 60.3573 30.2884C60.3015 30.3649 60.2697 30.4018 60.2617 30.3991C60.3395 30.2327 60.4073 30.0615 60.4647 29.8865C60.5826 29.405 60.5348 28.8963 60.3294 28.4471C60.1684 28.1237 59.9436 27.8385 59.6696 27.6098C59.3955 27.381 59.0781 27.2137 58.7377 27.1185C57.8876 26.8868 56.9915 26.9053 56.1511 27.1718C54.5946 27.6082 53.1323 28.3442 51.8415 29.3411C50.8467 30.1079 50.3294 30.6902 50.3015 30.6615Z" fill="#455A64"/>
<path d="M47.293 36.2586C47.3907 36.1083 47.5056 35.9706 47.6352 35.8485C47.866 35.6025 48.2082 35.2498 48.638 34.8275C49.7478 33.7015 50.988 32.7208 52.3308 31.9078C53.0703 31.4563 53.877 31.1335 54.7184 30.9523C55.427 30.8038 56.1638 30.9171 56.7996 31.2722C57.2219 31.5186 57.5566 31.898 57.7546 32.3547C57.8034 32.4869 57.8368 32.6245 57.8541 32.7648C57.8601 32.8111 57.8601 32.858 57.8541 32.9042C57.8302 32.9042 57.8143 32.7156 57.675 32.408C57.4609 31.9892 57.1295 31.6463 56.724 31.4239C56.1095 31.1039 55.4066 31.0126 54.7343 31.1655C53.9114 31.3523 53.1229 31.6735 52.3984 32.1169C51.0715 32.9239 49.8333 33.8767 48.7056 34.9587L47.6591 35.9264C47.5469 36.0482 47.4243 36.1593 47.293 36.2586V36.2586Z" fill="#455A64"/>
<path d="M78.7938 58.4023C78.8061 58.7848 78.7082 59.1625 78.5123 59.4877C78.3164 59.8128 78.0314 60.0708 77.6932 60.2291C77.3551 60.3873 76.979 60.4387 76.6125 60.3768C76.246 60.3148 75.9056 60.1423 75.6342 59.881C75.3629 59.6197 75.1728 59.2813 75.088 58.9087C75.0031 58.5361 75.0274 58.146 75.1578 57.7876C75.2881 57.4292 75.5186 57.1187 75.8201 56.8953C76.1216 56.6719 76.4807 56.5456 76.8519 56.5324C77.0985 56.5236 77.3445 56.5651 77.5756 56.6543C77.8068 56.7436 78.0186 56.8789 78.1989 57.0526C78.3793 57.2262 78.5246 57.4348 78.6267 57.6664C78.7288 57.898 78.7855 58.1481 78.7938 58.4023V58.4023Z" fill="#455A64"/>
<path d="M44.3125 113.782C43.8629 114.09 38.9007 115.328 37.6989 118.584C36.4971 121.84 30.1143 128.45 34.7343 134.905L44.3125 129.43V113.782Z" fill="#FF725E"/>
<path d="M34.7382 134.921C33.9286 133.823 33.3905 132.538 33.1704 131.177C32.9983 129.967 33.0687 128.733 33.3773 127.552C33.9463 125.211 35.2396 123.042 36.2782 121.27C36.8219 120.417 37.2983 119.52 37.7028 118.588C38.6857 115.927 42.1796 114.611 43.6718 114.049C43.8916 113.969 44.1057 113.873 44.3125 113.762V113.762V129.435L34.7382 134.921ZM44.3125 113.799C44.1052 113.898 43.8926 113.986 43.6758 114.061C42.1875 114.619 38.6977 115.935 37.7068 118.572C37.304 119.506 36.8276 120.404 36.2822 121.258C35.2436 123.013 33.9503 125.194 33.3853 127.536C33.0767 128.713 33.0062 129.943 33.1783 131.149C33.3977 132.502 33.9315 133.781 34.7343 134.876L44.2846 129.406L44.3125 113.799Z" fill="#263238"/>
<path d="M55.3749 86.8115L56.1588 75.6453L75.8803 67.165L76.5807 71.3313L63.1465 78.3763L55.3749 86.8115Z" fill="#E0E0E0"/>
<path d="M76.5808 68.875C76.5808 68.875 64.4996 73.9107 59.1394 78.8315C54.1016 83.4571 43.6201 101.697 42.4979 106.671C41.3758 111.645 41.5946 125.403 41.5946 125.403C41.5946 125.403 41.5668 139.6 41.5668 139.948C41.5668 140.297 32.9277 163.195 34.4955 175.682H83.7714C83.7714 175.682 85.2318 158.098 81.8653 151.274C78.4988 144.451 78.3834 145.837 78.3834 145.837C78.3834 145.837 80.4049 143.524 80.1821 141.441C79.9857 140.071 79.486 138.766 78.7217 137.627L87.3647 109.866C87.3647 109.866 88.2601 95.8699 85.9043 86.4916C83.7077 77.7243 82.8721 78.2205 80.1264 75.4115C80.0667 75.3541 80.1622 75.4894 80.1264 75.4115L77.6154 73.2914L76.5808 68.875Z" fill="#FF725E"/>
<path d="M44.3122 153.738C44.161 153.14 48.0448 146.033 48.0448 146.033L70.3289 149.888L71.8769 156.334L44.3122 153.738Z" fill="#FF725E"/>
<path d="M44.3124 153.739H44.4597L44.8576 153.768L46.4493 153.899L52.2711 154.424L71.8772 156.233L71.7657 156.36C71.3917 154.797 70.9977 153.157 70.5958 151.492C70.4685 150.959 70.3411 150.426 70.1979 149.913L70.2814 149.991L48.0172 146.104L48.0888 146.067C46.7995 148.421 45.8086 150.323 45.16 151.644C44.8337 152.304 44.5989 152.825 44.4557 153.182C44.3996 153.315 44.3531 153.452 44.3164 153.592C44.2925 153.686 44.3164 153.731 44.3164 153.735C44.3086 153.536 44.3512 153.338 44.4398 153.161C44.5711 152.796 44.7979 152.275 45.1123 151.607C45.741 150.27 46.704 148.359 47.9893 145.993L48.0132 145.952H48.0609L70.3451 149.77H70.4128V149.836L70.7908 151.414C71.1887 153.083 71.5867 154.724 71.9607 156.286L71.9965 156.429H71.8533L52.1954 154.535L46.3976 153.957L44.8417 153.793L44.4437 153.748C44.3998 153.751 44.3557 153.748 44.3124 153.739V153.739Z" fill="#263238"/>
<g opacity="0.3">
<path d="M39.5377 142.711L40.0351 146.869C43.5847 149.461 48.6066 148.969 52.4068 146.779C56.2071 144.589 59.0244 140.993 61.6269 137.401C69.5259 126.513 76.4061 114.757 81.0977 102.053C68.8613 117.197 51.9015 127.67 39.5377 142.711Z" fill="black"/>
</g>
<path d="M79.3312 80.6235C83.4657 84.0148 87.071 94.6274 80.6683 103.801C80.6683 103.801 52.6937 142.913 48.0617 146.038C43.4298 149.162 37.1942 147.321 35.4115 142.733C33.6288 138.144 34.3411 133.736 36.8361 130.615C39.3311 127.494 55.7259 97.7439 55.7259 97.7439C55.7259 97.7439 59.4625 83.9574 65.8334 79.9551" fill="#FF725E"/>
<path d="M65.8247 79.9512L65.5382 80.1603C65.2517 80.3572 64.9755 80.5694 64.7105 80.7959C63.6962 81.6922 62.7904 82.711 62.0125 83.8304C59.9512 86.7255 57.6352 91.4659 55.7809 97.7728C52.1995 104.297 47.6949 112.42 42.4661 121.557C41.1489 123.829 39.7999 126.174 38.3435 128.528C37.9456 129.11 37.6193 129.713 37.1975 130.283C36.9945 130.574 36.7995 130.857 36.5807 131.132C36.376 131.415 36.186 131.71 36.0116 132.014C35.6596 132.626 35.3652 133.271 35.1322 133.941C34.9034 134.622 34.7382 135.323 34.6388 136.036C34.4459 137.487 34.5066 138.962 34.8178 140.391C34.8974 140.752 34.981 141.113 35.0924 141.466C35.2038 141.818 35.3192 142.171 35.4426 142.52C35.5659 142.868 35.741 143.192 35.8922 143.528L36.1867 143.996C36.2797 144.156 36.3863 144.306 36.5051 144.447C37.4415 145.624 38.6837 146.501 40.0864 146.977C41.4934 147.47 42.9955 147.604 44.4637 147.367C45.8206 147.14 47.1095 146.597 48.2321 145.78C49.267 144.867 50.2315 143.873 51.1171 142.807C52.9237 140.715 54.6309 138.587 56.2902 136.483C59.601 132.268 62.7168 128.138 65.6695 124.181C68.6221 120.224 71.3957 116.456 73.9823 112.917L77.7149 107.783L79.4658 105.359C80.0308 104.564 80.6198 103.809 81.0893 103.005C82.0527 101.516 82.8007 99.89 83.3098 98.1788C83.4172 97.7687 83.5247 97.3586 83.6281 96.9731C83.7316 96.5877 83.7754 96.1735 83.847 95.7798C84.3981 92.4816 84.0509 89.0905 82.8442 85.9833C82.2883 84.4713 81.4907 83.0658 80.4845 81.8252C80.3054 81.616 80.1622 81.4151 80.0149 81.2798L79.6369 80.9189C79.4339 80.7262 79.3345 80.6196 79.3345 80.6196C79.3345 80.6196 79.4459 80.7139 79.6528 80.9025L80.0507 81.2552C80.2059 81.3946 80.3492 81.5914 80.5322 81.7965C81.5515 83.0327 82.3589 84.4389 82.9198 85.9546C83.8382 88.3486 84.2742 90.9102 84.2012 93.4835C84.1697 94.2598 84.0927 95.0336 83.9704 95.8004C83.8987 96.2104 83.8589 96.6205 83.7555 97.0019C83.652 97.3832 83.5446 97.822 83.4331 98.2321C82.9227 99.9585 82.1692 101.599 81.1968 103.1C80.7232 103.92 80.1343 104.666 79.5732 105.466L77.8263 107.893C76.6325 109.534 75.391 111.248 74.1017 113.036C71.5231 116.579 68.7495 120.359 65.8048 124.312C62.8601 128.266 59.7443 132.399 56.4335 136.615C54.7741 138.722 53.071 140.855 51.2604 142.946C50.8107 143.471 50.3412 143.988 49.8676 144.496C49.3936 145.018 48.8843 145.504 48.3435 145.952C47.1958 146.796 45.8752 147.357 44.4836 147.592C42.976 147.836 41.4335 147.695 39.9909 147.182C38.5586 146.69 37.2916 145.788 36.3379 144.582C36.2133 144.439 36.1027 144.284 36.0076 144.119L35.7052 143.639C35.55 143.29 35.367 142.954 35.2396 142.597C35.1123 142.241 34.981 141.892 34.8855 141.531C34.79 141.17 34.6905 140.805 34.6109 140.44C34.114 138.266 34.2258 135.991 34.9332 133.879C35.1737 133.197 35.4747 132.54 35.8326 131.915C36.0156 131.608 36.2026 131.304 36.4135 131.017C36.6244 130.73 36.8353 130.451 37.0303 130.168C37.4283 129.611 37.7944 129.004 38.1724 128.425C39.6248 126.076 40.9778 123.734 42.2989 121.454C47.5317 112.347 52.0403 104.231 55.6575 97.7195C57.5119 91.4085 59.8756 86.6763 61.9608 83.7771C62.7453 82.6566 63.6638 81.6426 64.6945 80.759C64.9631 80.5355 65.2434 80.3274 65.5342 80.1357C65.7212 80.0127 65.8247 79.9512 65.8247 79.9512Z" fill="#263238"/>
<path d="M53.4883 110.227C53.4883 110.227 52.768 108.287 51.3275 108.029C49.887 107.771 47.1054 108.029 47.1054 108.029C47.1054 108.029 45.8798 108.98 45.8917 110.284C45.8923 111.03 45.9791 111.774 46.1504 112.499C46.1504 112.499 45.1436 111.1 43.8185 112.425C42.4934 113.749 41.3314 116.435 41.3314 116.435C41.3314 116.435 39.5686 117.018 38.8961 117.899C38.422 118.605 38.0606 119.384 37.8257 120.208C37.3878 120.519 37.0422 120.948 36.8272 121.449C36.6123 121.95 36.5364 122.503 36.608 123.046C36.6874 123.623 36.8983 124.172 37.2234 124.649C37.5485 125.126 37.9785 125.516 38.4783 125.789C38.4783 125.789 43.735 129.779 44.3756 129.262C45.0163 128.746 46.3335 127.934 44.4433 126.207L41.3673 123.398L42.2586 121.979C42.2586 121.979 47.4039 125.625 48.2276 125.449C49.0513 125.272 50.456 125.244 49.879 123.935C49.302 122.627 44.495 118.814 44.495 118.814L45.064 116.763C45.064 116.763 50.6351 120.643 51.5384 120.023C52.4417 119.404 53.2614 119.113 52.3343 117.834C51.4071 116.554 47.392 113.499 47.392 113.499L49.0354 111.916C49.0354 111.916 52.9232 112.618 53.4883 110.227Z" fill="#B56760"/>
<path d="M77.5996 73.291L77.4603 73.332L77.0624 73.4468C76.7043 73.5412 76.175 73.6847 75.4946 73.8856C73.5775 74.4325 71.6899 75.0841 69.84 75.8375C69.255 76.0795 68.6462 76.346 68.0294 76.6577C67.719 76.8094 67.4046 76.9652 67.0902 77.1416C66.9351 77.2318 66.7719 77.3138 66.6167 77.4081C66.4615 77.5024 66.3103 77.6008 66.167 77.7157C64.9534 78.7479 63.8369 79.8957 62.8324 81.1438C60.6517 83.7396 58.4273 86.7495 56.1511 89.9398C53.8749 93.1302 51.7739 96.2385 49.8837 99.0721C48.9406 100.491 48.0572 101.844 47.2374 103.119C46.4592 104.285 45.7534 105.5 45.1244 106.757C44.2503 108.599 43.5108 110.505 42.9119 112.461C42.693 113.154 42.5379 113.691 42.4344 114.06L42.319 114.47C42.3074 114.519 42.2914 114.567 42.2712 114.614C42.2712 114.614 42.2712 114.56 42.2991 114.466L42.3946 114.056C42.4861 113.687 42.6294 113.142 42.8323 112.444C43.4058 110.476 44.1283 108.556 44.9931 106.703C45.6162 105.436 46.318 104.212 47.0942 103.037C47.89 101.754 48.7894 100.397 49.7245 98.9737C51.6027 96.1319 53.7038 93.0318 55.984 89.8291C58.2641 86.6265 60.4925 83.6248 62.6891 81.0249C63.7044 79.7692 64.8359 78.6183 66.0676 77.5885C66.2148 77.4696 66.3779 77.3753 66.5331 77.2687C66.6883 77.1621 66.8555 77.0924 67.0146 77.0021C67.329 76.8258 67.6473 76.67 67.9617 76.5224C68.5865 76.2189 69.1953 75.9524 69.7842 75.7022C71.6441 74.9585 73.5441 74.3259 75.4747 73.8077C76.1591 73.6191 76.6923 73.492 77.0664 73.3976L77.4643 73.3074C77.5088 73.2975 77.5541 73.292 77.5996 73.291V73.291Z" fill="#263238"/>
<path d="M74.4714 143.385C74.2567 143.282 74.0504 143.161 73.8546 143.024C73.4567 142.786 72.9115 142.413 72.243 141.933C68.7654 139.41 65.7286 136.297 63.2617 132.727C62.7921 132.042 62.426 131.476 62.1912 131.087C62.06 130.884 61.943 130.671 61.8411 130.451C61.9892 130.635 62.1222 130.831 62.239 131.038C62.4937 131.427 62.8757 131.977 63.3612 132.649C65.8803 136.153 68.8973 139.245 72.3106 141.822C72.9633 142.319 73.5044 142.708 73.8785 142.966C74.0856 143.091 74.2837 143.231 74.4714 143.385V143.385Z" fill="#263238"/>
<g opacity="0.3">
<path d="M45.0366 153.81L45.7091 156.336L70.93 156.249L45.0366 153.81Z" fill="black"/>
</g>
</svg>
