<svg width="186" height="166" viewBox="0 0 186 166" fill="none" xmlns="http://www.w3.org/2000/svg">
<g clip-path="url(#clip0_1820_4094)">
<g opacity="0.4">
<path d="M62.6385 12.7394C63.1774 12.42 63.757 12.1733 64.362 12.006L64.7141 10.3228L67.5903 10.2715L68.0054 11.9437C68.6151 12.0924 69.2021 12.3205 69.7511 12.6221L71.204 11.6796L73.2759 13.6599L72.3752 15.1267C72.6983 15.6585 72.9476 16.2308 73.1165 16.8282L74.8178 17.1766L74.8696 20.0223L73.1795 20.4293C73.0298 21.0327 72.7992 21.6136 72.4938 22.1565L73.4464 23.5977L71.4449 25.6439L69.9624 24.7528C69.4249 25.0724 68.8465 25.3191 68.2426 25.4863L67.8719 27.1694L64.9958 27.2208L64.5807 25.5486C63.9722 25.3998 63.3864 25.1717 62.8386 24.8702L61.382 25.8126L59.3027 23.8361L60.2034 22.3692C59.8805 21.8361 59.6312 21.2626 59.4621 20.664L57.7609 20.2973L57.709 17.4517L59.3991 17.0409C59.5494 16.4377 59.78 15.8569 60.0848 15.3137L59.1322 13.8726L61.1559 11.8483L62.6385 12.7394ZM64.173 16.5312C63.7486 16.9656 63.464 17.5148 63.3551 18.1092C63.2462 18.7037 63.318 19.3167 63.5612 19.8709C63.8044 20.425 64.2083 20.8953 64.7217 21.2224C65.2351 21.5494 65.835 21.7185 66.4455 21.7082C67.056 21.698 67.6498 21.5088 68.1516 21.1647C68.6535 20.8206 69.041 20.337 69.2651 19.775C69.4892 19.2131 69.5398 18.598 69.4106 18.0075C69.2814 17.4171 68.9781 16.8778 68.5391 16.4579C68.247 16.1772 67.9018 15.9564 67.5233 15.8082C67.1447 15.6599 66.7403 15.5871 66.3332 15.5939C65.9261 15.6007 65.5244 15.687 65.1512 15.8479C64.7779 16.0087 64.4404 16.241 64.1581 16.5312H64.173Z" fill="#E0E0E0"/>
<path d="M63.3054 107.182C63.6158 106.997 63.9499 106.854 64.2988 106.757L64.5026 105.785L66.1631 105.756L66.4003 106.72C66.7524 106.805 67.0915 106.935 67.4084 107.109L68.2461 106.566L69.4395 107.707L68.9392 108.547C69.1263 108.854 69.2709 109.184 69.3691 109.529L70.3513 109.731L70.381 111.374L69.4062 111.609C69.3211 111.957 69.1889 112.292 69.0133 112.606L69.5618 113.435L68.4092 114.616L67.553 114.102C67.2419 114.287 66.9081 114.431 66.5597 114.531L66.3447 115.514L64.6842 115.543L64.447 114.579C64.0949 114.495 63.7558 114.364 63.4389 114.19L62.6012 114.733L61.4078 113.592L61.9267 112.745C61.7399 112.438 61.5942 112.107 61.493 111.763L60.5145 111.561L60.4849 109.918L61.4596 109.683C61.5448 109.335 61.6769 108.999 61.8525 108.686L61.304 107.857L62.4567 106.676L63.3129 107.19L63.3054 107.182ZM64.1913 109.383C63.9458 109.633 63.781 109.951 63.7179 110.294C63.6548 110.638 63.6961 110.992 63.8366 111.312C63.9771 111.632 64.2104 111.904 64.5072 112.093C64.8039 112.282 65.1506 112.379 65.5034 112.373C65.8562 112.367 66.1992 112.258 66.489 112.058C66.7788 111.859 67.0023 111.579 67.1313 111.254C67.2603 110.93 67.2889 110.574 67.2135 110.233C67.1382 109.892 66.9622 109.581 66.7079 109.339C66.5408 109.177 66.3431 109.05 66.1261 108.963C65.9091 108.877 65.6772 108.835 65.4434 108.837C65.2097 108.84 64.9789 108.888 64.764 108.979C64.5491 109.07 64.3545 109.202 64.1913 109.368V109.383Z" fill="#E0E0E0"/>
<path d="M27.1598 21.794C27.3718 21.6671 27.5999 21.5685 27.838 21.5007L27.9789 20.8369H29.1093L29.2798 21.475C29.52 21.5354 29.7516 21.6253 29.9692 21.7427L30.54 21.376L31.3554 22.1534L30.9848 22.7328C31.113 22.9426 31.2127 23.1683 31.2813 23.4039L31.9521 23.5432V24.6434L31.285 24.8047C31.2269 25.0428 31.1372 25.2721 31.0181 25.4868L31.3888 26.0515L30.603 26.8583L30.0174 26.4916C29.8053 26.6185 29.5773 26.7171 29.3391 26.7849L29.1983 27.4487H28.0864L27.9233 26.7886C27.6827 26.7312 27.4508 26.6424 27.2339 26.5246L26.6631 26.8913L25.8477 26.1102L26.2183 25.5345C26.0901 25.3246 25.9904 25.099 25.9218 24.8634L25.251 24.724L25.2324 23.6239L25.8959 23.4626C25.9569 23.2249 26.0478 22.9958 26.1664 22.7805L25.7958 22.2157L26.5816 21.409L27.1672 21.7757L27.1598 21.794ZM27.7639 23.2865C27.5969 23.4577 27.485 23.6739 27.4423 23.908C27.3995 24.142 27.4279 24.3834 27.5237 24.6015C27.6196 24.8196 27.7787 25.0047 27.9808 25.1334C28.183 25.2621 28.4192 25.3286 28.6596 25.3245C28.8999 25.3204 29.1337 25.2459 29.3312 25.1104C29.5288 24.9749 29.6813 24.7844 29.7695 24.5632C29.8577 24.3419 29.8776 24.0998 29.8268 23.8673C29.7759 23.6348 29.6565 23.4225 29.4837 23.2572C29.3688 23.1473 29.2332 23.0609 29.0846 23.003C28.936 22.945 28.7774 22.9165 28.6176 22.9192C28.4579 22.922 28.3003 22.9558 28.1538 23.0188C28.0073 23.0819 27.8748 23.1728 27.7639 23.2865V23.2865Z" fill="#E0E0E0"/>
<path d="M82.4896 19.435C82.9077 19.185 83.3577 18.9914 83.8276 18.8593L84.1019 17.5501L86.3257 17.5098L86.6482 18.8116C87.1234 18.9265 87.5809 19.1042 88.0084 19.3396L89.1203 18.6062L90.7623 20.1684L90.0655 21.2979C90.319 21.7124 90.5148 22.1589 90.6474 22.6254L91.9743 22.8967L92.0113 25.097L90.6993 25.416C90.5798 25.8887 90.3979 26.3436 90.1581 26.7692L90.8994 27.8913L89.3464 29.4828L88.19 28.7897C87.7715 29.039 87.3217 29.2326 86.852 29.3655L86.574 30.6746L84.3502 30.715L84.0277 29.4131C83.5475 29.3009 83.0848 29.1245 82.6527 28.8888L81.5407 29.6222L79.9285 28.0857L80.629 26.9415C80.3768 26.5263 80.1811 26.08 80.0471 25.614L78.7239 25.3427L78.6831 23.1424L79.9989 22.8234C80.1151 22.3543 80.2946 21.9029 80.5326 21.4812L79.7913 20.3591L81.3443 18.7676L82.4896 19.435ZM83.683 22.3687C83.3533 22.7071 83.1324 23.1346 83.0483 23.5972C82.9642 24.0598 83.0206 24.5367 83.2105 24.9676C83.4003 25.3985 83.7151 25.7639 84.1149 26.0178C84.5147 26.2717 84.9817 26.4025 85.4567 26.3938C85.9317 26.3851 86.3934 26.2372 86.7834 25.9688C87.1734 25.7004 87.4743 25.3237 87.6478 24.8861C87.8214 24.4486 87.8599 23.9699 87.7585 23.5107C87.6571 23.0515 87.4203 22.6324 87.0781 22.3063C86.8493 22.0914 86.5799 21.9232 86.2853 21.8114C85.9907 21.6997 85.6767 21.6465 85.3614 21.655C85.046 21.6635 84.7354 21.7336 84.4474 21.8611C84.1594 21.9885 83.8996 22.171 83.683 22.398V22.3687Z" fill="#EBEBEB"/>
<path d="M141.663 74.1125C142.199 73.7929 142.776 73.5463 143.379 73.3791L143.749 71.6959L146.622 71.6445L147.037 73.3167C147.647 73.4638 148.235 73.692 148.783 73.9951L150.232 73.0527L152.3 75.0293L151.403 76.4961C151.724 77.0289 151.973 77.6009 152.144 78.1976L153.846 78.5643L153.898 81.4063L152.207 81.8171C152.059 82.4196 151.828 82.9994 151.522 83.5406L152.474 84.9781L150.48 87.0023L148.998 86.1112C148.46 86.4304 147.882 86.677 147.278 86.8446L146.907 88.5278L144.035 88.5755L143.62 86.9106C143.011 86.7619 142.425 86.5337 141.878 86.2322L140.425 87.1747L138.357 85.1981L139.257 83.7313C138.934 83.2008 138.685 82.6297 138.516 82.0334L136.815 81.6667L136.767 78.843L138.453 78.4323C138.603 77.8291 138.834 77.2483 139.139 76.7051L138.186 75.2713L140.184 73.225L141.666 74.1162L141.663 74.1125ZM143.194 77.9006C142.77 78.3349 142.487 78.8837 142.379 79.4774C142.271 80.0712 142.343 80.6833 142.586 81.2365C142.83 81.7896 143.234 82.2589 143.747 82.585C144.26 82.9111 144.859 83.0794 145.469 83.0687C146.078 83.0579 146.671 82.8685 147.172 82.5245C147.673 82.1805 148.06 81.6973 148.283 81.1359C148.506 80.5745 148.557 79.9602 148.427 79.3707C148.298 78.7811 147.995 78.2427 147.556 77.8236C147.265 77.5446 146.921 77.3253 146.544 77.1781C146.167 77.031 145.764 76.9589 145.359 76.9661C144.953 76.9732 144.553 77.0594 144.182 77.2198C143.81 77.3802 143.474 77.6115 143.194 77.9006V77.9006Z" fill="#E0E0E0"/>
<path d="M161.97 18.7824C161.972 17.5979 161.698 16.4289 161.169 15.3663C160.64 14.3036 159.871 13.376 158.92 12.6556C157.97 11.9352 156.865 11.4413 155.69 11.2125C154.515 10.9836 153.303 11.026 152.148 11.3362C150.993 11.6463 149.925 12.2161 149.028 13.001C148.132 13.7859 147.43 14.7648 146.979 15.8617C146.527 16.9586 146.337 18.1438 146.423 19.3252C146.51 20.5066 146.871 21.6522 147.478 22.6732V22.6732L147.5 22.7025C147.796 23.2012 148.171 23.5569 148.549 24.0776L153.074 30.0037C153.206 30.1719 153.374 30.3081 153.567 30.4018C153.76 30.4955 153.971 30.5442 154.186 30.5442C154.401 30.5442 154.613 30.4955 154.806 30.4018C154.998 30.3081 155.167 30.1719 155.298 30.0037L159.746 24.1767C160.15 23.7089 160.527 23.2192 160.876 22.7098L160.895 22.6878C161.601 21.505 161.972 20.156 161.97 18.7824V18.7824ZM154.186 22.1341C153.509 22.1334 152.847 21.934 152.285 21.5613C151.722 21.1885 151.284 20.6591 151.025 20.0398C150.766 19.4206 150.699 18.7395 150.832 18.0824C150.964 17.4254 151.291 16.822 151.77 16.3484C152.249 15.8749 152.859 15.5526 153.523 15.4221C154.187 15.2917 154.876 15.359 155.501 15.6156C156.127 15.8721 156.662 16.3064 157.038 16.8636C157.414 17.4207 157.615 18.0757 157.615 18.7457C157.615 19.191 157.526 19.6319 157.354 20.0432C157.181 20.4546 156.929 20.8283 156.61 21.1429C156.292 21.4576 155.914 21.7071 155.498 21.8772C155.082 22.0473 154.636 22.1346 154.186 22.1341V22.1341Z" fill="#E0E0E0"/>
<path d="M24.9329 129.613C25.7217 129.07 26.3321 128.311 26.6886 127.428C27.045 126.545 27.1318 125.579 26.9381 124.648C26.4303 122.011 23.973 120.247 21.4934 120.72C19.0138 121.193 17.3793 123.709 17.8871 126.349C18.0529 127.294 18.4982 128.168 19.1665 128.862C19.8349 129.556 20.6962 130.038 21.6417 130.247C14.8886 132.624 16.6788 140.046 16.6788 140.046L33.1463 136.951C33.1463 136.951 32.0344 129.316 24.9329 129.613Z" fill="#EBEBEB"/>
<path d="M44.8847 161.253L41.5118 160.424C41.5118 160.424 40.8113 163.24 37.8388 162.569C37.2641 162.451 36.741 162.157 36.3425 161.731C35.9439 161.304 35.6896 160.766 35.6149 160.189C35.5448 159.707 35.5912 159.215 35.7503 158.753C35.9095 158.292 36.1768 157.874 36.5304 157.534C37.3384 156.735 38.8136 156.189 40.9781 157.146L42.8647 149.58L39.5104 148.763L38.3984 153.196C38.3984 153.196 33.3985 153.251 32.1235 158.378C30.9004 163.284 35.0627 165.507 36.9678 165.969C38.4281 166.324 43.4725 167.186 44.8847 161.253Z" fill="#EBEBEB"/>
<path d="M39.856 147.195L43.2568 148.024L44.0397 144.88L40.6389 144.051L39.856 147.195Z" fill="#EBEBEB"/>
</g>
<path d="M21.4969 80.3833H29.2395L28.5576 83.8194H14.6104L15.1626 81.0874L23.5576 74.5783C25.6332 72.9354 26.267 71.9747 26.267 70.7755C26.267 69.5764 25.3441 68.7696 23.5576 68.7696C22.8036 68.7808 22.0614 68.9573 21.3846 69.2864C20.7079 69.6155 20.1132 70.089 19.6437 70.6729L16.7749 68.6156C18.2575 66.6097 21.0113 65.2822 24.1877 65.2822C28.0831 65.2822 30.6331 67.3395 30.6331 70.1778C30.6331 72.3377 29.6361 74.1603 26.3967 76.6355L21.4969 80.3833Z" fill="white"/>
<path d="M47.686 79.9944H44.6616L43.8981 83.8192H39.7395L40.529 79.9944H30.6069L31.1592 77.1561L42.0041 65.5938H46.6594L36.5557 76.5547H41.3963L42.082 73.1443H46.0552L45.3695 76.5547H48.3977L47.686 79.9944Z" fill="white"/>
<path d="M59.8431 61.8975H63.6867L50.162 86.423H46.3296L59.8431 61.8975Z" fill="white"/>
<path d="M77.3967 65.5938L76.8444 68.3294L67.0039 83.8192H62.2671L71.7111 69.0298H65.74L65.1322 72.0002H61.3442L62.6378 65.5938H77.3967Z" fill="white"/>
<path d="M12.8867 98.1977L13.9653 96.1735C14.9266 96.7811 16.0417 97.1078 17.1824 97.1159C18.2351 97.1159 18.8429 96.7895 18.8429 96.2688C18.8429 94.9817 14.1432 95.6931 14.1432 92.6861C14.1432 90.6215 15.926 89.2683 18.7873 89.2683C20.0009 89.2285 21.2029 89.5122 22.2676 90.0898L21.2743 92.0993C20.4767 91.6136 19.5571 91.3595 18.6205 91.3659C17.4864 91.3659 16.8785 91.7766 16.8785 92.2974C16.8785 93.6102 21.5782 92.8584 21.5782 95.8104C21.5782 97.8603 19.7547 99.2135 16.923 99.2135C15.2625 99.2208 13.7577 98.7844 12.8867 98.1977Z" fill="white"/>
<path d="M26.4525 91.5531L26.1374 93.1666H30.4331L30.0217 95.1872H25.7223L25.3739 96.9401H30.448L30.0032 99.0303H22.2383L24.1879 89.4775H31.76L31.3301 91.5715L26.4525 91.5531Z" fill="white"/>
<path d="M38.817 96.159L40.4626 99.0303H37.6013L36.1632 96.489H34.7844L34.2729 99.0303H31.5376L33.4686 89.4775H37.6013C40.0734 89.4775 41.4967 90.6143 41.4967 92.5286C41.5161 93.3411 41.264 94.1373 40.7795 94.7937C40.295 95.4501 39.6052 95.93 38.817 96.159V96.159ZM37.2158 91.5935H35.7777L35.2106 94.3951H36.8415C38.046 94.3951 38.7503 93.823 38.7503 92.7706C38.7354 91.9638 38.1535 91.5935 37.2158 91.5935V91.5935Z" fill="white"/>
<path d="M53.4864 89.4775L47.4413 99.0303H44.7467L42.5303 89.4775H45.336L46.7185 95.7116L50.6695 89.4775H53.4864Z" fill="white"/>
<path d="M54.0655 89.4775H56.8045L54.855 99.0303H52.1196L54.0655 89.4775Z" fill="white"/>
<path d="M57.2305 95.0122C57.2305 91.6898 59.7026 89.2695 63.2941 89.2695C65.0769 89.2695 66.5298 89.9149 67.2192 91.0737L65.2326 92.6323C65.0107 92.2766 64.6959 91.9867 64.3216 91.7931C63.9472 91.5995 63.5269 91.5094 63.1051 91.5321C61.226 91.5321 59.9806 92.966 59.9806 94.8508C59.9806 96.138 60.8665 96.9998 62.3453 96.9998C62.7968 97.0019 63.2431 96.9042 63.6516 96.7139C64.06 96.5236 64.4204 96.2454 64.7063 95.8996L66.3223 97.4692C65.2326 98.771 63.8093 99.2477 62.0822 99.2477C59.1244 99.222 57.2305 97.5132 57.2305 95.0122Z" fill="white"/>
<path d="M71.2106 91.5531L70.8918 93.1666H75.1876L74.7873 95.1872H70.4767L70.132 96.9401H75.2024L74.7613 99.0303H67.0112L68.9386 89.4775H76.5107L76.0845 91.5715L71.2106 91.5531Z" fill="white"/>
<path d="M23.4056 60.2002H18.0054C18.0054 52.7633 21.0483 45.1651 26.3522 39.3344C31.934 33.2067 39.1801 29.833 46.7374 29.833C62.182 29.833 72.9714 40.9883 72.9714 56.9695H67.5822C67.5822 43.9403 59.2095 35.187 46.7485 35.187C34.5322 35.176 23.4056 47.1014 23.4056 60.2002Z" fill="#FF635F"/>
<path d="M26.3673 58.7151C27.2309 58.7151 27.9314 58.7995 27.9277 58.8765C27.924 58.9535 27.2272 59.0122 26.3673 59.0122C25.5074 59.0122 24.8032 58.9425 24.8032 58.8508C24.8032 58.7591 25.5074 58.7005 26.3673 58.7151Z" fill="#263238"/>
<path d="M30.0953 47.0027C30.8366 47.4721 31.337 47.9525 31.2554 48.0809C31.1739 48.2092 30.5141 47.9488 29.7729 47.5051C29.0316 47.0614 28.5386 46.5737 28.6165 46.427C28.6943 46.2803 29.3726 46.537 30.0953 47.0027Z" fill="#263238"/>
<path d="M39.4362 38.9309C39.7883 39.712 39.9625 40.3977 39.8068 40.4564C39.6512 40.5151 39.2546 39.9467 38.8765 39.1802C38.4985 38.4138 38.3243 37.7134 38.5059 37.6547C38.6875 37.5961 39.0878 38.1388 39.4362 38.9309Z" fill="#263238"/>
<path d="M51.7407 37.9702C51.5258 38.7989 51.2329 39.437 51.0884 39.4077C50.9438 39.3783 50.9735 38.6743 51.1588 37.8345C51.3441 36.9947 51.6332 36.3677 51.8111 36.4007C51.9891 36.4337 51.9557 37.1451 51.7407 37.9702Z" fill="#263238"/>
<path d="M61.7925 44.9594C61.0734 45.4288 60.4248 45.7149 60.3395 45.5975C60.2543 45.4802 60.7547 44.9741 61.4515 44.4717C62.1483 43.9693 62.8006 43.687 62.9044 43.8336C63.0082 43.9803 62.5115 44.4864 61.7925 44.9594Z" fill="#263238"/>
<path d="M65.1034 56.4741C64.2435 56.4741 63.543 56.4081 63.543 56.3347C63.543 56.2614 64.2398 56.188 65.1034 56.177C65.967 56.166 66.6638 56.2284 66.6675 56.3164C66.6712 56.4044 65.9744 56.4741 65.1034 56.4741Z" fill="#263238"/>
<path d="M45.2733 58.0653C45.0042 58.0672 44.7426 57.9779 44.532 57.8123L35.455 50.8448C35.2033 50.6503 35.0401 50.3648 35.0012 50.0513C34.9622 49.7377 35.0508 49.4216 35.2474 49.1726C35.444 48.9236 35.7325 48.7621 36.0495 48.7236C36.3665 48.6851 36.6859 48.7728 36.9375 48.9673L45.2177 55.3187L56.6519 44.9298C56.8854 44.7153 57.1954 44.6014 57.5137 44.6131C57.8321 44.6248 58.1327 44.7612 58.3494 44.9921C58.5662 45.2231 58.6813 45.5298 58.6695 45.8448C58.6577 46.1598 58.5199 46.4572 58.2864 46.6717L46.1035 57.7463C45.8779 57.9534 45.581 58.0675 45.2733 58.0653V58.0653Z" fill="#FF635F"/>
<path d="M51.4299 21.9775H41.0223C40.8606 21.9775 40.7295 22.1072 40.7295 22.2672V25.9967C40.7295 26.1567 40.8606 26.2864 41.0223 26.2864H51.4299C51.5916 26.2864 51.7227 26.1567 51.7227 25.9967V22.2672C51.7227 22.1072 51.5916 21.9775 51.4299 21.9775Z" fill="#FF635F"/>
<path d="M49.0652 24.1338H43.3833V29.231H49.0652V24.1338Z" fill="#FF635F"/>
<path d="M22.7721 35.1649L18.504 40.3946C18.3381 40.5979 18.3702 40.8958 18.5756 41.0599L21.4939 43.3913C21.6993 43.5555 22.0004 43.5237 22.1663 43.3205L26.4344 38.0908C26.6003 37.8875 26.5682 37.5897 26.3628 37.4255L23.4445 35.0941C23.239 34.9299 22.938 34.9617 22.7721 35.1649Z" fill="#FF635F"/>
<path d="M51.4302 26.2858C51.4302 26.3481 49.0989 26.3958 46.2412 26.3958C43.3836 26.3958 41.0522 26.3481 41.0522 26.2858C41.0522 26.2235 43.3799 26.1758 46.2412 26.1758C49.1026 26.1758 51.4302 26.2271 51.4302 26.2858Z" fill="#263238"/>
<path d="M22.6761 42.4226C22.6168 42.4886 21.831 41.8946 20.86 41.1721C19.8889 40.4497 19.0994 39.863 19.1476 39.7897C19.1958 39.7163 20.0668 40.193 21.049 40.9228C22.0312 41.6525 22.7317 42.3603 22.6761 42.4226Z" fill="#263238"/>
<path d="M23.5802 41.1062C23.5209 41.1722 22.7351 40.5782 21.764 39.8557C20.793 39.1333 19.9998 38.5466 20.048 38.4732C20.0962 38.3999 20.9709 38.8766 21.9531 39.61C22.9353 40.3435 23.6358 41.0439 23.5802 41.1062Z" fill="#263238"/>
<path d="M24.6882 40.0017C24.6326 40.0677 23.8469 39.4737 22.8758 38.7512C21.9047 38.0288 21.1264 37.4421 21.1597 37.3688C21.1931 37.2954 22.0826 37.7721 23.0611 38.5055C24.0396 39.239 24.7475 39.9394 24.6882 40.0017Z" fill="#263238"/>
<path d="M25.7635 38.6843C25.7079 38.7503 24.9185 38.1563 23.9474 37.4339C22.9763 36.7114 22.1869 36.1247 22.2387 36.0514C22.2906 35.978 23.1616 36.4548 24.1401 37.1882C25.1186 37.9216 25.8191 38.622 25.7635 38.6843Z" fill="#263238"/>
<path d="M72.3511 36.8179L67.7569 31.8661C67.5783 31.6736 67.2759 31.6608 67.0814 31.8375L64.3181 34.347C64.1236 34.5237 64.1107 34.823 64.2892 35.0154L68.8835 39.9673C69.062 40.1598 69.3645 40.1726 69.559 39.9959L72.3222 37.4863C72.5168 37.3096 72.5297 37.0104 72.3511 36.8179Z" fill="#FF635F"/>
<path d="M65.1105 35.6532C65.0549 35.5872 65.7628 34.9198 66.6301 34.0617C67.4974 33.2036 68.1979 32.5325 68.2646 32.5948C68.3314 32.6572 67.7272 33.4383 66.8488 34.289C65.9704 35.1398 65.1624 35.7155 65.1105 35.6532Z" fill="#263238"/>
<path d="M66.2925 36.7294C66.2332 36.6634 66.9448 35.9959 67.8084 35.1378C68.672 34.2797 69.38 33.6087 69.4467 33.671C69.5134 33.7333 68.9055 34.5144 68.0308 35.3652C67.1561 36.216 66.3444 36.7917 66.2925 36.7294Z" fill="#263238"/>
<path d="M67.2305 37.9823C67.1712 37.9163 67.8828 37.2489 68.7464 36.3908C69.61 35.5327 70.3179 34.8616 70.3847 34.9239C70.4514 34.9863 69.8435 35.7637 68.9651 36.6145C68.0867 37.4652 67.2824 38.0446 67.2305 37.9823Z" fill="#263238"/>
<path d="M68.3868 39.2382C68.3275 39.1721 69.0391 38.5047 69.9027 37.6466C70.7663 36.7885 71.4742 36.1175 71.5409 36.1798C71.6076 36.2421 70.9998 37.0232 70.1214 37.874C69.2429 38.7248 68.4386 39.2895 68.3868 39.2382Z" fill="#263238"/>
<path d="M42.1903 26.2834C42.1051 26.2834 42.0347 25.3299 42.0347 24.1601C42.0347 22.9903 42.1051 22.0332 42.1903 22.0332C42.2756 22.0332 42.3497 22.9866 42.3497 24.1601C42.3497 25.3336 42.2793 26.2834 42.1903 26.2834Z" fill="#263238"/>
<path d="M44.2284 26.2834C44.1432 26.2834 44.0728 25.3299 44.0728 24.1601C44.0728 22.9903 44.1432 22.0332 44.2284 22.0332C44.3137 22.0332 44.3841 22.9866 44.3841 24.1601C44.3841 25.3336 44.3137 26.2834 44.2284 26.2834Z" fill="#263238"/>
<path d="M46.2631 26.2834C46.1778 26.2834 46.1074 25.3299 46.1074 24.1601C46.1074 22.9903 46.1778 22.0332 46.2631 22.0332C46.3483 22.0332 46.4188 22.9866 46.4188 24.1601C46.4188 25.3336 46.352 26.2834 46.2631 26.2834Z" fill="#263238"/>
<path d="M48.3017 26.2834C48.2127 26.2834 48.146 25.3299 48.146 24.1601C48.146 22.9903 48.2127 22.0332 48.3017 22.0332C48.3906 22.0332 48.4573 22.9866 48.4573 24.1601C48.4573 25.3336 48.3869 26.2834 48.3017 26.2834Z" fill="#263238"/>
<path d="M50.3363 26.2834C50.2511 26.2834 50.1807 25.3299 50.1807 24.1601C50.1807 22.9903 50.2511 22.0332 50.3363 22.0332C50.4216 22.0332 50.492 22.9866 50.492 24.1601C50.492 25.3336 50.4068 26.2834 50.3363 26.2834Z" fill="#263238"/>
<path d="M47.4766 58.373C48.539 57.3219 48.539 55.6176 47.4766 54.5664C46.4142 53.5153 44.6917 53.5153 43.6293 54.5664C42.5668 55.6176 42.5668 57.3219 43.6293 58.373C44.6917 59.4242 46.4142 59.4242 47.4766 58.373Z" fill="#FF635F"/>
<path d="M48.2719 56.473C48.246 56.473 48.2497 56.2347 48.1348 55.8276C47.97 55.2596 47.6193 54.7618 47.1378 54.4121C46.7518 54.1285 46.2937 53.9567 45.8148 53.9156C45.3358 53.8746 44.8547 53.9661 44.4252 54.1798C43.9957 54.3936 43.6347 54.7212 43.3824 55.1261C43.1301 55.531 42.9965 55.9974 42.9965 56.473C42.9965 56.9487 43.1301 57.415 43.3824 57.82C43.6347 58.2249 43.9957 58.5525 44.4252 58.7662C44.8547 58.98 45.3358 59.0715 45.8148 59.0304C46.2937 58.9894 46.7518 58.8175 47.1378 58.5339C47.6185 58.1835 47.9689 57.686 48.1348 57.1184C48.2497 56.7114 48.246 56.473 48.2719 56.473C48.2979 56.473 48.2719 56.5317 48.2719 56.6454C48.2778 56.8132 48.2603 56.981 48.2201 57.1441C48.087 57.7563 47.7406 58.3028 47.2416 58.688C46.8686 58.9776 46.4277 59.1692 45.9598 59.2449C45.4919 59.3205 45.0123 59.2778 44.5655 59.1207C44.0125 58.9268 43.5338 58.5681 43.1952 58.0939C42.8566 57.6198 42.6748 57.0536 42.6748 56.473C42.6748 55.8925 42.8566 55.3262 43.1952 54.8521C43.5338 54.378 44.0125 54.0193 44.5655 53.8254C45.0121 53.6688 45.4914 53.626 45.9591 53.701C46.4268 53.776 46.8678 53.9663 47.2416 54.2544C47.7404 54.6413 48.0866 55.1889 48.2201 55.802C48.2603 55.9651 48.2778 56.1329 48.2719 56.3007C48.2905 56.407 48.2831 56.473 48.2719 56.473Z" fill="#263238"/>
<path d="M141.314 65.6925L145.962 64.9591C149.008 67.391 152.864 68.6074 156.771 68.3693C160.678 68.1312 164.353 66.4558 167.075 63.6724C169.797 60.889 171.368 57.199 171.479 53.3278C171.59 49.4566 170.234 45.6842 167.676 42.7523C165.119 39.8204 161.546 37.941 157.659 37.4836C153.772 37.0262 149.853 38.0239 146.671 40.2806C143.49 42.5372 141.278 45.8896 140.468 49.6786C139.658 53.4677 140.311 57.4193 142.297 60.7566L141.314 65.6925Z" fill="white"/>
<path d="M141.313 65.6926C141.313 65.6926 141.313 65.5899 141.365 65.3809L141.543 64.4421C141.702 63.5987 141.94 62.3629 142.247 60.7494C142.248 60.7441 142.25 60.7391 142.253 60.7346C142.256 60.7302 142.26 60.7264 142.264 60.7236C142.269 60.7208 142.274 60.7191 142.28 60.7184C142.285 60.7178 142.29 60.7184 142.295 60.72C142.299 60.7181 142.303 60.7171 142.307 60.7171C142.31 60.7171 142.314 60.7181 142.318 60.72V60.72L142.251 60.7714C140.925 58.5562 140.175 56.05 140.068 53.4775C140.035 52.6769 140.066 51.875 140.161 51.0792C140.271 50.2274 140.447 49.3852 140.687 48.5599C141.562 45.5681 143.325 42.9053 145.748 40.9164C148.171 38.9275 151.141 37.7041 154.275 37.4046C156.733 37.1751 159.212 37.5227 161.509 38.4192C163.806 39.3157 165.857 40.7359 167.495 42.5642L168.125 43.2977C168.322 43.5544 168.496 43.822 168.689 44.0787C169.055 44.6006 169.388 45.1444 169.686 45.7069C169.849 45.9783 169.953 46.279 170.09 46.5614C170.227 46.8437 170.368 47.1261 170.46 47.4268C170.68 48.0088 170.862 48.6041 171.005 49.209C171.575 51.5596 171.594 54.0082 171.061 56.3672C170.346 59.4347 168.707 62.2155 166.361 64.3421C164.016 66.4687 161.073 67.8411 157.922 68.2779C157.056 68.3942 156.182 68.4445 155.309 68.4282C154.497 68.3902 153.689 68.3044 152.888 68.1715C150.338 67.7017 147.948 66.6074 145.935 64.9885H145.968L142.492 65.5056L141.606 65.6339L141.313 65.6743L141.621 65.6193L142.514 65.4726L145.954 64.9078H145.987C147.998 66.5001 150.377 67.5725 152.911 68.0285C153.705 68.1595 154.507 68.2415 155.312 68.2742C156.18 68.2881 157.047 68.2354 157.907 68.1165C161.02 67.6709 163.924 66.305 166.239 64.1979C168.554 62.0908 170.171 59.3408 170.879 56.3085C171.403 53.9766 171.381 51.5571 170.816 49.2347C170.671 48.6383 170.492 48.0506 170.279 47.4745C170.186 47.1774 170.03 46.9061 169.908 46.62C169.786 46.334 169.667 46.0443 169.508 45.7766C169.214 45.2209 168.885 44.6844 168.522 44.1704C168.337 43.9137 168.151 43.6497 167.966 43.3967L167.343 42.6632C165.725 40.8572 163.7 39.4535 161.431 38.5661C159.163 37.6786 156.715 37.3322 154.286 37.555C152.135 37.7652 150.052 38.4144 148.168 39.4615C146.285 40.5087 144.641 41.931 143.341 43.6387C142.208 45.1326 141.361 46.8192 140.843 48.6149C140.603 49.4319 140.426 50.2654 140.313 51.1086C140.214 51.8979 140.18 52.6937 140.209 53.4885C140.299 56.0431 141.026 58.536 142.325 60.7457C142.332 60.7532 142.336 60.763 142.336 60.7732C142.336 60.7834 142.332 60.7932 142.325 60.8007C142.318 60.8067 142.309 60.8099 142.299 60.8099C142.29 60.8099 142.28 60.8067 142.273 60.8007L142.34 60.7787C142.014 62.3739 141.762 63.5987 141.599 64.4458C141.513 64.8602 141.447 65.1792 141.402 65.3919C141.358 65.6046 141.313 65.6926 141.313 65.6926Z" fill="#263238"/>
<path d="M160.546 53.3483C160.546 53.0369 160.638 52.7322 160.813 52.4729C160.987 52.2137 161.236 52.0115 161.526 51.8919C161.817 51.7724 162.137 51.741 162.446 51.8015C162.755 51.8621 163.038 52.012 163.261 52.2323C163.483 52.4525 163.635 52.7331 163.696 53.0387C163.757 53.3442 163.726 53.6608 163.605 53.9484C163.484 54.236 163.28 54.4817 163.018 54.6542C162.755 54.8268 162.448 54.9186 162.133 54.9178C161.712 54.9169 161.309 54.7512 161.012 54.4571C160.715 54.1629 160.547 53.7643 160.546 53.3483V53.3483Z" fill="#263238"/>
<path d="M154.186 53.3483C154.185 53.037 154.278 52.7325 154.452 52.4733C154.626 52.2141 154.875 52.0119 155.165 51.8923C155.456 51.7727 155.775 51.741 156.084 51.8013C156.393 51.8616 156.676 52.0111 156.899 52.231C157.122 52.4508 157.274 52.7311 157.335 53.0364C157.397 53.3417 157.366 53.6582 157.245 53.9458C157.125 54.2335 156.921 54.4794 156.66 54.6525C156.398 54.8255 156.091 54.9178 155.776 54.9178C155.355 54.9179 154.951 54.7526 154.653 54.4584C154.355 54.1641 154.187 53.7649 154.186 53.3483V53.3483Z" fill="#263238"/>
<path d="M147.844 54.1343C147.687 53.8648 147.614 53.5553 147.634 53.2448C147.655 52.9343 147.768 52.6368 147.959 52.39C148.151 52.1431 148.412 51.958 148.71 51.8579C149.008 51.7579 149.329 51.7475 149.632 51.828C149.936 51.9085 150.209 52.0764 150.416 52.3103C150.624 52.5442 150.756 52.8338 150.797 53.1422C150.838 53.4507 150.786 53.7643 150.647 54.0434C150.508 54.3225 150.288 54.5545 150.016 54.71C149.65 54.9176 149.217 54.9736 148.81 54.8657C148.403 54.7578 148.056 54.4948 147.844 54.1343V54.1343Z" fill="#263238"/>
<path d="M36.8012 109.646C35.8265 109.187 34.1845 108.23 33.169 107.856C32.1651 107.431 31.0451 107.356 29.9926 107.643C29.3958 107.841 28.7991 108.314 28.7954 108.938L32.7798 111.846L36.8012 110.797V109.646Z" fill="#FF9A6C"/>
<path d="M32.442 109.606C32.442 109.606 25.2849 108.07 24.0915 107.465C22.898 106.86 16.6787 103.779 15.6372 103.779C14.5957 103.779 13.7061 104.058 13.5171 105.085L14.8773 106.13L15.0515 106.665L17.3792 107.864L17.7906 108.62L23.7208 111.752C23.7208 111.752 29.9402 114.876 30.978 115.052C32.0158 115.228 37.1973 115.657 39.4137 117.524L48.3091 113.908C48.3091 113.908 45.7406 110.299 43.7614 109.408C41.9971 108.616 39.0357 108.616 36.9638 109.456L32.442 109.606Z" fill="#FFBF9D"/>
<path d="M38.3955 115.514C38.3955 115.514 49.7186 139.944 51.5421 144.851C51.5421 144.851 64.1995 142.79 64.6332 135.84L48.325 113.838L38.3955 115.514Z" fill="#FFBF9D"/>
<path d="M27.8798 110.16C27.8798 110.16 27.8353 110.16 27.7575 110.16C27.6417 110.148 27.5274 110.125 27.4165 110.09C27.0106 109.968 26.6162 109.811 26.2378 109.621C25.756 109.39 25.1963 109.086 24.5811 108.745C24.2734 108.576 23.951 108.396 23.6137 108.224C23.2764 108.051 22.9095 107.901 22.5351 107.74C21.842 107.429 21.1258 107.172 20.3928 106.97C19.722 106.805 19.0771 106.68 18.5915 106.841C18.4032 106.916 18.2323 107.028 18.0895 107.17C17.9467 107.313 17.835 107.483 17.7613 107.67C17.7065 107.813 17.6434 107.952 17.5723 108.088C17.5723 108.088 17.5723 108.044 17.5908 107.971C17.6156 107.858 17.649 107.748 17.6909 107.641C17.7564 107.47 17.8449 107.308 17.954 107.16C18.0983 106.958 18.2993 106.803 18.5322 106.713C18.8195 106.618 19.1248 106.588 19.4255 106.625C19.7617 106.658 20.0949 106.715 20.4225 106.797C21.1711 106.992 21.9024 107.248 22.6093 107.56C22.9799 107.721 23.3506 107.872 23.6952 108.051C24.0399 108.231 24.3587 108.418 24.6663 108.59C25.2779 108.939 25.8264 109.254 26.2971 109.496C26.6619 109.693 27.0395 109.866 27.4276 110.013C27.7167 110.12 27.8798 110.142 27.8798 110.16Z" fill="#FF9A6C"/>
<path d="M21.0527 106.647C20.7038 106.577 20.3659 106.461 20.0483 106.302C19.2839 105.945 18.4978 105.636 17.6947 105.375C17.2553 105.251 16.796 105.213 16.3419 105.261C16.1607 105.266 15.9825 105.308 15.8181 105.384C15.6537 105.459 15.5066 105.567 15.3856 105.701C15.2407 105.9 15.1454 106.13 15.1077 106.372C15.1043 106.466 15.0855 106.559 15.0521 106.647C15.0347 106.554 15.0347 106.458 15.0521 106.365C15.0659 106.103 15.1504 105.85 15.2967 105.631C15.4101 105.479 15.5571 105.353 15.7266 105.265C15.9205 105.173 16.1285 105.115 16.3419 105.092C16.8199 105.033 17.3052 105.069 17.7689 105.199C18.5834 105.457 19.3724 105.789 20.1261 106.189C20.4431 106.325 20.7524 106.478 21.0527 106.647V106.647Z" fill="#FF9A6C"/>
<path d="M38.9183 108.913C38.9183 108.913 38.8182 108.971 38.6292 109.037C38.3581 109.134 38.0822 109.217 37.8026 109.287C36.8825 109.523 35.9394 109.662 34.9895 109.701C34.0398 109.742 33.0883 109.685 32.1504 109.532C31.7797 109.47 31.5054 109.408 31.309 109.353C31.2039 109.337 31.1024 109.303 31.0088 109.254C31.0088 109.224 31.4536 109.309 32.1726 109.397C33.1044 109.511 34.044 109.549 34.9821 109.51C35.9208 109.462 36.8541 109.34 37.773 109.144C38.4587 109.012 38.8923 108.887 38.9183 108.913Z" fill="#FF9A6C"/>
<path d="M144.343 94.4088L127.871 91.0351L123.794 88.0098L102.038 92.1609C101.689 92.7917 98.1646 97.6616 98.1646 97.6616L89.5953 100.54C85.9533 101.487 82.7025 103.539 80.2997 106.408C78.0149 109.199 76.1429 112.299 74.7401 115.612C70.8854 124.563 65.3221 134.905 65.3221 134.905L61.8344 129.345L47.1348 136.195C47.1348 136.195 55.7447 153.368 58.595 155.822C61.7639 158.546 69.0507 158.862 74.0877 153.779C77.1233 150.713 85.8963 138.597 87.7236 135.565L90.4367 148.245L92.9311 162.719L88.8985 172.683H147.756L145.321 163.266C145.321 163.266 147.719 138.722 148.383 134.153C149.943 123.375 144.343 94.4088 144.343 94.4088Z" fill="#FF635F"/>
<path d="M144.343 94.4092C144.343 94.4092 156.129 97.6802 158.723 109.272C160.295 116.294 165.632 136.313 167.511 152.793C168.623 162.591 168.594 171.645 168.623 172.683H150.536L142.871 97.6802L144.343 94.4092Z" fill="#FF635F"/>
<path d="M114.113 104.361C114.113 104.361 114.113 104.405 114.065 104.482L113.898 104.82C113.75 105.117 113.527 105.553 113.286 106.107C112.764 107.207 112.148 108.839 111.155 110.661L111.107 110.753L111.025 110.683C109.802 109.653 108.475 108.413 107.104 107.075C104.676 104.691 102.549 102.473 100.977 100.899L99.1056 99.0402L98.5904 98.5378C98.5277 98.4823 98.4706 98.4209 98.4199 98.3545C98.4915 98.3991 98.5575 98.4521 98.6164 98.5122L99.1501 98.9889C99.6097 99.407 100.262 100.027 101.066 100.804C102.664 102.355 104.81 104.559 107.23 106.939C108.601 108.278 109.921 109.506 111.129 110.555L110.996 110.577C111.996 108.78 112.634 107.156 113.183 106.063C113.453 105.509 113.679 105.084 113.842 104.794C113.916 104.666 113.979 104.556 114.031 104.471C114.054 104.432 114.082 104.395 114.113 104.361Z" fill="black"/>
<path d="M128.102 91.4492C128.1 91.5358 128.089 91.6219 128.068 91.7059C128.031 91.8893 127.987 92.1313 127.931 92.4393C127.798 93.0701 127.56 93.9795 127.257 95.087C126.615 97.2872 125.578 100.327 124.291 103.609C123.613 105.348 122.946 106.99 122.323 108.446L122.275 108.56L122.182 108.479C120.503 107.012 118.999 105.857 117.979 104.999C117.468 104.57 117.068 104.225 116.797 103.983L116.497 103.705C116.426 103.639 116.393 103.606 116.397 103.602C116.439 103.624 116.479 103.651 116.515 103.683L116.834 103.943L118.046 104.918C119.088 105.755 120.604 106.888 122.301 108.347L122.16 108.38C122.772 106.913 123.435 105.278 124.11 103.543C125.381 100.243 126.437 97.2542 127.108 95.0503C127.442 93.9502 127.686 93.0481 127.85 92.421C127.92 92.124 127.979 91.8856 128.024 91.6876C128.044 91.6063 128.07 91.5266 128.102 91.4492V91.4492Z" fill="black"/>
<path d="M89.9732 146.621C89.9577 146.596 89.9465 146.569 89.9399 146.54L89.862 146.291C89.7953 146.046 89.7027 145.724 89.5841 145.323C89.458 144.905 89.3357 144.388 89.1875 143.786C89.0392 143.185 88.8798 142.495 88.7205 141.733C87.9005 137.754 87.3237 133.73 86.9933 129.683C86.5745 124.941 86.4818 120.632 86.504 117.519C86.504 115.96 86.5448 114.699 86.5893 113.83C86.6115 113.404 86.6263 113.071 86.6375 112.825C86.6375 112.722 86.6375 112.634 86.656 112.565C86.6521 112.535 86.6521 112.506 86.656 112.477C86.659 112.507 86.659 112.538 86.656 112.568V112.829C86.656 113.074 86.656 113.408 86.656 113.83C86.656 114.702 86.6263 115.96 86.6338 117.519C86.6338 120.629 86.7598 124.934 87.1786 129.664C87.512 133.706 88.0688 137.726 88.8465 141.707C88.9984 142.47 89.1393 143.174 89.2838 143.761C89.4284 144.347 89.5359 144.886 89.6545 145.304L89.8991 146.28L89.9547 146.533C89.9732 146.592 89.9769 146.621 89.9732 146.621Z" fill="black"/>
<path d="M145.321 107.265C145.343 107.296 145.361 107.331 145.373 107.367C145.407 107.444 145.451 107.543 145.503 107.668C145.622 107.947 145.781 108.339 145.988 108.834C146.092 109.091 146.215 109.37 146.333 109.681L146.685 110.708C146.811 111.075 146.945 111.474 147.089 111.893C147.234 112.311 147.33 112.769 147.46 113.242C148.572 117.015 149.128 122.476 148.809 128.449C148.49 134.423 147.779 139.817 147.326 143.69C147.1 145.626 146.915 147.199 146.785 148.299C146.722 148.831 146.67 149.253 146.633 149.55L146.589 149.876C146.586 149.914 146.579 149.951 146.567 149.986C146.562 149.95 146.562 149.913 146.567 149.876L146.593 149.546C146.622 149.246 146.663 148.813 146.711 148.292C146.815 147.192 146.978 145.622 147.189 143.675C147.593 139.781 148.275 134.405 148.601 128.442C148.928 122.479 148.379 117.048 147.315 113.275L146.945 111.926L146.574 110.745C146.455 110.378 146.344 110.03 146.24 109.714C146.137 109.399 146.011 109.117 145.911 108.86C145.718 108.357 145.57 107.965 145.458 107.683C145.414 107.554 145.377 107.455 145.347 107.375C145.333 107.34 145.324 107.302 145.321 107.265Z" fill="black"/>
<path d="M65.4186 147.391C65.3667 147.391 65.3037 144.597 65.2815 141.157C65.2592 137.717 65.2815 134.923 65.3371 134.923C65.3927 134.923 65.452 137.717 65.4742 141.157C65.4964 144.597 65.4742 147.391 65.4186 147.391Z" fill="black"/>
<path d="M118.902 164.314V164.16C118.902 164.05 118.932 163.904 118.954 163.713C119.006 163.31 119.077 162.734 119.169 161.993C119.217 161.626 119.269 161.205 119.329 160.754C119.388 160.303 119.432 159.804 119.488 159.287C119.596 158.223 119.744 157.017 119.859 155.675C119.914 155.007 119.97 154.303 120.033 153.573C120.096 152.844 120.126 152.081 120.174 151.293C120.285 149.716 120.333 148.025 120.396 146.25C120.478 142.697 120.467 138.788 120.281 134.692C120.096 130.595 119.718 126.701 119.299 123.17C119.066 121.406 118.862 119.73 118.599 118.171C118.476 117.39 118.369 116.635 118.228 115.912C118.087 115.19 117.972 114.497 117.857 113.833C117.631 112.509 117.372 111.321 117.16 110.272C117.053 109.748 116.957 109.26 116.864 108.806C116.771 108.351 116.671 107.951 116.586 107.584L116.215 105.894C116.178 105.707 116.145 105.56 116.123 105.454C116.1 105.347 116.097 105.3 116.097 105.3C116.115 105.347 116.13 105.396 116.141 105.446L116.256 105.883L116.667 107.57L116.96 108.787C117.057 109.235 117.16 109.719 117.275 110.254C117.494 111.299 117.765 112.487 117.998 113.811C118.122 114.474 118.245 115.167 118.369 115.89C118.502 116.624 118.61 117.357 118.739 118.149C119.006 119.711 119.217 121.387 119.458 123.151C119.885 126.686 120.248 130.584 120.455 134.684C120.663 138.784 120.648 142.7 120.555 146.258C120.485 148.036 120.433 149.727 120.315 151.304C120.263 152.092 120.226 152.855 120.163 153.588C120.1 154.322 120.033 155.022 119.974 155.693C119.87 157.035 119.71 158.26 119.603 159.301C119.54 159.833 119.481 160.328 119.429 160.768C119.377 161.208 119.306 161.634 119.251 162.008C119.143 162.741 119.058 163.321 119.002 163.72L118.932 164.168C118.926 164.217 118.917 164.266 118.902 164.314V164.314Z" fill="black"/>
<path d="M126.737 124.733H126.811L127.045 124.707L127.953 124.604L131.426 124.238L143.787 122.969H143.879V123.06C143.972 126.761 144.083 130.948 144.198 135.389V135.43L144.172 135.455L142.69 137.043L137.286 142.756L137.238 142.808L137.175 142.775L128.068 138.301L128.027 138.283V138.25C127.631 134.161 127.286 130.78 127.075 128.407C126.963 127.241 126.878 126.324 126.819 125.69C126.793 125.385 126.771 125.151 126.756 124.978C126.741 124.806 126.756 124.744 126.756 124.744C126.756 124.744 126.756 124.832 126.789 124.993C126.823 125.154 126.837 125.407 126.874 125.726C126.941 126.368 127.041 127.289 127.171 128.462C127.419 130.816 127.771 134.179 128.201 138.246L128.157 138.184L137.275 142.632L137.167 142.65L142.56 136.915L144.043 135.331L144.017 135.397C143.909 130.956 143.805 126.772 143.716 123.068L143.813 123.148L131.489 124.315L127.994 124.637L127.063 124.718L126.823 124.74L126.737 124.733Z" fill="black"/>
<path d="M143.902 127.315C143.692 127.372 143.477 127.413 143.26 127.436C142.845 127.502 142.245 127.586 141.5 127.681C140.017 127.868 137.946 128.085 135.666 128.301L129.825 128.866L128.057 129.049C127.842 129.083 127.625 129.099 127.408 129.097C127.618 129.039 127.833 128.999 128.049 128.976C128.465 128.91 129.065 128.826 129.81 128.73C131.293 128.543 133.364 128.327 135.648 128.11L141.485 127.546L143.253 127.362C143.468 127.328 143.685 127.312 143.902 127.315V127.315Z" fill="black"/>
<g opacity="0.3">
<path d="M147.483 141.737L148.105 149.229C149.48 142.812 151.641 135.914 151.304 129.364C150.967 122.815 150.344 116.548 146.615 110.618C148.236 115.083 148.98 119.812 148.806 124.553C148.465 132.217 147.483 141.737 147.483 141.737Z" fill="black"/>
</g>
<path d="M62.965 127.79C62.7648 127.339 62.4106 126.972 61.9643 126.753C61.4454 126.577 60.882 126.826 60.3891 127.068L46.9422 133.691C46.0564 134.127 45.089 134.644 44.7629 135.561C44.3366 136.734 45.1335 137.974 45.8748 138.982C47.1127 140.666 48.5953 142.499 50.6931 142.737L62.2608 134.89C63.6729 134.685 64.5514 133.126 64.4846 131.714C64.4179 130.302 63.6841 129.015 62.965 127.79Z" fill="#FF635F"/>
<path d="M64.4251 132.587C64.3908 132.634 64.351 132.677 64.3064 132.715L63.9358 133.056C63.6171 133.35 63.1463 133.764 62.557 134.263C61.3747 135.264 59.6957 136.595 57.7387 137.952C55.7817 139.309 53.9915 140.427 52.6313 141.183C51.9567 141.568 51.4044 141.868 51.019 142.066L50.5742 142.29C50.4704 142.341 50.4148 142.363 50.4111 142.356C50.454 142.316 50.5027 142.283 50.5557 142.257L50.9819 142L52.5608 141.065C53.8914 140.273 55.7039 139.136 57.6386 137.783C59.5734 136.43 61.2635 135.121 62.4569 134.149L63.8765 132.987L64.2471 132.675C64.3732 132.616 64.4213 132.58 64.4251 132.587Z" fill="black"/>
<g opacity="0.3">
<path d="M127.927 92.29C126.345 97.49 124.128 103.372 122.256 108.425C120.663 107.087 118.431 105.316 116.834 103.973C118.209 106.672 119.859 109.224 121.76 111.59C121.982 111.865 122.279 112.166 122.623 112.1C122.968 112.034 123.124 111.682 123.242 111.366L126.159 103.728C127.523 100.156 128.839 95.9901 127.927 92.29Z" fill="black"/>
</g>
<path d="M102.909 35.7162C107.727 34.3448 112.234 35.7162 116.678 37.9972C121.122 40.2781 124.706 44.0442 127.026 48.4264C129.472 53.0433 130.555 58.4229 129.669 63.5605C128.783 68.6981 125.847 73.5386 121.452 76.3953C115.444 80.3118 107.163 80.1064 100.978 76.4797C94.7915 72.8529 90.7182 66.1678 89.6396 59.1306C88.8983 54.2827 89.4988 49.1708 91.7856 44.829C94.0725 40.4871 98.1162 36.9667 102.905 35.7126" fill="#263238"/>
<path d="M118.728 50.6392C117.797 48.868 117.838 46.7667 117.33 44.8305C116.219 40.573 112.29 37.4963 108.02 36.2679C104.05 35.1201 99.4582 35.9818 95.0476 37.9547C92.0306 39.3079 89.2841 41.3834 87.4828 44.1338C86.3047 45.9773 85.589 48.0727 85.3956 50.2454C85.2022 52.4181 85.5366 54.605 86.3709 56.6239L108.383 50.8959C110.674 52.3627 113.02 53.8772 115.67 54.563C116.441 54.799 117.26 54.8356 118.05 54.6693C118.441 54.5777 118.798 54.3765 119.077 54.0897C119.357 53.803 119.547 53.4428 119.625 53.0521C119.717 52.1794 119.132 51.4129 118.728 50.6392Z" fill="#263238"/>
<path d="M123.979 89.2567L118.297 49.7181C118.045 47.8478 117.185 45.9409 115.284 46.029L95.2694 44.1221C88.9982 44.4081 86.0553 52.5564 86.6113 58.7281C87.2302 65.6002 88.2569 73.9649 89.8544 78.9228C93.0678 88.8863 101.181 88.989 101.181 88.989C101.181 88.989 101.674 90.9692 102.293 94.673L115.265 103.21L123.979 89.2567Z" fill="#FFBF9D"/>
<path d="M91.4492 66.2499C91.499 66.5918 91.6819 66.9009 91.9589 67.1113C92.2359 67.3216 92.585 67.4165 92.9318 67.3756C93.1022 67.3637 93.2686 67.3181 93.4209 67.2415C93.5733 67.1649 93.7086 67.0588 93.8188 66.9296C93.929 66.8004 94.0119 66.6506 94.0627 66.4891C94.1134 66.3277 94.1309 66.1578 94.1141 65.9895C94.0634 65.6477 93.8804 65.3388 93.6038 65.128C93.3271 64.9172 92.9785 64.8211 92.6315 64.86C92.4611 64.8729 92.2949 64.9193 92.1428 64.9964C91.9907 65.0736 91.8556 65.18 91.7455 65.3094C91.6354 65.4388 91.5525 65.5886 91.5016 65.7501C91.4508 65.9116 91.4329 66.0815 91.4492 66.2499V66.2499Z" fill="#263238"/>
<path d="M89.1132 62.7837C89.3023 62.9303 90.1918 62.0502 91.6188 61.8339C93.0457 61.6175 94.1947 62.1712 94.3244 61.9732C94.3875 61.8852 94.1725 61.6065 93.6684 61.3425C92.9864 61.0151 92.2193 60.9024 91.4705 61.0198C90.729 61.1287 90.042 61.4692 89.5098 61.9916C89.1207 62.3876 89.0206 62.7066 89.1132 62.7837Z" fill="#263238"/>
<path d="M104.618 64.1307C104.667 64.4734 104.85 64.7834 105.127 64.9945C105.404 65.2056 105.753 65.301 106.101 65.2602C106.271 65.2483 106.437 65.2027 106.59 65.1261C106.742 65.0494 106.878 64.9434 106.988 64.8142C107.098 64.6849 107.181 64.5352 107.232 64.3737C107.282 64.2122 107.3 64.0423 107.283 63.874C107.234 63.5314 107.052 63.2214 106.774 63.0103C106.497 62.7992 106.148 62.7038 105.8 62.7446C105.63 62.757 105.464 62.8029 105.312 62.8797C105.16 62.9565 105.025 63.0625 104.915 63.1916C104.805 63.3208 104.722 63.4703 104.671 63.6316C104.62 63.7929 104.602 63.9626 104.618 64.1307Z" fill="#263238"/>
<path d="M102.668 60.9179C102.857 61.0646 103.75 60.1845 105.173 59.9681C106.597 59.7517 107.749 60.3055 107.879 60.1074C107.942 60.0194 107.727 59.7407 107.223 59.4767C106.54 59.1485 105.771 59.0359 105.021 59.154C104.27 59.2635 103.575 59.6094 103.038 60.1405C102.668 60.5072 102.568 60.8739 102.668 60.9179Z" fill="#263238"/>
<path d="M99.5992 72.1631C99.5992 72.0824 98.6837 72.064 97.2234 72.1007C96.8527 72.1007 96.4821 72.1007 96.3969 71.8624C96.3116 71.624 96.3635 71.2059 96.4747 70.7622C96.6823 69.8406 96.9009 68.8737 97.1307 67.8616C98.0203 63.7324 98.6133 60.3623 98.4391 60.3293C98.2649 60.2963 97.4124 63.6297 96.5192 67.7369C96.3079 68.7527 96.104 69.7244 95.915 70.6522C95.8409 71.0813 95.6741 71.58 95.9447 72.0897C96.0157 72.2096 96.114 72.3114 96.2317 72.3871C96.3495 72.4629 96.4834 72.5105 96.6229 72.5261C96.832 72.5541 97.044 72.5541 97.253 72.5261C98.7097 72.3721 99.6066 72.2401 99.5992 72.1631Z" fill="#263238"/>
<path d="M101.185 88.9885C106.058 88.3258 110.65 86.3363 114.447 83.2422C114.447 83.2422 111.211 91.2548 101.845 92.0615L101.185 88.9885Z" fill="#FF9A6C"/>
<path d="M100.726 75.4734C100.945 75.0951 101.257 74.7781 101.634 74.5522C102.011 74.3264 102.439 74.1992 102.879 74.1826C103.199 74.1643 103.52 74.2105 103.821 74.3183C104.122 74.4261 104.398 74.5932 104.633 74.8097C104.859 75.0162 105.016 75.2867 105.083 75.5844C105.149 75.8822 105.121 76.1929 105.003 76.4745C104.703 77.0649 103.917 77.3106 103.209 77.2079C102.5 77.0743 101.825 76.8026 101.223 76.4085C101.043 76.3175 100.883 76.193 100.752 76.0418C100.687 75.9722 100.645 75.8852 100.631 75.7919C100.616 75.6985 100.63 75.603 100.67 75.5174" fill="#FF9A6C"/>
<path d="M103.943 72.5059C103.705 72.5279 103.943 74.0607 102.782 75.3442C101.622 76.6277 99.9582 76.712 99.9767 76.9247C99.9767 77.0274 100.392 77.1667 101.089 77.0824C101.997 76.9578 102.832 76.5202 103.446 75.8466C104.035 75.2012 104.348 74.3542 104.317 73.485C104.276 72.8359 104.046 72.4839 103.943 72.5059Z" fill="#263238"/>
<path d="M102.261 56.7087C102.461 57.0754 103.854 56.6757 105.556 56.6207C107.257 56.5657 108.68 56.8151 108.847 56.4374C108.921 56.2577 108.632 55.935 108.028 55.6453C107.23 55.3007 106.364 55.1402 105.495 55.1757C104.625 55.2113 103.775 55.4421 103.009 55.8506C102.435 56.188 102.172 56.5364 102.261 56.7087Z" fill="#263238"/>
<path d="M88.5835 56.5609C88.8838 56.8433 89.8141 56.3629 90.9927 56.1685C92.1713 55.9742 93.2166 56.0548 93.3796 55.6845C93.4575 55.5048 93.2499 55.2114 92.7681 54.973C92.1255 54.6993 91.4154 54.6201 90.7273 54.7454C90.0393 54.8707 89.4042 55.1949 88.9023 55.6771C88.5279 56.0695 88.4427 56.4215 88.5835 56.5609Z" fill="#263238"/>
<path d="M121.967 47.2536C119.269 41.5916 109.506 34.5618 103.309 35.8196L94.1206 43.0658C94.6723 44.71 95.6627 46.1763 96.9871 47.3098C98.3114 48.4432 99.9206 49.2017 101.645 49.5052C103.479 49.8059 105.629 49.6702 106.882 51.0343C108.135 52.3985 107.834 54.7454 109.046 56.1939C110.725 58.2035 114.491 57.6021 115.848 59.839C116.444 60.8145 116.374 62.0833 116.982 63.0514C117.797 64.3386 121.537 65.6184 122.912 64.9656C124.287 64.3129 123.976 61.8779 124.276 60.5321C124.791 58.2402 124.302 57.1511 123.872 55.9629C122.867 53.1466 123.257 49.9526 121.967 47.2536Z" fill="#263238"/>
<path d="M118.81 66.7409C118.695 65.9781 119.307 64.0529 120.048 63.8072C122.027 63.1911 125.707 62.7987 126.527 67.8887C127.638 74.8561 120.359 74.5224 120.311 74.3244C120.263 74.1264 119.21 69.3592 118.81 66.7409Z" fill="#FFBF9D"/>
<path d="M122.034 71.3538C122.063 71.3245 122.171 71.4198 122.404 71.4785C122.715 71.558 123.045 71.5132 123.323 71.3538C124.02 70.9687 124.458 69.7036 124.291 68.4421C124.212 67.8434 123.999 67.2696 123.668 66.7626C123.568 66.5554 123.418 66.3756 123.231 66.2389C123.044 66.1021 122.827 66.0125 122.597 65.9778C122.45 65.9628 122.303 65.9994 122.181 66.0813C122.059 66.1631 121.97 66.2849 121.93 66.4252C121.867 66.6342 121.93 66.7663 121.896 66.7919C121.863 66.8176 121.73 66.7003 121.737 66.4032C121.749 66.2255 121.823 66.0573 121.945 65.9265C122.114 65.75 122.347 65.6472 122.593 65.6405C123.142 65.5928 123.705 66.0072 124.046 66.5169C124.443 67.0728 124.698 67.7159 124.787 68.3908C124.969 69.7989 124.454 71.2254 123.483 71.6912C123.303 71.7756 123.107 71.8194 122.908 71.8194C122.71 71.8194 122.513 71.7756 122.334 71.6912C122.074 71.5078 122.011 71.3685 122.034 71.3538Z" fill="#FF9A6C"/>
<path d="M95.9301 40.7237C95.6076 43.6574 91.6529 47.7829 89.9999 50.2141C86.8235 54.853 86.2601 56.3382 87.3794 65.7846C85.2742 62.7153 83.5841 59.6642 83.3024 55.9641C83.0207 52.264 83.9621 48.4246 86.2453 45.4836C88.5284 42.5426 92.2015 40.6064 95.9486 40.7164" fill="#263238"/>
<path d="M112.724 30.7744C114.206 29.1572 116.349 28.1047 118.572 27.5547C121.741 26.7699 125.222 26.9826 128.105 28.3468C130.989 29.7109 133.22 32.2706 133.802 35.2042C134.088 36.7112 133.954 38.2669 133.413 39.7039C132.872 41.1409 131.946 42.4049 130.733 43.3598C132.382 44.9415 134.392 46.1063 136.593 46.7556C135.992 47.6467 134.884 48.1674 133.765 48.3544C132.64 48.4936 131.501 48.4862 130.377 48.3324C131.144 49.4661 132.292 50.2949 133.617 50.672C131.793 51.0887 129.89 51.0267 128.098 50.4923C126.345 49.9666 124.667 49.221 123.105 48.2738C117.683 45.1604 114.692 42.4321 111.03 37.6392C110.552 35.5709 111.23 32.3952 112.724 30.7744Z" fill="#263238"/>
<path d="M124.413 45.4711C120.433 39.7174 115.366 36.6407 110.781 35.6836Z" fill="#263238"/>
<path d="M110.781 35.6836C110.991 35.7668 111.208 35.8318 111.43 35.8779C111.849 35.9953 112.453 36.175 113.179 36.45C115.071 37.177 116.849 38.1646 118.461 39.3837C120.073 40.5998 121.543 41.991 122.842 43.5312C123.331 44.1289 123.728 44.6313 123.983 44.9613C124.111 45.1484 124.255 45.3239 124.413 45.4857C124.306 45.2852 124.182 45.0938 124.043 44.9137C123.806 44.547 123.427 44.0519 122.949 43.4468C121.683 41.8604 120.224 40.4342 118.605 39.2003C116.974 37.969 115.162 36.992 113.231 36.3033C112.649 36.0984 112.055 35.9282 111.452 35.7936C111.232 35.7393 111.007 35.7025 110.781 35.6836V35.6836Z" fill="#455A64"/>
<path d="M129.158 50.3758L129.069 50.4051L128.809 50.5078C128.587 50.6031 128.253 50.7278 127.816 50.8745C126.58 51.284 125.298 51.5426 123.998 51.6446C122.072 51.7865 120.135 51.6631 118.242 51.2779C115.925 50.7961 113.659 50.0975 111.474 49.1913C109.139 48.2489 106.938 47.2808 104.977 46.331C103.236 45.4973 101.559 44.5363 99.9624 43.456C98.8888 42.7243 97.875 41.9102 96.9306 41.021C96.5896 40.7093 96.3449 40.449 96.1893 40.2876L95.9928 40.0933C95.9484 40.0529 95.9261 40.0309 95.9224 40.0346C95.9187 40.0382 95.9224 40.0602 95.978 40.1079L96.1596 40.3169C96.319 40.5003 96.5562 40.768 96.9009 41.0907C97.8297 42.0058 98.8352 42.8412 99.9068 43.588C101.498 44.6941 103.175 45.675 104.922 46.5217C106.886 47.4861 109.084 48.4616 111.423 49.4077C113.62 50.3163 115.902 51.0127 118.235 51.4869C120.146 51.8643 122.102 51.9705 124.043 51.8023C125.341 51.6849 126.618 51.4065 127.846 50.9735C128.279 50.8085 128.609 50.6728 128.828 50.5628L129.076 50.4418C129.132 50.3941 129.161 50.3794 129.158 50.3758Z" fill="#455A64"/>
<path d="M108.157 84.9074L107.486 83.6093C107.535 83.5836 112.19 81.222 113.98 79.7332C118.198 76.2274 122.075 70.6278 122.116 70.5654L123.339 71.3905C123.176 71.6289 119.31 77.2139 114.932 80.8516C113.005 82.4431 108.354 84.8084 108.157 84.9074Z" fill="#455A64"/>
<path d="M111.623 80.8555C111.623 80.8555 105.263 83.6645 105.263 84.2879C105.263 84.9113 106.271 86.1581 107.027 86.0957C107.783 86.0334 109.97 84.8159 110.363 84.3172C110.756 83.8185 111.452 82.535 112.216 81.9116L111.623 80.8555Z" fill="#263238"/>
<path d="M123.287 61.9745L121.804 61.9049C121.858 57.675 121.122 53.4717 119.632 49.5064C116.415 41.3068 110.229 36.9063 101.252 36.4222C100.436 36.3868 99.6176 36.4422 98.8135 36.5873L99.4621 35.9785C99.7764 35.685 100.142 35.4502 100.541 35.2854V35.2854C101.087 35.0594 101.681 34.9687 102.272 35.0214C113.606 35.9932 118.728 43.122 121.03 49.0187C122.598 53.1588 123.363 57.554 123.287 61.9745V61.9745Z" fill="#455A64"/>
<path d="M122.546 75.3102C125.139 75.3102 127.242 72.3188 127.242 68.6287C127.242 64.9387 125.139 61.9473 122.546 61.9473C119.952 61.9473 117.85 64.9387 117.85 68.6287C117.85 72.3188 119.952 75.3102 122.546 75.3102Z" fill="#455A64"/>
<path d="M127.241 68.6294C127.237 68.599 127.237 68.5681 127.241 68.5377C127.241 68.4644 127.241 68.3763 127.219 68.2663C127.202 67.9199 127.167 67.5747 127.112 67.2322C126.92 65.9688 126.423 64.7699 125.662 63.7375C125.406 63.4037 125.11 63.102 124.78 62.839C124.421 62.5592 124.016 62.3421 123.583 62.1973C123.119 62.0487 122.629 62.0024 122.145 62.0616C121.633 62.1376 121.143 62.3187 120.707 62.5933C119.782 63.2301 119.067 64.1232 118.653 65.1603C118.191 66.2647 117.952 67.4485 117.952 68.644C117.952 69.8396 118.191 71.0234 118.653 72.1278C119.067 73.1651 119.781 74.0583 120.707 74.6947C121.143 74.9694 121.633 75.1505 122.145 75.2265C122.629 75.284 123.119 75.2377 123.583 75.0908C124.016 74.946 124.421 74.7289 124.78 74.4491C125.109 74.1852 125.405 73.8836 125.662 73.5506C126.423 72.5182 126.92 71.3193 127.112 70.0559C127.166 69.7134 127.202 69.3681 127.219 69.0218C127.219 68.9117 127.219 68.8237 127.241 68.7504C127.236 68.72 127.236 68.6891 127.241 68.6587C127.247 68.689 127.247 68.7201 127.241 68.7504V69.0218C127.237 69.3713 127.213 69.7203 127.167 70.0669C127.001 71.3528 126.515 72.5777 125.751 73.6313C125.492 73.9767 125.19 74.2895 124.854 74.5627C124.484 74.8589 124.063 75.0885 123.613 75.2411C123.127 75.3989 122.612 75.4502 122.104 75.3915C121.568 75.3154 121.054 75.1279 120.596 74.8414C119.637 74.1959 118.894 73.2816 118.464 72.2158C117.987 71.0893 117.742 69.8801 117.742 68.6587C117.742 67.4373 117.987 66.2281 118.464 65.1016C118.894 64.0358 119.637 63.1215 120.596 62.476C121.054 62.1895 121.568 62.002 122.104 61.9259C122.612 61.8672 123.127 61.9185 123.613 62.0763C124.063 62.2289 124.484 62.4585 124.854 62.7547C125.191 63.027 125.493 63.3399 125.751 63.6861C126.516 64.7391 127.003 65.9643 127.167 67.2505C127.212 67.596 127.237 67.9437 127.241 68.292V68.567C127.244 68.5877 127.244 68.6087 127.241 68.6294V68.6294Z" fill="#263238"/>
<path d="M123.268 72.5086C124.92 72.5086 126.259 70.6041 126.259 68.2548C126.259 65.9055 124.92 64.001 123.268 64.001C121.616 64.001 120.277 65.9055 120.277 68.2548C120.277 70.6041 121.616 72.5086 123.268 72.5086Z" fill="#455A64"/>
<path d="M126.259 68.2549C126.237 68.2549 126.259 67.9322 126.151 67.3638C126.027 66.5669 125.709 65.8118 125.225 65.1635C124.895 64.7189 124.438 64.3828 123.913 64.1991C123.621 64.1062 123.312 64.0774 123.008 64.1148C122.688 64.162 122.381 64.2757 122.108 64.4485C121.526 64.8493 121.076 65.4104 120.814 66.062C120.521 66.7592 120.371 67.5071 120.373 68.2622C120.369 69.0175 120.519 69.7658 120.814 70.4625C121.076 71.1141 121.526 71.6752 122.108 72.076C122.381 72.2488 122.688 72.3625 123.008 72.4097C123.312 72.4471 123.621 72.4183 123.913 72.3254C124.438 72.1417 124.895 71.8056 125.225 71.3609C125.709 70.7127 126.027 69.9576 126.151 69.1607C126.244 68.5923 126.237 68.2696 126.259 68.2732C126.264 68.3502 126.264 68.4273 126.259 68.5043C126.258 68.7274 126.244 68.9504 126.214 69.1717C126.116 69.9944 125.809 70.7791 125.321 71.4526C124.982 71.9278 124.503 72.2887 123.95 72.4867C123.638 72.5917 123.306 72.6268 122.979 72.5894C122.631 72.5361 122.299 72.4111 122.004 72.2227C121.388 71.8091 120.91 71.223 120.633 70.5395C120.327 69.8177 120.169 69.043 120.169 68.2604C120.169 67.4778 120.327 66.7031 120.633 65.9813C120.91 65.2978 121.388 64.7117 122.004 64.2981C122.298 64.1103 122.629 63.9853 122.975 63.9314C123.304 63.8942 123.637 63.9293 123.95 64.0341C124.503 64.2321 124.982 64.593 125.321 65.0682C125.809 65.7417 126.116 66.5264 126.214 67.3491C126.244 67.5704 126.258 67.7934 126.259 68.0165C126.264 68.0959 126.264 68.1755 126.259 68.2549V68.2549Z" fill="#263238"/>
<path d="M123.476 71.315C124.663 71.315 125.626 69.9457 125.626 68.2566C125.626 66.5675 124.663 65.1982 123.476 65.1982C122.289 65.1982 121.326 66.5675 121.326 68.2566C121.326 69.9457 122.289 71.315 123.476 71.315Z" fill="#455A64"/>
<path d="M125.625 68.2556C125.607 68.2556 125.607 68.0246 125.54 67.6175C125.445 67.0453 125.214 66.5037 124.866 66.037C124.631 65.7206 124.306 65.4815 123.932 65.3513C123.719 65.2839 123.493 65.265 123.271 65.2961C123.05 65.3272 122.839 65.4075 122.653 65.531C121.849 66.0554 121.422 67.1555 121.419 68.2519C121.415 69.3484 121.849 70.4522 122.653 70.9766C122.839 71.1 123.05 71.1803 123.271 71.2114C123.493 71.2426 123.719 71.2237 123.932 71.1563C124.306 71.026 124.631 70.787 124.866 70.4705C125.214 70.0039 125.445 69.4622 125.54 68.89C125.607 68.483 125.607 68.2519 125.625 68.2556C125.634 68.3103 125.634 68.366 125.625 68.4206C125.627 68.5811 125.619 68.7416 125.6 68.901C125.533 69.497 125.313 70.0663 124.962 70.5549C124.712 70.893 124.364 71.1486 123.965 71.2883C123.737 71.364 123.496 71.3902 123.257 71.3653C123.004 71.3307 122.762 71.2432 122.545 71.1086C122.097 70.8081 121.75 70.3815 121.548 69.8838C121.325 69.3616 121.21 68.8005 121.21 68.2336C121.21 67.6667 121.325 67.1056 121.548 66.5834C121.75 66.0857 122.097 65.6591 122.545 65.3586C122.762 65.224 123.004 65.1365 123.257 65.1019C123.496 65.077 123.737 65.1032 123.965 65.1789C124.364 65.3186 124.712 65.5742 124.962 65.9123C125.313 66.4009 125.533 66.9702 125.6 67.5662C125.619 67.7256 125.627 67.8861 125.625 68.0466C125.639 68.1156 125.639 68.1866 125.625 68.2556Z" fill="#263238"/>
</g>
<defs>
<clipPath id="clip0_1820_4094">
<rect width="185.32" height="165.941" fill="white"/>
</clipPath>
</defs>
</svg>
