<svg width="410" height="288" viewBox="0 0 410 288" fill="none" xmlns="http://www.w3.org/2000/svg">
<g filter="url(#filter0_d_5780_2999)">
<rect x="16.4917" y="16.5215" width="369.508" height="246.878" rx="24" fill="#50B5FF"/>
</g>
<path d="M241.952 71.154C240.823 71.154 239.811 70.9707 238.916 70.604C238.022 70.2373 237.303 69.6947 236.76 68.976C236.232 68.2573 235.954 67.392 235.924 66.38H239.928C239.987 66.952 240.185 67.392 240.522 67.7C240.86 67.9933 241.3 68.14 241.842 68.14C242.4 68.14 242.84 68.0153 243.162 67.766C243.485 67.502 243.646 67.1427 243.646 66.688C243.646 66.3067 243.514 65.9913 243.25 65.742C243.001 65.4927 242.686 65.2873 242.304 65.126C241.938 64.9647 241.41 64.7813 240.72 64.576C239.723 64.268 238.909 63.96 238.278 63.652C237.648 63.344 237.105 62.8893 236.65 62.288C236.196 61.6867 235.968 60.902 235.968 59.934C235.968 58.4967 236.489 57.3747 237.53 56.568C238.572 55.7467 239.928 55.336 241.6 55.336C243.302 55.336 244.673 55.7467 245.714 56.568C246.756 57.3747 247.313 58.504 247.386 59.956H243.316C243.287 59.4573 243.104 59.0687 242.766 58.79C242.429 58.4967 241.996 58.35 241.468 58.35C241.014 58.35 240.647 58.4747 240.368 58.724C240.09 58.9587 239.95 59.3033 239.95 59.758C239.95 60.2567 240.185 60.6453 240.654 60.924C241.124 61.2027 241.857 61.5033 242.854 61.826C243.852 62.1633 244.658 62.486 245.274 62.794C245.905 63.102 246.448 63.5493 246.902 64.136C247.357 64.7227 247.584 65.478 247.584 66.402C247.584 67.282 247.357 68.0813 246.902 68.8C246.462 69.5187 245.817 70.0907 244.966 70.516C244.116 70.9413 243.111 71.154 241.952 71.154ZM262.021 58.724V71H258.259V69.328C257.878 69.8707 257.357 70.3107 256.697 70.648C256.052 70.9707 255.333 71.132 254.541 71.132C253.603 71.132 252.774 70.9267 252.055 70.516C251.337 70.0907 250.779 69.482 250.383 68.69C249.987 67.898 249.789 66.9667 249.789 65.896V58.724H253.529V65.39C253.529 66.2113 253.742 66.8493 254.167 67.304C254.593 67.7587 255.165 67.986 255.883 67.986C256.617 67.986 257.196 67.7587 257.621 67.304C258.047 66.8493 258.259 66.2113 258.259 65.39V58.724H262.021ZM268.486 60.462C268.852 59.89 269.358 59.428 270.004 59.076C270.649 58.724 271.404 58.548 272.27 58.548C273.282 58.548 274.198 58.8047 275.02 59.318C275.841 59.8313 276.486 60.5647 276.956 61.518C277.44 62.4713 277.682 63.5787 277.682 64.84C277.682 66.1013 277.44 67.216 276.956 68.184C276.486 69.1373 275.841 69.878 275.02 70.406C274.198 70.9193 273.282 71.176 272.27 71.176C271.419 71.176 270.664 71 270.004 70.648C269.358 70.296 268.852 69.8413 268.486 69.284V76.852H264.724V58.724H268.486V60.462ZM273.854 64.84C273.854 63.9013 273.59 63.168 273.062 62.64C272.548 62.0973 271.91 61.826 271.148 61.826C270.4 61.826 269.762 62.0973 269.234 62.64C268.72 63.1827 268.464 63.9233 268.464 64.862C268.464 65.8007 268.72 66.5413 269.234 67.084C269.762 67.6267 270.4 67.898 271.148 67.898C271.896 67.898 272.534 67.6267 273.062 67.084C273.59 66.5267 273.854 65.7787 273.854 64.84ZM283.417 60.462C283.784 59.89 284.29 59.428 284.935 59.076C285.581 58.724 286.336 58.548 287.201 58.548C288.213 58.548 289.13 58.8047 289.951 59.318C290.773 59.8313 291.418 60.5647 291.887 61.518C292.371 62.4713 292.613 63.5787 292.613 64.84C292.613 66.1013 292.371 67.216 291.887 68.184C291.418 69.1373 290.773 69.878 289.951 70.406C289.13 70.9193 288.213 71.176 287.201 71.176C286.351 71.176 285.595 71 284.935 70.648C284.29 70.296 283.784 69.8413 283.417 69.284V76.852H279.655V58.724H283.417V60.462ZM288.785 64.84C288.785 63.9013 288.521 63.168 287.993 62.64C287.48 62.0973 286.842 61.826 286.079 61.826C285.331 61.826 284.693 62.0973 284.165 62.64C283.652 63.1827 283.395 63.9233 283.395 64.862C283.395 65.8007 283.652 66.5413 284.165 67.084C284.693 67.6267 285.331 67.898 286.079 67.898C286.827 67.898 287.465 67.6267 287.993 67.084C288.521 66.5267 288.785 65.7787 288.785 64.84ZM300.175 71.176C298.972 71.176 297.887 70.9193 296.919 70.406C295.966 69.8927 295.21 69.1593 294.653 68.206C294.11 67.2527 293.839 66.138 293.839 64.862C293.839 63.6007 294.118 62.4933 294.675 61.54C295.232 60.572 295.995 59.8313 296.963 59.318C297.931 58.8047 299.016 58.548 300.219 58.548C301.422 58.548 302.507 58.8047 303.475 59.318C304.443 59.8313 305.206 60.572 305.763 61.54C306.32 62.4933 306.599 63.6007 306.599 64.862C306.599 66.1233 306.313 67.238 305.741 68.206C305.184 69.1593 304.414 69.8927 303.431 70.406C302.463 70.9193 301.378 71.176 300.175 71.176ZM300.175 67.92C300.894 67.92 301.502 67.656 302.001 67.128C302.514 66.6 302.771 65.8447 302.771 64.862C302.771 63.8793 302.522 63.124 302.023 62.596C301.539 62.068 300.938 61.804 300.219 61.804C299.486 61.804 298.877 62.068 298.393 62.596C297.909 63.1093 297.667 63.8647 297.667 64.862C297.667 65.8447 297.902 66.6 298.371 67.128C298.855 67.656 299.456 67.92 300.175 67.92ZM312.357 60.77C312.797 60.0953 313.347 59.5673 314.007 59.186C314.667 58.79 315.4 58.592 316.207 58.592V62.574H315.173C314.234 62.574 313.53 62.7793 313.061 63.19C312.591 63.586 312.357 64.29 312.357 65.302V71H308.595V58.724H312.357V60.77ZM324.847 67.81V71H322.933C321.569 71 320.506 70.67 319.743 70.01C318.98 69.3353 318.599 68.2427 318.599 66.732V61.848H317.103V58.724H318.599V55.732H322.361V58.724H324.825V61.848H322.361V66.776C322.361 67.1427 322.449 67.4067 322.625 67.568C322.801 67.7293 323.094 67.81 323.505 67.81H324.847Z" fill="white"/>
<path opacity="0.8" d="M241.216 101.521L238.892 97.5315H237.352V101.521H236.078V91.7635H239.228C239.966 91.7635 240.586 91.8895 241.09 92.1415C241.604 92.3935 241.986 92.7342 242.238 93.1635C242.49 93.5928 242.616 94.0828 242.616 94.6335C242.616 95.3055 242.42 95.8982 242.028 96.4115C241.646 96.9248 241.067 97.2655 240.292 97.4335L242.742 101.521H241.216ZM237.352 96.5095H239.228C239.919 96.5095 240.437 96.3415 240.782 96.0055C241.128 95.6602 241.3 95.2028 241.3 94.6335C241.3 94.0548 241.128 93.6068 240.782 93.2895C240.446 92.9722 239.928 92.8135 239.228 92.8135H237.352V96.5095ZM251.596 97.3915C251.596 97.6342 251.582 97.8908 251.554 98.1615H245.422C245.468 98.9175 245.725 99.5102 246.192 99.9395C246.668 100.359 247.242 100.569 247.914 100.569C248.464 100.569 248.922 100.443 249.286 100.191C249.659 99.9302 249.92 99.5848 250.07 99.1555H251.442C251.236 99.8928 250.826 100.495 250.21 100.961C249.594 101.419 248.828 101.647 247.914 101.647C247.186 101.647 246.532 101.484 245.954 101.157C245.384 100.831 244.936 100.369 244.61 99.7715C244.283 99.1648 244.12 98.4648 244.12 97.6715C244.12 96.8782 244.278 96.1828 244.596 95.5855C244.913 94.9882 245.356 94.5308 245.926 94.2135C246.504 93.8868 247.167 93.7235 247.914 93.7235C248.642 93.7235 249.286 93.8822 249.846 94.1995C250.406 94.5168 250.835 94.9555 251.134 95.5155C251.442 96.0662 251.596 96.6915 251.596 97.3915ZM250.28 97.1255C250.28 96.6402 250.172 96.2248 249.958 95.8795C249.743 95.5248 249.449 95.2588 249.076 95.0815C248.712 94.8948 248.306 94.8015 247.858 94.8015C247.214 94.8015 246.663 95.0068 246.206 95.4175C245.758 95.8282 245.501 96.3975 245.436 97.1255H250.28ZM256.399 94.8995H254.789V101.521H253.515V94.8995H252.521V93.8495H253.515V93.3035C253.515 92.4448 253.735 91.8195 254.173 91.4275C254.621 91.0262 255.335 90.8255 256.315 90.8255V91.8895C255.755 91.8895 255.359 92.0015 255.125 92.2255C254.901 92.4402 254.789 92.7995 254.789 93.3035V93.8495H256.399V94.8995ZM264.885 97.3915C264.885 97.6342 264.871 97.8908 264.843 98.1615H258.711C258.758 98.9175 259.014 99.5102 259.481 99.9395C259.957 100.359 260.531 100.569 261.203 100.569C261.754 100.569 262.211 100.443 262.575 100.191C262.948 99.9302 263.21 99.5848 263.359 99.1555H264.731C264.526 99.8928 264.115 100.495 263.499 100.961C262.883 101.419 262.118 101.647 261.203 101.647C260.475 101.647 259.822 101.484 259.243 101.157C258.674 100.831 258.226 100.369 257.899 99.7715C257.572 99.1648 257.409 98.4648 257.409 97.6715C257.409 96.8782 257.568 96.1828 257.885 95.5855C258.202 94.9882 258.646 94.5308 259.215 94.2135C259.794 93.8868 260.456 93.7235 261.203 93.7235C261.931 93.7235 262.575 93.8822 263.135 94.1995C263.695 94.5168 264.124 94.9555 264.423 95.5155C264.731 96.0662 264.885 96.6915 264.885 97.3915ZM263.569 97.1255C263.569 96.6402 263.462 96.2248 263.247 95.8795C263.032 95.5248 262.738 95.2588 262.365 95.0815C262.001 94.8948 261.595 94.8015 261.147 94.8015C260.503 94.8015 259.952 95.0068 259.495 95.4175C259.047 95.8282 258.79 96.3975 258.725 97.1255H263.569ZM267.841 95.0955C268.065 94.6568 268.382 94.3162 268.793 94.0735C269.213 93.8308 269.721 93.7095 270.319 93.7095V95.0255H269.983C268.555 95.0255 267.841 95.8002 267.841 97.3495V101.521H266.567V93.8495H267.841V95.0955ZM277.076 94.8995V99.4215C277.076 99.7948 277.155 100.061 277.314 100.219C277.472 100.369 277.748 100.443 278.14 100.443H279.078V101.521H277.93C277.22 101.521 276.688 101.358 276.334 101.031C275.979 100.705 275.802 100.168 275.802 99.4215V94.8995H274.808V93.8495H275.802V91.9175H277.076V93.8495H279.078V94.8995H277.076ZM284.429 93.7095C285.008 93.7095 285.531 93.8355 285.997 94.0875C286.464 94.3302 286.828 94.6988 287.089 95.1935C287.36 95.6882 287.495 96.2902 287.495 96.9995V101.521H286.235V97.1815C286.235 96.4162 286.044 95.8328 285.661 95.4315C285.279 95.0208 284.756 94.8155 284.093 94.8155C283.421 94.8155 282.885 95.0255 282.483 95.4455C282.091 95.8655 281.895 96.4768 281.895 97.2795V101.521H280.621V91.1615H281.895V94.9415C282.147 94.5495 282.493 94.2462 282.931 94.0315C283.379 93.8168 283.879 93.7095 284.429 93.7095ZM290.234 92.6035C289.992 92.6035 289.786 92.5195 289.618 92.3515C289.45 92.1835 289.366 91.9782 289.366 91.7355C289.366 91.4928 289.45 91.2875 289.618 91.1195C289.786 90.9515 289.992 90.8675 290.234 90.8675C290.468 90.8675 290.664 90.9515 290.822 91.1195C290.99 91.2875 291.074 91.4928 291.074 91.7355C291.074 91.9782 290.99 92.1835 290.822 92.3515C290.664 92.5195 290.468 92.6035 290.234 92.6035ZM290.85 93.8495V101.521H289.576V93.8495H290.85ZM295.738 101.647C295.15 101.647 294.622 101.549 294.156 101.353C293.689 101.148 293.32 100.868 293.05 100.513C292.779 100.149 292.63 99.7342 292.602 99.2675H293.918C293.955 99.6502 294.132 99.9628 294.45 100.205C294.776 100.448 295.201 100.569 295.724 100.569C296.209 100.569 296.592 100.462 296.872 100.247C297.152 100.033 297.292 99.7622 297.292 99.4355C297.292 99.0995 297.142 98.8522 296.844 98.6935C296.545 98.5255 296.083 98.3622 295.458 98.2035C294.888 98.0542 294.422 97.9048 294.058 97.7555C293.703 97.5968 293.395 97.3682 293.134 97.0695C292.882 96.7615 292.756 96.3602 292.756 95.8655C292.756 95.4735 292.872 95.1142 293.106 94.7875C293.339 94.4608 293.67 94.2042 294.1 94.0175C294.529 93.8215 295.019 93.7235 295.57 93.7235C296.419 93.7235 297.105 93.9382 297.628 94.3675C298.15 94.7968 298.43 95.3848 298.468 96.1315H297.194C297.166 95.7302 297.002 95.4082 296.704 95.1655C296.414 94.9228 296.022 94.8015 295.528 94.8015C295.07 94.8015 294.706 94.8995 294.436 95.0955C294.165 95.2915 294.03 95.5482 294.03 95.8655C294.03 96.1175 294.109 96.3275 294.268 96.4955C294.436 96.6542 294.641 96.7848 294.884 96.8875C295.136 96.9808 295.481 97.0882 295.92 97.2095C296.47 97.3588 296.918 97.5082 297.264 97.6575C297.609 97.7975 297.903 98.0122 298.146 98.3015C298.398 98.5908 298.528 98.9688 298.538 99.4355C298.538 99.8555 298.421 100.233 298.188 100.569C297.954 100.905 297.623 101.171 297.194 101.367C296.774 101.554 296.288 101.647 295.738 101.647ZM306.784 101.647C306.196 101.647 305.669 101.549 305.202 101.353C304.736 101.148 304.367 100.868 304.096 100.513C303.826 100.149 303.676 99.7342 303.648 99.2675H304.964C305.002 99.6502 305.179 99.9628 305.496 100.205C305.823 100.448 306.248 100.569 306.77 100.569C307.256 100.569 307.638 100.462 307.918 100.247C308.198 100.033 308.338 99.7622 308.338 99.4355C308.338 99.0995 308.189 98.8522 307.89 98.6935C307.592 98.5255 307.13 98.3622 306.504 98.2035C305.935 98.0542 305.468 97.9048 305.104 97.7555C304.75 97.5968 304.442 97.3682 304.18 97.0695C303.928 96.7615 303.802 96.3602 303.802 95.8655C303.802 95.4735 303.919 95.1142 304.152 94.7875C304.386 94.4608 304.717 94.2042 305.146 94.0175C305.576 93.8215 306.066 93.7235 306.616 93.7235C307.466 93.7235 308.152 93.9382 308.674 94.3675C309.197 94.7968 309.477 95.3848 309.514 96.1315H308.24C308.212 95.7302 308.049 95.4082 307.75 95.1655C307.461 94.9228 307.069 94.8015 306.574 94.8015C306.117 94.8015 305.753 94.8995 305.482 95.0955C305.212 95.2915 305.076 95.5482 305.076 95.8655C305.076 96.1175 305.156 96.3275 305.314 96.4955C305.482 96.6542 305.688 96.7848 305.93 96.8875C306.182 96.9808 306.528 97.0882 306.966 97.2095C307.517 97.3588 307.965 97.5082 308.31 97.6575C308.656 97.7975 308.95 98.0122 309.192 98.3015C309.444 98.5908 309.575 98.9688 309.584 99.4355C309.584 99.8555 309.468 100.233 309.234 100.569C309.001 100.905 308.67 101.171 308.24 101.367C307.82 101.554 307.335 101.647 306.784 101.647ZM318.383 97.3915C318.383 97.6342 318.369 97.8908 318.341 98.1615H312.209C312.256 98.9175 312.512 99.5102 312.979 99.9395C313.455 100.359 314.029 100.569 314.701 100.569C315.252 100.569 315.709 100.443 316.073 100.191C316.446 99.9302 316.708 99.5848 316.857 99.1555H318.229C318.024 99.8928 317.613 100.495 316.997 100.961C316.381 101.419 315.616 101.647 314.701 101.647C313.973 101.647 313.32 101.484 312.741 101.157C312.172 100.831 311.724 100.369 311.397 99.7715C311.07 99.1648 310.907 98.4648 310.907 97.6715C310.907 96.8782 311.066 96.1828 311.383 95.5855C311.7 94.9882 312.144 94.5308 312.713 94.2135C313.292 93.8868 313.954 93.7235 314.701 93.7235C315.429 93.7235 316.073 93.8822 316.633 94.1995C317.193 94.5168 317.622 94.9555 317.921 95.5155C318.229 96.0662 318.383 96.6915 318.383 97.3915ZM317.067 97.1255C317.067 96.6402 316.96 96.2248 316.745 95.8795C316.53 95.5248 316.236 95.2588 315.863 95.0815C315.499 94.8948 315.093 94.8015 314.645 94.8015C314.001 94.8015 313.45 95.0068 312.993 95.4175C312.545 95.8282 312.288 96.3975 312.223 97.1255H317.067ZM319.589 97.6715C319.589 96.8782 319.747 96.1875 320.065 95.5995C320.382 95.0022 320.821 94.5402 321.381 94.2135C321.95 93.8868 322.599 93.7235 323.327 93.7235C324.269 93.7235 325.044 93.9522 325.651 94.4095C326.267 94.8668 326.673 95.5015 326.869 96.3135H325.497C325.366 95.8468 325.109 95.4782 324.727 95.2075C324.353 94.9368 323.887 94.8015 323.327 94.8015C322.599 94.8015 322.011 95.0535 321.563 95.5575C321.115 96.0522 320.891 96.7568 320.891 97.6715C320.891 98.5955 321.115 99.3095 321.563 99.8135C322.011 100.317 322.599 100.569 323.327 100.569C323.887 100.569 324.353 100.439 324.727 100.177C325.1 99.9162 325.357 99.5428 325.497 99.0575H326.869C326.663 99.8415 326.253 100.471 325.637 100.947C325.021 101.414 324.251 101.647 323.327 101.647C322.599 101.647 321.95 101.484 321.381 101.157C320.821 100.831 320.382 100.369 320.065 99.7715C319.747 99.1742 319.589 98.4742 319.589 97.6715ZM330.122 94.8995V99.4215C330.122 99.7948 330.202 100.061 330.36 100.219C330.519 100.369 330.794 100.443 331.186 100.443H332.124V101.521H330.976C330.267 101.521 329.735 101.358 329.38 101.031C329.026 100.705 328.848 100.168 328.848 99.4215V94.8995H327.854V93.8495H328.848V91.9175H330.122V93.8495H332.124V94.8995H330.122ZM334.326 92.6035C334.083 92.6035 333.878 92.5195 333.71 92.3515C333.542 92.1835 333.458 91.9782 333.458 91.7355C333.458 91.4928 333.542 91.2875 333.71 91.1195C333.878 90.9515 334.083 90.8675 334.326 90.8675C334.559 90.8675 334.755 90.9515 334.914 91.1195C335.082 91.2875 335.166 91.4928 335.166 91.7355C335.166 91.9782 335.082 92.1835 334.914 92.3515C334.755 92.5195 334.559 92.6035 334.326 92.6035ZM334.942 93.8495V101.521H333.668V93.8495H334.942ZM340.459 101.647C339.741 101.647 339.087 101.484 338.499 101.157C337.921 100.831 337.463 100.369 337.127 99.7715C336.801 99.1648 336.637 98.4648 336.637 97.6715C336.637 96.8875 336.805 96.1968 337.141 95.5995C337.487 94.9928 337.953 94.5308 338.541 94.2135C339.129 93.8868 339.787 93.7235 340.515 93.7235C341.243 93.7235 341.901 93.8868 342.489 94.2135C343.077 94.5308 343.539 94.9882 343.875 95.5855C344.221 96.1828 344.393 96.8782 344.393 97.6715C344.393 98.4648 344.216 99.1648 343.861 99.7715C343.516 100.369 343.045 100.831 342.447 101.157C341.85 101.484 341.187 101.647 340.459 101.647ZM340.459 100.527C340.917 100.527 341.346 100.42 341.747 100.205C342.149 99.9908 342.471 99.6688 342.713 99.2395C342.965 98.8102 343.091 98.2875 343.091 97.6715C343.091 97.0555 342.97 96.5328 342.727 96.1035C342.485 95.6742 342.167 95.3568 341.775 95.1515C341.383 94.9368 340.959 94.8295 340.501 94.8295C340.035 94.8295 339.605 94.9368 339.213 95.1515C338.831 95.3568 338.523 95.6742 338.289 96.1035C338.056 96.5328 337.939 97.0555 337.939 97.6715C337.939 98.2968 338.051 98.8242 338.275 99.2535C338.509 99.6828 338.817 100.005 339.199 100.219C339.582 100.425 340.002 100.527 340.459 100.527ZM349.806 93.7095C350.74 93.7095 351.496 93.9942 352.074 94.5635C352.653 95.1235 352.942 95.9355 352.942 96.9995V101.521H351.682V97.1815C351.682 96.4162 351.491 95.8328 351.108 95.4315C350.726 95.0208 350.203 94.8155 349.54 94.8155C348.868 94.8155 348.332 95.0255 347.93 95.4455C347.538 95.8655 347.342 96.4768 347.342 97.2795V101.521H346.068V93.8495H347.342V94.9415C347.594 94.5495 347.935 94.2462 348.364 94.0315C348.803 93.8168 349.284 93.7095 349.806 93.7095ZM239.2 117.899H237.59V124.521H236.316V117.899H235.322V116.849H236.316V116.303C236.316 115.445 236.536 114.819 236.974 114.427C237.422 114.026 238.136 113.825 239.116 113.825V114.889C238.556 114.889 238.16 115.001 237.926 115.225C237.702 115.44 237.59 115.799 237.59 116.303V116.849H239.2V117.899ZM244.032 124.647C243.313 124.647 242.66 124.484 242.072 124.157C241.493 123.831 241.036 123.369 240.7 122.771C240.373 122.165 240.21 121.465 240.21 120.671C240.21 119.887 240.378 119.197 240.714 118.599C241.059 117.993 241.526 117.531 242.114 117.213C242.702 116.887 243.36 116.723 244.088 116.723C244.816 116.723 245.474 116.887 246.062 117.213C246.65 117.531 247.112 117.988 247.448 118.585C247.793 119.183 247.966 119.878 247.966 120.671C247.966 121.465 247.788 122.165 247.434 122.771C247.088 123.369 246.617 123.831 246.02 124.157C245.422 124.484 244.76 124.647 244.032 124.647ZM244.032 123.527C244.489 123.527 244.918 123.42 245.32 123.205C245.721 122.991 246.043 122.669 246.286 122.239C246.538 121.81 246.664 121.287 246.664 120.671C246.664 120.055 246.542 119.533 246.3 119.103C246.057 118.674 245.74 118.357 245.348 118.151C244.956 117.937 244.531 117.829 244.074 117.829C243.607 117.829 243.178 117.937 242.786 118.151C242.403 118.357 242.095 118.674 241.862 119.103C241.628 119.533 241.512 120.055 241.512 120.671C241.512 121.297 241.624 121.824 241.848 122.253C242.081 122.683 242.389 123.005 242.772 123.219C243.154 123.425 243.574 123.527 244.032 123.527ZM250.915 118.095C251.139 117.657 251.456 117.316 251.867 117.073C252.287 116.831 252.795 116.709 253.393 116.709V118.025H253.057C251.629 118.025 250.915 118.8 250.915 120.349V124.521H249.641V116.849H250.915V118.095ZM261.942 124.647C261.223 124.647 260.57 124.484 259.982 124.157C259.403 123.831 258.946 123.369 258.61 122.771C258.283 122.165 258.12 121.465 258.12 120.671C258.12 119.887 258.288 119.197 258.624 118.599C258.969 117.993 259.436 117.531 260.024 117.213C260.612 116.887 261.27 116.723 261.998 116.723C262.726 116.723 263.384 116.887 263.972 117.213C264.56 117.531 265.022 117.988 265.358 118.585C265.703 119.183 265.876 119.878 265.876 120.671C265.876 121.465 265.698 122.165 265.344 122.771C264.998 123.369 264.527 123.831 263.93 124.157C263.332 124.484 262.67 124.647 261.942 124.647ZM261.942 123.527C262.399 123.527 262.828 123.42 263.23 123.205C263.631 122.991 263.953 122.669 264.196 122.239C264.448 121.81 264.574 121.287 264.574 120.671C264.574 120.055 264.452 119.533 264.21 119.103C263.967 118.674 263.65 118.357 263.258 118.151C262.866 117.937 262.441 117.829 261.984 117.829C261.517 117.829 261.088 117.937 260.696 118.151C260.313 118.357 260.005 118.674 259.772 119.103C259.538 119.533 259.422 120.055 259.422 120.671C259.422 121.297 259.534 121.824 259.758 122.253C259.991 122.683 260.299 123.005 260.682 123.219C261.064 123.425 261.484 123.527 261.942 123.527ZM269.105 117.899V122.421C269.105 122.795 269.184 123.061 269.343 123.219C269.502 123.369 269.777 123.443 270.169 123.443H271.107V124.521H269.959C269.25 124.521 268.718 124.358 268.363 124.031C268.008 123.705 267.831 123.168 267.831 122.421V117.899H266.837V116.849H267.831V114.917H269.105V116.849H271.107V117.899H269.105ZM276.459 116.709C277.037 116.709 277.56 116.835 278.027 117.087C278.493 117.33 278.857 117.699 279.119 118.193C279.389 118.688 279.525 119.29 279.525 119.999V124.521H278.265V120.181C278.265 119.416 278.073 118.833 277.691 118.431C277.308 118.021 276.785 117.815 276.123 117.815C275.451 117.815 274.914 118.025 274.513 118.445C274.121 118.865 273.925 119.477 273.925 120.279V124.521H272.651V114.161H273.925V117.941C274.177 117.549 274.522 117.246 274.961 117.031C275.409 116.817 275.908 116.709 276.459 116.709ZM288.606 120.391C288.606 120.634 288.592 120.891 288.564 121.161H282.432C282.478 121.917 282.735 122.51 283.202 122.939C283.678 123.359 284.252 123.569 284.924 123.569C285.474 123.569 285.932 123.443 286.296 123.191C286.669 122.93 286.93 122.585 287.08 122.155H288.452C288.246 122.893 287.836 123.495 287.22 123.961C286.604 124.419 285.838 124.647 284.924 124.647C284.196 124.647 283.542 124.484 282.964 124.157C282.394 123.831 281.946 123.369 281.62 122.771C281.293 122.165 281.13 121.465 281.13 120.671C281.13 119.878 281.288 119.183 281.606 118.585C281.923 117.988 282.366 117.531 282.936 117.213C283.514 116.887 284.177 116.723 284.924 116.723C285.652 116.723 286.296 116.882 286.856 117.199C287.416 117.517 287.845 117.955 288.144 118.515C288.452 119.066 288.606 119.691 288.606 120.391ZM287.29 120.125C287.29 119.64 287.182 119.225 286.968 118.879C286.753 118.525 286.459 118.259 286.086 118.081C285.722 117.895 285.316 117.801 284.868 117.801C284.224 117.801 283.673 118.007 283.216 118.417C282.768 118.828 282.511 119.397 282.446 120.125H287.29ZM291.561 118.095C291.785 117.657 292.103 117.316 292.513 117.073C292.933 116.831 293.442 116.709 294.039 116.709V118.025H293.703C292.275 118.025 291.561 118.8 291.561 120.349V124.521H290.287V116.849H291.561V118.095ZM301.958 124.647C301.37 124.647 300.843 124.549 300.376 124.353C299.91 124.148 299.541 123.868 299.27 123.513C299 123.149 298.85 122.734 298.822 122.267H300.138C300.176 122.65 300.353 122.963 300.67 123.205C300.997 123.448 301.422 123.569 301.944 123.569C302.43 123.569 302.812 123.462 303.092 123.247C303.372 123.033 303.512 122.762 303.512 122.435C303.512 122.099 303.363 121.852 303.064 121.693C302.766 121.525 302.304 121.362 301.678 121.203C301.109 121.054 300.642 120.905 300.278 120.755C299.924 120.597 299.616 120.368 299.354 120.069C299.102 119.761 298.976 119.36 298.976 118.865C298.976 118.473 299.093 118.114 299.326 117.787C299.56 117.461 299.891 117.204 300.32 117.017C300.75 116.821 301.24 116.723 301.79 116.723C302.64 116.723 303.326 116.938 303.848 117.367C304.371 117.797 304.651 118.385 304.688 119.131H303.414C303.386 118.73 303.223 118.408 302.924 118.165C302.635 117.923 302.243 117.801 301.748 117.801C301.291 117.801 300.927 117.899 300.656 118.095C300.386 118.291 300.25 118.548 300.25 118.865C300.25 119.117 300.33 119.327 300.488 119.495C300.656 119.654 300.862 119.785 301.104 119.887C301.356 119.981 301.702 120.088 302.14 120.209C302.691 120.359 303.139 120.508 303.484 120.657C303.83 120.797 304.124 121.012 304.366 121.301C304.618 121.591 304.749 121.969 304.758 122.435C304.758 122.855 304.642 123.233 304.408 123.569C304.175 123.905 303.844 124.171 303.414 124.367C302.994 124.554 302.509 124.647 301.958 124.647ZM313.361 116.849V124.521H312.087V123.387C311.844 123.779 311.503 124.087 311.065 124.311C310.635 124.526 310.159 124.633 309.637 124.633C309.039 124.633 308.503 124.512 308.027 124.269C307.551 124.017 307.173 123.644 306.893 123.149C306.622 122.655 306.487 122.053 306.487 121.343V116.849H307.747V121.175C307.747 121.931 307.938 122.515 308.321 122.925C308.703 123.327 309.226 123.527 309.889 123.527C310.57 123.527 311.107 123.317 311.499 122.897C311.891 122.477 312.087 121.866 312.087 121.063V116.849H313.361ZM316.786 118.263C317.038 117.825 317.411 117.461 317.906 117.171C318.41 116.873 318.993 116.723 319.656 116.723C320.337 116.723 320.953 116.887 321.504 117.213C322.064 117.54 322.503 118.002 322.82 118.599C323.137 119.187 323.296 119.873 323.296 120.657C323.296 121.432 323.137 122.123 322.82 122.729C322.503 123.336 322.064 123.807 321.504 124.143C320.953 124.479 320.337 124.647 319.656 124.647C319.003 124.647 318.424 124.503 317.92 124.213C317.425 123.915 317.047 123.546 316.786 123.107V128.161H315.512V116.849H316.786V118.263ZM321.994 120.657C321.994 120.079 321.877 119.575 321.644 119.145C321.411 118.716 321.093 118.389 320.692 118.165C320.3 117.941 319.866 117.829 319.39 117.829C318.923 117.829 318.489 117.946 318.088 118.179C317.696 118.403 317.379 118.735 317.136 119.173C316.903 119.603 316.786 120.102 316.786 120.671C316.786 121.25 316.903 121.759 317.136 122.197C317.379 122.627 317.696 122.958 318.088 123.191C318.489 123.415 318.923 123.527 319.39 123.527C319.866 123.527 320.3 123.415 320.692 123.191C321.093 122.958 321.411 122.627 321.644 122.197C321.877 121.759 321.994 121.245 321.994 120.657ZM326.247 118.263C326.499 117.825 326.872 117.461 327.367 117.171C327.871 116.873 328.454 116.723 329.117 116.723C329.798 116.723 330.414 116.887 330.965 117.213C331.525 117.54 331.963 118.002 332.281 118.599C332.598 119.187 332.757 119.873 332.757 120.657C332.757 121.432 332.598 122.123 332.281 122.729C331.963 123.336 331.525 123.807 330.965 124.143C330.414 124.479 329.798 124.647 329.117 124.647C328.463 124.647 327.885 124.503 327.381 124.213C326.886 123.915 326.508 123.546 326.247 123.107V128.161H324.973V116.849H326.247V118.263ZM331.455 120.657C331.455 120.079 331.338 119.575 331.105 119.145C330.871 118.716 330.554 118.389 330.153 118.165C329.761 117.941 329.327 117.829 328.851 117.829C328.384 117.829 327.95 117.946 327.549 118.179C327.157 118.403 326.839 118.735 326.597 119.173C326.363 119.603 326.247 120.102 326.247 120.671C326.247 121.25 326.363 121.759 326.597 122.197C326.839 122.627 327.157 122.958 327.549 123.191C327.95 123.415 328.384 123.527 328.851 123.527C329.327 123.527 329.761 123.415 330.153 123.191C330.554 122.958 330.871 122.627 331.105 122.197C331.338 121.759 331.455 121.245 331.455 120.657ZM337.78 124.647C337.061 124.647 336.408 124.484 335.82 124.157C335.241 123.831 334.784 123.369 334.448 122.771C334.121 122.165 333.958 121.465 333.958 120.671C333.958 119.887 334.126 119.197 334.462 118.599C334.807 117.993 335.274 117.531 335.862 117.213C336.45 116.887 337.108 116.723 337.836 116.723C338.564 116.723 339.222 116.887 339.81 117.213C340.398 117.531 340.86 117.988 341.196 118.585C341.541 119.183 341.714 119.878 341.714 120.671C341.714 121.465 341.536 122.165 341.182 122.771C340.836 123.369 340.365 123.831 339.768 124.157C339.17 124.484 338.508 124.647 337.78 124.647ZM337.78 123.527C338.237 123.527 338.666 123.42 339.068 123.205C339.469 122.991 339.791 122.669 340.034 122.239C340.286 121.81 340.412 121.287 340.412 120.671C340.412 120.055 340.29 119.533 340.048 119.103C339.805 118.674 339.488 118.357 339.096 118.151C338.704 117.937 338.279 117.829 337.822 117.829C337.355 117.829 336.926 117.937 336.534 118.151C336.151 118.357 335.843 118.674 335.61 119.103C335.376 119.533 335.26 120.055 335.26 120.671C335.26 121.297 335.372 121.824 335.596 122.253C335.829 122.683 336.137 123.005 336.52 123.219C336.902 123.425 337.322 123.527 337.78 123.527ZM344.663 118.095C344.887 117.657 345.204 117.316 345.615 117.073C346.035 116.831 346.543 116.709 347.141 116.709V118.025H346.805C345.377 118.025 344.663 118.8 344.663 120.349V124.521H343.389V116.849H344.663V118.095ZM350.165 117.899V122.421C350.165 122.795 350.245 123.061 350.403 123.219C350.562 123.369 350.837 123.443 351.229 123.443H352.167V124.521H351.019C350.31 124.521 349.778 124.358 349.423 124.031C349.069 123.705 348.891 123.168 348.891 122.421V117.899H347.897V116.849H348.891V114.917H350.165V116.849H352.167V117.899H350.165ZM237.352 141.095C237.576 140.657 237.894 140.316 238.304 140.073C238.724 139.831 239.233 139.709 239.83 139.709V141.025H239.494C238.066 141.025 237.352 141.8 237.352 143.349V147.521H236.078V139.849H237.352V141.095ZM248.301 143.391C248.301 143.634 248.287 143.891 248.259 144.161H242.127C242.174 144.917 242.43 145.51 242.897 145.939C243.373 146.359 243.947 146.569 244.619 146.569C245.17 146.569 245.627 146.443 245.991 146.191C246.364 145.93 246.626 145.585 246.775 145.155H248.147C247.942 145.893 247.531 146.495 246.915 146.961C246.299 147.419 245.534 147.647 244.619 147.647C243.891 147.647 243.238 147.484 242.659 147.157C242.09 146.831 241.642 146.369 241.315 145.771C240.988 145.165 240.825 144.465 240.825 143.671C240.825 142.878 240.984 142.183 241.301 141.585C241.618 140.988 242.062 140.531 242.631 140.213C243.21 139.887 243.872 139.723 244.619 139.723C245.347 139.723 245.991 139.882 246.551 140.199C247.111 140.517 247.54 140.955 247.839 141.515C248.147 142.066 248.301 142.691 248.301 143.391ZM246.985 143.125C246.985 142.64 246.878 142.225 246.663 141.879C246.448 141.525 246.154 141.259 245.781 141.081C245.417 140.895 245.011 140.801 244.563 140.801C243.919 140.801 243.368 141.007 242.911 141.417C242.463 141.828 242.206 142.397 242.141 143.125H246.985ZM251.257 137.161V147.521H249.983V137.161H251.257ZM252.952 143.657C252.952 142.873 253.111 142.187 253.428 141.599C253.745 141.002 254.179 140.54 254.73 140.213C255.29 139.887 255.911 139.723 256.592 139.723C257.264 139.723 257.847 139.868 258.342 140.157C258.837 140.447 259.205 140.811 259.448 141.249V139.849H260.736V147.521H259.448V146.093C259.196 146.541 258.818 146.915 258.314 147.213C257.819 147.503 257.241 147.647 256.578 147.647C255.897 147.647 255.281 147.479 254.73 147.143C254.179 146.807 253.745 146.336 253.428 145.729C253.111 145.123 252.952 144.432 252.952 143.657ZM259.448 143.671C259.448 143.093 259.331 142.589 259.098 142.159C258.865 141.73 258.547 141.403 258.146 141.179C257.754 140.946 257.32 140.829 256.844 140.829C256.368 140.829 255.934 140.941 255.542 141.165C255.15 141.389 254.837 141.716 254.604 142.145C254.371 142.575 254.254 143.079 254.254 143.657C254.254 144.245 254.371 144.759 254.604 145.197C254.837 145.627 255.15 145.958 255.542 146.191C255.934 146.415 256.368 146.527 256.844 146.527C257.32 146.527 257.754 146.415 258.146 146.191C258.547 145.958 258.865 145.627 259.098 145.197C259.331 144.759 259.448 144.25 259.448 143.671ZM264.443 140.899V145.421C264.443 145.795 264.522 146.061 264.681 146.219C264.839 146.369 265.115 146.443 265.507 146.443H266.445V147.521H265.297C264.587 147.521 264.055 147.358 263.701 147.031C263.346 146.705 263.169 146.168 263.169 145.421V140.899H262.175V139.849H263.169V137.917H264.443V139.849H266.445V140.899H264.443ZM274.988 143.391C274.988 143.634 274.974 143.891 274.946 144.161H268.814C268.861 144.917 269.118 145.51 269.584 145.939C270.06 146.359 270.634 146.569 271.306 146.569C271.857 146.569 272.314 146.443 272.678 146.191C273.052 145.93 273.313 145.585 273.462 145.155H274.834C274.629 145.893 274.218 146.495 273.602 146.961C272.986 147.419 272.221 147.647 271.306 147.647C270.578 147.647 269.925 147.484 269.346 147.157C268.777 146.831 268.329 146.369 268.002 145.771C267.676 145.165 267.512 144.465 267.512 143.671C267.512 142.878 267.671 142.183 267.988 141.585C268.306 140.988 268.749 140.531 269.318 140.213C269.897 139.887 270.56 139.723 271.306 139.723C272.034 139.723 272.678 139.882 273.238 140.199C273.798 140.517 274.228 140.955 274.526 141.515C274.834 142.066 274.988 142.691 274.988 143.391ZM273.672 143.125C273.672 142.64 273.565 142.225 273.35 141.879C273.136 141.525 272.842 141.259 272.468 141.081C272.104 140.895 271.698 140.801 271.25 140.801C270.606 140.801 270.056 141.007 269.598 141.417C269.15 141.828 268.894 142.397 268.828 143.125H273.672ZM276.194 143.657C276.194 142.873 276.353 142.187 276.67 141.599C276.987 141.002 277.421 140.54 277.972 140.213C278.532 139.887 279.157 139.723 279.848 139.723C280.445 139.723 281.001 139.863 281.514 140.143C282.027 140.414 282.419 140.773 282.69 141.221V137.161H283.978V147.521H282.69V146.079C282.438 146.537 282.065 146.915 281.57 147.213C281.075 147.503 280.497 147.647 279.834 147.647C279.153 147.647 278.532 147.479 277.972 147.143C277.421 146.807 276.987 146.336 276.67 145.729C276.353 145.123 276.194 144.432 276.194 143.657ZM282.69 143.671C282.69 143.093 282.573 142.589 282.34 142.159C282.107 141.73 281.789 141.403 281.388 141.179C280.996 140.946 280.562 140.829 280.086 140.829C279.61 140.829 279.176 140.941 278.784 141.165C278.392 141.389 278.079 141.716 277.846 142.145C277.613 142.575 277.496 143.079 277.496 143.657C277.496 144.245 277.613 144.759 277.846 145.197C278.079 145.627 278.392 145.958 278.784 146.191C279.176 146.415 279.61 146.527 280.086 146.527C280.562 146.527 280.996 146.415 281.388 146.191C281.789 145.958 282.107 145.627 282.34 145.197C282.573 144.759 282.69 144.25 282.69 143.671ZM289.387 143.657C289.387 142.873 289.546 142.187 289.863 141.599C290.181 141.002 290.615 140.54 291.165 140.213C291.725 139.887 292.351 139.723 293.041 139.723C293.704 139.723 294.283 139.873 294.777 140.171C295.281 140.461 295.65 140.82 295.883 141.249V139.849H297.171V151.161H295.883V146.107C295.641 146.537 295.267 146.901 294.763 147.199C294.259 147.498 293.671 147.647 292.999 147.647C292.327 147.647 291.716 147.479 291.165 147.143C290.615 146.807 290.181 146.336 289.863 145.729C289.546 145.123 289.387 144.432 289.387 143.657ZM295.883 143.671C295.883 143.093 295.767 142.589 295.533 142.159C295.3 141.73 294.983 141.403 294.581 141.179C294.189 140.946 293.755 140.829 293.279 140.829C292.803 140.829 292.369 140.941 291.977 141.165C291.585 141.389 291.273 141.716 291.039 142.145C290.806 142.575 290.689 143.079 290.689 143.657C290.689 144.245 290.806 144.759 291.039 145.197C291.273 145.627 291.585 145.958 291.977 146.191C292.369 146.415 292.803 146.527 293.279 146.527C293.755 146.527 294.189 146.415 294.581 146.191C294.983 145.958 295.3 145.627 295.533 145.197C295.767 144.759 295.883 144.25 295.883 143.671ZM306.128 139.849V147.521H304.854V146.387C304.612 146.779 304.271 147.087 303.832 147.311C303.403 147.526 302.927 147.633 302.404 147.633C301.807 147.633 301.27 147.512 300.794 147.269C300.318 147.017 299.94 146.644 299.66 146.149C299.39 145.655 299.254 145.053 299.254 144.343V139.849H300.514V144.175C300.514 144.931 300.706 145.515 301.088 145.925C301.471 146.327 301.994 146.527 302.656 146.527C303.338 146.527 303.874 146.317 304.266 145.897C304.658 145.477 304.854 144.866 304.854 144.063V139.849H306.128ZM315.279 143.391C315.279 143.634 315.265 143.891 315.237 144.161H309.105C309.152 144.917 309.409 145.51 309.875 145.939C310.351 146.359 310.925 146.569 311.597 146.569C312.148 146.569 312.605 146.443 312.969 146.191C313.343 145.93 313.604 145.585 313.753 145.155H315.125C314.92 145.893 314.509 146.495 313.893 146.961C313.277 147.419 312.512 147.647 311.597 147.647C310.869 147.647 310.216 147.484 309.637 147.157C309.068 146.831 308.62 146.369 308.293 145.771C307.967 145.165 307.803 144.465 307.803 143.671C307.803 142.878 307.962 142.183 308.279 141.585C308.597 140.988 309.04 140.531 309.609 140.213C310.188 139.887 310.851 139.723 311.597 139.723C312.325 139.723 312.969 139.882 313.529 140.199C314.089 140.517 314.519 140.955 314.817 141.515C315.125 142.066 315.279 142.691 315.279 143.391ZM313.963 143.125C313.963 142.64 313.856 142.225 313.641 141.879C313.427 141.525 313.133 141.259 312.759 141.081C312.395 140.895 311.989 140.801 311.541 140.801C310.897 140.801 310.347 141.007 309.889 141.417C309.441 141.828 309.185 142.397 309.119 143.125H313.963ZM318.235 141.095C318.459 140.657 318.776 140.316 319.187 140.073C319.607 139.831 320.116 139.709 320.713 139.709V141.025H320.377C318.949 141.025 318.235 141.8 318.235 143.349V147.521H316.961V139.849H318.235V141.095ZM322.842 138.603C322.599 138.603 322.394 138.519 322.226 138.351C322.058 138.183 321.974 137.978 321.974 137.735C321.974 137.493 322.058 137.287 322.226 137.119C322.394 136.951 322.599 136.867 322.842 136.867C323.075 136.867 323.271 136.951 323.43 137.119C323.598 137.287 323.682 137.493 323.682 137.735C323.682 137.978 323.598 138.183 323.43 138.351C323.271 138.519 323.075 138.603 322.842 138.603ZM323.458 139.849V147.521H322.184V139.849H323.458ZM332.629 143.391C332.629 143.634 332.615 143.891 332.587 144.161H326.455C326.502 144.917 326.758 145.51 327.225 145.939C327.701 146.359 328.275 146.569 328.947 146.569C329.498 146.569 329.955 146.443 330.319 146.191C330.692 145.93 330.954 145.585 331.103 145.155H332.475C332.27 145.893 331.859 146.495 331.243 146.961C330.627 147.419 329.862 147.647 328.947 147.647C328.219 147.647 327.566 147.484 326.987 147.157C326.418 146.831 325.97 146.369 325.643 145.771C325.316 145.165 325.153 144.465 325.153 143.671C325.153 142.878 325.312 142.183 325.629 141.585C325.946 140.988 326.39 140.531 326.959 140.213C327.538 139.887 328.2 139.723 328.947 139.723C329.675 139.723 330.319 139.882 330.879 140.199C331.439 140.517 331.868 140.955 332.167 141.515C332.475 142.066 332.629 142.691 332.629 143.391ZM331.313 143.125C331.313 142.64 331.206 142.225 330.991 141.879C330.776 141.525 330.482 141.259 330.109 141.081C329.745 140.895 329.339 140.801 328.891 140.801C328.247 140.801 327.696 141.007 327.239 141.417C326.791 141.828 326.534 142.397 326.469 143.125H331.313ZM337.027 147.647C336.439 147.647 335.911 147.549 335.445 147.353C334.978 147.148 334.609 146.868 334.339 146.513C334.068 146.149 333.919 145.734 333.891 145.267H335.207C335.244 145.65 335.421 145.963 335.739 146.205C336.065 146.448 336.49 146.569 337.013 146.569C337.498 146.569 337.881 146.462 338.161 146.247C338.441 146.033 338.581 145.762 338.581 145.435C338.581 145.099 338.431 144.852 338.133 144.693C337.834 144.525 337.372 144.362 336.747 144.203C336.177 144.054 335.711 143.905 335.347 143.755C334.992 143.597 334.684 143.368 334.423 143.069C334.171 142.761 334.045 142.36 334.045 141.865C334.045 141.473 334.161 141.114 334.395 140.787C334.628 140.461 334.959 140.204 335.389 140.017C335.818 139.821 336.308 139.723 336.859 139.723C337.708 139.723 338.394 139.938 338.917 140.367C339.439 140.797 339.719 141.385 339.757 142.131H338.483C338.455 141.73 338.291 141.408 337.993 141.165C337.703 140.923 337.311 140.801 336.817 140.801C336.359 140.801 335.995 140.899 335.725 141.095C335.454 141.291 335.319 141.548 335.319 141.865C335.319 142.117 335.398 142.327 335.557 142.495C335.725 142.654 335.93 142.785 336.173 142.887C336.425 142.981 336.77 143.088 337.209 143.209C337.759 143.359 338.207 143.508 338.553 143.657C338.898 143.797 339.192 144.012 339.435 144.301C339.687 144.591 339.817 144.969 339.827 145.435C339.827 145.855 339.71 146.233 339.477 146.569C339.243 146.905 338.912 147.171 338.483 147.367C338.063 147.554 337.577 147.647 337.027 147.647Z" fill="#F6FCFF"/>
<g clip-path="url(#clip0_5780_2999)">
<g opacity="0.4">
<path d="M106.333 70.33C106.862 70.0037 107.43 69.7518 108.023 69.581L108.369 67.862L111.189 67.8096L111.596 69.5173C112.194 69.6692 112.769 69.9022 113.307 70.2101L114.732 69.2477L116.764 71.27L115.88 72.768C116.197 73.311 116.442 73.8955 116.607 74.5057L118.275 74.8614L118.326 77.7676L116.669 78.1833C116.522 78.7995 116.296 79.3927 115.997 79.9472L116.931 81.419L114.968 83.5087L113.515 82.5987C112.988 82.9251 112.42 83.177 111.828 83.3477L111.465 85.0666L108.645 85.1191L108.238 83.4113C107.641 83.2594 107.067 83.0264 106.53 82.7185L105.101 83.681L103.063 81.6624L103.946 80.1644C103.629 79.6199 103.385 79.0342 103.219 78.423L101.551 78.0485L101.5 75.1423L103.157 74.7229C103.305 74.1069 103.531 73.5137 103.83 72.959L102.896 71.4872L104.88 69.4199L106.333 70.33ZM107.838 74.2023C107.422 74.646 107.143 75.2068 107.036 75.8139C106.929 76.421 107 77.047 107.238 77.6129C107.477 78.1788 107.873 78.6592 108.376 78.9931C108.879 79.3271 109.468 79.4998 110.066 79.4894C110.665 79.4789 111.247 79.2857 111.739 78.9343C112.231 78.5829 112.611 78.089 112.831 77.5151C113.051 76.9412 113.1 76.313 112.974 75.71C112.847 75.107 112.549 74.5563 112.119 74.1274C111.833 73.8408 111.494 73.6153 111.123 73.4639C110.752 73.3125 110.355 73.2381 109.956 73.2451C109.557 73.2521 109.163 73.3402 108.797 73.5045C108.431 73.6687 108.1 73.9059 107.823 74.2023H107.838Z" fill="#E0E0E0"/>
<path d="M106.987 166.78C107.292 166.591 107.619 166.445 107.961 166.346L108.161 165.353L109.789 165.323L110.022 166.308C110.367 166.394 110.7 166.528 111.01 166.705L111.832 166.151L113.002 167.316L112.511 168.173C112.695 168.487 112.836 168.824 112.933 169.177L113.896 169.383L113.925 171.061L112.969 171.3C112.886 171.656 112.756 171.999 112.584 172.319L113.122 173.165L111.992 174.371L111.152 173.847C110.847 174.036 110.52 174.183 110.178 174.285L109.967 175.289L108.339 175.319L108.107 174.334C107.761 174.248 107.429 174.114 107.118 173.937L106.297 174.491L105.127 173.326L105.635 172.461C105.452 172.147 105.309 171.81 105.21 171.458L104.251 171.252L104.222 169.574L105.177 169.334C105.261 168.978 105.391 168.636 105.563 168.316L105.025 167.469L106.155 166.263L106.995 166.788L106.987 166.78ZM107.856 169.027C107.615 169.283 107.454 169.607 107.392 169.958C107.33 170.309 107.37 170.67 107.508 170.998C107.646 171.325 107.875 171.602 108.166 171.795C108.457 171.988 108.796 172.088 109.142 172.081C109.488 172.075 109.825 171.963 110.109 171.76C110.393 171.556 110.612 171.271 110.739 170.939C110.865 170.607 110.893 170.244 110.819 169.895C110.745 169.547 110.573 169.229 110.323 168.982C110.16 168.817 109.966 168.687 109.753 168.599C109.54 168.511 109.313 168.467 109.084 168.47C108.854 168.473 108.628 168.522 108.417 168.615C108.207 168.708 108.016 168.843 107.856 169.012V169.027Z" fill="#E0E0E0"/>
<path d="M71.5465 79.5771C71.7544 79.4475 71.9781 79.3467 72.2116 79.2775L72.3497 78.5996H73.4581L73.6253 79.2512C73.8608 79.3129 74.0879 79.4047 74.3012 79.5246L74.8609 79.1501L75.6604 79.9441L75.297 80.5358C75.4227 80.7501 75.5205 80.9805 75.5877 81.2211L76.2455 81.3634V82.4869L75.5913 82.6517C75.5344 82.8948 75.4465 83.1291 75.3297 83.3483L75.6931 83.925L74.9227 84.7489L74.3485 84.3744C74.1405 84.504 73.9169 84.6047 73.6834 84.674L73.5453 85.3519H72.4551L72.2951 84.6778C72.0592 84.6191 71.8319 84.5285 71.6192 84.4081L71.0595 84.7826L70.26 83.9849L70.6234 83.397C70.4977 83.1827 70.3999 82.9523 70.3327 82.7116L69.6749 82.5693L69.6567 81.4458L70.3073 81.281C70.3671 81.0383 70.4562 80.8043 70.5725 80.5845L70.2091 80.0077L70.9796 79.1838L71.5538 79.5583L71.5465 79.5771ZM72.1389 81.1013C71.9752 81.2761 71.8654 81.4969 71.8235 81.7359C71.7816 81.975 71.8094 82.2214 71.9034 82.4442C71.9974 82.6669 72.1534 82.856 72.3516 82.9874C72.5498 83.1188 72.7814 83.1867 73.0171 83.1826C73.2528 83.1784 73.4819 83.1023 73.6757 82.9639C73.8694 82.8255 74.0189 82.631 74.1054 82.4051C74.1919 82.1791 74.2114 81.9318 74.1615 81.6944C74.1116 81.457 73.9946 81.2402 73.8251 81.0713C73.7125 80.9591 73.5796 80.8709 73.4339 80.8117C73.2882 80.7525 73.1326 80.7234 72.976 80.7262C72.8194 80.729 72.6648 80.7635 72.5212 80.8279C72.3776 80.8923 72.2477 80.9852 72.1389 81.1013Z" fill="#E0E0E0"/>
<path d="M125.798 77.1683C126.208 76.913 126.649 76.7152 127.11 76.5803L127.379 75.2433L129.559 75.2021L129.875 76.5316C130.341 76.649 130.79 76.8304 131.209 77.0709L132.299 76.3219L133.909 77.9173L133.226 79.0708C133.475 79.4941 133.667 79.9501 133.797 80.4265L135.098 80.7036L135.134 82.9506L133.847 83.2764C133.73 83.7591 133.552 84.2237 133.317 84.6583L134.044 85.8043L132.521 87.4296L131.387 86.7218C130.977 86.9764 130.536 87.1741 130.075 87.3098L129.803 88.6468L127.622 88.688L127.306 87.3585C126.835 87.2439 126.381 87.0637 125.958 86.8229L124.867 87.5719L123.287 86.0028L123.973 84.8343C123.726 84.4103 123.534 83.9545 123.403 83.4786L122.105 83.2015L122.065 80.9545L123.356 80.6287C123.47 80.1497 123.646 79.6886 123.879 79.258L123.152 78.112L124.675 76.4867L125.798 77.1683ZM126.968 80.1643C126.645 80.5099 126.428 80.9465 126.346 81.4189C126.263 81.8914 126.318 82.3784 126.505 82.8185C126.691 83.2585 126.999 83.6317 127.391 83.891C127.783 84.1503 128.241 84.2839 128.707 84.275C129.173 84.2661 129.625 84.115 130.008 83.841C130.39 83.5669 130.685 83.1821 130.855 82.7352C131.026 82.2884 131.063 81.7996 130.964 81.3306C130.865 80.8617 130.632 80.4336 130.297 80.1006C130.073 79.8811 129.808 79.7094 129.519 79.5952C129.231 79.4811 128.923 79.4268 128.614 79.4355C128.304 79.4442 128 79.5157 127.717 79.6459C127.435 79.7761 127.18 79.9624 126.968 80.1943V80.1643Z" fill="#EBEBEB"/>
<path d="M183.818 133.007C184.343 132.68 184.909 132.428 185.5 132.258L185.864 130.539L188.68 130.486L189.087 132.194C189.685 132.344 190.261 132.577 190.799 132.887L192.22 131.924L194.248 133.943L193.368 135.441C193.683 135.985 193.927 136.569 194.095 137.179L195.763 137.553L195.814 140.456L194.157 140.875C194.011 141.49 193.785 142.083 193.484 142.635L194.418 144.103L192.463 146.17L191.01 145.26C190.482 145.586 189.915 145.838 189.323 146.009L188.96 147.728L186.143 147.777L185.736 146.077C185.14 145.925 184.565 145.692 184.028 145.384L182.604 146.346L180.576 144.328L181.459 142.83C181.142 142.288 180.898 141.705 180.732 141.096L179.064 140.721L179.017 137.838L180.67 137.418C180.818 136.802 181.044 136.209 181.343 135.654L180.409 134.19L182.368 132.1L183.821 133.01L183.818 133.007ZM185.319 136.875C184.904 137.319 184.626 137.879 184.52 138.486C184.414 139.092 184.484 139.717 184.723 140.282C184.962 140.847 185.358 141.326 185.861 141.659C186.364 141.992 186.951 142.164 187.549 142.153C188.147 142.142 188.728 141.949 189.219 141.598C189.711 141.246 190.09 140.753 190.309 140.179C190.528 139.606 190.577 138.979 190.45 138.377C190.323 137.775 190.026 137.225 189.596 136.797C189.31 136.512 188.973 136.288 188.603 136.138C188.234 135.987 187.839 135.914 187.441 135.921C187.044 135.928 186.652 136.016 186.288 136.18C185.923 136.344 185.594 136.58 185.319 136.875Z" fill="#E0E0E0"/>
<path d="M203.729 76.502C203.731 75.2923 203.463 74.0985 202.944 73.0133C202.425 71.9281 201.671 70.9807 200.739 70.245C199.807 69.5093 198.724 69.0049 197.572 68.7712C196.42 68.5375 195.232 68.5807 194.099 68.8975C192.966 69.2143 191.919 69.7961 191.04 70.5977C190.161 71.3993 189.473 72.3991 189.03 73.5193C188.587 74.6394 188.401 75.8498 188.486 77.0563C188.57 78.2628 188.924 79.4328 189.519 80.4754L189.541 80.5054C189.832 81.0147 190.199 81.378 190.57 81.9098L195.007 87.9617C195.136 88.1335 195.301 88.2726 195.49 88.3683C195.679 88.464 195.887 88.5137 196.097 88.5137C196.308 88.5137 196.516 88.464 196.705 88.3683C196.894 88.2726 197.059 88.1335 197.188 87.9617L201.549 82.0109C201.945 81.5332 202.315 81.0331 202.657 80.5129L202.675 80.4904C203.367 79.2824 203.731 77.9048 203.729 76.502ZM196.097 79.9249C195.433 79.9242 194.784 79.7206 194.233 79.3399C193.681 78.9592 193.251 78.4185 192.998 77.7862C192.744 77.1538 192.678 76.4581 192.808 75.7871C192.938 75.1161 193.258 74.4999 193.728 74.0163C194.198 73.5328 194.796 73.2036 195.447 73.0703C196.098 72.9371 196.773 73.0059 197.387 73.2679C198 73.5299 198.524 73.9734 198.893 74.5424C199.262 75.1114 199.459 75.7803 199.459 76.4645C199.459 76.9193 199.372 77.3695 199.203 77.7896C199.034 78.2097 198.786 78.5913 198.474 78.9127C198.162 79.2341 197.791 79.4889 197.383 79.6626C196.976 79.8363 196.539 79.9254 196.097 79.9249Z" fill="#E0E0E0"/>
<path d="M69.3629 189.687C70.1363 189.133 70.7348 188.357 71.0843 187.456C71.4338 186.555 71.5189 185.567 71.329 184.617C70.8311 181.924 68.4216 180.123 65.9904 180.606C63.5591 181.089 61.9564 183.658 62.4543 186.354C62.6169 187.319 63.0535 188.212 63.7088 188.92C64.3641 189.629 65.2087 190.121 66.1357 190.335C59.5143 192.762 61.2696 200.342 61.2696 200.342L77.4162 197.181C77.4162 197.181 76.3259 189.384 69.3629 189.687Z" fill="#EBEBEB"/>
<path d="M88.9258 222L85.6187 221.153C85.6187 221.153 84.9319 224.029 82.0173 223.344C81.4538 223.223 80.9409 222.924 80.5501 222.488C80.1593 222.052 79.91 221.502 79.8368 220.914C79.768 220.421 79.8135 219.918 79.9695 219.447C80.1256 218.976 80.3877 218.549 80.7344 218.202C81.5267 217.386 82.9731 216.828 85.0954 217.805L86.9452 210.079L83.6563 209.244L82.566 213.772C82.566 213.772 77.6635 213.828 76.4134 219.064C75.2141 224.074 79.2953 226.344 81.1632 226.816C82.5951 227.179 87.5412 228.059 88.9258 222Z" fill="#EBEBEB"/>
<path d="M83.995 207.644L87.3296 208.49L88.0972 205.279L84.7626 204.433L83.995 207.644Z" fill="#EBEBEB"/>
</g>
<path d="M183.476 124.409L188.034 123.66C191.02 126.143 194.801 127.385 198.632 127.142C202.462 126.899 206.066 125.188 208.735 122.345C211.404 119.503 212.944 115.735 213.053 111.781C213.162 107.828 211.832 103.975 209.325 100.981C206.817 97.9866 203.313 96.0673 199.502 95.6002C195.691 95.1331 191.848 96.152 188.729 98.4566C185.61 100.761 183.44 104.185 182.646 108.054C181.853 111.924 182.492 115.959 184.439 119.368L183.476 124.409Z" fill="white"/>
<path d="M183.475 124.408C183.475 124.408 183.475 124.304 183.526 124.09L183.701 123.131C183.857 122.27 184.089 121.008 184.391 119.36C184.392 119.355 184.394 119.35 184.397 119.345C184.4 119.341 184.403 119.337 184.408 119.334C184.412 119.331 184.417 119.329 184.423 119.329C184.428 119.328 184.433 119.329 184.438 119.33C184.442 119.328 184.445 119.327 184.449 119.327C184.453 119.327 184.457 119.328 184.46 119.33L184.395 119.383C183.094 117.12 182.359 114.561 182.254 111.934C182.222 111.116 182.252 110.297 182.345 109.485C182.453 108.615 182.626 107.755 182.861 106.912C183.719 103.856 185.448 101.137 187.824 99.1058C190.199 97.0746 193.112 95.8252 196.184 95.5194C198.595 95.2849 201.025 95.6399 203.277 96.5555C205.53 97.4711 207.541 98.9214 209.147 100.789L209.765 101.538C209.957 101.8 210.128 102.073 210.317 102.335C210.676 102.868 211.003 103.424 211.295 103.998C211.455 104.275 211.557 104.582 211.691 104.871C211.825 105.159 211.964 105.447 212.054 105.755C212.27 106.349 212.448 106.957 212.589 107.575C213.148 109.975 213.166 112.476 212.643 114.885C211.942 118.018 210.336 120.857 208.035 123.029C205.735 125.201 202.85 126.603 199.76 127.049C198.911 127.167 198.054 127.219 197.198 127.202C196.403 127.163 195.61 127.076 194.825 126.94C192.324 126.46 189.981 125.343 188.007 123.689H188.04L184.631 124.217L183.762 124.349L183.475 124.39L183.777 124.334L184.653 124.184L188.025 123.607H188.058C190.029 125.233 192.362 126.328 194.847 126.794C195.626 126.928 196.412 127.012 197.202 127.045C198.052 127.059 198.903 127.005 199.745 126.884C202.798 126.429 205.646 125.034 207.915 122.882C210.185 120.73 211.771 117.922 212.465 114.825C212.978 112.443 212.957 109.973 212.403 107.601C212.261 106.992 212.085 106.392 211.876 105.803C211.785 105.5 211.633 105.223 211.513 104.931C211.393 104.639 211.277 104.343 211.12 104.069C210.833 103.502 210.51 102.954 210.154 102.429C209.972 102.167 209.79 101.897 209.609 101.639L208.998 100.89C207.411 99.0453 205.425 97.6118 203.201 96.7055C200.977 95.7991 198.577 95.4454 196.195 95.6729C194.086 95.8876 192.044 96.5506 190.197 97.62C188.35 98.6894 186.738 100.142 185.463 101.886C184.352 103.412 183.522 105.134 183.014 106.968C182.779 107.802 182.605 108.653 182.494 109.515C182.398 110.321 182.364 111.133 182.392 111.945C182.481 114.554 183.194 117.1 184.467 119.356C184.474 119.364 184.478 119.374 184.478 119.385C184.478 119.395 184.474 119.405 184.467 119.413C184.46 119.419 184.451 119.422 184.442 119.422C184.433 119.422 184.424 119.419 184.416 119.413L184.482 119.39C184.162 121.019 183.915 122.27 183.755 123.135C183.671 123.558 183.606 123.884 183.562 124.101C183.519 124.319 183.475 124.408 183.475 124.408Z" fill="#263238"/>
<path d="M202.334 111.802C202.333 111.484 202.424 111.173 202.595 110.908C202.766 110.643 203.009 110.436 203.294 110.314C203.58 110.192 203.893 110.16 204.196 110.222C204.499 110.284 204.777 110.437 204.995 110.662C205.213 110.887 205.362 111.174 205.422 111.486C205.482 111.798 205.451 112.121 205.332 112.415C205.214 112.708 205.014 112.959 204.757 113.135C204.5 113.312 204.198 113.405 203.889 113.405C203.477 113.404 203.082 113.234 202.79 112.934C202.499 112.634 202.335 112.227 202.334 111.802Z" fill="#263238"/>
<path d="M196.097 111.802C196.096 111.484 196.187 111.173 196.358 110.908C196.529 110.643 196.772 110.437 197.057 110.315C197.342 110.193 197.655 110.16 197.958 110.222C198.261 110.283 198.539 110.436 198.757 110.661C198.976 110.885 199.125 111.171 199.185 111.483C199.246 111.795 199.215 112.118 199.097 112.412C198.979 112.706 198.779 112.957 198.523 113.134C198.266 113.31 197.965 113.405 197.656 113.405C197.243 113.405 196.847 113.236 196.555 112.935C196.263 112.635 196.098 112.227 196.097 111.802Z" fill="#263238"/>
<path d="M189.879 112.605C189.724 112.33 189.653 112.014 189.673 111.697C189.693 111.38 189.804 111.076 189.992 110.824C190.18 110.572 190.436 110.383 190.728 110.281C191.02 110.178 191.334 110.168 191.632 110.25C191.93 110.332 192.198 110.504 192.401 110.743C192.604 110.981 192.734 111.277 192.774 111.592C192.815 111.907 192.763 112.228 192.627 112.513C192.491 112.798 192.275 113.034 192.008 113.193C191.65 113.405 191.225 113.463 190.826 113.352C190.427 113.242 190.086 112.974 189.879 112.605Z" fill="#263238"/>
<path d="M80.9995 169.296C80.0437 168.828 78.4337 167.851 77.438 167.469C76.4537 167.035 75.3556 166.958 74.3235 167.251C73.7384 167.454 73.1533 167.937 73.1497 168.573L77.0564 171.543L80.9995 170.472V169.296Z" fill="#FF9A6C"/>
<path d="M76.7255 169.257C76.7255 169.257 69.7079 167.687 68.5377 167.069C67.3675 166.451 61.2694 163.306 60.2482 163.306C59.227 163.306 58.3548 163.59 58.1694 164.639L59.5032 165.706L59.674 166.253L61.9562 167.478L62.3596 168.249L68.1743 171.447C68.1743 171.447 74.2725 174.638 75.29 174.818C76.3076 174.998 81.3882 175.436 83.5614 177.342L92.2834 173.649C92.2834 173.649 89.7649 169.964 87.8243 169.054C86.0944 168.245 83.1907 168.245 81.1592 169.103L76.7255 169.257Z" fill="#FFBF9D"/>
<path d="M82.5625 175.29C82.5625 175.29 93.6649 200.239 95.4529 205.25C95.4529 205.25 107.864 203.145 108.289 196.048L92.2985 173.578L82.5625 175.29Z" fill="#FFBF9D"/>
<path d="M72.2521 169.821C72.2521 169.821 72.2085 169.821 72.1322 169.821C72.0187 169.81 71.9066 169.786 71.7979 169.75C71.3999 169.625 71.0132 169.465 70.6422 169.271C70.1698 169.035 69.621 168.724 69.0177 168.376C68.7161 168.204 68.3999 168.02 68.0692 167.844C67.7385 167.668 67.3787 167.514 67.0117 167.35C66.3321 167.032 65.6298 166.77 64.9111 166.563C64.2533 166.395 63.621 166.267 63.1449 166.432C62.9602 166.508 62.7927 166.623 62.6527 166.768C62.5127 166.914 62.4031 167.088 62.3309 167.279C62.2772 167.424 62.2153 167.567 62.1455 167.705C62.1455 167.705 62.1455 167.661 62.1637 167.586C62.188 167.471 62.2208 167.358 62.2618 167.249C62.326 167.074 62.4128 166.909 62.5198 166.758C62.6613 166.552 62.8584 166.393 63.0868 166.301C63.3685 166.204 63.6678 166.173 63.9626 166.211C64.2923 166.245 64.619 166.304 64.9402 166.387C65.6742 166.587 66.3913 166.847 67.0843 167.166C67.4478 167.331 67.8112 167.484 68.1492 167.668C68.4871 167.852 68.7997 168.042 69.1013 168.219C69.701 168.574 70.2388 168.896 70.7003 169.144C71.058 169.345 71.4283 169.521 71.8088 169.672C72.0922 169.78 72.2521 169.803 72.2521 169.821Z" fill="#FF9A6C"/>
<path d="M65.5581 166.234C65.216 166.163 64.8847 166.045 64.5732 165.882C63.8237 165.518 63.053 165.201 62.2655 164.935C61.8347 164.809 61.3844 164.77 60.9391 164.819C60.7614 164.824 60.5867 164.867 60.4255 164.944C60.2643 165.022 60.12 165.132 60.0014 165.268C59.8593 165.471 59.7659 165.706 59.7289 165.954C59.7256 166.05 59.7072 166.145 59.6744 166.234C59.6574 166.139 59.6574 166.041 59.6744 165.946C59.688 165.679 59.7708 165.42 59.9142 165.197C60.0255 165.041 60.1696 164.913 60.3358 164.823C60.5259 164.729 60.7298 164.67 60.9391 164.647C61.4078 164.586 61.8836 164.623 62.3382 164.755C63.1369 165.019 63.9105 165.358 64.6496 165.766C64.9603 165.905 65.2636 166.062 65.5581 166.234Z" fill="#FF9A6C"/>
<path d="M83.0751 168.547C83.0751 168.547 82.977 168.607 82.7917 168.675C82.5259 168.774 82.2554 168.859 81.9813 168.929C81.0791 169.171 80.1544 169.313 79.2229 169.353C78.2917 169.394 77.3588 169.336 76.4391 169.18C76.0757 169.117 75.8068 169.053 75.6142 168.997C75.5112 168.981 75.4116 168.947 75.3198 168.896C75.3198 168.866 75.7559 168.952 76.461 169.042C77.3745 169.158 78.2959 169.197 79.2157 169.158C80.1361 169.109 81.0512 168.984 81.9522 168.783C82.6245 168.649 83.0497 168.521 83.0751 168.547Z" fill="#FF9A6C"/>
<path d="M186.445 153.736L170.295 150.291L166.297 147.201L144.965 151.441C144.623 152.085 141.167 157.058 141.167 157.058L132.765 159.998C129.194 160.965 126.006 163.06 123.65 165.99C121.41 168.841 119.575 172.006 118.199 175.39C114.42 184.532 108.965 195.092 108.965 195.092L105.545 189.415L91.1318 196.411C91.1318 196.411 99.574 213.949 102.369 216.454C105.476 219.237 112.621 219.559 117.56 214.368C120.536 211.237 129.138 198.864 130.93 195.767L133.59 208.717L136.036 223.498L132.082 233.674H189.792L187.405 224.056C187.405 224.056 189.756 198.991 190.407 194.325C191.937 183.318 186.445 153.736 186.445 153.736Z" fill="#FF635F"/>
<path d="M186.445 153.735C186.445 153.735 198.002 157.076 200.546 168.914C202.087 176.086 207.32 196.53 209.162 213.36C210.253 223.367 210.224 232.613 210.253 233.673H192.518L185.002 157.076L186.445 153.735Z" fill="#FF635F"/>
<path d="M156.805 163.9C156.805 163.9 156.805 163.945 156.757 164.024L156.594 164.368C156.448 164.671 156.23 165.117 155.994 165.683C155.482 166.806 154.878 168.473 153.904 170.334L153.857 170.428L153.777 170.356C152.578 169.304 151.277 168.038 149.932 166.671C147.552 164.237 145.466 161.971 143.925 160.365L142.09 158.466L141.585 157.953C141.523 157.896 141.467 157.833 141.417 157.766C141.488 157.811 141.552 157.865 141.61 157.927L142.133 158.414C142.584 158.84 143.224 159.473 144.012 160.267C145.579 161.851 147.683 164.102 150.056 166.533C151.401 167.9 152.694 169.154 153.879 170.225L153.748 170.248C154.729 168.413 155.355 166.754 155.892 165.638C156.158 165.072 156.379 164.638 156.539 164.342C156.612 164.211 156.674 164.098 156.725 164.012C156.747 163.972 156.774 163.934 156.805 163.9Z" fill="black"/>
<path d="M170.52 150.713C170.519 150.801 170.508 150.889 170.488 150.975C170.451 151.162 170.408 151.409 170.353 151.724C170.222 152.368 169.99 153.297 169.692 154.428C169.063 156.675 168.046 159.78 166.785 163.131C166.119 164.907 165.465 166.584 164.855 168.071L164.808 168.187L164.717 168.105C163.07 166.607 161.595 165.427 160.596 164.551C160.094 164.113 159.702 163.761 159.436 163.513L159.142 163.229C159.073 163.161 159.04 163.128 159.044 163.124C159.086 163.146 159.125 163.174 159.16 163.206L159.473 163.472L160.661 164.468C161.682 165.322 163.169 166.479 164.833 167.97L164.695 168.004C165.295 166.506 165.945 164.835 166.606 163.064C167.853 159.693 168.889 156.641 169.546 154.391C169.874 153.267 170.113 152.346 170.273 151.705C170.342 151.402 170.401 151.159 170.444 150.956C170.464 150.873 170.489 150.792 170.52 150.713Z" fill="black"/>
<path d="M133.135 207.057C133.12 207.032 133.109 207.004 133.103 206.975L133.026 206.72C132.961 206.471 132.87 206.141 132.754 205.732C132.63 205.305 132.51 204.777 132.365 204.162C132.219 203.548 132.063 202.844 131.907 202.065C131.103 198.002 130.537 193.893 130.213 189.759C129.803 184.917 129.712 180.516 129.734 177.337C129.734 175.745 129.774 174.457 129.817 173.569C129.839 173.135 129.854 172.794 129.865 172.543C129.865 172.438 129.865 172.349 129.883 172.277C129.879 172.248 129.879 172.217 129.883 172.188C129.886 172.219 129.886 172.25 129.883 172.281V172.547C129.883 172.798 129.883 173.139 129.883 173.569C129.883 174.461 129.854 175.745 129.861 177.337C129.861 180.513 129.984 184.909 130.395 189.74C130.722 193.868 131.268 197.973 132.031 202.039C132.18 202.818 132.318 203.537 132.459 204.136C132.601 204.735 132.706 205.286 132.823 205.713L133.063 206.709L133.117 206.968C133.135 207.027 133.139 207.057 133.135 207.057Z" fill="black"/>
<path d="M187.405 166.865C187.426 166.898 187.443 166.933 187.455 166.97C187.488 167.049 187.532 167.15 187.583 167.277C187.699 167.562 187.855 167.963 188.059 168.468C188.16 168.73 188.28 169.015 188.397 169.333L188.742 170.382C188.865 170.756 188.996 171.165 189.138 171.591C189.28 172.018 189.374 172.487 189.501 172.97C190.592 176.823 191.137 182.4 190.824 188.5C190.512 194.601 189.814 200.11 189.371 204.065C189.149 206.042 188.967 207.649 188.84 208.772C188.778 209.315 188.727 209.746 188.691 210.049L188.647 210.382C188.645 210.421 188.637 210.458 188.626 210.495C188.621 210.457 188.621 210.42 188.626 210.382L188.651 210.045C188.68 209.738 188.72 209.296 188.767 208.765C188.869 207.641 189.029 206.038 189.236 204.05C189.632 200.072 190.301 194.582 190.621 188.493C190.941 182.403 190.403 176.857 189.36 173.003L188.996 171.625L188.633 170.419C188.517 170.045 188.408 169.689 188.306 169.367C188.204 169.045 188.081 168.756 187.982 168.494C187.793 167.981 187.648 167.581 187.539 167.292C187.495 167.161 187.459 167.06 187.43 166.978C187.416 166.942 187.407 166.904 187.405 166.865Z" fill="black"/>
<path d="M109.059 207.844C109.008 207.844 108.946 204.991 108.925 201.478C108.903 197.965 108.925 195.111 108.979 195.111C109.034 195.111 109.092 197.965 109.114 201.478C109.135 204.991 109.114 207.844 109.059 207.844Z" fill="black"/>
<path d="M161.501 225.126V224.969C161.501 224.856 161.53 224.707 161.551 224.512C161.602 224.1 161.671 223.512 161.762 222.755C161.809 222.381 161.86 221.95 161.919 221.49C161.977 221.029 162.02 220.52 162.075 219.992C162.18 218.906 162.326 217.673 162.438 216.303C162.493 215.621 162.547 214.902 162.609 214.157C162.671 213.412 162.7 212.633 162.747 211.827C162.856 210.217 162.903 208.491 162.965 206.678C163.045 203.049 163.034 199.057 162.852 194.874C162.671 190.691 162.3 186.713 161.889 183.107C161.66 181.306 161.461 179.594 161.203 178.002C161.083 177.205 160.977 176.433 160.839 175.696C160.701 174.958 160.588 174.25 160.476 173.572C160.254 172.22 160 171.007 159.793 169.936C159.687 169.4 159.593 168.902 159.502 168.438C159.411 167.973 159.313 167.565 159.229 167.191L158.866 165.464C158.829 165.273 158.797 165.123 158.775 165.015C158.753 164.906 158.75 164.857 158.75 164.857C158.768 164.906 158.782 164.956 158.793 165.007L158.906 165.453L159.309 167.176L159.596 168.419C159.691 168.876 159.793 169.37 159.905 169.917C160.12 170.984 160.385 172.198 160.614 173.55C160.735 174.226 160.856 174.934 160.977 175.673C161.108 176.422 161.213 177.171 161.341 177.98C161.602 179.575 161.809 181.287 162.046 183.088C162.464 186.698 162.82 190.679 163.023 194.866C163.227 199.053 163.212 203.053 163.121 206.686C163.052 208.502 163.001 210.228 162.885 211.839C162.834 212.644 162.798 213.423 162.736 214.172C162.674 214.921 162.609 215.636 162.551 216.321C162.449 217.692 162.293 218.943 162.187 220.007C162.126 220.55 162.068 221.055 162.017 221.505C161.966 221.954 161.897 222.388 161.842 222.77C161.737 223.519 161.653 224.111 161.599 224.519L161.53 224.976C161.524 225.027 161.514 225.077 161.501 225.126Z" fill="black"/>
<path d="M169.183 184.704H169.256L169.485 184.677L170.375 184.573L173.78 184.198L185.9 182.902H185.991V182.996C186.082 186.775 186.191 191.052 186.304 195.587V195.628L186.278 195.654L184.825 197.276L179.526 203.11L179.479 203.163L179.417 203.129L170.488 198.56L170.448 198.542V198.508C170.059 194.332 169.721 190.879 169.514 188.456C169.405 187.265 169.321 186.329 169.263 185.681C169.238 185.37 169.216 185.131 169.201 184.955C169.187 184.779 169.201 184.715 169.201 184.715C169.201 184.715 169.201 184.805 169.234 184.97C169.267 185.134 169.281 185.393 169.318 185.719C169.383 186.374 169.481 187.314 169.608 188.512C169.852 190.917 170.197 194.351 170.619 198.504L170.575 198.44L179.515 202.983L179.41 203.002L184.697 197.145L186.151 195.527L186.126 195.594C186.02 191.059 185.918 186.786 185.831 183.003L185.926 183.086L173.842 184.277L170.415 184.606L169.503 184.689L169.267 184.711L169.183 184.704Z" fill="black"/>
<path d="M186.013 187.341C185.807 187.4 185.596 187.441 185.384 187.465C184.977 187.532 184.388 187.618 183.658 187.716C182.204 187.907 180.173 188.128 177.938 188.348L172.21 188.925L170.477 189.112C170.266 189.147 170.054 189.164 169.841 189.161C170.046 189.102 170.257 189.061 170.469 189.038C170.876 188.97 171.465 188.884 172.196 188.787C173.649 188.596 175.681 188.375 177.919 188.154L183.643 187.577L185.377 187.39C185.587 187.355 185.8 187.339 186.013 187.341Z" fill="black"/>
<g opacity="0.3">
<path d="M189.524 202.069L190.134 209.72C191.483 203.167 193.601 196.122 193.271 189.434C192.94 182.745 192.329 176.345 188.673 170.289C190.263 174.848 190.992 179.679 190.821 184.52C190.487 192.347 189.524 202.069 189.524 202.069Z" fill="black"/>
</g>
<path d="M106.653 187.826C106.457 187.365 106.11 186.99 105.672 186.767C105.163 186.587 104.611 186.841 104.128 187.089L90.9428 193.852C90.0743 194.298 89.1258 194.826 88.8059 195.762C88.388 196.961 89.1694 198.226 89.8962 199.256C91.11 200.975 92.5637 202.848 94.6206 203.091L105.963 195.077C107.347 194.867 108.209 193.275 108.143 191.834C108.078 190.392 107.358 189.077 106.653 187.826Z" fill="#FF635F"/>
<path d="M108.085 192.726C108.051 192.774 108.012 192.818 107.969 192.857L107.605 193.205C107.293 193.505 106.831 193.928 106.253 194.437C105.094 195.459 103.448 196.819 101.529 198.205C99.6102 199.59 97.8549 200.732 96.5211 201.504C95.8597 201.897 95.3182 202.204 94.9402 202.406L94.5041 202.635C94.4024 202.687 94.3479 202.71 94.3442 202.702C94.3862 202.661 94.434 202.627 94.486 202.601L94.9039 202.339L96.4521 201.384C97.7567 200.575 99.5338 199.414 101.431 198.032C103.328 196.65 104.985 195.313 106.155 194.321L107.547 193.134L107.911 192.815C108.034 192.756 108.081 192.718 108.085 192.726Z" fill="black"/>
<g opacity="0.3">
<path d="M170.349 151.571C168.798 156.882 166.624 162.889 164.789 168.049C163.227 166.682 161.039 164.874 159.472 163.503C160.82 166.259 162.439 168.865 164.302 171.281C164.52 171.562 164.811 171.869 165.149 171.802C165.487 171.734 165.64 171.375 165.756 171.053L168.616 163.252C169.953 159.604 171.243 155.35 170.349 151.571Z" fill="black"/>
</g>
<path d="M145.818 93.7962C150.543 92.3956 154.962 93.7962 159.319 96.1256C163.677 98.455 167.191 102.301 169.466 106.776C171.865 111.491 172.926 116.985 172.057 122.232C171.189 127.479 168.31 132.422 164 135.34C158.109 139.339 149.99 139.13 143.925 135.426C137.86 131.722 133.866 124.895 132.808 117.708C132.081 112.757 132.67 107.537 134.912 103.103C137.155 98.6685 141.119 95.0733 145.815 93.7925" fill="#263238"/>
<path d="M161.329 109.037C160.417 107.228 160.457 105.082 159.959 103.104C158.869 98.7565 155.017 95.6144 150.83 94.3598C146.938 93.1877 142.435 94.0677 138.111 96.0826C135.152 97.4645 132.459 99.5842 130.693 102.393C129.538 104.276 128.836 106.416 128.647 108.634C128.457 110.853 128.785 113.087 129.603 115.148L151.186 109.299C153.432 110.797 155.733 112.343 158.331 113.044C159.087 113.285 159.89 113.322 160.664 113.152C161.048 113.059 161.398 112.853 161.672 112.56C161.946 112.268 162.132 111.9 162.209 111.501C162.3 110.609 161.725 109.827 161.329 109.037Z" fill="#263238"/>
<path d="M166.479 148.474L160.908 108.095C160.66 106.185 159.817 104.237 157.953 104.327L138.328 102.38C132.179 102.672 129.294 110.993 129.839 117.296C130.446 124.314 131.453 132.857 133.019 137.92C136.17 148.095 144.125 148.2 144.125 148.2C144.125 148.2 144.608 150.223 145.215 154.005L157.935 162.723L166.479 148.474Z" fill="#FFBF9D"/>
<path d="M134.582 124.979C134.631 125.328 134.811 125.644 135.082 125.859C135.354 126.073 135.696 126.17 136.036 126.129C136.203 126.116 136.366 126.07 136.516 125.991C136.665 125.913 136.798 125.805 136.906 125.673C137.014 125.541 137.095 125.388 137.145 125.223C137.195 125.058 137.212 124.885 137.195 124.713C137.146 124.364 136.966 124.048 136.695 123.833C136.424 123.618 136.082 123.52 135.742 123.559C135.575 123.573 135.412 123.62 135.262 123.699C135.113 123.778 134.981 123.886 134.873 124.018C134.765 124.15 134.684 124.304 134.634 124.468C134.584 124.633 134.566 124.807 134.582 124.979Z" fill="#263238"/>
<path d="M132.292 121.438C132.477 121.588 133.35 120.689 134.749 120.468C136.148 120.247 137.275 120.813 137.402 120.611C137.463 120.521 137.253 120.236 136.758 119.967C136.09 119.632 135.338 119.517 134.603 119.637C133.876 119.748 133.203 120.096 132.681 120.629C132.299 121.034 132.201 121.36 132.292 121.438Z" fill="#263238"/>
<path d="M147.495 122.814C147.543 123.164 147.722 123.48 147.993 123.696C148.265 123.911 148.608 124.009 148.948 123.967C149.116 123.955 149.279 123.908 149.428 123.83C149.577 123.752 149.71 123.644 149.818 123.512C149.926 123.38 150.008 123.227 150.057 123.062C150.107 122.897 150.124 122.723 150.108 122.552C150.06 122.202 149.881 121.885 149.609 121.669C149.337 121.454 148.995 121.356 148.654 121.398C148.487 121.411 148.324 121.458 148.175 121.536C148.026 121.614 147.893 121.723 147.785 121.855C147.677 121.987 147.596 122.139 147.546 122.304C147.496 122.469 147.479 122.642 147.495 122.814Z" fill="#263238"/>
<path d="M145.583 119.533C145.768 119.683 146.644 118.784 148.039 118.564C149.435 118.343 150.565 118.908 150.692 118.706C150.754 118.616 150.543 118.331 150.049 118.062C149.379 117.727 148.626 117.611 147.89 117.732C147.154 117.844 146.472 118.197 145.946 118.74C145.583 119.114 145.485 119.489 145.583 119.533Z" fill="#263238"/>
<path d="M142.574 131.017C142.574 130.935 141.676 130.916 140.244 130.953C139.881 130.953 139.517 130.953 139.434 130.71C139.35 130.467 139.401 130.04 139.51 129.586C139.714 128.645 139.928 127.658 140.153 126.624C141.025 122.407 141.607 118.966 141.436 118.932C141.265 118.898 140.429 122.302 139.554 126.497C139.347 127.534 139.147 128.527 138.961 129.474C138.889 129.912 138.725 130.422 138.99 130.942C139.06 131.065 139.156 131.169 139.272 131.246C139.387 131.323 139.519 131.372 139.655 131.388C139.86 131.416 140.068 131.416 140.273 131.388C141.701 131.231 142.581 131.096 142.574 131.017Z" fill="#263238"/>
<path d="M144.129 148.2C148.907 147.524 153.409 145.492 157.132 142.332C157.132 142.332 153.959 150.515 144.776 151.339L144.129 148.2Z" fill="#FF9A6C"/>
<path d="M143.679 134.397C143.893 134.011 144.199 133.687 144.569 133.457C144.938 133.226 145.358 133.096 145.79 133.079C146.104 133.061 146.418 133.108 146.713 133.218C147.009 133.328 147.279 133.499 147.509 133.72C147.731 133.931 147.885 134.207 147.95 134.511C148.015 134.815 147.988 135.132 147.872 135.42C147.578 136.023 146.808 136.274 146.113 136.169C145.418 136.032 144.756 135.755 144.166 135.352C143.99 135.259 143.833 135.132 143.704 134.978C143.641 134.907 143.599 134.818 143.585 134.723C143.571 134.627 143.584 134.53 143.624 134.442" fill="#FF9A6C"/>
<path d="M146.832 131.367C146.6 131.39 146.832 132.955 145.695 134.266C144.557 135.577 142.926 135.663 142.944 135.88C142.944 135.985 143.351 136.127 144.034 136.041C144.925 135.914 145.743 135.467 146.345 134.779C146.923 134.12 147.23 133.255 147.199 132.367C147.159 131.704 146.934 131.345 146.832 131.367Z" fill="#263238"/>
<path d="M145.183 115.234C145.38 115.608 146.746 115.2 148.414 115.144C150.082 115.088 151.478 115.342 151.641 114.956C151.714 114.773 151.43 114.443 150.838 114.148C150.056 113.796 149.207 113.632 148.354 113.668C147.502 113.704 146.669 113.94 145.917 114.357C145.354 114.702 145.096 115.058 145.183 115.234Z" fill="#263238"/>
<path d="M131.772 115.083C132.067 115.371 132.979 114.881 134.135 114.682C135.29 114.484 136.315 114.566 136.475 114.188C136.551 114.005 136.348 113.705 135.875 113.462C135.245 113.182 134.549 113.101 133.874 113.229C133.2 113.357 132.577 113.688 132.085 114.181C131.718 114.581 131.634 114.941 131.772 115.083Z" fill="#263238"/>
<path d="M164.505 105.579C161.86 99.7965 152.287 92.6173 146.211 93.9018L137.202 101.302C137.743 102.981 138.714 104.479 140.012 105.636C141.311 106.794 142.889 107.568 144.579 107.878C146.378 108.185 148.486 108.047 149.714 109.44C150.943 110.833 150.648 113.23 151.837 114.709C153.483 116.761 157.175 116.147 158.505 118.432C159.091 119.428 159.021 120.724 159.617 121.712C160.417 123.027 164.084 124.334 165.432 123.667C166.78 123.001 166.475 120.514 166.77 119.14C167.275 116.799 166.795 115.687 166.373 114.473C165.389 111.597 165.77 108.335 164.505 105.579Z" fill="#263238"/>
<path d="M161.41 125.48C161.297 124.701 161.897 122.735 162.624 122.484C164.565 121.854 168.173 121.454 168.977 126.652C170.067 133.767 162.929 133.427 162.882 133.224C162.835 133.022 161.803 128.154 161.41 125.48Z" fill="#FFBF9D"/>
<path d="M164.571 130.191C164.6 130.161 164.705 130.259 164.934 130.318C165.239 130.4 165.563 130.354 165.836 130.191C166.519 129.798 166.948 128.506 166.784 127.218C166.707 126.606 166.498 126.02 166.173 125.502C166.075 125.291 165.928 125.107 165.745 124.967C165.562 124.828 165.348 124.736 165.123 124.701C164.979 124.686 164.835 124.723 164.715 124.807C164.596 124.89 164.508 125.014 164.469 125.158C164.407 125.371 164.469 125.506 164.436 125.532C164.404 125.559 164.273 125.439 164.28 125.135C164.292 124.954 164.364 124.782 164.484 124.648C164.65 124.468 164.878 124.363 165.12 124.356C165.657 124.308 166.21 124.731 166.544 125.251C166.933 125.819 167.183 126.476 167.271 127.165C167.449 128.603 166.944 130.06 165.992 130.536C165.816 130.622 165.623 130.667 165.428 130.667C165.234 130.667 165.041 130.622 164.865 130.536C164.611 130.348 164.549 130.206 164.571 130.191Z" fill="#FF9A6C"/>
<path d="M138.976 98.9095C138.66 101.906 134.782 106.119 133.161 108.602C130.047 113.339 129.494 114.856 130.592 124.503C128.528 121.368 126.871 118.253 126.594 114.474C126.318 110.695 127.241 106.774 129.48 103.771C131.719 100.767 135.32 98.7897 138.994 98.902" fill="#263238"/>
<path d="M155.442 88.7489C156.896 87.0974 158.997 86.0226 161.177 85.4608C164.284 84.6594 167.697 84.8766 170.524 86.2697C173.352 87.6629 175.539 90.2769 176.11 93.2729C176.39 94.812 176.258 96.4007 175.728 97.8682C175.198 99.3357 174.29 100.627 173.101 101.602C174.718 103.217 176.688 104.407 178.846 105.07C178.258 105.98 177.171 106.512 176.074 106.703C174.97 106.845 173.853 106.837 172.752 106.68C173.504 107.838 174.629 108.684 175.928 109.069C174.14 109.495 172.274 109.432 170.517 108.886C168.798 108.349 167.153 107.588 165.622 106.62C160.305 103.441 157.372 100.654 153.782 95.7596C153.313 93.6474 153.978 90.4042 155.442 88.7489Z" fill="#263238"/>
<path d="M166.904 103.757C163.001 97.8812 158.033 94.7392 153.538 93.7617L166.904 103.757Z" fill="#263238"/>
<path d="M153.538 93.7617C153.744 93.8467 153.956 93.9131 154.174 93.9602C154.584 94.08 155.177 94.2636 155.889 94.5444C157.743 95.2868 159.487 96.2955 161.068 97.5404C162.649 98.7824 164.089 100.203 165.363 101.776C165.843 102.387 166.232 102.9 166.483 103.237C166.607 103.428 166.748 103.607 166.904 103.772C166.799 103.567 166.677 103.372 166.541 103.188C166.308 102.813 165.937 102.308 165.469 101.69C164.227 100.07 162.796 98.6133 161.209 97.3532C159.61 96.0957 157.833 95.098 155.94 94.3946C155.369 94.1853 154.786 94.0115 154.195 93.8741C153.979 93.8186 153.759 93.781 153.538 93.7617Z" fill="#455A64"/>
<path d="M171.556 108.766L171.469 108.796L171.214 108.901C170.996 108.999 170.669 109.126 170.24 109.276C169.028 109.694 167.771 109.958 166.497 110.062C164.608 110.207 162.709 110.081 160.853 109.688C158.581 109.196 156.359 108.482 154.217 107.557C151.928 106.594 149.769 105.606 147.847 104.636C146.139 103.784 144.495 102.803 142.93 101.7C141.877 100.952 140.883 100.121 139.957 99.2129C139.622 98.8946 139.383 98.6287 139.23 98.4639L139.037 98.2654C138.994 98.2242 138.972 98.2017 138.968 98.2055C138.965 98.2092 138.968 98.2317 139.023 98.2804L139.201 98.4939C139.357 98.6811 139.59 98.9545 139.928 99.284C140.838 100.219 141.824 101.072 142.875 101.834C144.435 102.964 146.08 103.966 147.792 104.83C149.718 105.815 151.873 106.812 154.166 107.778C156.321 108.706 158.558 109.417 160.846 109.901C162.72 110.287 164.637 110.395 166.541 110.223C167.813 110.103 169.066 109.819 170.269 109.377C170.695 109.208 171.018 109.07 171.232 108.957L171.476 108.834C171.53 108.785 171.56 108.77 171.556 108.766Z" fill="#455A64"/>
<path d="M150.965 144.033L150.307 142.707C150.354 142.681 154.919 140.269 156.674 138.748C160.81 135.168 164.611 129.449 164.651 129.386L165.85 130.228C165.69 130.472 161.9 136.175 157.608 139.891C155.718 141.516 151.157 143.931 150.965 144.033Z" fill="#455A64"/>
<path d="M154.363 139.895C154.363 139.895 148.127 142.763 148.127 143.4C148.127 144.037 149.115 145.31 149.857 145.246C150.598 145.182 152.742 143.939 153.128 143.43C153.513 142.921 154.196 141.61 154.945 140.973L154.363 139.895Z" fill="#263238"/>
<path d="M165.8 120.612L164.346 120.541C164.399 116.221 163.677 111.929 162.216 107.879C159.062 99.5051 152.996 95.0111 144.195 94.5168C143.394 94.4806 142.592 94.5371 141.803 94.6853L142.439 94.0636C142.747 93.7638 143.106 93.524 143.497 93.3558C144.033 93.1249 144.615 93.0324 145.194 93.0862C156.307 94.0786 161.33 101.359 163.586 107.381C165.124 111.609 165.875 116.098 165.8 120.612Z" fill="#455A64"/>
<path d="M165.073 134.232C167.616 134.232 169.677 131.177 169.677 127.408C169.677 123.64 167.616 120.585 165.073 120.585C162.53 120.585 160.469 123.64 160.469 127.408C160.469 131.177 162.53 134.232 165.073 134.232Z" fill="#455A64"/>
<path d="M169.677 127.409C169.673 127.378 169.673 127.346 169.677 127.315C169.677 127.241 169.677 127.151 169.655 127.038C169.639 126.685 169.604 126.332 169.55 125.982C169.362 124.692 168.874 123.468 168.129 122.413C167.878 122.072 167.587 121.764 167.264 121.496C166.912 121.21 166.515 120.988 166.09 120.84C165.635 120.689 165.154 120.641 164.68 120.702C164.178 120.779 163.698 120.964 163.27 121.245C162.363 121.895 161.662 122.807 161.257 123.866C160.803 124.994 160.569 126.203 160.569 127.424C160.569 128.645 160.803 129.854 161.257 130.982C161.662 132.041 162.363 132.953 163.27 133.603C163.698 133.884 164.178 134.069 164.68 134.146C165.154 134.205 165.635 134.158 166.09 134.008C166.515 133.86 166.912 133.638 167.264 133.352C167.586 133.083 167.877 132.775 168.129 132.435C168.874 131.38 169.362 130.156 169.55 128.866C169.604 128.516 169.639 128.164 169.655 127.81C169.655 127.697 169.655 127.608 169.677 127.533C169.672 127.502 169.672 127.47 169.677 127.439C169.683 127.47 169.683 127.502 169.677 127.533V127.81C169.673 128.167 169.649 128.523 169.604 128.877C169.442 130.19 168.965 131.441 168.216 132.517C167.962 132.87 167.666 133.189 167.337 133.468C166.973 133.771 166.561 134.005 166.119 134.161C165.643 134.322 165.138 134.375 164.64 134.315C164.114 134.237 163.61 134.046 163.161 133.753C162.221 133.094 161.493 132.16 161.071 131.072C160.603 129.921 160.363 128.686 160.363 127.439C160.363 126.192 160.603 124.957 161.071 123.806C161.493 122.718 162.221 121.784 163.161 121.125C163.61 120.832 164.114 120.641 164.64 120.563C165.138 120.503 165.643 120.556 166.119 120.717C166.561 120.873 166.973 121.107 167.337 121.41C167.667 121.688 167.962 122.007 168.216 122.361C168.966 123.436 169.443 124.687 169.604 126.001C169.649 126.354 169.673 126.709 169.677 127.065V127.345C169.679 127.367 169.679 127.388 169.677 127.409Z" fill="#263238"/>
<path d="M165.781 131.37C167.401 131.37 168.714 129.425 168.714 127.026C168.714 124.627 167.401 122.682 165.781 122.682C164.162 122.682 162.849 124.627 162.849 127.026C162.849 129.425 164.162 131.37 165.781 131.37Z" fill="#455A64"/>
<path d="M168.714 127.027C168.692 127.027 168.714 126.697 168.609 126.117C168.487 125.303 168.175 124.532 167.7 123.87C167.377 123.416 166.929 123.072 166.414 122.885C166.128 122.79 165.825 122.761 165.527 122.799C165.212 122.847 164.912 122.963 164.644 123.139C164.073 123.549 163.632 124.122 163.375 124.787C163.088 125.499 162.941 126.263 162.943 127.034C162.939 127.806 163.086 128.57 163.375 129.281C163.632 129.947 164.073 130.52 164.644 130.929C164.912 131.106 165.212 131.222 165.527 131.27C165.825 131.308 166.128 131.279 166.414 131.184C166.929 130.996 167.377 130.653 167.7 130.199C168.175 129.537 168.487 128.766 168.609 127.952C168.699 127.371 168.692 127.042 168.714 127.045C168.719 127.124 168.719 127.203 168.714 127.281C168.713 127.509 168.699 127.737 168.67 127.963C168.574 128.803 168.273 129.605 167.795 130.292C167.462 130.778 166.992 131.146 166.45 131.349C166.144 131.456 165.819 131.492 165.498 131.453C165.157 131.399 164.832 131.271 164.542 131.079C163.938 130.656 163.47 130.058 163.197 129.36C162.898 128.623 162.743 127.832 162.743 127.032C162.743 126.233 162.898 125.442 163.197 124.705C163.47 124.007 163.938 123.408 164.542 122.986C164.831 122.794 165.155 122.666 165.494 122.611C165.816 122.573 166.143 122.609 166.45 122.716C166.992 122.919 167.462 123.287 167.795 123.772C168.273 124.46 168.574 125.262 168.67 126.102C168.699 126.328 168.713 126.555 168.714 126.783C168.719 126.864 168.719 126.946 168.714 127.027Z" fill="#263238"/>
<path d="M165.985 130.151C167.149 130.151 168.093 128.753 168.093 127.028C168.093 125.303 167.149 123.904 165.985 123.904C164.821 123.904 163.877 125.303 163.877 127.028C163.877 128.753 164.821 130.151 165.985 130.151Z" fill="#455A64"/>
<path d="M168.093 127.027C168.074 127.027 168.074 126.791 168.009 126.375C167.916 125.791 167.689 125.238 167.348 124.761C167.118 124.438 166.799 124.194 166.432 124.061C166.223 123.992 166.002 123.973 165.785 124.005C165.567 124.036 165.36 124.118 165.178 124.244C164.389 124.78 163.971 125.903 163.968 127.023C163.964 128.143 164.389 129.27 165.178 129.806C165.36 129.932 165.567 130.014 165.785 130.046C166.002 130.077 166.223 130.058 166.432 129.989C166.799 129.856 167.118 129.612 167.348 129.289C167.689 128.812 167.916 128.259 168.009 127.675C168.074 127.259 168.074 127.023 168.093 127.027C168.101 127.083 168.101 127.14 168.093 127.195C168.094 127.359 168.086 127.523 168.067 127.686C168.002 128.295 167.787 128.876 167.442 129.375C167.197 129.72 166.856 129.981 166.465 130.124C166.241 130.201 166.005 130.228 165.77 130.203C165.522 130.167 165.285 130.078 165.073 129.941C164.633 129.634 164.292 129.198 164.095 128.69C163.876 128.156 163.764 127.583 163.764 127.004C163.764 126.426 163.876 125.852 164.095 125.319C164.292 124.811 164.633 124.375 165.073 124.068C165.285 123.931 165.522 123.842 165.77 123.806C166.005 123.781 166.241 123.808 166.465 123.885C166.856 124.027 167.197 124.289 167.442 124.634C167.787 125.133 168.002 125.714 168.067 126.323C168.086 126.486 168.094 126.65 168.093 126.813C168.106 126.884 168.106 126.956 168.093 127.027Z" fill="#263238"/>
</g>
<g clip-path="url(#clip1_5780_2999)">
<path opacity="0.3" d="M284.49 231.614C284.49 221.926 286.348 214.294 290.066 208.718C293.84 203.141 299.895 200.353 308.231 200.353C316.567 200.353 322.594 203.141 326.311 208.718C330.085 214.294 331.972 221.926 331.972 231.614C331.972 241.414 330.085 249.103 326.311 254.679C322.594 260.255 316.567 263.043 308.231 263.043C299.895 263.043 293.84 260.255 290.066 254.679C286.348 249.103 284.49 241.414 284.49 231.614ZM317.778 231.614C317.778 225.925 317.158 221.56 315.919 218.518C314.68 215.42 312.117 213.871 308.231 213.871C304.344 213.871 301.782 215.42 300.542 218.518C299.303 221.56 298.684 225.925 298.684 231.614C298.684 235.444 298.909 238.626 299.36 241.161C299.81 243.639 300.711 245.667 302.063 247.244C303.471 248.765 305.527 249.525 308.231 249.525C310.934 249.525 312.962 248.765 314.314 247.244C315.722 245.667 316.651 243.639 317.102 241.161C317.553 238.626 317.778 235.444 317.778 231.614ZM383.032 214.209H356.672V225.869C357.798 224.63 359.375 223.616 361.403 222.827C363.431 222.039 365.627 221.644 367.993 221.644C372.217 221.644 375.71 222.602 378.469 224.517C381.286 226.432 383.342 228.91 384.637 231.952C385.933 234.993 386.58 238.288 386.58 241.837C386.58 248.427 384.722 253.665 381.004 257.552C377.287 261.382 372.048 263.297 365.289 263.297C360.783 263.297 356.869 262.536 353.545 261.016C350.222 259.439 347.659 257.27 345.857 254.51C344.055 251.75 343.069 248.568 342.9 244.963H357.009C357.347 246.709 358.164 248.174 359.46 249.356C360.755 250.483 362.529 251.046 364.782 251.046C367.43 251.046 369.401 250.201 370.697 248.511C371.992 246.822 372.64 244.569 372.64 241.752C372.64 238.992 371.964 236.88 370.612 235.416C369.26 233.951 367.289 233.219 364.698 233.219C362.783 233.219 361.206 233.698 359.967 234.655C358.727 235.557 357.911 236.768 357.516 238.288H343.576V201.536H383.032V214.209Z" fill="white"/>
</g>
<defs>
<filter id="filter0_d_5780_2999" x="0.491699" y="0.521484" width="409.508" height="286.879" filterUnits="userSpaceOnUse" color-interpolation-filters="sRGB">
<feFlood flood-opacity="0" result="BackgroundImageFix"/>
<feColorMatrix in="SourceAlpha" type="matrix" values="0 0 0 0 0 0 0 0 0 0 0 0 0 0 0 0 0 0 127 0" result="hardAlpha"/>
<feOffset dx="4" dy="4"/>
<feGaussianBlur stdDeviation="10"/>
<feComposite in2="hardAlpha" operator="out"/>
<feColorMatrix type="matrix" values="0 0 0 0 0 0 0 0 0 0 0 0 0 0 0 0 0 0 0.06 0"/>
<feBlend mode="normal" in2="BackgroundImageFix" result="effect1_dropShadow_5780_2999"/>
<feBlend mode="normal" in="SourceGraphic" in2="effect1_dropShadow_5780_2999" result="shape"/>
</filter>
<clipPath id="clip0_5780_2999">
<rect width="181.709" height="169.467" fill="white" transform="translate(44.9158 57.3203)"/>
</clipPath>
<clipPath id="clip1_5780_2999">
<rect width="106.312" height="94.1486" fill="white" transform="translate(279.688 170.297)"/>
</clipPath>
</defs>
</svg>
