<svg width="60" height="60" viewBox="0 0 60 60" fill="none" xmlns="http://www.w3.org/2000/svg">
<rect width="60" height="60" rx="30" fill="#FF635F" fill-opacity="0.1"/>
<g clip-path="url(#clip0_1_3030)">
<path d="M20 31.25H27.5C28.1875 31.25 28.75 30.6875 28.75 30V20C28.75 19.3125 28.1875 18.75 27.5 18.75H20C19.3125 18.75 18.75 19.3125 18.75 20V30C18.75 30.6875 19.3125 31.25 20 31.25ZM20 41.25H27.5C28.1875 41.25 28.75 40.6875 28.75 40V35C28.75 34.3125 28.1875 33.75 27.5 33.75H20C19.3125 33.75 18.75 34.3125 18.75 35V40C18.75 40.6875 19.3125 41.25 20 41.25ZM32.5 41.25H40C40.6875 41.25 41.25 40.6875 41.25 40V30C41.25 29.3125 40.6875 28.75 40 28.75H32.5C31.8125 28.75 31.25 29.3125 31.25 30V40C31.25 40.6875 31.8125 41.25 32.5 41.25ZM31.25 20V25C31.25 25.6875 31.8125 26.25 32.5 26.25H40C40.6875 26.25 41.25 25.6875 41.25 25V20C41.25 19.3125 40.6875 18.75 40 18.75H32.5C31.8125 18.75 31.25 19.3125 31.25 20Z" fill="#FF635F"/>
</g>
<defs>
<clipPath id="clip0_1_3030">
<rect width="30" height="30" fill="white" transform="translate(15 15)"/>
</clipPath>
</defs>
</svg>
