<svg width="60" height="60" viewBox="0 0 60 60" fill="none" xmlns="http://www.w3.org/2000/svg">
<rect width="60" height="60" rx="30" fill="#00ACA5" fill-opacity="0.1"/>
<path d="M39 25.7L33.725 22.825C33.35 22.625 32.9 22.625 32.525 22.825L27.25 25.7C26.8125 25.9375 26.8125 26.5625 27.25 26.8L32.525 29.675C32.9 29.875 33.35 29.875 33.725 29.675L39 26.8C39.425 26.5625 39.425 25.9375 39 25.7ZM41.25 18.75H18.75C17.375 18.75 16.25 19.875 16.25 21.25V23.75C16.25 24.4375 16.8125 25 17.5 25C18.1875 25 18.75 24.4375 18.75 23.75V22.5C18.75 21.8125 19.3125 21.25 20 21.25H40C40.6875 21.25 41.25 21.8125 41.25 22.5V37.5C41.25 38.1875 40.6875 38.75 40 38.75H33.75C33.0625 38.75 32.5 39.3125 32.5 40C32.5 40.6875 33.0625 41.25 33.75 41.25H41.25C42.625 41.25 43.75 40.125 43.75 38.75V21.25C43.75 19.875 42.625 18.75 41.25 18.75ZM32.525 30.925L28.75 28.8625V30.625C28.75 31.0875 29 31.5 29.4 31.725L32.525 33.425C32.9 33.625 33.35 33.625 33.725 33.425L36.85 31.725C37.25 31.5 37.5 31.075 37.5 30.625V28.8625L33.725 30.925C33.35 31.125 32.9 31.125 32.525 30.925ZM16.25 37.5V41.25H20C20 39.175 18.325 37.5 16.25 37.5ZM17.675 32.6125C16.925 32.4875 16.25 33.1 16.25 33.8625C16.25 34.475 16.7 34.9875 17.3125 35.0875C19.9125 35.5375 21.9625 37.5875 22.4125 40.1875C22.5125 40.8 23.025 41.25 23.6375 41.25C24.4 41.25 25 40.575 24.8875 39.825C24.2875 36.125 21.3625 33.2125 17.675 32.6125V32.6125ZM17.625 27.5625C16.8875 27.5 16.25 28.075 16.25 28.8125C16.25 29.45 16.725 29.9875 17.35 30.05C22.6875 30.5625 26.9375 34.8125 27.45 40.15C27.5125 40.775 28.05 41.2375 28.6875 41.2375C29.4375 41.2375 30.0125 40.5875 29.9375 39.85C29.275 33.3625 24.1125 28.2125 17.625 27.5625V27.5625Z" fill="#00ACA5"/>
</svg>
