<svg width="60" height="60" viewBox="0 0 60 60" fill="none" xmlns="http://www.w3.org/2000/svg">
<rect width="60" height="60" rx="30" fill="#00ACA5" fill-opacity="0.1"/>
<g clip-path="url(#clip0_74_1464)">
<path d="M38.75 15H21.25C20.5625 15 20 15.5625 20 16.25C20 16.9375 20.5625 17.5 21.25 17.5H38.75C39.4375 17.5 40 16.9375 40 16.25C40 15.5625 39.4375 15 38.75 15ZM21.25 45H38.75C39.4375 45 40 44.4375 40 43.75C40 43.0625 39.4375 42.5 38.75 42.5H21.25C20.5625 42.5 20 43.0625 20 43.75C20 44.4375 20.5625 45 21.25 45ZM40 20H20C18.625 20 17.5 21.125 17.5 22.5V37.5C17.5 38.875 18.625 40 20 40H40C41.375 40 42.5 38.875 42.5 37.5V22.5C42.5 21.125 41.375 20 40 20ZM30 23.4375C31.55 23.4375 32.8125 24.7 32.8125 26.25C32.8125 27.8 31.55 29.0625 30 29.0625C28.45 29.0625 27.1875 27.8 27.1875 26.25C27.1875 24.7 28.45 23.4375 30 23.4375ZM36.25 36.25H23.75V34.375C23.75 32.2875 27.9125 31.25 30 31.25C32.0875 31.25 36.25 32.2875 36.25 34.375V36.25Z" fill="#00ACA5"/>
</g>
<defs>
<clipPath id="clip0_74_1464">
<rect width="30" height="30" fill="white" transform="translate(15 15)"/>
</clipPath>
</defs>
</svg>
