<svg width="93" height="101" viewBox="0 0 93 101" fill="none" xmlns="http://www.w3.org/2000/svg">
<ellipse cx="46.3211" cy="50.6267" rx="45.9029" ry="50.1618" fill="#00B19B" fill-opacity="0.23"/>
<g clip-path="url(#clip0_2969_2271)">
<path d="M60.1948 37.4395V33.9248C60.1948 32.2292 58.8074 30.8418 57.1117 30.8418H35.5305C33.8195 30.8418 32.4475 32.2292 32.4475 33.9248V55.506C32.4475 57.2017 33.8195 58.5891 35.5305 58.5891H57.1117C58.8074 58.5891 60.1948 57.2017 60.1948 55.506V51.9914C61.1043 51.4518 61.7363 50.4807 61.7363 49.34V40.0909C61.7363 38.9502 61.1043 37.979 60.1948 37.4395ZM58.6533 40.0909V49.34H47.8627V40.0909H58.6533ZM35.5305 55.506V33.9248H57.1117V37.0079H47.8627C46.167 37.0079 44.7796 38.3952 44.7796 40.0909V49.34C44.7796 51.0356 46.167 52.423 47.8627 52.423H57.1117V55.506H35.5305Z" fill="#00ACA5"/>
<path d="M52.4873 47.0269C53.7644 47.0269 54.7996 45.9916 54.7996 44.7146C54.7996 43.4376 53.7644 42.4023 52.4873 42.4023C51.2103 42.4023 50.175 43.4376 50.175 44.7146C50.175 45.9916 51.2103 47.0269 52.4873 47.0269Z" fill="#00ACA5"/>
</g>
<defs>
<clipPath id="clip0_2969_2271">
<rect width="36.9964" height="40.4289" fill="white" transform="translate(27.823 30.4102)"/>
</clipPath>
</defs>
</svg>
