<svg width="40" height="40" viewBox="0 0 40 40" fill="none" xmlns="http://www.w3.org/2000/svg">
<rect width="40" height="40" rx="8" fill="white"/>
<path d="M22.3334 16.6667L23.3334 17.6667L17.6667 23.3334L16.6667 22.3334L22.3334 16.6667ZM13.3334 13.3334H26.6667C27.5917 13.3334 28.3334 14.075 28.3334 15V18.3334C27.8913 18.3334 27.4674 18.509 27.1548 18.8215C26.8423 19.1341 26.6667 19.558 26.6667 20C26.6667 20.4421 26.8423 20.866 27.1548 21.1786C27.4674 21.4911 27.8913 21.6667 28.3334 21.6667V25C28.3334 25.925 27.5917 26.6667 26.6667 26.6667H13.3334C12.8913 26.6667 12.4674 26.4911 12.1548 26.1786C11.8423 25.866 11.6667 25.4421 11.6667 25V21.6667C12.5917 21.6667 13.3334 20.925 13.3334 20C13.3334 19.558 13.1578 19.1341 12.8452 18.8215C12.5326 18.509 12.1087 18.3334 11.6667 18.3334V15C11.6667 14.558 11.8423 14.1341 12.1548 13.8215C12.4674 13.509 12.8913 13.3334 13.3334 13.3334ZM13.3334 15V17.1167C13.8398 17.4087 14.2603 17.8289 14.5527 18.3351C14.8451 18.8412 14.9991 19.4155 14.9991 20C14.9991 20.5846 14.8451 21.1588 14.5527 21.665C14.2603 22.1712 13.8398 22.5914 13.3334 22.8834V25H26.6667V22.8834C26.1603 22.5914 25.7397 22.1712 25.4473 21.665C25.1549 21.1588 25.0009 20.5846 25.0009 20C25.0009 19.4155 25.1549 18.8412 25.4473 18.3351C25.7397 17.8289 26.1603 17.4087 26.6667 17.1167V15H13.3334ZM17.9167 16.6667C18.6084 16.6667 19.1667 17.225 19.1667 17.9167C19.1667 18.6084 18.6084 19.1667 17.9167 19.1667C17.225 19.1667 16.6667 18.6084 16.6667 17.9167C16.6667 17.225 17.225 16.6667 17.9167 16.6667ZM22.0834 20.8334C22.775 20.8334 23.3334 21.3917 23.3334 22.0834C23.3334 22.775 22.775 23.3334 22.0834 23.3334C21.3917 23.3334 20.8334 22.775 20.8334 22.0834C20.8334 21.3917 21.3917 20.8334 22.0834 20.8334Z" fill="#8491A5"/>
</svg>
