<svg width="40" height="40" viewBox="0 0 40 40" fill="none" xmlns="http://www.w3.org/2000/svg">
<rect width="40" height="40" rx="8" fill="white"/>
<g clip-path="url(#clip0_2326_2200)">
<path d="M20 28.3334C20.9166 28.3334 21.6666 27.5834 21.6666 26.6667H18.3333C18.3333 27.5834 19.0833 28.3334 20 28.3334ZM25 23.3334V19.1667C25 16.6084 23.6416 14.4667 21.25 13.9V13.3334C21.25 12.6417 20.6916 12.0834 20 12.0834C19.3083 12.0834 18.75 12.6417 18.75 13.3334V13.9C16.3666 14.4667 15 16.6 15 19.1667V23.3334L13.3333 25V25.8334H26.6666V25L25 23.3334ZM23.3333 24.1667H16.6666V19.1667C16.6666 17.1 17.925 15.4167 20 15.4167C22.075 15.4167 23.3333 17.1 23.3333 19.1667V24.1667Z" fill="#8491A5"/>
</g>
<defs>
<clipPath id="clip0_2326_2200">
<rect width="20" height="20" fill="white" transform="translate(10 10)"/>
</clipPath>
</defs>
</svg>
