<svg width="40" height="40" viewBox="0 0 40 40" fill="none" xmlns="http://www.w3.org/2000/svg">
<rect width="40" height="40" rx="8" fill="white"/>
<g clip-path="url(#clip0_2326_2206)">
<path d="M20 11.6666C15.4 11.6666 11.6667 15.4 11.6667 20C11.6667 24.6 15.4 28.3333 20 28.3333C24.6 28.3333 28.3334 24.6 28.3334 20C28.3334 15.4 24.6 11.6666 20 11.6666ZM15.8917 25.2333C16.25 24.4833 18.4334 23.75 20 23.75C21.5667 23.75 23.7584 24.4833 24.1084 25.2333C22.975 26.1333 21.55 26.6666 20 26.6666C18.45 26.6666 17.025 26.1333 15.8917 25.2333ZM25.3 24.025C24.1084 22.575 21.2167 22.0833 20 22.0833C18.7834 22.0833 15.8917 22.575 14.7 24.025C13.85 22.9083 13.3334 21.5166 13.3334 20C13.3334 16.325 16.325 13.3333 20 13.3333C23.675 13.3333 26.6667 16.325 26.6667 20C26.6667 21.5166 26.15 22.9083 25.3 24.025V24.025ZM20 15C18.3834 15 17.0834 16.3 17.0834 17.9166C17.0834 19.5333 18.3834 20.8333 20 20.8333C21.6167 20.8333 22.9167 19.5333 22.9167 17.9166C22.9167 16.3 21.6167 15 20 15ZM20 19.1666C19.3084 19.1666 18.75 18.6083 18.75 17.9166C18.75 17.225 19.3084 16.6666 20 16.6666C20.6917 16.6666 21.25 17.225 21.25 17.9166C21.25 18.6083 20.6917 19.1666 20 19.1666Z" fill="#8491A5"/>
</g>
<defs>
<clipPath id="clip0_2326_2206">
<rect width="20" height="20" fill="white" transform="translate(10 10)"/>
</clipPath>
</defs>
</svg>
