<svg width="40" height="40" viewBox="0 0 40 40" fill="none" xmlns="http://www.w3.org/2000/svg">
<rect width="40" height="40" rx="8" fill="white"/>
<path fill-rule="evenodd" clip-rule="evenodd" d="M21.6959 12.3407C22.0033 12.1194 22.4369 12.0159 22.8633 12.1719C23.7777 12.5065 24.6165 12.9963 25.3479 13.6089C25.6955 13.9001 25.8226 14.3267 25.7849 14.7033C25.7221 15.3306 25.8327 15.9364 26.1341 16.4585C26.4022 16.9228 26.803 17.2896 27.2927 17.5474L27.4804 17.639C27.8261 17.7948 28.1326 18.1191 28.2103 18.5669C28.2911 19.0331 28.3332 19.512 28.3332 20.0001C28.3332 20.4882 28.2911 20.9672 28.2103 21.4333C28.1404 21.8364 27.8851 22.1393 27.5827 22.3095L27.4804 22.3613C26.9053 22.6205 26.4357 23.0194 26.1341 23.5418C25.8327 24.0638 25.7221 24.6695 25.7849 25.2968C25.8226 25.6734 25.6955 26.1 25.3479 26.3912C24.6165 27.0038 23.7777 27.4936 22.8634 27.8281C22.437 27.9842 22.0034 27.8807 21.696 27.6593C21.1837 27.2907 20.6033 27.0833 19.9999 27.0833C19.3965 27.0833 18.8161 27.2907 18.3038 27.6593C17.9964 27.8807 17.5628 27.9842 17.1364 27.8281C16.222 27.4936 15.3832 27.0038 14.6518 26.3911C14.3043 26.1 14.1771 25.6734 14.2148 25.2968C14.2777 24.6695 14.1669 24.0638 13.8655 23.5418C13.5974 23.0775 13.1967 22.7107 12.7071 22.4528L12.5194 22.3613C12.1737 22.2054 11.8672 21.8812 11.7895 21.4333C11.7086 20.9672 11.6666 20.4882 11.6666 20.0001C11.6666 19.5119 11.7086 19.033 11.7895 18.5668C11.8594 18.1637 12.1147 17.8608 12.417 17.6906L12.5193 17.6389C13.0944 17.3796 13.5639 16.9807 13.8655 16.4584C14.1669 15.9363 14.2777 15.3306 14.2148 14.7033C14.1771 14.3267 14.3042 13.9001 14.6518 13.609C15.3833 12.9963 16.2221 12.5065 17.1365 12.1719C17.5629 12.0159 17.9965 12.1194 18.3039 12.3407C18.8161 12.7094 19.3965 12.9167 19.9999 12.9167C20.6033 12.9167 21.1837 12.7094 21.6959 12.3407ZM22.493 13.8149C21.7716 14.2893 20.921 14.5834 19.9999 14.5834C19.0788 14.5834 18.2281 14.2893 17.5068 13.8149C16.9226 14.0507 16.3791 14.367 15.8901 14.7505C15.9398 15.6117 15.7691 16.4947 15.3089 17.2917C14.8486 18.089 14.169 18.6785 13.398 19.066C13.3554 19.3708 13.3332 19.6827 13.3332 20.0001C13.3332 20.3175 13.3554 20.6293 13.398 20.9342C14.169 21.3217 14.8486 21.9112 15.3089 22.7084C15.769 23.5054 15.9398 24.3884 15.8901 25.2496C16.3791 25.6331 16.9226 25.9494 17.5068 26.1852C18.2281 25.7108 19.0788 25.4167 19.9999 25.4167C20.921 25.4167 21.7717 25.7108 22.4931 26.1852C23.0771 25.9494 23.6206 25.6331 24.1096 25.2497C24.0599 24.3885 24.2306 23.5054 24.6908 22.7084C25.1511 21.9111 25.8307 21.3216 26.6017 20.9341C26.6445 20.6293 26.6666 20.3175 26.6666 20.0001C26.6666 19.6827 26.6445 19.3709 26.6017 19.0662C25.8307 18.6787 25.1511 18.0891 24.6908 17.2918C24.2306 16.4948 24.0598 15.6117 24.1096 14.7504C23.6206 14.367 23.0771 14.0507 22.493 13.8149ZM19.9999 16.6667C21.8408 16.6667 23.3332 18.1591 23.3332 20C23.3332 21.8409 21.8408 23.3333 19.9999 23.3333C18.1589 23.3333 16.6666 21.8409 16.6666 20C16.6666 18.1591 18.1589 16.6667 19.9999 16.6667ZM19.9999 18.3333C19.0794 18.3333 18.3332 19.0795 18.3332 20C18.3332 20.9205 19.0794 21.6667 19.9999 21.6667C20.9204 21.6667 21.6666 20.9205 21.6666 20C21.6666 19.0795 20.9204 18.3333 19.9999 18.3333Z" fill="#8491A5"/>
</svg>
