<svg width="14" height="16" viewBox="0 0 14 16" fill="none" xmlns="http://www.w3.org/2000/svg">
<path d="M11.7459 11.0163C11.2013 11.0163 10.7141 11.2313 10.3415 11.5681L5.23268 8.59451C5.26851 8.42971 5.29717 8.26491 5.29717 8.09294C5.29717 7.92098 5.26851 7.75618 5.23268 7.59138L10.2842 4.64648C10.6711 5.00474 11.1798 5.22686 11.7459 5.22686C12.9353 5.22686 13.8954 4.26672 13.8954 3.0773C13.8954 1.88787 12.9353 0.927734 11.7459 0.927734C10.5564 0.927734 9.5963 1.88787 9.5963 3.0773C9.5963 3.24926 9.62496 3.41406 9.66078 3.57886L4.60931 6.52376C4.22239 6.1655 3.71366 5.94338 3.14761 5.94338C1.95818 5.94338 0.998047 6.90352 0.998047 8.09294C0.998047 9.28237 1.95818 10.2425 3.14761 10.2425C3.71366 10.2425 4.22239 10.0204 4.60931 9.66212L9.71094 12.6428C9.67511 12.7933 9.65362 12.951 9.65362 13.1086C9.65362 14.2622 10.5923 15.2008 11.7459 15.2008C12.8995 15.2008 13.8381 14.2622 13.8381 13.1086C13.8381 11.955 12.8995 11.0163 11.7459 11.0163Z" fill="white"/>
</svg>
