<svg width="54" height="64" viewBox="0 0 54 64" fill="none" xmlns="http://www.w3.org/2000/svg">
<path d="M38.6667 12.5824C38.6667 6.1366 33.4458 0.915771 27 0.915771C20.5542 0.915771 15.3333 6.1366 15.3333 12.5824C15.3333 19.0283 20.5542 24.2491 27 24.2491C33.4458 24.2491 38.6667 19.0283 38.6667 12.5824ZM21.1667 12.5824C21.1667 9.3741 23.7917 6.7491 27 6.7491C30.2083 6.7491 32.8333 9.3741 32.8333 12.5824C32.8333 15.7908 30.2083 18.4158 27 18.4158C23.7917 18.4158 21.1667 15.7908 21.1667 12.5824ZM0.75 53.4158C10.9 53.4158 20.1167 57.3533 27 63.7699C33.8833 57.3824 43.1 53.4158 53.25 53.4158V21.3324C43.1 21.3324 33.8833 25.2699 27 31.6866C20.1167 25.2699 10.9 21.3324 0.75 21.3324V53.4158ZM6.58333 27.6908C12.7083 28.7991 18.3958 31.6283 23.0333 35.9449L27 39.6491L30.9667 35.9449C35.6042 31.6283 41.2917 28.7991 47.4167 27.6908V47.9616C40.0375 48.9533 33.0375 51.7533 27 56.1866C20.9917 51.7533 13.9625 48.9241 6.58333 47.9324V27.6908V27.6908Z" fill="#007EF2"/>
</svg>
