<svg width="76" height="76" viewBox="0 0 76 76" fill="none" xmlns="http://www.w3.org/2000/svg">
<circle opacity="0.2" cx="38" cy="38" r="38" fill="#FF635F"/>
<path d="M52.028 20.5664H24.7878C22.9151 20.5664 21.3998 22.0987 21.3998 23.9714L21.3828 54.6166L28.1928 47.8065H52.028C53.9007 47.8065 55.433 46.2743 55.433 44.4015V23.9714C55.433 22.0987 53.9007 20.5664 52.028 20.5664ZM29.8954 32.484H46.9204C47.8568 32.484 48.623 33.2501 48.623 34.1865C48.623 35.1229 47.8568 35.889 46.9204 35.889H29.8954C28.959 35.889 28.1928 35.1229 28.1928 34.1865C28.1928 33.2501 28.959 32.484 29.8954 32.484ZM40.1104 40.9965H29.8954C28.959 40.9965 28.1928 40.2304 28.1928 39.294C28.1928 38.3576 28.959 37.5915 29.8954 37.5915H40.1104C41.0468 37.5915 41.8129 38.3576 41.8129 39.294C41.8129 40.2304 41.0468 40.9965 40.1104 40.9965ZM46.9204 30.7815H29.8954C28.959 30.7815 28.1928 30.0153 28.1928 29.079C28.1928 28.1426 28.959 27.3764 29.8954 27.3764H46.9204C47.8568 27.3764 48.623 28.1426 48.623 29.079C48.623 30.0153 47.8568 30.7815 46.9204 30.7815Z" fill="#FF635F"/>
</svg>
