<svg width="458" height="196" viewBox="0 0 458 196" fill="none" xmlns="http://www.w3.org/2000/svg">
<g filter="url(#filter0_d_1_27250)">
<rect x="16" y="16" width="418" height="156" rx="7.98701" fill="white"/>
</g>
<path d="M203.318 89.4198C201.302 89.4198 199.575 88.9811 198.138 88.1038C196.701 87.2171 195.595 85.9851 194.82 84.4078C194.055 82.8304 193.672 81.0011 193.672 78.9198C193.672 76.8384 194.055 75.0091 194.82 73.4318C195.595 71.8544 196.701 70.6271 198.138 69.7498C199.575 68.8631 201.302 68.4198 203.318 68.4198C205.642 68.4198 207.579 69.0031 209.128 70.1698C210.677 71.3271 211.765 72.8904 212.39 74.8598L208.988 75.7978C208.596 74.4818 207.929 73.4551 206.986 72.7178C206.043 71.9711 204.821 71.5978 203.318 71.5978C201.965 71.5978 200.835 71.9011 199.93 72.5078C199.034 73.1144 198.357 73.9684 197.9 75.0698C197.452 76.1618 197.223 77.4451 197.214 78.9198C197.214 80.3944 197.438 81.6824 197.886 82.7838C198.343 83.8758 199.025 84.7251 199.93 85.3318C200.835 85.9384 201.965 86.2418 203.318 86.2418C204.821 86.2418 206.043 85.8684 206.986 85.1218C207.929 84.3751 208.596 83.3484 208.988 82.0418L212.39 82.9798C211.765 84.9491 210.677 86.5171 209.128 87.6838C207.579 88.8411 205.642 89.4198 203.318 89.4198ZM222.142 89.4198C220.63 89.4198 219.309 89.0791 218.18 88.3978C217.051 87.7164 216.173 86.7784 215.548 85.5838C214.932 84.3798 214.624 82.9984 214.624 81.4398C214.624 79.8531 214.941 78.4624 215.576 77.2678C216.211 76.0731 217.093 75.1398 218.222 74.4678C219.351 73.7958 220.658 73.4598 222.142 73.4598C223.663 73.4598 224.989 73.8004 226.118 74.4818C227.247 75.1631 228.125 76.1058 228.75 77.3098C229.375 78.5044 229.688 79.8811 229.688 81.4398C229.688 83.0078 229.371 84.3938 228.736 85.5978C228.111 86.7924 227.233 87.7304 226.104 88.4118C224.975 89.0838 223.654 89.4198 222.142 89.4198ZM222.142 86.2558C223.486 86.2558 224.485 85.8078 225.138 84.9118C225.791 84.0158 226.118 82.8584 226.118 81.4398C226.118 79.9744 225.787 78.8078 225.124 77.9398C224.461 77.0624 223.467 76.6238 222.142 76.6238C221.237 76.6238 220.49 76.8291 219.902 77.2398C219.323 77.6411 218.894 78.2058 218.614 78.9338C218.334 79.6524 218.194 80.4878 218.194 81.4398C218.194 82.9051 218.525 84.0764 219.188 84.9538C219.86 85.8218 220.845 86.2558 222.142 86.2558ZM250.931 88.9998V79.8158C250.931 78.7798 250.674 77.9724 250.161 77.3938C249.647 76.8058 248.952 76.5118 248.075 76.5118C247.533 76.5118 247.048 76.6378 246.619 76.8898C246.189 77.1324 245.849 77.4964 245.596 77.9818C245.345 78.4578 245.219 79.0271 245.219 79.6898L243.721 78.8078C243.711 77.7624 243.945 76.8431 244.421 76.0498C244.906 75.2471 245.559 74.6218 246.381 74.1738C247.202 73.7258 248.117 73.5018 249.125 73.5018C250.795 73.5018 252.074 74.0058 252.961 75.0138C253.857 76.0124 254.305 77.3284 254.305 78.9618V88.9998H250.931ZM232.745 88.9998V73.8798H235.727V78.5698H236.147V88.9998H232.745ZM241.859 88.9998V79.8578C241.859 78.8031 241.602 77.9818 241.089 77.3938C240.575 76.8058 239.875 76.5118 238.989 76.5118C238.13 76.5118 237.439 76.8058 236.917 77.3938C236.403 77.9818 236.147 78.7471 236.147 79.6898L234.635 78.6818C234.635 77.7018 234.877 76.8198 235.363 76.0358C235.848 75.2518 236.501 74.6358 237.323 74.1878C238.153 73.7304 239.082 73.5018 240.109 73.5018C241.238 73.5018 242.181 73.7444 242.937 74.2298C243.702 74.7058 244.271 75.3591 244.645 76.1898C245.027 77.0111 245.219 77.9398 245.219 78.9758V88.9998H241.859ZM276.114 88.9998V79.8158C276.114 78.7798 275.857 77.9724 275.344 77.3938C274.831 76.8058 274.135 76.5118 273.258 76.5118C272.717 76.5118 272.231 76.6378 271.802 76.8898C271.373 77.1324 271.032 77.4964 270.78 77.9818C270.528 78.4578 270.402 79.0271 270.402 79.6898L268.904 78.8078C268.895 77.7624 269.128 76.8431 269.604 76.0498C270.089 75.2471 270.743 74.6218 271.564 74.1738C272.385 73.7258 273.3 73.5018 274.308 73.5018C275.979 73.5018 277.257 74.0058 278.144 75.0138C279.04 76.0124 279.488 77.3284 279.488 78.9618V88.9998H276.114ZM257.928 88.9998V73.8798H260.91V78.5698H261.33V88.9998H257.928ZM267.042 88.9998V79.8578C267.042 78.8031 266.785 77.9818 266.272 77.3938C265.759 76.8058 265.059 76.5118 264.172 76.5118C263.313 76.5118 262.623 76.8058 262.1 77.3938C261.587 77.9818 261.33 78.7471 261.33 79.6898L259.818 78.6818C259.818 77.7018 260.061 76.8198 260.546 76.0358C261.031 75.2518 261.685 74.6358 262.506 74.1878C263.337 73.7304 264.265 73.5018 265.292 73.5018C266.421 73.5018 267.364 73.7444 268.12 74.2298C268.885 74.7058 269.455 75.3591 269.828 76.1898C270.211 77.0111 270.402 77.9398 270.402 78.9758V88.9998H267.042ZM288.81 89.4338C287.69 89.4338 286.766 89.2471 286.038 88.8738C285.31 88.5004 284.731 88.0244 284.302 87.4458C283.872 86.8671 283.555 86.2511 283.35 85.5978C283.144 84.9444 283.009 84.3284 282.944 83.7498C282.888 83.1618 282.86 82.6858 282.86 82.3218V73.8798H286.276V81.1598C286.276 81.6264 286.308 82.1538 286.374 82.7418C286.439 83.3204 286.588 83.8804 286.822 84.4218C287.064 84.9538 287.419 85.3924 287.886 85.7378C288.362 86.0831 289.001 86.2558 289.804 86.2558C290.233 86.2558 290.658 86.1858 291.078 86.0458C291.498 85.9058 291.876 85.6678 292.212 85.3318C292.557 84.9864 292.832 84.5151 293.038 83.9178C293.243 83.3204 293.346 82.5644 293.346 81.6498L295.348 82.5038C295.348 83.7918 295.096 84.9584 294.592 86.0038C294.097 87.0491 293.364 87.8844 292.394 88.5098C291.423 89.1258 290.228 89.4338 288.81 89.4338ZM293.752 88.9998V84.3098H293.346V73.8798H296.734V88.9998H293.752ZM311.125 88.9998V81.7198C311.125 81.2438 311.092 80.7164 311.027 80.1378C310.962 79.5591 310.808 79.0038 310.565 78.4718C310.332 77.9304 309.977 77.4871 309.501 77.1418C309.034 76.7964 308.4 76.6238 307.597 76.6238C307.168 76.6238 306.743 76.6938 306.323 76.8338C305.903 76.9738 305.52 77.2164 305.175 77.5618C304.839 77.8978 304.568 78.3644 304.363 78.9618C304.158 79.5498 304.055 80.3058 304.055 81.2298L302.053 80.3758C302.053 79.0878 302.3 77.9211 302.795 76.8758C303.299 75.8304 304.036 74.9998 305.007 74.3838C305.978 73.7584 307.172 73.4458 308.591 73.4458C309.711 73.4458 310.635 73.6324 311.363 74.0058C312.091 74.3791 312.67 74.8551 313.099 75.4338C313.528 76.0124 313.846 76.6284 314.051 77.2818C314.256 77.9351 314.387 78.5558 314.443 79.1438C314.508 79.7224 314.541 80.1938 314.541 80.5578V88.9998H311.125ZM300.639 88.9998V73.8798H303.649V78.5698H304.055V88.9998H300.639ZM318.474 71.5838V68.4898H321.848V71.5838H318.474ZM318.474 88.9998V73.8798H321.848V88.9998H318.474ZM332.608 89.4198C331.049 89.4198 329.719 89.0744 328.618 88.3838C327.517 87.6838 326.672 86.7318 326.084 85.5278C325.505 84.3238 325.211 82.9611 325.202 81.4398C325.211 79.8904 325.515 78.5184 326.112 77.3238C326.719 76.1198 327.577 75.1771 328.688 74.4958C329.799 73.8051 331.119 73.4598 332.65 73.4598C334.367 73.4598 335.819 73.8938 337.004 74.7618C338.199 75.6204 338.978 76.7964 339.342 78.2898L335.982 79.1998C335.721 78.3878 335.287 77.7578 334.68 77.3098C334.073 76.8524 333.383 76.6238 332.608 76.6238C331.731 76.6238 331.007 76.8338 330.438 77.2538C329.869 77.6644 329.449 78.2338 329.178 78.9618C328.907 79.6898 328.772 80.5158 328.772 81.4398C328.772 82.8771 329.094 84.0391 329.738 84.9258C330.382 85.8124 331.339 86.2558 332.608 86.2558C333.504 86.2558 334.209 86.0504 334.722 85.6398C335.245 85.2291 335.637 84.6364 335.898 83.8618L339.342 84.6318C338.875 86.1718 338.059 87.3571 336.892 88.1878C335.725 89.0091 334.297 89.4198 332.608 89.4198ZM346.129 89.4198C345.037 89.4198 344.113 89.2144 343.357 88.8038C342.601 88.3838 342.027 87.8284 341.635 87.1378C341.253 86.4471 341.061 85.6864 341.061 84.8558C341.061 84.1278 341.183 83.4744 341.425 82.8958C341.668 82.3078 342.041 81.8038 342.545 81.3838C343.049 80.9544 343.703 80.6044 344.505 80.3338C345.112 80.1378 345.821 79.9604 346.633 79.8018C347.455 79.6431 348.341 79.4984 349.293 79.3678C350.255 79.2278 351.258 79.0784 352.303 78.9198L351.099 79.6058C351.109 78.5604 350.875 77.7904 350.399 77.2958C349.923 76.8011 349.121 76.5538 347.991 76.5538C347.31 76.5538 346.652 76.7124 346.017 77.0298C345.383 77.3471 344.939 77.8931 344.687 78.6678L341.607 77.7018C341.981 76.4231 342.69 75.3964 343.735 74.6218C344.79 73.8471 346.209 73.4598 347.991 73.4598C349.335 73.4598 350.516 73.6791 351.533 74.1178C352.56 74.5564 353.321 75.2751 353.815 76.2738C354.086 76.8058 354.249 77.3518 354.305 77.9118C354.361 78.4624 354.389 79.0644 354.389 79.7178V88.9998H351.435V85.7238L351.925 86.2558C351.244 87.3478 350.446 88.1504 349.531 88.6638C348.626 89.1678 347.492 89.4198 346.129 89.4198ZM346.801 86.7318C347.567 86.7318 348.22 86.5964 348.761 86.3258C349.303 86.0551 349.732 85.7238 350.049 85.3318C350.376 84.9398 350.595 84.5711 350.707 84.2258C350.885 83.7964 350.983 83.3064 351.001 82.7558C351.029 82.1958 351.043 81.7431 351.043 81.3978L352.079 81.7058C351.062 81.8644 350.189 82.0044 349.461 82.1258C348.733 82.2471 348.108 82.3638 347.585 82.4758C347.063 82.5784 346.601 82.6951 346.199 82.8258C345.807 82.9658 345.476 83.1291 345.205 83.3158C344.935 83.5024 344.725 83.7171 344.575 83.9598C344.435 84.2024 344.365 84.4871 344.365 84.8138C344.365 85.1871 344.459 85.5184 344.645 85.8078C344.832 86.0878 345.103 86.3118 345.457 86.4798C345.821 86.6478 346.269 86.7318 346.801 86.7318ZM366.896 88.9998C365.898 89.1864 364.918 89.2658 363.956 89.2378C363.004 89.2191 362.15 89.0464 361.394 88.7198C360.638 88.3838 360.064 87.8564 359.672 87.1378C359.327 86.4844 359.145 85.8171 359.126 85.1358C359.108 84.4544 359.098 83.6844 359.098 82.8258V69.6798H362.458V82.6298C362.458 83.2364 362.463 83.7684 362.472 84.2258C362.491 84.6831 362.589 85.0564 362.766 85.3458C363.102 85.9058 363.639 86.2184 364.376 86.2838C365.114 86.3491 365.954 86.3118 366.896 86.1718V88.9998ZM356.354 76.5258V73.8798H366.896V76.5258H356.354ZM376.256 89.4198C374.725 89.4198 373.381 89.0884 372.224 88.4258C371.067 87.7631 370.161 86.8438 369.508 85.6678C368.864 84.4918 368.542 83.1384 368.542 81.6078C368.542 79.9558 368.859 78.5231 369.494 77.3098C370.129 76.0871 371.011 75.1398 372.14 74.4678C373.269 73.7958 374.576 73.4598 376.06 73.4598C377.628 73.4598 378.958 73.8284 380.05 74.5658C381.151 75.2938 381.968 76.3251 382.5 77.6598C383.032 78.9944 383.233 80.5671 383.102 82.3778H379.756V81.1458C379.747 79.5031 379.457 78.3038 378.888 77.5478C378.319 76.7918 377.423 76.4138 376.2 76.4138C374.819 76.4138 373.792 76.8431 373.12 77.7018C372.448 78.5511 372.112 79.7971 372.112 81.4398C372.112 82.9704 372.448 84.1558 373.12 84.9958C373.792 85.8358 374.772 86.2558 376.06 86.2558C376.891 86.2558 377.605 86.0738 378.202 85.7098C378.809 85.3364 379.275 84.7998 379.602 84.0998L382.934 85.1078C382.355 86.4704 381.459 87.5298 380.246 88.2858C379.042 89.0418 377.712 89.4198 376.256 89.4198ZM371.048 82.3778V79.8298H381.45V82.3778H371.048Z" fill="#1F1F1F"/>
<path d="M193.952 126.578V115.058H195.032L199.56 124.746L204.064 115.058H205.16V126.57H204.04V117.682L199.936 126.578H199.176L195.08 117.682V126.578H193.952ZM209.877 126.818C209.226 126.818 208.68 126.701 208.237 126.466C207.8 126.231 207.472 125.919 207.253 125.53C207.034 125.141 206.925 124.717 206.925 124.258C206.925 123.789 207.018 123.389 207.205 123.058C207.397 122.722 207.656 122.447 207.981 122.234C208.312 122.021 208.693 121.858 209.125 121.746C209.562 121.639 210.045 121.546 210.573 121.466C211.106 121.381 211.626 121.309 212.133 121.25C212.645 121.186 213.093 121.125 213.477 121.066L213.061 121.322C213.077 120.469 212.912 119.837 212.565 119.426C212.218 119.015 211.616 118.81 210.757 118.81C210.165 118.81 209.664 118.943 209.253 119.21C208.848 119.477 208.562 119.898 208.397 120.474L207.253 120.138C207.45 119.365 207.848 118.765 208.445 118.338C209.042 117.911 209.818 117.698 210.773 117.698C211.562 117.698 212.232 117.847 212.781 118.146C213.336 118.439 213.728 118.866 213.957 119.426C214.064 119.677 214.133 119.957 214.165 120.266C214.197 120.575 214.213 120.89 214.213 121.21V126.578H213.165V124.41L213.469 124.538C213.176 125.279 212.72 125.845 212.101 126.234C211.482 126.623 210.741 126.818 209.877 126.818ZM210.013 125.802C210.562 125.802 211.042 125.703 211.453 125.506C211.864 125.309 212.194 125.039 212.445 124.698C212.696 124.351 212.858 123.962 212.933 123.53C212.997 123.253 213.032 122.949 213.037 122.618C213.042 122.282 213.045 122.031 213.045 121.866L213.493 122.098C213.093 122.151 212.658 122.205 212.189 122.258C211.725 122.311 211.266 122.373 210.813 122.442C210.365 122.511 209.96 122.594 209.597 122.69C209.352 122.759 209.114 122.858 208.885 122.986C208.656 123.109 208.466 123.274 208.317 123.482C208.173 123.69 208.101 123.949 208.101 124.258C208.101 124.509 208.162 124.751 208.285 124.986C208.413 125.221 208.616 125.415 208.893 125.57C209.176 125.725 209.549 125.802 210.013 125.802ZM222.536 126.578V122.17C222.536 121.69 222.49 121.25 222.4 120.85C222.309 120.445 222.162 120.093 221.96 119.794C221.762 119.49 221.504 119.255 221.184 119.09C220.869 118.925 220.485 118.842 220.032 118.842C219.616 118.842 219.248 118.914 218.928 119.058C218.613 119.202 218.346 119.41 218.128 119.682C217.914 119.949 217.752 120.274 217.64 120.658C217.528 121.042 217.472 121.479 217.472 121.97L216.64 121.786C216.64 120.901 216.794 120.157 217.104 119.554C217.413 118.951 217.84 118.495 218.384 118.186C218.928 117.877 219.552 117.722 220.256 117.722C220.773 117.722 221.224 117.802 221.608 117.962C221.997 118.122 222.325 118.338 222.592 118.61C222.864 118.882 223.082 119.194 223.248 119.546C223.413 119.893 223.533 120.263 223.608 120.658C223.682 121.047 223.72 121.437 223.72 121.826V126.578H222.536ZM216.288 126.578V117.938H217.352V120.066H217.472V126.578H216.288ZM228.268 126.818C227.617 126.818 227.07 126.701 226.628 126.466C226.19 126.231 225.862 125.919 225.644 125.53C225.425 125.141 225.316 124.717 225.316 124.258C225.316 123.789 225.409 123.389 225.596 123.058C225.788 122.722 226.046 122.447 226.372 122.234C226.702 122.021 227.084 121.858 227.516 121.746C227.953 121.639 228.436 121.546 228.964 121.466C229.497 121.381 230.017 121.309 230.524 121.25C231.036 121.186 231.484 121.125 231.868 121.066L231.452 121.322C231.468 120.469 231.302 119.837 230.956 119.426C230.609 119.015 230.006 118.81 229.148 118.81C228.556 118.81 228.054 118.943 227.644 119.21C227.238 119.477 226.953 119.898 226.788 120.474L225.644 120.138C225.841 119.365 226.238 118.765 226.836 118.338C227.433 117.911 228.209 117.698 229.164 117.698C229.953 117.698 230.622 117.847 231.172 118.146C231.726 118.439 232.118 118.866 232.348 119.426C232.454 119.677 232.524 119.957 232.556 120.266C232.588 120.575 232.604 120.89 232.604 121.21V126.578H231.556V124.41L231.86 124.538C231.566 125.279 231.11 125.845 230.492 126.234C229.873 126.623 229.132 126.818 228.268 126.818ZM228.404 125.802C228.953 125.802 229.433 125.703 229.844 125.506C230.254 125.309 230.585 125.039 230.836 124.698C231.086 124.351 231.249 123.962 231.324 123.53C231.388 123.253 231.422 122.949 231.428 122.618C231.433 122.282 231.436 122.031 231.436 121.866L231.884 122.098C231.484 122.151 231.049 122.205 230.58 122.258C230.116 122.311 229.657 122.373 229.204 122.442C228.756 122.511 228.35 122.594 227.988 122.69C227.742 122.759 227.505 122.858 227.276 122.986C227.046 123.109 226.857 123.274 226.708 123.482C226.564 123.69 226.492 123.949 226.492 124.258C226.492 124.509 226.553 124.751 226.676 124.986C226.804 125.221 227.006 125.415 227.284 125.57C227.566 125.725 227.94 125.802 228.404 125.802ZM238.118 130.658C237.676 130.658 237.238 130.591 236.806 130.458C236.38 130.33 235.985 130.125 235.622 129.842C235.26 129.565 234.956 129.202 234.71 128.754L235.774 128.162C236.014 128.642 236.35 128.986 236.782 129.194C237.22 129.407 237.665 129.514 238.118 129.514C238.742 129.514 239.246 129.397 239.63 129.162C240.02 128.933 240.302 128.591 240.478 128.138C240.654 127.685 240.74 127.119 240.734 126.442V124.138H240.87V117.938H241.918V126.458C241.918 126.703 241.91 126.938 241.894 127.162C241.884 127.391 241.86 127.615 241.822 127.834C241.721 128.479 241.51 129.01 241.19 129.426C240.876 129.842 240.46 130.151 239.942 130.354C239.43 130.557 238.822 130.658 238.118 130.658ZM238.038 126.818C237.233 126.818 236.545 126.618 235.974 126.218C235.404 125.813 234.966 125.266 234.662 124.578C234.358 123.89 234.206 123.114 234.206 122.25C234.206 121.391 234.356 120.618 234.654 119.93C234.958 119.242 235.393 118.698 235.958 118.298C236.524 117.898 237.201 117.698 237.99 117.698C238.801 117.698 239.484 117.895 240.038 118.29C240.593 118.685 241.012 119.226 241.294 119.914C241.582 120.597 241.726 121.375 241.726 122.25C241.726 123.109 241.585 123.885 241.302 124.578C241.02 125.266 240.604 125.813 240.054 126.218C239.505 126.618 238.833 126.818 238.038 126.818ZM238.158 125.722C238.772 125.722 239.278 125.573 239.678 125.274C240.078 124.975 240.377 124.565 240.574 124.042C240.772 123.514 240.87 122.917 240.87 122.25C240.87 121.573 240.772 120.975 240.574 120.458C240.377 119.935 240.078 119.527 239.678 119.234C239.284 118.941 238.785 118.794 238.182 118.794C237.564 118.794 237.052 118.946 236.646 119.25C236.241 119.554 235.94 119.967 235.742 120.49C235.55 121.013 235.454 121.599 235.454 122.25C235.454 122.906 235.553 123.498 235.75 124.026C235.953 124.549 236.254 124.962 236.654 125.266C237.054 125.57 237.556 125.722 238.158 125.722ZM247.811 126.818C246.968 126.818 246.238 126.631 245.619 126.258C245.006 125.885 244.528 125.359 244.187 124.682C243.846 124.005 243.675 123.21 243.675 122.298C243.675 121.354 243.843 120.538 244.179 119.85C244.515 119.162 244.987 118.631 245.595 118.258C246.208 117.885 246.931 117.698 247.763 117.698C248.616 117.698 249.344 117.895 249.947 118.29C250.55 118.679 251.006 119.239 251.315 119.97C251.624 120.701 251.766 121.573 251.739 122.586H250.539V122.17C250.518 121.05 250.275 120.205 249.811 119.634C249.352 119.063 248.68 118.778 247.795 118.778C246.867 118.778 246.155 119.079 245.659 119.682C245.168 120.285 244.923 121.143 244.923 122.258C244.923 123.346 245.168 124.191 245.659 124.794C246.155 125.391 246.856 125.69 247.763 125.69C248.382 125.69 248.92 125.549 249.379 125.266C249.843 124.978 250.208 124.565 250.475 124.026L251.571 124.45C251.23 125.202 250.726 125.786 250.059 126.202C249.398 126.613 248.648 126.818 247.811 126.818ZM244.507 122.586V121.602H251.107V122.586H244.507ZM260.022 126.794C259.504 126.794 259.051 126.714 258.662 126.554C258.278 126.394 257.95 126.178 257.678 125.906C257.411 125.634 257.195 125.325 257.03 124.978C256.864 124.626 256.744 124.255 256.67 123.866C256.595 123.471 256.558 123.079 256.558 122.69V117.938H257.742V122.346C257.742 122.821 257.787 123.261 257.878 123.666C257.968 124.071 258.112 124.426 258.31 124.73C258.512 125.029 258.771 125.261 259.086 125.426C259.406 125.591 259.792 125.674 260.246 125.674C260.662 125.674 261.027 125.602 261.342 125.458C261.662 125.314 261.928 125.109 262.142 124.842C262.36 124.57 262.526 124.242 262.638 123.858C262.75 123.469 262.806 123.031 262.806 122.546L263.638 122.73C263.638 123.615 263.483 124.359 263.174 124.962C262.864 125.565 262.438 126.021 261.894 126.33C261.35 126.639 260.726 126.794 260.022 126.794ZM262.926 126.578V124.45H262.806V117.938H263.982V126.578H262.926ZM270.098 126.818C269.303 126.818 268.631 126.618 268.082 126.218C267.532 125.813 267.116 125.266 266.834 124.578C266.551 123.885 266.41 123.109 266.41 122.25C266.41 121.375 266.551 120.597 266.834 119.914C267.122 119.226 267.543 118.685 268.098 118.29C268.652 117.895 269.335 117.698 270.146 117.698C270.935 117.698 271.612 117.898 272.178 118.298C272.743 118.698 273.175 119.242 273.474 119.93C273.778 120.618 273.93 121.391 273.93 122.25C273.93 123.114 273.778 123.89 273.474 124.578C273.17 125.266 272.732 125.813 272.162 126.218C271.591 126.618 270.903 126.818 270.098 126.818ZM266.21 130.418V117.938H267.266V124.442H267.394V130.418H266.21ZM269.978 125.722C270.58 125.722 271.082 125.57 271.482 125.266C271.882 124.962 272.18 124.549 272.378 124.026C272.58 123.498 272.682 122.906 272.682 122.25C272.682 121.599 272.583 121.013 272.386 120.49C272.188 119.967 271.887 119.554 271.482 119.25C271.082 118.946 270.572 118.794 269.954 118.794C269.351 118.794 268.85 118.941 268.45 119.234C268.055 119.527 267.759 119.935 267.562 120.458C267.364 120.975 267.266 121.573 267.266 122.25C267.266 122.917 267.364 123.514 267.562 124.042C267.759 124.565 268.058 124.975 268.458 125.274C268.858 125.573 269.364 125.722 269.978 125.722ZM279.038 126.818C278.233 126.818 277.545 126.618 276.974 126.218C276.404 125.813 275.966 125.266 275.662 124.578C275.358 123.89 275.206 123.114 275.206 122.25C275.206 121.391 275.356 120.618 275.654 119.93C275.958 119.242 276.393 118.698 276.958 118.298C277.524 117.898 278.201 117.698 278.99 117.698C279.801 117.698 280.484 117.895 281.038 118.29C281.593 118.685 282.012 119.226 282.294 119.914C282.582 120.597 282.726 121.375 282.726 122.25C282.726 123.109 282.585 123.885 282.302 124.578C282.02 125.266 281.604 125.813 281.054 126.218C280.505 126.618 279.833 126.818 279.038 126.818ZM279.158 125.722C279.772 125.722 280.278 125.573 280.678 125.274C281.078 124.975 281.377 124.565 281.574 124.042C281.772 123.514 281.87 122.917 281.87 122.25C281.87 121.573 281.772 120.975 281.574 120.458C281.377 119.935 281.078 119.527 280.678 119.234C280.284 118.941 279.785 118.794 279.182 118.794C278.564 118.794 278.052 118.946 277.646 119.25C277.241 119.554 276.94 119.967 276.742 120.49C276.55 121.013 276.454 121.599 276.454 122.25C276.454 122.906 276.553 123.498 276.75 124.026C276.953 124.549 277.254 124.962 277.654 125.266C278.054 125.57 278.556 125.722 279.158 125.722ZM281.87 126.578V120.074H281.742V115.058H282.926V126.578H281.87ZM287.643 126.818C286.992 126.818 286.445 126.701 286.003 126.466C285.565 126.231 285.237 125.919 285.019 125.53C284.8 125.141 284.691 124.717 284.691 124.258C284.691 123.789 284.784 123.389 284.971 123.058C285.163 122.722 285.421 122.447 285.747 122.234C286.077 122.021 286.459 121.858 286.891 121.746C287.328 121.639 287.811 121.546 288.339 121.466C288.872 121.381 289.392 121.309 289.899 121.25C290.411 121.186 290.859 121.125 291.243 121.066L290.827 121.322C290.843 120.469 290.677 119.837 290.331 119.426C289.984 119.015 289.381 118.81 288.523 118.81C287.931 118.81 287.429 118.943 287.019 119.21C286.613 119.477 286.328 119.898 286.163 120.474L285.019 120.138C285.216 119.365 285.613 118.765 286.211 118.338C286.808 117.911 287.584 117.698 288.539 117.698C289.328 117.698 289.997 117.847 290.547 118.146C291.101 118.439 291.493 118.866 291.723 119.426C291.829 119.677 291.899 119.957 291.931 120.266C291.963 120.575 291.979 120.89 291.979 121.21V126.578H290.931V124.41L291.235 124.538C290.941 125.279 290.485 125.845 289.867 126.234C289.248 126.623 288.507 126.818 287.643 126.818ZM287.779 125.802C288.328 125.802 288.808 125.703 289.219 125.506C289.629 125.309 289.96 125.039 290.211 124.698C290.461 124.351 290.624 123.962 290.699 123.53C290.763 123.253 290.797 122.949 290.803 122.618C290.808 122.282 290.811 122.031 290.811 121.866L291.259 122.098C290.859 122.151 290.424 122.205 289.955 122.258C289.491 122.311 289.032 122.373 288.579 122.442C288.131 122.511 287.725 122.594 287.363 122.69C287.117 122.759 286.88 122.858 286.651 122.986C286.421 123.109 286.232 123.274 286.083 123.482C285.939 123.69 285.867 123.949 285.867 124.258C285.867 124.509 285.928 124.751 286.051 124.986C286.179 125.221 286.381 125.415 286.659 125.57C286.941 125.725 287.315 125.802 287.779 125.802ZM298.765 126.578C298.28 126.679 297.8 126.719 297.325 126.698C296.856 126.677 296.435 126.575 296.061 126.394C295.693 126.213 295.413 125.93 295.221 125.546C295.067 125.226 294.981 124.903 294.965 124.578C294.955 124.247 294.949 123.871 294.949 123.45V115.538H296.117V123.402C296.117 123.765 296.12 124.069 296.125 124.314C296.136 124.554 296.192 124.767 296.293 124.954C296.485 125.311 296.789 125.525 297.205 125.594C297.627 125.663 298.147 125.647 298.765 125.546V126.578ZM293.101 118.946V117.938H298.765V118.946H293.101ZM303.811 126.818C302.968 126.818 302.238 126.631 301.619 126.258C301.006 125.885 300.528 125.359 300.187 124.682C299.846 124.005 299.675 123.21 299.675 122.298C299.675 121.354 299.843 120.538 300.179 119.85C300.515 119.162 300.987 118.631 301.595 118.258C302.208 117.885 302.931 117.698 303.763 117.698C304.616 117.698 305.344 117.895 305.947 118.29C306.55 118.679 307.006 119.239 307.315 119.97C307.624 120.701 307.766 121.573 307.739 122.586H306.539V122.17C306.518 121.05 306.275 120.205 305.811 119.634C305.352 119.063 304.68 118.778 303.795 118.778C302.867 118.778 302.155 119.079 301.659 119.682C301.168 120.285 300.923 121.143 300.923 122.258C300.923 123.346 301.168 124.191 301.659 124.794C302.155 125.391 302.856 125.69 303.763 125.69C304.382 125.69 304.92 125.549 305.379 125.266C305.843 124.978 306.208 124.565 306.475 124.026L307.571 124.45C307.23 125.202 306.726 125.786 306.059 126.202C305.398 126.613 304.648 126.818 303.811 126.818ZM300.507 122.586V121.602H307.107V122.586H300.507ZM312.739 126.81C311.725 126.81 310.891 126.591 310.235 126.154C309.584 125.717 309.184 125.109 309.035 124.33L310.235 124.13C310.363 124.621 310.653 125.013 311.107 125.306C311.565 125.594 312.131 125.738 312.803 125.738C313.459 125.738 313.976 125.602 314.355 125.33C314.733 125.053 314.923 124.677 314.923 124.202C314.923 123.935 314.861 123.719 314.739 123.554C314.621 123.383 314.379 123.226 314.011 123.082C313.643 122.938 313.093 122.767 312.363 122.57C311.579 122.357 310.965 122.143 310.523 121.93C310.08 121.717 309.765 121.471 309.579 121.194C309.392 120.911 309.299 120.567 309.299 120.162C309.299 119.671 309.437 119.242 309.715 118.874C309.992 118.501 310.376 118.213 310.867 118.01C311.357 117.802 311.928 117.698 312.579 117.698C313.229 117.698 313.811 117.805 314.323 118.018C314.84 118.226 315.256 118.519 315.571 118.898C315.885 119.277 316.072 119.717 316.131 120.218L314.931 120.434C314.851 119.927 314.597 119.527 314.171 119.234C313.749 118.935 313.213 118.781 312.563 118.77C311.949 118.754 311.451 118.871 311.067 119.122C310.683 119.367 310.491 119.695 310.491 120.106C310.491 120.335 310.56 120.533 310.699 120.698C310.837 120.858 311.088 121.01 311.451 121.154C311.819 121.298 312.341 121.455 313.019 121.626C313.813 121.829 314.437 122.042 314.891 122.266C315.344 122.49 315.667 122.754 315.859 123.058C316.051 123.362 316.147 123.738 316.147 124.186C316.147 125.002 315.843 125.645 315.235 126.114C314.632 126.578 313.8 126.81 312.739 126.81ZM321.98 126.578V117.298C321.98 117.074 321.991 116.853 322.012 116.634C322.039 116.415 322.089 116.207 322.164 116.01C322.239 115.807 322.356 115.621 322.516 115.45C322.692 115.258 322.884 115.119 323.092 115.034C323.3 114.943 323.516 114.885 323.74 114.858C323.969 114.831 324.193 114.818 324.412 114.818H325.516V115.81H324.492C324.044 115.81 323.708 115.919 323.484 116.138C323.265 116.357 323.156 116.701 323.156 117.17V126.578H321.98ZM320.484 118.946V117.938H325.516V118.946H320.484ZM326.796 126.578V117.938H327.852V120.018L327.644 119.746C327.74 119.49 327.865 119.255 328.02 119.042C328.174 118.823 328.342 118.645 328.524 118.506C328.748 118.309 329.009 118.159 329.308 118.058C329.606 117.951 329.908 117.89 330.212 117.874C330.516 117.853 330.793 117.874 331.044 117.938V119.042C330.729 118.962 330.385 118.943 330.012 118.986C329.638 119.029 329.294 119.178 328.98 119.434C328.692 119.658 328.476 119.927 328.332 120.242C328.188 120.551 328.092 120.882 328.044 121.234C327.996 121.581 327.972 121.925 327.972 122.266V126.578H326.796ZM336.013 126.818C335.154 126.818 334.421 126.623 333.813 126.234C333.205 125.845 332.738 125.306 332.413 124.618C332.088 123.93 331.925 123.141 331.925 122.25C331.925 121.343 332.09 120.549 332.421 119.866C332.752 119.183 333.221 118.653 333.829 118.274C334.442 117.89 335.17 117.698 336.013 117.698C336.877 117.698 337.613 117.893 338.221 118.282C338.834 118.666 339.301 119.202 339.621 119.89C339.946 120.573 340.109 121.359 340.109 122.25C340.109 123.157 339.946 123.954 339.621 124.642C339.296 125.325 338.826 125.858 338.213 126.242C337.6 126.626 336.866 126.818 336.013 126.818ZM336.013 125.69C336.973 125.69 337.688 125.373 338.157 124.738C338.626 124.098 338.861 123.269 338.861 122.25C338.861 121.205 338.624 120.373 338.149 119.754C337.68 119.135 336.968 118.826 336.013 118.826C335.368 118.826 334.834 118.973 334.413 119.266C333.997 119.554 333.685 119.957 333.477 120.474C333.274 120.986 333.173 121.578 333.173 122.25C333.173 123.29 333.413 124.125 333.893 124.754C334.373 125.378 335.08 125.69 336.013 125.69ZM352.178 126.578L352.186 120.906C352.186 120.239 351.999 119.717 351.626 119.338C351.258 118.954 350.789 118.762 350.218 118.762C349.893 118.762 349.575 118.837 349.266 118.986C348.957 119.135 348.701 119.375 348.498 119.706C348.301 120.037 348.202 120.469 348.202 121.002L347.506 120.802C347.49 120.183 347.61 119.642 347.866 119.178C348.127 118.714 348.485 118.354 348.938 118.098C349.397 117.837 349.914 117.706 350.49 117.706C351.359 117.706 352.055 117.975 352.578 118.514C353.101 119.047 353.362 119.77 353.362 120.682L353.354 126.578H352.178ZM341.866 126.578V117.938H342.922V120.066H343.05V126.578H341.866ZM347.034 126.578L347.042 120.986C347.042 120.298 346.858 119.757 346.49 119.362C346.127 118.962 345.647 118.762 345.05 118.762C344.453 118.762 343.97 118.967 343.602 119.378C343.234 119.783 343.05 120.325 343.05 121.002L342.346 120.618C342.346 120.063 342.477 119.567 342.738 119.13C342.999 118.687 343.357 118.341 343.81 118.09C344.263 117.834 344.778 117.706 345.354 117.706C345.903 117.706 346.391 117.823 346.818 118.058C347.25 118.293 347.589 118.634 347.834 119.082C348.079 119.53 348.202 120.074 348.202 120.714L348.194 126.578H347.034ZM360.648 126.578V116.37L358.48 117.674V116.354L360.648 115.058H361.84V126.578H360.648ZM371.957 126.818C371.162 126.818 370.49 126.618 369.941 126.218C369.392 125.813 368.976 125.266 368.693 124.578C368.41 123.885 368.269 123.109 368.269 122.25C368.269 121.375 368.41 120.597 368.693 119.914C368.981 119.226 369.402 118.685 369.957 118.29C370.512 117.895 371.194 117.698 372.005 117.698C372.794 117.698 373.472 117.898 374.037 118.298C374.602 118.698 375.034 119.242 375.333 119.93C375.637 120.618 375.789 121.391 375.789 122.25C375.789 123.114 375.637 123.89 375.333 124.578C375.029 125.266 374.592 125.813 374.021 126.218C373.45 126.618 372.762 126.818 371.957 126.818ZM368.069 130.418V117.938H369.125V124.442H369.253V130.418H368.069ZM371.837 125.722C372.44 125.722 372.941 125.57 373.341 125.266C373.741 124.962 374.04 124.549 374.237 124.026C374.44 123.498 374.541 122.906 374.541 122.25C374.541 121.599 374.442 121.013 374.245 120.49C374.048 119.967 373.746 119.554 373.341 119.25C372.941 118.946 372.432 118.794 371.813 118.794C371.21 118.794 370.709 118.941 370.309 119.234C369.914 119.527 369.618 119.935 369.421 120.458C369.224 120.975 369.125 121.573 369.125 122.25C369.125 122.917 369.224 123.514 369.421 124.042C369.618 124.565 369.917 124.975 370.317 125.274C370.717 125.573 371.224 125.722 371.837 125.722ZM377.706 126.578V114.818H378.882V126.578H377.706ZM383.752 126.818C383.101 126.818 382.555 126.701 382.112 126.466C381.675 126.231 381.347 125.919 381.128 125.53C380.909 125.141 380.8 124.717 380.8 124.258C380.8 123.789 380.893 123.389 381.08 123.058C381.272 122.722 381.531 122.447 381.856 122.234C382.187 122.021 382.568 121.858 383 121.746C383.437 121.639 383.92 121.546 384.448 121.466C384.981 121.381 385.501 121.309 386.008 121.25C386.52 121.186 386.968 121.125 387.352 121.066L386.936 121.322C386.952 120.469 386.787 119.837 386.44 119.426C386.093 119.015 385.491 118.81 384.632 118.81C384.04 118.81 383.539 118.943 383.128 119.21C382.723 119.477 382.437 119.898 382.272 120.474L381.128 120.138C381.325 119.365 381.723 118.765 382.32 118.338C382.917 117.911 383.693 117.698 384.648 117.698C385.437 117.698 386.107 117.847 386.656 118.146C387.211 118.439 387.603 118.866 387.832 119.426C387.939 119.677 388.008 119.957 388.04 120.266C388.072 120.575 388.088 120.89 388.088 121.21V126.578H387.04V124.41L387.344 124.538C387.051 125.279 386.595 125.845 385.976 126.234C385.357 126.623 384.616 126.818 383.752 126.818ZM383.888 125.802C384.437 125.802 384.917 125.703 385.328 125.506C385.739 125.309 386.069 125.039 386.32 124.698C386.571 124.351 386.733 123.962 386.808 123.53C386.872 123.253 386.907 122.949 386.912 122.618C386.917 122.282 386.92 122.031 386.92 121.866L387.368 122.098C386.968 122.151 386.533 122.205 386.064 122.258C385.6 122.311 385.141 122.373 384.688 122.442C384.24 122.511 383.835 122.594 383.472 122.69C383.227 122.759 382.989 122.858 382.76 122.986C382.531 123.109 382.341 123.274 382.192 123.482C382.048 123.69 381.976 123.949 381.976 124.258C381.976 124.509 382.037 124.751 382.16 124.986C382.288 125.221 382.491 125.415 382.768 125.57C383.051 125.725 383.424 125.802 383.888 125.802ZM393.755 126.818C392.885 126.818 392.149 126.623 391.547 126.234C390.944 125.845 390.485 125.309 390.171 124.626C389.861 123.938 389.701 123.149 389.691 122.258C389.701 121.351 389.867 120.557 390.187 119.874C390.507 119.186 390.968 118.653 391.571 118.274C392.173 117.89 392.904 117.698 393.763 117.698C394.637 117.698 395.397 117.911 396.043 118.338C396.693 118.765 397.139 119.349 397.379 120.09L396.227 120.458C396.024 119.941 395.701 119.541 395.259 119.258C394.821 118.97 394.32 118.826 393.755 118.826C393.12 118.826 392.595 118.973 392.179 119.266C391.763 119.554 391.453 119.957 391.251 120.474C391.048 120.991 390.944 121.586 390.939 122.258C390.949 123.293 391.189 124.125 391.659 124.754C392.128 125.378 392.827 125.69 393.755 125.69C394.341 125.69 394.84 125.557 395.251 125.29C395.667 125.018 395.981 124.623 396.195 124.106L397.379 124.458C397.059 125.226 396.589 125.813 395.971 126.218C395.352 126.618 394.613 126.818 393.755 126.818ZM402.452 126.818C401.609 126.818 400.878 126.631 400.26 126.258C399.646 125.885 399.169 125.359 398.828 124.682C398.486 124.005 398.316 123.21 398.316 122.298C398.316 121.354 398.484 120.538 398.82 119.85C399.156 119.162 399.628 118.631 400.236 118.258C400.849 117.885 401.572 117.698 402.404 117.698C403.257 117.698 403.985 117.895 404.588 118.29C405.19 118.679 405.646 119.239 405.956 119.97C406.265 120.701 406.406 121.573 406.38 122.586H405.18V122.17C405.158 121.05 404.916 120.205 404.452 119.634C403.993 119.063 403.321 118.778 402.436 118.778C401.508 118.778 400.796 119.079 400.3 119.682C399.809 120.285 399.564 121.143 399.564 122.258C399.564 123.346 399.809 124.191 400.3 124.794C400.796 125.391 401.497 125.69 402.404 125.69C403.022 125.69 403.561 125.549 404.02 125.266C404.484 124.978 404.849 124.565 405.116 124.026L406.212 124.45C405.87 125.202 405.366 125.786 404.7 126.202C404.038 126.613 403.289 126.818 402.452 126.818ZM399.148 122.586V121.602H405.748V122.586H399.148Z" fill="#545353"/>
<g clip-path="url(#clip0_1_27250)">
<path opacity="0.3" d="M144.417 108.962V88.6912C138.292 89.7995 132.605 92.6287 127.967 96.9453L124.001 100.649L120.034 96.9453C115.396 92.6287 109.709 89.7995 103.584 88.6912V108.962C110.963 109.954 117.992 112.754 124.001 117.216C130.038 112.783 137.038 109.954 144.417 108.962Z" fill="#00ACA5"/>
<path opacity="0.3" d="M123.999 79.4164C127.221 79.4164 129.833 76.8048 129.833 73.5831C129.833 70.3614 127.221 67.7498 123.999 67.7498C120.778 67.7498 118.166 70.3614 118.166 73.5831C118.166 76.8048 120.778 79.4164 123.999 79.4164Z" fill="#007EF2"/>
<path d="M135.667 73.5824C135.667 67.1366 130.446 61.9158 124 61.9158C117.554 61.9158 112.333 67.1366 112.333 73.5824C112.333 80.0283 117.554 85.2491 124 85.2491C130.446 85.2491 135.667 80.0283 135.667 73.5824ZM118.167 73.5824C118.167 70.3741 120.792 67.7491 124 67.7491C127.208 67.7491 129.833 70.3741 129.833 73.5824C129.833 76.7908 127.208 79.4158 124 79.4158C120.792 79.4158 118.167 76.7908 118.167 73.5824ZM97.75 114.416C107.9 114.416 117.117 118.353 124 124.77C130.883 118.382 140.1 114.416 150.25 114.416V82.3324C140.1 82.3324 130.883 86.2699 124 92.6866C117.117 86.2699 107.9 82.3324 97.75 82.3324V114.416ZM103.583 88.6908C109.708 89.7991 115.396 92.6283 120.033 96.9449L124 100.649L127.967 96.9449C132.604 92.6283 138.292 89.7991 144.417 88.6908V108.962C137.038 109.953 130.038 112.753 124 117.187C117.992 112.753 110.963 109.924 103.583 108.932V88.6908Z" fill="#007EF2"/>
</g>
<defs>
<filter id="filter0_d_1_27250" x="0" y="0" width="458" height="196" filterUnits="userSpaceOnUse" color-interpolation-filters="sRGB">
<feFlood flood-opacity="0" result="BackgroundImageFix"/>
<feColorMatrix in="SourceAlpha" type="matrix" values="0 0 0 0 0 0 0 0 0 0 0 0 0 0 0 0 0 0 127 0" result="hardAlpha"/>
<feOffset dx="4" dy="4"/>
<feGaussianBlur stdDeviation="10"/>
<feComposite in2="hardAlpha" operator="out"/>
<feColorMatrix type="matrix" values="0 0 0 0 0 0 0 0 0 0 0 0 0 0 0 0 0 0 0.06 0"/>
<feBlend mode="normal" in2="BackgroundImageFix" result="effect1_dropShadow_1_27250"/>
<feBlend mode="normal" in="SourceGraphic" in2="effect1_dropShadow_1_27250" result="shape"/>
</filter>
<clipPath id="clip0_1_27250">
<rect width="70" height="70" fill="white" transform="translate(89 58.9998)"/>
</clipPath>
</defs>
</svg>
