<svg width="76" height="76" viewBox="0 0 76 76" fill="none" xmlns="http://www.w3.org/2000/svg">
<circle opacity="0.2" r="38" transform="matrix(-1 0 0 1 38 38)" fill="#FFA92C"/>
<path d="M35.889 40.9965H32.484C32.484 32.535 39.3451 25.6739 47.8065 25.6739V29.0789C41.2178 29.0789 35.889 34.4078 35.889 40.9965ZM47.8065 35.889V32.484C43.1076 32.484 39.294 36.2976 39.294 40.9965H42.699C42.699 38.1703 44.9804 35.889 47.8065 35.889ZM29.0789 23.9714C29.0789 22.0816 27.5637 20.5664 25.6739 20.5664C23.7841 20.5664 22.2689 22.0816 22.2689 23.9714C22.2689 25.8612 23.7841 27.3764 25.6739 27.3764C27.5637 27.3764 29.0789 25.8612 29.0789 23.9714ZM36.6551 24.8227H33.2501C32.8415 27.2402 30.7644 29.0789 28.2277 29.0789H23.1202C21.7071 29.0789 20.5664 30.2196 20.5664 31.6327V35.889H30.7815V32.0413C33.9481 31.0368 36.3146 28.2447 36.6551 24.8227ZM49.5091 46.104C51.3988 46.104 52.9141 44.5888 52.9141 42.699C52.9141 40.8092 51.3988 39.294 49.5091 39.294C47.6193 39.294 46.104 40.8092 46.104 42.699C46.104 44.5888 47.6193 46.104 49.5091 46.104ZM52.0628 47.8065H46.9553C44.4186 47.8065 42.3415 45.9678 41.9329 43.5503H38.5279C38.8684 46.9723 41.2349 49.7644 44.4015 50.7689V54.6166H54.6166V50.3603C54.6166 48.9472 53.4759 47.8065 52.0628 47.8065Z" fill="#FFA92C"/>
</svg>
