<svg width="186" height="106" viewBox="0 0 186 106" fill="none" xmlns="http://www.w3.org/2000/svg">
<path d="M11.264 5.424C11.2853 5.46667 11.296 5.50933 11.296 5.552C11.296 5.57333 11.3067 5.60533 11.328 5.648C11.3707 5.73333 11.36 5.81867 11.296 5.904C11.232 5.98933 11.168 6.01067 11.104 5.968C10.8907 5.92533 10.6773 5.86133 10.464 5.776C10.2507 5.66933 10.0373 5.57333 9.824 5.488C9.61067 5.40267 9.39733 5.33867 9.184 5.296C8.97067 5.25333 8.768 5.264 8.576 5.328C8.14933 5.456 7.70133 5.65867 7.232 5.936C6.784 6.21333 6.336 6.56533 5.888 6.992C5.46133 7.39733 5.056 7.87733 4.672 8.432C4.30933 8.98667 4 9.60533 3.744 10.288C3.424 11.2267 3.328 12.112 3.456 12.944C3.584 13.7547 3.872 14.4373 4.32 14.992C4.78933 15.5467 5.38667 15.952 6.112 16.208C6.85867 16.4427 7.70133 16.464 8.64 16.272C9.32267 16.1227 9.97333 15.8773 10.592 15.536C11.2107 15.1947 11.7867 14.8427 12.32 14.48C12.2133 14.6507 12.1173 14.8 12.032 14.928C11.9467 15.056 11.8187 15.2053 11.648 15.376C11.5413 15.4827 11.4347 15.632 11.328 15.824C11.2213 15.9947 11.1147 16.1333 11.008 16.24C10.2613 17.0507 9.35467 17.6373 8.288 18C8.05333 18.0853 7.85067 18.128 7.68 18.128C7.50933 18.1493 7.30667 18.1813 7.072 18.224C6.73067 18.224 6.38933 18.2347 6.048 18.256C5.70667 18.2773 5.376 18.2347 5.056 18.128C4.11733 17.808 3.31733 17.1893 2.656 16.272C2.35733 15.8667 2.10133 15.376 1.888 14.8C1.696 14.2027 1.568 13.584 1.504 12.944C1.46133 12.2827 1.48267 11.632 1.568 10.992C1.65333 10.352 1.83467 9.75467 2.112 9.2C2.688 7.96267 3.37067 6.85333 4.16 5.872C4.97067 4.89067 5.93067 4.208 7.04 3.824C7.78667 3.54667 8.68267 3.52533 9.728 3.76C9.984 3.86667 10.272 4.08 10.592 4.4C10.6987 4.50667 10.8053 4.61333 10.912 4.72C11.0187 4.82667 11.1253 4.976 11.232 5.168C11.2533 5.21067 11.2533 5.25333 11.232 5.296C11.232 5.33867 11.2427 5.38133 11.264 5.424ZM18.4675 8.752L17.9235 9.296C18.0942 9.27467 18.3502 9.232 18.6915 9.168C19.0542 9.08267 19.4062 9.04 19.7475 9.04C20.0035 9.08267 20.2168 9.168 20.3875 9.296C20.5582 9.424 20.6648 9.66933 20.7075 10.032C20.7928 10.544 20.9208 11.0667 21.0915 11.6C21.2835 12.112 21.4222 12.624 21.5075 13.136C21.6142 13.648 21.6142 14.1387 21.5075 14.608C21.4008 15.056 21.1128 15.4613 20.6435 15.824C20.1528 16.5707 19.6088 17.2 19.0115 17.712C18.4355 18.2027 17.8275 18.4907 17.1875 18.576C16.7608 18.64 16.2915 18.576 15.7795 18.384C15.2675 18.2133 14.8942 17.904 14.6595 17.456C14.5955 17.4987 14.5422 17.5093 14.4995 17.488C14.4568 17.4453 14.4142 17.4027 14.3715 17.36C14.3288 17.3173 14.2862 17.3067 14.2435 17.328C14.2222 17.3493 14.2008 17.3387 14.1795 17.296C14.1582 17.232 14.1475 17.1467 14.1475 17.04V16.976V16.912C14.1688 16.1653 14.2328 15.4187 14.3395 14.672C14.4675 13.904 14.6488 13.168 14.8835 12.464C15.1395 11.7387 15.4595 11.0667 15.8435 10.448C16.2488 9.808 16.7608 9.24267 17.3795 8.752C17.5928 8.624 17.8275 8.58133 18.0835 8.624C18.1262 8.624 18.1795 8.624 18.2435 8.624C18.3075 8.624 18.3822 8.66667 18.4675 8.752ZM17.3795 10.928C17.2515 10.9067 17.1768 10.864 17.1555 10.8C17.1342 10.736 17.1342 10.6613 17.1555 10.576C17.1982 10.4693 17.2408 10.352 17.2835 10.224C17.3475 10.096 17.3795 9.968 17.3795 9.84C16.9315 10.2453 16.5795 10.736 16.3235 11.312C16.0888 11.888 15.9182 12.4853 15.8115 13.104C15.7048 13.7013 15.6515 14.288 15.6515 14.864C15.6728 15.44 15.7048 15.9413 15.7475 16.368C15.7902 16.7307 15.8648 17.0293 15.9715 17.264C16.0782 17.4773 16.2382 17.6053 16.4515 17.648C16.6862 17.712 16.9955 17.648 17.3795 17.456C17.9342 17.1787 18.3822 16.7947 18.7235 16.304C19.0648 15.8133 19.3422 15.2907 19.5555 14.736C19.6408 14.4373 19.7048 14.0853 19.7475 13.68C19.8115 13.2533 19.8008 12.8587 19.7155 12.496C19.6088 12.0053 19.3315 11.6533 18.8835 11.44C18.4568 11.2053 17.9555 11.0347 17.3795 10.928ZM25.8608 13.648C26.2234 13.2853 26.5861 12.9013 26.9488 12.496C27.3328 12.0693 27.7274 11.664 28.1328 11.28C28.5381 10.896 28.9541 10.5547 29.3808 10.256C29.8074 9.936 30.2554 9.68 30.7248 9.488C30.8314 9.44533 30.9274 9.43467 31.0128 9.456C31.1194 9.47733 31.2261 9.46667 31.3328 9.424C31.5034 9.424 31.6528 9.424 31.7808 9.424C31.9088 9.424 32.0261 9.46667 32.1328 9.552C32.4314 9.744 32.6661 10.0213 32.8368 10.384C33.0288 10.7253 33.1888 11.1093 33.3168 11.536C33.4021 11.7707 33.4448 11.9947 33.4448 12.208C33.4661 12.4213 33.5301 12.6667 33.6368 12.944C33.7648 13.3493 33.9034 13.7653 34.0528 14.192C34.2234 14.5973 34.2874 14.992 34.2448 15.376C34.2234 15.4827 34.1914 15.5787 34.1488 15.664C34.1061 15.728 34.0528 15.8133 33.9888 15.92C33.9461 16.0053 33.8714 16.112 33.7648 16.24C33.6581 16.368 33.5514 16.464 33.4448 16.528C33.3381 16.6133 33.2634 16.688 33.2208 16.752C33.1994 16.7947 33.1034 16.848 32.9328 16.912C32.6554 16.5067 32.4421 16.0693 32.2928 15.6C32.1434 15.1307 32.0154 14.64 31.9088 14.128C31.8021 13.616 31.7061 13.0933 31.6208 12.56C31.5354 12.0267 31.4288 11.4827 31.3008 10.928C31.2581 10.7787 31.1194 10.6933 30.8848 10.672C30.6714 10.6507 30.4154 10.7253 30.1168 10.896C29.8394 11.0453 29.5408 11.2907 29.2208 11.632C28.9008 11.9733 28.6128 12.4107 28.3568 12.944C28.1861 13.328 28.0261 13.7333 27.8768 14.16C27.7274 14.5653 27.5568 14.9813 27.3648 15.408C27.1941 15.8133 26.9808 16.2187 26.7248 16.624C26.4901 17.008 26.2021 17.36 25.8608 17.68C25.7541 17.7867 25.6794 17.7973 25.6368 17.712C25.5941 17.6267 25.4874 17.552 25.3168 17.488C25.1888 17.4453 25.1141 17.4027 25.0928 17.36C25.0928 17.3173 25.0608 17.1893 24.9968 16.976C24.8688 16.528 24.7301 16.016 24.5807 15.44C24.4528 14.864 24.3034 14.256 24.1328 13.616C23.9834 12.976 23.8234 12.336 23.6528 11.696C23.4821 11.0347 23.3114 10.416 23.1408 9.84L22.9488 9.264C22.9914 9.17867 23.0661 9.104 23.1728 9.04C23.3008 8.976 23.4288 8.92267 23.5568 8.88C23.6848 8.83733 23.8234 8.848 23.9728 8.912C24.1221 8.976 24.2394 9.008 24.3248 9.008C24.5594 9.008 24.7621 9.15733 24.9328 9.456C25.1248 9.75467 25.2848 10.1387 25.4128 10.608C25.5408 11.056 25.6368 11.5573 25.7008 12.112C25.7861 12.6453 25.8394 13.1573 25.8608 13.648ZM44.6245 23.536C44.6245 23.8987 44.5818 24.1547 44.4965 24.304C44.4325 24.4533 44.3472 24.6133 44.2405 24.784C44.1338 24.9547 44.0805 25.1147 44.0805 25.264C44.0805 25.4133 44.0058 25.5307 43.8565 25.616C43.6432 24.592 43.4725 23.6213 43.3445 22.704C43.2378 21.7867 43.1312 20.88 43.0245 19.984C42.9392 19.1093 42.8538 18.2347 42.7685 17.36C42.6832 16.4853 42.5765 15.568 42.4485 14.608C41.9152 15.12 41.2858 15.5893 40.5605 16.016C39.8565 16.4427 39.1632 16.6773 38.4805 16.72C37.9258 16.7627 37.3605 16.6453 36.7845 16.368C36.5925 16.3467 36.4218 16.2613 36.2725 16.112C36.1658 16.0053 36.0912 15.888 36.0485 15.76C36.0272 15.632 36.0058 15.4827 35.9845 15.312C35.9632 14.864 35.9738 14.3733 36.0165 13.84C36.0805 13.2853 36.1658 12.7307 36.2725 12.176C36.4005 11.6213 36.5498 11.0987 36.7205 10.608C36.9125 10.096 37.1258 9.648 37.3605 9.264C37.6592 8.816 38.0218 8.464 38.4485 8.208C38.8965 7.952 39.4405 7.888 40.0805 8.016C40.2085 8.05867 40.3152 8.112 40.4005 8.176C40.4858 8.21867 40.5818 8.28267 40.6885 8.368C40.7738 8.41067 40.8592 8.464 40.9445 8.528C41.0298 8.57067 41.0938 8.64533 41.1365 8.752C41.1792 8.83733 41.2218 8.95467 41.2645 9.104C41.3285 9.232 41.3498 9.36 41.3285 9.488C41.3285 9.53067 41.3285 9.59467 41.3285 9.68C41.3285 9.744 41.3072 9.79733 41.2645 9.84C41.2432 9.86133 41.2005 9.86133 41.1365 9.84C40.5818 9.56267 40.0592 9.49867 39.5685 9.648C39.0778 9.79733 38.6938 10.224 38.4165 10.928C38.2458 11.4827 38.0858 12.144 37.9365 12.912C37.7872 13.6587 37.7018 14.448 37.6805 15.28C37.6805 15.5147 37.8725 15.632 38.2565 15.632C38.4698 15.632 38.7365 15.568 39.0565 15.44C39.3765 15.2907 39.7178 15.088 40.0805 14.832C40.4432 14.576 40.8058 14.256 41.1685 13.872C41.5525 13.488 41.9045 13.0507 42.2245 12.56C42.2245 12.0053 42.1925 11.4293 42.1285 10.832C42.0645 10.2133 42.1178 9.62667 42.2885 9.072C42.3312 8.90133 42.4165 8.74133 42.5445 8.592C42.6938 8.44267 42.8325 8.29333 42.9605 8.144C43.0245 8.05867 43.0672 7.97333 43.0885 7.888C43.1312 7.80267 43.2058 7.728 43.3125 7.664C43.6752 7.74933 43.9418 7.87733 44.1125 8.048C44.2192 8.15467 44.2725 8.31467 44.2725 8.528C44.2938 8.72 44.2832 8.96533 44.2405 9.264C44.3045 10.0747 44.3792 11.024 44.4645 12.112C44.5498 13.2 44.6245 14.3413 44.6885 15.536C44.7525 16.7093 44.7952 17.8933 44.8165 19.088C44.8378 20.2827 44.8272 21.3707 44.7845 22.352L44.6245 23.536ZM55.5635 9.392C55.5635 10.8853 55.5742 12.272 55.5955 13.552C55.6382 14.832 55.7662 16.0907 55.9795 17.328C56.0008 17.456 55.9688 17.5947 55.8835 17.744C55.7982 17.8933 55.7128 18.0213 55.6275 18.128C55.4995 18.2773 55.3822 18.416 55.2755 18.544C55.1688 18.6933 55.0622 18.7893 54.9555 18.832C54.7422 18.9387 54.6142 18.96 54.5715 18.896C54.5288 18.832 54.4968 18.7467 54.4755 18.64C54.3902 18.2347 54.2728 17.6907 54.1235 17.008C53.9955 16.304 53.9102 15.6 53.8675 14.896C53.6115 15.3227 53.3235 15.76 53.0035 16.208C52.7048 16.6347 52.3742 17.0293 52.0115 17.392C51.6702 17.7547 51.3182 18.0747 50.9555 18.352C50.5928 18.6507 50.2408 18.864 49.8995 18.992C49.7502 19.056 49.6435 19.0667 49.5795 19.024C49.5368 18.9813 49.4515 18.9387 49.3235 18.896C49.1315 18.8107 48.9395 18.7253 48.7475 18.64C48.5768 18.576 48.4382 18.4693 48.3315 18.32C48.0968 17.9147 47.9048 17.52 47.7555 17.136C47.5208 16.5173 47.3715 15.8667 47.3075 15.184C47.2648 14.5013 47.2648 13.8187 47.3075 13.136C47.3502 12.4533 47.4248 11.792 47.5315 11.152C47.6382 10.512 47.7448 9.92533 47.8515 9.392C47.8728 9.28533 47.9262 9.22133 48.0115 9.2C48.0968 9.15733 48.1502 9.08267 48.1715 8.976C48.2142 8.80533 48.2888 8.688 48.3955 8.624C48.5235 8.56 48.6515 8.50667 48.7795 8.464C48.9502 8.42133 49.0782 8.38933 49.1635 8.368C49.2702 8.32533 49.4088 8.304 49.5795 8.304C49.3875 8.92267 49.2382 9.62667 49.1315 10.416C49.0248 11.2053 48.9715 12.016 48.9715 12.848C48.9928 13.6587 49.0675 14.448 49.1955 15.216C49.3448 15.984 49.5582 16.656 49.8355 17.232C50.2408 16.9547 50.6355 16.6133 51.0195 16.208C51.4248 15.8027 51.7982 15.3867 52.1395 14.96C52.4808 14.512 52.7795 14.0853 53.0355 13.68C53.3128 13.2747 53.5155 12.9333 53.6435 12.656C53.7715 12.2293 53.8462 11.7493 53.8675 11.216C53.9102 10.6613 53.9315 10.1707 53.9315 9.744C53.9102 9.552 53.9208 9.40267 53.9635 9.296C54.0275 9.18933 54.0915 9.072 54.1555 8.944C54.1982 8.88 54.2195 8.816 54.2195 8.752C54.2408 8.688 54.2835 8.63467 54.3475 8.592C54.3902 8.54933 54.4328 8.496 54.4755 8.432C54.5395 8.34667 54.6035 8.304 54.6675 8.304C54.7955 8.304 54.8808 8.368 54.9235 8.496C54.9662 8.624 55.0302 8.72 55.1155 8.784C55.2222 8.89067 55.3182 8.976 55.4035 9.04C55.5102 9.08267 55.5635 9.2 55.5635 9.392ZM65.3825 8.144C65.5318 8.29333 65.6705 8.464 65.7985 8.656C65.9265 8.82667 66.0332 9.008 66.1185 9.2C66.2892 9.60533 66.3745 10.0107 66.3745 10.416C66.3958 10.8 66.2465 11.2693 65.9265 11.824C65.5638 12.4213 65.0945 12.9227 64.5185 13.328C63.9638 13.7333 63.3558 13.9893 62.6945 14.096C62.2252 14.1813 61.7558 14.1813 61.2865 14.096C60.8172 13.9893 60.3692 13.776 59.9425 13.456C59.8145 13.5627 59.7078 13.7227 59.6225 13.936C59.5585 14.128 59.5372 14.3093 59.5585 14.48C59.6012 14.7787 59.7078 15.1093 59.8785 15.472C60.0705 15.8133 60.2732 16.048 60.4865 16.176C60.8492 16.3253 61.3505 16.336 61.9905 16.208C62.6518 16.08 63.3452 15.888 64.0705 15.632C64.8172 15.3547 65.5425 15.056 66.2465 14.736C66.9718 14.3947 67.5905 14.1067 68.1025 13.872C68.1025 14 68.0705 14.0853 68.0065 14.128C67.9638 14.1707 67.8998 14.2453 67.8145 14.352C67.7078 14.4587 67.5905 14.5867 67.4625 14.736C67.3345 14.8853 67.1852 15.0133 67.0145 15.12C66.8012 15.248 66.6412 15.4187 66.5345 15.632C66.4278 15.824 66.2252 16.0053 65.9265 16.176C65.5212 16.3893 65.1052 16.6133 64.6785 16.848C64.2732 17.0613 63.8678 17.264 63.4625 17.456C63.0572 17.6267 62.6412 17.7653 62.2145 17.872C61.8092 17.9573 61.4038 17.9787 60.9985 17.936C60.7212 17.8933 60.4865 17.8187 60.2945 17.712C60.1238 17.6053 59.9105 17.4453 59.6545 17.232C59.5265 17.1253 59.3772 17.0187 59.2065 16.912C59.0358 16.8053 58.9078 16.6987 58.8225 16.592C58.4598 16.0587 58.2145 15.4933 58.0865 14.896C57.9585 14.2773 57.9265 13.6693 57.9905 13.072C58.0758 12.4533 58.2358 11.856 58.4705 11.28C58.7052 10.6827 59.0145 10.1387 59.3985 9.648C59.6118 9.37067 59.8678 9.09333 60.1665 8.816C60.4865 8.51733 60.8278 8.26133 61.1905 8.048C61.5745 7.81333 61.9692 7.632 62.3745 7.504C62.8012 7.376 63.2278 7.32267 63.6545 7.344C63.8252 7.36533 63.9745 7.41867 64.1025 7.504C64.2518 7.568 64.4118 7.64267 64.5825 7.728C64.6892 7.77067 64.8172 7.83467 64.9665 7.92C65.1372 7.984 65.2758 8.05867 65.3825 8.144ZM64.4545 10.032C64.4118 9.84 64.2945 9.66933 64.1025 9.52C63.9105 9.37067 63.6972 9.25333 63.4625 9.168C63.2278 9.06133 62.9932 8.99733 62.7585 8.976C62.5238 8.95467 62.3532 8.96533 62.2465 9.008C62.0758 9.072 61.8732 9.18933 61.6385 9.36C61.4252 9.50933 61.2118 9.69067 60.9985 9.904C60.8065 10.1173 60.6145 10.352 60.4225 10.608C60.2518 10.8427 60.1238 11.0667 60.0385 11.28C59.9958 11.344 59.9532 11.4507 59.9105 11.6C59.8892 11.728 59.8998 11.824 59.9425 11.888C60.1985 12.208 60.5825 12.368 61.0945 12.368C61.5852 12.368 62.1078 12.2507 62.6625 12.016C63.2385 11.7813 63.6438 11.536 63.8785 11.28C63.8998 11.2373 63.9425 11.1627 64.0065 11.056C64.0918 10.9493 64.1665 10.832 64.2305 10.704C64.2945 10.576 64.3478 10.448 64.3905 10.32C64.4545 10.192 64.4758 10.096 64.4545 10.032ZM78.665 7.664C78.665 7.856 78.697 8.10133 78.761 8.4C78.825 8.67733 78.8037 8.90133 78.697 9.072C78.6543 9.11467 78.633 9.2 78.633 9.328C78.633 9.43467 78.601 9.50933 78.537 9.552L78.121 9.296C77.7797 9.12533 77.3957 9.05067 76.969 9.072C76.5637 9.09333 76.1477 9.18933 75.721 9.36C75.4223 9.488 75.1237 9.66933 74.825 9.904C74.5477 10.1173 74.281 10.3627 74.025 10.64C73.769 10.9173 73.5343 11.2053 73.321 11.504C73.1077 11.8027 72.9263 12.0907 72.777 12.368C72.4357 12.9867 72.265 13.7333 72.265 14.608C72.2863 15.4827 72.6063 16.6133 73.225 18C73.225 18.1493 73.1183 18.3307 72.905 18.544C72.8623 18.5867 72.809 18.6507 72.745 18.736C72.681 18.8213 72.6277 18.8853 72.585 18.928C72.4143 19.0773 72.3077 19.2053 72.265 19.312C72.2437 19.4187 72.1797 19.4933 72.073 19.536C71.9023 19.6 71.7423 19.4507 71.593 19.088C71.2303 18.448 70.8783 17.6693 70.537 16.752C70.217 15.8133 69.9077 14.8533 69.609 13.872C69.3317 12.8907 69.0757 11.952 68.841 11.056C68.6277 10.1387 68.457 9.37067 68.329 8.752C68.265 8.58133 68.2543 8.42133 68.297 8.272C68.3397 8.10133 68.4037 7.96267 68.489 7.856C68.553 7.77067 68.6277 7.74933 68.713 7.792C68.8197 7.83467 68.905 7.856 68.969 7.856C69.2463 7.856 69.417 7.90933 69.481 8.016C69.545 8.12267 69.6517 8.26133 69.801 8.432C70.0997 8.77333 70.3343 9.232 70.505 9.808C70.6757 10.384 70.889 11.0667 71.145 11.856C71.4863 11.28 71.9237 10.7253 72.457 10.192C73.0117 9.65867 73.609 9.17867 74.249 8.752C74.889 8.304 75.5503 7.94133 76.233 7.664C76.9157 7.38667 77.577 7.216 78.217 7.152C78.345 7.13067 78.4517 7.17333 78.537 7.28C78.6437 7.36533 78.6863 7.49333 78.665 7.664ZM100.573 10.928C100.616 10.9707 100.648 10.992 100.669 10.992C100.69 10.992 100.701 11.0133 100.701 11.056C100.68 11.0987 100.626 11.152 100.541 11.216C100.477 11.2587 100.349 11.2907 100.157 11.312C100.093 11.3333 100.008 11.376 99.901 11.44C99.7943 11.4827 99.709 11.5147 99.645 11.536C99.069 11.664 98.3863 11.7813 97.597 11.888C96.829 11.9947 96.029 12.0907 95.197 12.176C95.1543 12.9227 95.133 13.616 95.133 14.256C95.1543 14.896 95.1863 15.4507 95.229 15.92C95.2717 16.2827 95.4423 16.464 95.741 16.464C96.0397 16.4427 96.349 16.3787 96.669 16.272C96.7543 16.2507 96.9783 16.1547 97.341 15.984C97.725 15.792 98.1623 15.5787 98.653 15.344C99.165 15.088 99.6983 14.8213 100.253 14.544C100.808 14.2453 101.309 13.9787 101.757 13.744C101.757 14.0427 101.597 14.3307 101.277 14.608C101.106 14.7573 100.914 14.896 100.701 15.024C100.509 15.152 100.306 15.2907 100.093 15.44C99.8583 15.5893 99.6983 15.7493 99.613 15.92C99.5277 16.0907 99.3357 16.272 99.037 16.464C98.4823 16.8267 97.885 17.1573 97.245 17.456C96.605 17.7547 96.029 17.968 95.517 18.096C95.3463 18.1387 95.165 18.16 94.973 18.16C94.8023 18.16 94.6317 18.192 94.461 18.256C94.205 18.3627 94.0023 18.3413 93.853 18.192C93.725 18.0427 93.6397 17.8293 93.597 17.552C93.5117 16.7627 93.4477 15.92 93.405 15.024C93.3837 14.128 93.3837 13.2213 93.405 12.304C92.765 12.3467 92.1677 12.368 91.613 12.368C91.0797 12.3467 90.6423 12.304 90.301 12.24C89.981 12.1973 89.6823 12.1333 89.405 12.048C89.149 11.9413 88.9143 11.7813 88.701 11.568C88.509 11.568 88.445 11.4827 88.509 11.312C88.5943 11.12 88.6583 10.96 88.701 10.832C89.149 10.8107 89.7997 10.7893 90.653 10.768C91.5277 10.7253 92.4663 10.6827 93.469 10.64C93.5543 8.86933 93.7037 7.22667 93.917 5.712C94.1303 4.19733 94.3863 3.06667 94.685 2.32C94.685 2.128 94.7597 2 94.909 1.936C95.0797 1.85067 95.2503 1.75467 95.421 1.648C95.5063 1.60533 95.5917 1.552 95.677 1.488C95.7837 1.40267 95.9223 1.36 96.093 1.36C96.285 1.46667 96.4237 1.56267 96.509 1.648C96.5943 1.712 96.637 1.79733 96.637 1.904C96.637 2.01067 96.605 2.13867 96.541 2.288C96.477 2.43733 96.4023 2.62933 96.317 2.864C96.2743 2.928 96.2103 3.19467 96.125 3.664C96.0397 4.13333 95.9437 4.73067 95.837 5.456C95.7517 6.16 95.6557 6.97067 95.549 7.888C95.4423 8.784 95.357 9.69067 95.293 10.608C95.997 10.608 96.669 10.6187 97.309 10.64C97.949 10.64 98.5143 10.6613 99.005 10.704L100.573 10.928ZM105.058 11.824C105.549 11.0987 106.135 10.5227 106.818 10.096C107.501 9.648 108.29 9.456 109.186 9.52C109.314 9.54133 109.453 9.59467 109.602 9.68C109.751 9.744 109.89 9.808 110.018 9.872C110.338 10.0427 110.637 10.2987 110.914 10.64C111.191 10.96 111.437 11.3333 111.65 11.76C111.885 12.1653 112.077 12.592 112.226 13.04C112.375 13.488 112.482 13.904 112.546 14.288C112.589 14.5227 112.621 14.8213 112.642 15.184C112.663 15.5467 112.674 15.8773 112.674 16.176C112.631 16.176 112.61 16.1867 112.61 16.208C112.61 16.2293 112.589 16.2293 112.546 16.208C112.375 16.1227 112.237 16.0053 112.13 15.856C112.087 15.8133 112.023 15.7707 111.938 15.728C111.853 15.664 111.799 15.5893 111.778 15.504C111.735 15.2907 111.682 15.0133 111.618 14.672C111.575 14.3093 111.49 13.9253 111.362 13.52C111.234 13.1147 111.074 12.72 110.882 12.336C110.69 11.9307 110.455 11.5787 110.178 11.28C110.071 11.1733 109.975 11.0987 109.89 11.056C109.826 10.992 109.741 10.928 109.634 10.864C109.527 10.7787 109.367 10.7253 109.154 10.704C108.941 10.6613 108.759 10.6613 108.61 10.704C108.247 10.8107 107.863 11.0133 107.458 11.312C107.053 11.6107 106.701 11.984 106.402 12.432C106.103 12.8587 105.89 13.36 105.762 13.936C105.634 14.512 105.687 15.1307 105.922 15.792C105.986 15.984 106.029 16.144 106.05 16.272C106.071 16.3787 106.071 16.4853 106.05 16.592C106.05 16.6987 106.018 16.816 105.954 16.944C105.89 17.072 105.805 17.2427 105.698 17.456C105.527 17.712 105.325 17.8933 105.09 18C104.877 18.1067 104.685 18.224 104.514 18.352C103.895 16.5813 103.415 14.8107 103.074 13.04C102.754 11.2693 102.551 9.59467 102.466 8.016C102.402 6.43733 102.455 4.99733 102.626 3.696C102.797 2.37333 103.063 1.27467 103.426 0.4C103.49 0.143999 103.629 0.0373325 103.842 0.0799999C103.949 0.101333 104.034 0.143999 104.098 0.207998C104.162 0.271999 104.247 0.357332 104.354 0.463999C104.439 0.570665 104.514 0.666665 104.578 0.751999C104.642 0.815999 104.685 0.911999 104.706 1.04C104.727 1.14667 104.781 1.2 104.866 1.2C104.951 1.2 104.983 1.25333 104.962 1.36C104.77 2.53333 104.642 3.62133 104.578 4.624C104.514 5.62667 104.493 6.55467 104.514 7.408C104.557 8.26133 104.631 9.05067 104.738 9.776C104.845 10.5013 104.951 11.184 105.058 11.824ZM121.164 8.144C121.313 8.29333 121.452 8.464 121.58 8.656C121.708 8.82667 121.814 9.008 121.9 9.2C122.07 9.60533 122.156 10.0107 122.156 10.416C122.177 10.8 122.028 11.2693 121.708 11.824C121.345 12.4213 120.876 12.9227 120.3 13.328C119.745 13.7333 119.137 13.9893 118.476 14.096C118.006 14.1813 117.537 14.1813 117.068 14.096C116.598 13.9893 116.15 13.776 115.724 13.456C115.596 13.5627 115.489 13.7227 115.404 13.936C115.34 14.128 115.318 14.3093 115.34 14.48C115.382 14.7787 115.489 15.1093 115.66 15.472C115.852 15.8133 116.054 16.048 116.268 16.176C116.63 16.3253 117.132 16.336 117.772 16.208C118.433 16.08 119.126 15.888 119.852 15.632C120.598 15.3547 121.324 15.056 122.028 14.736C122.753 14.3947 123.372 14.1067 123.884 13.872C123.884 14 123.852 14.0853 123.788 14.128C123.745 14.1707 123.681 14.2453 123.596 14.352C123.489 14.4587 123.372 14.5867 123.244 14.736C123.116 14.8853 122.966 15.0133 122.796 15.12C122.582 15.248 122.422 15.4187 122.316 15.632C122.209 15.824 122.006 16.0053 121.708 16.176C121.302 16.3893 120.886 16.6133 120.46 16.848C120.054 17.0613 119.649 17.264 119.244 17.456C118.838 17.6267 118.422 17.7653 117.996 17.872C117.59 17.9573 117.185 17.9787 116.78 17.936C116.502 17.8933 116.268 17.8187 116.076 17.712C115.905 17.6053 115.692 17.4453 115.436 17.232C115.308 17.1253 115.158 17.0187 114.988 16.912C114.817 16.8053 114.689 16.6987 114.604 16.592C114.241 16.0587 113.996 15.4933 113.868 14.896C113.74 14.2773 113.708 13.6693 113.772 13.072C113.857 12.4533 114.017 11.856 114.252 11.28C114.486 10.6827 114.796 10.1387 115.18 9.648C115.393 9.37067 115.649 9.09333 115.948 8.816C116.268 8.51733 116.609 8.26133 116.972 8.048C117.356 7.81333 117.75 7.632 118.156 7.504C118.582 7.376 119.009 7.32267 119.436 7.344C119.606 7.36533 119.756 7.41867 119.884 7.504C120.033 7.568 120.193 7.64267 120.364 7.728C120.47 7.77067 120.598 7.83467 120.748 7.92C120.918 7.984 121.057 8.05867 121.164 8.144ZM120.236 10.032C120.193 9.84 120.076 9.66933 119.884 9.52C119.692 9.37067 119.478 9.25333 119.244 9.168C119.009 9.06133 118.774 8.99733 118.54 8.976C118.305 8.95467 118.134 8.96533 118.028 9.008C117.857 9.072 117.654 9.18933 117.42 9.36C117.206 9.50933 116.993 9.69067 116.78 9.904C116.588 10.1173 116.396 10.352 116.204 10.608C116.033 10.8427 115.905 11.0667 115.82 11.28C115.777 11.344 115.734 11.4507 115.692 11.6C115.67 11.728 115.681 11.824 115.724 11.888C115.98 12.208 116.364 12.368 116.876 12.368C117.366 12.368 117.889 12.2507 118.444 12.016C119.02 11.7813 119.425 11.536 119.66 11.28C119.681 11.2373 119.724 11.1627 119.788 11.056C119.873 10.9493 119.948 10.832 120.012 10.704C120.076 10.576 120.129 10.448 120.172 10.32C120.236 10.192 120.257 10.096 120.236 10.032ZM148.631 6.448C148.354 7.408 148.108 8.35733 147.895 9.296C147.682 10.2347 147.447 11.1627 147.191 12.08C146.956 12.9973 146.69 13.904 146.391 14.8C146.114 15.6747 145.772 16.5173 145.367 17.328C145.367 17.456 145.314 17.5627 145.207 17.648C145.122 17.712 145.004 17.7867 144.855 17.872C144.684 17.9787 144.503 18.1067 144.311 18.256C144.14 18.4053 143.98 18.544 143.831 18.672C143.682 18.8213 143.532 18.9493 143.383 19.056C143.234 19.184 143.095 19.248 142.967 19.248C142.839 19.248 142.732 19.152 142.647 18.96C142.476 18.4267 142.316 17.8613 142.167 17.264C142.039 16.6667 141.911 16.0587 141.783 15.44C141.655 14.8213 141.527 14.2133 141.399 13.616C141.271 13.0187 141.143 12.4427 141.015 11.888L136.855 17.296C136.77 17.4453 136.684 17.5947 136.599 17.744C136.514 17.872 136.407 17.9573 136.279 18C136.236 18.0213 136.194 18.0427 136.151 18.064C136.108 18.1067 136.055 18.1387 135.991 18.16C135.948 18.1813 135.884 18.1707 135.799 18.128C135.735 18.0853 135.66 18 135.575 17.872C135.276 17.36 134.999 16.8053 134.743 16.208C134.487 15.5893 134.252 14.9493 134.039 14.288C133.847 13.6267 133.666 12.9653 133.495 12.304C133.346 11.6427 133.207 10.992 133.079 10.352C133.036 10.1813 133.026 10.032 133.047 9.904C133.068 9.75467 133.1 9.59467 133.143 9.424C133.186 9.18933 133.271 8.96533 133.399 8.752C133.506 8.58133 133.591 8.432 133.655 8.304C133.719 8.176 133.815 8.10133 133.943 8.08C134.092 8.08 134.156 8.05867 134.135 8.016C134.135 7.97333 134.188 7.97333 134.295 8.016C134.402 8.05867 134.487 8.15467 134.551 8.304C134.615 8.45333 134.668 8.57067 134.711 8.656C134.796 9.168 134.892 9.744 134.999 10.384C135.127 11.0027 135.255 11.632 135.383 12.272C135.511 12.912 135.639 13.5307 135.767 14.128C135.916 14.704 136.055 15.2053 136.183 15.632C136.418 15.376 136.738 14.9493 137.143 14.352C137.548 13.7547 137.996 13.1253 138.487 12.464C138.978 11.7813 139.49 11.1413 140.023 10.544C140.556 9.92533 141.068 9.46667 141.559 9.168V9.712C141.687 9.584 141.804 9.50933 141.911 9.488C142.018 9.44533 142.124 9.424 142.231 9.424C142.338 9.424 142.434 9.43467 142.519 9.456C142.604 9.47733 142.647 9.56267 142.647 9.712C142.732 10.1387 142.828 10.6293 142.935 11.184C143.042 11.7173 143.138 12.272 143.223 12.848C143.33 13.424 143.426 13.9893 143.511 14.544C143.596 15.0773 143.682 15.5467 143.767 15.952C144.044 15.4827 144.3 14.96 144.535 14.384C144.791 13.7867 145.036 13.1893 145.271 12.592C145.527 11.9733 145.783 11.3653 146.039 10.768C146.295 10.1493 146.572 9.584 146.871 9.072C147.02 8.816 147.202 8.56 147.415 8.304C147.628 8.02667 147.82 7.76 147.991 7.504C148.119 7.312 148.215 7.13067 148.279 6.96C148.364 6.78933 148.482 6.61867 148.631 6.448ZM154.28 8.752L153.736 9.296C153.907 9.27467 154.163 9.232 154.504 9.168C154.867 9.08267 155.219 9.04 155.56 9.04C155.816 9.08267 156.029 9.168 156.2 9.296C156.371 9.424 156.477 9.66933 156.52 10.032C156.605 10.544 156.733 11.0667 156.904 11.6C157.096 12.112 157.235 12.624 157.32 13.136C157.427 13.648 157.427 14.1387 157.32 14.608C157.213 15.056 156.925 15.4613 156.456 15.824C155.965 16.5707 155.421 17.2 154.824 17.712C154.248 18.2027 153.64 18.4907 153 18.576C152.573 18.64 152.104 18.576 151.592 18.384C151.08 18.2133 150.707 17.904 150.472 17.456C150.408 17.4987 150.355 17.5093 150.312 17.488C150.269 17.4453 150.227 17.4027 150.184 17.36C150.141 17.3173 150.099 17.3067 150.056 17.328C150.035 17.3493 150.013 17.3387 149.992 17.296C149.971 17.232 149.96 17.1467 149.96 17.04V16.976V16.912C149.981 16.1653 150.045 15.4187 150.152 14.672C150.28 13.904 150.461 13.168 150.696 12.464C150.952 11.7387 151.272 11.0667 151.656 10.448C152.061 9.808 152.573 9.24267 153.192 8.752C153.405 8.624 153.64 8.58133 153.896 8.624C153.939 8.624 153.992 8.624 154.056 8.624C154.12 8.624 154.195 8.66667 154.28 8.752ZM153.192 10.928C153.064 10.9067 152.989 10.864 152.968 10.8C152.947 10.736 152.947 10.6613 152.968 10.576C153.011 10.4693 153.053 10.352 153.096 10.224C153.16 10.096 153.192 9.968 153.192 9.84C152.744 10.2453 152.392 10.736 152.136 11.312C151.901 11.888 151.731 12.4853 151.624 13.104C151.517 13.7013 151.464 14.288 151.464 14.864C151.485 15.44 151.517 15.9413 151.56 16.368C151.603 16.7307 151.677 17.0293 151.784 17.264C151.891 17.4773 152.051 17.6053 152.264 17.648C152.499 17.712 152.808 17.648 153.192 17.456C153.747 17.1787 154.195 16.7947 154.536 16.304C154.877 15.8133 155.155 15.2907 155.368 14.736C155.453 14.4373 155.517 14.0853 155.56 13.68C155.624 13.2533 155.613 12.8587 155.528 12.496C155.421 12.0053 155.144 11.6533 154.696 11.44C154.269 11.2053 153.768 11.0347 153.192 10.928ZM169.321 7.664C169.321 7.856 169.353 8.10133 169.417 8.4C169.481 8.67733 169.46 8.90133 169.353 9.072C169.311 9.11467 169.289 9.2 169.289 9.328C169.289 9.43467 169.257 9.50933 169.193 9.552L168.777 9.296C168.436 9.12533 168.052 9.05067 167.625 9.072C167.22 9.09333 166.804 9.18933 166.377 9.36C166.079 9.488 165.78 9.66933 165.481 9.904C165.204 10.1173 164.937 10.3627 164.681 10.64C164.425 10.9173 164.191 11.2053 163.977 11.504C163.764 11.8027 163.583 12.0907 163.433 12.368C163.092 12.9867 162.921 13.7333 162.921 14.608C162.943 15.4827 163.263 16.6133 163.881 18C163.881 18.1493 163.775 18.3307 163.561 18.544C163.519 18.5867 163.465 18.6507 163.401 18.736C163.337 18.8213 163.284 18.8853 163.241 18.928C163.071 19.0773 162.964 19.2053 162.921 19.312C162.9 19.4187 162.836 19.4933 162.729 19.536C162.559 19.6 162.399 19.4507 162.249 19.088C161.887 18.448 161.535 17.6693 161.193 16.752C160.873 15.8133 160.564 14.8533 160.265 13.872C159.988 12.8907 159.732 11.952 159.497 11.056C159.284 10.1387 159.113 9.37067 158.985 8.752C158.921 8.58133 158.911 8.42133 158.953 8.272C158.996 8.10133 159.06 7.96267 159.145 7.856C159.209 7.77067 159.284 7.74933 159.369 7.792C159.476 7.83467 159.561 7.856 159.625 7.856C159.903 7.856 160.073 7.90933 160.137 8.016C160.201 8.12267 160.308 8.26133 160.457 8.432C160.756 8.77333 160.991 9.232 161.161 9.808C161.332 10.384 161.545 11.0667 161.801 11.856C162.143 11.28 162.58 10.7253 163.113 10.192C163.668 9.65867 164.265 9.17867 164.905 8.752C165.545 8.304 166.207 7.94133 166.889 7.664C167.572 7.38667 168.233 7.216 168.873 7.152C169.001 7.13067 169.108 7.17333 169.193 7.28C169.3 7.36533 169.343 7.49333 169.321 7.664ZM173.365 2.768C173.621 3.92 173.823 5.072 173.973 6.224C174.122 7.376 174.261 8.528 174.389 9.68C174.517 10.832 174.645 11.984 174.773 13.136C174.922 14.288 175.114 15.44 175.349 16.592C175.306 16.8693 175.274 17.0933 175.253 17.264C175.231 17.4347 175.178 17.5413 175.093 17.584C174.986 17.648 174.879 17.7227 174.773 17.808C174.687 17.872 174.591 17.9253 174.485 17.968C174.442 17.9893 174.399 18.0213 174.357 18.064C174.314 18.128 174.261 18.1707 174.197 18.192C174.154 18.2133 174.111 18.2133 174.069 18.192C174.026 18.1707 173.973 18.1067 173.909 18C173.503 16.784 173.13 15.5573 172.789 14.32C172.469 13.0827 172.202 11.8347 171.989 10.576C171.797 9.31733 171.669 8.048 171.605 6.768C171.562 5.46667 171.605 4.13333 171.733 2.768C171.733 2.448 171.829 2.24533 172.021 2.16C172.106 2.11733 172.213 2.14933 172.341 2.256C172.49 2.36267 172.618 2.43733 172.725 2.48C172.874 2.544 172.991 2.58667 173.077 2.608C173.162 2.608 173.258 2.66133 173.365 2.768ZM184.331 0.4C184.331 1.76533 184.459 3.04533 184.715 4.24C184.971 5.41333 185.184 6.61867 185.355 7.856C185.526 9.11467 185.643 10.3627 185.707 11.6C185.771 12.816 185.856 13.9467 185.963 14.992C185.899 15.12 185.867 15.2693 185.867 15.44C185.888 15.6107 185.846 15.7493 185.739 15.856C185.419 16.1547 185.056 16.4427 184.651 16.72C184.246 16.9973 183.798 17.2533 183.307 17.488C183.136 17.5733 182.966 17.616 182.795 17.616C182.624 17.5947 182.454 17.6053 182.283 17.648C182.091 17.6907 181.888 17.744 181.675 17.808C181.483 17.872 181.28 17.8827 181.067 17.84C180.832 17.776 180.555 17.68 180.235 17.552C179.915 17.4027 179.595 17.232 179.275 17.04C178.955 16.848 178.656 16.6347 178.379 16.4C178.123 16.1653 177.931 15.9093 177.803 15.632C177.568 14.416 177.611 13.3173 177.931 12.336C178.272 11.3547 178.774 10.4693 179.435 9.68C179.52 9.57333 179.627 9.49867 179.755 9.456C179.883 9.392 180 9.31733 180.107 9.232C180.214 9.14667 180.331 9.08267 180.459 9.04C180.587 8.976 180.736 8.95467 180.907 8.976C181.334 9.01867 181.803 9.12533 182.315 9.296C182.827 9.44533 183.222 9.54133 183.499 9.584V9.104C183.499 8.54933 183.456 7.99467 183.371 7.44C183.307 6.864 183.243 6.288 183.179 5.712C183.115 5.136 183.062 4.54933 183.019 3.952C182.998 3.33333 183.03 2.704 183.115 2.064C183.136 1.89333 183.179 1.72267 183.243 1.552C183.307 1.38133 183.36 1.21067 183.403 1.04C183.446 0.933332 183.51 0.815999 183.595 0.688C183.68 0.538666 183.776 0.442666 183.883 0.4C183.99 0.357332 184.054 0.293332 184.075 0.207998C184.096 0.101332 184.15 0.0586656 184.235 0.0799999C184.32 0.101333 184.352 0.133333 184.331 0.175999C184.331 0.218666 184.331 0.293333 184.331 0.4ZM184.139 15.312C184.16 15.0773 184.16 14.7467 184.139 14.32C184.139 13.872 184.075 13.4133 183.947 12.944C183.819 12.4747 183.606 12.0267 183.307 11.6C183.03 11.1733 182.635 10.8533 182.123 10.64C181.888 10.6613 181.611 10.704 181.291 10.768C180.992 10.8107 180.694 10.896 180.395 11.024C180.096 11.152 179.819 11.3333 179.563 11.568C179.307 11.7813 179.104 12.0587 178.955 12.4C178.827 12.784 178.827 13.2853 178.955 13.904C179.083 14.5013 179.424 15.0773 179.979 15.632C180.299 15.824 180.64 15.9413 181.003 15.984C181.366 16.0053 181.728 15.9947 182.091 15.952C182.475 15.9093 182.838 15.824 183.179 15.696C183.542 15.568 183.862 15.44 184.139 15.312Z" fill="#1F1F1F"/>
<path d="M12.32 45.424C12.2773 45.5093 12.2773 45.5733 12.32 45.616C12.3627 45.6587 12.3627 45.7013 12.32 45.744C12.256 45.7867 12.1387 45.8187 11.968 45.84C11.8187 45.84 11.6907 45.8507 11.584 45.872C11.4347 45.9147 11.2853 45.936 11.136 45.936C10.9867 45.9147 10.8267 45.8507 10.656 45.744C10.4 45.616 10.08 45.4987 9.696 45.392C9.33333 45.264 8.93867 45.2 8.512 45.2C7.95733 45.2 7.37067 45.264 6.752 45.392C6.13333 45.4987 5.536 45.6587 4.96 45.872C4.40533 46.064 3.904 46.3093 3.456 46.608C3.02933 46.9067 2.72 47.2373 2.528 47.6C2.4 47.8773 2.34667 48.176 2.368 48.496C2.38933 48.7947 2.464 49.0827 2.592 49.36C2.72 49.6373 2.86933 49.8933 3.04 50.128C3.232 50.3413 3.41333 50.4907 3.584 50.576C4.11733 50.8533 4.704 51.0347 5.344 51.12C6.00533 51.2053 6.67733 51.2587 7.36 51.28C8.064 51.3013 8.75733 51.3333 9.44 51.376C10.1227 51.4187 10.752 51.5253 11.328 51.696C11.6267 51.8027 11.904 51.888 12.16 51.952C12.4373 52.016 12.6827 52.112 12.896 52.24C13.1093 52.3467 13.3013 52.5067 13.472 52.72C13.664 52.912 13.824 53.2 13.952 53.584C14.144 54.3947 14.1013 55.184 13.824 55.952C13.5467 56.7413 13.088 57.4347 12.448 58.032C11.808 58.6507 11.0827 59.1413 10.272 59.504C9.632 59.7813 8.97067 59.9627 8.288 60.048C7.62667 60.1547 6.976 60.144 6.336 60.016C5.71733 59.888 5.14133 59.6427 4.608 59.28C4.096 58.9173 3.68 58.416 3.36 57.776C3.168 57.3707 3.072 56.88 3.072 56.304C3.05067 56.24 3.05067 56.176 3.072 56.112C3.11467 55.9627 3.25333 55.888 3.488 55.888C3.57333 55.8453 3.68 55.8773 3.808 55.984C3.95733 56.0693 4.064 56.1227 4.128 56.144C4.29867 56.1653 4.45867 56.2827 4.608 56.496C4.77867 56.688 4.93867 56.848 5.088 56.976C5.62133 57.5307 6.21867 57.872 6.88 58C7.56267 58.1067 8.21333 58.1067 8.832 58C9.472 57.872 10.0587 57.68 10.592 57.424C11.1253 57.168 11.52 56.9333 11.776 56.72C11.9253 56.592 12.0853 56.4427 12.256 56.272C12.448 56.08 12.6293 55.8773 12.8 55.664C12.9707 55.4293 13.1093 55.184 13.216 54.928C13.344 54.672 13.408 54.4053 13.408 54.128C13.344 53.872 13.1733 53.68 12.896 53.552C12.6187 53.4027 12.2667 53.2853 11.84 53.2C11.0933 53.072 10.3573 53.008 9.632 53.008C8.90667 52.9867 8.192 52.9867 7.488 53.008C6.784 53.0293 6.09067 53.04 5.408 53.04C4.72533 53.04 4.064 52.9653 3.424 52.816C3.232 52.7733 3.04 52.7093 2.848 52.624C2.67733 52.5173 2.50667 52.4107 2.336 52.304C2.16533 52.1973 2.03733 52.0587 1.952 51.888C1.86667 51.7173 1.77067 51.536 1.664 51.344C1.55733 51.152 1.45067 50.96 1.344 50.768C1.25867 50.5547 1.19467 50.3307 1.152 50.096C1.04533 49.4133 1.04533 48.7093 1.152 47.984C1.28 47.2587 1.55733 46.5867 1.984 45.968C2.32533 45.456 2.784 45.0187 3.36 44.656C3.95733 44.272 4.61867 43.984 5.344 43.792C6.09067 43.5787 6.88 43.4827 7.712 43.504C8.544 43.504 9.39733 43.632 10.272 43.888C10.3787 43.9307 10.5067 43.9947 10.656 44.08C10.8053 44.144 10.9333 44.1973 11.04 44.24C11.3387 44.3893 11.6053 44.5707 11.84 44.784C12.0747 44.9973 12.2347 45.2107 12.32 45.424ZM20.3113 48.752L19.7673 49.296C19.9379 49.2747 20.1939 49.232 20.5353 49.168C20.8979 49.0827 21.2499 49.04 21.5913 49.04C21.8473 49.0827 22.0606 49.168 22.2313 49.296C22.4019 49.424 22.5086 49.6693 22.5513 50.032C22.6366 50.544 22.7646 51.0667 22.9353 51.6C23.1273 52.112 23.2659 52.624 23.3513 53.136C23.4579 53.648 23.4579 54.1387 23.3513 54.608C23.2446 55.056 22.9566 55.4613 22.4873 55.824C21.9966 56.5707 21.4526 57.2 20.8553 57.712C20.2793 58.2027 19.6713 58.4907 19.0312 58.576C18.6046 58.64 18.1353 58.576 17.6233 58.384C17.1113 58.2133 16.7379 57.904 16.5033 57.456C16.4393 57.4987 16.3859 57.5093 16.3433 57.488C16.3006 57.4453 16.2579 57.4027 16.2153 57.36C16.1726 57.3173 16.1299 57.3067 16.0872 57.328C16.0659 57.3493 16.0446 57.3387 16.0233 57.296C16.0019 57.232 15.9913 57.1467 15.9913 57.04V56.976V56.912C16.0126 56.1653 16.0766 55.4187 16.1833 54.672C16.3113 53.904 16.4926 53.168 16.7273 52.464C16.9833 51.7387 17.3033 51.0667 17.6873 50.448C18.0926 49.808 18.6046 49.2427 19.2233 48.752C19.4366 48.624 19.6713 48.5813 19.9273 48.624C19.9699 48.624 20.0233 48.624 20.0873 48.624C20.1513 48.624 20.2259 48.6667 20.3113 48.752ZM19.2233 50.928C19.0953 50.9067 19.0206 50.864 18.9993 50.8C18.9779 50.736 18.9779 50.6613 18.9993 50.576C19.0419 50.4693 19.0846 50.352 19.1273 50.224C19.1913 50.096 19.2233 49.968 19.2233 49.84C18.7753 50.2453 18.4233 50.736 18.1673 51.312C17.9326 51.888 17.7619 52.4853 17.6553 53.104C17.5486 53.7013 17.4953 54.288 17.4953 54.864C17.5166 55.44 17.5486 55.9413 17.5913 56.368C17.6339 56.7307 17.7086 57.0293 17.8153 57.264C17.9219 57.4773 18.0819 57.6053 18.2953 57.648C18.5299 57.712 18.8393 57.648 19.2233 57.456C19.7779 57.1787 20.2259 56.7947 20.5673 56.304C20.9086 55.8133 21.1859 55.2907 21.3993 54.736C21.4846 54.4373 21.5486 54.0853 21.5913 53.68C21.6553 53.2533 21.6446 52.8587 21.5593 52.496C21.4526 52.0053 21.1753 51.6533 20.7273 51.44C20.3006 51.2053 19.7993 51.0347 19.2233 50.928ZM32.4725 50.192C32.5365 50.2987 32.5578 50.4053 32.5365 50.512C32.5365 50.5973 32.5258 50.672 32.5045 50.736C32.3338 50.928 32.1952 51.056 32.0885 51.12C31.9818 51.184 31.8005 51.28 31.5445 51.408C31.4805 51.4507 31.4165 51.4933 31.3525 51.536C31.3098 51.5787 31.2565 51.6 31.1925 51.6C31.0858 51.6 30.9152 51.5147 30.6805 51.344C30.4672 51.1733 30.2325 51.0027 29.9765 50.832C29.7205 50.6613 29.4432 50.5333 29.1445 50.448C28.8672 50.3627 28.6112 50.3947 28.3765 50.544C28.1418 50.864 27.9178 51.28 27.7045 51.792C27.4912 52.2827 27.3205 52.8053 27.1925 53.36C27.0858 53.9147 27.0538 54.48 27.0965 55.056C27.1392 55.632 27.3098 56.1653 27.6085 56.656C28.8458 56.784 29.9445 56.5813 30.9045 56.048C31.8645 55.4933 32.7498 54.8107 33.5605 54C33.5605 54.1493 33.5178 54.288 33.4325 54.416C33.3685 54.5227 33.3045 54.64 33.2405 54.768C33.1552 54.96 33.0592 55.152 32.9525 55.344C32.8672 55.5147 32.7392 55.6853 32.5685 55.856C32.2698 56.176 31.9285 56.4853 31.5445 56.784C31.1818 57.0827 30.7872 57.3493 30.3605 57.584C29.9552 57.7973 29.5285 57.9573 29.0805 58.064C28.6538 58.192 28.2272 58.2347 27.8005 58.192C27.5658 58.1707 27.3952 58.1067 27.2885 58C27.2032 57.9147 27.0432 57.8187 26.8085 57.712C26.6805 57.6267 26.5098 57.552 26.2965 57.488C26.1045 57.424 25.9552 57.3387 25.8485 57.232C25.6352 56.976 25.4752 56.6667 25.3685 56.304C25.2192 55.8347 25.1445 55.3227 25.1445 54.768C25.1445 54.2133 25.1765 53.68 25.2405 53.168C25.3258 52.6347 25.4325 52.1547 25.5605 51.728C25.7098 51.3013 25.8378 50.9707 25.9445 50.736C26.0725 50.4587 26.2645 50.224 26.5205 50.032C26.7765 49.8187 27.0538 49.6267 27.3525 49.456C27.6725 49.2853 27.9925 49.1253 28.3125 48.976C28.6325 48.8267 28.9312 48.688 29.2085 48.56C30.2965 48.56 31.3845 49.104 32.4725 50.192ZM39.2443 47.472C39.4149 47.6427 39.4789 47.7813 39.4363 47.888C39.4149 47.9947 39.3509 48.0373 39.2443 48.016C38.9669 48.016 38.6576 48.048 38.3163 48.112C37.9963 48.1547 37.6443 48.1973 37.2603 48.24C36.8976 48.2613 36.5136 48.2613 36.1083 48.24C35.7029 48.2187 35.2976 48.144 34.8923 48.016C34.7216 47.8453 34.7216 47.696 34.8923 47.568C35.0843 47.4187 35.2336 47.2053 35.3403 46.928C35.4043 46.736 35.4896 46.608 35.5963 46.544C35.7243 46.4587 35.8523 46.4053 35.9803 46.384C36.2149 46.384 36.5029 46.4373 36.8443 46.544C37.2069 46.6293 37.5056 46.6827 37.7403 46.704C38.1029 46.7467 38.4016 46.8107 38.6363 46.896C38.8709 46.96 39.0736 47.152 39.2443 47.472ZM38.5723 51.824C38.7003 52.3147 38.7963 52.7627 38.8602 53.168C38.9456 53.5733 38.9989 53.968 39.0203 54.352C39.0629 54.7147 39.0843 55.088 39.0843 55.472C39.1056 55.856 39.1163 56.272 39.1163 56.72C39.1163 56.8053 39.0629 56.9013 38.9563 57.008C38.8709 57.0933 38.8069 57.1893 38.7643 57.296C38.6789 57.488 38.6043 57.6053 38.5403 57.648C38.4976 57.6907 38.4123 57.744 38.2843 57.808C37.9856 57.936 37.7189 58.1173 37.4843 58.352C37.2069 57.9467 37.0149 57.4773 36.9083 56.944C36.8229 56.4107 36.7589 55.856 36.7163 55.28C36.6949 54.704 36.6629 54.128 36.6203 53.552C36.5989 52.9547 36.5243 52.3787 36.3963 51.824C36.3323 51.5253 36.3536 51.3227 36.4603 51.216C36.5669 51.1093 36.6843 51.0347 36.8123 50.992C36.9616 50.9493 37.1216 50.9813 37.2923 51.088C37.4843 51.1947 37.6656 51.3013 37.8363 51.408C37.9856 51.4933 38.1243 51.5467 38.2523 51.568C38.4016 51.568 38.5083 51.6533 38.5723 51.824ZM49.9943 48.56C50.2716 49.2427 50.5276 49.9787 50.7623 50.768C51.0183 51.5573 51.1889 52.3467 51.2743 53.136C51.3809 53.904 51.3809 54.6507 51.2743 55.376C51.1889 56.1013 50.9436 56.7307 50.5383 57.264C50.3676 57.4773 50.1649 57.5627 49.9303 57.52C49.8449 57.4987 49.7703 57.4453 49.7063 57.36C49.6423 57.2747 49.5569 57.2 49.4503 57.136C49.3649 57.072 49.2689 57.0187 49.1623 56.976C49.0769 56.9333 48.9916 56.848 48.9062 56.72C48.5863 56.8267 48.2663 56.9867 47.9463 57.2C47.6476 57.392 47.3383 57.5947 47.0183 57.808C46.6983 58.0213 46.3676 58.224 46.0263 58.416C45.6849 58.6293 45.3329 58.7787 44.9703 58.864C44.5863 58.9707 44.2983 58.9493 44.1063 58.8C43.9356 58.672 43.7436 58.5227 43.5303 58.352C43.3809 58.224 43.2849 58.1387 43.2423 58.096C43.1996 58.0747 43.1569 57.9467 43.1143 57.712C43.0503 57.2427 43.0396 56.7413 43.0823 56.208C43.1463 55.6533 43.2743 55.0987 43.4663 54.544C43.9996 52.9227 45.0876 51.8347 46.7303 51.28C46.9223 51.216 47.1143 51.2053 47.3063 51.248C47.5196 51.2693 47.7223 51.3227 47.9143 51.408C48.1063 51.4933 48.2876 51.6 48.4583 51.728C48.6503 51.856 48.8209 51.984 48.9703 52.112L49.4823 52.528C49.5889 52.1653 49.5783 51.7813 49.4503 51.376C49.3436 50.9493 49.1729 50.5547 48.9383 50.192C48.7036 49.808 48.4369 49.4667 48.1383 49.168C47.8396 48.8693 47.5516 48.6667 47.2743 48.56C46.1863 48.56 45.2049 48.816 44.3303 49.328C43.4769 49.8187 42.6449 50.4693 41.8343 51.28C41.7916 51.3227 41.7383 51.3547 41.6743 51.376C41.6316 51.3973 41.5889 51.4187 41.5463 51.44C41.4823 51.4827 41.4076 51.4933 41.3223 51.472C41.2583 51.4507 41.2476 51.3867 41.2903 51.28C41.4183 50.5973 41.6743 49.9893 42.0583 49.456C42.4423 48.9013 42.8903 48.4213 43.4023 48.016C43.9143 47.6107 44.4583 47.2693 45.0343 46.992C45.6103 46.7147 46.1756 46.512 46.7303 46.384C46.8156 46.3413 46.8903 46.32 46.9543 46.32C47.0396 46.2987 47.1356 46.288 47.2423 46.288C47.3916 46.288 47.5303 46.3307 47.6583 46.416C47.7863 46.5013 47.9356 46.5973 48.1063 46.704C48.3196 46.8107 48.5329 46.9387 48.7463 47.088C48.9596 47.216 49.1516 47.376 49.3223 47.568C49.4716 47.7387 49.5996 47.9093 49.7063 48.08C49.8129 48.2507 49.9089 48.4107 49.9943 48.56ZM48.9062 54.256C48.7783 53.9787 48.5756 53.7227 48.2983 53.488C48.0423 53.2533 47.7436 53.0827 47.4023 52.976C47.0609 52.848 46.6876 52.816 46.2823 52.88C45.8983 52.944 45.5036 53.136 45.0983 53.456C44.9703 53.7333 44.8423 54.0427 44.7143 54.384C44.5863 54.704 44.4903 55.0347 44.4263 55.376C44.3623 55.696 44.3303 56.0267 44.3303 56.368C44.3516 56.688 44.4263 56.9867 44.5543 57.264C45.3649 56.9867 46.1543 56.6667 46.9223 56.304C47.6903 55.9413 48.3516 55.6213 48.9062 55.344C49.0343 55.216 49.1089 55.1093 49.1302 55.024C49.1516 54.9387 49.1409 54.864 49.0983 54.8C49.0769 54.736 49.0343 54.6613 48.9703 54.576C48.9276 54.4907 48.9062 54.384 48.9062 54.256ZM55.9895 42.768C56.2455 43.92 56.4482 45.072 56.5975 46.224C56.7468 47.376 56.8855 48.528 57.0135 49.68C57.1415 50.832 57.2695 51.984 57.3975 53.136C57.5468 54.288 57.7388 55.44 57.9735 56.592C57.9308 56.8693 57.8988 57.0933 57.8775 57.264C57.8562 57.4347 57.8028 57.5413 57.7175 57.584C57.6108 57.648 57.5042 57.7227 57.3975 57.808C57.3122 57.872 57.2162 57.9253 57.1095 57.968C57.0668 57.9893 57.0242 58.0213 56.9815 58.064C56.9388 58.128 56.8855 58.1707 56.8215 58.192C56.7788 58.2133 56.7362 58.2133 56.6935 58.192C56.6508 58.1707 56.5975 58.1067 56.5335 58C56.1282 56.784 55.7548 55.5573 55.4135 54.32C55.0935 53.0827 54.8268 51.8347 54.6135 50.576C54.4215 49.3173 54.2935 48.048 54.2295 46.768C54.1868 45.4667 54.2295 44.1333 54.3575 42.768C54.3575 42.448 54.4535 42.2453 54.6455 42.16C54.7308 42.1173 54.8375 42.1493 54.9655 42.256C55.1148 42.3627 55.2428 42.4373 55.3495 42.48C55.4988 42.544 55.6162 42.5867 55.7015 42.608C55.7868 42.608 55.8828 42.6613 55.9895 42.768ZM79.7328 45.424C79.7541 45.4667 79.7648 45.5093 79.7648 45.552C79.7648 45.5733 79.7754 45.6053 79.7968 45.648C79.8394 45.7333 79.8288 45.8187 79.7648 45.904C79.7008 45.9893 79.6368 46.0107 79.5728 45.968C79.3594 45.9253 79.1461 45.8613 78.9328 45.776C78.7194 45.6693 78.5061 45.5733 78.2928 45.488C78.0794 45.4027 77.8661 45.3387 77.6528 45.296C77.4394 45.2533 77.2368 45.264 77.0448 45.328C76.6181 45.456 76.1701 45.6587 75.7008 45.936C75.2528 46.2133 74.8048 46.5653 74.3568 46.992C73.9301 47.3973 73.5248 47.8773 73.1408 48.432C72.7781 48.9867 72.4688 49.6053 72.2128 50.288C71.8928 51.2267 71.7968 52.112 71.9248 52.944C72.0528 53.7547 72.3408 54.4373 72.7888 54.992C73.2581 55.5467 73.8554 55.952 74.5808 56.208C75.3274 56.4427 76.1701 56.464 77.1088 56.272C77.7914 56.1227 78.4421 55.8773 79.0608 55.536C79.6794 55.1947 80.2554 54.8427 80.7888 54.48C80.6821 54.6507 80.5861 54.8 80.5008 54.928C80.4154 55.056 80.2874 55.2053 80.1168 55.376C80.0101 55.4827 79.9034 55.632 79.7968 55.824C79.6901 55.9947 79.5834 56.1333 79.4768 56.24C78.7301 57.0507 77.8234 57.6373 76.7568 58C76.5221 58.0853 76.3194 58.128 76.1488 58.128C75.9781 58.1493 75.7754 58.1813 75.5408 58.224C75.1994 58.224 74.8581 58.2347 74.5168 58.256C74.1754 58.2773 73.8448 58.2347 73.5248 58.128C72.5861 57.808 71.7861 57.1893 71.1248 56.272C70.8261 55.8667 70.5701 55.376 70.3568 54.8C70.1648 54.2027 70.0368 53.584 69.9728 52.944C69.9301 52.2827 69.9514 51.632 70.0368 50.992C70.1221 50.352 70.3034 49.7547 70.5807 49.2C71.1568 47.9627 71.8394 46.8533 72.6288 45.872C73.4394 44.8907 74.3994 44.208 75.5088 43.824C76.2554 43.5467 77.1514 43.5253 78.1968 43.76C78.4528 43.8667 78.7408 44.08 79.0608 44.4C79.1674 44.5067 79.2741 44.6133 79.3808 44.72C79.4874 44.8267 79.5941 44.976 79.7008 45.168C79.7221 45.2107 79.7221 45.2533 79.7008 45.296C79.7008 45.3387 79.7114 45.3813 79.7328 45.424ZM86.9363 48.752L86.3923 49.296C86.5629 49.2747 86.8189 49.232 87.1603 49.168C87.5229 49.0827 87.8749 49.04 88.2163 49.04C88.4723 49.0827 88.6856 49.168 88.8563 49.296C89.0269 49.424 89.1336 49.6693 89.1763 50.032C89.2616 50.544 89.3896 51.0667 89.5603 51.6C89.7523 52.112 89.8909 52.624 89.9763 53.136C90.0829 53.648 90.0829 54.1387 89.9763 54.608C89.8696 55.056 89.5816 55.4613 89.1123 55.824C88.6216 56.5707 88.0776 57.2 87.4803 57.712C86.9043 58.2027 86.2963 58.4907 85.6562 58.576C85.2296 58.64 84.7603 58.576 84.2483 58.384C83.7363 58.2133 83.3629 57.904 83.1283 57.456C83.0643 57.4987 83.0109 57.5093 82.9683 57.488C82.9256 57.4453 82.8829 57.4027 82.8403 57.36C82.7976 57.3173 82.7549 57.3067 82.7122 57.328C82.6909 57.3493 82.6696 57.3387 82.6483 57.296C82.6269 57.232 82.6163 57.1467 82.6163 57.04V56.976V56.912C82.6376 56.1653 82.7016 55.4187 82.8083 54.672C82.9363 53.904 83.1176 53.168 83.3523 52.464C83.6083 51.7387 83.9283 51.0667 84.3123 50.448C84.7176 49.808 85.2296 49.2427 85.8483 48.752C86.0616 48.624 86.2963 48.5813 86.5523 48.624C86.5949 48.624 86.6483 48.624 86.7123 48.624C86.7763 48.624 86.8509 48.6667 86.9363 48.752ZM85.8483 50.928C85.7203 50.9067 85.6456 50.864 85.6243 50.8C85.6029 50.736 85.6029 50.6613 85.6243 50.576C85.6669 50.4693 85.7096 50.352 85.7523 50.224C85.8163 50.096 85.8483 49.968 85.8483 49.84C85.4003 50.2453 85.0483 50.736 84.7923 51.312C84.5576 51.888 84.3869 52.4853 84.2803 53.104C84.1736 53.7013 84.1203 54.288 84.1203 54.864C84.1416 55.44 84.1736 55.9413 84.2163 56.368C84.2589 56.7307 84.3336 57.0293 84.4403 57.264C84.5469 57.4773 84.7069 57.6053 84.9203 57.648C85.1549 57.712 85.4643 57.648 85.8483 57.456C86.4029 57.1787 86.8509 56.7947 87.1923 56.304C87.5336 55.8133 87.8109 55.2907 88.0243 54.736C88.1096 54.4373 88.1736 54.0853 88.2163 53.68C88.2803 53.2533 88.2696 52.8587 88.1843 52.496C88.0776 52.0053 87.8003 51.6533 87.3523 51.44C86.9256 51.2053 86.4243 51.0347 85.8483 50.928ZM94.3295 53.648C94.6922 53.2853 95.0548 52.9013 95.4175 52.496C95.8015 52.0693 96.1962 51.664 96.6015 51.28C97.0068 50.896 97.4228 50.5547 97.8495 50.256C98.2762 49.936 98.7242 49.68 99.1935 49.488C99.3002 49.4453 99.3962 49.4347 99.4815 49.456C99.5882 49.4773 99.6948 49.4667 99.8015 49.424C99.9722 49.424 100.122 49.424 100.25 49.424C100.378 49.424 100.495 49.4667 100.602 49.552C100.9 49.744 101.135 50.0213 101.306 50.384C101.498 50.7253 101.658 51.1093 101.786 51.536C101.871 51.7707 101.914 51.9947 101.914 52.208C101.935 52.4213 101.999 52.6667 102.106 52.944C102.234 53.3493 102.372 53.7653 102.522 54.192C102.692 54.5973 102.756 54.992 102.714 55.376C102.692 55.4827 102.66 55.5787 102.618 55.664C102.575 55.728 102.522 55.8133 102.458 55.92C102.415 56.0053 102.34 56.112 102.234 56.24C102.127 56.368 102.02 56.464 101.914 56.528C101.807 56.6133 101.732 56.688 101.69 56.752C101.668 56.7947 101.572 56.848 101.402 56.912C101.124 56.5067 100.911 56.0693 100.762 55.6C100.612 55.1307 100.484 54.64 100.378 54.128C100.271 53.616 100.175 53.0933 100.09 52.56C100.004 52.0267 99.8975 51.4827 99.7695 50.928C99.7268 50.7787 99.5882 50.6933 99.3535 50.672C99.1402 50.6507 98.8842 50.7253 98.5855 50.896C98.3082 51.0453 98.0095 51.2907 97.6895 51.632C97.3695 51.9733 97.0815 52.4107 96.8255 52.944C96.6548 53.328 96.4948 53.7333 96.3455 54.16C96.1962 54.5653 96.0255 54.9813 95.8335 55.408C95.6628 55.8133 95.4495 56.2187 95.1935 56.624C94.9588 57.008 94.6708 57.36 94.3295 57.68C94.2228 57.7867 94.1482 57.7973 94.1055 57.712C94.0628 57.6267 93.9562 57.552 93.7855 57.488C93.6575 57.4453 93.5828 57.4027 93.5615 57.36C93.5615 57.3173 93.5295 57.1893 93.4655 56.976C93.3375 56.528 93.1988 56.016 93.0495 55.44C92.9215 54.864 92.7722 54.256 92.6015 53.616C92.4522 52.976 92.2922 52.336 92.1215 51.696C91.9508 51.0347 91.7802 50.416 91.6095 49.84L91.4175 49.264C91.4602 49.1787 91.5348 49.104 91.6415 49.04C91.7695 48.976 91.8975 48.9227 92.0255 48.88C92.1535 48.8373 92.2922 48.848 92.4415 48.912C92.5908 48.976 92.7082 49.008 92.7935 49.008C93.0282 49.008 93.2308 49.1573 93.4015 49.456C93.5935 49.7547 93.7535 50.1387 93.8815 50.608C94.0095 51.056 94.1055 51.5573 94.1695 52.112C94.2548 52.6453 94.3082 53.1573 94.3295 53.648ZM107.173 53.648C107.536 53.2853 107.899 52.9013 108.261 52.496C108.645 52.0693 109.04 51.664 109.445 51.28C109.851 50.896 110.267 50.5547 110.693 50.256C111.12 49.936 111.568 49.68 112.037 49.488C112.144 49.4453 112.24 49.4347 112.325 49.456C112.432 49.4773 112.539 49.4667 112.645 49.424C112.816 49.424 112.965 49.424 113.093 49.424C113.221 49.424 113.339 49.4667 113.445 49.552C113.744 49.744 113.979 50.0213 114.149 50.384C114.341 50.7253 114.501 51.1093 114.629 51.536C114.715 51.7707 114.757 51.9947 114.757 52.208C114.779 52.4213 114.843 52.6667 114.949 52.944C115.077 53.3493 115.216 53.7653 115.365 54.192C115.536 54.5973 115.6 54.992 115.557 55.376C115.536 55.4827 115.504 55.5787 115.461 55.664C115.419 55.728 115.365 55.8133 115.301 55.92C115.259 56.0053 115.184 56.112 115.077 56.24C114.971 56.368 114.864 56.464 114.757 56.528C114.651 56.6133 114.576 56.688 114.533 56.752C114.512 56.7947 114.416 56.848 114.245 56.912C113.968 56.5067 113.755 56.0693 113.605 55.6C113.456 55.1307 113.328 54.64 113.221 54.128C113.115 53.616 113.019 53.0933 112.933 52.56C112.848 52.0267 112.741 51.4827 112.613 50.928C112.571 50.7787 112.432 50.6933 112.197 50.672C111.984 50.6507 111.728 50.7253 111.429 50.896C111.152 51.0453 110.853 51.2907 110.533 51.632C110.213 51.9733 109.925 52.4107 109.669 52.944C109.499 53.328 109.339 53.7333 109.189 54.16C109.04 54.5653 108.869 54.9813 108.677 55.408C108.507 55.8133 108.293 56.2187 108.037 56.624C107.803 57.008 107.515 57.36 107.173 57.68C107.067 57.7867 106.992 57.7973 106.949 57.712C106.907 57.6267 106.8 57.552 106.629 57.488C106.501 57.4453 106.427 57.4027 106.405 57.36C106.405 57.3173 106.373 57.1893 106.309 56.976C106.181 56.528 106.043 56.016 105.893 55.44C105.765 54.864 105.616 54.256 105.445 53.616C105.296 52.976 105.136 52.336 104.965 51.696C104.795 51.0347 104.624 50.416 104.453 49.84L104.261 49.264C104.304 49.1787 104.379 49.104 104.485 49.04C104.613 48.976 104.741 48.9227 104.869 48.88C104.997 48.8373 105.136 48.848 105.285 48.912C105.435 48.976 105.552 49.008 105.637 49.008C105.872 49.008 106.075 49.1573 106.245 49.456C106.437 49.7547 106.597 50.1387 106.725 50.608C106.853 51.056 106.949 51.5573 107.013 52.112C107.099 52.6453 107.152 53.1573 107.173 53.648ZM124.945 48.144C125.094 48.2933 125.233 48.464 125.361 48.656C125.489 48.8267 125.596 49.008 125.681 49.2C125.852 49.6053 125.937 50.0107 125.937 50.416C125.958 50.8 125.809 51.2693 125.489 51.824C125.126 52.4213 124.657 52.9227 124.081 53.328C123.526 53.7333 122.918 53.9893 122.257 54.096C121.788 54.1813 121.318 54.1813 120.849 54.096C120.38 53.9893 119.932 53.776 119.505 53.456C119.377 53.5627 119.27 53.7227 119.185 53.936C119.121 54.128 119.1 54.3093 119.121 54.48C119.164 54.7787 119.27 55.1093 119.441 55.472C119.633 55.8133 119.836 56.048 120.049 56.176C120.412 56.3253 120.913 56.336 121.553 56.208C122.214 56.08 122.908 55.888 123.633 55.632C124.38 55.3547 125.105 55.056 125.809 54.736C126.534 54.3947 127.153 54.1067 127.665 53.872C127.665 54 127.633 54.0853 127.569 54.128C127.526 54.1707 127.462 54.2453 127.377 54.352C127.27 54.4587 127.153 54.5867 127.025 54.736C126.897 54.8853 126.748 55.0133 126.577 55.12C126.364 55.248 126.204 55.4187 126.097 55.632C125.99 55.824 125.788 56.0053 125.489 56.176C125.084 56.3893 124.668 56.6133 124.241 56.848C123.836 57.0613 123.43 57.264 123.025 57.456C122.62 57.6267 122.204 57.7653 121.777 57.872C121.372 57.9573 120.966 57.9787 120.561 57.936C120.284 57.8933 120.049 57.8187 119.857 57.712C119.686 57.6053 119.473 57.4453 119.217 57.232C119.089 57.1253 118.94 57.0187 118.769 56.912C118.598 56.8053 118.47 56.6987 118.385 56.592C118.022 56.0587 117.777 55.4933 117.649 54.896C117.521 54.2773 117.489 53.6693 117.553 53.072C117.638 52.4533 117.798 51.856 118.033 51.28C118.268 50.6827 118.577 50.1387 118.961 49.648C119.174 49.3707 119.43 49.0933 119.729 48.816C120.049 48.5173 120.39 48.2613 120.753 48.048C121.137 47.8133 121.532 47.632 121.937 47.504C122.364 47.376 122.79 47.3227 123.217 47.344C123.388 47.3653 123.537 47.4187 123.665 47.504C123.814 47.568 123.974 47.6427 124.145 47.728C124.252 47.7707 124.38 47.8347 124.529 47.92C124.7 47.984 124.838 48.0587 124.945 48.144ZM124.017 50.032C123.974 49.84 123.857 49.6693 123.665 49.52C123.473 49.3707 123.26 49.2533 123.025 49.168C122.79 49.0613 122.556 48.9973 122.321 48.976C122.086 48.9547 121.916 48.9653 121.809 49.008C121.638 49.072 121.436 49.1893 121.201 49.36C120.988 49.5093 120.774 49.6907 120.561 49.904C120.369 50.1173 120.177 50.352 119.985 50.608C119.814 50.8427 119.686 51.0667 119.601 51.28C119.558 51.344 119.516 51.4507 119.473 51.6C119.452 51.728 119.462 51.824 119.505 51.888C119.761 52.208 120.145 52.368 120.657 52.368C121.148 52.368 121.67 52.2507 122.225 52.016C122.801 51.7813 123.206 51.536 123.441 51.28C123.462 51.2373 123.505 51.1627 123.569 51.056C123.654 50.9493 123.729 50.832 123.793 50.704C123.857 50.576 123.91 50.448 123.953 50.32C124.017 50.192 124.038 50.096 124.017 50.032ZM135.348 50.192C135.412 50.2987 135.433 50.4053 135.411 50.512C135.411 50.5973 135.401 50.672 135.38 50.736C135.209 50.928 135.07 51.056 134.964 51.12C134.857 51.184 134.676 51.28 134.42 51.408C134.356 51.4507 134.292 51.4933 134.228 51.536C134.185 51.5787 134.132 51.6 134.068 51.6C133.961 51.6 133.79 51.5147 133.556 51.344C133.342 51.1733 133.108 51.0027 132.852 50.832C132.596 50.6613 132.318 50.5333 132.02 50.448C131.742 50.3627 131.486 50.3947 131.252 50.544C131.017 50.864 130.793 51.28 130.58 51.792C130.366 52.2827 130.196 52.8053 130.068 53.36C129.961 53.9147 129.929 54.48 129.972 55.056C130.014 55.632 130.185 56.1653 130.484 56.656C131.721 56.784 132.82 56.5813 133.78 56.048C134.74 55.4933 135.625 54.8107 136.436 54C136.436 54.1493 136.393 54.288 136.308 54.416C136.244 54.5227 136.18 54.64 136.116 54.768C136.03 54.96 135.934 55.152 135.828 55.344C135.742 55.5147 135.614 55.6853 135.444 55.856C135.145 56.176 134.804 56.4853 134.42 56.784C134.057 57.0827 133.662 57.3493 133.236 57.584C132.83 57.7973 132.404 57.9573 131.956 58.064C131.529 58.192 131.102 58.2347 130.676 58.192C130.441 58.1707 130.27 58.1067 130.164 58C130.078 57.9147 129.918 57.8187 129.684 57.712C129.556 57.6267 129.385 57.552 129.172 57.488C128.98 57.424 128.83 57.3387 128.724 57.232C128.51 56.976 128.35 56.6667 128.243 56.304C128.094 55.8347 128.02 55.3227 128.02 54.768C128.02 54.2133 128.052 53.68 128.116 53.168C128.201 52.6347 128.308 52.1547 128.436 51.728C128.585 51.3013 128.713 50.9707 128.82 50.736C128.948 50.4587 129.14 50.224 129.396 50.032C129.652 49.8187 129.929 49.6267 130.228 49.456C130.548 49.2853 130.868 49.1253 131.188 48.976C131.508 48.8267 131.806 48.688 132.084 48.56C133.172 48.56 134.26 49.104 135.348 50.192ZM149.479 50.928C149.522 50.9707 149.554 50.992 149.575 50.992C149.597 50.992 149.607 51.0133 149.607 51.056C149.586 51.0987 149.533 51.152 149.447 51.216C149.383 51.2587 149.255 51.2907 149.063 51.312C148.999 51.3333 148.914 51.376 148.807 51.44C148.701 51.4827 148.615 51.5147 148.551 51.536C147.975 51.664 147.293 51.7813 146.503 51.888C145.735 51.9947 144.935 52.0907 144.103 52.176C144.061 52.9227 144.039 53.616 144.039 54.256C144.061 54.896 144.093 55.4507 144.135 55.92C144.178 56.2827 144.349 56.464 144.647 56.464C144.946 56.4427 145.255 56.3787 145.575 56.272C145.661 56.2507 145.885 56.1547 146.247 55.984C146.631 55.792 147.069 55.5787 147.559 55.344C148.071 55.088 148.605 54.8213 149.159 54.544C149.714 54.2453 150.215 53.9787 150.663 53.744C150.663 54.0427 150.503 54.3307 150.183 54.608C150.013 54.7573 149.821 54.896 149.607 55.024C149.415 55.152 149.213 55.2907 148.999 55.44C148.765 55.5893 148.605 55.7493 148.519 55.92C148.434 56.0907 148.242 56.272 147.943 56.464C147.389 56.8267 146.791 57.1573 146.151 57.456C145.511 57.7547 144.935 57.968 144.423 58.096C144.253 58.1387 144.071 58.16 143.879 58.16C143.709 58.16 143.538 58.192 143.367 58.256C143.111 58.3627 142.909 58.3413 142.759 58.192C142.631 58.0427 142.546 57.8293 142.503 57.552C142.418 56.7627 142.354 55.92 142.311 55.024C142.29 54.128 142.29 53.2213 142.311 52.304C141.671 52.3467 141.074 52.368 140.519 52.368C139.986 52.3467 139.549 52.304 139.207 52.24C138.887 52.1973 138.589 52.1333 138.311 52.048C138.055 51.9413 137.821 51.7813 137.607 51.568C137.415 51.568 137.351 51.4827 137.415 51.312C137.501 51.12 137.565 50.96 137.607 50.832C138.055 50.8107 138.706 50.7893 139.559 50.768C140.434 50.7253 141.373 50.6827 142.375 50.64C142.461 48.8693 142.61 47.2267 142.823 45.712C143.037 44.1973 143.293 43.0667 143.591 42.32C143.591 42.128 143.666 42 143.815 41.936C143.986 41.8507 144.157 41.7547 144.327 41.648C144.413 41.6053 144.498 41.552 144.583 41.488C144.69 41.4027 144.829 41.36 144.999 41.36C145.191 41.4667 145.33 41.5627 145.415 41.648C145.501 41.712 145.543 41.7973 145.543 41.904C145.543 42.0107 145.511 42.1387 145.447 42.288C145.383 42.4373 145.309 42.6293 145.223 42.864C145.181 42.928 145.117 43.1947 145.031 43.664C144.946 44.1333 144.85 44.7307 144.743 45.456C144.658 46.16 144.562 46.9707 144.455 47.888C144.349 48.784 144.263 49.6907 144.199 50.608C144.903 50.608 145.575 50.6187 146.215 50.64C146.855 50.64 147.421 50.6613 147.911 50.704L149.479 50.928ZM2.08 88.208C2.208 88.7627 2.26133 89.3387 2.24 89.936C2.21867 90.5333 2.18667 91.1413 2.144 91.76C2.12267 92.3573 2.12267 92.9653 2.144 93.584C2.18667 94.1813 2.34667 94.7467 2.624 95.28C3.11467 94.064 3.78667 92.9653 4.64 91.984C5.49333 90.9813 6.4 90.0853 7.36 89.296C7.488 89.1893 7.616 89.1253 7.744 89.104C7.89333 89.0613 8.032 89.0187 8.16 88.976C8.26667 88.9333 8.36267 88.9013 8.448 88.88C8.55467 88.8373 8.69333 88.8587 8.864 88.944C9.29067 89.1787 9.536 89.6267 9.6 90.288C9.664 90.9493 9.696 91.888 9.696 93.104C10.016 92.784 10.336 92.432 10.656 92.048C10.9973 91.6427 11.3387 91.2587 11.68 90.896C12.0213 90.5333 12.3733 90.2133 12.736 89.936C13.0987 89.6587 13.4827 89.456 13.888 89.328C14.016 89.2853 14.144 89.2853 14.272 89.328C14.4213 89.3493 14.56 89.36 14.688 89.36C14.7733 89.36 14.848 89.3493 14.912 89.328C14.976 89.2853 15.0507 89.2747 15.136 89.296C15.264 89.3173 15.3707 89.3813 15.456 89.488C15.5627 89.5947 15.6373 89.712 15.68 89.84C15.7653 90.16 15.8827 90.608 16.032 91.184C16.1813 91.7387 16.3093 92.3147 16.416 92.912C16.544 93.488 16.64 94.032 16.704 94.544C16.768 95.056 16.768 95.4187 16.704 95.632C16.6613 95.824 16.608 95.952 16.544 96.016C16.5013 96.08 16.3947 96.1973 16.224 96.368C16.1813 96.368 16.128 96.4 16.064 96.464C16.0213 96.528 15.968 96.592 15.904 96.656C15.8187 96.7413 15.744 96.8267 15.68 96.912C15.4027 96.5067 15.1893 96.0693 15.04 95.6C14.8907 95.1307 14.7627 94.64 14.656 94.128C14.5493 93.616 14.4533 93.0933 14.368 92.56C14.2827 92.0267 14.176 91.4827 14.048 90.928C13.4293 91.248 12.9387 91.6213 12.576 92.048C12.2347 92.4533 11.9573 92.8907 11.744 93.36C11.5307 93.808 11.3387 94.2667 11.168 94.736C10.9973 95.2053 10.784 95.6533 10.528 96.08C10.2933 96.4427 10.0587 96.7307 9.824 96.944C9.58933 97.1573 9.39733 97.2533 9.248 97.232C9.12 97.2107 9.024 97.0933 8.96 96.88C8.896 96.6667 8.81067 96.3467 8.704 95.92C8.49067 95.0453 8.288 94.1067 8.096 93.104C7.92533 92.1013 7.73333 91.1947 7.52 90.384C7.11467 90.512 6.70933 90.7467 6.304 91.088C5.92 91.408 5.55733 91.792 5.216 92.24C4.87467 92.6667 4.56533 93.1467 4.288 93.68C4.032 94.2133 3.84 94.7467 3.712 95.28C3.98933 95.8347 4 96.2933 3.744 96.656C3.63733 96.8267 3.488 96.976 3.296 97.104C3.104 97.2107 2.88 97.328 2.624 97.456C2.47467 97.6053 2.31467 97.6587 2.144 97.616C1.97333 97.5733 1.83467 97.4773 1.728 97.328C1.62133 97.1573 1.55733 97.0187 1.536 96.912C1.408 96.2293 1.28 95.5253 1.152 94.8C1.024 94.0533 0.938667 93.3067 0.896 92.56C0.874667 91.8133 0.906667 91.0773 0.992 90.352C1.07733 89.6053 1.25867 88.8907 1.536 88.208C1.57867 88.08 1.62133 88.016 1.664 88.016C1.70667 88.016 1.74933 88.0373 1.792 88.08C1.83467 88.1013 1.87733 88.1227 1.92 88.144C1.96267 88.1653 1.984 88.176 1.984 88.176C2.00533 88.176 2.03733 88.1867 2.08 88.208ZM26.6818 88.56C26.9591 89.2427 27.2151 89.9787 27.4498 90.768C27.7058 91.5573 27.8764 92.3467 27.9618 93.136C28.0684 93.904 28.0684 94.6507 27.9618 95.376C27.8764 96.1013 27.6311 96.7307 27.2258 97.264C27.0551 97.4773 26.8524 97.5627 26.6178 97.52C26.5324 97.4987 26.4578 97.4453 26.3938 97.36C26.3298 97.2747 26.2444 97.2 26.1378 97.136C26.0524 97.072 25.9564 97.0187 25.8498 96.976C25.7644 96.9333 25.6791 96.848 25.5938 96.72C25.2738 96.8267 24.9538 96.9867 24.6338 97.2C24.3351 97.392 24.0258 97.5947 23.7058 97.808C23.3858 98.0213 23.0551 98.224 22.7138 98.416C22.3724 98.6293 22.0204 98.7787 21.6578 98.864C21.2738 98.9707 20.9858 98.9493 20.7938 98.8C20.6231 98.672 20.4311 98.5227 20.2178 98.352C20.0684 98.224 19.9724 98.1387 19.9298 98.096C19.8871 98.0747 19.8444 97.9467 19.8018 97.712C19.7378 97.2427 19.7271 96.7413 19.7698 96.208C19.8338 95.6533 19.9618 95.0987 20.1538 94.544C20.6871 92.9227 21.7751 91.8347 23.4178 91.28C23.6098 91.216 23.8018 91.2053 23.9938 91.248C24.2071 91.2693 24.4098 91.3227 24.6018 91.408C24.7938 91.4933 24.9751 91.6 25.1458 91.728C25.3378 91.856 25.5084 91.984 25.6578 92.112L26.1698 92.528C26.2764 92.1653 26.2658 91.7813 26.1378 91.376C26.0311 90.9493 25.8604 90.5547 25.6258 90.192C25.3911 89.808 25.1244 89.4667 24.8258 89.168C24.5271 88.8693 24.2391 88.6667 23.9618 88.56C22.8738 88.56 21.8924 88.816 21.0178 89.328C20.1644 89.8187 19.3324 90.4693 18.5218 91.28C18.4791 91.3227 18.4258 91.3547 18.3618 91.376C18.3191 91.3973 18.2764 91.4187 18.2338 91.44C18.1698 91.4827 18.0951 91.4933 18.0098 91.472C17.9458 91.4507 17.9351 91.3867 17.9778 91.28C18.1058 90.5973 18.3618 89.9893 18.7458 89.456C19.1298 88.9013 19.5778 88.4213 20.0898 88.016C20.6018 87.6107 21.1458 87.2693 21.7218 86.992C22.2978 86.7147 22.8631 86.512 23.4178 86.384C23.5031 86.3413 23.5778 86.32 23.6418 86.32C23.7271 86.2987 23.8231 86.288 23.9298 86.288C24.0791 86.288 24.2178 86.3307 24.3458 86.416C24.4738 86.5013 24.6231 86.5973 24.7938 86.704C25.0071 86.8107 25.2204 86.9387 25.4338 87.088C25.6471 87.216 25.8391 87.376 26.0098 87.568C26.1591 87.7387 26.2871 87.9093 26.3938 88.08C26.5004 88.2507 26.5964 88.4107 26.6818 88.56ZM25.5938 94.256C25.4658 93.9787 25.2631 93.7227 24.9858 93.488C24.7298 93.2533 24.4311 93.0827 24.0898 92.976C23.7484 92.848 23.3751 92.816 22.9698 92.88C22.5858 92.944 22.1911 93.136 21.7858 93.456C21.6578 93.7333 21.5298 94.0427 21.4018 94.384C21.2738 94.704 21.1778 95.0347 21.1138 95.376C21.0498 95.696 21.0178 96.0267 21.0178 96.368C21.0391 96.688 21.1138 96.9867 21.2418 97.264C22.0524 96.9867 22.8418 96.6667 23.6098 96.304C24.3778 95.9413 25.0391 95.6213 25.5938 95.344C25.7218 95.216 25.7964 95.1093 25.8177 95.024C25.8391 94.9387 25.8284 94.864 25.7858 94.8C25.7644 94.736 25.7218 94.6613 25.6578 94.576C25.6151 94.4907 25.5938 94.384 25.5938 94.256ZM31.269 84.304C31.5463 84.7733 31.7383 85.2533 31.845 85.744C31.973 86.2347 32.069 86.7787 32.133 87.376C32.2183 87.9733 32.3037 88.6453 32.389 89.392C32.4957 90.1173 32.6663 90.96 32.901 91.92C33.157 91.3653 33.4983 90.7147 33.925 89.968C34.373 89.2213 34.8743 88.5387 35.429 87.92C35.621 87.6853 35.8557 87.4933 36.133 87.344C36.4317 87.1947 36.709 87.056 36.965 86.928C37.1143 86.8427 37.2423 86.7573 37.349 86.672C37.477 86.5867 37.6263 86.5227 37.797 86.48C37.6903 86.6933 37.5837 86.8853 37.477 87.056C37.3917 87.2053 37.2957 87.3653 37.189 87.536C36.933 87.8773 36.645 88.272 36.325 88.72C36.0263 89.168 35.7277 89.6373 35.429 90.128C35.1517 90.5973 34.885 91.056 34.629 91.504C34.3943 91.9307 34.213 92.304 34.085 92.624L35.077 91.92C35.5037 91.6427 35.941 91.5253 36.389 91.568C36.6663 91.5893 36.9437 91.6747 37.221 91.824C37.5197 91.952 37.797 92.112 38.053 92.304C38.309 92.496 38.5543 92.7093 38.789 92.944C39.0237 93.1573 39.237 93.36 39.429 93.552C39.8557 93.7653 40.2823 94.096 40.709 94.544C41.1357 94.992 41.5197 95.3973 41.861 95.76C41.9677 95.8667 42.0103 95.9627 41.989 96.048C41.9677 96.1333 41.989 96.2613 42.053 96.432C42.0957 96.5387 42.1063 96.6773 42.085 96.848C42.0637 97.0187 42.021 97.168 41.957 97.296C41.8717 97.4667 41.8183 97.616 41.797 97.744C41.797 97.8507 41.7757 97.9147 41.733 97.936C41.221 97.488 40.6557 97.008 40.037 96.496C39.4397 95.984 38.8317 95.504 38.213 95.056C37.6157 94.5867 37.0397 94.1707 36.485 93.808C35.9517 93.4453 35.4823 93.1787 35.077 93.008C34.821 92.8587 34.5117 92.944 34.149 93.264C33.7863 93.584 33.5517 94.0427 33.445 94.64C33.445 94.832 33.445 95.056 33.445 95.312C33.4663 95.5467 33.4237 95.8027 33.317 96.08C33.2743 96.1867 33.2423 96.3467 33.221 96.56C33.221 96.752 33.1357 96.8907 32.965 96.976L32.421 97.648C32.0157 96.56 31.6637 95.4293 31.365 94.256C31.0877 93.0827 30.8423 91.8987 30.629 90.704C30.4157 89.5093 30.2237 88.3253 30.053 87.152C29.9037 85.9787 29.765 84.848 29.637 83.76L29.573 83.12C29.573 82.9707 29.573 82.8853 29.573 82.864C29.5943 82.8213 29.7223 82.7893 29.957 82.768C30.021 82.8107 30.117 82.8853 30.245 82.992C30.3943 83.0773 30.501 83.1733 30.565 83.28C30.6717 83.4293 30.789 83.5573 30.917 83.664C31.045 83.7707 31.1623 83.984 31.269 84.304ZM50.57 88.144C50.7193 88.2933 50.858 88.464 50.986 88.656C51.114 88.8267 51.2207 89.008 51.306 89.2C51.4767 89.6053 51.562 90.0107 51.562 90.416C51.5833 90.8 51.434 91.2693 51.114 91.824C50.7513 92.4213 50.282 92.9227 49.706 93.328C49.1513 93.7333 48.5433 93.9893 47.882 94.096C47.4127 94.1813 46.9433 94.1813 46.474 94.096C46.0047 93.9893 45.5567 93.776 45.13 93.456C45.002 93.5627 44.8953 93.7227 44.81 93.936C44.746 94.128 44.7247 94.3093 44.746 94.48C44.7887 94.7787 44.8953 95.1093 45.066 95.472C45.258 95.8133 45.4607 96.048 45.674 96.176C46.0367 96.3253 46.538 96.336 47.178 96.208C47.8393 96.08 48.5327 95.888 49.258 95.632C50.0047 95.3547 50.73 95.056 51.434 94.736C52.1593 94.3947 52.778 94.1067 53.29 93.872C53.29 94 53.258 94.0853 53.194 94.128C53.1513 94.1707 53.0873 94.2453 53.002 94.352C52.8953 94.4587 52.778 94.5867 52.65 94.736C52.522 94.8853 52.3727 95.0133 52.202 95.12C51.9887 95.248 51.8287 95.4187 51.722 95.632C51.6153 95.824 51.4127 96.0053 51.114 96.176C50.7087 96.3893 50.2927 96.6133 49.866 96.848C49.4607 97.0613 49.0553 97.264 48.65 97.456C48.2447 97.6267 47.8287 97.7653 47.402 97.872C46.9967 97.9573 46.5913 97.9787 46.186 97.936C45.9087 97.8933 45.674 97.8187 45.482 97.712C45.3113 97.6053 45.098 97.4453 44.842 97.232C44.714 97.1253 44.5647 97.0187 44.394 96.912C44.2233 96.8053 44.0953 96.6987 44.01 96.592C43.6473 96.0587 43.402 95.4933 43.274 94.896C43.146 94.2773 43.114 93.6693 43.178 93.072C43.2633 92.4533 43.4233 91.856 43.658 91.28C43.8927 90.6827 44.202 90.1387 44.586 89.648C44.7993 89.3707 45.0553 89.0933 45.354 88.816C45.674 88.5173 46.0153 88.2613 46.378 88.048C46.762 87.8133 47.1567 87.632 47.562 87.504C47.9887 87.376 48.4153 87.3227 48.842 87.344C49.0127 87.3653 49.162 87.4187 49.29 87.504C49.4393 87.568 49.5993 87.6427 49.77 87.728C49.8767 87.7707 50.0047 87.8347 50.154 87.92C50.3247 87.984 50.4633 88.0587 50.57 88.144ZM49.642 90.032C49.5993 89.84 49.482 89.6693 49.29 89.52C49.098 89.3707 48.8847 89.2533 48.65 89.168C48.4153 89.0613 48.1807 88.9973 47.946 88.976C47.7113 88.9547 47.5407 88.9653 47.434 89.008C47.2633 89.072 47.0607 89.1893 46.826 89.36C46.6127 89.5093 46.3993 89.6907 46.186 89.904C45.994 90.1173 45.802 90.352 45.61 90.608C45.4393 90.8427 45.3113 91.0667 45.226 91.28C45.1833 91.344 45.1407 91.4507 45.098 91.6C45.0767 91.728 45.0873 91.824 45.13 91.888C45.386 92.208 45.77 92.368 46.282 92.368C46.7727 92.368 47.2953 92.2507 47.85 92.016C48.426 91.7813 48.8313 91.536 49.066 91.28C49.0873 91.2373 49.13 91.1627 49.194 91.056C49.2793 90.9493 49.354 90.832 49.418 90.704C49.482 90.576 49.5353 90.448 49.578 90.32C49.642 90.192 49.6633 90.096 49.642 90.032ZM61.7725 89.328C61.6658 89.648 61.5805 89.8933 61.5165 90.064C61.4525 90.2347 61.3565 90.256 61.2285 90.128C60.9298 89.8293 60.5672 89.5093 60.1405 89.168C59.7138 88.8267 59.1912 88.6133 58.5725 88.528C58.1672 88.4853 57.7298 88.5387 57.2605 88.688C56.8125 88.816 56.4712 89.104 56.2365 89.552C56.0232 89.936 55.9912 90.3947 56.1405 90.928C56.2685 91.4827 56.5458 91.888 56.9725 92.144C57.4205 92.3787 57.9112 92.5707 58.4445 92.72C58.9992 92.848 59.5538 92.9653 60.1085 93.072C60.6845 93.1787 61.1752 93.3707 61.5805 93.648C61.7085 93.712 61.8045 93.8187 61.8685 93.968C61.9538 94.096 62.0392 94.2133 62.1245 94.32C62.2312 94.448 62.3272 94.5547 62.4125 94.64C62.5192 94.7253 62.6152 94.8533 62.7005 95.024C62.7645 95.152 62.8392 95.312 62.9245 95.504C63.0098 95.6747 63.0312 95.8667 62.9885 96.08C62.9245 96.3573 62.6578 96.656 62.1885 96.976C61.1645 97.6373 60.0872 98.16 58.9565 98.544C57.8258 98.9493 56.6312 99.024 55.3725 98.768C55.2232 98.7253 55.0525 98.576 54.8605 98.32C54.6685 98.0853 54.5085 97.9253 54.3805 97.84C54.0392 97.648 53.8045 97.4027 53.6765 97.104C53.5058 96.5493 53.4205 95.9413 53.4205 95.28C53.4205 95.0667 53.4525 94.9707 53.5165 94.992C53.6018 94.992 53.6765 94.992 53.7405 94.992C53.8685 94.992 54.0072 95.0773 54.1565 95.248C54.3272 95.4187 54.4978 95.6213 54.6685 95.856C54.8605 96.0693 55.0312 96.272 55.1805 96.464C55.3512 96.6347 55.4898 96.72 55.5965 96.72C55.9592 96.8907 56.3965 96.9867 56.9085 97.008C57.4205 97.0293 57.9325 96.9867 58.4445 96.88C58.9778 96.752 59.4685 96.56 59.9165 96.304C60.3858 96.0267 60.7592 95.6853 61.0365 95.28C61.0365 95.1733 60.9085 95.0453 60.6525 94.896C60.4178 94.7467 60.1085 94.5867 59.7245 94.416C59.3405 94.224 58.9138 94.032 58.4445 93.84C57.9965 93.648 57.5592 93.4453 57.1325 93.232C56.7272 93.0187 56.3645 92.7947 56.0445 92.56C55.7458 92.3253 55.5432 92.0907 55.4365 91.856C55.3725 91.6853 55.2978 91.5147 55.2125 91.344C55.1272 91.152 55.0738 91.0133 55.0525 90.928C54.9458 90.4587 54.9245 90.0107 54.9885 89.584C55.0525 89.136 55.1805 88.7413 55.3725 88.4C55.5645 88.0587 55.8205 87.7813 56.1405 87.568C56.4605 87.3333 56.8232 87.184 57.2285 87.12C57.8685 87.0347 58.5512 87.0347 59.2765 87.12C60.0232 87.184 60.6845 87.4293 61.2605 87.856C61.4312 88.0053 61.5485 88.144 61.6125 88.272C61.6978 88.4 61.7618 88.5493 61.8045 88.72C61.8258 88.8267 61.8472 88.9333 61.8685 89.04C61.8898 89.1253 61.8578 89.2213 61.7725 89.328ZM77.7443 87.472C77.9149 87.6427 77.9789 87.7813 77.9363 87.888C77.9149 87.9947 77.8509 88.0373 77.7443 88.016C77.4669 88.016 77.1576 88.048 76.8163 88.112C76.4963 88.1547 76.1443 88.1973 75.7603 88.24C75.3976 88.2613 75.0136 88.2613 74.6083 88.24C74.2029 88.2187 73.7976 88.144 73.3923 88.016C73.2216 87.8453 73.2216 87.696 73.3923 87.568C73.5843 87.4187 73.7336 87.2053 73.8403 86.928C73.9043 86.736 73.9896 86.608 74.0963 86.544C74.2243 86.4587 74.3523 86.4053 74.4803 86.384C74.7149 86.384 75.0029 86.4373 75.3443 86.544C75.7069 86.6293 76.0056 86.6827 76.2403 86.704C76.6029 86.7467 76.9016 86.8107 77.1363 86.896C77.3709 86.96 77.5736 87.152 77.7443 87.472ZM77.0723 91.824C77.2003 92.3147 77.2963 92.7627 77.3602 93.168C77.4456 93.5733 77.4989 93.968 77.5203 94.352C77.5629 94.7147 77.5843 95.088 77.5843 95.472C77.6056 95.856 77.6163 96.272 77.6163 96.72C77.6163 96.8053 77.5629 96.9013 77.4563 97.008C77.3709 97.0933 77.3069 97.1893 77.2643 97.296C77.1789 97.488 77.1043 97.6053 77.0403 97.648C76.9976 97.6907 76.9123 97.744 76.7843 97.808C76.4856 97.936 76.2189 98.1173 75.9843 98.352C75.7069 97.9467 75.5149 97.4773 75.4083 96.944C75.3229 96.4107 75.2589 95.856 75.2163 95.28C75.1949 94.704 75.1629 94.128 75.1203 93.552C75.0989 92.9547 75.0243 92.3787 74.8963 91.824C74.8323 91.5253 74.8536 91.3227 74.9603 91.216C75.0669 91.1093 75.1843 91.0347 75.3123 90.992C75.4616 90.9493 75.6216 90.9813 75.7923 91.088C75.9843 91.1947 76.1656 91.3013 76.3363 91.408C76.4856 91.4933 76.6243 91.5467 76.7523 91.568C76.9016 91.568 77.0083 91.6533 77.0723 91.824ZM91.8543 90.928C91.8969 90.9707 91.9289 90.992 91.9503 90.992C91.9716 90.992 91.9823 91.0133 91.9823 91.056C91.9609 91.0987 91.9076 91.152 91.8223 91.216C91.7583 91.2587 91.6303 91.2907 91.4383 91.312C91.3743 91.3333 91.2889 91.376 91.1823 91.44C91.0756 91.4827 90.9903 91.5147 90.9263 91.536C90.3503 91.664 89.6676 91.7813 88.8783 91.888C88.1103 91.9947 87.3103 92.0907 86.4783 92.176C86.4356 92.9227 86.4143 93.616 86.4143 94.256C86.4356 94.896 86.4676 95.4507 86.5103 95.92C86.5529 96.2827 86.7236 96.464 87.0223 96.464C87.3209 96.4427 87.6303 96.3787 87.9503 96.272C88.0356 96.2507 88.2596 96.1547 88.6223 95.984C89.0063 95.792 89.4436 95.5787 89.9343 95.344C90.4463 95.088 90.9796 94.8213 91.5343 94.544C92.0889 94.2453 92.5903 93.9787 93.0383 93.744C93.0383 94.0427 92.8783 94.3307 92.5583 94.608C92.3876 94.7573 92.1956 94.896 91.9823 95.024C91.7903 95.152 91.5876 95.2907 91.3743 95.44C91.1396 95.5893 90.9796 95.7493 90.8943 95.92C90.8089 96.0907 90.6169 96.272 90.3183 96.464C89.7636 96.8267 89.1663 97.1573 88.5263 97.456C87.8863 97.7547 87.3103 97.968 86.7983 98.096C86.6276 98.1387 86.4463 98.16 86.2543 98.16C86.0836 98.16 85.9129 98.192 85.7423 98.256C85.4863 98.3627 85.2836 98.3413 85.1343 98.192C85.0063 98.0427 84.9209 97.8293 84.8783 97.552C84.7929 96.7627 84.7289 95.92 84.6863 95.024C84.6649 94.128 84.6649 93.2213 84.6863 92.304C84.0463 92.3467 83.4489 92.368 82.8943 92.368C82.3609 92.3467 81.9236 92.304 81.5823 92.24C81.2623 92.1973 80.9636 92.1333 80.6863 92.048C80.4303 91.9413 80.1956 91.7813 79.9823 91.568C79.7903 91.568 79.7263 91.4827 79.7903 91.312C79.8756 91.12 79.9396 90.96 79.9823 90.832C80.4303 90.8107 81.0809 90.7893 81.9343 90.768C82.8089 90.7253 83.7476 90.6827 84.7503 90.64C84.8356 88.8693 84.9849 87.2267 85.1983 85.712C85.4116 84.1973 85.6676 83.0667 85.9663 82.32C85.9663 82.128 86.0409 82 86.1903 81.936C86.3609 81.8507 86.5316 81.7547 86.7023 81.648C86.7876 81.6053 86.8729 81.552 86.9583 81.488C87.0649 81.4027 87.2036 81.36 87.3743 81.36C87.5663 81.4667 87.7049 81.5627 87.7903 81.648C87.8756 81.712 87.9183 81.7973 87.9183 81.904C87.9183 82.0107 87.8863 82.1387 87.8223 82.288C87.7583 82.4373 87.6836 82.6293 87.5983 82.864C87.5556 82.928 87.4916 83.1947 87.4062 83.664C87.3209 84.1333 87.2249 84.7307 87.1183 85.456C87.0329 86.16 86.9369 86.9707 86.8303 87.888C86.7236 88.784 86.6383 89.6907 86.5743 90.608C87.2783 90.608 87.9502 90.6187 88.5903 90.64C89.2303 90.64 89.7956 90.6613 90.2863 90.704L91.8543 90.928ZM113.82 85.424C113.777 85.5093 113.777 85.5733 113.82 85.616C113.863 85.6587 113.863 85.7013 113.82 85.744C113.756 85.7867 113.639 85.8187 113.468 85.84C113.319 85.84 113.191 85.8507 113.084 85.872C112.935 85.9147 112.785 85.936 112.636 85.936C112.487 85.9147 112.327 85.8507 112.156 85.744C111.9 85.616 111.58 85.4987 111.196 85.392C110.833 85.264 110.439 85.2 110.012 85.2C109.457 85.2 108.871 85.264 108.252 85.392C107.633 85.4987 107.036 85.6587 106.46 85.872C105.905 86.064 105.404 86.3093 104.956 86.608C104.529 86.9067 104.22 87.2373 104.028 87.6C103.9 87.8773 103.847 88.176 103.868 88.496C103.889 88.7947 103.964 89.0827 104.092 89.36C104.22 89.6373 104.369 89.8933 104.54 90.128C104.732 90.3413 104.913 90.4907 105.084 90.576C105.617 90.8533 106.204 91.0347 106.844 91.12C107.505 91.2053 108.177 91.2587 108.86 91.28C109.564 91.3013 110.257 91.3333 110.94 91.376C111.623 91.4187 112.252 91.5253 112.828 91.696C113.127 91.8027 113.404 91.888 113.66 91.952C113.937 92.016 114.183 92.112 114.396 92.24C114.609 92.3467 114.801 92.5067 114.972 92.72C115.164 92.912 115.324 93.2 115.452 93.584C115.644 94.3947 115.601 95.184 115.324 95.952C115.047 96.7413 114.588 97.4347 113.948 98.032C113.308 98.6507 112.583 99.1413 111.772 99.504C111.132 99.7813 110.471 99.9627 109.788 100.048C109.127 100.155 108.476 100.144 107.836 100.016C107.217 99.888 106.641 99.6427 106.108 99.28C105.596 98.9173 105.18 98.416 104.86 97.776C104.668 97.3707 104.572 96.88 104.572 96.304C104.551 96.24 104.551 96.176 104.572 96.112C104.615 95.9627 104.753 95.888 104.988 95.888C105.073 95.8453 105.18 95.8773 105.308 95.984C105.457 96.0693 105.564 96.1227 105.628 96.144C105.799 96.1653 105.959 96.2827 106.108 96.496C106.279 96.688 106.439 96.848 106.588 96.976C107.121 97.5307 107.719 97.872 108.38 98C109.063 98.1067 109.713 98.1067 110.332 98C110.972 97.872 111.559 97.68 112.092 97.424C112.625 97.168 113.02 96.9333 113.276 96.72C113.425 96.592 113.585 96.4427 113.756 96.272C113.948 96.08 114.129 95.8773 114.3 95.664C114.471 95.4293 114.609 95.184 114.716 94.928C114.844 94.672 114.908 94.4053 114.908 94.128C114.844 93.872 114.673 93.68 114.396 93.552C114.119 93.4027 113.767 93.2853 113.34 93.2C112.593 93.072 111.857 93.008 111.132 93.008C110.407 92.9867 109.692 92.9867 108.988 93.008C108.284 93.0293 107.591 93.04 106.908 93.04C106.225 93.04 105.564 92.9653 104.924 92.816C104.732 92.7733 104.54 92.7093 104.348 92.624C104.177 92.5173 104.007 92.4107 103.836 92.304C103.665 92.1973 103.537 92.0587 103.452 91.888C103.367 91.7173 103.271 91.536 103.164 91.344C103.057 91.152 102.951 90.96 102.844 90.768C102.759 90.5547 102.695 90.3307 102.652 90.096C102.545 89.4133 102.545 88.7093 102.652 87.984C102.78 87.2587 103.057 86.5867 103.484 85.968C103.825 85.456 104.284 85.0187 104.86 84.656C105.457 84.272 106.119 83.984 106.844 83.792C107.591 83.5787 108.38 83.4827 109.212 83.504C110.044 83.504 110.897 83.632 111.772 83.888C111.879 83.9307 112.007 83.9947 112.156 84.08C112.305 84.144 112.433 84.1973 112.54 84.24C112.839 84.3893 113.105 84.5707 113.34 84.784C113.575 84.9973 113.735 85.2107 113.82 85.424ZM121.619 87.472C121.79 87.6427 121.854 87.7813 121.811 87.888C121.79 87.9947 121.726 88.0373 121.619 88.016C121.342 88.016 121.033 88.048 120.691 88.112C120.371 88.1547 120.019 88.1973 119.635 88.24C119.273 88.2613 118.889 88.2613 118.483 88.24C118.078 88.2187 117.673 88.144 117.267 88.016C117.097 87.8453 117.097 87.696 117.267 87.568C117.459 87.4187 117.609 87.2053 117.715 86.928C117.779 86.736 117.865 86.608 117.971 86.544C118.099 86.4587 118.227 86.4053 118.355 86.384C118.59 86.384 118.878 86.4373 119.219 86.544C119.582 86.6293 119.881 86.6827 120.115 86.704C120.478 86.7467 120.777 86.8107 121.011 86.896C121.246 86.96 121.449 87.152 121.619 87.472ZM120.947 91.824C121.075 92.3147 121.171 92.7627 121.235 93.168C121.321 93.5733 121.374 93.968 121.395 94.352C121.438 94.7147 121.459 95.088 121.459 95.472C121.481 95.856 121.491 96.272 121.491 96.72C121.491 96.8053 121.438 96.9013 121.331 97.008C121.246 97.0933 121.182 97.1893 121.139 97.296C121.054 97.488 120.979 97.6053 120.915 97.648C120.873 97.6907 120.787 97.744 120.659 97.808C120.361 97.936 120.094 98.1173 119.859 98.352C119.582 97.9467 119.39 97.4773 119.283 96.944C119.198 96.4107 119.134 95.856 119.091 95.28C119.07 94.704 119.038 94.128 118.995 93.552C118.974 92.9547 118.899 92.3787 118.771 91.824C118.707 91.5253 118.729 91.3227 118.835 91.216C118.942 91.1093 119.059 91.0347 119.187 90.992C119.337 90.9493 119.497 90.9813 119.667 91.088C119.859 91.1947 120.041 91.3013 120.211 91.408C120.361 91.4933 120.499 91.5467 120.627 91.568C120.777 91.568 120.883 91.6533 120.947 91.824ZM125.361 88.208C125.489 88.7627 125.543 89.3387 125.521 89.936C125.5 90.5333 125.468 91.1413 125.425 91.76C125.404 92.3573 125.404 92.9653 125.425 93.584C125.468 94.1813 125.628 94.7467 125.905 95.28C126.396 94.064 127.068 92.9653 127.921 91.984C128.775 90.9813 129.681 90.0853 130.641 89.296C130.769 89.1893 130.897 89.1253 131.025 89.104C131.175 89.0613 131.313 89.0187 131.441 88.976C131.548 88.9333 131.644 88.9013 131.729 88.88C131.836 88.8373 131.975 88.8587 132.145 88.944C132.572 89.1787 132.817 89.6267 132.881 90.288C132.945 90.9493 132.977 91.888 132.977 93.104C133.297 92.784 133.617 92.432 133.937 92.048C134.279 91.6427 134.62 91.2587 134.961 90.896C135.303 90.5333 135.655 90.2133 136.017 89.936C136.38 89.6587 136.764 89.456 137.169 89.328C137.297 89.2853 137.425 89.2853 137.553 89.328C137.703 89.3493 137.841 89.36 137.969 89.36C138.055 89.36 138.129 89.3493 138.193 89.328C138.257 89.2853 138.332 89.2747 138.417 89.296C138.545 89.3173 138.652 89.3813 138.737 89.488C138.844 89.5947 138.919 89.712 138.961 89.84C139.047 90.16 139.164 90.608 139.313 91.184C139.463 91.7387 139.591 92.3147 139.697 92.912C139.825 93.488 139.921 94.032 139.985 94.544C140.049 95.056 140.049 95.4187 139.985 95.632C139.943 95.824 139.889 95.952 139.825 96.016C139.783 96.08 139.676 96.1973 139.505 96.368C139.463 96.368 139.409 96.4 139.345 96.464C139.303 96.528 139.249 96.592 139.185 96.656C139.1 96.7413 139.025 96.8267 138.961 96.912C138.684 96.5067 138.471 96.0693 138.321 95.6C138.172 95.1307 138.044 94.64 137.937 94.128C137.831 93.616 137.735 93.0933 137.649 92.56C137.564 92.0267 137.457 91.4827 137.329 90.928C136.711 91.248 136.22 91.6213 135.857 92.048C135.516 92.4533 135.239 92.8907 135.025 93.36C134.812 93.808 134.62 94.2667 134.449 94.736C134.279 95.2053 134.065 95.6533 133.809 96.08C133.575 96.4427 133.34 96.7307 133.105 96.944C132.871 97.1573 132.679 97.2533 132.529 97.232C132.401 97.2107 132.305 97.0933 132.241 96.88C132.177 96.6667 132.092 96.3467 131.985 95.92C131.772 95.0453 131.569 94.1067 131.377 93.104C131.207 92.1013 131.015 91.1947 130.801 90.384C130.396 90.512 129.991 90.7467 129.585 91.088C129.201 91.408 128.839 91.792 128.497 92.24C128.156 92.6667 127.847 93.1467 127.569 93.68C127.313 94.2133 127.121 94.7467 126.993 95.28C127.271 95.8347 127.281 96.2933 127.025 96.656C126.919 96.8267 126.769 96.976 126.577 97.104C126.385 97.2107 126.161 97.328 125.905 97.456C125.756 97.6053 125.596 97.6587 125.425 97.616C125.255 97.5733 125.116 97.4773 125.009 97.328C124.903 97.1573 124.839 97.0187 124.817 96.912C124.689 96.2293 124.561 95.5253 124.433 94.8C124.305 94.0533 124.22 93.3067 124.177 92.56C124.156 91.8133 124.188 91.0773 124.273 90.352C124.359 89.6053 124.54 88.8907 124.817 88.208C124.86 88.08 124.903 88.016 124.945 88.016C124.988 88.016 125.031 88.0373 125.073 88.08C125.116 88.1013 125.159 88.1227 125.201 88.144C125.244 88.1653 125.265 88.176 125.265 88.176C125.287 88.176 125.319 88.1867 125.361 88.208ZM150.859 89.296C151.094 89.8507 151.211 90.384 151.211 90.896C151.232 91.408 151.115 91.9627 150.859 92.56C150.603 93.008 150.251 93.4133 149.803 93.776C149.355 94.1173 148.875 94.416 148.363 94.672C147.872 94.928 147.392 95.1413 146.923 95.312C146.454 95.4827 146.08 95.6213 145.803 95.728C145.888 96.368 145.974 97.072 146.059 97.84C146.144 98.5867 146.208 99.344 146.251 100.112C146.315 100.901 146.368 101.669 146.411 102.416C146.454 103.184 146.486 103.888 146.507 104.528C146.507 104.656 146.475 104.731 146.411 104.752C146.347 104.773 146.272 104.837 146.187 104.944C146.123 105.008 146.059 105.093 145.995 105.2C145.952 105.307 145.888 105.381 145.803 105.424C145.739 105.467 145.675 105.509 145.611 105.552C145.547 105.595 145.483 105.616 145.419 105.616C145.099 104.528 144.811 103.323 144.555 102C144.299 100.699 144.075 99.3547 143.883 97.968C143.712 96.56 143.574 95.1627 143.467 93.776C143.36 92.368 143.286 91.056 143.243 89.84C142.944 89.8827 142.646 89.9787 142.347 90.128C142.048 90.256 141.782 90.384 141.547 90.512C141.504 90.5547 141.462 90.5653 141.419 90.544C141.376 90.5227 141.334 90.5333 141.291 90.576C141.227 90.6187 141.163 90.6613 141.099 90.704C141.035 90.7253 140.971 90.7147 140.907 90.672C140.779 90.608 140.651 90.512 140.523 90.384C140.758 89.68 141.131 89.1253 141.643 88.72C142.155 88.3147 142.72 88.0267 143.339 87.856C143.702 87.7707 144.256 87.7067 145.003 87.664C145.75 87.6 146.518 87.6107 147.307 87.696C148.118 87.76 148.864 87.92 149.547 88.176C150.23 88.4107 150.667 88.784 150.859 89.296ZM149.675 90.448C149.611 90.0427 149.398 89.7333 149.035 89.52C148.672 89.3067 148.246 89.168 147.755 89.104C147.264 89.04 146.752 89.04 146.219 89.104C145.707 89.1467 145.248 89.232 144.843 89.36C144.907 89.6373 144.971 89.9787 145.035 90.384C145.099 90.7893 145.163 91.2053 145.227 91.632C145.291 92.0587 145.344 92.4853 145.387 92.912C145.451 93.3387 145.494 93.7013 145.515 94C145.92 93.8933 146.368 93.744 146.859 93.552C147.35 93.3387 147.798 93.0827 148.203 92.784C148.63 92.4853 148.982 92.144 149.259 91.76C149.536 91.3547 149.675 90.9173 149.675 90.448ZM155.615 82.768C155.871 83.92 156.073 85.072 156.223 86.224C156.372 87.376 156.511 88.528 156.639 89.68C156.767 90.832 156.895 91.984 157.023 93.136C157.172 94.288 157.364 95.44 157.599 96.592C157.556 96.8693 157.524 97.0933 157.503 97.264C157.481 97.4347 157.428 97.5413 157.343 97.584C157.236 97.648 157.129 97.7227 157.023 97.808C156.937 97.872 156.841 97.9253 156.735 97.968C156.692 97.9893 156.649 98.0213 156.607 98.064C156.564 98.128 156.511 98.1707 156.447 98.192C156.404 98.2133 156.361 98.2133 156.319 98.192C156.276 98.1707 156.223 98.1067 156.159 98C155.753 96.784 155.38 95.5573 155.039 94.32C154.719 93.0827 154.452 91.8347 154.239 90.576C154.047 89.3173 153.919 88.048 153.855 86.768C153.812 85.4667 153.855 84.1333 153.983 82.768C153.983 82.448 154.079 82.2453 154.271 82.16C154.356 82.1173 154.463 82.1493 154.591 82.256C154.74 82.3627 154.868 82.4373 154.975 82.48C155.124 82.544 155.241 82.5867 155.327 82.608C155.412 82.608 155.508 82.6613 155.615 82.768ZM167.445 88.144C167.594 88.2933 167.733 88.464 167.861 88.656C167.989 88.8267 168.096 89.008 168.181 89.2C168.352 89.6053 168.437 90.0107 168.437 90.416C168.458 90.8 168.309 91.2693 167.989 91.824C167.626 92.4213 167.157 92.9227 166.581 93.328C166.026 93.7333 165.418 93.9893 164.757 94.096C164.288 94.1813 163.818 94.1813 163.349 94.096C162.88 93.9893 162.432 93.776 162.005 93.456C161.877 93.5627 161.77 93.7227 161.685 93.936C161.621 94.128 161.6 94.3093 161.621 94.48C161.664 94.7787 161.77 95.1093 161.941 95.472C162.133 95.8133 162.336 96.048 162.549 96.176C162.912 96.3253 163.413 96.336 164.053 96.208C164.714 96.08 165.408 95.888 166.133 95.632C166.88 95.3547 167.605 95.056 168.309 94.736C169.034 94.3947 169.653 94.1067 170.165 93.872C170.165 94 170.133 94.0853 170.069 94.128C170.026 94.1707 169.962 94.2453 169.877 94.352C169.77 94.4587 169.653 94.5867 169.525 94.736C169.397 94.8853 169.248 95.0133 169.077 95.12C168.864 95.248 168.704 95.4187 168.597 95.632C168.49 95.824 168.288 96.0053 167.989 96.176C167.584 96.3893 167.168 96.6133 166.741 96.848C166.336 97.0613 165.93 97.264 165.525 97.456C165.12 97.6267 164.704 97.7653 164.277 97.872C163.872 97.9573 163.466 97.9787 163.061 97.936C162.784 97.8933 162.549 97.8187 162.357 97.712C162.186 97.6053 161.973 97.4453 161.717 97.232C161.589 97.1253 161.44 97.0187 161.269 96.912C161.098 96.8053 160.97 96.6987 160.885 96.592C160.522 96.0587 160.277 95.4933 160.149 94.896C160.021 94.2773 159.989 93.6693 160.053 93.072C160.138 92.4533 160.298 91.856 160.533 91.28C160.768 90.6827 161.077 90.1387 161.461 89.648C161.674 89.3707 161.93 89.0933 162.229 88.816C162.549 88.5173 162.89 88.2613 163.253 88.048C163.637 87.8133 164.032 87.632 164.437 87.504C164.864 87.376 165.29 87.3227 165.717 87.344C165.888 87.3653 166.037 87.4187 166.165 87.504C166.314 87.568 166.474 87.6427 166.645 87.728C166.752 87.7707 166.88 87.8347 167.029 87.92C167.2 87.984 167.338 88.0587 167.445 88.144ZM166.517 90.032C166.474 89.84 166.357 89.6693 166.165 89.52C165.973 89.3707 165.76 89.2533 165.525 89.168C165.29 89.0613 165.056 88.9973 164.821 88.976C164.586 88.9547 164.416 88.9653 164.309 89.008C164.138 89.072 163.936 89.1893 163.701 89.36C163.488 89.5093 163.274 89.6907 163.061 89.904C162.869 90.1173 162.677 90.352 162.485 90.608C162.314 90.8427 162.186 91.0667 162.101 91.28C162.058 91.344 162.016 91.4507 161.973 91.6C161.952 91.728 161.962 91.824 162.005 91.888C162.261 92.208 162.645 92.368 163.157 92.368C163.648 92.368 164.17 92.2507 164.725 92.016C165.301 91.7813 165.706 91.536 165.941 91.28C165.962 91.2373 166.005 91.1627 166.069 91.056C166.154 90.9493 166.229 90.832 166.293 90.704C166.357 90.576 166.41 90.448 166.453 90.32C166.517 90.192 166.538 90.096 166.517 90.032Z" fill="#007EF2"/>
</svg>
