<svg width="76" height="76" viewBox="0 0 76 76" fill="none" xmlns="http://www.w3.org/2000/svg">
<circle opacity="0.2" cx="38" cy="38" r="38" fill="#FFA92C"/>
<g clip-path="url(#clip0_1_27390)">
<path d="M37.5922 38.8671C40.3673 38.8671 42.8189 39.5311 44.8109 40.3994C46.6496 41.2166 47.8073 43.0553 47.8073 45.0473V46.1028C47.8073 47.0392 47.0411 47.8053 46.1048 47.8053H29.0797C28.1433 47.8053 27.3772 47.0392 27.3772 46.1028V45.0643C27.3772 43.0553 28.5349 41.2166 30.3736 40.4164C32.3655 39.5311 34.8171 38.8671 37.5922 38.8671ZM23.9721 39.2928C25.8449 39.2928 27.3772 37.7605 27.3772 35.8878C27.3772 34.015 25.8449 32.4827 23.9721 32.4827C22.0994 32.4827 20.5671 34.015 20.5671 35.8878C20.5671 37.7605 22.0994 39.2928 23.9721 39.2928ZM25.896 41.1655C25.2661 41.0634 24.6361 40.9953 23.9721 40.9953C22.2867 40.9953 20.6863 41.3528 19.2392 41.9827C17.9793 42.5275 17.1621 43.7533 17.1621 45.1324V46.1028C17.1621 47.0392 17.9282 47.8053 18.8646 47.8053H24.8234V45.0643C24.8234 43.6512 25.215 42.3232 25.896 41.1655ZM51.2123 39.2928C53.085 39.2928 54.6173 37.7605 54.6173 35.8878C54.6173 34.015 53.085 32.4827 51.2123 32.4827C49.3395 32.4827 47.8073 34.015 47.8073 35.8878C47.8073 37.7605 49.3395 39.2928 51.2123 39.2928ZM58.0223 45.1324C58.0223 43.7533 57.2051 42.5275 55.9453 41.9827C54.4981 41.3528 52.8978 40.9953 51.2123 40.9953C50.5483 40.9953 49.9184 41.0634 49.2885 41.1655C49.9695 42.3232 50.361 43.6512 50.361 45.0643V47.8053H56.3198C57.2562 47.8053 58.0223 47.0392 58.0223 46.1028V45.1324ZM37.5922 27.3752C40.4184 27.3752 42.6997 29.6566 42.6997 32.4827C42.6997 35.3089 40.4184 37.5903 37.5922 37.5903C34.7661 37.5903 32.4847 35.3089 32.4847 32.4827C32.4847 29.6566 34.7661 27.3752 37.5922 27.3752Z" fill="#FFA92C"/>
</g>
<defs>
<clipPath id="clip0_1_27390">
<rect width="40.8602" height="40.8602" fill="white" transform="translate(17.1621 17.1602)"/>
</clipPath>
</defs>
</svg>
