<svg width="66" height="66" viewBox="0 0 66 66" fill="none" xmlns="http://www.w3.org/2000/svg">
<circle opacity="0.2" cx="32.9999" cy="33" r="33" fill="#007EF2"/>
<path d="M43.7999 27.84L37.4699 24.39C37.0199 24.15 36.4799 24.15 36.0299 24.39L29.6999 27.84C29.1749 28.125 29.1749 28.875 29.6999 29.16L36.0299 32.61C36.4799 32.85 37.0199 32.85 37.4699 32.61L43.7999 29.16C44.3099 28.875 44.3099 28.125 43.7999 27.84ZM46.4999 19.5H19.4999C17.8499 19.5 16.4999 20.85 16.4999 22.5V25.5C16.4999 26.325 17.1749 27 17.9999 27C18.8249 27 19.4999 26.325 19.4999 25.5V24C19.4999 23.175 20.1749 22.5 20.9999 22.5H44.9999C45.8249 22.5 46.4999 23.175 46.4999 24V42C46.4999 42.825 45.8249 43.5 44.9999 43.5H37.4999C36.6749 43.5 35.9999 44.175 35.9999 45C35.9999 45.825 36.6749 46.5 37.4999 46.5H46.4999C48.1499 46.5 49.4999 45.15 49.4999 43.5V22.5C49.4999 20.85 48.1499 19.5 46.4999 19.5ZM36.0299 34.11L31.4999 31.635V33.75C31.4999 34.305 31.7999 34.8 32.2799 35.07L36.0299 37.11C36.4799 37.35 37.0199 37.35 37.4699 37.11L41.2199 35.07C41.6999 34.8 41.9999 34.29 41.9999 33.75V31.635L37.4699 34.11C37.0199 34.35 36.4799 34.35 36.0299 34.11ZM16.4999 42V46.5H20.9999C20.9999 44.01 18.9899 42 16.4999 42ZM18.2099 36.135C17.3099 35.985 16.4999 36.72 16.4999 37.635C16.4999 38.37 17.0399 38.985 17.7749 39.105C20.8949 39.645 23.3549 42.105 23.8949 45.225C24.0149 45.96 24.6299 46.5 25.3649 46.5C26.2799 46.5 26.9999 45.69 26.8649 44.79C26.1449 40.35 22.6349 36.855 18.2099 36.135ZM18.1499 30.075C17.2649 30 16.4999 30.69 16.4999 31.575C16.4999 32.34 17.0699 32.985 17.8199 33.06C24.2249 33.675 29.3249 38.775 29.9399 45.18C30.0149 45.93 30.6599 46.485 31.4249 46.485C32.3249 46.485 33.0149 45.705 32.9249 44.82C32.1299 37.035 25.9349 30.855 18.1499 30.075Z" fill="#007EF2"/>
</svg>
