<svg width="70" height="70" viewBox="0 0 70 70" fill="none" xmlns="http://www.w3.org/2000/svg">
<g clip-path="url(#clip0_1_27234)">
<path d="M14.5833 43.7493V34.9993H23.3333V29.166H14.5833V20.416H8.75V29.166H0V34.9993H8.75V43.7493H14.5833Z" fill="#007EF2"/>
<path opacity="0.3" d="M35 29.166C37.4162 29.166 39.375 27.2073 39.375 24.791C39.375 22.3748 37.4162 20.416 35 20.416C32.5838 20.416 30.625 22.3748 30.625 24.791C30.625 27.2073 32.5838 29.166 35 29.166Z" fill="#00ACA5"/>
<path opacity="0.3" d="M21.4083 49.5833H48.5917C46.1417 47.8917 40.2208 45.9375 35 45.9375C29.7792 45.9375 23.8583 47.8917 21.4083 49.5833Z" fill="#00ACA5"/>
<path d="M35.0007 35.0006C40.6298 35.0006 45.209 30.4215 45.209 24.7923C45.209 19.1632 40.6298 14.584 35.0007 14.584C29.3715 14.584 24.7923 19.1632 24.7923 24.7923C24.7923 30.4215 29.3715 35.0006 35.0007 35.0006ZM35.0007 20.4173C37.4215 20.4173 39.3757 22.3715 39.3757 24.7923C39.3757 27.2132 37.4215 29.1673 35.0007 29.1673C32.5798 29.1673 30.6257 27.2132 30.6257 24.7923C30.6257 22.3715 32.5798 20.4173 35.0007 20.4173ZM35.0007 40.1048C28.1757 40.1048 14.584 43.5173 14.584 50.3131V55.4173H55.4173V50.3131C55.4173 43.5173 41.8257 40.1048 35.0007 40.1048ZM21.409 49.584C23.859 47.8923 29.7798 45.9381 35.0007 45.9381C40.2215 45.9381 46.1423 47.8923 48.5923 49.584H21.409ZM49.584 35.0006C55.2132 35.0006 59.7923 30.4215 59.7923 24.7923C59.7923 19.1632 55.2132 14.584 49.584 14.584C48.884 14.584 48.184 14.6423 47.5132 14.7882C49.7298 17.5298 51.0423 21.0007 51.0423 24.7923C51.0423 28.584 49.6715 32.0257 47.4548 34.7673C48.1548 34.9132 48.8548 35.0006 49.584 35.0006ZM56.3507 40.8923C59.2673 43.2548 61.2507 46.3465 61.2507 50.3131V55.4173H70.0007V50.3131C70.0007 45.384 62.884 42.2632 56.3507 40.8923Z" fill="#007EF2"/>
</g>
<defs>
<clipPath id="clip0_1_27234">
<rect width="70" height="70" fill="white"/>
</clipPath>
</defs>
</svg>
