<svg width="1116" height="250" viewBox="0 0 1116 250" fill="none" xmlns="http://www.w3.org/2000/svg">
<rect width="1115.56" height="250" rx="20" fill="url(#paint0_linear_1_27540)"/>
<path opacity="0.6" d="M118.909 160.524V179.111H116.482V170.684H107.016V179.111H104.589V160.524H107.016V168.684H116.482V160.524H118.909ZM129.426 179.351C128.057 179.351 126.812 179.04 125.692 178.418C124.59 177.795 123.719 176.915 123.079 175.778C122.457 174.622 122.146 173.289 122.146 171.778C122.146 170.284 122.466 168.969 123.106 167.831C123.764 166.675 124.652 165.795 125.772 165.191C126.892 164.569 128.146 164.258 129.532 164.258C130.919 164.258 132.172 164.569 133.292 165.191C134.412 165.795 135.292 166.667 135.932 167.804C136.59 168.942 136.919 170.267 136.919 171.778C136.919 173.289 136.581 174.622 135.906 175.778C135.248 176.915 134.35 177.795 133.212 178.418C132.075 179.04 130.812 179.351 129.426 179.351ZM129.426 177.218C130.297 177.218 131.115 177.013 131.879 176.604C132.644 176.195 133.257 175.582 133.719 174.764C134.199 173.947 134.439 172.951 134.439 171.778C134.439 170.604 134.208 169.609 133.746 168.791C133.284 167.973 132.679 167.369 131.932 166.978C131.186 166.569 130.377 166.364 129.506 166.364C128.617 166.364 127.799 166.569 127.052 166.978C126.324 167.369 125.737 167.973 125.292 168.791C124.848 169.609 124.626 170.604 124.626 171.778C124.626 172.969 124.839 173.973 125.266 174.791C125.71 175.609 126.297 176.222 127.026 176.631C127.755 177.022 128.555 177.218 129.426 177.218ZM153.07 164.498V179.111H150.643V176.951C150.181 177.698 149.532 178.284 148.696 178.711C147.879 179.12 146.972 179.324 145.976 179.324C144.839 179.324 143.816 179.093 142.91 178.631C142.003 178.151 141.283 177.44 140.75 176.498C140.234 175.555 139.976 174.409 139.976 173.058V164.498H142.376V172.738C142.376 174.178 142.741 175.289 143.47 176.071C144.199 176.835 145.194 177.218 146.456 177.218C147.754 177.218 148.776 176.818 149.523 176.018C150.27 175.218 150.643 174.053 150.643 172.524V164.498H153.07ZM159.594 166.871C160.02 166.035 160.625 165.387 161.407 164.924C162.207 164.462 163.176 164.231 164.314 164.231V166.738H163.674C160.954 166.738 159.594 168.213 159.594 171.164V179.111H157.167V164.498H159.594V166.871ZM172.288 179.351C171.168 179.351 170.164 179.164 169.275 178.791C168.386 178.4 167.684 177.867 167.168 177.191C166.653 176.498 166.368 175.707 166.315 174.818H168.822C168.893 175.547 169.231 176.142 169.835 176.604C170.457 177.067 171.266 177.298 172.262 177.298C173.186 177.298 173.915 177.093 174.448 176.684C174.982 176.275 175.248 175.76 175.248 175.138C175.248 174.498 174.964 174.027 174.395 173.724C173.826 173.404 172.946 173.093 171.755 172.791C170.671 172.507 169.782 172.222 169.088 171.938C168.413 171.635 167.826 171.2 167.328 170.631C166.848 170.044 166.608 169.28 166.608 168.338C166.608 167.591 166.831 166.907 167.275 166.284C167.719 165.662 168.351 165.173 169.168 164.818C169.986 164.444 170.919 164.258 171.968 164.258C173.586 164.258 174.893 164.667 175.888 165.484C176.884 166.302 177.417 167.422 177.488 168.844H175.062C175.008 168.08 174.697 167.467 174.128 167.004C173.577 166.542 172.831 166.311 171.888 166.311C171.017 166.311 170.324 166.498 169.808 166.871C169.293 167.244 169.035 167.733 169.035 168.338C169.035 168.818 169.186 169.218 169.488 169.538C169.808 169.84 170.199 170.089 170.662 170.284C171.142 170.462 171.799 170.667 172.635 170.898C173.684 171.182 174.537 171.467 175.195 171.751C175.853 172.018 176.413 172.427 176.875 172.978C177.355 173.529 177.604 174.249 177.622 175.138C177.622 175.938 177.399 176.658 176.955 177.298C176.511 177.938 175.879 178.444 175.062 178.818C174.262 179.173 173.337 179.351 172.288 179.351ZM197.223 153.991L189.917 183.644H187.517L194.797 153.991H197.223ZM206.626 160.524C208.652 160.524 210.403 160.907 211.879 161.671C213.372 162.418 214.51 163.493 215.292 164.898C216.092 166.302 216.492 167.955 216.492 169.858C216.492 171.76 216.092 173.413 215.292 174.818C214.51 176.204 213.372 177.271 211.879 178.018C210.403 178.747 208.652 179.111 206.626 179.111H200.839V160.524H206.626ZM206.626 177.111C209.026 177.111 210.857 176.48 212.119 175.218C213.381 173.938 214.012 172.151 214.012 169.858C214.012 167.547 213.372 165.742 212.092 164.444C210.83 163.147 209.008 162.498 206.626 162.498H203.266V177.111H206.626ZM218.786 171.751C218.786 170.258 219.089 168.951 219.693 167.831C220.298 166.693 221.124 165.813 222.173 165.191C223.24 164.569 224.422 164.258 225.72 164.258C227 164.258 228.111 164.533 229.053 165.084C229.995 165.635 230.698 166.329 231.16 167.164V164.498H233.613V179.111H231.16V176.391C230.68 177.244 229.96 177.955 229 178.524C228.058 179.075 226.955 179.351 225.693 179.351C224.395 179.351 223.222 179.031 222.173 178.391C221.124 177.751 220.298 176.853 219.693 175.698C219.089 174.542 218.786 173.227 218.786 171.751ZM231.16 171.778C231.16 170.675 230.938 169.715 230.493 168.898C230.049 168.08 229.444 167.458 228.68 167.031C227.933 166.587 227.106 166.364 226.2 166.364C225.293 166.364 224.466 166.578 223.72 167.004C222.973 167.431 222.378 168.053 221.933 168.871C221.489 169.689 221.266 170.649 221.266 171.751C221.266 172.871 221.489 173.849 221.933 174.684C222.378 175.502 222.973 176.133 223.72 176.578C224.466 177.004 225.293 177.218 226.2 177.218C227.106 177.218 227.933 177.004 228.68 176.578C229.444 176.133 230.049 175.502 230.493 174.684C230.938 173.849 231.16 172.88 231.16 171.778ZM250.301 164.498L241.501 185.991H238.994L241.874 178.951L235.981 164.498H238.674L243.261 176.338L247.794 164.498H250.301Z" fill="white"/>
<path d="M83.7275 91.0088V81.8221H99.732V124H89.4475V91.0088H83.7275ZM118.104 114.871L111.691 131.453H105.393L108.744 114.871H118.104ZM123.079 102.333C123.079 95.708 124.35 90.4888 126.892 86.6754C129.473 82.8621 133.614 80.9554 139.315 80.9554C145.015 80.9554 149.137 82.8621 151.679 86.6754C154.26 90.4888 155.55 95.708 155.55 102.333C155.55 109.035 154.26 114.293 151.679 118.107C149.137 121.92 145.015 123.827 139.315 123.827C133.614 123.827 129.473 121.92 126.892 118.107C124.35 114.293 123.079 109.035 123.079 102.333ZM145.844 102.333C145.844 98.4428 145.42 95.4577 144.572 93.3777C143.725 91.2591 141.972 90.1999 139.315 90.1999C136.657 90.1999 134.904 91.2591 134.057 93.3777C133.21 95.4577 132.786 98.4428 132.786 102.333C132.786 104.952 132.94 107.129 133.248 108.862C133.556 110.557 134.172 111.944 135.097 113.022C136.06 114.062 137.466 114.582 139.315 114.582C141.164 114.582 142.55 114.062 143.475 113.022C144.438 111.944 145.073 110.557 145.381 108.862C145.69 107.129 145.844 104.952 145.844 102.333ZM160.77 102.333C160.77 95.708 162.041 90.4888 164.583 86.6754C167.164 82.8621 171.305 80.9554 177.006 80.9554C182.706 80.9554 186.828 82.8621 189.37 86.6754C191.951 90.4888 193.241 95.708 193.241 102.333C193.241 109.035 191.951 114.293 189.37 118.107C186.828 121.92 182.706 123.827 177.006 123.827C171.305 123.827 167.164 121.92 164.583 118.107C162.041 114.293 160.77 109.035 160.77 102.333ZM183.535 102.333C183.535 98.4428 183.111 95.4577 182.263 93.3777C181.416 91.2591 179.663 90.1999 177.006 90.1999C174.348 90.1999 172.595 91.2591 171.748 93.3777C170.901 95.4577 170.477 98.4428 170.477 102.333C170.477 104.952 170.631 107.129 170.939 108.862C171.247 110.557 171.863 111.944 172.788 113.022C173.751 114.062 175.157 114.582 177.006 114.582C178.855 114.582 180.241 114.062 181.166 113.022C182.129 111.944 182.764 110.557 183.072 108.862C183.381 107.129 183.535 104.952 183.535 102.333ZM198.461 102.333C198.461 95.708 199.732 90.4888 202.274 86.6754C204.855 82.8621 208.996 80.9554 214.697 80.9554C220.397 80.9554 224.519 82.8621 227.061 86.6754C229.642 90.4888 230.932 95.708 230.932 102.333C230.932 109.035 229.642 114.293 227.061 118.107C224.519 121.92 220.397 123.827 214.697 123.827C208.996 123.827 204.855 121.92 202.274 118.107C199.732 114.293 198.461 109.035 198.461 102.333ZM221.226 102.333C221.226 98.4428 220.802 95.4577 219.954 93.3777C219.107 91.2591 217.354 90.1999 214.697 90.1999C212.039 90.1999 210.286 91.2591 209.439 93.3777C208.591 95.4577 208.168 98.4428 208.168 102.333C208.168 104.952 208.322 107.129 208.63 108.862C208.938 110.557 209.554 111.944 210.479 113.022C211.442 114.062 212.848 114.582 214.697 114.582C216.546 114.582 217.932 114.062 218.857 113.022C219.82 111.944 220.455 110.557 220.763 108.862C221.071 107.129 221.226 104.952 221.226 102.333ZM266.428 108.227H256.374V118.511H247.014V108.227H236.961V99.3865H247.014V89.0443H256.374V99.3865H266.428V108.227Z" fill="white"/>
<path opacity="0.6" d="M404.789 171.751C404.789 170.257 405.091 168.951 405.696 167.831C406.3 166.693 407.127 165.813 408.176 165.191C409.242 164.568 410.433 164.257 411.749 164.257C412.887 164.257 413.945 164.524 414.922 165.057C415.9 165.573 416.647 166.257 417.162 167.111V159.377H419.616V179.111H417.162V176.364C416.682 177.235 415.971 177.955 415.029 178.524C414.087 179.075 412.985 179.351 411.722 179.351C410.425 179.351 409.242 179.031 408.176 178.391C407.127 177.751 406.3 176.853 405.696 175.697C405.091 174.542 404.789 173.226 404.789 171.751ZM417.162 171.777C417.162 170.675 416.94 169.715 416.496 168.897C416.051 168.08 415.447 167.457 414.682 167.031C413.936 166.586 413.109 166.364 412.202 166.364C411.296 166.364 410.469 166.577 409.722 167.004C408.976 167.431 408.38 168.053 407.936 168.871C407.491 169.688 407.269 170.648 407.269 171.751C407.269 172.871 407.491 173.848 407.936 174.684C408.38 175.502 408.976 176.133 409.722 176.577C410.469 177.004 411.296 177.217 412.202 177.217C413.109 177.217 413.936 177.004 414.682 176.577C415.447 176.133 416.051 175.502 416.496 174.684C416.94 173.848 417.162 172.88 417.162 171.777ZM430.09 179.351C428.721 179.351 427.477 179.04 426.357 178.417C425.254 177.795 424.383 176.915 423.743 175.777C423.121 174.622 422.81 173.288 422.81 171.777C422.81 170.284 423.13 168.968 423.77 167.831C424.428 166.675 425.317 165.795 426.437 165.191C427.557 164.568 428.81 164.257 430.197 164.257C431.583 164.257 432.837 164.568 433.957 165.191C435.077 165.795 435.957 166.666 436.597 167.804C437.254 168.942 437.583 170.266 437.583 171.777C437.583 173.288 437.245 174.622 436.57 175.777C435.912 176.915 435.014 177.795 433.877 178.417C432.739 179.04 431.477 179.351 430.09 179.351ZM430.09 177.217C430.961 177.217 431.779 177.013 432.543 176.604C433.308 176.195 433.921 175.582 434.383 174.764C434.863 173.946 435.103 172.951 435.103 171.777C435.103 170.604 434.872 169.608 434.41 168.791C433.948 167.973 433.343 167.368 432.597 166.977C431.85 166.568 431.041 166.364 430.17 166.364C429.281 166.364 428.463 166.568 427.717 166.977C426.988 167.368 426.401 167.973 425.957 168.791C425.512 169.608 425.29 170.604 425.29 171.777C425.29 172.968 425.503 173.973 425.93 174.791C426.374 175.608 426.961 176.222 427.69 176.631C428.419 177.022 429.219 177.217 430.09 177.217ZM460.241 164.497L455.681 179.111H453.174L449.654 167.511L446.134 179.111H443.627L439.041 164.497H441.521L444.881 176.764L448.507 164.497H450.987L454.534 176.791L457.841 164.497H460.241ZM469.769 164.231C471.547 164.231 472.987 164.773 474.089 165.857C475.191 166.924 475.742 168.471 475.742 170.497V179.111H473.342V170.844C473.342 169.386 472.978 168.275 472.249 167.511C471.52 166.728 470.524 166.337 469.262 166.337C467.982 166.337 466.96 166.737 466.196 167.537C465.449 168.337 465.076 169.502 465.076 171.031V179.111H462.649V164.497H465.076V166.577C465.556 165.831 466.204 165.253 467.022 164.844C467.858 164.435 468.773 164.231 469.769 164.231ZM482.133 159.377V179.111H479.706V159.377H482.133ZM492.642 179.351C491.273 179.351 490.029 179.04 488.909 178.417C487.806 177.795 486.935 176.915 486.295 175.777C485.673 174.622 485.362 173.288 485.362 171.777C485.362 170.284 485.682 168.968 486.322 167.831C486.98 166.675 487.869 165.795 488.989 165.191C490.109 164.568 491.362 164.257 492.749 164.257C494.135 164.257 495.389 164.568 496.509 165.191C497.629 165.795 498.509 166.666 499.149 167.804C499.806 168.942 500.135 170.266 500.135 171.777C500.135 173.288 499.798 174.622 499.122 175.777C498.464 176.915 497.566 177.795 496.429 178.417C495.291 179.04 494.029 179.351 492.642 179.351ZM492.642 177.217C493.513 177.217 494.331 177.013 495.095 176.604C495.86 176.195 496.473 175.582 496.935 174.764C497.415 173.946 497.655 172.951 497.655 171.777C497.655 170.604 497.424 169.608 496.962 168.791C496.5 167.973 495.895 167.368 495.149 166.977C494.402 166.568 493.593 166.364 492.722 166.364C491.833 166.364 491.015 166.568 490.269 166.977C489.54 167.368 488.953 167.973 488.509 168.791C488.064 169.608 487.842 170.604 487.842 171.777C487.842 172.968 488.055 173.973 488.482 174.791C488.926 175.608 489.513 176.222 490.242 176.631C490.971 177.022 491.771 177.217 492.642 177.217ZM502.419 171.751C502.419 170.257 502.721 168.951 503.326 167.831C503.93 166.693 504.757 165.813 505.806 165.191C506.873 164.568 508.055 164.257 509.353 164.257C510.633 164.257 511.744 164.533 512.686 165.084C513.628 165.635 514.33 166.328 514.793 167.164V164.497H517.246V179.111H514.793V176.391C514.313 177.244 513.593 177.955 512.633 178.524C511.69 179.075 510.588 179.351 509.326 179.351C508.028 179.351 506.855 179.031 505.806 178.391C504.757 177.751 503.93 176.853 503.326 175.697C502.721 174.542 502.419 173.226 502.419 171.751ZM514.793 171.777C514.793 170.675 514.57 169.715 514.126 168.897C513.681 168.08 513.077 167.457 512.313 167.031C511.566 166.586 510.739 166.364 509.833 166.364C508.926 166.364 508.099 166.577 507.353 167.004C506.606 167.431 506.01 168.053 505.566 168.871C505.121 169.688 504.899 170.648 504.899 171.751C504.899 172.871 505.121 173.848 505.566 174.684C506.01 175.502 506.606 176.133 507.353 176.577C508.099 177.004 508.926 177.217 509.833 177.217C510.739 177.217 511.566 177.004 512.313 176.577C513.077 176.133 513.681 175.502 514.126 174.684C514.57 173.848 514.793 172.88 514.793 171.777ZM520.44 171.751C520.44 170.257 520.742 168.951 521.347 167.831C521.951 166.693 522.778 165.813 523.827 165.191C524.893 164.568 526.085 164.257 527.4 164.257C528.538 164.257 529.596 164.524 530.573 165.057C531.551 165.573 532.298 166.257 532.813 167.111V159.377H535.267V179.111H532.813V176.364C532.333 177.235 531.622 177.955 530.68 178.524C529.738 179.075 528.636 179.351 527.373 179.351C526.076 179.351 524.893 179.031 523.827 178.391C522.778 177.751 521.951 176.853 521.347 175.697C520.742 174.542 520.44 173.226 520.44 171.751ZM532.813 171.777C532.813 170.675 532.591 169.715 532.147 168.897C531.702 168.08 531.098 167.457 530.333 167.031C529.587 166.586 528.76 166.364 527.853 166.364C526.947 166.364 526.12 166.577 525.373 167.004C524.627 167.431 524.031 168.053 523.587 168.871C523.142 169.688 522.92 170.648 522.92 171.751C522.92 172.871 523.142 173.848 523.587 174.684C524.031 175.502 524.627 176.133 525.373 176.577C526.12 177.004 526.947 177.217 527.853 177.217C528.76 177.217 529.587 177.004 530.333 176.577C531.098 176.133 531.702 175.502 532.147 174.684C532.591 173.848 532.813 172.88 532.813 171.777ZM544.541 179.351C543.421 179.351 542.416 179.164 541.528 178.791C540.639 178.4 539.936 177.866 539.421 177.191C538.905 176.497 538.621 175.706 538.568 174.817H541.074C541.145 175.546 541.483 176.142 542.088 176.604C542.71 177.066 543.519 177.297 544.514 177.297C545.439 177.297 546.168 177.093 546.701 176.684C547.234 176.275 547.501 175.76 547.501 175.137C547.501 174.497 547.216 174.026 546.648 173.724C546.079 173.404 545.199 173.093 544.008 172.791C542.923 172.506 542.034 172.222 541.341 171.937C540.665 171.635 540.079 171.2 539.581 170.631C539.101 170.044 538.861 169.28 538.861 168.337C538.861 167.591 539.083 166.906 539.528 166.284C539.972 165.662 540.603 165.173 541.421 164.817C542.239 164.444 543.172 164.257 544.221 164.257C545.839 164.257 547.145 164.666 548.141 165.484C549.136 166.302 549.67 167.422 549.741 168.844H547.314C547.261 168.08 546.95 167.466 546.381 167.004C545.83 166.542 545.083 166.311 544.141 166.311C543.27 166.311 542.576 166.497 542.061 166.871C541.545 167.244 541.288 167.733 541.288 168.337C541.288 168.817 541.439 169.217 541.741 169.537C542.061 169.84 542.452 170.088 542.914 170.284C543.394 170.462 544.052 170.666 544.888 170.897C545.936 171.182 546.79 171.466 547.448 171.751C548.105 172.017 548.665 172.426 549.128 172.977C549.608 173.528 549.856 174.248 549.874 175.137C549.874 175.937 549.652 176.657 549.208 177.297C548.763 177.937 548.132 178.444 547.314 178.817C546.514 179.173 545.59 179.351 544.541 179.351Z" fill="white"/>
<path d="M384.912 91.0085V81.8219H400.916V124H390.632V91.0085H384.912ZM437.373 90.4307H419.346V98.4041C420.117 97.5567 421.195 96.8633 422.582 96.3241C423.968 95.7848 425.471 95.5152 427.088 95.5152C429.977 95.5152 432.365 96.17 434.253 97.4796C436.179 98.7893 437.585 100.484 438.471 102.564C439.357 104.644 439.8 106.897 439.8 109.324C439.8 113.831 438.528 117.413 435.986 120.071C433.444 122.69 429.862 124 425.24 124C422.158 124 419.481 123.48 417.208 122.44C414.936 121.361 413.183 119.878 411.951 117.991C410.718 116.103 410.044 113.927 409.928 111.462H419.577C419.808 112.656 420.367 113.657 421.253 114.466C422.139 115.237 423.352 115.622 424.893 115.622C426.703 115.622 428.051 115.044 428.937 113.889C429.823 112.733 430.266 111.192 430.266 109.266C430.266 107.379 429.804 105.934 428.88 104.933C427.955 103.931 426.607 103.431 424.835 103.431C423.525 103.431 422.447 103.758 421.6 104.413C420.752 105.029 420.194 105.857 419.924 106.897H410.391V81.7641H437.373V90.4307ZM456.867 114.871L450.453 131.453H444.155L447.507 114.871H456.867ZM461.842 102.333C461.842 95.7078 463.113 90.4885 465.655 86.6752C468.236 82.8619 472.377 80.9552 478.077 80.9552C483.778 80.9552 487.9 82.8619 490.442 86.6752C493.023 90.4885 494.313 95.7078 494.313 102.333C494.313 109.035 493.023 114.293 490.442 118.106C487.9 121.92 483.778 123.826 478.077 123.826C472.377 123.826 468.236 121.92 465.655 118.106C463.113 114.293 461.842 109.035 461.842 102.333ZM484.606 102.333C484.606 98.4426 484.183 95.4574 483.335 93.3774C482.488 91.2589 480.735 90.1996 478.077 90.1996C475.42 90.1996 473.667 91.2589 472.82 93.3774C471.972 95.4574 471.548 98.4426 471.548 102.333C471.548 104.952 471.703 107.129 472.011 108.862C472.319 110.557 472.935 111.943 473.86 113.022C474.823 114.062 476.228 114.582 478.077 114.582C479.926 114.582 481.313 114.062 482.237 113.022C483.2 111.943 483.836 110.557 484.144 108.862C484.452 107.129 484.606 104.952 484.606 102.333ZM499.533 102.333C499.533 95.7078 500.804 90.4885 503.346 86.6752C505.927 82.8619 510.068 80.9552 515.768 80.9552C521.469 80.9552 525.591 82.8619 528.133 86.6752C530.713 90.4885 532.004 95.7078 532.004 102.333C532.004 109.035 530.713 114.293 528.133 118.106C525.591 121.92 521.469 123.826 515.768 123.826C510.068 123.826 505.927 121.92 503.346 118.106C500.804 114.293 499.533 109.035 499.533 102.333ZM522.297 102.333C522.297 98.4426 521.873 95.4574 521.026 93.3774C520.179 91.2589 518.426 90.1996 515.768 90.1996C513.111 90.1996 511.358 91.2589 510.511 93.3774C509.663 95.4574 509.239 98.4426 509.239 102.333C509.239 104.952 509.393 107.129 509.702 108.862C510.01 110.557 510.626 111.943 511.551 113.022C512.513 114.062 513.919 114.582 515.768 114.582C517.617 114.582 519.004 114.062 519.928 113.022C520.891 111.943 521.527 110.557 521.835 108.862C522.143 107.129 522.297 104.952 522.297 102.333ZM537.224 102.333C537.224 95.7078 538.495 90.4885 541.037 86.6752C543.618 82.8619 547.759 80.9552 553.459 80.9552C559.16 80.9552 563.281 82.8619 565.824 86.6752C568.404 90.4885 569.695 95.7078 569.695 102.333C569.695 109.035 568.404 114.293 565.824 118.106C563.281 121.92 559.16 123.826 553.459 123.826C547.759 123.826 543.618 121.92 541.037 118.106C538.495 114.293 537.224 109.035 537.224 102.333ZM559.988 102.333C559.988 98.4426 559.564 95.4574 558.717 93.3774C557.87 91.2589 556.117 90.1996 553.459 90.1996C550.801 90.1996 549.049 91.2589 548.201 93.3774C547.354 95.4574 546.93 98.4426 546.93 102.333C546.93 104.952 547.084 107.129 547.393 108.862C547.701 110.557 548.317 111.943 549.241 113.022C550.204 114.062 551.61 114.582 553.459 114.582C555.308 114.582 556.695 114.062 557.619 113.022C558.582 111.943 559.218 110.557 559.526 108.862C559.834 107.129 559.988 104.952 559.988 102.333Z" fill="white"/>
<path opacity="0.6" d="M690.11 160.524V162.497H685.043V179.111H682.616V162.497H677.523V160.524H690.11ZM706.43 171.244C706.43 171.706 706.403 172.195 706.35 172.711H694.67C694.759 174.151 695.248 175.28 696.137 176.097C697.043 176.897 698.137 177.297 699.417 177.297C700.466 177.297 701.337 177.057 702.03 176.577C702.741 176.08 703.239 175.422 703.523 174.604H706.137C705.746 176.008 704.963 177.155 703.79 178.044C702.617 178.915 701.159 179.351 699.417 179.351C698.03 179.351 696.786 179.04 695.683 178.417C694.599 177.795 693.746 176.915 693.123 175.777C692.501 174.622 692.19 173.288 692.19 171.777C692.19 170.266 692.492 168.942 693.097 167.804C693.701 166.666 694.546 165.795 695.63 165.191C696.732 164.568 697.995 164.257 699.417 164.257C700.803 164.257 702.03 164.56 703.097 165.164C704.163 165.768 704.981 166.604 705.55 167.671C706.137 168.72 706.43 169.911 706.43 171.244ZM703.923 170.737C703.923 169.813 703.719 169.022 703.31 168.364C702.901 167.688 702.341 167.182 701.63 166.844C700.937 166.488 700.163 166.311 699.31 166.311C698.083 166.311 697.035 166.702 696.163 167.484C695.31 168.266 694.821 169.351 694.697 170.737H703.923ZM708.727 171.751C708.727 170.257 709.029 168.951 709.633 167.831C710.238 166.693 711.064 165.813 712.113 165.191C713.18 164.568 714.362 164.257 715.66 164.257C716.94 164.257 718.051 164.533 718.993 165.084C719.935 165.635 720.638 166.328 721.1 167.164V164.497H723.553V179.111H721.1V176.391C720.62 177.244 719.9 177.955 718.94 178.524C717.998 179.075 716.895 179.351 715.633 179.351C714.335 179.351 713.162 179.031 712.113 178.391C711.064 177.751 710.238 176.853 709.633 175.697C709.029 174.542 708.727 173.226 708.727 171.751ZM721.1 171.777C721.1 170.675 720.878 169.715 720.433 168.897C719.989 168.08 719.384 167.457 718.62 167.031C717.873 166.586 717.047 166.364 716.14 166.364C715.233 166.364 714.407 166.577 713.66 167.004C712.913 167.431 712.318 168.053 711.873 168.871C711.429 169.688 711.207 170.648 711.207 171.751C711.207 172.871 711.429 173.848 711.873 174.684C712.318 175.502 712.913 176.133 713.66 176.577C714.407 177.004 715.233 177.217 716.14 177.217C717.047 177.217 717.873 177.004 718.62 176.577C719.384 176.133 719.989 175.502 720.433 174.684C720.878 173.848 721.1 172.88 721.1 171.777ZM726.747 171.777C726.747 170.266 727.05 168.951 727.654 167.831C728.258 166.693 729.094 165.813 730.161 165.191C731.245 164.568 732.481 164.257 733.867 164.257C735.663 164.257 737.138 164.693 738.294 165.564C739.467 166.435 740.241 167.644 740.614 169.191H738.001C737.752 168.302 737.263 167.6 736.534 167.084C735.823 166.568 734.934 166.311 733.867 166.311C732.481 166.311 731.361 166.791 730.507 167.751C729.654 168.693 729.227 170.035 729.227 171.777C729.227 173.537 729.654 174.897 730.507 175.857C731.361 176.817 732.481 177.297 733.867 177.297C734.934 177.297 735.823 177.048 736.534 176.551C737.245 176.053 737.734 175.342 738.001 174.417H740.614C740.223 175.911 739.441 177.111 738.267 178.017C737.094 178.906 735.627 179.351 733.867 179.351C732.481 179.351 731.245 179.04 730.161 178.417C729.094 177.795 728.258 176.915 727.654 175.777C727.05 174.64 726.747 173.306 726.747 171.777ZM751.105 164.231C752.208 164.231 753.203 164.471 754.092 164.951C754.981 165.413 755.674 166.115 756.172 167.057C756.688 168 756.945 169.146 756.945 170.497V179.111H754.545V170.844C754.545 169.386 754.181 168.275 753.452 167.511C752.723 166.728 751.728 166.337 750.465 166.337C749.185 166.337 748.163 166.737 747.399 167.537C746.652 168.337 746.279 169.502 746.279 171.031V179.111H743.852V159.377H746.279V166.577C746.759 165.831 747.416 165.253 748.252 164.844C749.105 164.435 750.056 164.231 751.105 164.231ZM774.243 171.244C774.243 171.706 774.216 172.195 774.163 172.711H762.483C762.571 174.151 763.06 175.28 763.949 176.097C764.856 176.897 765.949 177.297 767.229 177.297C768.278 177.297 769.149 177.057 769.843 176.577C770.554 176.08 771.051 175.422 771.336 174.604H773.949C773.558 176.008 772.776 177.155 771.603 178.044C770.429 178.915 768.971 179.351 767.229 179.351C765.843 179.351 764.598 179.04 763.496 178.417C762.411 177.795 761.558 176.915 760.936 175.777C760.314 174.622 760.003 173.288 760.003 171.777C760.003 170.266 760.305 168.942 760.909 167.804C761.514 166.666 762.358 165.795 763.443 165.191C764.545 164.568 765.807 164.257 767.229 164.257C768.616 164.257 769.843 164.56 770.909 165.164C771.976 165.768 772.794 166.604 773.363 167.671C773.949 168.72 774.243 169.911 774.243 171.244ZM771.736 170.737C771.736 169.813 771.531 169.022 771.123 168.364C770.714 167.688 770.154 167.182 769.443 166.844C768.749 166.488 767.976 166.311 767.123 166.311C765.896 166.311 764.847 166.702 763.976 167.484C763.123 168.266 762.634 169.351 762.509 170.737H771.736ZM779.872 166.871C780.299 166.035 780.903 165.386 781.686 164.924C782.486 164.462 783.455 164.231 784.592 164.231V166.737H783.952C781.232 166.737 779.872 168.213 779.872 171.164V179.111H777.446V164.497H779.872V166.871ZM792.567 179.351C791.447 179.351 790.443 179.164 789.554 178.791C788.665 178.4 787.963 177.866 787.447 177.191C786.931 176.497 786.647 175.706 786.594 174.817H789.1C789.171 175.546 789.509 176.142 790.114 176.604C790.736 177.066 791.545 177.297 792.54 177.297C793.465 177.297 794.194 177.093 794.727 176.684C795.26 176.275 795.527 175.76 795.527 175.137C795.527 174.497 795.243 174.026 794.674 173.724C794.105 173.404 793.225 173.093 792.034 172.791C790.949 172.506 790.06 172.222 789.367 171.937C788.691 171.635 788.105 171.2 787.607 170.631C787.127 170.044 786.887 169.28 786.887 168.337C786.887 167.591 787.109 166.906 787.554 166.284C787.998 165.662 788.629 165.173 789.447 164.817C790.265 164.444 791.198 164.257 792.247 164.257C793.865 164.257 795.171 164.666 796.167 165.484C797.163 166.302 797.696 167.422 797.767 168.844H795.34C795.287 168.08 794.976 167.466 794.407 167.004C793.856 166.542 793.109 166.311 792.167 166.311C791.296 166.311 790.603 166.497 790.087 166.871C789.571 167.244 789.314 167.733 789.314 168.337C789.314 168.817 789.465 169.217 789.767 169.537C790.087 169.84 790.478 170.088 790.94 170.284C791.42 170.462 792.078 170.666 792.914 170.897C793.963 171.182 794.816 171.466 795.474 171.751C796.131 172.017 796.691 172.426 797.154 172.977C797.634 173.528 797.883 174.248 797.9 175.137C797.9 175.937 797.678 176.657 797.234 177.297C796.789 177.937 796.158 178.444 795.34 178.817C794.54 179.173 793.616 179.351 792.567 179.351Z" fill="white"/>
<path d="M694.9 90.4307H676.873V98.4041C677.643 97.5567 678.722 96.8633 680.109 96.3241C681.495 95.7848 682.998 95.5152 684.615 95.5152C687.504 95.5152 689.892 96.17 691.78 97.4796C693.706 98.7893 695.112 100.484 695.998 102.564C696.883 104.644 697.326 106.897 697.326 109.324C697.326 113.831 696.055 117.413 693.513 120.071C690.971 122.69 687.389 124 682.766 124C679.685 124 677.008 123.48 674.735 122.44C672.463 121.361 670.71 119.878 669.478 117.991C668.245 116.103 667.571 113.927 667.455 111.462H677.104C677.335 112.656 677.894 113.657 678.78 114.466C679.666 115.237 680.879 115.622 682.42 115.622C684.23 115.622 685.578 115.044 686.464 113.889C687.35 112.733 687.793 111.192 687.793 109.266C687.793 107.379 687.331 105.934 686.406 104.933C685.482 103.931 684.134 103.431 682.362 103.431C681.052 103.431 679.974 103.758 679.126 104.413C678.279 105.029 677.721 105.857 677.451 106.897H667.918V81.7641H694.9V90.4307ZM702.78 102.333C702.78 95.7078 704.051 90.4885 706.593 86.6752C709.174 82.8619 713.315 80.9552 719.016 80.9552C724.716 80.9552 728.838 82.8619 731.38 86.6752C733.961 90.4885 735.251 95.7078 735.251 102.333C735.251 109.035 733.961 114.293 731.38 118.106C728.838 121.92 724.716 123.826 719.016 123.826C713.315 123.826 709.174 121.92 706.593 118.106C704.051 114.293 702.78 109.035 702.78 102.333ZM725.545 102.333C725.545 98.4426 725.121 95.4574 724.273 93.3774C723.426 91.2589 721.673 90.1996 719.016 90.1996C716.358 90.1996 714.605 91.2589 713.758 93.3774C712.911 95.4574 712.487 98.4426 712.487 102.333C712.487 104.952 712.641 107.129 712.949 108.862C713.257 110.557 713.873 111.943 714.798 113.022C715.761 114.062 717.167 114.582 719.016 114.582C720.865 114.582 722.251 114.062 723.176 113.022C724.139 111.943 724.774 110.557 725.082 108.862C725.391 107.129 725.545 104.952 725.545 102.333ZM740.471 102.333C740.471 95.7078 741.742 90.4885 744.284 86.6752C746.865 82.8619 751.006 80.9552 756.707 80.9552C762.407 80.9552 766.529 82.8619 769.071 86.6752C771.652 90.4885 772.942 95.7078 772.942 102.333C772.942 109.035 771.652 114.293 769.071 118.106C766.529 121.92 762.407 123.826 756.707 123.826C751.006 123.826 746.865 121.92 744.284 118.106C741.742 114.293 740.471 109.035 740.471 102.333ZM763.236 102.333C763.236 98.4426 762.812 95.4574 761.964 93.3774C761.117 91.2589 759.364 90.1996 756.707 90.1996C754.049 90.1996 752.296 91.2589 751.449 93.3774C750.601 95.4574 750.178 98.4426 750.178 102.333C750.178 104.952 750.332 107.129 750.64 108.862C750.948 110.557 751.564 111.943 752.489 113.022C753.452 114.062 754.858 114.582 756.707 114.582C758.556 114.582 759.942 114.062 760.867 113.022C761.83 111.943 762.465 110.557 762.773 108.862C763.081 107.129 763.236 104.952 763.236 102.333ZM808.438 108.226H798.384V118.511H789.024V108.226H778.971V99.3863H789.024V89.0441H798.384V99.3863H808.438V108.226Z" fill="white"/>
<path opacity="0.6" d="M895.063 179.297C893.836 179.297 892.734 179.084 891.756 178.657C890.796 178.213 890.041 177.608 889.49 176.844C888.939 176.062 888.654 175.164 888.636 174.151H891.223C891.312 175.022 891.667 175.76 892.29 176.364C892.93 176.951 893.854 177.244 895.063 177.244C896.219 177.244 897.125 176.96 897.783 176.391C898.459 175.804 898.796 175.057 898.796 174.151C898.796 173.44 898.601 172.862 898.21 172.417C897.819 171.973 897.33 171.635 896.743 171.404C896.156 171.173 895.365 170.924 894.37 170.657C893.143 170.337 892.156 170.017 891.41 169.697C890.681 169.377 890.05 168.88 889.516 168.204C889.001 167.511 888.743 166.586 888.743 165.431C888.743 164.417 889.001 163.52 889.516 162.737C890.032 161.955 890.752 161.351 891.676 160.924C892.619 160.497 893.694 160.284 894.903 160.284C896.645 160.284 898.067 160.72 899.17 161.591C900.29 162.462 900.921 163.617 901.063 165.057H898.396C898.307 164.346 897.934 163.724 897.276 163.191C896.619 162.64 895.747 162.364 894.663 162.364C893.65 162.364 892.823 162.631 892.183 163.164C891.543 163.68 891.223 164.408 891.223 165.351C891.223 166.026 891.41 166.577 891.783 167.004C892.174 167.431 892.645 167.76 893.196 167.991C893.765 168.204 894.556 168.453 895.57 168.737C896.796 169.075 897.783 169.413 898.53 169.751C899.276 170.071 899.916 170.577 900.45 171.271C900.983 171.946 901.25 172.871 901.25 174.044C901.25 174.951 901.01 175.804 900.53 176.604C900.05 177.404 899.339 178.053 898.396 178.551C897.454 179.048 896.343 179.297 895.063 179.297ZM903.914 171.777C903.914 170.266 904.216 168.951 904.821 167.831C905.425 166.693 906.261 165.813 907.327 165.191C908.412 164.568 909.647 164.257 911.034 164.257C912.83 164.257 914.305 164.693 915.461 165.564C916.634 166.435 917.407 167.644 917.781 169.191H915.167C914.918 168.302 914.43 167.6 913.701 167.084C912.99 166.568 912.101 166.311 911.034 166.311C909.647 166.311 908.527 166.791 907.674 167.751C906.821 168.693 906.394 170.035 906.394 171.777C906.394 173.537 906.821 174.897 907.674 175.857C908.527 176.817 909.647 177.297 911.034 177.297C912.101 177.297 912.99 177.048 913.701 176.551C914.412 176.053 914.901 175.342 915.167 174.417H917.781C917.39 175.911 916.607 177.111 915.434 178.017C914.261 178.906 912.794 179.351 911.034 179.351C909.647 179.351 908.412 179.04 907.327 178.417C906.261 177.795 905.425 176.915 904.821 175.777C904.216 174.64 903.914 173.306 903.914 171.777ZM923.445 166.871C923.872 166.035 924.476 165.386 925.259 164.924C926.059 164.462 927.027 164.231 928.165 164.231V166.737H927.525C924.805 166.737 923.445 168.213 923.445 171.164V179.111H921.019V164.497H923.445V166.871ZM944.3 171.244C944.3 171.706 944.273 172.195 944.22 172.711H932.54C932.629 174.151 933.118 175.28 934.007 176.097C934.913 176.897 936.007 177.297 937.287 177.297C938.335 177.297 939.207 177.057 939.9 176.577C940.611 176.08 941.109 175.422 941.393 174.604H944.007C943.615 176.008 942.833 177.155 941.66 178.044C940.487 178.915 939.029 179.351 937.287 179.351C935.9 179.351 934.655 179.04 933.553 178.417C932.469 177.795 931.615 176.915 930.993 175.777C930.371 174.622 930.06 173.288 930.06 171.777C930.06 170.266 930.362 168.942 930.967 167.804C931.571 166.666 932.415 165.795 933.5 165.191C934.602 164.568 935.864 164.257 937.287 164.257C938.673 164.257 939.9 164.56 940.967 165.164C942.033 165.768 942.851 166.604 943.42 167.671C944.007 168.72 944.3 169.911 944.3 171.244ZM941.793 170.737C941.793 169.813 941.589 169.022 941.18 168.364C940.771 167.688 940.211 167.182 939.5 166.844C938.807 166.488 938.033 166.311 937.18 166.311C935.953 166.311 934.904 166.702 934.033 167.484C933.18 168.266 932.691 169.351 932.567 170.737H941.793ZM960.836 171.244C960.836 171.706 960.81 172.195 960.756 172.711H949.076C949.165 174.151 949.654 175.28 950.543 176.097C951.45 176.897 952.543 177.297 953.823 177.297C954.872 177.297 955.743 177.057 956.436 176.577C957.147 176.08 957.645 175.422 957.93 174.604H960.543C960.152 176.008 959.37 177.155 958.196 178.044C957.023 178.915 955.565 179.351 953.823 179.351C952.436 179.351 951.192 179.04 950.09 178.417C949.005 177.795 948.152 176.915 947.53 175.777C946.907 174.622 946.596 173.288 946.596 171.777C946.596 170.266 946.899 168.942 947.503 167.804C948.107 166.666 948.952 165.795 950.036 165.191C951.139 164.568 952.401 164.257 953.823 164.257C955.21 164.257 956.436 164.56 957.503 165.164C958.57 165.768 959.387 166.604 959.956 167.671C960.543 168.72 960.836 169.911 960.836 171.244ZM958.33 170.737C958.33 169.813 958.125 169.022 957.716 168.364C957.307 167.688 956.747 167.182 956.036 166.844C955.343 166.488 954.57 166.311 953.716 166.311C952.49 166.311 951.441 166.702 950.57 167.484C949.716 168.266 949.227 169.351 949.103 170.737H958.33ZM971.159 164.231C972.937 164.231 974.377 164.773 975.479 165.857C976.582 166.924 977.133 168.471 977.133 170.497V179.111H974.733V170.844C974.733 169.386 974.368 168.275 973.639 167.511C972.911 166.728 971.915 166.337 970.653 166.337C969.373 166.337 968.351 166.737 967.586 167.537C966.839 168.337 966.466 169.502 966.466 171.031V179.111H964.039V164.497H966.466V166.577C966.946 165.831 967.595 165.253 968.413 164.844C969.248 164.435 970.164 164.231 971.159 164.231ZM991.166 166.497V175.111C991.166 175.822 991.317 176.328 991.619 176.631C991.922 176.915 992.446 177.057 993.193 177.057H994.979V179.111H992.793C991.442 179.111 990.428 178.8 989.753 178.177C989.077 177.555 988.739 176.533 988.739 175.111V166.497H986.846V164.497H988.739V160.817H991.166V164.497H994.979V166.497H991.166ZM999.173 162.124C998.711 162.124 998.32 161.964 998 161.644C997.68 161.324 997.52 160.933 997.52 160.471C997.52 160.008 997.68 159.617 998 159.297C998.32 158.977 998.711 158.817 999.173 158.817C999.617 158.817 999.991 158.977 1000.29 159.297C1000.61 159.617 1000.77 160.008 1000.77 160.471C1000.77 160.933 1000.61 161.324 1000.29 161.644C999.991 161.964 999.617 162.124 999.173 162.124ZM1000.35 164.497V179.111H997.92V164.497H1000.35ZM1022.06 164.231C1023.19 164.231 1024.21 164.471 1025.1 164.951C1025.98 165.413 1026.69 166.115 1027.2 167.057C1027.72 168 1027.98 169.146 1027.98 170.497V179.111H1025.58V170.844C1025.58 169.386 1025.21 168.275 1024.48 167.511C1023.77 166.728 1022.8 166.337 1021.58 166.337C1020.31 166.337 1019.31 166.746 1018.56 167.564C1017.82 168.364 1017.44 169.528 1017.44 171.057V179.111H1015.04V170.844C1015.04 169.386 1014.68 168.275 1013.95 167.511C1013.24 166.728 1012.27 166.337 1011.04 166.337C1009.78 166.337 1008.78 166.746 1008.03 167.564C1007.28 168.364 1006.91 169.528 1006.91 171.057V179.111H1004.48V164.497H1006.91V166.604C1007.39 165.84 1008.03 165.253 1008.83 164.844C1009.65 164.435 1010.54 164.231 1011.52 164.231C1012.75 164.231 1013.83 164.506 1014.78 165.057C1015.72 165.608 1016.42 166.417 1016.88 167.484C1017.29 166.453 1017.97 165.653 1018.91 165.084C1019.85 164.515 1020.9 164.231 1022.06 164.231ZM1045.29 171.244C1045.29 171.706 1045.26 172.195 1045.21 172.711H1033.53C1033.62 174.151 1034.11 175.28 1035 176.097C1035.9 176.897 1037 177.297 1038.28 177.297C1039.32 177.297 1040.2 177.057 1040.89 176.577C1041.6 176.08 1042.1 175.422 1042.38 174.604H1045C1044.6 176.008 1043.82 177.155 1042.65 178.044C1041.48 178.915 1040.02 179.351 1038.28 179.351C1036.89 179.351 1035.64 179.04 1034.54 178.417C1033.46 177.795 1032.6 176.915 1031.98 175.777C1031.36 174.622 1031.05 173.288 1031.05 171.777C1031.05 170.266 1031.35 168.942 1031.96 167.804C1032.56 166.666 1033.4 165.795 1034.49 165.191C1035.59 164.568 1036.85 164.257 1038.28 164.257C1039.66 164.257 1040.89 164.56 1041.96 165.164C1043.02 165.768 1043.84 166.604 1044.41 167.671C1045 168.72 1045.29 169.911 1045.29 171.244ZM1042.78 170.737C1042.78 169.813 1042.58 169.022 1042.17 168.364C1041.76 167.688 1041.2 167.182 1040.49 166.844C1039.8 166.488 1039.02 166.311 1038.17 166.311C1036.94 166.311 1035.89 166.702 1035.02 167.484C1034.17 168.266 1033.68 169.351 1033.56 170.737H1042.78Z" fill="white"/>
<path d="M907.139 91.0085V81.8219H923.144V124H912.859V91.0085H907.139ZM976.818 83.4396V124H966.938V99.6752L957.867 124H949.894L940.765 99.6174V124H930.885V83.4396H942.556L953.938 111.52L965.205 83.4396H976.818ZM1025.46 108.226H1015.41V118.511H1006.05V108.226H995.993V99.3863H1006.05V89.0441H1015.41V99.3863H1025.46V108.226Z" fill="white"/>
<defs>
<linearGradient id="paint0_linear_1_27540" x1="2.6679e-05" y1="-38.1251" x2="1053.56" y2="321.804" gradientUnits="userSpaceOnUse">
<stop stop-color="#008CE4"/>
<stop offset="1" stop-color="#00AF9E"/>
</linearGradient>
</defs>
</svg>
