<svg width="60" height="60" viewBox="0 0 60 60" fill="none" xmlns="http://www.w3.org/2000/svg">
<path d="M6.66732 59.1671H47.5006V53.3337H6.66732V12.5004H0.833984V53.3337C0.833984 56.5421 3.45898 59.1671 6.66732 59.1671ZM59.1673 41.6671V6.66707C59.1673 3.45874 56.5423 0.83374 53.334 0.83374H18.334C15.1257 0.83374 12.5007 3.45874 12.5007 6.66707V41.6671C12.5007 44.8754 15.1257 47.5004 18.334 47.5004H53.334C56.5423 47.5004 59.1673 44.8754 59.1673 41.6671ZM38.7506 6.66707H44.584V21.2504L41.6673 19.0629L38.7506 21.2504V6.66707ZM18.334 6.66707H32.9173V32.9171L41.6673 26.3546L50.4173 32.9171V6.66707H53.334V41.6671H18.334V6.66707Z" fill="#007EF2"/>
</svg>
