<svg width="93" height="93" viewBox="0 0 93 93" fill="none" xmlns="http://www.w3.org/2000/svg">
<circle opacity="0.2" r="46.5" transform="matrix(-1 0 0 1 46.5 46.5)" fill="#007EF2"/>
<g clip-path="url(#clip0_1_27401)">
<path d="M60.5833 27.25H31.4167C29.125 27.25 27.25 29.125 27.25 31.4167V60.5833C27.25 62.875 29.125 64.75 31.4167 64.75H60.5833C62.875 64.75 64.75 62.875 64.75 60.5833V31.4167C64.75 29.125 62.875 27.25 60.5833 27.25ZM37.6667 56.4167C36.5208 56.4167 35.5833 55.4792 35.5833 54.3333V43.9167C35.5833 42.7708 36.5208 41.8333 37.6667 41.8333C38.8125 41.8333 39.75 42.7708 39.75 43.9167V54.3333C39.75 55.4792 38.8125 56.4167 37.6667 56.4167ZM46 56.4167C44.8542 56.4167 43.9167 55.4792 43.9167 54.3333V37.6667C43.9167 36.5208 44.8542 35.5833 46 35.5833C47.1458 35.5833 48.0833 36.5208 48.0833 37.6667V54.3333C48.0833 55.4792 47.1458 56.4167 46 56.4167ZM54.3333 56.4167C53.1875 56.4167 52.25 55.4792 52.25 54.3333V50.1667C52.25 49.0208 53.1875 48.0833 54.3333 48.0833C55.4792 48.0833 56.4167 49.0208 56.4167 50.1667V54.3333C56.4167 55.4792 55.4792 56.4167 54.3333 56.4167Z" fill="#007EF2"/>
</g>
<defs>
<clipPath id="clip0_1_27401">
<rect width="50" height="50" fill="white" transform="translate(21 21)"/>
</clipPath>
</defs>
</svg>
