<svg width="66" height="66" viewBox="0 0 66 66" fill="none" xmlns="http://www.w3.org/2000/svg">
<circle opacity="0.2" cx="32.9999" cy="33" r="33" fill="#FFA92C"/>
<g clip-path="url(#clip0_1_27436)">
<path d="M44.9999 33C44.9999 31.86 45.6449 30.87 46.5899 30.36C47.4899 29.865 47.9999 28.845 47.9999 27.81V24C47.9999 22.35 46.6499 21 44.9999 21H20.9999C19.3499 21 18.0149 22.335 18.0149 23.985V27.81C18.0149 28.845 18.5099 29.865 19.4249 30.345C20.3699 30.87 20.9999 31.86 20.9999 33C20.9999 34.14 20.3549 35.145 19.4099 35.64C18.5099 36.135 17.9999 37.155 17.9999 38.19V41.565C17.9999 43.65 19.3499 45 20.9999 45H44.9999C46.6499 45 47.9999 43.65 47.9999 42V38.19C47.9999 37.155 47.4899 36.135 46.5899 35.64C45.6449 35.13 44.9999 34.14 44.9999 33ZM36.7499 39.15L32.9999 36.75L29.2499 39.165C28.6799 39.525 27.9449 39 28.1249 38.34L29.2499 34.02L25.7999 31.2C25.2749 30.765 25.5449 29.91 26.2349 29.865L30.6749 29.61L32.2949 25.485C32.5499 24.855 33.4499 24.855 33.6899 25.485L35.3099 29.625L39.7499 29.88C40.4249 29.925 40.7099 30.78 40.1849 31.215L36.7349 34.035L37.8749 38.325C38.0549 39 37.3199 39.525 36.7499 39.15Z" fill="#FFA92C"/>
</g>
<defs>
<clipPath id="clip0_1_27436">
<rect width="36" height="36" fill="white" transform="translate(14.9999 15)"/>
</clipPath>
</defs>
</svg>
