<svg width="491" height="207" viewBox="0 0 491 207" fill="none" xmlns="http://www.w3.org/2000/svg">
<path d="M9.08575 162L6.09775 156.87H4.11775V162H2.47975V149.454H6.52975C7.47775 149.454 8.27575 149.616 8.92375 149.94C9.58375 150.264 10.0758 150.702 10.3998 151.254C10.7238 151.806 10.8858 152.436 10.8858 153.144C10.8858 154.008 10.6338 154.77 10.1298 155.43C9.63775 156.09 8.89375 156.528 7.89775 156.744L11.0478 162H9.08575ZM4.11775 155.556H6.52975C7.41775 155.556 8.08375 155.34 8.52775 154.908C8.97175 154.464 9.19375 153.876 9.19375 153.144C9.19375 152.4 8.97175 151.824 8.52775 151.416C8.09575 151.008 7.42975 150.804 6.52975 150.804H4.11775V155.556ZM22.4309 156.69C22.4309 157.002 22.4129 157.332 22.3769 157.68H14.4929C14.5529 158.652 14.8829 159.414 15.4829 159.966C16.0949 160.506 16.8329 160.776 17.6969 160.776C18.4049 160.776 18.9929 160.614 19.4609 160.29C19.9409 159.954 20.2769 159.51 20.4689 158.958H22.2329C21.9689 159.906 21.4409 160.68 20.6489 161.28C19.8569 161.868 18.8729 162.162 17.6969 162.162C16.7609 162.162 15.9209 161.952 15.1769 161.532C14.4449 161.112 13.8689 160.518 13.4489 159.75C13.0289 158.97 12.8189 158.07 12.8189 157.05C12.8189 156.03 13.0229 155.136 13.4309 154.368C13.8389 153.6 14.4089 153.012 15.1409 152.604C15.8849 152.184 16.7369 151.974 17.6969 151.974C18.6329 151.974 19.4609 152.178 20.1809 152.586C20.9009 152.994 21.4529 153.558 21.8369 154.278C22.2329 154.986 22.4309 155.79 22.4309 156.69ZM20.7389 156.348C20.7389 155.724 20.6009 155.19 20.3249 154.746C20.0489 154.29 19.6709 153.948 19.1909 153.72C18.7229 153.48 18.2009 153.36 17.6249 153.36C16.7969 153.36 16.0889 153.624 15.5009 154.152C14.9249 154.68 14.5949 155.412 14.5109 156.348H20.7389ZM23.981 157.032C23.981 156.024 24.185 155.142 24.593 154.386C25.001 153.618 25.559 153.024 26.267 152.604C26.987 152.184 27.791 151.974 28.679 151.974C29.447 151.974 30.161 152.154 30.821 152.514C31.481 152.862 31.985 153.324 32.333 153.9V148.68H33.989V162H32.333V160.146C32.009 160.734 31.529 161.22 30.893 161.604C30.257 161.976 29.513 162.162 28.661 162.162C27.785 162.162 26.987 161.946 26.267 161.514C25.559 161.082 25.001 160.476 24.593 159.696C24.185 158.916 23.981 158.028 23.981 157.032ZM32.333 157.05C32.333 156.306 32.183 155.658 31.883 155.106C31.583 154.554 31.175 154.134 30.659 153.846C30.155 153.546 29.597 153.396 28.985 153.396C28.373 153.396 27.815 153.54 27.311 153.828C26.807 154.116 26.405 154.536 26.105 155.088C25.805 155.64 25.655 156.288 25.655 157.032C25.655 157.788 25.805 158.448 26.105 159.012C26.405 159.564 26.807 159.99 27.311 160.29C27.815 160.578 28.373 160.722 28.985 160.722C29.597 160.722 30.155 160.578 30.659 160.29C31.175 159.99 31.583 159.564 31.883 159.012C32.183 158.448 32.333 157.794 32.333 157.05ZM45.5051 152.136V162H43.8671V160.542C43.5551 161.046 43.1171 161.442 42.5531 161.73C42.0011 162.006 41.3891 162.144 40.7171 162.144C39.9491 162.144 39.2591 161.988 38.6471 161.676C38.0351 161.352 37.5491 160.872 37.1891 160.236C36.8411 159.6 36.6671 158.826 36.6671 157.914V152.136H38.2871V157.698C38.2871 158.67 38.5331 159.42 39.0251 159.948C39.5171 160.464 40.1891 160.722 41.0411 160.722C41.9171 160.722 42.6071 160.452 43.1111 159.912C43.6151 159.372 43.8671 158.586 43.8671 157.554V152.136H45.5051ZM47.6588 157.05C47.6588 156.03 47.8628 155.142 48.2708 154.386C48.6788 153.618 49.2428 153.024 49.9628 152.604C50.6948 152.184 51.5288 151.974 52.4648 151.974C53.6768 151.974 54.6728 152.268 55.4528 152.856C56.2448 153.444 56.7668 154.26 57.0188 155.304H55.2548C55.0868 154.704 54.7568 154.23 54.2648 153.882C53.7848 153.534 53.1848 153.36 52.4648 153.36C51.5288 153.36 50.7728 153.684 50.1968 154.332C49.6208 154.968 49.3328 155.874 49.3328 157.05C49.3328 158.238 49.6208 159.156 50.1968 159.804C50.7728 160.452 51.5288 160.776 52.4648 160.776C53.1848 160.776 53.7848 160.608 54.2648 160.272C54.7448 159.936 55.0748 159.456 55.2548 158.832H57.0188C56.7548 159.84 56.2268 160.65 55.4348 161.262C54.6428 161.862 53.6528 162.162 52.4648 162.162C51.5288 162.162 50.6948 161.952 49.9628 161.532C49.2428 161.112 48.6788 160.518 48.2708 159.75C47.8628 158.982 47.6588 158.082 47.6588 157.05ZM68.2044 156.69C68.2044 157.002 68.1864 157.332 68.1504 157.68H60.2664C60.3264 158.652 60.6564 159.414 61.2564 159.966C61.8684 160.506 62.6064 160.776 63.4704 160.776C64.1784 160.776 64.7664 160.614 65.2344 160.29C65.7144 159.954 66.0504 159.51 66.2424 158.958H68.0064C67.7424 159.906 67.2144 160.68 66.4224 161.28C65.6304 161.868 64.6464 162.162 63.4704 162.162C62.5344 162.162 61.6944 161.952 60.9504 161.532C60.2184 161.112 59.6424 160.518 59.2224 159.75C58.8024 158.97 58.5924 158.07 58.5924 157.05C58.5924 156.03 58.7964 155.136 59.2044 154.368C59.6124 153.6 60.1824 153.012 60.9144 152.604C61.6584 152.184 62.5104 151.974 63.4704 151.974C64.4064 151.974 65.2344 152.178 65.9544 152.586C66.6744 152.994 67.2264 153.558 67.6104 154.278C68.0064 154.986 68.2044 155.79 68.2044 156.69ZM66.5124 156.348C66.5124 155.724 66.3744 155.19 66.0984 154.746C65.8224 154.29 65.4444 153.948 64.9644 153.72C64.4964 153.48 63.9744 153.36 63.3984 153.36C62.5704 153.36 61.8624 153.624 61.2744 154.152C60.6984 154.68 60.3684 155.412 60.2844 156.348H66.5124ZM77.1633 153.486V159.3C77.1633 159.78 77.2653 160.122 77.4693 160.326C77.6733 160.518 78.0273 160.614 78.5313 160.614H79.7373V162H78.2613C77.3493 162 76.6653 161.79 76.2093 161.37C75.7533 160.95 75.5253 160.26 75.5253 159.3V153.486H74.2473V152.136H75.5253V149.652H77.1633V152.136H79.7373V153.486H77.1633ZM86.6179 151.956C87.3619 151.956 88.0339 152.118 88.6339 152.442C89.2339 152.754 89.7019 153.228 90.0379 153.864C90.3859 154.5 90.5599 155.274 90.5599 156.186V162H88.9399V156.42C88.9399 155.436 88.6939 154.686 88.2019 154.17C87.7099 153.642 87.0379 153.378 86.1859 153.378C85.3219 153.378 84.6319 153.648 84.1159 154.188C83.6119 154.728 83.3599 155.514 83.3599 156.546V162H81.7219V148.68H83.3599V153.54C83.6839 153.036 84.1279 152.646 84.6919 152.37C85.2679 152.094 85.9099 151.956 86.6179 151.956ZM102.236 156.69C102.236 157.002 102.218 157.332 102.182 157.68H94.2976C94.3576 158.652 94.6876 159.414 95.2876 159.966C95.8996 160.506 96.6376 160.776 97.5016 160.776C98.2096 160.776 98.7976 160.614 99.2656 160.29C99.7456 159.954 100.082 159.51 100.274 158.958H102.038C101.774 159.906 101.246 160.68 100.454 161.28C99.6616 161.868 98.6776 162.162 97.5016 162.162C96.5656 162.162 95.7256 161.952 94.9816 161.532C94.2496 161.112 93.6736 160.518 93.2536 159.75C92.8336 158.97 92.6236 158.07 92.6236 157.05C92.6236 156.03 92.8276 155.136 93.2356 154.368C93.6436 153.6 94.2136 153.012 94.9456 152.604C95.6896 152.184 96.5416 151.974 97.5016 151.974C98.4376 151.974 99.2656 152.178 99.9856 152.586C100.706 152.994 101.258 153.558 101.642 154.278C102.038 154.986 102.236 155.79 102.236 156.69ZM100.544 156.348C100.544 155.724 100.406 155.19 100.13 154.746C99.8536 154.29 99.4756 153.948 98.9956 153.72C98.5276 153.48 98.0056 153.36 97.4296 153.36C96.6016 153.36 95.8936 153.624 95.3056 154.152C94.7296 154.68 94.3996 155.412 94.3156 156.348H100.544ZM114.003 151.956C115.203 151.956 116.175 152.322 116.919 153.054C117.663 153.774 118.035 154.818 118.035 156.186V162H116.415V156.42C116.415 155.436 116.169 154.686 115.677 154.17C115.185 153.642 114.513 153.378 113.661 153.378C112.797 153.378 112.107 153.648 111.591 154.188C111.087 154.728 110.835 155.514 110.835 156.546V162H109.197V152.136H110.835V153.54C111.159 153.036 111.597 152.646 112.149 152.37C112.713 152.094 113.331 151.956 114.003 151.956ZM125.012 162.162C124.088 162.162 123.248 161.952 122.492 161.532C121.748 161.112 121.16 160.518 120.728 159.75C120.308 158.97 120.098 158.07 120.098 157.05C120.098 156.042 120.314 155.154 120.746 154.386C121.19 153.606 121.79 153.012 122.546 152.604C123.302 152.184 124.148 151.974 125.084 151.974C126.02 151.974 126.866 152.184 127.622 152.604C128.378 153.012 128.972 153.6 129.404 154.368C129.848 155.136 130.07 156.03 130.07 157.05C130.07 158.07 129.842 158.97 129.386 159.75C128.942 160.518 128.336 161.112 127.568 161.532C126.8 161.952 125.948 162.162 125.012 162.162ZM125.012 160.722C125.6 160.722 126.152 160.584 126.668 160.308C127.184 160.032 127.598 159.618 127.91 159.066C128.234 158.514 128.396 157.842 128.396 157.05C128.396 156.258 128.24 155.586 127.928 155.034C127.616 154.482 127.208 154.074 126.704 153.81C126.2 153.534 125.654 153.396 125.066 153.396C124.466 153.396 123.914 153.534 123.41 153.81C122.918 154.074 122.522 154.482 122.222 155.034C121.922 155.586 121.772 156.258 121.772 157.05C121.772 157.854 121.916 158.532 122.204 159.084C122.504 159.636 122.9 160.05 123.392 160.326C123.884 160.59 124.424 160.722 125.012 160.722ZM133.07 150.534C132.758 150.534 132.494 150.426 132.278 150.21C132.062 149.994 131.954 149.73 131.954 149.418C131.954 149.106 132.062 148.842 132.278 148.626C132.494 148.41 132.758 148.302 133.07 148.302C133.37 148.302 133.622 148.41 133.826 148.626C134.042 148.842 134.15 149.106 134.15 149.418C134.15 149.73 134.042 149.994 133.826 150.21C133.622 150.426 133.37 150.534 133.07 150.534ZM133.862 152.136V162H132.224V152.136H133.862ZM140.146 162.162C139.39 162.162 138.712 162.036 138.112 161.784C137.512 161.52 137.038 161.16 136.69 160.704C136.342 160.236 136.15 159.702 136.114 159.102H137.806C137.854 159.594 138.082 159.996 138.49 160.308C138.91 160.62 139.456 160.776 140.128 160.776C140.752 160.776 141.244 160.638 141.604 160.362C141.964 160.086 142.144 159.738 142.144 159.318C142.144 158.886 141.952 158.568 141.568 158.364C141.184 158.148 140.59 157.938 139.786 157.734C139.054 157.542 138.454 157.35 137.986 157.158C137.53 156.954 137.134 156.66 136.798 156.276C136.474 155.88 136.312 155.364 136.312 154.728C136.312 154.224 136.462 153.762 136.762 153.342C137.062 152.922 137.488 152.592 138.04 152.352C138.592 152.1 139.222 151.974 139.93 151.974C141.022 151.974 141.904 152.25 142.576 152.802C143.248 153.354 143.608 154.11 143.656 155.07H142.018C141.982 154.554 141.772 154.14 141.388 153.828C141.016 153.516 140.512 153.36 139.876 153.36C139.288 153.36 138.82 153.486 138.472 153.738C138.124 153.99 137.95 154.32 137.95 154.728C137.95 155.052 138.052 155.322 138.256 155.538C138.472 155.742 138.736 155.91 139.048 156.042C139.372 156.162 139.816 156.3 140.38 156.456C141.088 156.648 141.664 156.84 142.108 157.032C142.552 157.212 142.93 157.488 143.242 157.86C143.566 158.232 143.734 158.718 143.746 159.318C143.746 159.858 143.596 160.344 143.296 160.776C142.996 161.208 142.57 161.55 142.018 161.802C141.478 162.042 140.854 162.162 140.146 162.162ZM155.058 156.69C155.058 157.002 155.04 157.332 155.004 157.68H147.12C147.18 158.652 147.51 159.414 148.11 159.966C148.722 160.506 149.46 160.776 150.324 160.776C151.032 160.776 151.62 160.614 152.088 160.29C152.568 159.954 152.904 159.51 153.096 158.958H154.86C154.596 159.906 154.068 160.68 153.276 161.28C152.484 161.868 151.5 162.162 150.324 162.162C149.388 162.162 148.548 161.952 147.804 161.532C147.072 161.112 146.496 160.518 146.076 159.75C145.656 158.97 145.446 158.07 145.446 157.05C145.446 156.03 145.65 155.136 146.058 154.368C146.466 153.6 147.036 153.012 147.768 152.604C148.512 152.184 149.364 151.974 150.324 151.974C151.26 151.974 152.088 152.178 152.808 152.586C153.528 152.994 154.08 153.558 154.464 154.278C154.86 154.986 155.058 155.79 155.058 156.69ZM153.366 156.348C153.366 155.724 153.228 155.19 152.952 154.746C152.676 154.29 152.298 153.948 151.818 153.72C151.35 153.48 150.828 153.36 150.252 153.36C149.424 153.36 148.716 153.624 148.128 154.152C147.552 154.68 147.222 155.412 147.138 156.348H153.366ZM161.407 157.032C161.407 156.024 161.611 155.142 162.019 154.386C162.427 153.618 162.985 153.024 163.693 152.604C164.413 152.184 165.211 151.974 166.087 151.974C166.951 151.974 167.701 152.16 168.337 152.532C168.973 152.904 169.447 153.372 169.759 153.936V152.136H171.415V162H169.759V160.164C169.435 160.74 168.949 161.22 168.301 161.604C167.665 161.976 166.921 162.162 166.069 162.162C165.193 162.162 164.401 161.946 163.693 161.514C162.985 161.082 162.427 160.476 162.019 159.696C161.611 158.916 161.407 158.028 161.407 157.032ZM169.759 157.05C169.759 156.306 169.609 155.658 169.309 155.106C169.009 154.554 168.601 154.134 168.085 153.846C167.581 153.546 167.023 153.396 166.411 153.396C165.799 153.396 165.241 153.54 164.737 153.828C164.233 154.116 163.831 154.536 163.531 155.088C163.231 155.64 163.081 156.288 163.081 157.032C163.081 157.788 163.231 158.448 163.531 159.012C163.831 159.564 164.233 159.99 164.737 160.29C165.241 160.578 165.799 160.722 166.411 160.722C167.023 160.722 167.581 160.578 168.085 160.29C168.601 159.99 169.009 159.564 169.309 159.012C169.609 158.448 169.759 157.794 169.759 157.05ZM178.989 151.956C180.189 151.956 181.161 152.322 181.905 153.054C182.649 153.774 183.021 154.818 183.021 156.186V162H181.401V156.42C181.401 155.436 181.155 154.686 180.663 154.17C180.171 153.642 179.499 153.378 178.647 153.378C177.783 153.378 177.093 153.648 176.577 154.188C176.073 154.728 175.821 155.514 175.821 156.546V162H174.183V152.136H175.821V153.54C176.145 153.036 176.583 152.646 177.135 152.37C177.699 152.094 178.317 151.956 178.989 151.956ZM185.085 157.032C185.085 156.024 185.289 155.142 185.697 154.386C186.105 153.618 186.663 153.024 187.371 152.604C188.091 152.184 188.895 151.974 189.783 151.974C190.551 151.974 191.265 152.154 191.925 152.514C192.585 152.862 193.089 153.324 193.437 153.9V148.68H195.093V162H193.437V160.146C193.113 160.734 192.633 161.22 191.997 161.604C191.361 161.976 190.617 162.162 189.765 162.162C188.889 162.162 188.091 161.946 187.371 161.514C186.663 161.082 186.105 160.476 185.697 159.696C185.289 158.916 185.085 158.028 185.085 157.032ZM193.437 157.05C193.437 156.306 193.287 155.658 192.987 155.106C192.687 154.554 192.279 154.134 191.763 153.846C191.259 153.546 190.701 153.396 190.089 153.396C189.477 153.396 188.919 153.54 188.415 153.828C187.911 154.116 187.509 154.536 187.209 155.088C186.909 155.64 186.759 156.288 186.759 157.032C186.759 157.788 186.909 158.448 187.209 159.012C187.509 159.564 187.911 159.99 188.415 160.29C188.919 160.578 189.477 160.722 190.089 160.722C190.701 160.722 191.259 160.578 191.763 160.29C192.279 159.99 192.687 159.564 192.987 159.012C193.287 158.448 193.437 157.794 193.437 157.05ZM202.047 157.05C202.047 156.03 202.251 155.142 202.659 154.386C203.067 153.618 203.631 153.024 204.351 152.604C205.083 152.184 205.917 151.974 206.853 151.974C208.065 151.974 209.061 152.268 209.841 152.856C210.633 153.444 211.155 154.26 211.407 155.304H209.643C209.475 154.704 209.145 154.23 208.653 153.882C208.173 153.534 207.573 153.36 206.853 153.36C205.917 153.36 205.161 153.684 204.585 154.332C204.009 154.968 203.721 155.874 203.721 157.05C203.721 158.238 204.009 159.156 204.585 159.804C205.161 160.452 205.917 160.776 206.853 160.776C207.573 160.776 208.173 160.608 208.653 160.272C209.133 159.936 209.463 159.456 209.643 158.832H211.407C211.143 159.84 210.615 160.65 209.823 161.262C209.031 161.862 208.041 162.162 206.853 162.162C205.917 162.162 205.083 161.952 204.351 161.532C203.631 161.112 203.067 160.518 202.659 159.75C202.251 158.982 202.047 158.082 202.047 157.05ZM215.231 148.68V162H213.593V148.68H215.231ZM227.023 156.69C227.023 157.002 227.005 157.332 226.969 157.68H219.085C219.145 158.652 219.475 159.414 220.075 159.966C220.687 160.506 221.425 160.776 222.289 160.776C222.997 160.776 223.585 160.614 224.053 160.29C224.533 159.954 224.869 159.51 225.061 158.958H226.825C226.561 159.906 226.033 160.68 225.241 161.28C224.449 161.868 223.465 162.162 222.289 162.162C221.353 162.162 220.513 161.952 219.769 161.532C219.037 161.112 218.461 160.518 218.041 159.75C217.621 158.97 217.411 158.07 217.411 157.05C217.411 156.03 217.615 155.136 218.023 154.368C218.431 153.6 219.001 153.012 219.733 152.604C220.477 152.184 221.329 151.974 222.289 151.974C223.225 151.974 224.053 152.178 224.773 152.586C225.493 152.994 226.045 153.558 226.429 154.278C226.825 154.986 227.023 155.79 227.023 156.69ZM225.331 156.348C225.331 155.724 225.193 155.19 224.917 154.746C224.641 154.29 224.263 153.948 223.783 153.72C223.315 153.48 222.793 153.36 222.217 153.36C221.389 153.36 220.681 153.624 220.093 154.152C219.517 154.68 219.187 155.412 219.103 156.348H225.331ZM228.573 157.032C228.573 156.024 228.777 155.142 229.185 154.386C229.593 153.618 230.151 153.024 230.859 152.604C231.579 152.184 232.377 151.974 233.253 151.974C234.117 151.974 234.867 152.16 235.503 152.532C236.139 152.904 236.613 153.372 236.925 153.936V152.136H238.581V162H236.925V160.164C236.601 160.74 236.115 161.22 235.467 161.604C234.831 161.976 234.087 162.162 233.235 162.162C232.359 162.162 231.567 161.946 230.859 161.514C230.151 161.082 229.593 160.476 229.185 159.696C228.777 158.916 228.573 158.028 228.573 157.032ZM236.925 157.05C236.925 156.306 236.775 155.658 236.475 155.106C236.175 154.554 235.767 154.134 235.251 153.846C234.747 153.546 234.189 153.396 233.577 153.396C232.965 153.396 232.407 153.54 231.903 153.828C231.399 154.116 230.997 154.536 230.697 155.088C230.397 155.64 230.247 156.288 230.247 157.032C230.247 157.788 230.397 158.448 230.697 159.012C230.997 159.564 231.399 159.99 231.903 160.29C232.407 160.578 232.965 160.722 233.577 160.722C234.189 160.722 234.747 160.578 235.251 160.29C235.767 159.99 236.175 159.564 236.475 159.012C236.775 158.448 236.925 157.794 236.925 157.05ZM242.987 153.738C243.275 153.174 243.683 152.736 244.211 152.424C244.751 152.112 245.405 151.956 246.173 151.956V153.648H245.741C243.905 153.648 242.987 154.644 242.987 156.636V162H241.349V152.136H242.987V153.738ZM254.861 153.486V159.3C254.861 159.78 254.963 160.122 255.167 160.326C255.371 160.518 255.725 160.614 256.229 160.614H257.435V162H255.959C255.047 162 254.363 161.79 253.907 161.37C253.451 160.95 253.223 160.26 253.223 159.3V153.486H251.945V152.136H253.223V149.652H254.861V152.136H257.435V153.486H254.861ZM264.315 151.956C265.059 151.956 265.731 152.118 266.331 152.442C266.931 152.754 267.399 153.228 267.735 153.864C268.083 154.5 268.257 155.274 268.257 156.186V162H266.637V156.42C266.637 155.436 266.391 154.686 265.899 154.17C265.407 153.642 264.735 153.378 263.883 153.378C263.019 153.378 262.329 153.648 261.813 154.188C261.309 154.728 261.057 155.514 261.057 156.546V162H259.419V148.68H261.057V153.54C261.381 153.036 261.825 152.646 262.389 152.37C262.965 152.094 263.607 151.956 264.315 151.956ZM279.933 156.69C279.933 157.002 279.915 157.332 279.879 157.68H271.995C272.055 158.652 272.385 159.414 272.985 159.966C273.597 160.506 274.335 160.776 275.199 160.776C275.907 160.776 276.495 160.614 276.963 160.29C277.443 159.954 277.779 159.51 277.971 158.958H279.735C279.471 159.906 278.943 160.68 278.151 161.28C277.359 161.868 276.375 162.162 275.199 162.162C274.263 162.162 273.423 161.952 272.679 161.532C271.947 161.112 271.371 160.518 270.951 159.75C270.531 158.97 270.321 158.07 270.321 157.05C270.321 156.03 270.525 155.136 270.933 154.368C271.341 153.6 271.911 153.012 272.643 152.604C273.387 152.184 274.239 151.974 275.199 151.974C276.135 151.974 276.963 152.178 277.683 152.586C278.403 152.994 278.955 153.558 279.339 154.278C279.735 154.986 279.933 155.79 279.933 156.69ZM278.241 156.348C278.241 155.724 278.103 155.19 277.827 154.746C277.551 154.29 277.173 153.948 276.693 153.72C276.225 153.48 275.703 153.36 275.127 153.36C274.299 153.36 273.591 153.624 273.003 154.152C272.427 154.68 272.097 155.412 272.013 156.348H278.241ZM286.282 157.05C286.282 156.03 286.486 155.142 286.894 154.386C287.302 153.618 287.866 153.024 288.586 152.604C289.318 152.184 290.152 151.974 291.088 151.974C292.3 151.974 293.296 152.268 294.076 152.856C294.868 153.444 295.39 154.26 295.642 155.304H293.878C293.71 154.704 293.38 154.23 292.888 153.882C292.408 153.534 291.808 153.36 291.088 153.36C290.152 153.36 289.396 153.684 288.82 154.332C288.244 154.968 287.956 155.874 287.956 157.05C287.956 158.238 288.244 159.156 288.82 159.804C289.396 160.452 290.152 160.776 291.088 160.776C291.808 160.776 292.408 160.608 292.888 160.272C293.368 159.936 293.698 159.456 293.878 158.832H295.642C295.378 159.84 294.85 160.65 294.058 161.262C293.266 161.862 292.276 162.162 291.088 162.162C290.152 162.162 289.318 161.952 288.586 161.532C287.866 161.112 287.302 160.518 286.894 159.75C286.486 158.982 286.282 158.082 286.282 157.05ZM299.465 148.68V162H297.827V148.68H299.465ZM311.005 152.136V162H309.367V160.542C309.055 161.046 308.617 161.442 308.053 161.73C307.501 162.006 306.889 162.144 306.217 162.144C305.449 162.144 304.759 161.988 304.147 161.676C303.535 161.352 303.049 160.872 302.689 160.236C302.341 159.6 302.167 158.826 302.167 157.914V152.136H303.787V157.698C303.787 158.67 304.033 159.42 304.525 159.948C305.017 160.464 305.689 160.722 306.541 160.722C307.417 160.722 308.107 160.452 308.611 159.912C309.115 159.372 309.367 158.586 309.367 157.554V152.136H311.005ZM315.769 153.486V159.3C315.769 159.78 315.871 160.122 316.075 160.326C316.279 160.518 316.633 160.614 317.137 160.614H318.343V162H316.867C315.955 162 315.271 161.79 314.815 161.37C314.359 160.95 314.131 160.26 314.131 159.3V153.486H312.853V152.136H314.131V149.652H315.769V152.136H318.343V153.486H315.769ZM322.325 153.486V159.3C322.325 159.78 322.427 160.122 322.631 160.326C322.835 160.518 323.189 160.614 323.693 160.614H324.899V162H323.423C322.511 162 321.827 161.79 321.371 161.37C320.915 160.95 320.687 160.26 320.687 159.3V153.486H319.409V152.136H320.687V149.652H322.325V152.136H324.899V153.486H322.325ZM335.884 156.69C335.884 157.002 335.866 157.332 335.83 157.68H327.946C328.006 158.652 328.336 159.414 328.936 159.966C329.548 160.506 330.286 160.776 331.15 160.776C331.858 160.776 332.446 160.614 332.914 160.29C333.394 159.954 333.73 159.51 333.922 158.958H335.686C335.422 159.906 334.894 160.68 334.102 161.28C333.31 161.868 332.326 162.162 331.15 162.162C330.214 162.162 329.374 161.952 328.63 161.532C327.898 161.112 327.322 160.518 326.902 159.75C326.482 158.97 326.272 158.07 326.272 157.05C326.272 156.03 326.476 155.136 326.884 154.368C327.292 153.6 327.862 153.012 328.594 152.604C329.338 152.184 330.19 151.974 331.15 151.974C332.086 151.974 332.914 152.178 333.634 152.586C334.354 152.994 334.906 153.558 335.29 154.278C335.686 154.986 335.884 155.79 335.884 156.69ZM334.192 156.348C334.192 155.724 334.054 155.19 333.778 154.746C333.502 154.29 333.124 153.948 332.644 153.72C332.176 153.48 331.654 153.36 331.078 153.36C330.25 153.36 329.542 153.624 328.954 154.152C328.378 154.68 328.048 155.412 327.964 156.348H334.192ZM339.684 153.738C339.972 153.174 340.38 152.736 340.908 152.424C341.448 152.112 342.102 151.956 342.87 151.956V153.648H342.438C340.602 153.648 339.684 154.644 339.684 156.636V162H338.046V152.136H339.684V153.738ZM345.283 162.108C344.971 162.108 344.707 162 344.491 161.784C344.275 161.568 344.167 161.304 344.167 160.992C344.167 160.68 344.275 160.416 344.491 160.2C344.707 159.984 344.971 159.876 345.283 159.876C345.583 159.876 345.835 159.984 346.039 160.2C346.255 160.416 346.363 160.68 346.363 160.992C346.363 161.304 346.255 161.568 346.039 161.784C345.835 162 345.583 162.108 345.283 162.108ZM359.027 162.126C357.863 162.126 356.801 161.856 355.841 161.316C354.881 160.764 354.119 160.002 353.555 159.03C353.003 158.046 352.727 156.942 352.727 155.718C352.727 154.494 353.003 153.396 353.555 152.424C354.119 151.44 354.881 150.678 355.841 150.138C356.801 149.586 357.863 149.31 359.027 149.31C360.203 149.31 361.271 149.586 362.231 150.138C363.191 150.678 363.947 151.434 364.499 152.406C365.051 153.378 365.327 154.482 365.327 155.718C365.327 156.954 365.051 158.058 364.499 159.03C363.947 160.002 363.191 160.764 362.231 161.316C361.271 161.856 360.203 162.126 359.027 162.126ZM359.027 160.704C359.903 160.704 360.689 160.5 361.385 160.092C362.093 159.684 362.645 159.102 363.041 158.346C363.449 157.59 363.653 156.714 363.653 155.718C363.653 154.71 363.449 153.834 363.041 153.09C362.645 152.334 362.099 151.752 361.403 151.344C360.707 150.936 359.915 150.732 359.027 150.732C358.139 150.732 357.347 150.936 356.651 151.344C355.955 151.752 355.403 152.334 354.995 153.09C354.599 153.834 354.401 154.71 354.401 155.718C354.401 156.714 354.599 157.59 354.995 158.346C355.403 159.102 355.955 159.684 356.651 160.092C357.359 160.5 358.151 160.704 359.027 160.704ZM376.238 152.136V162H374.6V160.542C374.288 161.046 373.85 161.442 373.286 161.73C372.734 162.006 372.122 162.144 371.45 162.144C370.682 162.144 369.992 161.988 369.38 161.676C368.768 161.352 368.282 160.872 367.922 160.236C367.574 159.6 367.4 158.826 367.4 157.914V152.136H369.02V157.698C369.02 158.67 369.266 159.42 369.758 159.948C370.25 160.464 370.922 160.722 371.774 160.722C372.65 160.722 373.34 160.452 373.844 159.912C374.348 159.372 374.6 158.586 374.6 157.554V152.136H376.238ZM380.641 153.738C380.929 153.174 381.337 152.736 381.865 152.424C382.405 152.112 383.059 151.956 383.827 151.956V153.648H383.395C381.559 153.648 380.641 154.644 380.641 156.636V162H379.003V152.136H380.641V153.738ZM394.009 162.162C393.253 162.162 392.575 162.036 391.975 161.784C391.375 161.52 390.901 161.16 390.553 160.704C390.205 160.236 390.013 159.702 389.977 159.102H391.669C391.717 159.594 391.945 159.996 392.353 160.308C392.773 160.62 393.319 160.776 393.991 160.776C394.615 160.776 395.107 160.638 395.467 160.362C395.827 160.086 396.007 159.738 396.007 159.318C396.007 158.886 395.815 158.568 395.431 158.364C395.047 158.148 394.453 157.938 393.649 157.734C392.917 157.542 392.317 157.35 391.849 157.158C391.393 156.954 390.997 156.66 390.661 156.276C390.337 155.88 390.175 155.364 390.175 154.728C390.175 154.224 390.325 153.762 390.625 153.342C390.925 152.922 391.351 152.592 391.903 152.352C392.455 152.1 393.085 151.974 393.793 151.974C394.885 151.974 395.767 152.25 396.439 152.802C397.111 153.354 397.471 154.11 397.519 155.07H395.881C395.845 154.554 395.635 154.14 395.251 153.828C394.879 153.516 394.375 153.36 393.739 153.36C393.151 153.36 392.683 153.486 392.335 153.738C391.987 153.99 391.813 154.32 391.813 154.728C391.813 155.052 391.915 155.322 392.119 155.538C392.335 155.742 392.599 155.91 392.911 156.042C393.235 156.162 393.679 156.3 394.243 156.456C394.951 156.648 395.527 156.84 395.971 157.032C396.415 157.212 396.793 157.488 397.105 157.86C397.429 158.232 397.597 158.718 397.609 159.318C397.609 159.858 397.459 160.344 397.159 160.776C396.859 161.208 396.433 161.55 395.881 161.802C395.341 162.042 394.717 162.162 394.009 162.162ZM400.767 150.534C400.455 150.534 400.191 150.426 399.975 150.21C399.759 149.994 399.651 149.73 399.651 149.418C399.651 149.106 399.759 148.842 399.975 148.626C400.191 148.41 400.455 148.302 400.767 148.302C401.067 148.302 401.319 148.41 401.523 148.626C401.739 148.842 401.847 149.106 401.847 149.418C401.847 149.73 401.739 149.994 401.523 150.21C401.319 150.426 401.067 150.534 400.767 150.534ZM401.559 152.136V162H399.921V152.136H401.559ZM416.213 151.956C416.981 151.956 417.665 152.118 418.265 152.442C418.865 152.754 419.339 153.228 419.687 153.864C420.035 154.5 420.209 155.274 420.209 156.186V162H418.589V156.42C418.589 155.436 418.343 154.686 417.851 154.17C417.371 153.642 416.717 153.378 415.889 153.378C415.037 153.378 414.359 153.654 413.855 154.206C413.351 154.746 413.099 155.532 413.099 156.564V162H411.479V156.42C411.479 155.436 411.233 154.686 410.741 154.17C410.261 153.642 409.607 153.378 408.779 153.378C407.927 153.378 407.249 153.654 406.745 154.206C406.241 154.746 405.989 155.532 405.989 156.564V162H404.351V152.136H405.989V153.558C406.313 153.042 406.745 152.646 407.285 152.37C407.837 152.094 408.443 151.956 409.103 151.956C409.931 151.956 410.663 152.142 411.299 152.514C411.935 152.886 412.409 153.432 412.721 154.152C412.997 153.456 413.453 152.916 414.089 152.532C414.725 152.148 415.433 151.956 416.213 151.956ZM424.534 153.954C424.858 153.39 425.338 152.922 425.974 152.55C426.622 152.166 427.372 151.974 428.224 151.974C429.1 151.974 429.892 152.184 430.6 152.604C431.32 153.024 431.884 153.618 432.292 154.386C432.7 155.142 432.904 156.024 432.904 157.032C432.904 158.028 432.7 158.916 432.292 159.696C431.884 160.476 431.32 161.082 430.6 161.514C429.892 161.946 429.1 162.162 428.224 162.162C427.384 162.162 426.64 161.976 425.992 161.604C425.356 161.22 424.87 160.746 424.534 160.182V166.68H422.896V152.136H424.534V153.954ZM431.23 157.032C431.23 156.288 431.08 155.64 430.78 155.088C430.48 154.536 430.072 154.116 429.556 153.828C429.052 153.54 428.494 153.396 427.882 153.396C427.282 153.396 426.724 153.546 426.208 153.846C425.704 154.134 425.296 154.56 424.984 155.124C424.684 155.676 424.534 156.318 424.534 157.05C424.534 157.794 424.684 158.448 424.984 159.012C425.296 159.564 425.704 159.99 426.208 160.29C426.724 160.578 427.282 160.722 427.882 160.722C428.494 160.722 429.052 160.578 429.556 160.29C430.072 159.99 430.48 159.564 430.78 159.012C431.08 158.448 431.23 157.788 431.23 157.032ZM436.698 148.68V162H435.06V148.68H436.698ZM448.49 156.69C448.49 157.002 448.472 157.332 448.436 157.68H440.552C440.612 158.652 440.942 159.414 441.542 159.966C442.154 160.506 442.892 160.776 443.756 160.776C444.464 160.776 445.052 160.614 445.52 160.29C446 159.954 446.336 159.51 446.528 158.958H448.292C448.028 159.906 447.5 160.68 446.708 161.28C445.916 161.868 444.932 162.162 443.756 162.162C442.82 162.162 441.98 161.952 441.236 161.532C440.504 161.112 439.928 160.518 439.508 159.75C439.088 158.97 438.878 158.07 438.878 157.05C438.878 156.03 439.082 155.136 439.49 154.368C439.898 153.6 440.468 153.012 441.2 152.604C441.944 152.184 442.796 151.974 443.756 151.974C444.692 151.974 445.52 152.178 446.24 152.586C446.96 152.994 447.512 153.558 447.896 154.278C448.292 154.986 448.49 155.79 448.49 156.69ZM446.798 156.348C446.798 155.724 446.66 155.19 446.384 154.746C446.108 154.29 445.73 153.948 445.25 153.72C444.782 153.48 444.26 153.36 443.684 153.36C442.856 153.36 442.148 153.624 441.56 154.152C440.984 154.68 440.654 155.412 440.57 156.348H446.798ZM454.838 157.032C454.838 156.024 455.042 155.142 455.45 154.386C455.858 153.618 456.416 153.024 457.124 152.604C457.844 152.184 458.642 151.974 459.518 151.974C460.382 151.974 461.132 152.16 461.768 152.532C462.404 152.904 462.878 153.372 463.19 153.936V152.136H464.846V162H463.19V160.164C462.866 160.74 462.38 161.22 461.732 161.604C461.096 161.976 460.352 162.162 459.5 162.162C458.624 162.162 457.832 161.946 457.124 161.514C456.416 161.082 455.858 160.476 455.45 159.696C455.042 158.916 454.838 158.028 454.838 157.032ZM463.19 157.05C463.19 156.306 463.04 155.658 462.74 155.106C462.44 154.554 462.032 154.134 461.516 153.846C461.012 153.546 460.454 153.396 459.842 153.396C459.23 153.396 458.672 153.54 458.168 153.828C457.664 154.116 457.262 154.536 456.962 155.088C456.662 155.64 456.512 156.288 456.512 157.032C456.512 157.788 456.662 158.448 456.962 159.012C457.262 159.564 457.664 159.99 458.168 160.29C458.672 160.578 459.23 160.722 459.842 160.722C460.454 160.722 461.012 160.578 461.516 160.29C462.032 159.99 462.44 159.564 462.74 159.012C463.04 158.448 463.19 157.794 463.19 157.05ZM472.421 151.956C473.621 151.956 474.593 152.322 475.337 153.054C476.081 153.774 476.453 154.818 476.453 156.186V162H474.833V156.42C474.833 155.436 474.587 154.686 474.095 154.17C473.603 153.642 472.931 153.378 472.079 153.378C471.215 153.378 470.525 153.648 470.009 154.188C469.505 154.728 469.253 155.514 469.253 156.546V162H467.615V152.136H469.253V153.54C469.577 153.036 470.015 152.646 470.567 152.37C471.131 152.094 471.749 151.956 472.421 151.956ZM478.516 157.032C478.516 156.024 478.72 155.142 479.128 154.386C479.536 153.618 480.094 153.024 480.802 152.604C481.522 152.184 482.326 151.974 483.214 151.974C483.982 151.974 484.696 152.154 485.356 152.514C486.016 152.862 486.52 153.324 486.868 153.9V148.68H488.524V162H486.868V160.146C486.544 160.734 486.064 161.22 485.428 161.604C484.792 161.976 484.048 162.162 483.196 162.162C482.32 162.162 481.522 161.946 480.802 161.514C480.094 161.082 479.536 160.476 479.128 159.696C478.72 158.916 478.516 158.028 478.516 157.032ZM486.868 157.05C486.868 156.306 486.718 155.658 486.418 155.106C486.118 154.554 485.71 154.134 485.194 153.846C484.69 153.546 484.132 153.396 483.52 153.396C482.908 153.396 482.35 153.54 481.846 153.828C481.342 154.116 480.94 154.536 480.64 155.088C480.34 155.64 480.19 156.288 480.19 157.032C480.19 157.788 480.34 158.448 480.64 159.012C480.94 159.564 481.342 159.99 481.846 160.29C482.35 160.578 482.908 160.722 483.52 160.722C484.132 160.722 484.69 160.578 485.194 160.29C485.71 159.99 486.118 159.564 486.418 159.012C486.718 158.448 486.868 157.794 486.868 157.05ZM10.7125 187.486H8.6425V196H7.0045V187.486H5.7265V186.136H7.0045V185.434C7.0045 184.33 7.2865 183.526 7.8505 183.022C8.4265 182.506 9.3445 182.248 10.6045 182.248V183.616C9.8845 183.616 9.3745 183.76 9.0745 184.048C8.7865 184.324 8.6425 184.786 8.6425 185.434V186.136H10.7125V187.486ZM16.9243 196.162C16.0003 196.162 15.1603 195.952 14.4043 195.532C13.6603 195.112 13.0723 194.518 12.6403 193.75C12.2203 192.97 12.0103 192.07 12.0103 191.05C12.0103 190.042 12.2263 189.154 12.6583 188.386C13.1023 187.606 13.7023 187.012 14.4583 186.604C15.2143 186.184 16.0603 185.974 16.9963 185.974C17.9323 185.974 18.7783 186.184 19.5343 186.604C20.2903 187.012 20.8843 187.6 21.3163 188.368C21.7603 189.136 21.9823 190.03 21.9823 191.05C21.9823 192.07 21.7543 192.97 21.2983 193.75C20.8543 194.518 20.2483 195.112 19.4803 195.532C18.7123 195.952 17.8603 196.162 16.9243 196.162ZM16.9243 194.722C17.5123 194.722 18.0643 194.584 18.5803 194.308C19.0963 194.032 19.5103 193.618 19.8223 193.066C20.1463 192.514 20.3083 191.842 20.3083 191.05C20.3083 190.258 20.1523 189.586 19.8403 189.034C19.5283 188.482 19.1203 188.074 18.6163 187.81C18.1123 187.534 17.5663 187.396 16.9783 187.396C16.3783 187.396 15.8263 187.534 15.3223 187.81C14.8303 188.074 14.4343 188.482 14.1343 189.034C13.8343 189.586 13.6843 190.258 13.6843 191.05C13.6843 191.854 13.8283 192.532 14.1163 193.084C14.4163 193.636 14.8123 194.05 15.3043 194.326C15.7963 194.59 16.3363 194.722 16.9243 194.722ZM23.524 191.05C23.524 190.03 23.728 189.142 24.136 188.386C24.544 187.618 25.108 187.024 25.828 186.604C26.56 186.184 27.394 185.974 28.33 185.974C29.542 185.974 30.538 186.268 31.318 186.856C32.11 187.444 32.632 188.26 32.884 189.304H31.12C30.952 188.704 30.622 188.23 30.13 187.882C29.65 187.534 29.05 187.36 28.33 187.36C27.394 187.36 26.638 187.684 26.062 188.332C25.486 188.968 25.198 189.874 25.198 191.05C25.198 192.238 25.486 193.156 26.062 193.804C26.638 194.452 27.394 194.776 28.33 194.776C29.05 194.776 29.65 194.608 30.13 194.272C30.61 193.936 30.94 193.456 31.12 192.832H32.884C32.62 193.84 32.092 194.65 31.3 195.262C30.508 195.862 29.518 196.162 28.33 196.162C27.394 196.162 26.56 195.952 25.828 195.532C25.108 195.112 24.544 194.518 24.136 193.75C23.728 192.982 23.524 192.082 23.524 191.05ZM43.8176 186.136V196H42.1796V194.542C41.8676 195.046 41.4296 195.442 40.8656 195.73C40.3136 196.006 39.7016 196.144 39.0296 196.144C38.2616 196.144 37.5716 195.988 36.9596 195.676C36.3476 195.352 35.8616 194.872 35.5016 194.236C35.1536 193.6 34.9796 192.826 34.9796 191.914V186.136H36.5996V191.698C36.5996 192.67 36.8456 193.42 37.3376 193.948C37.8296 194.464 38.5016 194.722 39.3536 194.722C40.2296 194.722 40.9196 194.452 41.4236 193.912C41.9276 193.372 42.1796 192.586 42.1796 191.554V186.136H43.8176ZM50.0753 196.162C49.3193 196.162 48.6413 196.036 48.0413 195.784C47.4413 195.52 46.9673 195.16 46.6193 194.704C46.2713 194.236 46.0793 193.702 46.0433 193.102H47.7353C47.7833 193.594 48.0113 193.996 48.4193 194.308C48.8393 194.62 49.3853 194.776 50.0573 194.776C50.6813 194.776 51.1733 194.638 51.5333 194.362C51.8933 194.086 52.0733 193.738 52.0733 193.318C52.0733 192.886 51.8813 192.568 51.4973 192.364C51.1133 192.148 50.5193 191.938 49.7153 191.734C48.9833 191.542 48.3833 191.35 47.9153 191.158C47.4593 190.954 47.0633 190.66 46.7273 190.276C46.4033 189.88 46.2413 189.364 46.2413 188.728C46.2413 188.224 46.3913 187.762 46.6913 187.342C46.9913 186.922 47.4173 186.592 47.9693 186.352C48.5213 186.1 49.1513 185.974 49.8593 185.974C50.9513 185.974 51.8333 186.25 52.5053 186.802C53.1773 187.354 53.5373 188.11 53.5853 189.07H51.9473C51.9113 188.554 51.7013 188.14 51.3173 187.828C50.9453 187.516 50.4413 187.36 49.8053 187.36C49.2173 187.36 48.7493 187.486 48.4013 187.738C48.0533 187.99 47.8793 188.32 47.8793 188.728C47.8793 189.052 47.9813 189.322 48.1853 189.538C48.4013 189.742 48.6653 189.91 48.9773 190.042C49.3013 190.162 49.7453 190.3 50.3093 190.456C51.0173 190.648 51.5933 190.84 52.0373 191.032C52.4813 191.212 52.8593 191.488 53.1713 191.86C53.4953 192.232 53.6633 192.718 53.6753 193.318C53.6753 193.858 53.5253 194.344 53.2253 194.776C52.9253 195.208 52.4993 195.55 51.9473 195.802C51.4073 196.042 50.7833 196.162 50.0753 196.162ZM59.4796 196.162C58.7236 196.162 58.0456 196.036 57.4456 195.784C56.8456 195.52 56.3716 195.16 56.0236 194.704C55.6756 194.236 55.4836 193.702 55.4476 193.102H57.1396C57.1876 193.594 57.4156 193.996 57.8236 194.308C58.2436 194.62 58.7896 194.776 59.4616 194.776C60.0856 194.776 60.5776 194.638 60.9376 194.362C61.2976 194.086 61.4776 193.738 61.4776 193.318C61.4776 192.886 61.2856 192.568 60.9016 192.364C60.5176 192.148 59.9236 191.938 59.1196 191.734C58.3876 191.542 57.7876 191.35 57.3196 191.158C56.8636 190.954 56.4676 190.66 56.1316 190.276C55.8076 189.88 55.6456 189.364 55.6456 188.728C55.6456 188.224 55.7956 187.762 56.0956 187.342C56.3956 186.922 56.8216 186.592 57.3736 186.352C57.9256 186.1 58.5556 185.974 59.2636 185.974C60.3556 185.974 61.2376 186.25 61.9096 186.802C62.5816 187.354 62.9416 188.11 62.9896 189.07H61.3516C61.3156 188.554 61.1056 188.14 60.7216 187.828C60.3496 187.516 59.8456 187.36 59.2096 187.36C58.6216 187.36 58.1536 187.486 57.8056 187.738C57.4576 187.99 57.2836 188.32 57.2836 188.728C57.2836 189.052 57.3856 189.322 57.5896 189.538C57.8056 189.742 58.0696 189.91 58.3816 190.042C58.7056 190.162 59.1496 190.3 59.7136 190.456C60.4216 190.648 60.9976 190.84 61.4416 191.032C61.8856 191.212 62.2636 191.488 62.5756 191.86C62.8996 192.232 63.0676 192.718 63.0796 193.318C63.0796 193.858 62.9296 194.344 62.6296 194.776C62.3296 195.208 61.9036 195.55 61.3516 195.802C60.8116 196.042 60.1876 196.162 59.4796 196.162ZM74.3919 190.69C74.3919 191.002 74.3739 191.332 74.3379 191.68H66.4539C66.5139 192.652 66.8439 193.414 67.4439 193.966C68.0559 194.506 68.7939 194.776 69.6579 194.776C70.3659 194.776 70.9539 194.614 71.4219 194.29C71.9019 193.954 72.2379 193.51 72.4299 192.958H74.1939C73.9299 193.906 73.4019 194.68 72.6099 195.28C71.8179 195.868 70.8339 196.162 69.6579 196.162C68.7219 196.162 67.8819 195.952 67.1379 195.532C66.4059 195.112 65.8299 194.518 65.4099 193.75C64.9899 192.97 64.7799 192.07 64.7799 191.05C64.7799 190.03 64.9839 189.136 65.3919 188.368C65.7999 187.6 66.3699 187.012 67.1019 186.604C67.8459 186.184 68.6979 185.974 69.6579 185.974C70.5939 185.974 71.4219 186.178 72.1419 186.586C72.8619 186.994 73.4139 187.558 73.7979 188.278C74.1939 188.986 74.3919 189.79 74.3919 190.69ZM72.6999 190.348C72.6999 189.724 72.5619 189.19 72.2859 188.746C72.0099 188.29 71.6319 187.948 71.1519 187.72C70.6839 187.48 70.1619 187.36 69.5859 187.36C68.7579 187.36 68.0499 187.624 67.4619 188.152C66.8859 188.68 66.5559 189.412 66.4719 190.348H72.6999ZM75.942 191.032C75.942 190.024 76.146 189.142 76.554 188.386C76.962 187.618 77.52 187.024 78.228 186.604C78.948 186.184 79.752 185.974 80.64 185.974C81.408 185.974 82.122 186.154 82.782 186.514C83.442 186.862 83.946 187.324 84.294 187.9V182.68H85.95V196H84.294V194.146C83.97 194.734 83.49 195.22 82.854 195.604C82.218 195.976 81.474 196.162 80.622 196.162C79.746 196.162 78.948 195.946 78.228 195.514C77.52 195.082 76.962 194.476 76.554 193.696C76.146 192.916 75.942 192.028 75.942 191.032ZM84.294 191.05C84.294 190.306 84.144 189.658 83.844 189.106C83.544 188.554 83.136 188.134 82.62 187.846C82.116 187.546 81.558 187.396 80.946 187.396C80.334 187.396 79.776 187.54 79.272 187.828C78.768 188.116 78.366 188.536 78.066 189.088C77.766 189.64 77.616 190.288 77.616 191.032C77.616 191.788 77.766 192.448 78.066 193.012C78.366 193.564 78.768 193.99 79.272 194.29C79.776 194.578 80.334 194.722 80.946 194.722C81.558 194.722 82.116 194.578 82.62 194.29C83.136 193.99 83.544 193.564 83.844 193.012C84.144 192.448 84.294 191.794 84.294 191.05ZM95.1189 183.454V191.392C95.1189 192.508 95.3889 193.336 95.9289 193.876C96.4809 194.416 97.2429 194.686 98.2149 194.686C99.1749 194.686 99.9249 194.416 100.465 193.876C101.017 193.336 101.293 192.508 101.293 191.392V183.454H102.931V191.374C102.931 192.418 102.721 193.3 102.301 194.02C101.881 194.728 101.311 195.256 100.591 195.604C99.8829 195.952 99.0849 196.126 98.1969 196.126C97.3089 196.126 96.5049 195.952 95.7849 195.604C95.0769 195.256 94.5129 194.728 94.0929 194.02C93.6849 193.3 93.4809 192.418 93.4809 191.374V183.454H95.1189ZM109.155 196.162C108.399 196.162 107.721 196.036 107.121 195.784C106.521 195.52 106.047 195.16 105.699 194.704C105.351 194.236 105.159 193.702 105.123 193.102H106.815C106.863 193.594 107.091 193.996 107.499 194.308C107.919 194.62 108.465 194.776 109.137 194.776C109.761 194.776 110.253 194.638 110.613 194.362C110.973 194.086 111.153 193.738 111.153 193.318C111.153 192.886 110.961 192.568 110.577 192.364C110.193 192.148 109.599 191.938 108.795 191.734C108.063 191.542 107.463 191.35 106.995 191.158C106.539 190.954 106.143 190.66 105.807 190.276C105.483 189.88 105.321 189.364 105.321 188.728C105.321 188.224 105.471 187.762 105.771 187.342C106.071 186.922 106.497 186.592 107.049 186.352C107.601 186.1 108.231 185.974 108.939 185.974C110.031 185.974 110.913 186.25 111.585 186.802C112.257 187.354 112.617 188.11 112.665 189.07H111.027C110.991 188.554 110.781 188.14 110.397 187.828C110.025 187.516 109.521 187.36 108.885 187.36C108.297 187.36 107.829 187.486 107.481 187.738C107.133 187.99 106.959 188.32 106.959 188.728C106.959 189.052 107.061 189.322 107.265 189.538C107.481 189.742 107.745 189.91 108.057 190.042C108.381 190.162 108.825 190.3 109.389 190.456C110.097 190.648 110.673 190.84 111.117 191.032C111.561 191.212 111.939 191.488 112.251 191.86C112.575 192.232 112.743 192.718 112.755 193.318C112.755 193.858 112.605 194.344 112.305 194.776C112.005 195.208 111.579 195.55 111.027 195.802C110.487 196.042 109.863 196.162 109.155 196.162ZM124.068 190.69C124.068 191.002 124.05 191.332 124.014 191.68H116.13C116.19 192.652 116.52 193.414 117.12 193.966C117.732 194.506 118.47 194.776 119.334 194.776C120.042 194.776 120.63 194.614 121.098 194.29C121.578 193.954 121.914 193.51 122.106 192.958H123.87C123.606 193.906 123.078 194.68 122.286 195.28C121.494 195.868 120.51 196.162 119.334 196.162C118.398 196.162 117.558 195.952 116.814 195.532C116.082 195.112 115.506 194.518 115.086 193.75C114.666 192.97 114.456 192.07 114.456 191.05C114.456 190.03 114.66 189.136 115.068 188.368C115.476 187.6 116.046 187.012 116.778 186.604C117.522 186.184 118.374 185.974 119.334 185.974C120.27 185.974 121.098 186.178 121.818 186.586C122.538 186.994 123.09 187.558 123.474 188.278C123.87 188.986 124.068 189.79 124.068 190.69ZM122.376 190.348C122.376 189.724 122.238 189.19 121.962 188.746C121.686 188.29 121.308 187.948 120.828 187.72C120.36 187.48 119.838 187.36 119.262 187.36C118.434 187.36 117.726 187.624 117.138 188.152C116.562 188.68 116.232 189.412 116.148 190.348H122.376ZM127.868 187.738C128.156 187.174 128.564 186.736 129.092 186.424C129.632 186.112 130.286 185.956 131.054 185.956V187.648H130.622C128.786 187.648 127.868 188.644 127.868 190.636V196H126.23V186.136H127.868V187.738ZM139.381 184.786V188.98H143.953V190.33H139.381V194.65H144.493V196H137.743V183.436H144.493V184.786H139.381ZM152.12 196L149.78 192.328L147.53 196H145.82L149.006 191.104L145.82 186.136H147.674L150.014 189.79L152.246 186.136H153.956L150.788 191.014L153.974 196H152.12ZM157.223 187.954C157.547 187.39 158.027 186.922 158.663 186.55C159.311 186.166 160.061 185.974 160.913 185.974C161.789 185.974 162.581 186.184 163.289 186.604C164.009 187.024 164.573 187.618 164.981 188.386C165.389 189.142 165.593 190.024 165.593 191.032C165.593 192.028 165.389 192.916 164.981 193.696C164.573 194.476 164.009 195.082 163.289 195.514C162.581 195.946 161.789 196.162 160.913 196.162C160.073 196.162 159.329 195.976 158.681 195.604C158.045 195.22 157.559 194.746 157.223 194.182V200.68H155.585V186.136H157.223V187.954ZM163.919 191.032C163.919 190.288 163.769 189.64 163.469 189.088C163.169 188.536 162.761 188.116 162.245 187.828C161.741 187.54 161.183 187.396 160.571 187.396C159.971 187.396 159.413 187.546 158.897 187.846C158.393 188.134 157.985 188.56 157.673 189.124C157.373 189.676 157.223 190.318 157.223 191.05C157.223 191.794 157.373 192.448 157.673 193.012C157.985 193.564 158.393 193.99 158.897 194.29C159.413 194.578 159.971 194.722 160.571 194.722C161.183 194.722 161.741 194.578 162.245 194.29C162.761 193.99 163.169 193.564 163.469 193.012C163.769 192.448 163.919 191.788 163.919 191.032ZM176.749 190.69C176.749 191.002 176.731 191.332 176.695 191.68H168.811C168.871 192.652 169.201 193.414 169.801 193.966C170.413 194.506 171.151 194.776 172.015 194.776C172.723 194.776 173.311 194.614 173.779 194.29C174.259 193.954 174.595 193.51 174.787 192.958H176.551C176.287 193.906 175.759 194.68 174.967 195.28C174.175 195.868 173.191 196.162 172.015 196.162C171.079 196.162 170.239 195.952 169.495 195.532C168.763 195.112 168.187 194.518 167.767 193.75C167.347 192.97 167.137 192.07 167.137 191.05C167.137 190.03 167.341 189.136 167.749 188.368C168.157 187.6 168.727 187.012 169.459 186.604C170.203 186.184 171.055 185.974 172.015 185.974C172.951 185.974 173.779 186.178 174.499 186.586C175.219 186.994 175.771 187.558 176.155 188.278C176.551 188.986 176.749 189.79 176.749 190.69ZM175.057 190.348C175.057 189.724 174.919 189.19 174.643 188.746C174.367 188.29 173.989 187.948 173.509 187.72C173.041 187.48 172.519 187.36 171.943 187.36C171.115 187.36 170.407 187.624 169.819 188.152C169.243 188.68 168.913 189.412 168.829 190.348H175.057ZM180.549 187.738C180.837 187.174 181.245 186.736 181.773 186.424C182.313 186.112 182.967 185.956 183.735 185.956V187.648H183.303C181.467 187.648 180.549 188.644 180.549 190.636V196H178.911V186.136H180.549V187.738ZM186.472 184.534C186.16 184.534 185.896 184.426 185.68 184.21C185.464 183.994 185.356 183.73 185.356 183.418C185.356 183.106 185.464 182.842 185.68 182.626C185.896 182.41 186.16 182.302 186.472 182.302C186.772 182.302 187.024 182.41 187.228 182.626C187.444 182.842 187.552 183.106 187.552 183.418C187.552 183.73 187.444 183.994 187.228 184.21C187.024 184.426 186.772 184.534 186.472 184.534ZM187.264 186.136V196H185.626V186.136H187.264ZM199.056 190.69C199.056 191.002 199.038 191.332 199.002 191.68H191.118C191.178 192.652 191.508 193.414 192.108 193.966C192.72 194.506 193.458 194.776 194.322 194.776C195.03 194.776 195.618 194.614 196.086 194.29C196.566 193.954 196.902 193.51 197.094 192.958H198.858C198.594 193.906 198.066 194.68 197.274 195.28C196.482 195.868 195.498 196.162 194.322 196.162C193.386 196.162 192.546 195.952 191.802 195.532C191.07 195.112 190.494 194.518 190.074 193.75C189.654 192.97 189.444 192.07 189.444 191.05C189.444 190.03 189.648 189.136 190.056 188.368C190.464 187.6 191.034 187.012 191.766 186.604C192.51 186.184 193.362 185.974 194.322 185.974C195.258 185.974 196.086 186.178 196.806 186.586C197.526 186.994 198.078 187.558 198.462 188.278C198.858 188.986 199.056 189.79 199.056 190.69ZM197.364 190.348C197.364 189.724 197.226 189.19 196.95 188.746C196.674 188.29 196.296 187.948 195.816 187.72C195.348 187.48 194.826 187.36 194.25 187.36C193.422 187.36 192.714 187.624 192.126 188.152C191.55 188.68 191.22 189.412 191.136 190.348H197.364ZM206.024 185.956C207.224 185.956 208.196 186.322 208.94 187.054C209.684 187.774 210.056 188.818 210.056 190.186V196H208.436V190.42C208.436 189.436 208.19 188.686 207.698 188.17C207.206 187.642 206.534 187.378 205.682 187.378C204.818 187.378 204.128 187.648 203.612 188.188C203.108 188.728 202.856 189.514 202.856 190.546V196H201.218V186.136H202.856V187.54C203.18 187.036 203.618 186.646 204.17 186.37C204.734 186.094 205.352 185.956 206.024 185.956ZM212.12 191.05C212.12 190.03 212.324 189.142 212.732 188.386C213.14 187.618 213.704 187.024 214.424 186.604C215.156 186.184 215.99 185.974 216.926 185.974C218.138 185.974 219.134 186.268 219.914 186.856C220.706 187.444 221.228 188.26 221.48 189.304H219.716C219.548 188.704 219.218 188.23 218.726 187.882C218.246 187.534 217.646 187.36 216.926 187.36C215.99 187.36 215.234 187.684 214.658 188.332C214.082 188.968 213.794 189.874 213.794 191.05C213.794 192.238 214.082 193.156 214.658 193.804C215.234 194.452 215.99 194.776 216.926 194.776C217.646 194.776 218.246 194.608 218.726 194.272C219.206 193.936 219.536 193.456 219.716 192.832H221.48C221.216 193.84 220.688 194.65 219.896 195.262C219.104 195.862 218.114 196.162 216.926 196.162C215.99 196.162 215.156 195.952 214.424 195.532C213.704 195.112 213.14 194.518 212.732 193.75C212.324 192.982 212.12 192.082 212.12 191.05ZM232.665 190.69C232.665 191.002 232.647 191.332 232.611 191.68H224.727C224.787 192.652 225.117 193.414 225.717 193.966C226.329 194.506 227.067 194.776 227.931 194.776C228.639 194.776 229.227 194.614 229.695 194.29C230.175 193.954 230.511 193.51 230.703 192.958H232.467C232.203 193.906 231.675 194.68 230.883 195.28C230.091 195.868 229.107 196.162 227.931 196.162C226.995 196.162 226.155 195.952 225.411 195.532C224.679 195.112 224.103 194.518 223.683 193.75C223.263 192.97 223.053 192.07 223.053 191.05C223.053 190.03 223.257 189.136 223.665 188.368C224.073 187.6 224.643 187.012 225.375 186.604C226.119 186.184 226.971 185.974 227.931 185.974C228.867 185.974 229.695 186.178 230.415 186.586C231.135 186.994 231.687 187.558 232.071 188.278C232.467 188.986 232.665 189.79 232.665 190.69ZM230.973 190.348C230.973 189.724 230.835 189.19 230.559 188.746C230.283 188.29 229.905 187.948 229.425 187.72C228.957 187.48 228.435 187.36 227.859 187.36C227.031 187.36 226.323 187.624 225.735 188.152C225.159 188.68 224.829 189.412 224.745 190.348H230.973ZM252.766 186.136L249.688 196H247.996L245.62 188.17L243.244 196H241.552L238.456 186.136H240.13L242.398 194.416L244.846 186.136H246.52L248.914 194.434L251.146 186.136H252.766ZM255.238 184.534C254.926 184.534 254.662 184.426 254.446 184.21C254.23 183.994 254.122 183.73 254.122 183.418C254.122 183.106 254.23 182.842 254.446 182.626C254.662 182.41 254.926 182.302 255.238 182.302C255.538 182.302 255.79 182.41 255.994 182.626C256.21 182.842 256.318 183.106 256.318 183.418C256.318 183.73 256.21 183.994 255.994 184.21C255.79 184.426 255.538 184.534 255.238 184.534ZM256.03 186.136V196H254.392V186.136H256.03ZM260.46 182.68V196H258.822V182.68H260.46ZM264.889 182.68V196H263.251V182.68H264.889ZM284.342 185.956C285.11 185.956 285.794 186.118 286.394 186.442C286.994 186.754 287.468 187.228 287.816 187.864C288.164 188.5 288.338 189.274 288.338 190.186V196H286.718V190.42C286.718 189.436 286.472 188.686 285.98 188.17C285.5 187.642 284.846 187.378 284.018 187.378C283.166 187.378 282.488 187.654 281.984 188.206C281.48 188.746 281.228 189.532 281.228 190.564V196H279.608V190.42C279.608 189.436 279.362 188.686 278.87 188.17C278.39 187.642 277.736 187.378 276.908 187.378C276.056 187.378 275.378 187.654 274.874 188.206C274.37 188.746 274.118 189.532 274.118 190.564V196H272.48V186.136H274.118V187.558C274.442 187.042 274.874 186.646 275.414 186.37C275.966 186.094 276.572 185.956 277.232 185.956C278.06 185.956 278.792 186.142 279.428 186.514C280.064 186.886 280.538 187.432 280.85 188.152C281.126 187.456 281.582 186.916 282.218 186.532C282.854 186.148 283.562 185.956 284.342 185.956ZM290.413 191.032C290.413 190.024 290.617 189.142 291.025 188.386C291.433 187.618 291.991 187.024 292.699 186.604C293.419 186.184 294.217 185.974 295.093 185.974C295.957 185.974 296.707 186.16 297.343 186.532C297.979 186.904 298.453 187.372 298.765 187.936V186.136H300.421V196H298.765V194.164C298.441 194.74 297.955 195.22 297.307 195.604C296.671 195.976 295.927 196.162 295.075 196.162C294.199 196.162 293.407 195.946 292.699 195.514C291.991 195.082 291.433 194.476 291.025 193.696C290.617 192.916 290.413 192.028 290.413 191.032ZM298.765 191.05C298.765 190.306 298.615 189.658 298.315 189.106C298.015 188.554 297.607 188.134 297.091 187.846C296.587 187.546 296.029 187.396 295.417 187.396C294.805 187.396 294.247 187.54 293.743 187.828C293.239 188.116 292.837 188.536 292.537 189.088C292.237 189.64 292.087 190.288 292.087 191.032C292.087 191.788 292.237 192.448 292.537 193.012C292.837 193.564 293.239 193.99 293.743 194.29C294.247 194.578 294.805 194.722 295.417 194.722C296.029 194.722 296.587 194.578 297.091 194.29C297.607 193.99 298.015 193.564 298.315 193.012C298.615 192.448 298.765 191.794 298.765 191.05ZM308.697 196L304.827 191.644V196H303.189V182.68H304.827V190.51L308.625 186.136H310.911L306.267 191.05L310.929 196H308.697ZM321.452 190.69C321.452 191.002 321.434 191.332 321.398 191.68H313.514C313.574 192.652 313.904 193.414 314.504 193.966C315.116 194.506 315.854 194.776 316.718 194.776C317.426 194.776 318.014 194.614 318.482 194.29C318.962 193.954 319.298 193.51 319.49 192.958H321.254C320.99 193.906 320.462 194.68 319.67 195.28C318.878 195.868 317.894 196.162 316.718 196.162C315.782 196.162 314.942 195.952 314.198 195.532C313.466 195.112 312.89 194.518 312.47 193.75C312.05 192.97 311.84 192.07 311.84 191.05C311.84 190.03 312.044 189.136 312.452 188.368C312.86 187.6 313.43 187.012 314.162 186.604C314.906 186.184 315.758 185.974 316.718 185.974C317.654 185.974 318.482 186.178 319.202 186.586C319.922 186.994 320.474 187.558 320.858 188.278C321.254 188.986 321.452 189.79 321.452 190.69ZM319.76 190.348C319.76 189.724 319.622 189.19 319.346 188.746C319.07 188.29 318.692 187.948 318.212 187.72C317.744 187.48 317.222 187.36 316.646 187.36C315.818 187.36 315.11 187.624 314.522 188.152C313.946 188.68 313.616 189.412 313.532 190.348H319.76ZM336.909 186.136L330.969 200.644H329.277L331.221 195.892L327.243 186.136H329.061L332.157 194.128L335.217 186.136H336.909ZM342.858 196.162C341.934 196.162 341.094 195.952 340.338 195.532C339.594 195.112 339.006 194.518 338.574 193.75C338.154 192.97 337.944 192.07 337.944 191.05C337.944 190.042 338.16 189.154 338.592 188.386C339.036 187.606 339.636 187.012 340.392 186.604C341.148 186.184 341.994 185.974 342.93 185.974C343.866 185.974 344.712 186.184 345.468 186.604C346.224 187.012 346.818 187.6 347.25 188.368C347.694 189.136 347.916 190.03 347.916 191.05C347.916 192.07 347.688 192.97 347.232 193.75C346.788 194.518 346.182 195.112 345.414 195.532C344.646 195.952 343.794 196.162 342.858 196.162ZM342.858 194.722C343.446 194.722 343.998 194.584 344.514 194.308C345.03 194.032 345.444 193.618 345.756 193.066C346.08 192.514 346.242 191.842 346.242 191.05C346.242 190.258 346.086 189.586 345.774 189.034C345.462 188.482 345.054 188.074 344.55 187.81C344.046 187.534 343.5 187.396 342.912 187.396C342.312 187.396 341.76 187.534 341.256 187.81C340.764 188.074 340.368 188.482 340.068 189.034C339.768 189.586 339.618 190.258 339.618 191.05C339.618 191.854 339.762 192.532 340.05 193.084C340.35 193.636 340.746 194.05 341.238 194.326C341.73 194.59 342.27 194.722 342.858 194.722ZM358.818 186.136V196H357.18V194.542C356.868 195.046 356.43 195.442 355.866 195.73C355.314 196.006 354.702 196.144 354.03 196.144C353.262 196.144 352.572 195.988 351.96 195.676C351.348 195.352 350.862 194.872 350.502 194.236C350.154 193.6 349.98 192.826 349.98 191.914V186.136H351.6V191.698C351.6 192.67 351.846 193.42 352.338 193.948C352.83 194.464 353.502 194.722 354.354 194.722C355.23 194.722 355.92 194.452 356.424 193.912C356.928 193.372 357.18 192.586 357.18 191.554V186.136H358.818ZM363.221 187.738C363.509 187.174 363.917 186.736 364.445 186.424C364.985 186.112 365.639 185.956 366.407 185.956V187.648H365.975C364.139 187.648 363.221 188.644 363.221 190.636V196H361.583V186.136H363.221V187.738ZM379.379 189.538C379.835 189.61 380.249 189.796 380.621 190.096C381.005 190.396 381.305 190.768 381.521 191.212C381.749 191.656 381.863 192.13 381.863 192.634C381.863 193.27 381.701 193.846 381.377 194.362C381.053 194.866 380.579 195.268 379.955 195.568C379.343 195.856 378.617 196 377.777 196H373.097V183.454H377.597C378.449 183.454 379.175 183.598 379.775 183.886C380.375 184.162 380.825 184.54 381.125 185.02C381.425 185.5 381.575 186.04 381.575 186.64C381.575 187.384 381.371 188.002 380.963 188.494C380.567 188.974 380.039 189.322 379.379 189.538ZM374.735 188.872H377.489C378.257 188.872 378.851 188.692 379.271 188.332C379.691 187.972 379.901 187.474 379.901 186.838C379.901 186.202 379.691 185.704 379.271 185.344C378.851 184.984 378.245 184.804 377.453 184.804H374.735V188.872ZM377.633 194.65C378.449 194.65 379.085 194.458 379.541 194.074C379.997 193.69 380.225 193.156 380.225 192.472C380.225 191.776 379.985 191.23 379.505 190.834C379.025 190.426 378.383 190.222 377.579 190.222H374.735V194.65H377.633ZM385.774 187.738C386.062 187.174 386.47 186.736 386.998 186.424C387.538 186.112 388.192 185.956 388.96 185.956V187.648H388.528C386.692 187.648 385.774 188.644 385.774 190.636V196H384.136V186.136H385.774V187.738ZM390.239 191.032C390.239 190.024 390.443 189.142 390.851 188.386C391.259 187.618 391.817 187.024 392.525 186.604C393.245 186.184 394.043 185.974 394.919 185.974C395.783 185.974 396.533 186.16 397.169 186.532C397.805 186.904 398.279 187.372 398.591 187.936V186.136H400.247V196H398.591V194.164C398.267 194.74 397.781 195.22 397.133 195.604C396.497 195.976 395.753 196.162 394.901 196.162C394.025 196.162 393.233 195.946 392.525 195.514C391.817 195.082 391.259 194.476 390.851 193.696C390.443 192.916 390.239 192.028 390.239 191.032ZM398.591 191.05C398.591 190.306 398.441 189.658 398.141 189.106C397.841 188.554 397.433 188.134 396.917 187.846C396.413 187.546 395.855 187.396 395.243 187.396C394.631 187.396 394.073 187.54 393.569 187.828C393.065 188.116 392.663 188.536 392.363 189.088C392.063 189.64 391.913 190.288 391.913 191.032C391.913 191.788 392.063 192.448 392.363 193.012C392.663 193.564 393.065 193.99 393.569 194.29C394.073 194.578 394.631 194.722 395.243 194.722C395.855 194.722 396.413 194.578 396.917 194.29C397.433 193.99 397.841 193.564 398.141 193.012C398.441 192.448 398.591 191.794 398.591 191.05ZM407.821 185.956C409.021 185.956 409.993 186.322 410.737 187.054C411.481 187.774 411.853 188.818 411.853 190.186V196H410.233V190.42C410.233 189.436 409.987 188.686 409.495 188.17C409.003 187.642 408.331 187.378 407.479 187.378C406.615 187.378 405.925 187.648 405.409 188.188C404.905 188.728 404.653 189.514 404.653 190.546V196H403.015V186.136H404.653V187.54C404.977 187.036 405.415 186.646 405.967 186.37C406.531 186.094 407.149 185.956 407.821 185.956ZM413.917 191.032C413.917 190.024 414.121 189.142 414.529 188.386C414.937 187.618 415.495 187.024 416.203 186.604C416.923 186.184 417.727 185.974 418.615 185.974C419.383 185.974 420.097 186.154 420.757 186.514C421.417 186.862 421.921 187.324 422.269 187.9V182.68H423.925V196H422.269V194.146C421.945 194.734 421.465 195.22 420.829 195.604C420.193 195.976 419.449 196.162 418.597 196.162C417.721 196.162 416.923 195.946 416.203 195.514C415.495 195.082 414.937 194.476 414.529 193.696C414.121 192.916 413.917 192.028 413.917 191.032ZM422.269 191.05C422.269 190.306 422.119 189.658 421.819 189.106C421.519 188.554 421.111 188.134 420.595 187.846C420.091 187.546 419.533 187.396 418.921 187.396C418.309 187.396 417.751 187.54 417.247 187.828C416.743 188.116 416.341 188.536 416.041 189.088C415.741 189.64 415.591 190.288 415.591 191.032C415.591 191.788 415.741 192.448 416.041 193.012C416.341 193.564 416.743 193.99 417.247 194.29C417.751 194.578 418.309 194.722 418.921 194.722C419.533 194.722 420.091 194.578 420.595 194.29C421.111 193.99 421.519 193.564 421.819 193.012C422.119 192.448 422.269 191.794 422.269 191.05ZM434.983 196.162C434.227 196.162 433.549 196.036 432.949 195.784C432.349 195.52 431.875 195.16 431.527 194.704C431.179 194.236 430.987 193.702 430.951 193.102H432.643C432.691 193.594 432.919 193.996 433.327 194.308C433.747 194.62 434.293 194.776 434.965 194.776C435.589 194.776 436.081 194.638 436.441 194.362C436.801 194.086 436.981 193.738 436.981 193.318C436.981 192.886 436.789 192.568 436.405 192.364C436.021 192.148 435.427 191.938 434.623 191.734C433.891 191.542 433.291 191.35 432.823 191.158C432.367 190.954 431.971 190.66 431.635 190.276C431.311 189.88 431.149 189.364 431.149 188.728C431.149 188.224 431.299 187.762 431.599 187.342C431.899 186.922 432.325 186.592 432.877 186.352C433.429 186.1 434.059 185.974 434.767 185.974C435.859 185.974 436.741 186.25 437.413 186.802C438.085 187.354 438.445 188.11 438.493 189.07H436.855C436.819 188.554 436.609 188.14 436.225 187.828C435.853 187.516 435.349 187.36 434.713 187.36C434.125 187.36 433.657 187.486 433.309 187.738C432.961 187.99 432.787 188.32 432.787 188.728C432.787 189.052 432.889 189.322 433.093 189.538C433.309 189.742 433.573 189.91 433.885 190.042C434.209 190.162 434.653 190.3 435.217 190.456C435.925 190.648 436.501 190.84 436.945 191.032C437.389 191.212 437.767 191.488 438.079 191.86C438.403 192.232 438.571 192.718 438.583 193.318C438.583 193.858 438.433 194.344 438.133 194.776C437.833 195.208 437.407 195.55 436.855 195.802C436.315 196.042 435.691 196.162 434.983 196.162ZM442.894 187.486V193.3C442.894 193.78 442.996 194.122 443.2 194.326C443.404 194.518 443.758 194.614 444.262 194.614H445.468V196H443.992C443.08 196 442.396 195.79 441.94 195.37C441.484 194.95 441.256 194.26 441.256 193.3V187.486H439.978V186.136H441.256V183.652H442.894V186.136H445.468V187.486H442.894ZM446.84 191.032C446.84 190.024 447.044 189.142 447.452 188.386C447.86 187.618 448.418 187.024 449.126 186.604C449.846 186.184 450.644 185.974 451.52 185.974C452.384 185.974 453.134 186.16 453.77 186.532C454.406 186.904 454.88 187.372 455.192 187.936V186.136H456.848V196H455.192V194.164C454.868 194.74 454.382 195.22 453.734 195.604C453.098 195.976 452.354 196.162 451.502 196.162C450.626 196.162 449.834 195.946 449.126 195.514C448.418 195.082 447.86 194.476 447.452 193.696C447.044 192.916 446.84 192.028 446.84 191.032ZM455.192 191.05C455.192 190.306 455.042 189.658 454.742 189.106C454.442 188.554 454.034 188.134 453.518 187.846C453.014 187.546 452.456 187.396 451.844 187.396C451.232 187.396 450.674 187.54 450.17 187.828C449.666 188.116 449.264 188.536 448.964 189.088C448.664 189.64 448.514 190.288 448.514 191.032C448.514 191.788 448.664 192.448 448.964 193.012C449.264 193.564 449.666 193.99 450.17 194.29C450.674 194.578 451.232 194.722 451.844 194.722C452.456 194.722 453.014 194.578 453.518 194.29C454.034 193.99 454.442 193.564 454.742 193.012C455.042 192.448 455.192 191.794 455.192 191.05ZM464.422 185.956C465.622 185.956 466.594 186.322 467.338 187.054C468.082 187.774 468.454 188.818 468.454 190.186V196H466.834V190.42C466.834 189.436 466.588 188.686 466.096 188.17C465.604 187.642 464.932 187.378 464.08 187.378C463.216 187.378 462.526 187.648 462.01 188.188C461.506 188.728 461.254 189.514 461.254 190.546V196H459.616V186.136H461.254V187.54C461.578 187.036 462.016 186.646 462.568 186.37C463.132 186.094 463.75 185.956 464.422 185.956ZM470.518 191.032C470.518 190.024 470.722 189.142 471.13 188.386C471.538 187.618 472.096 187.024 472.804 186.604C473.524 186.184 474.328 185.974 475.216 185.974C475.984 185.974 476.698 186.154 477.358 186.514C478.018 186.862 478.522 187.324 478.87 187.9V182.68H480.526V196H478.87V194.146C478.546 194.734 478.066 195.22 477.43 195.604C476.794 195.976 476.05 196.162 475.198 196.162C474.322 196.162 473.524 195.946 472.804 195.514C472.096 195.082 471.538 194.476 471.13 193.696C470.722 192.916 470.518 192.028 470.518 191.032ZM478.87 191.05C478.87 190.306 478.72 189.658 478.42 189.106C478.12 188.554 477.712 188.134 477.196 187.846C476.692 187.546 476.134 187.396 475.522 187.396C474.91 187.396 474.352 187.54 473.848 187.828C473.344 188.116 472.942 188.536 472.642 189.088C472.342 189.64 472.192 190.288 472.192 191.032C472.192 191.788 472.342 192.448 472.642 193.012C472.942 193.564 473.344 193.99 473.848 194.29C474.352 194.578 474.91 194.722 475.522 194.722C476.134 194.722 476.692 194.578 477.196 194.29C477.712 193.99 478.12 193.564 478.42 193.012C478.72 192.448 478.87 191.794 478.87 191.05ZM483.816 196.108C483.504 196.108 483.24 196 483.024 195.784C482.808 195.568 482.7 195.304 482.7 194.992C482.7 194.68 482.808 194.416 483.024 194.2C483.24 193.984 483.504 193.876 483.816 193.876C484.116 193.876 484.368 193.984 484.572 194.2C484.788 194.416 484.896 194.68 484.896 194.992C484.896 195.304 484.788 195.568 484.572 195.784C484.368 196 484.116 196.108 483.816 196.108Z" fill="#8491A5"/>
<path d="M39.2671 16.516V22.27H31.4551V46H24.2731V22.27H16.4611V16.516H39.2671ZM53.5396 46.336C51.2436 46.336 49.1716 45.846 47.3236 44.866C45.5036 43.886 44.0616 42.486 42.9976 40.666C41.9616 38.846 41.4436 36.718 41.4436 34.282C41.4436 31.874 41.9756 29.76 43.0396 27.94C44.1036 26.092 45.5596 24.678 47.4076 23.698C49.2556 22.718 51.3276 22.228 53.6236 22.228C55.9196 22.228 57.9916 22.718 59.8396 23.698C61.6876 24.678 63.1436 26.092 64.2076 27.94C65.2716 29.76 65.8036 31.874 65.8036 34.282C65.8036 36.69 65.2576 38.818 64.1656 40.666C63.1016 42.486 61.6316 43.886 59.7556 44.866C57.9076 45.846 55.8356 46.336 53.5396 46.336ZM53.5396 40.12C54.9116 40.12 56.0736 39.616 57.0256 38.608C58.0056 37.6 58.4956 36.158 58.4956 34.282C58.4956 32.406 58.0196 30.964 57.0676 29.956C56.1436 28.948 54.9956 28.444 53.6236 28.444C52.2236 28.444 51.0616 28.948 50.1376 29.956C49.2136 30.936 48.7516 32.378 48.7516 34.282C48.7516 36.158 49.1996 37.6 50.0956 38.608C51.0196 39.616 52.1676 40.12 53.5396 40.12ZM80.2818 46.336C77.9858 46.336 75.9138 45.846 74.0658 44.866C72.2458 43.886 70.8038 42.486 69.7398 40.666C68.7038 38.846 68.1858 36.718 68.1858 34.282C68.1858 31.874 68.7178 29.76 69.7818 27.94C70.8458 26.092 72.3018 24.678 74.1498 23.698C75.9978 22.718 78.0698 22.228 80.3658 22.228C82.6618 22.228 84.7338 22.718 86.5818 23.698C88.4298 24.678 89.8858 26.092 90.9498 27.94C92.0138 29.76 92.5458 31.874 92.5458 34.282C92.5458 36.69 91.9998 38.818 90.9078 40.666C89.8438 42.486 88.3738 43.886 86.4978 44.866C84.6498 45.846 82.5778 46.336 80.2818 46.336ZM80.2818 40.12C81.6538 40.12 82.8158 39.616 83.7678 38.608C84.7478 37.6 85.2378 36.158 85.2378 34.282C85.2378 32.406 84.7618 30.964 83.8098 29.956C82.8858 28.948 81.7378 28.444 80.3658 28.444C78.9658 28.444 77.8038 28.948 76.8798 29.956C75.9558 30.936 75.4938 32.378 75.4938 34.282C75.4938 36.158 75.9418 37.6 76.8378 38.608C77.7618 39.616 78.9098 40.12 80.2818 40.12ZM103.538 14.92V46H96.356V14.92H103.538ZM118.277 46.336C116.233 46.336 114.413 45.986 112.817 45.286C111.221 44.586 109.961 43.634 109.037 42.43C108.113 41.198 107.595 39.826 107.483 38.314H114.581C114.665 39.126 115.043 39.784 115.715 40.288C116.387 40.792 117.213 41.044 118.193 41.044C119.089 41.044 119.775 40.876 120.251 40.54C120.755 40.176 121.007 39.714 121.007 39.154C121.007 38.482 120.657 37.992 119.957 37.684C119.257 37.348 118.123 36.984 116.555 36.592C114.875 36.2 113.475 35.794 112.355 35.374C111.235 34.926 110.269 34.24 109.457 33.316C108.645 32.364 108.239 31.09 108.239 29.494C108.239 28.15 108.603 26.932 109.331 25.84C110.087 24.72 111.179 23.838 112.607 23.194C114.063 22.55 115.785 22.228 117.773 22.228C120.713 22.228 123.023 22.956 124.703 24.412C126.411 25.868 127.391 27.8 127.643 30.208H121.007C120.895 29.396 120.531 28.752 119.915 28.276C119.327 27.8 118.543 27.562 117.563 27.562C116.723 27.562 116.079 27.73 115.631 28.066C115.183 28.374 114.959 28.808 114.959 29.368C114.959 30.04 115.309 30.544 116.009 30.88C116.737 31.216 117.857 31.552 119.369 31.888C121.105 32.336 122.519 32.784 123.611 33.232C124.703 33.652 125.655 34.352 126.467 35.332C127.307 36.284 127.741 37.572 127.769 39.196C127.769 40.568 127.377 41.8 126.593 42.892C125.837 43.956 124.731 44.796 123.275 45.412C121.847 46.028 120.181 46.336 118.277 46.336ZM154.125 39.91V46H150.471C147.867 46 145.837 45.37 144.381 44.11C142.925 42.822 142.197 40.736 142.197 37.852V28.528H139.341V22.564H142.197V16.852H149.379V22.564H154.083V28.528H149.379V37.936C149.379 38.636 149.547 39.14 149.883 39.448C150.219 39.756 150.779 39.91 151.563 39.91H154.125ZM172.531 22.312C175.219 22.312 177.375 23.208 178.999 25C180.623 26.764 181.435 29.2 181.435 32.308V46H174.295V33.274C174.295 31.706 173.889 30.488 173.077 29.62C172.265 28.752 171.173 28.318 169.801 28.318C168.429 28.318 167.337 28.752 166.525 29.62C165.713 30.488 165.307 31.706 165.307 33.274V46H158.125V14.92H165.307V25.714C166.035 24.678 167.029 23.852 168.289 23.236C169.549 22.62 170.963 22.312 172.531 22.312ZM184.998 34.24C184.998 31.832 185.446 29.718 186.342 27.898C187.266 26.078 188.512 24.678 190.08 23.698C191.648 22.718 193.398 22.228 195.33 22.228C196.982 22.228 198.424 22.564 199.656 23.236C200.916 23.908 201.882 24.79 202.554 25.882V22.564H209.736V46H202.554V42.682C201.854 43.774 200.874 44.656 199.614 45.328C198.382 46 196.94 46.336 195.288 46.336C193.384 46.336 191.648 45.846 190.08 44.866C188.512 43.858 187.266 42.444 186.342 40.624C185.446 38.776 184.998 36.648 184.998 34.24ZM202.554 34.282C202.554 32.49 202.05 31.076 201.042 30.04C200.062 29.004 198.858 28.486 197.43 28.486C196.002 28.486 194.784 29.004 193.776 30.04C192.796 31.048 192.306 32.448 192.306 34.24C192.306 36.032 192.796 37.46 193.776 38.524C194.784 39.56 196.002 40.078 197.43 40.078C198.858 40.078 200.062 39.56 201.042 38.524C202.05 37.488 202.554 36.074 202.554 34.282ZM227.994 39.91V46H224.34C221.736 46 219.706 45.37 218.25 44.11C216.794 42.822 216.066 40.736 216.066 37.852V28.528H213.21V22.564H216.066V16.852H223.248V22.564H227.952V28.528H223.248V37.936C223.248 38.636 223.416 39.14 223.752 39.448C224.088 39.756 224.648 39.91 225.432 39.91H227.994ZM270.799 22.312C273.711 22.312 276.021 23.194 277.729 24.958C279.465 26.722 280.333 29.172 280.333 32.308V46H273.193V33.274C273.193 31.762 272.787 30.6 271.975 29.788C271.191 28.948 270.099 28.528 268.699 28.528C267.299 28.528 266.193 28.948 265.381 29.788C264.597 30.6 264.205 31.762 264.205 33.274V46H257.065V33.274C257.065 31.762 256.659 30.6 255.847 29.788C255.063 28.948 253.971 28.528 252.571 28.528C251.171 28.528 250.065 28.948 249.253 29.788C248.469 30.6 248.077 31.762 248.077 33.274V46H240.895V22.564H248.077V25.504C248.805 24.524 249.757 23.754 250.933 23.194C252.109 22.606 253.439 22.312 254.923 22.312C256.687 22.312 258.255 22.69 259.627 23.446C261.027 24.202 262.119 25.28 262.903 26.68C263.715 25.392 264.821 24.342 266.221 23.53C267.621 22.718 269.147 22.312 270.799 22.312ZM283.928 34.24C283.928 31.832 284.376 29.718 285.272 27.898C286.196 26.078 287.442 24.678 289.01 23.698C290.578 22.718 292.328 22.228 294.26 22.228C295.912 22.228 297.354 22.564 298.586 23.236C299.846 23.908 300.812 24.79 301.484 25.882V22.564H308.666V46H301.484V42.682C300.784 43.774 299.804 44.656 298.544 45.328C297.312 46 295.87 46.336 294.218 46.336C292.314 46.336 290.578 45.846 289.01 44.866C287.442 43.858 286.196 42.444 285.272 40.624C284.376 38.776 283.928 36.648 283.928 34.24ZM301.484 34.282C301.484 32.49 300.98 31.076 299.972 30.04C298.992 29.004 297.788 28.486 296.36 28.486C294.932 28.486 293.714 29.004 292.706 30.04C291.726 31.048 291.236 32.448 291.236 34.24C291.236 36.032 291.726 37.46 292.706 38.524C293.714 39.56 294.932 40.078 296.36 40.078C297.788 40.078 298.992 39.56 299.972 38.524C300.98 37.488 301.484 36.074 301.484 34.282ZM328.184 46L321.044 36.172V46H313.862V14.92H321.044V32.098L328.142 22.564H337.004L327.26 34.324L337.088 46H328.184ZM361.917 33.904C361.917 34.576 361.875 35.276 361.791 36.004H345.537C345.649 37.46 346.111 38.58 346.923 39.364C347.763 40.12 348.785 40.498 349.989 40.498C351.781 40.498 353.027 39.742 353.727 38.23H361.371C360.979 39.77 360.265 41.156 359.229 42.388C358.221 43.62 356.947 44.586 355.407 45.286C353.867 45.986 352.145 46.336 350.241 46.336C347.945 46.336 345.901 45.846 344.109 44.866C342.317 43.886 340.917 42.486 339.909 40.666C338.901 38.846 338.397 36.718 338.397 34.282C338.397 31.846 338.887 29.718 339.867 27.898C340.875 26.078 342.275 24.678 344.067 23.698C345.859 22.718 347.917 22.228 350.241 22.228C352.509 22.228 354.525 22.704 356.289 23.656C358.053 24.608 359.425 25.966 360.405 27.73C361.413 29.494 361.917 31.552 361.917 33.904ZM354.567 32.014C354.567 30.782 354.147 29.802 353.307 29.074C352.467 28.346 351.417 27.982 350.157 27.982C348.953 27.982 347.931 28.332 347.091 29.032C346.279 29.732 345.775 30.726 345.579 32.014H354.567ZM398.546 22.564L383.846 57.13H376.118L381.494 45.202L371.96 22.564H379.982L385.4 37.222L390.776 22.564H398.546ZM411.811 46.336C409.515 46.336 407.443 45.846 405.595 44.866C403.775 43.886 402.333 42.486 401.269 40.666C400.233 38.846 399.715 36.718 399.715 34.282C399.715 31.874 400.247 29.76 401.311 27.94C402.375 26.092 403.831 24.678 405.679 23.698C407.527 22.718 409.599 22.228 411.895 22.228C414.191 22.228 416.263 22.718 418.111 23.698C419.959 24.678 421.415 26.092 422.479 27.94C423.543 29.76 424.075 31.874 424.075 34.282C424.075 36.69 423.529 38.818 422.437 40.666C421.373 42.486 419.903 43.886 418.027 44.866C416.179 45.846 414.107 46.336 411.811 46.336ZM411.811 40.12C413.183 40.12 414.345 39.616 415.297 38.608C416.277 37.6 416.767 36.158 416.767 34.282C416.767 32.406 416.291 30.964 415.339 29.956C414.415 28.948 413.267 28.444 411.895 28.444C410.495 28.444 409.333 28.948 408.409 29.956C407.485 30.936 407.023 32.378 407.023 34.282C407.023 36.158 407.471 37.6 408.367 38.608C409.291 39.616 410.439 40.12 411.811 40.12ZM451.027 22.564V46H443.845V42.808C443.117 43.844 442.123 44.684 440.863 45.328C439.631 45.944 438.259 46.252 436.747 46.252C434.955 46.252 433.373 45.86 432.001 45.076C430.629 44.264 429.565 43.102 428.809 41.59C428.053 40.078 427.675 38.3 427.675 36.256V22.564H434.815V35.29C434.815 36.858 435.221 38.076 436.033 38.944C436.845 39.812 437.937 40.246 439.309 40.246C440.709 40.246 441.815 39.812 442.627 38.944C443.439 38.076 443.845 36.858 443.845 35.29V22.564H451.027ZM463.368 26.47C464.208 25.182 465.258 24.174 466.518 23.446C467.778 22.69 469.178 22.312 470.718 22.312V29.914H468.744C466.952 29.914 465.608 30.306 464.712 31.09C463.816 31.846 463.368 33.19 463.368 35.122V46H456.186V22.564H463.368V26.47Z" fill="#1F1F1F"/>
<path d="M99.5224 93.88C101.23 94.244 102.602 95.098 103.638 96.442C104.674 97.758 105.192 99.27 105.192 100.978C105.192 103.442 104.324 105.402 102.588 106.858C100.88 108.286 98.4864 109 95.4064 109H81.6724V79.516H94.9444C97.9404 79.516 100.278 80.202 101.958 81.574C103.666 82.946 104.52 84.808 104.52 87.16C104.52 88.896 104.058 90.338 103.134 91.486C102.238 92.634 101.034 93.432 99.5224 93.88ZM88.8544 91.444H93.5584C94.7344 91.444 95.6304 91.192 96.2464 90.688C96.8904 90.156 97.2124 89.386 97.2124 88.378C97.2124 87.37 96.8904 86.6 96.2464 86.068C95.6304 85.536 94.7344 85.27 93.5584 85.27H88.8544V91.444ZM94.1464 103.204C95.3504 103.204 96.2744 102.938 96.9184 102.406C97.5904 101.846 97.9264 101.048 97.9264 100.012C97.9264 98.976 97.5764 98.164 96.8764 97.576C96.2044 96.988 95.2664 96.694 94.0624 96.694H88.8544V103.204H94.1464ZM116.54 89.47C117.38 88.182 118.43 87.174 119.69 86.446C120.95 85.69 122.35 85.312 123.89 85.312V92.914H121.916C120.124 92.914 118.78 93.306 117.884 94.09C116.988 94.846 116.54 96.19 116.54 98.122V109H109.358V85.564H116.54V89.47ZM125.895 97.24C125.895 94.832 126.343 92.718 127.239 90.898C128.163 89.078 129.409 87.678 130.977 86.698C132.545 85.718 134.295 85.228 136.227 85.228C137.879 85.228 139.321 85.564 140.553 86.236C141.813 86.908 142.779 87.79 143.451 88.882V85.564H150.633V109H143.451V105.682C142.751 106.774 141.771 107.656 140.511 108.328C139.279 109 137.837 109.336 136.185 109.336C134.281 109.336 132.545 108.846 130.977 107.866C129.409 106.858 128.163 105.444 127.239 103.624C126.343 101.776 125.895 99.648 125.895 97.24ZM143.451 97.282C143.451 95.49 142.947 94.076 141.939 93.04C140.959 92.004 139.755 91.486 138.327 91.486C136.899 91.486 135.681 92.004 134.673 93.04C133.693 94.048 133.203 95.448 133.203 97.24C133.203 99.032 133.693 100.46 134.673 101.524C135.681 102.56 136.899 103.078 138.327 103.078C139.755 103.078 140.959 102.56 141.939 101.524C142.947 100.488 143.451 99.074 143.451 97.282ZM170.109 85.312C172.853 85.312 175.037 86.208 176.661 88C178.313 89.764 179.139 92.2 179.139 95.308V109H171.999V96.274C171.999 94.706 171.593 93.488 170.781 92.62C169.969 91.752 168.877 91.318 167.505 91.318C166.133 91.318 165.041 91.752 164.229 92.62C163.417 93.488 163.011 94.706 163.011 96.274V109H155.829V85.564H163.011V88.672C163.739 87.636 164.719 86.824 165.951 86.236C167.183 85.62 168.569 85.312 170.109 85.312ZM182.701 97.24C182.701 94.832 183.149 92.718 184.045 90.898C184.969 89.078 186.215 87.678 187.783 86.698C189.351 85.718 191.101 85.228 193.033 85.228C194.573 85.228 195.973 85.55 197.233 86.194C198.521 86.838 199.529 87.706 200.257 88.798V77.92H207.439V109H200.257V105.64C199.585 106.76 198.619 107.656 197.359 108.328C196.127 109 194.685 109.336 193.033 109.336C191.101 109.336 189.351 108.846 187.783 107.866C186.215 106.858 184.969 105.444 184.045 103.624C183.149 101.776 182.701 99.648 182.701 97.24ZM200.257 97.282C200.257 95.49 199.753 94.076 198.745 93.04C197.765 92.004 196.561 91.486 195.133 91.486C193.705 91.486 192.487 92.004 191.479 93.04C190.499 94.048 190.009 95.448 190.009 97.24C190.009 99.032 190.499 100.46 191.479 101.524C192.487 102.56 193.705 103.078 195.133 103.078C196.561 103.078 197.765 102.56 198.745 101.524C199.753 100.488 200.257 99.074 200.257 97.282ZM244.006 89.008C244.006 90.716 243.614 92.284 242.83 93.712C242.046 95.112 240.842 96.246 239.218 97.114C237.594 97.982 235.578 98.416 233.17 98.416H228.718V109H221.536V79.516H233.17C235.522 79.516 237.51 79.922 239.134 80.734C240.758 81.546 241.976 82.666 242.788 84.094C243.6 85.522 244.006 87.16 244.006 89.008ZM232.624 92.704C233.996 92.704 235.018 92.382 235.69 91.738C236.362 91.094 236.698 90.184 236.698 89.008C236.698 87.832 236.362 86.922 235.69 86.278C235.018 85.634 233.996 85.312 232.624 85.312H228.718V92.704H232.624ZM258.413 109.336C256.117 109.336 254.045 108.846 252.197 107.866C250.377 106.886 248.935 105.486 247.871 103.666C246.835 101.846 246.317 99.718 246.317 97.282C246.317 94.874 246.849 92.76 247.913 90.94C248.977 89.092 250.433 87.678 252.281 86.698C254.129 85.718 256.201 85.228 258.497 85.228C260.793 85.228 262.865 85.718 264.713 86.698C266.561 87.678 268.017 89.092 269.081 90.94C270.145 92.76 270.677 94.874 270.677 97.282C270.677 99.69 270.131 101.818 269.039 103.666C267.975 105.486 266.505 106.886 264.629 107.866C262.781 108.846 260.709 109.336 258.413 109.336ZM258.413 103.12C259.785 103.12 260.947 102.616 261.899 101.608C262.879 100.6 263.369 99.158 263.369 97.282C263.369 95.406 262.893 93.964 261.941 92.956C261.017 91.948 259.869 91.444 258.497 91.444C257.097 91.444 255.935 91.948 255.011 92.956C254.087 93.936 253.625 95.378 253.625 97.282C253.625 99.158 254.073 100.6 254.969 101.608C255.893 102.616 257.041 103.12 258.413 103.12ZM308.129 85.564L301.787 109H293.849L290.153 93.796L286.331 109H278.435L272.051 85.564H279.233L282.551 102.322L286.499 85.564H294.101L298.091 102.238L301.367 85.564H308.129ZM332.96 96.904C332.96 97.576 332.918 98.276 332.834 99.004H316.58C316.692 100.46 317.154 101.58 317.966 102.364C318.806 103.12 319.828 103.498 321.032 103.498C322.824 103.498 324.07 102.742 324.77 101.23H332.414C332.022 102.77 331.308 104.156 330.272 105.388C329.264 106.62 327.99 107.586 326.45 108.286C324.91 108.986 323.188 109.336 321.284 109.336C318.988 109.336 316.944 108.846 315.152 107.866C313.36 106.886 311.96 105.486 310.952 103.666C309.944 101.846 309.44 99.718 309.44 97.282C309.44 94.846 309.93 92.718 310.91 90.898C311.918 89.078 313.318 87.678 315.11 86.698C316.902 85.718 318.96 85.228 321.284 85.228C323.552 85.228 325.568 85.704 327.332 86.656C329.096 87.608 330.468 88.966 331.448 90.73C332.456 92.494 332.96 94.552 332.96 96.904ZM325.61 95.014C325.61 93.782 325.19 92.802 324.35 92.074C323.51 91.346 322.46 90.982 321.2 90.982C319.996 90.982 318.974 91.332 318.134 92.032C317.322 92.732 316.818 93.726 316.622 95.014H325.61ZM343.931 89.47C344.771 88.182 345.821 87.174 347.081 86.446C348.341 85.69 349.741 85.312 351.281 85.312V92.914H349.307C347.515 92.914 346.171 93.306 345.275 94.09C344.379 94.846 343.931 96.19 343.931 98.122V109H336.749V85.564H343.931V89.47ZM366.473 91.528H362.609V109H355.427V91.528H352.823V85.564H355.427V84.892C355.427 82.008 356.253 79.824 357.905 78.34C359.557 76.828 361.979 76.072 365.171 76.072C365.703 76.072 366.095 76.086 366.347 76.114V82.204C364.975 82.12 364.009 82.316 363.449 82.792C362.889 83.268 362.609 84.122 362.609 85.354V85.564H366.473V91.528ZM392.99 85.564V109H385.808V105.808C385.08 106.844 384.086 107.684 382.826 108.328C381.594 108.944 380.222 109.252 378.71 109.252C376.918 109.252 375.336 108.86 373.964 108.076C372.592 107.264 371.528 106.102 370.772 104.59C370.016 103.078 369.638 101.3 369.638 99.256V85.564H376.778V98.29C376.778 99.858 377.184 101.076 377.996 101.944C378.808 102.812 379.9 103.246 381.272 103.246C382.672 103.246 383.778 102.812 384.59 101.944C385.402 101.076 385.808 99.858 385.808 98.29V85.564H392.99ZM405.331 77.92V109H398.149V77.92H405.331Z" fill="#007EF2"/>
</svg>
