<svg width="76" height="76" viewBox="0 0 76 76" fill="none" xmlns="http://www.w3.org/2000/svg">
<circle opacity="0.2" r="38" transform="matrix(-1 0 0 1 38 38)" fill="#FF635F"/>
<path d="M52.9154 22.2656H22.2703C20.3975 22.2656 18.8652 23.7979 18.8652 25.6706V46.1007C18.8652 47.9735 20.3975 49.5058 22.2703 49.5058H30.7828V51.2083C30.7828 52.1447 31.5489 52.9108 32.4853 52.9108H42.7004C43.6367 52.9108 44.4029 52.1447 44.4029 51.2083V49.5058H52.9154C54.7882 49.5058 56.3034 47.9735 56.3034 46.1007L56.3204 25.6706C56.3204 23.7809 54.7882 22.2656 52.9154 22.2656ZM51.2129 46.1007H23.9728C23.0364 46.1007 22.2703 45.3346 22.2703 44.3982V27.3732C22.2703 26.4368 23.0364 25.6706 23.9728 25.6706H51.2129C52.1493 25.6706 52.9154 26.4368 52.9154 27.3732V44.3982C52.9154 45.3346 52.1493 46.1007 51.2129 46.1007ZM41.8151 37.3669L35.0391 41.2486C33.8984 41.8956 32.4853 41.0613 32.4853 39.7674V32.004C32.4853 30.693 33.8984 29.8758 35.0391 30.5228L41.8151 34.4045C42.9557 35.0685 42.9557 36.7029 41.8151 37.3669Z" fill="#FF635F"/>
</svg>
